<?xml version="1.0" encoding="utf-8"?>
<!-- Generator: Adobe Illustrator 27.5.0, SVG Export Plug-In . SVG Version: 6.00 Build 0)  -->
<svg version="1.1" xmlns="http://www.w3.org/2000/svg" xmlns:xlink="http://www.w3.org/1999/xlink" x="0px" y="0px"
	 viewBox="0 0 750 500" style="enable-background:new 0 0 750 500;" xml:space="preserve">
<g id="BACKGROUND">
</g>
<g id="OBJECTS">
	<g>
		<g>
			<path style="fill:#B1CBDB;" d="M614.061,316.412c-1.779-0.181-2.15-2.274-0.528-2.938c5.725-2.343,8.781-4.803,8.781-7.339
				c0-2.467-2.889-4.861-8.313-7.147c-1.598-0.673-1.229-2.933,0.541-2.92c58.134,0.404,80.323,1.369,71.64-9.736
				c-8.47-10.833-111.27-25.864-247.338-25.864s-209.365,4.395-209.365,18.147c0,1.446,1.235,2.863,3.577,4.242
				c-66.631,5.245-109.915,13.717-109.915,23.278c0,8.812,36.773,16.699,94.702,21.988c-4.141,1.78-6.337,3.631-6.337,5.533
				c0,13.752,77.32,24.899,218.351,24.899s255.359-11.148,255.359-24.899C685.218,326.961,658.126,320.886,614.061,316.412z"/>
			<g>
				<defs>
					<path id="SVGID_1_" d="M614.061,317.44c-1.779-0.184-2.15-2.316-0.528-2.992c5.725-2.386,8.781-4.891,8.781-7.474
						c0-2.512-2.889-4.951-8.313-7.278c-1.598-0.686-1.229-2.986,0.541-2.974c58.134,0.411,80.323,1.394,71.64-9.914
						c-8.47-11.032-111.27-26.34-247.338-26.34s-246.373,4.476-246.373,18.48c0,1.473,1.235,2.916,3.577,4.321
						c-66.631,5.342-109.915,13.969-109.915,23.706c0,8.974,36.773,17.006,94.702,22.392c-4.141,1.812-6.337,3.698-6.337,5.635
						c0,14.004,114.328,25.357,255.359,25.357S685.218,349.005,685.218,335C685.218,328.184,658.126,321.997,614.061,317.44z"/>
				</defs>
				<clipPath id="SVGID_00000121979205931645513290000000696001301826080172_">
					<use xlink:href="#SVGID_1_"  style="overflow:visible;"/>
				</clipPath>
				<polygon style="clip-path:url(#SVGID_00000121979205931645513290000000696001301826080172_);fill:#B1CBDB;" points="
					541.071,341.577 634.198,294.739 487.492,278.055 445.024,292.233 				"/>
				<polygon style="clip-path:url(#SVGID_00000121979205931645513290000000696001301826080172_);fill:#B1CBDB;" points="
					322.887,320.035 437.227,317.273 484.487,292.86 413.077,270.936 				"/>
			</g>
			<g>
				<g>
					<path style="fill:#F9EDDD;" d="M308.475,293.621l16.948-8.474l125.156-42.371c0,0-9.126,20.207,5.215,29.985l-129.719,48.237
						L308.475,293.621z"/>
					<path style="opacity:0.45;fill:#F9EDDD;" d="M308.475,293.621l16.948-8.474l125.156-42.371c0,0-9.126,20.207,5.215,29.985
						l-129.719,48.237L308.475,293.621z"/>
					<polyline style="fill:#F9EDDD;" points="328.03,277.977 322.595,293.992 447.79,254.362 447.79,245.355 325.423,279.28 					
						"/>
					<polygon style="fill:#C13D56;" points="224.385,280.584 176.913,277.025 184.401,270.38 309.778,231.043 454.49,241.473 
						325.423,289.058 					"/>
					<path style="fill:#F9EDDD;" d="M325.423,285.147l-132.587-16.494c-2.926-0.364-5.893,0.232-8.435,1.727
						c-5.714,3.36-13.355,10.93-3.623,24.93c2.112,3.038,5.4,5.059,9.06,5.599l136.237,20.09
						C326.075,320.999,314.993,298.184,325.423,285.147z"/>
					<path style="fill:#C13D56;" d="M454.49,241.473v3.259l-129.067,44.326L184.401,270.38c0,0,3.656-1.496,6.828-2.165
						l134.194,16.932L454.49,241.473z"/>
					<path style="fill:#C13D56;" d="M454.49,241.473v3.259l-129.067,44.326L184.401,270.38c0,0,3.656-1.496,6.828-2.165
						l134.194,16.932L454.49,241.473z"/>
					<path style="fill:#C13D56;" d="M192.445,300.909c-3.66-0.54-6.948-2.561-9.06-5.599c-9.732-14-2.09-21.57,3.623-24.93
						c1.676-0.986,3.539-1.572,5.451-1.759c-2.803-0.27-5.626,0.328-8.058,1.759c-5.714,3.36-13.355,10.93-3.623,24.93
						c2.112,3.038,5.4,5.059,9.06,5.599l136.237,20.09c0,0-0.073-0.153-0.192-0.413L192.445,300.909z"/>
					<path style="fill:#C13D56;" d="M192.445,300.909c-3.66-0.54-6.948-2.561-9.06-5.599c-9.732-14-2.09-21.57,3.623-24.93
						c1.676-0.986,3.539-1.572,5.451-1.759c-2.803-0.27-5.626,0.328-8.058,1.759c-5.714,3.36-13.355,10.93-3.623,24.93
						c2.112,3.038,5.4,5.059,9.06,5.599l136.237,20.09c0,0-0.073-0.153-0.192-0.413L192.445,300.909z"/>
					<g>
						<path style="fill:#C13D56;" d="M182.256,297.062c2.032,2.053,4.685,3.419,7.582,3.846l136.237,20.09
							c0,0-0.372-2.073-0.914-3.399L182.256,297.062z"/>
					</g>
					<path style="fill:#C13D56;" d="M325.161,318.904"/>
					<polygon style="fill:#C13D56;" points="313.776,318.091 325.161,317.6 458.401,270.154 458.401,272.762 326.075,320.999 					
						"/>
					<path style="fill:#C13D56;" d="M325.161,317.6l-142.904-20.538c2.032,2.053,4.685,3.419,7.582,3.846l136.237,20.09
						l132.327-48.237v-2.607L325.161,317.6z"/>
					<polygon style="fill:#C13D56;" points="454.49,241.473 454.49,244.732 325.423,289.058 325.423,285.147 					"/>
					<polygon style="fill:#C13D56;" points="325.161,317.6 326.075,320.999 458.401,272.762 458.401,270.154 					"/>
				</g>
				<polyline style="opacity:0.97;fill:none;stroke:#F9EDDD;stroke-width:0.6519;stroke-miterlimit:10;" points="187.041,272.826 
					322.144,292.641 445.539,251.209 				"/>
				<polyline style="opacity:0.97;fill:none;stroke:#F9EDDD;stroke-width:0.6519;stroke-miterlimit:10;" points="187.041,277.389 
					320.841,297.204 445.539,255.772 				"/>
				<polyline style="opacity:0.97;fill:none;stroke:#F9EDDD;stroke-width:0.6519;stroke-miterlimit:10;" points="187.041,281.952 
					320.841,301.767 445.539,260.335 				"/>
				<polyline style="opacity:0.97;fill:none;stroke:#F9EDDD;stroke-width:0.6519;stroke-miterlimit:10;" points="187.041,286.515 
					321.492,306.33 445.539,264.898 				"/>
				<polyline style="opacity:0.97;fill:none;stroke:#F9EDDD;stroke-width:0.6519;stroke-miterlimit:10;" points="187.041,291.078 
					322.796,310.893 445.539,269.461 				"/>
				<polyline style="opacity:0.97;fill:none;stroke:#F9EDDD;stroke-width:0.6519;stroke-miterlimit:10;" points="187.041,295.641 
					324.1,315.456 445.539,274.024 				"/>
			</g>
			<g>
				<g>
					<path style="fill:#F3C7A1;" d="M419.29,214.095l23.364,2.249c0,0-6.134,7.269-0.734,22.391L325.749,270.48l-17.926-9.452
						l-0.251-21.192c0,0,2.858-8.142,4.814-8.142S419.29,214.095,419.29,214.095z"/>
					<path style="opacity:0.38;fill:#F3C7A1;" d="M439.688,221.26l-103.983,24.188c-9.85,2.291-15.551,12.9-11.598,22.208
						c0.12,0.281,0.247,0.563,0.381,0.844l-6.906,0.276l-7.151-9.704l3.259-23.467l13.284,0.02l67.684-11.879l47.997-7.403
						L439.688,221.26z"/>
					<polyline style="fill:#D0859F;" points="324.119,235.606 321.038,244.124 445.364,216.702 446.016,214.095 322.163,236.258 
											"/>
					<polyline style="fill:#D0859F;" points="311.734,266.243 323.791,268.549 444.06,236.258 444.06,239.517 325.749,270.48 
						310.43,267.547 					"/>
					<polyline style="opacity:0.58;fill:#D0859F;" points="324.119,235.606 321.038,244.124 445.364,216.702 446.016,214.095 
						322.163,236.258 					"/>
					<polyline style="opacity:0.58;fill:#D0859F;" points="311.734,266.243 323.791,268.549 444.06,236.258 444.06,239.517 
						325.749,270.48 310.43,267.547 					"/>
					<polygon style="fill:#D0859F;" points="300.652,255.813 323.141,241.147 446.016,214.095 311.082,202.361 188.859,230.065 
						214.607,240.169 					"/>
					<path style="fill:#D0859F;" d="M323.141,241.147c0,0-11.733,16.296,2.607,29.333l-135.586-12.385c0,0-17.6-14.341-1.304-28.03
						L323.141,241.147z"/>
					<path style="opacity:0.11;fill:#D0859F;" d="M323.141,241.147c0,0-11.733,16.296,2.607,29.333l-135.586-12.385
						c0,0-17.6-14.341-1.304-28.03L323.141,241.147z"/>
					<g>
						<path style="opacity:0.11;fill:#D0859F;" d="M316.734,240.618c-0.693,0.751-21.976,23.435-66.052,23.005l75.066,6.857
							c-14.341-13.037-2.607-29.333-2.607-29.333L316.734,240.618z"/>
						<path style="opacity:0.11;fill:#D0859F;" d="M184.227,250.86c2.433,4.378,5.936,7.235,5.936,7.235l35.041,3.201
							C206.975,258.578,193.585,254.566,184.227,250.86z"/>
					</g>
					<path style="opacity:0.11;fill:#D0859F;" d="M323.141,241.147c0,0-11.733,16.296,2.607,29.333l-135.586-12.385
						c0,0-17.6-14.341-1.304-28.03L323.141,241.147z"/>
					<path style="fill:#EDB74A;" d="M319.882,270.154c0,0-12.059-11.082-1.7-28.99l-4.167-0.344
						c-10.756,16.296,0.326,28.682,0.326,28.682L319.882,270.154z"/>
					<path style="fill:#EDB74A;" d="M195.378,257.769c0,0-17.301-14.754-1.7-28.338l-4.167-0.344
						c-16.296,13.689,1.304,28.682,1.304,28.682H195.378z"/>
				</g>
				<g>
					
						<line style="opacity:0.97;fill:none;stroke:#F9EDDD;stroke-width:0.3259;stroke-miterlimit:10;" x1="322.49" y1="246.361" x2="438.52" y2="220.287"/>
					
						<line style="opacity:0.97;fill:none;stroke:#F9EDDD;stroke-width:0.3259;stroke-miterlimit:10;" x1="322.955" y1="249.062" x2="438.613" y2="222.522"/>
					
						<line style="opacity:0.97;fill:none;stroke:#F9EDDD;stroke-width:0.3259;stroke-miterlimit:10;" x1="323.421" y1="251.763" x2="438.706" y2="224.757"/>
					
						<line style="opacity:0.97;fill:none;stroke:#F9EDDD;stroke-width:0.3259;stroke-miterlimit:10;" x1="323.886" y1="254.463" x2="438.799" y2="226.992"/>
					
						<line style="opacity:0.97;fill:none;stroke:#F9EDDD;stroke-width:0.3259;stroke-miterlimit:10;" x1="324.352" y1="257.164" x2="438.892" y2="229.227"/>
					
						<line style="opacity:0.97;fill:none;stroke:#F9EDDD;stroke-width:0.3259;stroke-miterlimit:10;" x1="324.818" y1="259.864" x2="438.985" y2="231.462"/>
					
						<line style="opacity:0.97;fill:none;stroke:#F9EDDD;stroke-width:0.3259;stroke-miterlimit:10;" x1="325.283" y1="262.565" x2="439.078" y2="233.697"/>
					
						<line style="opacity:0.97;fill:none;stroke:#F9EDDD;stroke-width:0.3259;stroke-miterlimit:10;" x1="325.749" y1="265.265" x2="439.172" y2="235.932"/>
				</g>
			</g>
			<g>
				<g>
					<path style="fill:#F9EDDD;" d="M225.462,205.9l-18.293-0.089c0,0,5.434,7.626,2.379,17.275l94.406,6.765l13.415-7.571
						l-1.504-12.748c0,0-2.914-4.585-4.461-4.378C309.858,205.361,225.462,205.9,225.462,205.9z"/>
					<path style="opacity:0.38;fill:#F3C7A1;" d="M216.563,204.317l-8.54,2.504l90.061,8.34c1.841,0.17,3.145,1.95,2.656,3.733
						c-0.686,2.498-3.318,5.544-11.821,6.283l-36.3-0.153l53.015,4.323l10.694-11.376l-0.031-9.742l-25.453-0.497L216.563,204.317z"
						/>
					<polyline style="fill:#3D6EBE;" points="302.441,208.744 305.562,213.531 205.055,206.313 204.33,204.817 304.04,208.928 					
						"/>
					<polyline style="fill:#3D6EBE;" points="314.696,225.825 305.347,228.485 207.657,221.826 207.919,223.783 303.954,229.852 
						315.831,226.47 					"/>
					<polyline style="opacity:0.39;fill:#3D6EBE;" points="302.441,208.744 305.562,213.531 205.055,206.313 204.33,204.817 
						304.04,208.928 					"/>
					<polyline style="opacity:0.39;fill:#3D6EBE;" points="314.696,225.825 305.347,228.485 207.657,221.826 207.919,223.783 
						303.954,229.852 315.831,226.47 					"/>
					<polygon style="fill:#3D6EBE;" points="322.62,218.391 303.66,211.966 204.33,204.817 318.904,188.02 408.945,191.105 
						389.398,199.895 					"/>
					<path style="fill:#3D6EBE;" d="M303.66,211.966c0,0,10.587,8.541,0.295,17.885l106.212-21.781c0,0,12.764-10.471-1.221-16.965
						L303.66,211.966z"/>
					<path style="fill:#3D6EBE;" d="M303.66,211.966c0,0,10.587,8.541,0.295,17.885l106.212-21.781c0,0,12.764-10.471-1.221-16.965
						L303.66,211.966z"/>
					<g>
						<path style="opacity:0.11;fill:#3D6EBE;" d="M308.683,210.971c0.608,0.378,19.259,11.743,54.075,6.821l-58.804,12.059
							c10.292-9.344-0.295-17.885-0.295-17.885L308.683,210.971z"/>
						<path style="opacity:0.11;fill:#3D6EBE;" d="M414.279,203.099c-1.572,2.886-4.113,4.971-4.113,4.971l-27.45,5.629
							C396.912,210.139,407.177,206.314,414.279,203.099z"/>
					</g>
					<path style="opacity:0.39;fill:#3D6EBE;" d="M303.66,211.966c0,0,10.587,8.541,0.295,17.885l106.212-21.781
						c0,0,12.764-10.471-1.221-16.965L303.66,211.966z"/>
				</g>
				<g>
					
						<line style="opacity:0.97;fill:none;stroke:#F9EDDD;stroke-width:0.3259;stroke-miterlimit:10;" x1="209.718" y1="207.902" x2="304.237" y2="215.072"/>
					
						<line style="opacity:0.97;fill:none;stroke:#F9EDDD;stroke-width:0.3259;stroke-miterlimit:10;" x1="209.936" y1="209.351" x2="304.237" y2="216.449"/>
					
						<line style="opacity:0.97;fill:none;stroke:#F9EDDD;stroke-width:0.3259;stroke-miterlimit:10;" x1="210.153" y1="210.799" x2="304.237" y2="217.825"/>
					
						<line style="opacity:0.97;fill:none;stroke:#F9EDDD;stroke-width:0.3259;stroke-miterlimit:10;" x1="210.37" y1="212.248" x2="304.237" y2="219.201"/>
					
						<line style="opacity:0.97;fill:none;stroke:#F9EDDD;stroke-width:0.3259;stroke-miterlimit:10;" x1="210.588" y1="213.696" x2="304.237" y2="220.577"/>
					
						<line style="opacity:0.97;fill:none;stroke:#F9EDDD;stroke-width:0.3259;stroke-miterlimit:10;" x1="210.805" y1="215.145" x2="304.237" y2="221.953"/>
					
						<line style="opacity:0.97;fill:none;stroke:#F9EDDD;stroke-width:0.3259;stroke-miterlimit:10;" x1="211.022" y1="216.594" x2="304.237" y2="223.329"/>
					
						<line style="opacity:0.97;fill:none;stroke:#F9EDDD;stroke-width:0.3259;stroke-miterlimit:10;" x1="211.24" y1="218.042" x2="304.237" y2="224.705"/>
					
						<line style="opacity:0.97;fill:none;stroke:#F9EDDD;stroke-width:0.3259;stroke-miterlimit:10;" x1="211.457" y1="219.491" x2="304.237" y2="226.082"/>
					
						<line style="opacity:0.97;fill:none;stroke:#F9EDDD;stroke-width:0.3259;stroke-miterlimit:10;" x1="211.674" y1="220.939" x2="304.237" y2="227.458"/>
				</g>
			</g>
			<g>
				<polygon style="fill:#66A09C;" points="297.72,197.852 287.756,203.955 285.04,204.528 209.913,203.152 209.905,200.942 
					232.976,201.978 287.987,200.803 				"/>
				<polygon style="opacity:0.83;fill:#66A09C;" points="297.72,197.852 287.756,203.955 285.04,204.528 209.913,203.152 
					209.905,200.942 232.976,201.978 287.987,200.803 				"/>
				<polyline style="fill:#66A09C;" points="388.94,177.074 387.782,162.717 331.985,160.716 214.636,168.611 236.509,183.167 				
					"/>
				<path style="fill:#66A09C;" d="M277.971,192.403l1.817-21.273l104.996-8.782c6.91-0.578,13.381,3.491,15.818,9.983
					c0.722,1.923,1.247,4.011,1.384,6.181c0.526,8.309-5.825,15.471-14.118,16.214l-103.38,9.804l-8.733-13.777"/>
				<path style="opacity:0.46;fill:#66A09C;" d="M277.971,192.403l1.817-21.273l104.996-8.782c6.91-0.578,13.381,3.491,15.818,9.983
					c0.722,1.923,1.247,4.011,1.384,6.181c0.526,8.309-5.825,15.471-14.118,16.214l-103.38,9.804l-8.733-13.777"/>
				<path style="fill:#F9EDDD;" d="M216.297,169.71l62.939,1.422c4.328-0.016,8.367,2.242,10.551,5.978
					c3.379,5.779,6.299,14.782-1.206,22.687c-2.382,2.509-5.727,3.329-9.184,3.236l-67.401-1.822
					C211.996,201.211,228.52,188.445,216.297,169.71z"/>
				<path style="opacity:0.97;fill:#F9EDDD;" d="M289.787,177.11c-2.184-3.736-6.223-5.994-10.551-5.978l-62.939-1.422
					c1.034,1.585,1.858,3.126,2.508,4.621l54.924,1.241c4.328-0.016,8.367,2.242,10.551,5.978
					c3.103,5.307,5.813,13.333,0.422,20.732c1.445-0.514,2.768-1.313,3.879-2.484C296.086,191.891,293.166,182.888,289.787,177.11z"
					/>
				<path style="fill:#66A09C;" d="M290.34,177.108c-2.184-3.736-6.223-5.994-10.551-5.978l-62.939-1.422
					c0.01,0.015,0.018,0.029,0.028,0.044l61.254,1.384c4.328-0.016,8.367,2.242,10.551,5.978c3.379,5.779,6.299,14.782-1.206,22.687
					c-2.066,2.176-4.857,3.081-7.818,3.222l0.291,0.008c3.458,0.093,6.803-0.727,9.185-3.236
					C296.639,191.889,293.718,182.886,290.34,177.108z"/>
				<path style="opacity:0.22;fill:#66A09C;" d="M401.987,178.512c-0.137-2.17-0.662-4.257-1.384-6.181
					c-2.437-6.492-8.908-10.561-15.818-9.983l-104.996,8.782c0,0,63.268-3.827,82.642,7.148c9.38,5.314,15.002,11.803,18.314,17.088
					l7.124-0.639C396.161,193.983,402.513,186.821,401.987,178.512z"/>
				<path style="fill:#66A09C;" d="M214.204,168.889l67.939,2.178c0,0,3.595,1.044,5.402,2.883l-3.078-0.75
					c-1.901-0.463-3.846-0.725-5.802-0.782l-64.454-1.872L214.204,168.889z"/>
				<path style="fill:#66A09C;" d="M290.34,177.108c-0.917-1.568-2.164-2.872-3.618-3.861c-0.189-0.14-0.385-0.275-0.586-0.403
					c-1.87-1.179-4.048-1.779-6.257-1.85l-65.673-2.105l0.006,1.657l61.287,1.78c2.281,0.066,4.555,0.269,6.81,0.604
					c2.622,0.39,5.002,1.857,6.35,4.14c0.009,0.014,0.017,0.029,0.026,0.044c3.379,5.779,6.299,14.782-1.206,22.687
					c-2.066,2.176-4.857,3.081-7.818,3.222l1.422,0.038c2.992,0.081,5.924-1.041,7.994-3.204
					C296.654,191.936,293.727,182.901,290.34,177.108z"/>
				<g>
					
						<line style="opacity:0.97;fill:none;stroke:#F9EDDD;stroke-width:0.5524;stroke-miterlimit:10;" x1="219.742" y1="172.735" x2="283.824" y2="174.705"/>
					
						<line style="opacity:0.97;fill:none;stroke:#F9EDDD;stroke-width:0.5524;stroke-miterlimit:10;" x1="221.158" y1="175.215" x2="285.767" y2="177.133"/>
					
						<line style="opacity:0.97;fill:none;stroke:#F9EDDD;stroke-width:0.5524;stroke-miterlimit:10;" x1="221.468" y1="177.7" x2="287.985" y2="179.56"/>
					
						<line style="opacity:0.97;fill:none;stroke:#F9EDDD;stroke-width:0.5524;stroke-miterlimit:10;" x1="222.331" y1="180.182" x2="289.099" y2="181.992"/>
					
						<line style="opacity:0.97;fill:none;stroke:#F9EDDD;stroke-width:0.5524;stroke-miterlimit:10;" x1="222.642" y1="182.667" x2="289.108" y2="184.427"/>
					
						<line style="opacity:0.97;fill:none;stroke:#F9EDDD;stroke-width:0.5524;stroke-miterlimit:10;" x1="222.4" y1="185.153" x2="289.67" y2="186.86"/>
					
						<line style="opacity:0.97;fill:none;stroke:#F9EDDD;stroke-width:0.5524;stroke-miterlimit:10;" x1="221.606" y1="187.642" x2="289.679" y2="189.296"/>
					
						<line style="opacity:0.97;fill:none;stroke:#F9EDDD;stroke-width:0.5524;stroke-miterlimit:10;" x1="221.364" y1="190.128" x2="289.135" y2="191.733"/>
					
						<line style="opacity:0.97;fill:none;stroke:#F9EDDD;stroke-width:0.5524;stroke-miterlimit:10;" x1="220.57" y1="192.617" x2="287.914" y2="194.173"/>
					
						<line style="opacity:0.97;fill:none;stroke:#F9EDDD;stroke-width:0.5524;stroke-miterlimit:10;" x1="219.776" y1="195.106" x2="287.045" y2="196.612"/>
					
						<line style="opacity:0.97;fill:none;stroke:#F9EDDD;stroke-width:0.5524;stroke-miterlimit:10;" x1="217.324" y1="197.6" x2="285.07" y2="199.055"/>
					
						<line style="opacity:0.97;fill:none;stroke:#F9EDDD;stroke-width:0.5524;stroke-miterlimit:10;" x1="217.083" y1="200.087" x2="282.544" y2="201.5"/>
				</g>
				<path style="opacity:0.83;fill:#66A09C;" d="M290.34,177.108c-0.917-1.568-2.164-2.872-3.618-3.861
					c-0.189-0.14-0.385-0.275-0.586-0.403c-1.87-1.179-4.048-1.779-6.257-1.85l-65.673-2.105l0.006,1.657l61.287,1.78
					c2.281,0.066,4.555,0.269,6.81,0.604c2.622,0.39,5.002,1.857,6.35,4.14c0.009,0.014,0.017,0.029,0.026,0.044
					c3.379,5.779,6.299,14.782-1.206,22.687c-2.066,2.176-4.857,3.081-7.818,3.222l1.422,0.038c2.992,0.081,5.924-1.041,7.994-3.204
					C296.654,191.936,293.727,182.901,290.34,177.108z"/>
				<g>
					<path style="fill:#FFFFFF;" d="M314.788,183.493l-0.196-2.531c-0.099-1.079-0.237-1.893-0.413-2.441
						c0.052-0.633,0.237-0.968,0.556-1.003l1.049-0.114c0.918-0.101,1.601,0.251,2.052,1.059c0.395,0.715,0.638,1.562,0.727,2.537
						c0.113,1.235,0.155,1.996,0.127,2.283c-0.03,0.286-0.063,0.559-0.102,0.816c-0.039,0.258-0.096,0.468-0.171,0.634
						c-0.075,0.165-0.174,0.349-0.297,0.55c-0.122,0.202-0.267,0.376-0.435,0.525c-0.37,0.329-0.826,0.623-1.367,0.882l0.26,2.838
						l0.647,5.007c0.02,0.216-0.045,0.408-0.194,0.577c-0.149,0.17-0.33,0.266-0.539,0.289l-0.531-0.268
						c-0.285-0.956-0.501-2.246-0.65-3.87l-0.34-4.739c-0.115-0.223-0.181-0.433-0.199-0.633l-0.008-0.09
						C314.887,185.436,314.895,184.668,314.788,183.493z M315.704,180.383l0.52,5.165l0.003,0.039
						c0.936-0.241,1.273-1.788,1.012-4.639c-0.077-0.838-0.223-1.398-0.437-1.68c-0.231-0.297-0.557-0.423-0.977-0.378
						c-0.003-0.026-0.089-0.029-0.26-0.011L315.704,180.383z"/>
					<path style="fill:#FFFFFF;" d="M325.117,185.752l-0.069-1.014c-0.008-0.086-0.023-0.128-0.047-0.126l-0.044-0.479
						c-0.254-2.781-0.292-4.774-0.112-5.981c0.15-1.019,0.327-1.658,0.531-1.916c0.204-0.258,0.415-0.398,0.632-0.422
						c1.85-0.203,3.22,0.694,4.109,2.691c0.513,1.148,0.85,2.594,1.01,4.339l0.018,0.194l0.322,3.001
						c0.466,5.088-0.362,7.747-2.483,7.979c-0.878,0.096-1.601-0.37-2.165-1.398c-0.539-0.988-0.904-1.977-1.097-2.968
						C325.42,188.157,325.219,186.858,325.117,185.752z M326.196,181.97l0.107,2.462c0.235,2.565,0.627,4.783,1.175,6.651
						c0.499,1.07,0.936,1.686,1.311,1.845c0.288-0.032,0.537-0.189,0.746-0.474c0.209-0.285,0.362-0.653,0.458-1.104
						c0.096-0.452,0.168-0.924,0.218-1.417c0.042-0.485,0.062-1.002,0.058-1.55c-0.009-0.951-0.043-1.759-0.104-2.424
						c-0.061-0.664-0.207-1.679-0.437-3.04c-0.231-1.361-0.377-2.38-0.439-3.054l-0.042-0.466c-0.075-0.646-0.318-1.201-0.73-1.667
						c-0.412-0.465-0.901-0.667-1.468-0.605c-0.544,0.06-0.875,0.44-0.991,1.142c-0.095,0.586-0.104,1.299-0.027,2.137
						L326.196,181.97z"/>
					<path style="fill:#FFFFFF;" d="M337.407,179.068l-0.333-2.227c-0.115-1.253,0.162-1.915,0.83-1.989
						c0.428-0.046,1.021-0.001,1.779,0.139c0.759,0.139,1.154,0.382,1.185,0.728c0.034,0.362-0.174,0.665-0.623,0.906
						c-0.764-0.196-1.381-0.297-1.853-0.308c0.058,0.377,0.104,0.757,0.139,1.137l0.245,3.821c0.001,0.018,0.037,0.152,0.108,0.406
						l0.847-0.132c0.77-0.084,1.177,0.116,1.221,0.6c0.017,0.19-0.038,0.365-0.165,0.522c-0.127,0.158-0.297,0.249-0.511,0.271
						c-0.214,0.023-0.447,0.032-0.698,0.024l-0.606,0.066c0.108,0.669,0.193,1.336,0.254,2.001l0.336,4.818
						c0.091,0.993,0.151,1.488,0.183,1.485l1.754-0.258c0.607-0.066,0.93,0.117,0.969,0.549c0.024,0.268-0.063,0.473-0.262,0.618
						c-0.198,0.143-0.43,0.23-0.694,0.259l-2.017,0.221c-0.21,0.023-0.408-0.038-0.593-0.178c-0.186-0.141-0.293-0.324-0.321-0.548
						l-0.064-0.699l-0.563-4.466L337.407,179.068z"/>
					<path style="fill:#FFFFFF;" d="M357.294,190.149l-0.299-3.396c-0.072-0.786-0.235-1.933-0.492-3.441
						c-0.255-1.507-0.407-2.525-0.456-3.051c-0.048-0.527-0.091-1.157-0.126-1.891c-0.036-0.733-0.07-1.281-0.103-1.644
						c-0.049,0.24-0.205,1.492-0.469,3.755c-0.689,5.85-1.293,8.805-1.814,8.861c-0.311,0.034-0.563-0.043-0.757-0.232
						c-0.194-0.188-0.307-0.455-0.338-0.8c-0.077-0.839-0.532-2.531-1.366-5.079c-0.834-2.548-1.521-4.494-2.06-5.839
						c0.268,6.269,0.503,10.5,0.704,12.694l0.107,0.788c0.026,0.285-0.008,0.509-0.103,0.672c-0.096,0.163-0.259,0.257-0.492,0.283
						c-0.233,0.025-0.43-0.017-0.589-0.125c-0.159-0.109-0.247-0.25-0.263-0.423c-0.165-1.805-0.291-4.522-0.376-8.151
						c-0.085-3.629-0.21-6.346-0.375-8.151c-0.109-0.154-0.173-0.332-0.192-0.535c-0.018-0.202,0.065-0.367,0.25-0.492
						c0.185-0.124,0.39-0.199,0.615-0.224c0.342-0.038,1.181,1.666,2.517,5.11c1.336,3.443,2.183,5.835,2.542,7.174
						c0.046-0.266,0.132-0.937,0.258-2.011c0.125-1.073,0.26-2.189,0.405-3.349c0.144-1.167,0.311-2.346,0.5-3.535
						c0.425-2.733,0.871-4.126,1.337-4.178c0.21-0.023,0.414,0.021,0.612,0.13c0.199,0.108,0.308,0.275,0.329,0.5
						c0.117,1.279,0.342,3.183,0.676,5.711c0.333,2.529,0.553,4.367,0.658,5.516l0.198,2.805l0.001,0.013
						c0.018,0.199,0.122,0.824,0.314,1.877l0.094,0.514c0.087,0.182,0.14,0.378,0.16,0.59c0.02,0.212-0.034,0.447-0.16,0.705
						c-0.125,0.257-0.308,0.4-0.549,0.427C357.695,191.781,357.396,191.255,357.294,190.149z"/>
					<path style="fill:#FFFFFF;" d="M365.036,188.451l1.009,0.086c0.303-0.033,0.554-0.209,0.753-0.527
						c0.198-0.318,0.332-0.703,0.4-1.155c0.132-0.87,0.169-1.63,0.109-2.283c-0.06-0.653-0.216-1.287-0.469-1.906
						c-0.253-0.617-0.546-1.186-0.881-1.703c-0.333-0.518-0.667-1.046-0.998-1.585c-0.793-1.274-1.248-2.56-1.366-3.855
						c-0.073-0.795-0.017-1.512,0.168-2.152c0.346-1.189,0.893-1.825,1.639-1.906c0.279-0.031,0.555,0.04,0.826,0.21
						c0.271,0.17,0.417,0.373,0.438,0.606c0.038,0.406-0.138,0.63-0.527,0.673c-0.171,0.019-0.343-0.015-0.516-0.101
						c-0.503,0.082-0.788,0.745-0.854,1.991c-0.014,0.273-0.005,0.588,0.028,0.946c0.033,0.359,0.144,0.794,0.331,1.305
						c0.188,0.512,0.408,0.961,0.66,1.348c0.251,0.387,0.522,0.816,0.813,1.285c0.291,0.469,0.566,0.925,0.827,1.368
						c0.596,1.026,0.954,2.233,1.074,3.625c0.106,1.071-0.022,2.118-0.383,3.144c-0.173,0.508-0.446,0.938-0.818,1.287
						c-0.373,0.351-0.814,0.558-1.327,0.623l0.006,0.065c-0.663-0.033-1.052-0.333-1.167-0.906L365.036,188.451z"/>
				</g>
				<path style="opacity:0.5;fill:#66A09C;" d="M287,178c9.378,2.238,14.975,11.673,14.975,11.673l85.15-26.902l-32.332-1.481
					C354.792,161.289,270.545,174.073,287,178z"/>
			</g>
			<g>
				<g>
					<path style="fill:#F3C7A1;" d="M217.775,150.211l-18.163,4.478c0,0,5.678,5.022,3.17,17.571l95.279,11.587l13.041-9.528
						l-2.255-16.739c0,0-3.196-6.089-4.738-5.863C302.567,151.943,217.775,150.211,217.775,150.211z"/>
					<path style="opacity:0.38;fill:#F3C7A1;" d="M202.52,158.222l84.794,7.038c8.032,0.667,13.756,8.373,11.716,16.17
						c-0.062,0.236-0.129,0.472-0.203,0.71l5.478-0.581l4.516-8.48l-5.286-18.127l-10.473,1.553l-54.746-1.534l-38.704-0.282
						L202.52,158.222z"/>
					<polyline style="fill:#EDB74A;" points="295.31,156.159 298.725,162.519 197.516,155.285 196.701,153.304 296.927,156.447 
											"/>
					<polyline style="fill:#EDB74A;" points="308.622,178.884 299.381,182.098 200.807,170.554 201.185,173.124 298.061,183.847 
						309.801,179.761 					"/>
					<polyline style="opacity:0.59;fill:#EDB74A;" points="295.31,156.159 298.725,162.519 197.516,155.285 196.701,153.304 
						296.927,156.447 					"/>
					<polyline style="opacity:0.59;fill:#EDB74A;" points="308.622,178.884 299.381,182.098 200.807,170.554 201.185,173.124 
						298.061,183.847 309.801,179.761 					"/>
					<polygon style="fill:#EDB74A;" points="316.153,169.377 296.722,160.415 196.701,153.304 301.743,128.436 401.326,136.136 
						382.192,147.083 					"/>
					<path style="fill:#EDB74A;" d="M296.722,160.415c0,0,11.138,11.492,1.339,23.432l105.481-25.458
						c0,0,12.219-13.345-2.216-22.253L296.722,160.415z"/>
					<path style="fill:#EDB74A;" d="M296.722,160.415c0,0,11.138,11.492,1.339,23.432l105.481-25.458
						c0,0,12.219-13.345-2.216-22.253L296.722,160.415z"/>
					<g>
						<path style="opacity:0.11;fill:#EDB74A;" d="M301.713,159.257c0.633,0.512,20.041,15.936,54.747,10.496l-58.399,14.095
							c9.799-11.94-1.339-23.432-1.339-23.432L301.713,159.257z"/>
						<path style="opacity:0.11;fill:#EDB74A;" d="M407.385,151.997c-1.412,3.734-3.844,6.392-3.844,6.392l-27.261,6.579
							C390.341,160.716,400.434,156.003,407.385,151.997z"/>
					</g>
					<path style="opacity:0.59;fill:#EDB74A;" d="M296.722,160.415c0,0,11.138,11.492,1.339,23.432l105.481-25.458
						c0,0,12.219-13.345-2.216-22.253L296.722,160.415z"/>
				</g>
				<g>
					
						<line style="opacity:0.97;fill:none;stroke:#F9EDDD;stroke-width:0.2598;stroke-miterlimit:10;" x1="297.84" y1="164.452" x2="203.328" y2="157.32"/>
					
						<line style="opacity:0.97;fill:none;stroke:#F9EDDD;stroke-width:0.2598;stroke-miterlimit:10;" x1="297.785" y1="166.635" x2="203.513" y2="159.093"/>
					
						<line style="opacity:0.97;fill:none;stroke:#F9EDDD;stroke-width:0.2598;stroke-miterlimit:10;" x1="297.73" y1="168.818" x2="203.699" y2="160.866"/>
					
						<line style="opacity:0.97;fill:none;stroke:#F9EDDD;stroke-width:0.2598;stroke-miterlimit:10;" x1="297.676" y1="171.002" x2="203.884" y2="162.639"/>
					
						<line style="opacity:0.97;fill:none;stroke:#F9EDDD;stroke-width:0.2598;stroke-miterlimit:10;" x1="297.621" y1="173.185" x2="204.069" y2="164.412"/>
					
						<line style="opacity:0.97;fill:none;stroke:#F9EDDD;stroke-width:0.2598;stroke-miterlimit:10;" x1="297.567" y1="175.368" x2="204.254" y2="166.185"/>
					
						<line style="opacity:0.97;fill:none;stroke:#F9EDDD;stroke-width:0.2598;stroke-miterlimit:10;" x1="297.512" y1="177.552" x2="204.44" y2="167.958"/>
					
						<line style="opacity:0.97;fill:none;stroke:#F9EDDD;stroke-width:0.2598;stroke-miterlimit:10;" x1="297.457" y1="179.735" x2="204.625" y2="169.732"/>
				</g>
				<polygon style="opacity:0.59;fill:#EDB74A;" points="277.4,152.3 371.575,134.387 356.026,132.166 				"/>
			</g>
			<g>
				<g>
					<path style="fill:#F9EDDD;" d="M214.538,134.243l-14.579,0.169c0,0,4.43,6.006,2.122,13.735L277.4,152.3l10.59-6.209
						l-1.365-10.139c0,0-2.382-3.616-3.612-3.43C281.784,132.707,214.538,134.243,214.538,134.243z"/>
					<path style="opacity:0.38;fill:#F3C7A1;" d="M207.425,133.098l-6.773,2.107l71.877,5.465c1.469,0.112,2.532,1.513,2.165,2.94
						c-0.514,2-2.572,4.461-9.337,5.162l-28.929,0.354l42.303,2.75l8.373-9.206l-0.152-7.762l-20.289-0.063L207.425,133.098z"/>
					<polyline style="fill:#AF5099;" points="275.918,135.5 278.467,139.273 198.281,134.84 197.684,133.657 277.194,135.626 					
						"/>
					<polyline style="fill:#AF5099;" points="285.907,148.951 278.492,151.193 200.558,147.167 200.792,148.723 277.4,152.3 
						286.82,149.449 					"/>
					<polyline style="opacity:0.4;fill:#AF5099;" points="275.918,135.5 278.467,139.273 198.281,134.84 197.684,133.657 
						277.194,135.626 					"/>
					<polyline style="opacity:0.4;fill:#AF5099;" points="285.907,148.951 278.492,151.193 200.558,147.167 200.792,148.723 
						277.4,152.3 286.82,149.449 					"/>
					<polygon style="fill:#AF5099;" points="292.124,142.923 276.931,138.052 197.684,133.657 288.765,118.77 360.557,120.048 
						345.095,127.309 					"/>
					<path style="fill:#AF5099;" d="M276.931,138.052c0,0,8.548,6.668,0.469,14.248l84.352-18.749c0,0,10.034-8.512-1.195-13.503
						L276.931,138.052z"/>
					<path style="fill:#AF5099;" d="M276.931,138.052c0,0,8.548,6.668,0.469,14.248l84.352-18.749c0,0,10.034-8.512-1.195-13.503
						L276.931,138.052z"/>
					<g>
						<path style="opacity:0.11;fill:#AF5099;" d="M280.921,137.193c0.49,0.293,15.501,9.105,43.18,4.727L277.4,152.3
							c8.079-7.581-0.469-14.248-0.469-14.248L280.921,137.193z"/>
						<path style="opacity:0.11;fill:#AF5099;" d="M364.964,129.535c-1.215,2.32-3.212,4.015-3.212,4.015l-21.8,4.846
							C351.217,135.373,359.347,132.19,364.964,129.535z"/>
					</g>
					<path style="opacity:0.4;fill:#AF5099;" d="M276.931,138.052c0,0,8.548,6.668,0.469,14.248l84.352-18.749
						c0,0,10.034-8.512-1.195-13.503L276.931,138.052z"/>
					<g>
						<g>
							<path style="fill:#FFFFFF;" d="M307.641,139.149l-0.342-4.322c-0.036-0.484-0.067-0.968-0.094-1.449l0.205-0.224
								c0.157-0.02,0.376,0.534,0.661,1.662c0.23,0.922,0.423,1.753,0.578,2.494c0.155,0.739,0.24,1.142,0.255,1.205
								c0.018-0.248,0.053-0.691,0.105-1.332c0.052-0.64,0.089-1.137,0.112-1.49c0.07-1.031,0.093-1.941,0.069-2.726l-0.005-0.066
								c0.003-0.098,0.029-0.181,0.079-0.251c0.049-0.069,0.102-0.111,0.161-0.124c0.059-0.013,0.108,0.007,0.15,0.059
								c0.041,0.051,0.064,0.112,0.069,0.182c0.065,0.891,0.186,2.222,0.363,3.991c0.177,1.77,0.298,3.099,0.363,3.99
								c0.013,0.18-0.009,0.341-0.065,0.487c-0.057,0.145-0.115,0.225-0.177,0.238c-0.127,0.028-0.201-0.105-0.223-0.4l-0.374-4.699
								l-0.042-0.566c-0.015,0.295-0.059,0.815-0.131,1.561c-0.072,0.747-0.112,1.314-0.12,1.705l0.005,0.071
								c-0.003,0.029-0.006,0.101-0.008,0.211c-0.003,0.112-0.007,0.205-0.013,0.278c-0.006,0.074-0.018,0.156-0.035,0.249
								c-0.036,0.186-0.109,0.29-0.221,0.314c-0.186,0.042-0.304-0.286-0.355-0.981c-0.05-0.688-0.238-1.623-0.563-2.81
								c-0.162-0.593-0.267-0.995-0.316-1.206c0.033,0.6,0.06,1.051,0.083,1.352l0.4,4.582c0.012,0.16-0.018,0.309-0.088,0.446
								c-0.135,0.029-0.23-0.012-0.287-0.125c-0.056-0.113-0.091-0.276-0.107-0.487L307.641,139.149z"/>
							<path style="fill:#FFFFFF;" d="M311.854,137.32l-0.023-0.427c-0.003-0.036-0.008-0.054-0.016-0.053l-0.015-0.202
								c-0.085-1.172-0.099-2.015-0.041-2.531c0.048-0.436,0.106-0.711,0.173-0.825c0.066-0.115,0.135-0.179,0.207-0.195
								c0.606-0.134,1.056,0.21,1.349,1.033c0.169,0.473,0.28,1.077,0.334,1.811l0.006,0.082l0.108,1.264
								c0.156,2.144-0.113,3.291-0.809,3.445c-0.288,0.063-0.524-0.115-0.71-0.537c-0.177-0.403-0.298-0.813-0.362-1.229
								C311.955,138.332,311.889,137.787,311.854,137.32z M312.205,135.69l0.037,1.04c0.079,1.081,0.208,2.01,0.39,2.787
								c0.164,0.441,0.308,0.69,0.431,0.748c0.095-0.02,0.176-0.094,0.245-0.221c0.068-0.127,0.118-0.285,0.149-0.48
								c0.031-0.191,0.055-0.395,0.07-0.605c0.014-0.205,0.02-0.426,0.018-0.658c-0.003-0.402-0.015-0.743-0.035-1.023
								c-0.02-0.28-0.069-0.707-0.146-1.277c-0.077-0.57-0.125-0.998-0.146-1.282l-0.014-0.196c-0.025-0.273-0.105-0.502-0.24-0.689
								c-0.136-0.185-0.296-0.258-0.482-0.217c-0.178,0.039-0.287,0.209-0.324,0.509c-0.031,0.251-0.034,0.554-0.008,0.906
								L312.205,135.69z"/>
							<path style="fill:#FFFFFF;" d="M315.825,138.496l-0.234-3.526c-0.018-0.239-0.06-0.602-0.126-1.09
								c-0.066-0.485-0.105-0.796-0.114-0.931c-0.01-0.135,0.011-0.246,0.064-0.333c0.053-0.088,0.113-0.14,0.179-0.153
								c0.537-0.119,1.007,0.233,1.409,1.058c0.23,0.472,0.367,0.993,0.409,1.564l0.026,0.566l0.045,0.616
								c0.055,0.75,0.067,1.254,0.038,1.517c-0.028,0.262-0.062,0.482-0.101,0.66c-0.039,0.18-0.089,0.342-0.151,0.488
								c-0.143,0.335-0.335,0.62-0.574,0.858l-0.565,0.125C315.998,139.944,315.896,139.472,315.825,138.496z M316.417,139.004
								l0.02,0.267c0.454-0.101,0.678-0.815,0.674-2.144c-0.001-0.307-0.013-0.601-0.033-0.881
								c-0.164-2.249-0.553-3.358-1.167-3.325c-0.017,0.303-0.006,0.712,0.031,1.226c0.038,0.516,0.116,1.317,0.235,2.403
								C316.298,137.636,316.377,138.455,316.417,139.004z"/>
							<path style="fill:#FFFFFF;" d="M319.148,133.447l-0.111-0.935c-0.039-0.528,0.052-0.816,0.271-0.865
								c0.14-0.03,0.335-0.026,0.583,0.014c0.249,0.04,0.379,0.132,0.389,0.277c0.011,0.152-0.057,0.286-0.204,0.399
								c-0.251-0.063-0.453-0.09-0.608-0.082c0.02,0.159,0.035,0.318,0.047,0.479l0.082,1.613c0,0.006,0.013,0.063,0.036,0.168
								l0.277-0.078c0.253-0.056,0.386,0.02,0.401,0.223c0.006,0.08-0.012,0.155-0.054,0.225c-0.042,0.07-0.097,0.113-0.168,0.129
								c-0.07,0.015-0.146,0.025-0.229,0.028l-0.198,0.044c0.036,0.28,0.064,0.561,0.085,0.841l0.113,2.033
								c0.031,0.418,0.051,0.625,0.062,0.623l0.575-0.154c0.198-0.044,0.304,0.025,0.318,0.208c0.008,0.112-0.02,0.201-0.085,0.269
								c-0.065,0.065-0.141,0.108-0.227,0.127l-0.661,0.146c-0.069,0.015-0.134-0.005-0.195-0.06
								c-0.061-0.055-0.096-0.13-0.106-0.224l-0.021-0.295l-0.187-1.878L319.148,133.447z"/>
							<path style="fill:#FFFFFF;" d="M322.582,134.619l0.081,1.214c0.072,0.986,0.178,1.753,0.32,2.299l-0.067,0.319l-0.217,0.048
								l-0.116-0.142c-0.02-0.336-0.044-0.712-0.075-1.129c-0.031-0.416-0.118-1.302-0.262-2.656
								c-0.144-1.355-0.241-2.369-0.29-3.043c-0.026-0.352,0.048-0.549,0.221-0.587c0.273-0.06,0.509-0.009,0.71,0.153
								c0.201,0.164,0.315,0.435,0.343,0.813l0.057,0.786c0.016,0.215,0.002,0.417-0.04,0.605c-0.044,0.188-0.095,0.389-0.155,0.6
								c-0.06,0.21-0.092,0.328-0.098,0.352c0.042,0.176,0.117,0.522,0.227,1.037c0.238,1.127,0.468,1.926,0.691,2.393
								c0.064,0.135,0.099,0.242,0.105,0.323c0.006,0.082-0.005,0.154-0.033,0.218c-0.027,0.064-0.068,0.102-0.122,0.113
								c-0.11,0.024-0.228-0.132-0.354-0.468c-0.127-0.337-0.237-0.716-0.33-1.14c-0.284-1.295-0.451-2.005-0.501-2.131
								L322.582,134.619z M322.373,131.321l-0.016,0.164c0.022,0.306,0.06,0.746,0.112,1.32c0.052,0.574,0.088,0.992,0.107,1.255
								c0.116-0.117,0.197-0.377,0.245-0.777c0.047-0.401,0.063-0.702,0.048-0.907c-0.015-0.203-0.03-0.353-0.044-0.448
								c-0.015-0.094-0.04-0.196-0.073-0.308C322.684,131.392,322.557,131.292,322.373,131.321z"/>
							<path style="fill:#FFFFFF;" d="M325.314,133.224l-0.107-2.096c-0.025-0.346,0.05-0.641,0.227-0.888l0.005,0.071
								c0.019-0.022,0.037-0.036,0.055-0.04c0.123-0.027,0.297,0.24,0.525,0.803c0.227,0.561,0.441,1.186,0.642,1.874
								c0.2,0.688,0.4,1.382,0.6,2.083c0.2,0.701,0.322,1.111,0.367,1.231c-0.01-1.584-0.095-3.486-0.257-5.707l-0.033-0.298
								c-0.017-0.222,0.04-0.347,0.171-0.376c0.073-0.016,0.132,0.016,0.175,0.096c0.043,0.077,0.069,0.176,0.078,0.293l0.061,0.846
								c0.059,0.878,0.117,2.056,0.174,3.531c0.057,1.475,0.051,2.317-0.02,2.524c-0.138,0.094-0.234,0.147-0.29,0.159
								c-0.055,0.013-0.099-0.006-0.131-0.052c-0.034-0.047-0.063-0.121-0.088-0.227c-0.026-0.105-0.047-0.176-0.063-0.209v-0.05
								c-0.02-0.277-0.271-1.114-0.753-2.513c-0.483-1.397-0.828-2.357-1.037-2.877l0.411,5.628c0.006,0.014,0.018,0.037,0.036,0.07
								c0.039,0.072,0.061,0.143,0.066,0.212c0.005,0.069-0.014,0.143-0.056,0.223c-0.042,0.08-0.095,0.127-0.158,0.141
								c-0.171,0.038-0.273-0.171-0.306-0.626L325.314,133.224z"/>
							<path style="fill:#FFFFFF;" d="M333.767,133.648l0.134,0.67c0.007,0.091,0.048,0.308,0.124,0.649
								c0.075,0.343,0.117,0.567,0.124,0.677l0.001,0.011c0.012,0.164-0.024,0.279-0.107,0.346c-0.109,0.023-0.197,0.018-0.261-0.02
								c-0.065-0.037-0.103-0.13-0.114-0.275c-0.023-0.316-0.095-0.768-0.215-1.355l-0.784,0.007
								c-0.03,0.258-0.047,0.538-0.051,0.838c-0.004,0.301-0.013,0.52-0.026,0.66c-0.026,0.287-0.101,0.444-0.226,0.472
								c-0.061,0.014-0.12-0.002-0.176-0.047c-0.056-0.046-0.087-0.112-0.094-0.199l0.012-0.102c0.21-2.018,0.333-3.965,0.37-5.84
								c0.001-0.051-0.001-0.203-0.009-0.452c-0.015-0.552,0.008-0.91,0.069-1.075l0.264-0.059c0.072-0.016,0.136-0.006,0.193,0.03
								c0.057,0.035,0.088,0.101,0.096,0.195c0.041,0.567,0.155,1.398,0.343,2.492C333.62,132.364,333.731,133.157,333.767,133.648z
								 M333.374,133.963c-0.023-0.107-0.044-0.295-0.064-0.565c-0.02-0.271-0.056-0.605-0.107-1.003
								c-0.051-0.397-0.116-0.858-0.196-1.383c-0.079-0.524-0.136-0.904-0.168-1.142c-0.1,1.928-0.157,3.281-0.169,4.064
								C332.765,133.999,333,134.008,333.374,133.963z"/>
							<path style="fill:#FFFFFF;" d="M335.939,131.671l0.081,1.213c0.072,0.986,0.179,1.753,0.32,2.3l-0.066,0.319l-0.218,0.048
								l-0.115-0.142c-0.019-0.336-0.044-0.713-0.074-1.13c-0.031-0.416-0.118-1.302-0.262-2.656
								c-0.144-1.355-0.241-2.368-0.29-3.042c-0.026-0.353,0.048-0.549,0.221-0.587c0.273-0.061,0.509-0.01,0.71,0.152
								c0.201,0.164,0.315,0.435,0.343,0.813l0.057,0.786c0.016,0.215,0.002,0.418-0.041,0.605c-0.043,0.189-0.095,0.39-0.154,0.601
								c-0.06,0.21-0.093,0.327-0.098,0.352c0.041,0.176,0.117,0.521,0.226,1.036c0.238,1.128,0.468,1.927,0.691,2.394
								c0.065,0.135,0.099,0.242,0.105,0.323c0.006,0.082-0.005,0.155-0.033,0.219c-0.028,0.064-0.069,0.102-0.122,0.113
								c-0.11,0.024-0.228-0.132-0.354-0.469c-0.127-0.336-0.237-0.716-0.33-1.14c-0.283-1.294-0.451-2.004-0.501-2.13
								L335.939,131.671z M335.73,128.373l-0.015,0.164c0.023,0.306,0.06,0.746,0.112,1.319c0.052,0.575,0.088,0.993,0.107,1.256
								c0.116-0.118,0.197-0.377,0.245-0.777c0.046-0.401,0.063-0.702,0.048-0.907c-0.015-0.203-0.03-0.354-0.044-0.448
								c-0.015-0.094-0.039-0.196-0.073-0.309C336.041,128.443,335.914,128.343,335.73,128.373z"/>
							<path style="fill:#FFFFFF;" d="M339.432,134.523l-0.078-0.854c0-0.004-0.006-0.132-0.016-0.385
								c-0.027-0.09-0.13-0.922-0.309-2.495c-0.178-1.573-0.283-2.534-0.313-2.887c-0.011,0.002-0.021,0.005-0.031,0.007
								c-0.423,0.083-0.643,0.018-0.658-0.193c-0.005-0.069,0.018-0.133,0.072-0.19c0.052-0.058,0.105-0.093,0.159-0.104l1.07-0.131
								l0.126-0.034c0.163-0.035,0.251,0.036,0.264,0.214c0.007,0.092-0.015,0.171-0.064,0.239
								c-0.049,0.068-0.107,0.109-0.173,0.124l-0.365,0.003l-0.007,0.118c0.051,0.706,0.172,1.755,0.362,3.144
								c0.189,1.39,0.309,2.438,0.361,3.147c0.006,0.088-0.016,0.172-0.067,0.251c-0.051,0.08-0.11,0.126-0.176,0.141
								L339.432,134.523z"/>
						</g>
					</g>
				</g>
				<g>
					
						<line style="opacity:0.97;fill:none;stroke:#F9EDDD;stroke-width:0.2598;stroke-miterlimit:10;" x1="202.018" y1="136.045" x2="277.432" y2="140.519"/>
					
						<line style="opacity:0.97;fill:none;stroke:#F9EDDD;stroke-width:0.2598;stroke-miterlimit:10;" x1="202.21" y1="137.196" x2="277.45" y2="141.616"/>
					
						<line style="opacity:0.97;fill:none;stroke:#F9EDDD;stroke-width:0.2598;stroke-miterlimit:10;" x1="202.403" y1="138.348" x2="277.468" y2="142.713"/>
					
						<line style="opacity:0.97;fill:none;stroke:#F9EDDD;stroke-width:0.2598;stroke-miterlimit:10;" x1="202.595" y1="139.499" x2="277.486" y2="143.809"/>
					
						<line style="opacity:0.97;fill:none;stroke:#F9EDDD;stroke-width:0.2598;stroke-miterlimit:10;" x1="202.787" y1="140.65" x2="277.504" y2="144.906"/>
					
						<line style="opacity:0.97;fill:none;stroke:#F9EDDD;stroke-width:0.2598;stroke-miterlimit:10;" x1="202.979" y1="141.802" x2="277.522" y2="146.002"/>
					
						<line style="opacity:0.97;fill:none;stroke:#F9EDDD;stroke-width:0.2598;stroke-miterlimit:10;" x1="203.171" y1="142.954" x2="277.54" y2="147.099"/>
					
						<line style="opacity:0.97;fill:none;stroke:#F9EDDD;stroke-width:0.2598;stroke-miterlimit:10;" x1="203.363" y1="144.105" x2="277.558" y2="148.196"/>
					
						<line style="opacity:0.97;fill:none;stroke:#F9EDDD;stroke-width:0.2598;stroke-miterlimit:10;" x1="203.555" y1="145.256" x2="277.576" y2="149.292"/>
					
						<line style="opacity:0.97;fill:none;stroke:#F9EDDD;stroke-width:0.2598;stroke-miterlimit:10;" x1="203.747" y1="146.408" x2="277.594" y2="150.389"/>
				</g>
			</g>
			<g>
				<polygon style="fill:#B1CBDB;" points="322.887,189.677 332.072,223.445 345.574,238.635 351.763,264.515 364.703,275.767 
					385.304,302.912 410.919,247.637 412.607,197.565 				"/>
				<g>
					<g>
						<polygon style="fill:#F3C7A1;" points="507.929,322.797 405.065,306.417 392.491,303.915 480.863,260.932 576.975,291.312 
							601.025,292.629 538.309,329.977 						"/>
						<path style="fill:#F9EDDD;" d="M391.933,306.778c0,0,8.285-4.971,20.438-4.419c12.152,0.552,125.387,25.409,125.387,25.409
							l62.969-35.351c0,0,4.572,6.776,4.771,11.121l-64.427,35.83L391.933,306.778z"/>
						<path style="fill:#F9EDDD;" d="M391.933,306.778c0,0-2.762-5.524,20.438-4.419c12.151,0.579,125.939,26.514,125.939,26.514
							l62.417-36.456c0,0,4.572,6.776,4.771,11.121l-64.427,35.83L391.933,306.778z"/>
						<path style="opacity:0.55;fill:#F3C7A1;" d="M391.933,306.778c0,0-2.762-4.419,17.676-4.419
							c12.165,0,128.149,25.409,128.149,25.409l62.969-35.351c0,0,4.572,6.776,4.771,11.121l-64.427,35.83L391.933,306.778z"/>
						<path style="opacity:0.55;fill:#F3C7A1;" d="M576.975,291.312l13.785,0.797l-54.66,29.03c0,0-56.745-22.763-107.084-21.876
							L576.975,291.312z"/>
					</g>
					<path style="fill:#F9EDDD;" d="M346.086,207.352l-14.914-14.361l103.845-21.542c0,0,38.113,12.152,44.741,85.064
						l-88.778,49.291C390.98,305.804,356.029,216.743,346.086,207.352z"/>
					<path style="fill:#F9EDDD;" d="M328.963,192.991h8.285c0,0,42.532,27.618,54.684,113.787l-2.653-1.611l-3.587-5.406
						L328.963,192.991z"/>
					<path style="fill:#F9EDDD;" d="M343.325,185.81c0,0,50.277,46.749,49.166,118.105l87.268-47.403c0,0,0.552-61.312-44.741-93.35
						L343.325,185.81z"/>
					<path style="opacity:0.26;fill:#F3C7A1;" d="M343.325,185.81c0,0,50.277,46.749,49.166,118.105l87.268-47.403
						c0,0,0.552-61.312-44.741-93.35L343.325,185.81z"/>
					<path style="opacity:0.23;fill:#F3C7A1;" d="M328.963,192.991l8.285-1.105c0,0,38.113,20.99,54.684,114.892l-2.653-1.611
						l-3.587-5.406L328.963,192.991z"/>
					<path style="fill:#66A09C;" d="M606.802,305.121l-65.731,36.456l-142.51-32.037c0,0-11.6,3.314-13.257-6.628l-62.417-113.235
						l6.076-0.552l59.103,109.921c0,0-1.079,3.884,1.214,6.122c1.376,1.343,3.965,2.094,8.729,1.058l143.615,30.932l64.074-35.904
						L606.802,305.121z"/>
					<path style="fill:#F3C7A1;" d="M602.936,259.275"/>
					<path style="fill:#F9EDDD;" d="M604.041,283.579L536.1,315.064c0,0-49.527-14.663-86.628-16.169
						c-37.102-1.506-56.981,5.021-56.981,5.021l76.707-41.186C469.198,262.729,582.498,248.78,604.041,283.579z"/>
					<path style="opacity:0.55;fill:#F3C7A1;" d="M604.041,283.579L536.1,315.064c0,0-49.527-14.663-86.628-16.169
						c-37.102-1.506-56.981,5.021-56.981,5.021l76.707-41.186C469.198,262.729,582.498,248.78,604.041,283.579z"/>
					<path style="opacity:0.55;fill:#F3C7A1;" d="M512.348,285.788l-94.821,11.169c0,0,63.336-8.408,122.439,10.925l52.534-34.722
						l-18.897-8.749L512.348,285.788z"/>
					<path style="fill:#F9EDDD;" d="M602.936,259.275l-64.074,43.084c0,0-29.25-7.53-56.893-9.39
						c-57.446-3.867-91.14,12.152-91.14,12.152l88.931-48.608C479.759,256.513,563.166,225.028,602.936,259.275z"/>
					<g>
						<path style="fill:none;stroke:#F3C7A1;stroke-width:0.5524;stroke-miterlimit:10;" d="M337.498,194.725
							c0,0,35.378,27.266,50.811,101.339"/>
						<path style="fill:none;stroke:#F3C7A1;stroke-width:0.5524;stroke-miterlimit:10;" d="M336.51,195.042
							c0,0,39.519,44.443,51.093,99.998"/>
						<path style="fill:none;stroke:#F3C7A1;stroke-width:0.5524;stroke-miterlimit:10;" d="M335.522,195.36
							c0,0,43.659,61.62,51.375,98.657"/>
						<path style="fill:none;stroke:#F3C7A1;stroke-width:0.5524;stroke-miterlimit:10;" d="M334.534,195.677
							c0,0,47.799,78.798,51.657,97.316"/>
						
							<line style="fill:none;stroke:#F3C7A1;stroke-width:0.5524;stroke-miterlimit:10;" x1="333.546" y1="195.995" x2="385.486" y2="291.97"/>
					</g>
					<path style="fill:none;stroke:#F3C7A1;stroke-width:0.5524;stroke-miterlimit:10;" d="M398.899,304.217l7.34-0.419
						c4.024-0.23,8.061,0.074,12.005,0.904l120.065,25.275l62.693-35.075"/>
					<polyline style="fill:none;stroke:#F3C7A1;stroke-width:0.5524;stroke-miterlimit:10;" points="398.837,304.845 
						410.989,307.054 541.9,335.777 603.764,300.426 					"/>
					<path style="fill:none;stroke:#F3C7A1;stroke-width:0.5524;stroke-miterlimit:10;" d="M407.896,305.455
						c4.024-0.23,8.061,0.074,12.005,0.904l120.065,26.932l62.693-35.075"/>
					<g>
						<path style="fill:none;stroke:#F3C7A1;stroke-width:0.5524;stroke-miterlimit:10;" d="M478.268,259.537
							c0,0,64.184-23.738,107.821-0.539"/>
						<path style="fill:none;stroke:#F3C7A1;stroke-width:0.5524;stroke-miterlimit:10;" d="M466.359,266.058
							c0,0,65.819-23.741,109.456-0.541"/>
						<path style="fill:none;stroke:#F3C7A1;stroke-width:0.5524;stroke-miterlimit:10;" d="M454.45,272.578
							c0,0,67.454-23.743,111.091-0.544"/>
						<path style="fill:none;stroke:#F3C7A1;stroke-width:0.5524;stroke-miterlimit:10;" d="M442.541,279.099
							c0,0,69.089-23.746,112.726-0.547"/>
						<path style="fill:none;stroke:#F3C7A1;stroke-width:0.5524;stroke-miterlimit:10;" d="M430.632,285.62
							c0,0,70.725-23.749,114.361-0.55"/>
						<path style="fill:none;stroke:#F3C7A1;stroke-width:0.5524;stroke-miterlimit:10;" d="M418.722,292.14
							c0,0,72.36-23.752,115.996-0.552"/>
					</g>
					<g>
						<path style="fill:none;stroke:#F3C7A1;stroke-width:0.5524;stroke-miterlimit:10;" d="M433.084,170.068
							c0,0,38.113,27.066,38.665,83.407"/>
						<path style="fill:none;stroke:#F3C7A1;stroke-width:0.5524;stroke-miterlimit:10;" d="M425.044,172.523
							c0,0,38.052,27.618,38.543,85.31"/>
						<path style="fill:none;stroke:#F3C7A1;stroke-width:0.5524;stroke-miterlimit:10;" d="M417.004,174.978
							c0,0,37.99,28.171,38.42,87.212"/>
						<path style="fill:none;stroke:#F3C7A1;stroke-width:0.5524;stroke-miterlimit:10;" d="M408.964,177.433
							c0,0,37.929,28.723,38.297,89.115"/>
						<path style="fill:none;stroke:#F3C7A1;stroke-width:0.5524;stroke-miterlimit:10;" d="M400.924,179.888
							c0,0,37.868,29.275,38.175,91.017"/>
						<path style="fill:none;stroke:#F3C7A1;stroke-width:0.5524;stroke-miterlimit:10;" d="M392.884,182.343
							c0,0,37.806,29.828,38.052,92.92"/>
						<path style="fill:none;stroke:#F3C7A1;stroke-width:0.5524;stroke-miterlimit:10;" d="M384.844,184.798
							c0,0,37.745,30.38,37.929,94.823"/>
						<path style="fill:none;stroke:#F3C7A1;stroke-width:0.5524;stroke-miterlimit:10;" d="M376.804,187.253
							c0,0,37.684,30.932,37.806,96.725"/>
						<path style="fill:none;stroke:#F3C7A1;stroke-width:0.5524;stroke-miterlimit:10;" d="M368.764,189.708
							c0,0,37.622,31.485,37.684,98.628"/>
						<path style="fill:none;stroke:#F3C7A1;stroke-width:0.5524;stroke-miterlimit:10;" d="M360.724,192.163
							c0,0,37.561,32.037,37.561,100.53"/>
					</g>
				</g>
			</g>
			<path style="opacity:0.39;fill:#3D6EBE;" d="M352.571,125.502L355,131c0,0-50.111,3.775-63.556,3.387C278,134,314,125,314,125
				L352.571,125.502z"/>
			<g>
				<polygon style="fill:#DA6A2C;" points="298.676,130.427 293.001,134.032 291.444,134.387 248.21,134.307 248.185,133.036 
					261.467,133.413 293.104,132.217 				"/>
				<polygon style="opacity:0.99;fill:#DA6A2C;" points="298.676,130.427 293.001,134.032 291.444,134.387 248.21,134.307 
					248.185,133.036 261.467,133.413 293.104,132.217 				"/>
				<polyline style="fill:#DA6A2C;" points="350.958,117.61 350.156,109.361 318.037,108.738 250.601,114.391 263.322,122.558 				
					"/>
				<path style="fill:#DA6A2C;" d="M287.263,127.478l0.844-12.256l60.321-6.046c3.97-0.398,7.731,1.882,9.195,5.594
					c0.434,1.1,0.755,2.296,0.855,3.543c0.381,4.775-3.205,8.955-7.969,9.462l-59.382,6.619l-5.154-7.843"/>
				<path style="opacity:0.54;fill:#DA6A2C;" d="M287.263,127.478l0.844-12.256l60.321-6.046c3.97-0.398,7.731,1.882,9.195,5.594
					c0.434,1.1,0.755,2.296,0.855,3.543c0.381,4.775-3.205,8.955-7.969,9.462l-59.382,6.619l-5.154-7.843"/>
				<path style="fill:#F9EDDD;" d="M251.567,115.007l36.222,0.222c2.49-0.05,4.835,1.21,6.127,3.339
					c1.998,3.292,3.764,8.444-0.479,13.063c-1.346,1.466-3.263,1.969-5.253,1.948l-38.793-0.41
					C249.39,133.17,258.775,125.669,251.567,115.007z"/>
				<path style="opacity:0.97;fill:#F9EDDD;" d="M293.916,118.569c-1.292-2.129-3.637-3.39-6.127-3.339l-36.222-0.222
					c0.61,0.902,1.098,1.781,1.486,2.635l31.61,0.194c2.49-0.05,4.835,1.21,6.127,3.339c1.835,3.024,3.47,7.616,0.439,11.923
					c0.826-0.309,1.58-0.782,2.208-1.466C297.68,127.013,295.914,121.861,293.916,118.569z"/>
				<path style="fill:#DA6A2C;" d="M294.233,118.562c-1.292-2.129-3.637-3.39-6.127-3.339L251.884,115
					c0.006,0.009,0.011,0.017,0.017,0.025l35.253,0.217c2.49-0.05,4.835,1.21,6.127,3.339c1.998,3.292,3.764,8.444-0.479,13.063
					c-1.168,1.272-2.765,1.818-4.467,1.927l0.167,0.002c1.99,0.021,3.907-0.483,5.253-1.948
					C297.997,127.007,296.232,121.855,294.233,118.562z"/>
				<path style="opacity:0.23;fill:#DA6A2C;" d="M358.477,118.313c-0.1-1.247-0.421-2.443-0.855-3.543
					c-1.464-3.712-5.224-5.992-9.195-5.594l-60.321,6.046c0,0,36.362-2.8,47.612,3.33c5.447,2.968,8.743,6.648,10.698,9.657
					l4.092-0.435C355.272,127.269,358.859,123.089,358.477,118.313z"/>
				<path style="fill:#DA6A2C;" d="M250.355,114.554l39.106,0.61c0,0,2.078,0.566,3.135,1.607l-1.778-0.402
					c-1.098-0.248-2.22-0.381-3.345-0.395l-37.098-0.467L250.355,114.554z"/>
				<path style="fill:#DA6A2C;" d="M294.233,118.562c-0.542-0.894-1.272-1.632-2.118-2.187c-0.11-0.079-0.224-0.155-0.341-0.226
					c-1.087-0.661-2.345-0.985-3.617-1.005l-37.802-0.59l0.019,0.953l35.275,0.444c1.313,0.017,2.623,0.112,3.923,0.283
					c1.512,0.199,2.895,1.021,3.692,2.321c0.005,0.008,0.01,0.016,0.015,0.025c1.998,3.292,3.764,8.444-0.479,13.063
					c-1.168,1.272-2.765,1.818-4.467,1.927l0.819,0.009c1.722,0.018,3.398-0.655,4.569-1.919
					C298.007,127.034,296.237,121.863,294.233,118.562z"/>
				<g>
					
						<line style="opacity:0.97;fill:none;stroke:#F9EDDD;stroke-width:0.3178;stroke-miterlimit:10;" x1="253.577" y1="116.715" x2="290.462" y2="117.242"/>
					
						<line style="opacity:0.97;fill:none;stroke:#F9EDDD;stroke-width:0.3178;stroke-miterlimit:10;" x1="254.415" y1="118.128" x2="291.603" y2="118.62"/>
					
						<line style="opacity:0.97;fill:none;stroke:#F9EDDD;stroke-width:0.3178;stroke-miterlimit:10;" x1="254.617" y1="119.555" x2="292.902" y2="119.995"/>
					
						<line style="opacity:0.97;fill:none;stroke:#F9EDDD;stroke-width:0.3178;stroke-miterlimit:10;" x1="255.137" y1="120.975" x2="293.566" y2="121.384"/>
					
						<line style="opacity:0.97;fill:none;stroke:#F9EDDD;stroke-width:0.3178;stroke-miterlimit:10;" x1="255.339" y1="122.401" x2="293.594" y2="122.785"/>
					
						<line style="opacity:0.97;fill:none;stroke:#F9EDDD;stroke-width:0.3178;stroke-miterlimit:10;" x1="255.224" y1="123.834" x2="293.94" y2="124.179"/>
					
						<line style="opacity:0.97;fill:none;stroke:#F9EDDD;stroke-width:0.3178;stroke-miterlimit:10;" x1="254.79" y1="125.273" x2="293.969" y2="125.58"/>
					
						<line style="opacity:0.97;fill:none;stroke:#F9EDDD;stroke-width:0.3178;stroke-miterlimit:10;" x1="254.675" y1="126.706" x2="293.679" y2="126.988"/>
					
						<line style="opacity:0.97;fill:none;stroke:#F9EDDD;stroke-width:0.3178;stroke-miterlimit:10;" x1="254.242" y1="128.145" x2="293" y2="128.403"/>
					
						<line style="opacity:0.97;fill:none;stroke:#F9EDDD;stroke-width:0.3178;stroke-miterlimit:10;" x1="253.808" y1="129.584" x2="292.522" y2="129.814"/>
					
						<line style="opacity:0.97;fill:none;stroke:#F9EDDD;stroke-width:0.3178;stroke-miterlimit:10;" x1="252.422" y1="131.043" x2="291.41" y2="131.238"/>
					
						<line style="opacity:0.97;fill:none;stroke:#F9EDDD;stroke-width:0.3178;stroke-miterlimit:10;" x1="252.306" y1="132.476" x2="289.979" y2="132.669"/>
				</g>
				<path style="opacity:0.99;fill:#DA6A2C;" d="M294.233,118.562c-0.542-0.894-1.272-1.632-2.118-2.187
					c-0.11-0.079-0.224-0.155-0.341-0.226c-1.087-0.661-2.345-0.985-3.617-1.005l-37.802-0.59l0.019,0.953l35.275,0.444
					c1.313,0.017,2.623,0.112,3.923,0.283c1.512,0.199,2.895,1.021,3.692,2.321c0.005,0.008,0.01,0.016,0.015,0.025
					c1.998,3.292,3.764,8.444-0.479,13.063c-1.168,1.272-2.765,1.818-4.467,1.927l0.819,0.009c1.722,0.018,3.398-0.655,4.569-1.919
					C298.007,127.034,296.237,121.863,294.233,118.562z"/>
			</g>
		</g>
		<polyline style="fill:#B1CBDB;" points="434.214,341.09 430.151,342.599 363.374,367.401 479.236,341.09 442.88,332.491 		"/>
		<g>
			<g>
				<g>
					<path style="fill:#F9EDDD;" d="M299.187,341.48l-14.959-0.096c0,0,4.444,8.253,1.946,18.696l77.2,7.321l10.97-8.193
						l-1.23-13.796c0,0-2.383-4.962-3.648-4.738C368.202,340.897,299.187,341.48,299.187,341.48z"/>
					<path style="opacity:0.38;fill:#F3C7A1;" d="M291.91,339.767l-6.984,2.709l73.647,9.026c1.505,0.184,2.572,2.111,2.172,4.04
						c-0.561,2.703-2.714,5.999-9.666,6.799l-29.684-0.166l43.352,4.679l8.745-12.312L373.466,344l-20.814-0.538L291.91,339.767z"/>
					<polyline style="fill:#3D6EBE;" points="362.136,344.558 364.688,349.739 282.499,341.927 281.907,340.308 363.444,344.757 
											"/>
					<polyline style="fill:#3D6EBE;" points="372.157,363.043 364.512,365.922 284.627,358.716 284.841,360.833 363.374,367.401 
						373.086,363.741 					"/>
					<polyline style="opacity:0.39;fill:#3D6EBE;" points="362.136,344.558 364.688,349.739 282.499,341.927 281.907,340.308 
						363.444,344.757 					"/>
					<polyline style="opacity:0.39;fill:#3D6EBE;" points="372.157,363.043 364.512,365.922 284.627,358.716 284.841,360.833 
						363.374,367.401 373.086,363.741 					"/>
					<polygon style="fill:#3D6EBE;" points="378.637,354.999 363.132,348.045 281.907,340.308 375.599,322.131 449.229,325.47 
						433.244,334.982 					"/>
					<path style="fill:#3D6EBE;" d="M363.132,348.045c0,0,8.657,9.244,0.241,19.356l86.854-23.572c0,0,10.438-11.332-0.998-18.359
						L363.132,348.045z"/>
					<path style="fill:#3D6EBE;" d="M363.132,348.045c0,0,8.657,9.244,0.241,19.356l86.854-23.572c0,0,10.438-11.332-0.998-18.359
						L363.132,348.045z"/>
					<g>
						<path style="opacity:0.11;fill:#3D6EBE;" d="M367.24,346.968c0.497,0.409,15.749,12.708,44.219,7.382l-48.086,13.051
							c8.416-10.112-0.241-19.356-0.241-19.356L367.24,346.968z"/>
						<path style="opacity:0.11;fill:#3D6EBE;" d="M453.591,338.449c-1.286,3.123-3.363,5.38-3.363,5.38l-22.447,6.092
							C439.389,346.068,447.783,341.928,453.591,338.449z"/>
					</g>
					<path style="opacity:0.39;fill:#3D6EBE;" d="M363.132,348.045c0,0,8.657,9.244,0.241,19.356l86.854-23.572
						c0,0,10.438-11.332-0.998-18.359L363.132,348.045z"/>
					<path style="fill:none;stroke:#B1CBDB;stroke-width:0.9579;stroke-linecap:round;stroke-miterlimit:10;" d="M369.258,347.419
						c0,0,7.129,7.325,1.079,17.261"/>
					<path style="fill:none;stroke:#B1CBDB;stroke-width:0.9579;stroke-linecap:round;stroke-miterlimit:10;" d="M445.891,327.303
						c0,0,7.129,7.325,1.079,17.261"/>
				</g>
				<g>
					
						<line style="opacity:0.97;fill:none;stroke:#F9EDDD;stroke-width:0.3066;stroke-miterlimit:10;" x1="286.313" y1="343.647" x2="363.605" y2="351.407"/>
					
						<line style="opacity:0.97;fill:none;stroke:#F9EDDD;stroke-width:0.3066;stroke-miterlimit:10;" x1="286.49" y1="345.215" x2="363.605" y2="352.896"/>
					
						<line style="opacity:0.97;fill:none;stroke:#F9EDDD;stroke-width:0.3066;stroke-miterlimit:10;" x1="286.668" y1="346.782" x2="363.605" y2="354.385"/>
					
						<line style="opacity:0.97;fill:none;stroke:#F9EDDD;stroke-width:0.3066;stroke-miterlimit:10;" x1="286.846" y1="348.35" x2="363.605" y2="355.875"/>
					
						<line style="opacity:0.97;fill:none;stroke:#F9EDDD;stroke-width:0.3066;stroke-miterlimit:10;" x1="287.023" y1="349.918" x2="363.605" y2="357.364"/>
					
						<line style="opacity:0.97;fill:none;stroke:#F9EDDD;stroke-width:0.3066;stroke-miterlimit:10;" x1="287.201" y1="351.485" x2="363.605" y2="358.853"/>
					
						<line style="opacity:0.97;fill:none;stroke:#F9EDDD;stroke-width:0.3066;stroke-miterlimit:10;" x1="287.379" y1="353.053" x2="363.605" y2="360.343"/>
					
						<line style="opacity:0.97;fill:none;stroke:#F9EDDD;stroke-width:0.3066;stroke-miterlimit:10;" x1="287.557" y1="354.621" x2="363.605" y2="361.832"/>
					
						<line style="opacity:0.97;fill:none;stroke:#F9EDDD;stroke-width:0.3066;stroke-miterlimit:10;" x1="287.734" y1="356.188" x2="363.605" y2="363.321"/>
					
						<line style="opacity:0.97;fill:none;stroke:#F9EDDD;stroke-width:0.3066;stroke-miterlimit:10;" x1="287.912" y1="357.756" x2="363.605" y2="364.81"/>
				</g>
			</g>
		</g>
	</g>
</g>
<g id="TEXTS">
	
		<text transform="matrix(0.8977 -0.0819 0.0733 0.9973 305.8414 127.0787)" style="fill:#FFFFFF; font-family:'Amatic-Bold'; font-size:13.757px; letter-spacing:2.219;">grammer</text>
	<g>
		
			<text transform="matrix(0.6933 -0.1746 0.1021 0.9948 315.115 174.1542)" style="fill:#FFFFFF; font-family:'Amatic-Bold'; font-size:16.5733px; letter-spacing:1.399;">Goodnight stories</text>
	</g>
	
		<text transform="matrix(1.0856 0.1045 -9.000000e-04 1 210.6676 253.1549)" style="fill:#FFFFFF; font-family:'Amatic-Bold'; font-size:22.7897px; letter-spacing:0.917;">Litrerature</text>
	
		<text transform="matrix(-0.6687 -0.0791 0.9525 -0.3045 389.0282 334.9219)" style="fill:#B1CBDB; font-family:'Amatic-Bold'; font-size:19.7402px; letter-spacing:1.485;">mythology</text>
</g>
</svg>
