<?xml version="1.0" encoding="utf-8"?>
<!-- Generator: Adobe Illustrator 27.5.0, SVG Export Plug-In . SVG Version: 6.00 Build 0)  -->
<svg version="1.1" xmlns="http://www.w3.org/2000/svg" xmlns:xlink="http://www.w3.org/1999/xlink" x="0px" y="0px"
	 viewBox="0 0 500 500" style="enable-background:new 0 0 500 500;" xml:space="preserve">
<g id="Background_Complete">
	<g>
		<g>
			<rect x="176.89" y="35.523" style="fill:#E0E0E0;" width="9.53" height="204.896"/>
		</g>
		<g>
			<path style="fill:#F5F5F5;" d="M38.651,37.245v203.322c0,0.076,0.062,0.137,0.138,0.137h136.516c0.076,0,0.137-0.061,0.137-0.137
				V37.245c0-0.076-0.061-0.138-0.137-0.138H38.788C38.712,37.108,38.651,37.169,38.651,37.245z"/>
		</g>
		<g>
			<g>
				<path style="fill:#EBEBEB;" d="M176.89,242.29H37.204c-0.076,0-0.138-0.062-0.138-0.137V35.66c0-0.076,0.062-0.138,0.138-0.138
					H176.89c0.076,0,0.137,0.062,0.137,0.138v206.492C177.028,242.228,176.966,242.29,176.89,242.29z M40.373,239.12h133.346
					c0.076,0,0.137-0.062,0.137-0.138V38.83c0-0.076-0.061-0.137-0.137-0.137H40.373c-0.076,0-0.138,0.061-0.138,0.137v200.153
					C40.236,239.059,40.297,239.12,40.373,239.12z"/>
			</g>
		</g>
		<g>
			<path style="fill:#FFFFFF;" d="M52.424,49.805v178.067c0,0.076,0.061,0.137,0.137,0.137h109.211c0.076,0,0.138-0.062,0.138-0.137
				V49.805c0-0.076-0.062-0.137-0.138-0.137H52.561C52.485,49.668,52.424,49.729,52.424,49.805z"/>
		</g>
		<g>
			<path style="fill:#EBEBEB;" d="M137.72,172.281H76.373c-0.035,0-0.064-0.029-0.064-0.064v-71.925
				c0-0.036,0.029-0.064,0.064-0.064h61.347c0.035,0,0.064,0.029,0.064,0.064v71.925
				C137.785,172.253,137.756,172.281,137.72,172.281z"/>
		</g>
		<g>
			<g>
				<path style="fill:#E0E0E0;" d="M132.918,163.463c0.079,0.231-2.955,1.561-8.728,0.884c-2.843-0.386-6.381-1.408-9.811-3.921
					c-3.357-2.514-6.544-6.57-7.623-11.99c-1.121-5.378,0.677-12.082,5.831-16.391c1.28-1.069,2.77-1.971,4.421-2.59
					c1.755-0.652,3.649-0.867,5.53-0.637c1.871,0.229,3.852,0.88,5.529,2.415c1.694,1.537,2.621,4.132,2.18,6.441
					c-0.4,2.331-1.671,4.118-3.036,5.529c-1.409,1.438-3.004,2.501-4.631,3.411c-3.306,1.826-7.087,2.971-11.048,3.155
					c-3.944,0.189-8.114-0.621-11.774-2.68c-3.626-2.036-6.726-5.123-8.665-8.982c-1.965-3.813-2.591-8.441-1.555-12.578
					c0.997-4.123,3.34-7.809,6.63-10.364c1.651-1.28,3.519-2.225,5.558-2.806c2.054-0.526,4.17-0.625,6.257-0.195
					c2.066,0.434,4.176,1.45,5.68,3.204c1.525,1.739,2.206,4.009,2.226,6.069c0.032,2.072-0.532,4.091-1.481,5.782
					c-0.932,1.695-2.185,3.07-3.505,4.214c-2.66,2.251-5.644,3.733-8.709,4.627c-3.062,0.88-6.203,1.113-9.162,0.707
					c-2.95-0.417-5.728-1.502-7.974-3.055c-4.531-3.075-7.149-7.747-7.616-12.063c-0.513-4.395,1.095-8,2.822-10.342
					c1.776-2.388,3.816-3.609,5.219-4.169c1.436-0.544,2.254-0.525,2.29-0.389c0.06,0.196-0.65,0.512-1.815,1.29
					c-1.14,0.792-2.752,2.127-4.058,4.362c-1.276,2.191-2.33,5.372-1.662,8.834c0.607,3.45,2.967,7.158,6.771,9.483
					c3.725,2.366,8.95,2.976,13.968,1.33c2.486-0.802,4.964-2.143,6.99-3.954c2.01-1.803,3.379-4.123,3.265-6.55
					c-0.064-2.434-1.598-4.149-4.208-4.649c-1.271-0.248-2.698-0.168-4.019,0.189c-1.311,0.401-2.644,1.07-3.793,1.987
					c-2.32,1.825-4.075,4.595-4.782,7.621c-0.727,3.023-0.294,6.229,1.174,9.135c1.444,2.899,3.852,5.313,6.614,6.876
					c2.75,1.567,5.951,2.235,9.101,2.117c3.154-0.113,6.249-1.004,8.95-2.447c1.365-0.738,2.623-1.569,3.571-2.517
					c0.972-0.95,1.649-2.036,1.812-2.953c0.177-0.929-0.106-1.735-0.732-2.376c-0.659-0.654-1.779-1.146-2.96-1.303
					c-1.187-0.181-2.415-0.069-3.485,0.296c-1.176,0.403-2.273,1.017-3.248,1.779c-1.95,1.529-3.415,3.622-4.235,5.834
					c-0.834,2.217-1.03,4.512-0.713,6.701c0.65,4.396,3.125,8.034,5.857,10.377c2.785,2.356,5.861,3.568,8.421,4.202
					C129.756,163.623,132.877,163.024,132.918,163.463z"/>
			</g>
		</g>
	</g>
	<g>
		<path style="fill:#E0E0E0;" d="M362.989,228.888c0.131,0.06-10.005,22.322-22.636,49.716
			c-12.635,27.404-22.98,49.563-23.111,49.503c-0.131-0.06,10.003-22.317,22.638-49.721
			C352.511,250.991,362.859,228.827,362.989,228.888z"/>
	</g>
	<g>
		<circle style="fill:#F5F5F5;" cx="381.647" cy="146.278" r="100.64"/>
		<g>
			<path style="fill:#E0E0E0;" d="M482.287,146.278c0,0-0.032-0.553-0.068-1.632c-0.017-0.542-0.038-1.212-0.064-2.009
				c-0.02-0.799-0.043-1.727-0.146-2.775c-0.251-4.198-0.947-10.397-2.862-18.159c-1.026-3.859-2.273-8.134-4.127-12.631
				c-1.817-4.504-4.056-9.309-7.001-14.162c-5.818-9.717-14.164-19.885-25.537-28.556c-5.662-4.347-12.1-8.248-19.194-11.471
				c-7.09-3.219-14.838-5.804-23.101-7.292c-8.248-1.522-16.979-2.122-25.895-1.427c-4.464,0.265-8.952,0.99-13.458,1.882
				c-4.496,0.962-8.98,2.25-13.425,3.829c-17.716,6.414-34.55,18.393-46.678,35.009c-3.07,4.115-5.759,8.559-8.185,13.176
				c-0.577,1.17-1.23,2.306-1.748,3.51c-0.54,1.194-1.08,2.39-1.622,3.588c-0.969,2.445-1.97,4.89-2.769,7.418
				c-1.646,5.033-3.008,10.215-3.824,15.53c-0.837,5.309-1.277,10.712-1.314,16.156c0.036,5.445,0.473,10.851,1.309,16.162
				c0.816,5.316,2.176,10.501,3.822,15.536c0.799,2.529,1.8,4.975,2.768,7.421c1.081,2.399,2.134,4.8,3.371,7.101
				c2.426,4.618,5.114,9.065,8.185,13.18c12.129,16.621,28.966,28.604,46.685,35.019c4.446,1.578,8.931,2.867,13.427,3.829
				c4.506,0.892,8.995,1.617,13.46,1.882c8.918,0.695,17.649,0.095,25.898-1.428c8.264-1.488,16.012-4.075,23.102-7.294
				c7.094-3.223,13.531-7.125,19.193-11.472c11.372-8.672,19.717-18.841,25.534-28.557c2.945-4.853,5.184-9.657,7-14.161
				c1.854-4.497,3.1-8.772,4.126-12.63c1.914-7.762,2.61-13.96,2.861-18.157c0.103-1.048,0.125-1.975,0.146-2.774
				c0.025-0.797,0.047-1.467,0.064-2.009C482.255,146.831,482.287,146.278,482.287,146.278s0.004,0.553-0.015,1.632
				c-0.01,0.542-0.023,1.213-0.038,2.011c-0.012,0.8-0.026,1.728-0.12,2.778c-0.217,4.203-0.881,10.415-2.769,18.2
				c-1.013,3.87-2.247,8.159-4.092,12.673c-1.807,4.521-4.04,9.344-6.981,14.218c-5.81,9.759-14.161,19.978-25.561,28.701
				c-5.676,4.372-12.131,8.299-19.25,11.545c-7.114,3.242-14.891,5.849-23.189,7.353c-8.282,1.539-17.052,2.15-26.01,1.46
				c-4.485-0.262-8.995-0.987-13.523-1.879c-4.518-0.962-9.025-2.254-13.494-3.837c-17.809-6.433-34.736-18.466-46.932-35.168
				c-3.088-4.136-5.791-8.604-8.231-13.245c-1.244-2.312-2.303-4.725-3.39-7.137c-0.974-2.459-1.981-4.917-2.784-7.459
				c-1.655-5.061-3.022-10.272-3.844-15.616c-0.841-5.338-1.28-10.772-1.317-16.245c0.037-5.471,0.479-10.903,1.321-16.239
				c0.82-5.342,2.19-10.552,3.846-15.611c0.804-2.542,1.811-4.998,2.785-7.456c0.545-1.204,1.088-2.407,1.631-3.606
				c0.522-1.21,1.178-2.352,1.758-3.528c2.44-4.64,5.144-9.106,8.231-13.241c12.196-16.696,29.12-28.726,46.926-35.158
				c4.468-1.583,8.974-2.875,13.492-3.837c4.528-0.893,9.037-1.617,13.522-1.879c8.957-0.69,17.726-0.079,26.008,1.459
				c8.297,1.504,16.074,4.11,23.189,7.351c7.118,3.245,13.574,7.171,19.25,11.543c11.4,8.722,19.752,18.941,25.564,28.7
				c2.941,4.874,5.174,9.698,6.982,14.219c1.845,4.514,3.08,8.804,4.093,12.674c1.888,7.786,2.553,13.998,2.77,18.202
				c0.095,1.05,0.109,1.979,0.12,2.779c0.015,0.798,0.028,1.469,0.038,2.011C482.291,145.725,482.287,146.278,482.287,146.278z"/>
		</g>
	</g>
	<path style="fill:#E0E0E0;" d="M322.758,326.445c0.22,3.047-2.072,5.694-5.118,5.914c-3.046,0.22-5.694-2.072-5.914-5.118
		c-0.22-3.047,2.072-5.694,5.118-5.914C319.891,321.107,322.539,323.398,322.758,326.445z"/>
	<g>
		<g>
			<g>
				<g>
					<g>
						<g>
							<path style="fill:#F5F5F5;" d="M327.591,356.048c0,0.676,0,36.467,0,36.467h-8.148v4.952h8.148v25.007h152.297V399.72
								h-11.281v-4.956h11.281v-7.435h5.014v-3.379h-5.954v-27.902H327.591z"/>
						</g>
					</g>
				</g>
			</g>
			<g>
				<g>
					<g>
						<g>
							<polygon style="fill:#EBEBEB;" points="439.445,356.157 439.445,422.058 479.888,422.058 479.888,399.304 468.607,399.304 
								468.607,394.764 479.888,394.918 479.888,387.483 485,387.488 484.902,383.646 478.948,383.534 478.948,356.048 							"/>
						</g>
					</g>
				</g>
			</g>
			<g>
				<g>
					<g>
						<g>
							<g>
								<path style="fill:#E0E0E0;" d="M442.792,397.746c0,0.315-27.559,0.571-61.546,0.571c-33.999,0-61.552-0.255-61.552-0.571
									c0-0.315,27.553-0.571,61.552-0.571C415.233,397.175,442.792,397.431,442.792,397.746z"/>
							</g>
						</g>
					</g>
				</g>
			</g>
			<g>
				<g>
					<g>
						<g>
							<g>
								<path style="fill:#E0E0E0;" d="M442.792,392.515c0,0.315-27.559,0.571-61.546,0.571c-33.999,0-61.552-0.255-61.552-0.571
									c0-0.315,27.553-0.57,61.552-0.57C415.233,391.945,442.792,392.201,442.792,392.515z"/>
							</g>
						</g>
					</g>
				</g>
			</g>
			<g>
				<g>
					<g>
						<g>
							<g>
								<path style="fill:#E0E0E0;" d="M450.232,367.967c0,0.315-27.559,0.571-61.546,0.571c-33.999,0-61.552-0.255-61.552-0.571
									c0-0.315,27.552-0.57,61.552-0.57C422.673,367.396,450.232,367.652,450.232,367.967z"/>
							</g>
						</g>
					</g>
				</g>
			</g>
			<g>
				<g>
					<g>
						<g>
							<g>
								<path style="fill:#E0E0E0;" d="M450.992,406.325c0,0.316-27.559,0.571-61.546,0.571c-33.999,0-61.552-0.255-61.552-0.571
									c0-0.315,27.553-0.57,61.552-0.57C423.434,405.755,450.992,406.01,450.992,406.325z"/>
							</g>
						</g>
					</g>
				</g>
			</g>
		</g>
	</g>
</g>
<g id="Background_Simple" style="display:none;">
	<path style="display:inline;fill:#F5F5F5;" d="M94.662,96.303l2.113-3.481c17.81-29.348,50.01-47.04,83.959-44.893
		c4.364,0.276,8.709,0.867,12.996,1.784c30.867,6.607,57.725,29.949,68.857,59.844c6.547,17.581,8.376,37.824,20.801,51.779
		c16.17,18.162,43.622,18.732,67.759,17.98c24.136-0.753,51.607-0.111,67.698,18.123c10.078,11.419,13.281,27.658,12.468,42.952
		c-2.151,40.489-30.365,76.691-66.244,94.686s-78.125,19.606-117.393,11.69c-55.01-11.089-107.325-41.542-138.77-88.578
		C77.461,211.151,69.503,147.069,94.662,96.303z"/>
</g>
<g id="Desk">
	<g>
		<path style="fill:#FFFFFF;" d="M11.594,422.468c158.27,0,316.541,0,474.811,0"/>
		<g>
			<path style="fill:#263238;" d="M486.405,422.468c0,0.144-106.299,0.26-237.394,0.26c-131.141,0-237.417-0.117-237.417-0.26
				s106.276-0.26,237.417-0.26C380.106,422.207,486.405,422.324,486.405,422.468z"/>
		</g>
	</g>
</g>
<g id="Pens">
	<g>
		<path style="fill:#FF725E;" d="M367.865,393.039c0,0,21.8-7.707,41.994,0l0,0l-3.907,6.935l-36.117,1.39L367.865,393.039"/>
		<g>
			<g>
				<g>
					<g>
						<path style="fill:#E0E0E0;" d="M371.493,353.876l0.383-0.028c1.31-0.094,2.448,0.891,2.542,2.2l5.17,71.719l-5.125,0.37
							l-5.171-71.719C369.198,355.108,370.184,353.97,371.493,353.876z"/>
						<g>
							<path style="fill:#263238;" d="M371.493,353.876c0.025,0.049-0.586-0.027-1.35,0.615c-0.362,0.319-0.724,0.862-0.771,1.577
								c0.002,0.708,0.113,1.566,0.176,2.509c0.295,3.823,0.719,9.312,1.242,16.098c1.004,13.641,2.39,32.488,3.932,53.444
								l-0.278-0.241c0.87-0.063,1.808-0.13,2.75-0.198c0.814-0.059,1.624-0.117,2.375-0.171l-0.241,0.278
								c-1.487-21.053-2.825-40-3.794-53.716c-0.458-6.827-0.828-12.351-1.086-16.198c-0.03-0.477-0.059-0.927-0.086-1.351
								c-0.024-0.428-0.041-0.812-0.176-1.146c-0.261-0.671-0.768-1.085-1.21-1.287c-0.452-0.203-0.842-0.224-1.094-0.215
								C371.626,353.883,371.494,353.885,371.493,353.876c-0.001-0.009,0.13-0.027,0.387-0.054c0.257-0.026,0.661-0.023,1.139,0.173
								c0.468,0.196,1.016,0.616,1.311,1.326c0.152,0.353,0.179,0.773,0.21,1.189c0.034,0.424,0.07,0.874,0.109,1.35
								c0.297,3.844,0.723,9.364,1.249,16.186c1.009,13.713,2.402,32.656,3.951,53.705l0.019,0.26l-0.26,0.019
								c-0.751,0.054-1.561,0.113-2.375,0.171c-0.942,0.068-1.88,0.135-2.75,0.198l-0.26,0.019l-0.018-0.26
								c-1.48-20.96-2.811-39.812-3.774-53.455c-0.455-6.791-0.823-12.284-1.079-16.109c-0.048-0.955-0.143-1.781-0.129-2.535
								c0.067-0.761,0.466-1.322,0.855-1.643c0.392-0.333,0.78-0.446,1.029-0.501C371.359,353.86,371.493,353.876,371.493,353.876z"
								/>
						</g>
					</g>
				</g>
				<g>
					<path style="fill:#455A64;" d="M371.846,405.611l7.307-0.527l1.725,23.924c0.145,2.018-1.372,3.772-3.39,3.917l0,0
						c-2.018,0.145-3.772-1.372-3.917-3.391L371.846,405.611z"/>
				</g>
				<g>
					
						<rect x="370.75" y="394.591" transform="matrix(-0.9974 0.072 -0.072 -0.9974 771.4938 792.4928)" style="fill:#455A64;" width="1.422" height="31.126"/>
				</g>
				<g>
					<g>
						<path style="fill:#263238;" d="M379.154,405.084c0.015,0.158-2.991,0.581-7.361,1.058l0.324-0.383
							c0.132,1.671,0.275,3.481,0.426,5.39c0.255,3.536,0.441,6.74,0.537,9.062c0.095,2.322,0.1,3.762-0.009,3.77
							c-0.109,0.008-0.312-1.418-0.55-3.729c-0.238-2.311-0.514-5.509-0.768-9.045c-0.125-1.911-0.243-3.723-0.352-5.395
							l-0.023-0.356l0.348-0.028C376.107,405.076,379.139,404.926,379.154,405.084z"/>
					</g>
				</g>
			</g>
			<g>
				<g>
					<g>
						<rect x="379.704" y="355.762" style="fill:#E0E0E0;" width="5.139" height="57.992"/>
						<g>
							<path style="fill:#263238;" d="M384.843,413.755c-0.006-0.006-0.012-0.112-0.018-0.312c-0.005-0.226-0.01-0.517-0.018-0.881
								c-0.009-0.801-0.021-1.926-0.036-3.361c-0.018-2.939-0.045-7.142-0.077-12.347c-0.028-10.441-0.067-24.892-0.11-41.091
								l0.259,0.259c-1.634,0-3.376,0.001-5.136,0.001c0.514-0.52,0.143-0.133,0.257-0.244v0.019v0.038v0.076v0.152l0,0.304v0.608
								l0,1.211c0,0.806,0,1.607-0.001,2.405c-0.001,1.595-0.001,3.174-0.002,4.734c-0.003,3.12-0.006,6.164-0.009,9.117
								c-0.012,5.901-0.023,11.433-0.033,16.458c-0.05,10.002-0.089,17.974-0.114,22.852l-0.103-0.103
								c1.62,0.025,2.887,0.045,3.784,0.059c0.417,0.01,0.747,0.018,1,0.024C384.716,413.742,384.836,413.748,384.843,413.755
								c0.006,0.006-0.101,0.013-0.318,0.02c-0.248,0.006-0.57,0.014-0.977,0.024c-0.911,0.014-2.198,0.034-3.843,0.059
								l-0.102,0.002l-0.001-0.104c-0.024-4.878-0.064-12.85-0.114-22.852c-0.01-5.025-0.021-10.557-0.032-16.458
								c-0.003-2.953-0.006-5.997-0.009-9.117c-0.001-1.56-0.001-3.139-0.002-4.734c0-0.798,0-1.599,0-2.405l0-1.211v-0.608v-0.304
								v-0.152v-0.076v-0.038v-0.019c0.117-0.121-0.263,0.244,0.263-0.276c1.759,0,3.501,0.001,5.136,0.001h0.26l-0.001,0.26
								c-0.043,16.274-0.082,30.792-0.11,41.281c-0.033,5.179-0.059,9.361-0.077,12.286c-0.016,1.41-0.028,2.515-0.036,3.302
								c-0.007,0.351-0.013,0.63-0.018,0.847C384.855,413.667,384.849,413.761,384.843,413.755z"/>
						</g>
					</g>
				</g>
				<g>
					<path style="fill:#455A64;" d="M385.833,378.418h-7.326v-23.986c0-2.023,1.64-3.663,3.663-3.663l0,0
						c2.023,0,3.663,1.64,3.663,3.663V378.418z"/>
				</g>
				<g>
					<rect x="385.833" y="358.353" style="fill:#455A64;" width="1.422" height="31.125"/>
				</g>
				<g>
					<g>
						<path style="fill:#263238;" d="M378.507,378.418c-0.004-0.159,3.025-0.365,7.418-0.527l-0.351,0.359
							c-0.011-1.676-0.024-3.492-0.037-5.406c0-3.545,0.044-6.754,0.116-9.077c0.072-2.323,0.171-3.759,0.28-3.759
							c0.109,0,0.209,1.436,0.28,3.759c0.072,2.323,0.116,5.532,0.116,9.077c-0.013,1.915-0.025,3.731-0.037,5.406l-0.003,0.357
							l-0.349,0.003C381.545,378.646,378.51,378.577,378.507,378.418z"/>
					</g>
				</g>
			</g>
			<g>
				<g>
					<g>
						<rect x="390.059" y="369.372" style="fill:#E0E0E0;" width="5.139" height="57.992"/>
						<g>
							<path style="fill:#263238;" d="M395.198,427.364c-0.006-0.006-0.012-0.112-0.018-0.312c-0.005-0.226-0.01-0.517-0.018-0.881
								c-0.009-0.802-0.021-1.926-0.036-3.361c-0.018-2.939-0.045-7.142-0.077-12.346c-0.028-10.441-0.067-24.892-0.11-41.091
								l0.259,0.259c-1.634,0-3.376,0.001-5.136,0.001c0.514-0.52,0.143-0.133,0.257-0.244v0.019v0.038v0.076v0.152v0.304l0,0.608
								l0,1.211c0,0.806,0,1.607-0.001,2.405c-0.001,1.595-0.001,3.174-0.002,4.734c-0.003,3.12-0.006,6.164-0.009,9.117
								c-0.012,5.901-0.023,11.433-0.033,16.458c-0.05,10.002-0.089,17.974-0.114,22.852l-0.103-0.103
								c1.62,0.025,2.887,0.045,3.784,0.059c0.417,0.01,0.747,0.018,1,0.024C395.071,427.351,395.191,427.358,395.198,427.364
								c0.007,0.007-0.101,0.013-0.318,0.02c-0.248,0.006-0.57,0.014-0.977,0.024c-0.911,0.014-2.198,0.033-3.843,0.059
								l-0.102,0.002l0-0.104c-0.024-4.878-0.064-12.85-0.114-22.852c-0.01-5.025-0.021-10.557-0.032-16.458
								c-0.003-2.952-0.006-5.997-0.009-9.117c-0.001-1.56-0.001-3.139-0.002-4.734c0-0.798,0-1.599,0-2.405l0-1.211v-0.608v-0.304
								v-0.152v-0.076v-0.038v-0.019c0.117-0.121-0.263,0.244,0.263-0.276c1.759,0,3.501,0.001,5.136,0.001h0.26l-0.001,0.259
								c-0.043,16.274-0.082,30.792-0.11,41.281c-0.033,5.179-0.059,9.361-0.077,12.286c-0.016,1.41-0.028,2.515-0.036,3.302
								c-0.007,0.351-0.013,0.63-0.018,0.847C395.21,427.277,395.204,427.37,395.198,427.364z"/>
						</g>
					</g>
				</g>
				<g>
					<path style="fill:#455A64;" d="M396.188,392.028h-7.326v-23.986c0-2.023,1.64-3.663,3.663-3.663l0,0
						c2.023,0,3.663,1.64,3.663,3.663V392.028z"/>
				</g>
				<g>
					<rect x="396.188" y="371.962" style="fill:#455A64;" width="1.422" height="31.125"/>
				</g>
				<g>
					<g>
						<path style="fill:#263238;" d="M388.862,392.028c-0.004-0.159,3.025-0.365,7.418-0.527l-0.351,0.359
							c-0.011-1.676-0.024-3.492-0.037-5.406c0-3.545,0.044-6.754,0.116-9.077c0.072-2.323,0.171-3.759,0.281-3.759
							s0.209,1.436,0.28,3.759c0.072,2.323,0.116,5.532,0.116,9.077c-0.013,1.915-0.026,3.731-0.037,5.406l-0.003,0.357
							l-0.349,0.003C391.9,392.255,388.865,392.187,388.862,392.028z"/>
					</g>
				</g>
			</g>
			<g>
				<g>
					<g>
						<rect x="399.823" y="353.638" style="fill:#E0E0E0;" width="5.139" height="57.993"/>
						<g>
							<path style="fill:#263238;" d="M404.961,411.63c-0.006-0.006-0.012-0.112-0.018-0.312c-0.005-0.226-0.01-0.517-0.018-0.881
								c-0.009-0.801-0.021-1.926-0.036-3.361c-0.018-2.939-0.045-7.142-0.077-12.346c-0.028-10.441-0.067-24.892-0.11-41.091
								l0.259,0.259c-1.634,0-3.376,0.001-5.136,0.001c0.514-0.52,0.143-0.133,0.257-0.244v0.019v0.038v0.076v0.152v0.304v0.608
								l0,1.211c0,0.806,0,1.608-0.001,2.405c-0.001,1.595-0.001,3.174-0.002,4.734c-0.003,3.12-0.006,6.164-0.009,9.117
								c-0.012,5.901-0.023,11.434-0.033,16.458c-0.05,10.002-0.089,17.974-0.114,22.852l-0.103-0.103
								c1.62,0.025,2.887,0.045,3.784,0.059c0.417,0.01,0.747,0.018,1,0.024C404.835,411.617,404.955,411.624,404.961,411.63
								c0.006,0.006-0.101,0.013-0.318,0.02c-0.248,0.006-0.57,0.014-0.977,0.024c-0.911,0.014-2.198,0.034-3.843,0.059
								l-0.102,0.002l0-0.104c-0.024-4.878-0.064-12.85-0.114-22.852c-0.01-5.025-0.021-10.557-0.033-16.458
								c-0.003-2.953-0.006-5.997-0.009-9.117c-0.001-1.56-0.001-3.139-0.002-4.734c0-0.798,0-1.599-0.001-2.405l0-1.211v-0.608
								v-0.304v-0.152v-0.076v-0.038v-0.019c0.117-0.121-0.263,0.244,0.263-0.276c1.759,0,3.501,0.001,5.136,0.001l0.26,0
								l-0.001,0.259c-0.043,16.274-0.082,30.792-0.11,41.281c-0.033,5.179-0.059,9.361-0.077,12.286
								c-0.016,1.409-0.028,2.515-0.036,3.302c-0.007,0.351-0.013,0.63-0.018,0.848C404.973,411.543,404.967,411.636,404.961,411.63
								z"/>
						</g>
					</g>
				</g>
				<g>
					<path style="fill:#455A64;" d="M405.952,376.293h-7.327v-23.986c0-2.023,1.64-3.663,3.663-3.663l0,0
						c2.023,0,3.663,1.64,3.663,3.663V376.293z"/>
				</g>
				<g>
					<rect x="405.952" y="356.228" style="fill:#455A64;" width="1.422" height="31.125"/>
				</g>
				<g>
					<g>
						<path style="fill:#263238;" d="M398.625,376.294c-0.004-0.159,3.025-0.365,7.418-0.527l-0.351,0.359
							c-0.012-1.676-0.024-3.492-0.037-5.407c0-3.545,0.044-6.754,0.116-9.077c0.072-2.323,0.171-3.759,0.28-3.759
							c0.109,0,0.209,1.437,0.28,3.759c0.072,2.323,0.116,5.532,0.116,9.077c-0.013,1.915-0.026,3.731-0.037,5.407l-0.002,0.356
							l-0.349,0.003C401.664,376.522,398.629,376.453,398.625,376.294z"/>
					</g>
				</g>
			</g>
			<g>
				<path style="fill:#FF725E;" d="M405.141,441.158c-10.895,5.137-21.877,5.058-32.943,0l-4.333-48.119
					c13.26,3.886,27.329,3.513,41.994,0L405.141,441.158z"/>
			</g>
		</g>
		<g>
			<path style="fill:#263238;" d="M409.865,392.714c0.011,0.034-0.547,0.234-1.567,0.566c-1.017,0.342-2.514,0.758-4.382,1.197
				c-1.866,0.448-4.117,0.86-6.634,1.198c-2.52,0.311-5.306,0.532-8.238,0.569c-2.933,0.017-5.724-0.152-8.249-0.417
				c-2.523-0.291-4.781-0.662-6.655-1.076c-1.875-0.405-3.38-0.793-4.403-1.117c-1.026-0.313-1.587-0.502-1.577-0.536
				c0.01-0.034,0.591,0.089,1.63,0.341c1.036,0.262,2.548,0.595,4.423,0.951c1.874,0.365,4.124,0.696,6.633,0.959
				c2.511,0.237,5.283,0.391,8.194,0.374c2.91-0.037,5.678-0.242,8.184-0.525c2.503-0.309,4.747-0.681,6.614-1.081
				c1.868-0.391,3.374-0.751,4.405-1.033C409.276,392.814,409.855,392.68,409.865,392.714z"/>
		</g>
	</g>
</g>
<g id="Papers">
	<g>
		<polygon style="fill:#E0E0E0;" points="230.375,439.004 146.723,441.228 230.375,475.227 320.347,469.911 		"/>
		<polygon style="fill:#F5F5F5;" points="206.535,435.626 122.884,437.85 206.535,471.849 296.508,466.533 		"/>
		<polygon style="fill:#E0E0E0;" points="128.338,426.783 211.989,460.781 211.989,466.959 128.338,431.774 		"/>
		<polygon style="fill:#EBEBEB;" points="211.989,466.959 301.962,461.212 301.962,455.466 211.989,460.781 		"/>
		<g>
			<polygon style="fill:#FFFFFF;" points="211.989,424.558 128.338,426.783 211.989,460.781 301.962,455.465 			"/>
			<g>
				<path style="fill:#263238;" d="M211.989,424.558c0,0,0.143,0.036,0.423,0.126c0.291,0.096,0.704,0.231,1.245,0.409
					c1.11,0.373,2.734,0.919,4.847,1.628c4.254,1.445,10.464,3.556,18.351,6.236c15.801,5.403,38.305,13.1,65.182,22.291
					c0.12,0.041,0.184,0.171,0.143,0.291c-0.031,0.091-0.114,0.149-0.204,0.155c-24.802,1.474-53.667,3.19-84.329,5.013
					c-1.897,0.112-3.788,0.224-5.641,0.333c-0.04,0.002-0.079-0.005-0.114-0.019c-30.805-12.536-59.464-24.199-83.636-34.036
					c-0.113-0.046-0.167-0.174-0.121-0.286c0.034-0.084,0.114-0.135,0.198-0.137c25.189-0.631,46.103-1.155,60.736-1.521
					c7.297-0.168,13.025-0.3,16.944-0.39c1.942-0.038,3.433-0.066,4.454-0.086C211.473,424.549,211.989,424.558,211.989,424.558
					s-0.523,0.036-1.533,0.074c-1.023,0.035-2.516,0.085-4.462,0.151c-3.921,0.118-9.651,0.291-16.952,0.511
					c-14.624,0.411-35.525,1-60.698,1.708l0.077-0.424c24.181,9.815,52.85,21.452,83.666,33.961l-0.113-0.019
					c1.854-0.109,3.744-0.221,5.641-0.333c30.664-1.8,59.53-3.495,84.333-4.952l-0.061,0.446
					c-26.837-9.261-49.309-17.015-65.087-22.459c-7.874-2.734-14.074-4.887-18.32-6.361c-2.107-0.74-3.727-1.308-4.834-1.697
					c-0.538-0.193-0.949-0.34-1.239-0.445C212.129,424.619,211.989,424.558,211.989,424.558z"/>
			</g>
		</g>
		<g>
			<path style="fill:#263238;" d="M211.927,467.191c-0.144,0-0.26-1.414-0.26-3.158c0-1.745,0.117-3.158,0.26-3.158
				c0.144,0,0.26,1.414,0.26,3.158C212.187,465.777,212.07,467.191,211.927,467.191z"/>
		</g>
		<g>
			<path style="fill:#263238;" d="M269.431,449.045c0.009,0.144-13.637,1.077-30.474,2.086c-16.843,1.008-30.499,1.709-30.508,1.566
				c-0.009-0.143,13.634-1.077,30.477-2.086C255.763,449.602,269.422,448.901,269.431,449.045z"/>
		</g>
		<g>
			<path style="fill:#263238;" d="M260.558,445.622c0.009,0.144-13.637,1.077-30.474,2.086c-16.843,1.008-30.499,1.709-30.508,1.566
				c-0.008-0.144,13.634-1.077,30.477-2.086C246.89,446.179,260.55,445.478,260.558,445.622z"/>
		</g>
		<g>
			<path style="fill:#263238;" d="M251.686,442.198c0.009,0.144-13.637,1.078-30.474,2.086c-16.843,1.008-30.499,1.709-30.508,1.566
				c-0.009-0.144,13.634-1.077,30.477-2.086C238.018,442.756,251.677,442.055,251.686,442.198z"/>
		</g>
		<g>
			<path style="fill:#263238;" d="M241.365,438.775c0.009,0.144-13.637,1.077-30.474,2.086c-16.843,1.008-30.499,1.709-30.508,1.566
				c-0.009-0.143,13.634-1.077,30.477-2.086C227.697,439.333,241.357,438.632,241.365,438.775z"/>
		</g>
		<g>
			<path style="fill:#263238;" d="M232.517,435.352c0.009,0.144-13.637,1.077-30.474,2.086c-16.843,1.008-30.499,1.709-30.508,1.566
				c-0.009-0.143,13.634-1.077,30.477-2.086C218.849,435.91,232.508,435.209,232.517,435.352z"/>
		</g>
		<g>
			<path style="fill:#263238;" d="M221.703,431.868c0.009,0.144-13.637,1.077-30.474,2.085c-16.843,1.009-30.499,1.709-30.508,1.566
				c-0.009-0.143,13.634-1.077,30.477-2.086C208.035,432.426,221.694,431.725,221.703,431.868z"/>
		</g>
	</g>
</g>
<g id="Hand">
	<g>
		<path style="fill:#AE7461;" d="M287.219,187.353c0,0-7.772-0.576-8.348-13.817c-0.576-13.241-4.894-46.632-4.03-53.253
			c0.864-6.621,7.196-7.772,9.499-10.075c2.303-2.303,61.601-27.634,67.07-26.77c5.469,0.864,80.023,26.483,80.023,26.483
			l33.053,93.509c0,0-17.221,6.664-30.75,6.952c-13.529,0.288-54.98-12.953-54.98-12.953l-7.036,3.062
			c0,0,3.219,10.606-2.553,13.183c-5.83,2.603-12.018,0.413-12.018,0.413s-0.331,12.517-9.83,12.229
			c-9.499-0.288-20.376-8.45-20.376-8.45s-5.181,3.454-8.348,0.864c-3.166-2.591-21.013-21.301-21.013-21.301L287.219,187.353z"/>
		<g>
			<path style="fill:#6F4439;" d="M350.418,130.636c-0.031,0.019-0.298-0.381-0.757-1.122c-0.468-0.735-1.073-1.845-1.75-3.249
				c-0.686-1.402-1.387-3.126-2.051-5.081c-0.638-1.963-1.222-4.162-1.642-6.509c-0.401-2.351-0.597-4.618-0.662-6.682
				c-0.039-2.065,0.037-3.925,0.207-5.476c0.161-1.551,0.354-2.8,0.545-3.65c0.18-0.853,0.296-1.32,0.331-1.313
				c0.035,0.007-0.014,0.487-0.132,1.346c-0.129,0.857-0.265,2.105-0.378,3.648c-0.122,1.543-0.158,3.387-0.094,5.429
				c0.091,2.042,0.299,4.282,0.696,6.608c0.415,2.322,0.979,4.499,1.585,6.451c0.632,1.943,1.292,3.665,1.929,5.076
				c0.629,1.413,1.181,2.542,1.592,3.304C350.24,130.182,350.449,130.617,350.418,130.636z"/>
		</g>
		<g>
			<path style="fill:#6F4439;" d="M368.292,118.474c0.055,0.04-0.384,0.769-1.194,1.878c-0.809,1.109-2.001,2.59-3.43,4.125
				c-1.431,1.534-2.826,2.827-3.876,3.712c-1.05,0.886-1.746,1.375-1.79,1.323c-0.1-0.119,2.452-2.34,5.285-5.389
				C366.129,121.085,368.166,118.383,368.292,118.474z"/>
		</g>
		<g>
			<path style="fill:#6F4439;" d="M316.385,181.278c0.026-0.024,0.454,0.385,1.204,1.149c0.75,0.764,1.823,1.882,3.111,3.3
				c1.283,1.422,2.792,3.139,4.325,5.164c1.526,2.025,3.111,4.354,4.304,7.06c1.171,2.717,1.711,5.534,1.736,8.09
				c0.057,2.563-0.445,4.859-1.13,6.664c-0.712,1.804-1.618,3.113-2.344,3.908c-0.333,0.425-0.67,0.683-0.869,0.883
				c-0.209,0.191-0.324,0.284-0.336,0.271c-0.038-0.038,0.394-0.449,1.049-1.282c0.667-0.822,1.504-2.132,2.156-3.908
				c0.624-1.779,1.077-4.023,0.995-6.526c-0.05-2.496-0.593-5.244-1.734-7.892c-1.165-2.644-2.717-4.956-4.21-6.98
				c-1.5-2.024-2.972-3.759-4.217-5.208c-1.215-1.387-2.22-2.535-2.984-3.406C316.736,181.759,316.358,181.302,316.385,181.278z"/>
		</g>
		<g>
			<path style="fill:#6F4439;" d="M347.955,170.768c0.012,0.003-0.006,0.105-0.052,0.298c-0.052,0.191-0.107,0.484-0.236,0.847
				c-0.23,0.734-0.65,1.786-1.335,3.045c-0.696,1.248-1.65,2.723-3.063,4.137c-0.699,0.713-1.537,1.383-2.506,1.955
				c-0.969,0.563-2.115,1.007-3.374,1.064l0.159-0.392c1.384,1.512,2.241,3.572,2.686,5.779c0.449,2.205,0.516,4.652-0.23,7.016
				c-0.277,0.848-0.725,1.63-1.258,2.284l-0.086-0.406c3.431,1.596,6.647,3.222,9.339,5.063c1.356,0.904,2.547,1.898,3.617,2.866
				c1.029,1.013,1.946,2.001,2.645,3.007c1.436,1.987,2.202,3.827,2.611,5.113c0.216,0.641,0.303,1.161,0.392,1.503
				c0.078,0.345,0.111,0.528,0.094,0.531c-0.044,0.011-0.236-0.707-0.669-1.972c-0.461-1.254-1.266-3.042-2.712-4.965
				c-0.704-0.974-1.622-1.93-2.645-2.912c-1.066-0.938-2.247-1.903-3.594-2.784c-2.673-1.794-5.871-3.391-9.297-4.979l-0.301-0.139
				l0.215-0.267c0.478-0.594,0.893-1.31,1.154-2.108c0.705-2.227,0.656-4.611,0.227-6.749c-0.419-2.143-1.249-4.139-2.526-5.557
				l-0.337-0.375l0.496-0.018c1.164-0.042,2.248-0.444,3.182-0.972c0.934-0.536,1.756-1.173,2.448-1.857
				c1.401-1.356,2.372-2.789,3.092-4c0.711-1.222,1.166-2.245,1.437-2.957C347.801,171.152,347.925,170.76,347.955,170.768z"/>
		</g>
		<g>
			<path style="fill:#6F4439;" d="M362.227,194.638c-0.036,0.004-0.113-0.287-0.221-0.817c-0.095-0.531-0.253-1.295-0.476-2.23
				c-0.44-1.866-1.221-4.426-2.711-6.935c-1.51-2.497-3.438-4.358-4.938-5.548c-1.499-1.201-2.506-1.853-2.46-1.925
				c0.019-0.031,0.288,0.103,0.761,0.371c0.47,0.272,1.139,0.686,1.924,1.263c1.576,1.129,3.606,3.001,5.159,5.572
				c1.533,2.582,2.273,5.22,2.624,7.126c0.179,0.957,0.283,1.736,0.317,2.279C362.254,194.334,362.263,194.634,362.227,194.638z"/>
		</g>
		<g>
			<path style="fill:#6F4439;" d="M372.488,203.43c-0.045,0.01-0.144-0.389-0.398-1.08c-0.254-0.686-0.668-1.679-1.471-2.701
				c-1.533-2.184-5.111-3.442-8.839-4.899c-1.892-0.709-3.718-1.242-5.417-1.718c-1.687-0.51-3.171-1.058-4.414-1.519
				c-1.157-0.44-2.137-0.813-2.934-1.117c-0.691-0.268-1.071-0.425-1.059-0.46c0.011-0.033,0.412,0.059,1.125,0.268
				c0.713,0.209,1.734,0.541,2.991,0.961c1.258,0.416,2.75,0.926,4.426,1.406c1.683,0.444,3.564,0.978,5.463,1.69
				c1.906,0.704,3.682,1.469,5.27,2.229c1.612,0.765,2.893,1.833,3.682,2.936c0.801,1.099,1.172,2.145,1.371,2.862
				C372.481,203.01,372.513,203.425,372.488,203.43z"/>
		</g>
		<g>
			<path style="fill:#6F4439;" d="M374.01,178.593c0.078-0.007,0.221,1.065,0.496,2.785c0.273,1.721,0.703,4.088,1.333,6.667
				c0.634,2.579,1.348,4.876,1.901,6.528c0.552,1.652,0.92,2.669,0.848,2.699c-0.061,0.026-0.55-0.943-1.195-2.573
				c-0.645-1.629-1.422-3.929-2.061-6.53c-0.636-2.6-1.011-4.999-1.192-6.742C373.958,179.683,373.944,178.598,374.01,178.593z"/>
		</g>
		<g>
			<path style="fill:#6F4439;" d="M442.113,185.007c0.005,0.017-0.231,0.097-0.686,0.233c-0.506,0.145-1.169,0.334-1.997,0.571
				c-0.44,0.121-0.923,0.254-1.448,0.398c-0.539,0.12-1.121,0.249-1.743,0.387c-1.251,0.28-2.675,0.605-4.271,0.842
				c-0.798,0.133-1.632,0.272-2.499,0.416c-0.876,0.102-1.786,0.208-2.728,0.318c-1.882,0.264-3.912,0.323-6.041,0.483
				c-4.267,0.143-8.971,0.043-13.872-0.516c-4.9-0.587-9.494-1.644-13.583-2.878c-2.024-0.686-3.96-1.301-5.695-2.085
				c-0.871-0.378-1.736-0.691-2.525-1.087c-0.786-0.396-1.542-0.777-2.265-1.142c-1.466-0.684-2.68-1.507-3.785-2.157
				c-0.545-0.338-1.065-0.632-1.519-0.94c-0.441-0.32-0.846-0.614-1.216-0.883c-0.692-0.512-1.247-0.922-1.671-1.235
				c-0.378-0.287-0.571-0.444-0.56-0.458c0.011-0.014,0.225,0.115,0.623,0.374c0.437,0.292,1.009,0.674,1.723,1.152
				c0.376,0.256,0.789,0.537,1.236,0.842c0.46,0.295,0.985,0.575,1.535,0.9c1.114,0.623,2.333,1.419,3.802,2.078
				c0.723,0.353,1.479,0.721,2.265,1.105c0.788,0.383,1.651,0.685,2.52,1.052c1.73,0.761,3.659,1.357,5.673,2.026
				c4.07,1.2,8.634,2.235,13.504,2.819c4.87,0.555,9.545,0.669,13.791,0.554c2.118-0.146,4.14-0.189,6.015-0.433
				c0.939-0.099,1.846-0.195,2.719-0.287c0.866-0.132,1.698-0.26,2.494-0.381c1.594-0.214,3.018-0.512,4.27-0.764
				c0.624-0.123,1.207-0.237,1.747-0.344c0.527-0.128,1.012-0.246,1.455-0.353c0.836-0.197,1.507-0.355,2.018-0.475
				C441.863,185.036,442.108,184.99,442.113,185.007z"/>
		</g>
		<g>
			<path style="fill:#6F4439;" d="M306.902,135.229c-0.075,0.048-0.939-1.286-2.578-3.252c-1.625-1.975-4.064-4.545-6.993-7.126
				c-2.94-2.571-5.805-4.656-7.973-6.012c-2.161-1.37-3.596-2.054-3.558-2.135c0.015-0.033,0.386,0.112,1.046,0.403
				c0.656,0.297,1.596,0.758,2.703,1.417c2.236,1.286,5.162,3.344,8.126,5.936c2.953,2.602,5.372,5.236,6.937,7.287
				c0.798,1.013,1.376,1.885,1.756,2.497C306.741,134.861,306.933,135.21,306.902,135.229z"/>
		</g>
		<g>
			<path style="fill:#6F4439;" d="M297.102,145.069c-0.138,0.078-0.936-1.395-2.537-2.598c-1.583-1.227-3.215-1.607-3.176-1.76
				c-0.002-0.132,1.791,0.035,3.492,1.346C296.594,143.351,297.23,145.037,297.102,145.069z"/>
		</g>
		<path style="fill:#263238;" d="M279.698,222.016l-0.019,0.082c0,0-0.924,3.984-0.786,4.85c0.15,0.942,1.086,0.31,1.086,0.31
			l2.451-4.202L279.698,222.016z"/>
		<polygon style="fill:#E0E0E0;" points="279.404,222.19 286.318,192.053 298.107,197.04 282.585,223.442 		"/>
		<path style="fill:#FF725E;" d="M338.64,48.342c0,0-51.9,141.873-52.322,143.711l11.788,4.987c0,0,34.321-83.027,34.905-84.486
			c0.584-1.459,21.115-58.666,21.115-58.666L338.64,48.342z"/>
		<polygon style="fill:#E0E0E0;" points="338.64,48.342 342.768,38.276 345.979,37.325 355.908,40.524 357.512,43.631 
			354.126,53.887 		"/>
		<path style="fill:#E0E0E0;" d="M345.979,37.325l5.611-14.569c3.606,0.026,6.739,1.276,9.623,3.175l-5.306,14.594L345.979,37.325z"
			/>
		<g>
			<path style="fill:#263238;" d="M357.93,43.875c-0.018,0.067-0.923-0.109-2.363-0.487c-1.439-0.378-3.409-0.969-5.551-1.724
				c-2.142-0.757-4.047-1.533-5.405-2.142c-1.358-0.608-2.173-1.04-2.145-1.103c0.03-0.068,0.895,0.243,2.285,0.763
				c1.389,0.52,3.306,1.238,5.438,1.991c2.132,0.751,4.075,1.395,5.483,1.862C357.08,43.502,357.95,43.803,357.93,43.875z"/>
		</g>
		<path style="fill:#E0E0E0;" d="M354.126,53.887L354.126,53.887c2.902,1.029,4.43,4.206,3.424,7.116l-16.122,46.621
			c-0.597,1.727-2.545,2.572-4.214,1.828h0c-1.49-0.664-2.216-2.366-1.664-3.901L354.126,53.887z"/>
		<g style="opacity:0.2;">
			<path style="fill:#FFFFFF;" d="M312.027,203.193c-0.838-0.886-2.017-1.434-3.232-1.329c-1.957,0.169-3.089,1.709-3.471,3.617
				c5.021,5.293,9.863,10.317,13.374,13.354c0.195,0.169,0.435,0.267,0.691,0.291l0.616,0.057
				C318.987,213.227,316.182,207.585,312.027,203.193z"/>
		</g>
		<g style="opacity:0.2;">
			<path style="fill:#FFFFFF;" d="M346.562,226.316c0.171-2.294,0.165-4.646-0.541-6.834c-0.706-2.189-2.202-4.213-4.324-5.101
				c-1.914-0.801-4.226-0.568-5.943,0.598s-2.787,4.628-2.748,6.702c0,0,5.23,2.881,8.255,3.72
				C344.289,226.239,346.562,226.316,346.562,226.316z"/>
		</g>
		<g style="opacity:0.2;">
			<path style="fill:#FFFFFF;" d="M365.718,214.708c2.214-0.751,2.623-5.812,1.353-7.78c-0.932-1.446-2.091-2.431-3.995-3.146
				c-1.842-0.692-4.047-1.233-5.981-0.847c-2.477,0.495-3.727,1.387-4.464,2.69c0,0,3.676,3.803,4.518,8.461
				C359.926,214.934,362.782,215.147,365.718,214.708z"/>
		</g>
		<path style="fill:#AE7461;" d="M464.487,203.43l-33.053-93.509l37.608-12.367c0,0,19.422,35.848,11.059,69.657
			C472.107,199.522,464.487,203.43,464.487,203.43z"/>
		<g>
			<path style="fill:#AE7461;" d="M384.808,120.605c-12.173,4.777-25.108,7.216-37.843,10.184
				c-12.735,2.967-27.802,6.71-36.702,13.363c-8.593,6.424-19.203,15.655-22.737,25.298c-1.496,4.082-1.25,8.658,1.03,12.359
				c1.309,2.125,3.347,3.871,6.362,4.351c7.532,1.199,15.29-1.691,21.038-4.662c5.57-2.879,25.455-12.697,25.455-12.697
				l16.572-0.266l12.714,3.561"/>
			<g>
				<path style="fill:#6F4439;" d="M390.116,162.098c0.026,0.024-0.159,0.267-0.519,0.685c-0.355,0.423-0.911,0.999-1.63,1.675
					c-1.436,1.355-3.605,3.052-6.258,4.505c-2.658,1.446-5.259,2.353-7.175,2.827c-0.958,0.239-1.743,0.395-2.291,0.465
					c-0.547,0.076-0.851,0.101-0.857,0.066c-0.015-0.085,1.178-0.323,3.049-0.886c1.871-0.56,4.408-1.506,7.024-2.93
					c2.612-1.43,4.78-3.052,6.263-4.323C389.207,162.914,390.052,162.039,390.116,162.098z"/>
			</g>
			<g>
				<path style="fill:#6F4439;" d="M363.494,159.43c0.126,0.037-0.554,2.385-2.111,4.943c-1.544,2.566-3.309,4.258-3.4,4.163
					c-0.116-0.104,1.444-1.92,2.954-4.433C362.462,161.6,363.348,159.375,363.494,159.43z"/>
			</g>
			<g>
				<path style="fill:#6F4439;" d="M335.869,162.361c0.109-0.094,1.438,1.272,2.968,3.051c1.53,1.779,2.682,3.297,2.573,3.39
					c-0.109,0.094-1.438-1.272-2.968-3.051C336.913,163.973,335.76,162.455,335.869,162.361z"/>
			</g>
			<g>
				<path style="fill:#6F4439;" d="M325.224,166.295c-0.023,0.028-0.291-0.164-0.76-0.537c-0.474-0.365-1.113-0.954-1.854-1.728
					c-1.484-1.542-3.281-3.953-4.624-6.953c-1.333-3.005-1.923-5.954-2.077-8.089c-0.081-1.068-0.091-1.937-0.045-2.534
					c0.036-0.597,0.073-0.925,0.109-0.924c0.094,0.002,0.051,1.322,0.302,3.421c0.245,2.096,0.881,4.968,2.186,7.914
					c1.317,2.94,3.027,5.333,4.421,6.917C324.275,165.373,325.286,166.223,325.224,166.295z"/>
			</g>
			<g>
				<path style="fill:#6F4439;" d="M324.71,160.86c-0.163,0.027-0.645-3.531-2.196-7.637c-1.523-4.118-3.492-7.12-3.351-7.207
					c0.054-0.036,0.615,0.668,1.372,1.91c0.758,1.239,1.686,3.032,2.466,5.114c0.776,2.083,1.251,4.045,1.492,5.478
					C324.736,159.952,324.774,160.852,324.71,160.86z"/>
			</g>
			<g style="opacity:0.2;">
				<path style="fill:#FFFFFF;" d="M294.945,182.493c2.488,0.423,4.582,0.914,7.093,0.657c2.511-0.257,5.068-1.643,5.984-3.995
					c1.052-2.702-0.287-5.689-1.598-8.274c-1.086-2.142-2.172-4.283-3.258-6.425c-0.863-1.702-1.959-3.613-4.428-3.1
					c-0.61,0.127-1.186,0.39-1.707,0.731c-3.706,2.429-6.602,6.048-8.215,10.17c-0.931,2.379-0.618,5.123,0.962,7.131
					C290.738,180.609,292.598,182.094,294.945,182.493z"/>
			</g>
		</g>
		<g>
			<path style="fill:#6F4439;" d="M370.696,172.097c0,0-0.292-0.058-0.851-0.204c-0.578-0.154-1.403-0.374-2.471-0.659
				c-2.185-0.598-5.364-1.467-9.426-2.579l0.035,0.005c-4.483,0.087-10.084,0.195-16.571,0.321l0.077-0.019
				c-4.319,2.166-9.089,4.558-14.24,7.141c-2.577,1.29-5.25,2.629-8.008,4.01c-2.763,1.357-5.569,2.908-8.649,4.068
				c-3.064,1.172-6.346,2.104-9.802,2.401c-1.725,0.147-3.487,0.136-5.246-0.089c-1.768-0.156-3.567-0.819-4.991-1.988
				c-1.432-1.166-2.478-2.755-3.18-4.464c-0.712-1.714-1.063-3.588-1.042-5.469c0.01-1.88,0.38-3.776,1.086-5.541
				c0.666-1.779,1.587-3.454,2.569-5.095c4.02-6.283,9.371-11.294,14.717-15.745c1.344-1.112,2.702-2.182,4.062-3.221
				c0.685-0.514,1.352-1.04,2.061-1.517l1.047-0.729l1.08-0.662c2.882-1.749,5.889-3.117,8.871-4.294
				c5.981-2.333,11.866-3.943,17.385-5.334c5.526-1.374,10.7-2.528,15.424-3.576c9.454-2.062,17.051-3.954,22.213-5.574
				c2.586-0.79,4.569-1.483,5.911-1.957c0.655-0.236,1.162-0.42,1.524-0.55c0.344-0.121,0.526-0.171,0.526-0.171
				s-2.739,1.226-7.9,2.871c-5.15,1.682-12.748,3.632-22.193,5.74c-4.718,1.071-9.886,2.246-15.399,3.636
				c-5.505,1.407-11.372,3.03-17.314,5.362c-2.963,1.176-5.944,2.541-8.789,4.273c-2.829,1.738-5.492,3.909-8.184,6.098
				c-5.32,4.436-10.636,9.428-14.6,15.627c-1.928,3.208-3.615,6.688-3.579,10.365c-0.022,1.816,0.316,3.621,1,5.269
				c0.675,1.648,1.678,3.165,3.026,4.265c1.351,1.103,3.013,1.727,4.734,1.884c1.719,0.222,3.445,0.236,5.139,0.094
				c3.395-0.287,6.638-1.199,9.673-2.353c3.05-1.141,5.836-2.672,8.612-4.027c2.764-1.373,5.441-2.703,8.023-3.986
				c5.163-2.562,9.945-4.934,14.274-7.082l0.036-0.018l0.04-0.001c6.488-0.083,12.089-0.154,16.573-0.211l0.019,0l0.017,0.005
				c4.048,1.161,7.216,2.069,9.394,2.693c1.061,0.312,1.88,0.552,2.453,0.721C370.417,171.995,370.696,172.097,370.696,172.097z"/>
		</g>
		<g style="opacity:0.4;">
			<path style="fill:#6F4439;" d="M435.629,185.674c-1.071-0.185-2.157,0.124-3.207,0.405c-18.616,4.982-39.314,1.551-55.327-9.171
				c-4.025-2.695-5.836-4.63-8.96-5.468l-2.463-0.672c9.209,9.283,19.12,16.468,31.469,20.764s26.427,4.561,38.217-1.092
				c1.135-0.544,2.403-1.387,2.394-2.646C437.745,186.708,436.7,185.859,435.629,185.674z"/>
		</g>
	</g>
</g>
<g id="Character_00000123411442230577162210000000543371609935833242_">
	<g>
		<g>
			<polygon style="fill:#263238;" points="210.892,430.667 206.708,428.48 208.761,426.629 			"/>
		</g>
		<g>
			<polygon style="fill:#FFFFFF;" points="201.033,425.86 205.93,421.504 208.8,426.804 206.708,428.48 			"/>
		</g>
		<g>
			<g>
				<polygon style="fill:#FF725E;" points="118.632,277.642 146.56,268.332 162.115,255.186 165.481,260.515 178.53,257.524 
					215.462,267.122 221.419,277.654 252.945,286.279 253.088,330.489 247.364,411.379 248.2,424.237 97.372,424.237 
					94.883,370.506 94.769,337.082 				"/>
			</g>
			<g>
				<path style="fill:#AE7461;" d="M198.4,401.177l32.561-1.577c0,0,6.317,3.602,7.957,13.928c1.64,10.326,0,10.326,0,10.326
					l-16.398,5.536l-34.788-0.8l-12.617-15.848l9.506-5.611L198.4,401.177z"/>
			</g>
			<g>
				<path style="fill:#FF725E;" d="M85.769,389.261c0,0,31.228-49.24,25.972-42.116c-0.645,0.875,3.174-2.824,8.094-14.899
					c4.724-11.594,17.044-60.272,17.044-60.272l-28.14,7.465c-7.402,1.964-13.425,2.602-19.804,6.839
					c-5.551,3.688-11.347,10.933-15.115,16.43c-14.045,20.487-39.758,60.392-43.007,65.494c-4.638,7.28-14.027,26.072-13.923,37.287
					c0.09,9.772,1.99,18.476,16.906,26.262c13.76,7.182,101.725,2.179,101.725,2.179l-0.484-36.57L85.769,389.261z"/>
			</g>
			<g>
				<path style="fill:#FF725E;" d="M340.111,379.879c-1.29-3.216-50.473-57.597-75.167-82.766c-7.412-7.555-12-10.835-12-10.835
					l-8.134,53.008c0,0,2.796,12.22,4.498,21.263c0.367,1.953,25.909,19.33,25.909,19.33l5.474,3.506l-49.929,13.196l2.085,31.72
					l89.386-2.352C333.84,421.509,352.322,410.309,340.111,379.879z"/>
			</g>
			<g>
				<g>
					<path style="fill:#263238;" d="M322.233,425.949c0,0-0.153,0.02-0.452,0.036c-0.318,0.014-0.76,0.033-1.328,0.058
						c-1.19,0.042-2.911,0.102-5.123,0.179c-4.477,0.136-10.937,0.332-18.956,0.575c-16.087,0.444-38.425,1.059-63.521,1.751
						l-0.239,0.007l-0.016-0.238c-0.195-2.967-0.403-6.121-0.613-9.31c-0.507-7.741-0.999-15.273-1.466-22.41l-0.014-0.211
						l0.207-0.043c5.348-1.105,10.463-2.486,15.362-3.812c4.893-1.357,9.577-2.655,14.012-3.885
						c8.871-2.46,16.777-4.545,23.431-5.981c6.647-1.466,12.04-2.268,15.765-2.563c1.859-0.203,3.305-0.203,4.28-0.218
						c0.473-0.005,0.839-0.01,1.108-0.013c0.249,0,0.376,0.01,0.376,0.01s-0.127,0.019-0.376,0.034
						c-0.268,0.013-0.633,0.032-1.106,0.056c-0.973,0.044-2.413,0.07-4.266,0.299c-3.712,0.347-9.084,1.195-15.713,2.7
						c-6.636,1.476-14.525,3.595-23.385,6.082c-4.433,1.241-9.114,2.553-14.004,3.922c-4.9,1.338-10.016,2.728-15.385,3.845
						l0.193-0.254c0.471,7.137,0.969,14.669,1.479,22.41c0.209,3.189,0.416,6.343,0.611,9.31l-0.254-0.232
						c25.098-0.629,47.438-1.188,63.526-1.591c8.02-0.179,14.481-0.323,18.96-0.422c2.213-0.039,3.934-0.07,5.125-0.09
						c0.569-0.005,1.011-0.009,1.33-0.012C322.08,425.937,322.233,425.949,322.233,425.949z"/>
				</g>
			</g>
			<g>
				<path style="fill:#6F4439;" d="M204.863,414.359c-0.163-0.436-0.523-0.763-0.871-1.073c-1.765-1.571-3.53-3.142-5.295-4.713
					l-3.066,9.134c1.288,0.985,2.974,1.432,4.58,1.214c1.606-0.218,3.113-1.097,4.092-2.389
					C204.776,415.91,205.136,415.091,204.863,414.359z"/>
			</g>
			<g>
				<g>
					<path style="fill:#455A64;" d="M133.801,363.393l67.232,62.466l6.348,3.009l3.512,1.799l-1.639-3.027l-3.323-6.136
						l-68.064-62.512c-1.154-1.06-2.93-1.051-4.074,0.02l0,0C132.524,360.199,132.528,362.211,133.801,363.393z"/>
				</g>
				<g>
					<g>
						<path style="fill:#AE7461;" d="M135.052,398.511l5.271,0.936c0,0,27.31-10.079,31.212-10.587
							c3.015-0.393,17.379,2.983,23.748,4.538c2.566,0.626,4.445,2.941,4.327,5.579c-0.002,0.04-0.004,0.08-0.006,0.12
							c-0.128,2.124-1.549,3.957-3.518,4.764l0,0c0,0,5.365,1.665,2.938,7.335c-1.797,4.198-7.459,3.549-7.459,3.549l-9.448,0.181
							c0,0,2.41,0.724,6.042,1.575c3.895,0.912,4.939,1.616,4.939,1.616s5.702,5.482,0.194,7.77
							c-3.362,1.397-5.763,1.018-5.763,1.018s1.646,5.89-2.764,6.908s-33.546-1.2-33.546-1.2s-1.544-0.865-7.481-1.374l-8.218-0.571
							L135.052,398.511z"/>
					</g>
					<g>
						<g>
							<path style="fill:#6F4439;" d="M135.052,398.511c0,0,0.014,0.203,0.025,0.581c0.01,0.394,0.024,0.948,0.042,1.668
								c0.031,1.477,0.077,3.624,0.136,6.389c0.104,5.544,0.255,13.557,0.442,23.515l-0.163-0.172
								c2.373,0.16,4.896,0.33,7.544,0.508c1.325,0.087,2.684,0.229,4.061,0.426c1.382,0.222,2.771,0.416,4.182,1.006l-0.084-0.026
								c6.089,0.439,12.705,0.87,19.729,1.186c3.511,0.146,7.13,0.291,10.821,0.225c0.917-0.038,1.853-0.06,2.742-0.215
								c0.879-0.167,1.7-0.594,2.226-1.308c0.54-0.704,0.767-1.626,0.815-2.546c0.053-0.921-0.05-1.879-0.275-2.778l-0.086-0.346
								l0.361,0.038c1.172,0.125,2.441-0.039,3.645-0.342c1.197-0.326,2.462-0.73,3.378-1.522c0.954-0.799,1.039-2.183,0.525-3.337
								c-0.469-1.175-1.294-2.241-2.19-3.166l0.033,0.027c-1.279-0.673-2.943-1.105-4.538-1.503
								c-2.142-0.556-4.269-1.109-6.375-1.656l-1.744-0.453l1.811-0.034c3.199-0.06,6.353-0.12,9.448-0.178l0.01,0l0.023,0.002
								c1.274,0.099,2.605-0.026,3.808-0.431c1.213-0.387,2.285-1.141,2.968-2.176c0.171-0.257,0.296-0.543,0.44-0.815l0.32-0.885
								c0.088-0.299,0.139-0.605,0.211-0.906c0.038-0.304,0.056-0.612,0.068-0.916c-0.018-1.223-0.578-2.375-1.493-3.169
								c-0.456-0.394-0.973-0.723-1.524-0.964l-0.206-0.087l-0.103-0.039l-0.049-0.017c0.014,0.396-0.051-0.548-0.03-0.455
								l0.026-0.012c0.135-0.065,0.276-0.116,0.406-0.19c0.265-0.137,0.522-0.291,0.76-0.47c0.964-0.699,1.681-1.717,1.998-2.84
								c0.312-1.123,0.232-2.345-0.229-3.397c-0.459-1.055-1.269-1.936-2.245-2.505c-0.961-0.592-2.133-0.739-3.253-1.038
								c-1.122-0.267-2.232-0.531-3.331-0.793c-2.199-0.515-4.353-1.004-6.46-1.459c-2.107-0.456-4.168-0.875-6.181-1.235
								c-1.006-0.18-2.001-0.342-2.984-0.474c-0.977-0.114-1.965-0.256-2.886-0.181c-1.857,0.327-3.656,0.945-5.374,1.473
								c-1.723,0.544-3.379,1.097-4.968,1.634c-3.171,1.096-6.09,2.104-8.73,3.016c-5.246,1.869-9.382,3.342-12.204,4.348
								l-0.02,0.007l-0.019-0.004c-1.77-0.334-3.074-0.581-3.954-0.747c-0.424-0.083-0.743-0.145-0.975-0.19
								C135.164,398.539,135.052,398.511,135.052,398.511c-0.004-0.005,0.096,0.009,0.306,0.041
								c0.229,0.037,0.544,0.087,0.962,0.154c0.893,0.149,2.217,0.369,4.015,0.668l-0.038,0.003
								c2.787-1.049,6.909-2.577,12.164-4.468c2.627-0.946,5.539-1.978,8.715-3.07c1.588-0.546,3.242-1.107,4.967-1.66
								c1.733-0.539,3.49-1.16,5.439-1.511c1.012-0.085,1.983,0.06,2.979,0.17c0.992,0.13,1.992,0.289,3.003,0.467
								c2.022,0.355,4.088,0.768,6.199,1.219c2.112,0.45,4.27,0.934,6.472,1.444c1.1,0.259,2.212,0.521,3.335,0.785
								c0.561,0.135,1.125,0.271,1.692,0.407c0.582,0.142,1.159,0.364,1.686,0.673c1.056,0.613,1.936,1.564,2.438,2.712
								c0.504,1.148,0.596,2.477,0.256,3.707c-0.344,1.228-1.123,2.335-2.167,3.094c-0.258,0.194-0.536,0.362-0.823,0.511
								c-0.141,0.08-0.294,0.137-0.44,0.207l-0.028,0.012c-0.015,0.102-0.027-0.838-0.004-0.435l0.062,0.021l0.116,0.043
								l0.226,0.094c0.596,0.26,1.15,0.612,1.649,1.041c0.494,0.435,0.908,0.972,1.204,1.572c0.312,0.601,0.415,1.28,0.456,1.947
								c-0.011,0.333-0.031,0.669-0.073,0.999c-0.075,0.323-0.131,0.654-0.225,0.972l-0.337,0.935
								c-0.155,0.298-0.293,0.61-0.48,0.892c-0.748,1.141-1.931,1.964-3.219,2.375c-1.29,0.43-2.647,0.561-4.02,0.456l0.033,0.001
								c-3.095,0.06-6.249,0.121-9.447,0.183l0.067-0.487c2.098,0.544,4.216,1.094,6.348,1.648c1.637,0.418,3.237,0.803,4.7,1.575
								l0.015,0.008l0.018,0.019c0.951,0.984,1.791,2.062,2.307,3.342c0.269,0.628,0.404,1.341,0.321,2.045
								c-0.049,0.725-0.481,1.362-0.971,1.837c-1.069,0.911-2.355,1.294-3.593,1.637c-1.262,0.311-2.535,0.487-3.842,0.348
								l0.274-0.308c0.242,0.974,0.344,1.95,0.289,2.939c-0.054,0.978-0.294,1.994-0.913,2.806c-0.605,0.824-1.567,1.313-2.518,1.49
								c-0.961,0.166-1.894,0.182-2.826,0.22c-3.719,0.062-7.337-0.09-10.854-0.243c-7.031-0.329-13.648-0.777-19.74-1.235
								l-0.029-0.002l-0.056-0.023c-1.249-0.525-2.694-0.758-4.04-0.972c-1.366-0.201-2.71-0.346-4.033-0.438
								c-2.646-0.19-5.167-0.37-7.539-0.54l-0.161-0.012l-0.002-0.161c-0.104-10.009-0.188-18.064-0.246-23.636
								c-0.022-2.746-0.038-4.879-0.05-6.346c-0.003-0.706-0.005-1.248-0.006-1.634
								C135.043,398.688,135.052,398.511,135.052,398.511z"/>
						</g>
					</g>
				</g>
				<g>
					<g>
						<path style="fill:#6F4439;" d="M195.631,403.862c-0.013,0.137-3.368-0.059-7.493-0.438c-4.127-0.379-7.461-0.798-7.448-0.935
							c0.013-0.137,3.367,0.059,7.494,0.438C192.309,403.306,195.643,403.725,195.631,403.862z"/>
					</g>
				</g>
				<g>
					<g>
						<path style="fill:#6F4439;" d="M166.149,430.667c-0.029,0.051-0.427-0.096-0.893-0.581c-0.461-0.472-0.956-1.331-0.996-2.381
							c-0.036-1.051,0.395-1.943,0.821-2.448c0.43-0.517,0.815-0.693,0.848-0.644c0.049,0.06-0.243,0.329-0.561,0.849
							c-0.319,0.512-0.641,1.316-0.61,2.225c0.035,0.909,0.414,1.687,0.77,2.174C165.883,430.357,166.193,430.603,166.149,430.667z"
							/>
					</g>
				</g>
				<g>
					<g>
						<path style="fill:#6F4439;" d="M165.711,420.781c-0.01,0.054-0.51,0.018-1.162-0.421c-0.64-0.421-1.402-1.33-1.542-2.559
							c-0.128-1.231,0.421-2.283,0.955-2.832c0.542-0.57,1.023-0.712,1.044-0.661c0.043,0.069-0.352,0.316-0.773,0.887
							c-0.42,0.556-0.84,1.5-0.73,2.552c0.119,1.051,0.732,1.883,1.262,2.335C165.3,420.548,165.738,420.705,165.711,420.781z"/>
					</g>
				</g>
				<g>
					<g>
						<path style="fill:#6F4439;" d="M165.541,409.271c-0.033,0.044-0.504-0.231-0.981-0.95c-0.474-0.701-0.898-1.906-0.67-3.234
							c0.235-1.327,1.043-2.318,1.726-2.817c0.693-0.515,1.229-0.615,1.245-0.562c0.033,0.074-0.436,0.288-1.018,0.832
							c-0.579,0.531-1.253,1.455-1.461,2.632c-0.203,1.178,0.118,2.276,0.483,2.971
							C165.228,408.852,165.597,409.213,165.541,409.271z"/>
					</g>
				</g>
				<g>
					<g>
						<path style="fill:#6F4439;" d="M169.011,394.501c-0.046,0.038-0.265-0.118-0.445-0.501c-0.182-0.377-0.269-0.987-0.093-1.609
							c0.177-0.623,0.57-1.096,0.922-1.323c0.354-0.232,0.622-0.25,0.641-0.194c0.059,0.122-0.803,0.575-1.084,1.652
							C168.628,393.591,169.125,394.427,169.011,394.501z"/>
					</g>
				</g>
				<g>
					<g>
						<path style="fill:#6F4439;" d="M182.861,414.746c-0.003,0.138-1.827,0.216-4.075,0.175c-2.249-0.041-4.069-0.186-4.067-0.323
							c0.003-0.138,1.827-0.216,4.076-0.175C181.043,414.463,182.863,414.608,182.861,414.746z"/>
					</g>
				</g>
				<g>
					<g>
						<path style="fill:#6F4439;" d="M187.279,426.905c-0.029,0.135-3.328-0.454-7.369-1.316c-4.042-0.862-7.295-1.669-7.266-1.804
							c0.029-0.135,3.328,0.454,7.37,1.316C184.055,425.963,187.308,426.77,187.279,426.905z"/>
					</g>
				</g>
			</g>
			<g>
				<g>
					<path style="fill:#263238;" d="M114.625,338.199c-0.016-0.006,0.042-0.221,0.167-0.623c0.112-0.406,0.346-0.982,0.539-1.757
						c0.454-1.529,0.967-3.786,1.353-6.61c0.375-2.824,0.598-6.223,0.429-9.987c-0.196-3.755-0.729-7.897-2.066-12.024
						c-1.378-4.105-3.441-7.765-5.839-10.65c-2.363-2.927-5.069-5.04-7.467-6.552c-2.431-1.477-4.567-2.385-6.073-2.903
						c-0.741-0.298-1.346-0.44-1.741-0.587c-0.4-0.133-0.608-0.21-0.603-0.227c0.004-0.017,0.221,0.029,0.63,0.13
						c0.405,0.116,1.022,0.228,1.777,0.5c1.534,0.465,3.71,1.33,6.194,2.785c2.45,1.49,5.219,3.606,7.638,6.56
						c2.455,2.915,4.559,6.616,5.959,10.788c1.357,4.189,1.879,8.372,2.051,12.16c0.145,3.796-0.116,7.219-0.539,10.056
						c-0.433,2.837-1.003,5.097-1.516,6.617c-0.223,0.771-0.487,1.339-0.63,1.735C114.73,338.003,114.641,338.205,114.625,338.199z"
						/>
				</g>
			</g>
			<g>
				<g>
					<path style="fill:#263238;" d="M252.945,329.044c0.017,0.001,0.019,0.221,0.007,0.64c-0.02,0.47-0.045,1.078-0.077,1.832
						c-0.092,1.651-0.22,3.936-0.376,6.734c-0.369,5.737-0.873,13.562-1.43,22.207c-0.613,8.644-1.169,16.467-1.576,22.201
						c-0.222,2.794-0.403,5.076-0.535,6.723c-0.07,0.752-0.127,1.357-0.17,1.826c-0.044,0.417-0.076,0.635-0.093,0.634
						c-0.017-0.001-0.019-0.222-0.007-0.642c0.02-0.47,0.045-1.078,0.077-1.833c0.092-1.65,0.22-3.936,0.376-6.734
						c0.369-5.736,0.873-13.56,1.43-22.207c0.613-8.64,1.168-16.461,1.575-22.194c0.222-2.794,0.404-5.076,0.535-6.724
						c0.07-0.752,0.127-1.358,0.171-1.827C252.896,329.262,252.928,329.043,252.945,329.044z"/>
				</g>
			</g>
			<g>
				<g>
					<path style="fill:#263238;" d="M194.626,319.051c-0.008,0.008-0.119-0.084-0.328-0.27c-0.231-0.212-0.532-0.489-0.909-0.836
						c-0.814-0.773-1.958-1.86-3.401-3.23c-1.459-1.418-3.217-3.127-5.23-5.083c-1.998-1.988-4.278-4.198-6.628-6.773l0.367-0.092
						c-1.108,4.804-2.356,10.219-3.69,16.004l-0.14,0.605l-0.311-0.537c-1.392-2.4-2.831-4.904-4.27-7.479
						c-6.49-11.61-12.079-22.27-16.265-29.907c-2.086-3.788-3.78-6.866-4.975-9.035c-0.575-1.038-1.03-1.858-1.359-2.453
						c-0.139-0.262-0.252-0.473-0.343-0.644c-0.075-0.147-0.11-0.224-0.102-0.228c0.007-0.004,0.057,0.064,0.146,0.202
						c0.102,0.164,0.229,0.368,0.386,0.619c0.35,0.584,0.831,1.388,1.441,2.407c1.232,2.102,2.992,5.157,5.115,8.961
						c4.267,7.597,9.906,18.233,16.391,29.834c1.438,2.573,2.873,5.076,4.259,7.476l-0.451,0.068
						c1.357-5.78,2.627-11.19,3.753-15.989l0.093-0.397l0.274,0.304c2.312,2.566,4.581,4.803,6.554,6.808
						c1.985,1.983,3.719,3.715,5.157,5.152c1.408,1.406,2.524,2.52,3.319,3.313c0.359,0.366,0.645,0.658,0.865,0.882
						C194.538,318.935,194.634,319.043,194.626,319.051z"/>
				</g>
			</g>
			<g>
				<g>
					<path style="fill:#263238;" d="M196.525,317.803c-0.021-0.017,0.252-0.382,0.76-1.06c0.536-0.731,1.26-1.719,2.161-2.947
						c1.834-2.545,4.402-6.188,7.387-10.534l0.164-0.239l0.192,0.219c1.25,1.421,2.751,2.765,4.467,3.976
						c1.711,1.219,3.602,2.356,5.465,3.653l-0.384,0.147c0.026-0.11,0.055-0.229,0.083-0.349c2.002-8.274,3.78-15.767,4.589-21.28
						c0.426-2.751,0.681-4.991,0.833-6.542c0.071-0.734,0.129-1.326,0.174-1.786c0.043-0.408,0.074-0.622,0.091-0.622
						c0.017,0.001,0.02,0.217,0.009,0.628c-0.015,0.411-0.026,1.017-0.08,1.796c-0.093,1.558-0.295,3.811-0.678,6.578
						c-0.722,5.545-2.452,13.076-4.452,21.344c-0.029,0.12-0.057,0.239-0.083,0.349l-0.085,0.356l-0.3-0.209
						c-1.848-1.288-3.734-2.427-5.464-3.668c-1.735-1.233-3.265-2.618-4.525-4.073l0.356-0.021
						c-3.02,4.328-5.641,7.936-7.541,10.439c-0.952,1.25-1.722,2.223-2.266,2.875c-0.269,0.328-0.488,0.57-0.634,0.735
						C196.615,317.73,196.534,317.811,196.525,317.803z"/>
				</g>
			</g>
			<g>
				<g>
					<path style="fill:#263238;" d="M193.586,391.369c-0.017-0.001-0.026-0.254-0.026-0.736c0.006-0.529,0.014-1.23,0.023-2.108
						c0.039-1.883,0.093-4.517,0.159-7.749c0.123-6.589,0.292-15.604,0.477-25.563c0.101-9.964,0.192-18.981,0.258-25.571
						c0.027-3.232,0.048-5.866,0.064-7.75c0.016-0.877,0.028-1.578,0.037-2.107c0.014-0.482,0.03-0.735,0.047-0.735
						c0.017,0,0.035,0.253,0.053,0.734c0.014,0.529,0.033,1.23,0.056,2.107c0.023,1.884,0.055,4.518,0.094,7.751
						c0.046,6.545,0.031,15.589-0.112,25.578c-0.145,9.986-0.39,19.025-0.624,25.566c-0.132,3.23-0.24,5.863-0.317,7.745
						c-0.049,0.876-0.087,1.576-0.117,2.105C193.628,391.117,193.603,391.369,193.586,391.369z"/>
				</g>
			</g>
			<g>
				<g>
					<path style="fill:#263238;" d="M135.521,433.931c-0.015,0-0.034-0.246-0.055-0.718c-0.017-0.513-0.041-1.202-0.07-2.072
						c-0.042-1.849-0.102-4.46-0.176-7.698c-0.108-6.585-0.259-15.711-0.43-26.079l0.214,0.24c-2.401-0.4-4.905-0.818-7.46-1.244
						c-12.002-2.037-22.865-3.881-30.778-5.224c-3.901-0.686-7.073-1.244-9.317-1.639c-1.066-0.198-1.91-0.355-2.529-0.471
						c-0.263-0.054-0.479-0.098-0.655-0.135c-0.147-0.033-0.222-0.054-0.221-0.063c0.001-0.008,0.079-0.004,0.229,0.012
						c0.179,0.023,0.397,0.051,0.664,0.086c0.623,0.093,1.472,0.219,2.544,0.378c2.25,0.357,5.429,0.862,9.341,1.482
						c7.917,1.306,18.784,3.098,30.79,5.078c2.554,0.429,5.056,0.849,7.456,1.251l0.212,0.035l0.002,0.205
						c0.104,10.369,0.195,19.496,0.261,26.081c0.012,3.239,0.021,5.851,0.028,7.7c-0.006,0.87-0.011,1.56-0.015,2.073
						C135.548,433.683,135.536,433.93,135.521,433.931z"/>
				</g>
			</g>
			<g>
				<g>
					<path style="fill:#263238;" d="M85.769,389.261c0.01,0.098-1.674,0.212-4.303,0.837c-1.316,0.303-2.853,0.784-4.515,1.427
						c-1.651,0.672-3.421,1.522-5.181,2.587c-1.75,1.085-3.311,2.276-4.659,3.442c-1.328,1.189-2.455,2.34-3.322,3.375
						c-1.75,2.059-2.616,3.507-2.699,3.454c-0.029-0.018,0.172-0.387,0.564-1.041c0.192-0.33,0.438-0.727,0.76-1.163
						c0.318-0.439,0.658-0.957,1.103-1.475c0.842-1.076,1.957-2.268,3.288-3.493c1.35-1.202,2.928-2.423,4.705-3.524
						c1.787-1.082,3.591-1.933,5.275-2.59c1.696-0.629,3.264-1.081,4.605-1.343c0.664-0.161,1.28-0.229,1.815-0.313
						c0.535-0.089,1-0.129,1.381-0.149C85.346,389.239,85.767,389.227,85.769,389.261z"/>
				</g>
			</g>
			<g>
				<g>
					<path style="fill:#263238;" d="M111.741,347.145c0.015,0.009-0.062,0.165-0.221,0.454c-0.192,0.335-0.429,0.749-0.717,1.251
						c-0.679,1.139-1.597,2.679-2.715,4.554c-2.312,3.835-5.535,9.114-9.12,14.929c-3.587,5.817-6.858,11.067-9.246,14.854
						c-1.174,1.841-2.137,3.353-2.85,4.471c-0.32,0.483-0.583,0.88-0.796,1.202c-0.187,0.272-0.292,0.41-0.306,0.401
						c-0.014-0.009,0.062-0.165,0.221-0.455c0.192-0.336,0.429-0.749,0.717-1.252c0.679-1.139,1.598-2.679,2.716-4.555
						c2.312-3.834,5.534-9.113,9.121-14.929c3.585-5.814,6.855-11.063,9.243-14.85c1.174-1.841,2.138-3.354,2.851-4.472
						c0.32-0.483,0.583-0.88,0.797-1.203C111.621,347.275,111.726,347.136,111.741,347.145z"/>
				</g>
			</g>
			<g style="opacity:0.3;">
				<g>
					<path d="M95.582,385.591c10.653-9.07,17.128-24.781,15.959-38.724l-16.473,27.645L95.582,385.591z"/>
				</g>
			</g>
			<g style="opacity:0.3;">
				<polygon points="153.462,280.439 173.487,325.749 180.689,312.239 191.675,316.188 178.29,302.718 174.568,318.715 				"/>
			</g>
			<g style="opacity:0.3;">
				<g>
					<path d="M279.952,383.446c8.547-4.512,16.588-7.998,26.214-7.128c0.862,0.078,3.128,0.335,3.873,0.775
						c0.745,0.439,1.643,1.926,1.549,2.787c-10.915-0.299-20.859,0.76-30.79,3.43"/>
				</g>
			</g>
			<g style="opacity:0.3;">
				<g>
					<path d="M253.376,323.394c-0.045,0.736-2.51,38.071-2.556,38.807C257.138,349.884,259.187,335.958,253.376,323.394z"/>
				</g>
			</g>
		</g>
		<g>
			<g>
				<g>
					<g>
						<g>
							<g>
								<g>
									<path style="fill:#263238;" d="M197.839,140.308c2.582-3.558,7.585-5.14,11.743-3.712
										c5.618-3.223,13.436-1.897,17.677,2.999c4.125-1.676,9.109-1.024,12.664,1.654c3.556,2.679,5.557,7.29,5.084,11.717
										c4.509-0.039,8.876,3.054,10.333,7.321c1.458,4.267-0.102,9.386-3.693,12.113c4.56,2.277,6.886,8.226,5.079,12.991
										c-1.806,4.766-7.492,7.678-12.415,6.361l-46.36-39.128C195.305,149.113,195.257,143.867,197.839,140.308z"/>
								</g>
							</g>
						</g>
					</g>
				</g>
			</g>
			<g>
				<g>
					<path style="fill:#AE7461;" d="M208.116,146.757l-2.26-0.34c-24.579-2.235-40.209,17.391-41.764,42.023l-7.688,72.558
						l39.53,52.705l12.732-18.74l3.952-21.863c0,0,23.971-0.125,27.777-23.501c1.838-11.29,3.73-34.846,5.196-56.185
						C247.166,170.474,230.858,150.171,208.116,146.757z"/>
					<g>
						<g>
							<g>
								<g>
									<g>
										<g>
											<g>
												<g>
													<g>
														<g>
															<path style="fill:#6F4439;" d="M212.583,273.132c0,0-14.857-1.379-29.105-13.623c0,0,4.637,17.976,28.088,19.408
																L212.583,273.132z"/>
														</g>
													</g>
												</g>
											</g>
										</g>
									</g>
								</g>
							</g>
						</g>
					</g>
					<g>
						<g>
							<g>
								<g>
									<g>
										<g>
											<g>
												<g>
													<g>
														<g>
															<g>
																<g>
																	<g>
																		<path style="fill:#263238;" d="M234.01,217.038c-0.202,1.775-1.873,3.068-3.731,2.89
																			c-1.854-0.178-3.198-1.757-2.994-3.533c0.203-1.775,1.873-3.07,3.728-2.893
																			C232.87,213.68,234.212,215.262,234.01,217.038z"/>
																	</g>
																</g>
															</g>
														</g>
													</g>
												</g>
											</g>
										</g>
									</g>
								</g>
							</g>
						</g>
					</g>
					<g>
						<g>
							<g>
								<g>
									<g>
										<g>
											<g>
												<g>
													<g>
														<g>
															<g>
																<g>
																	<g>
																		<g>
																			<path style="fill:#263238;" d="M238.918,205.348c-0.48,0.374-2.731-1.882-6.332-2.413
																				c-3.589-0.582-6.508,0.873-6.832,0.374c-0.163-0.224,0.378-0.948,1.653-1.613
																				c1.257-0.664,3.31-1.185,5.551-0.839c2.24,0.349,4.001,1.457,4.959,2.465
																				C238.897,204.339,239.153,205.184,238.918,205.348z"/>
																		</g>
																	</g>
																</g>
															</g>
														</g>
													</g>
												</g>
											</g>
										</g>
									</g>
								</g>
							</g>
						</g>
					</g>
					<g>
						<g>
							<g>
								<g>
									<g>
										<g>
											<g>
												<g>
													<g>
														<g>
															<g>
																<g>
																	<g>
																		<path style="fill:#263238;" d="M203.524,213.019c-0.203,1.775-1.873,3.067-3.731,2.889
																			c-1.855-0.177-3.198-1.757-2.995-3.533c0.203-1.775,1.874-3.069,3.729-2.892
																			C202.384,209.66,203.727,211.243,203.524,213.019z"/>
																	</g>
																</g>
															</g>
														</g>
													</g>
												</g>
											</g>
										</g>
									</g>
								</g>
							</g>
						</g>
					</g>
					<g>
						<g>
							<g>
								<g>
									<g>
										<g>
											<g>
												<g>
													<g>
														<g>
															<g>
																<g>
																	<g>
																		<g>
																			<path style="fill:#263238;" d="M204.564,199.678c-0.481,0.374-2.736-1.882-6.334-2.412
																				c-3.588-0.581-6.508,0.873-6.832,0.374c-0.162-0.224,0.374-0.949,1.655-1.612
																				c1.257-0.664,3.309-1.185,5.55-0.839c2.24,0.349,4.002,1.458,4.96,2.465
																				C204.537,198.668,204.796,199.513,204.564,199.678z"/>
																		</g>
																	</g>
																</g>
															</g>
														</g>
													</g>
												</g>
											</g>
										</g>
									</g>
								</g>
							</g>
						</g>
					</g>
					<g>
						<g>
							<g>
								<g>
									<g>
										<g>
											<g>
												<g>
													<g>
														<g>
															<g>
																<g>
																	<g>
																		<path style="fill:#263238;" d="M212.412,228.131c0.014-0.208,2.309-0.259,6.003-0.178
																			c0.933,0.044,1.83-0.008,2.08-0.613c0.316-0.631,0.08-1.68-0.204-2.816c-0.53-2.353-1.084-4.82-1.667-7.406
																			c-2.279-10.531-3.78-19.133-3.356-19.221c0.425-0.087,2.617,8.376,4.894,18.906
																			c0.54,2.593,1.057,5.066,1.547,7.431c0.191,1.097,0.612,2.371-0.065,3.678c-0.351,0.649-1.1,1.047-1.713,1.117
																			c-0.616,0.091-1.135,0.024-1.593-0.018C214.661,228.66,212.396,228.336,212.412,228.131z"/>
																	</g>
																</g>
															</g>
														</g>
													</g>
												</g>
											</g>
										</g>
									</g>
								</g>
							</g>
						</g>
					</g>
					<g>
						<g>
							<g>
								<g>
									<g>
										<g>
											<g>
												<g>
													<g>
														<path style="fill:#263238;" d="M206.153,189.405c-0.568,0.87-3.542-0.434-7.318-0.938
															c-3.763-0.589-7.029-0.191-7.277-1.179c-0.102-0.469,0.656-1.226,2.097-1.824c1.43-0.598,3.548-0.96,5.808-0.634
															c2.259,0.331,4.152,1.272,5.311,2.247C205.943,188.053,206.409,188.988,206.153,189.405z"/>
													</g>
												</g>
											</g>
										</g>
									</g>
								</g>
							</g>
						</g>
					</g>
					<g>
						<g>
							<g>
								<g>
									<g>
										<g>
											<g>
												<g>
													<g>
														<path style="fill:#263238;" d="M239.584,195.356c-0.694,0.782-3.137-0.242-6.143-0.484
															c-2.997-0.347-5.592,0.182-6.12-0.72c-0.229-0.436,0.227-1.235,1.393-1.942c1.148-0.704,3.026-1.217,5.089-1.016
															c2.062,0.204,3.803,1.072,4.793,1.986C239.601,194.1,239.894,194.973,239.584,195.356z"/>
													</g>
												</g>
											</g>
										</g>
									</g>
								</g>
							</g>
						</g>
					</g>
					<g>
						<g>
							<g>
								<g>
									<g>
										<g>
											<g>
												<g>
													<path style="fill:#263238;" d="M244.95,182.338c0,0-3.975-15.594-10.533-20.078c-7.94-5.429-13.037,3.415-20.853-0.09
														c-7.817-3.506-15.393-8.708-24.678-3.654c-10.163,5.533-6.614,11.018-8.738,21.326
														c-8.612,41.786-18.094,52.545-17.303,32.372c0.087-2.21-5.687-4.845-5.202-14.164
														c0.629-12.085,2.343-26.616,6.27-34.67c3.311-6.788,8.112-11.101,16.21-15.434c12.785-6.84,28.607-4.653,39.172-1.963
														C229.858,148.673,248.685,164.121,244.95,182.338z"/>
												</g>
											</g>
										</g>
									</g>
								</g>
							</g>
						</g>
					</g>
					<g>
						<g>
							<g>
								<g>
									<g>
										<g>
											<g>
												<g>
													<path style="fill:#AE7461;" d="M164.433,211.8c0.395-3.637-2.291-6.958-5.944-7.157
														c-4.43-0.24-9.663,1.51-10.73,10.579c-1.893,16.088,14.65,14.669,14.732,14.211
														C162.547,229.123,163.701,218.54,164.433,211.8z"/>
												</g>
											</g>
										</g>
									</g>
								</g>
							</g>
						</g>
					</g>
					<g>
						<g>
							<g>
								<g>
									<g>
										<g>
											<g>
												<g>
													<path style="fill:#6F4439;" d="M159.703,222.969c-0.064-0.06-0.303,0.164-0.803,0.325
														c-0.486,0.157-1.297,0.209-2.1-0.204c-1.626-0.824-2.74-3.69-2.477-6.599c0.131-1.468,0.603-2.827,1.257-3.92
														c0.629-1.12,1.487-1.852,2.36-1.903c0.875-0.097,1.42,0.486,1.564,0.962c0.163,0.475,0.023,0.784,0.105,0.822
														c0.04,0.046,0.377-0.229,0.326-0.909c-0.029-0.327-0.173-0.729-0.515-1.082c-0.349-0.36-0.898-0.587-1.501-0.592
														c-1.251-0.061-2.502,0.95-3.221,2.15c-0.788,1.198-1.352,2.72-1.499,4.37c-0.278,3.254,1.024,6.483,3.271,7.429
														c1.097,0.428,2.081,0.198,2.613-0.124C159.628,223.355,159.755,223.005,159.703,222.969z"/>
												</g>
											</g>
										</g>
									</g>
								</g>
							</g>
						</g>
					</g>
				</g>
				<g>
					<g>
						<g>
							<g>
								<g>
									<g>
										<g>
											<path style="fill:#263238;" d="M169.404,180.826c1.866,1.732,3.843,3.525,6.312,4.149
												c2.468,0.625,5.55-0.385,6.345-2.803c0.357-1.086,0.279-2.42,1.141-3.171c1.028-0.896,2.593-0.332,3.914,0.011
												c4.581,1.193,9.842-1.384,11.708-5.735c0.92,1.956,3.703,2.295,5.673,1.406c1.971-0.888,3.412-2.611,5.06-4.01
												c1.648-1.399,3.838-2.543,5.909-1.924c1.159,0.346,2.161,1.217,3.367,1.29c2.131,0.129,3.527-2.179,4.158-4.218
												c0.632-2.039,1.245-4.437,3.196-5.304c1.808-0.803,3.856,0.126,5.749,0.701c1.892,0.576,4.46,0.497,5.24-1.321
												c0.409-0.954,0.14-2.063-0.281-3.012c-1.903-4.299-7.079-6.859-11.651-5.764c-0.773-5.526-5.102-10.386-10.503-11.789
												c-5.401-1.404-11.548,0.735-14.912,5.188c-2.923-3.579-7.647-5.606-12.255-5.258c-4.607,0.347-8.974,3.058-11.328,7.035
												c-3.741-1.609-8.406-0.77-11.352,2.043c-2.945,2.813-3.999,7.435-2.563,11.246c-3.125,1.212-6.019,3.702-6.576,7.007
												c-0.557,3.305,2.176,7.092,5.504,6.7c-1.68,2.386-1.154,6.047,1.13,7.863c2.283,1.817,5.968,1.507,7.916-0.666"/>
										</g>
									</g>
								</g>
							</g>
						</g>
					</g>
				</g>
			</g>
			<g>
				<path style="fill:#6F4439;" d="M202.645,232.524c-0.307-0.214-0.662-0.439-1.028-0.361c-0.328,0.069-0.557,0.362-0.738,0.645
					c-1.474,2.312-1.639,5.401-0.419,7.856c0.012,0.025,0.024,0.049,0.037,0.074c1.822,3.567,6.935,3.677,9.216,0.384l1.708-2.467
					C209.412,237.253,204.656,233.925,202.645,232.524z"/>
			</g>
			<g>
				<g>
					<path style="fill:#263238;" d="M208.616,242.292c0.124,0.064-1.337,1.461-4.296,1.313c-0.704-0.034-1.594-0.306-2.276-0.785
						c-0.708-0.439-1.474-1.08-1.944-1.986c-0.895-1.792-0.994-3.971-0.593-6.101c0.109-0.543,0.206-1.029,0.402-1.587
						c0.21-0.517,0.495-1.139,1.223-1.443c0.763-0.291,1.453,0.131,1.826,0.406c0.38,0.282,0.756,0.56,1.126,0.835
						c1.355,1.031,2.635,2.003,3.836,2.916c2.165,1.686,3.461,2.787,3.375,2.906c-0.086,0.119-1.538-0.767-3.816-2.297
						c-1.243-0.855-2.567-1.766-3.969-2.731c-0.718-0.463-1.63-1.305-2.002-1.062c-0.497,0.181-0.781,1.291-0.955,2.254
						c-0.381,1.96-0.277,3.963,0.419,5.455c0.351,0.727,0.928,1.262,1.561,1.701c0.63,0.475,1.213,0.672,1.873,0.772
						C207.034,243.182,208.565,242.137,208.616,242.292z"/>
				</g>
			</g>
			<g>
				<g>
					<g>
						<g>
							<g>
								<g>
									<g>
										<path style="fill:#455A64;" d="M160.09,173.083c-0.049-0.051-0.497,1.301,0.535,3.227
											c0.517,0.918,1.483,1.937,2.922,2.395c1.405,0.459,3.227,0.37,4.764-0.641l-0.662-0.203
											c0.585,1.497,1.419,3.059,2.597,4.473c0.759,0.902,1.632,1.705,2.645,2.251c0.988,0.577,2.178,0.796,3.178,0.785
											c2.063,0.081,3.997-0.743,5.018-1.957c1.05-1.179,1.502-2.353,1.796-3.137c0.286-0.795,0.371-1.255,0.318-1.275
											c-0.067-0.026-0.269,0.394-0.65,1.13c-0.385,0.725-0.929,1.817-1.936,2.823c-1.862,2.068-6.983,2.499-9.655-1.219
											c-1.094-1.312-1.906-2.791-2.486-4.2l-0.211-0.514l-0.451,0.311c-1.253,0.862-2.821,0.999-4.046,0.651
											c-1.246-0.34-2.135-1.168-2.668-1.962C160.031,174.368,160.237,173.062,160.09,173.083z"/>
									</g>
								</g>
							</g>
						</g>
					</g>
				</g>
			</g>
			<g>
				<g>
					<g>
						<g>
							<g>
								<g>
									<g>
										<path style="fill:#455A64;" d="M195.835,141.057c-0.017,0.054,0.401,0.175,1.07,0.585c0.652,0.41,1.593,1.168,2.17,2.488
											l0.146,0.334l0.266-0.264c1.798-1.782,4.695-3.987,8.683-5.106c1.981-0.544,4.22-0.786,6.512-0.437
											c2.282,0.331,4.571,1.348,6.489,2.955c1.492,1.248,2.673,2.788,3.463,4.433c0.764,1.658,1.119,3.422,1.036,5.092
											l-0.025,0.514l0.505-0.061c2.506-0.3,4.886,0.536,6.533,1.809c1.674,1.278,2.604,2.982,3.055,4.447
											c0.868,3.011,0.119,4.891,0.286,4.893c0.035,0.011,0.235-0.419,0.39-1.28c0.145-0.855,0.233-2.169-0.174-3.754
											c-0.399-1.564-1.331-3.437-3.111-4.872c-1.747-1.422-4.304-2.389-7.08-2.096l0.48,0.453
											c0.116-1.815-0.252-3.74-1.066-5.531c-0.838-1.778-2.099-3.429-3.692-4.762c-2.043-1.716-4.512-2.8-6.956-3.133
											c-2.443-0.351-4.805-0.061-6.866,0.545c-4.152,1.246-7.072,3.623-8.824,5.54l0.411,0.07
											c-0.708-1.423-1.774-2.155-2.499-2.512C196.289,141.054,195.842,141.022,195.835,141.057z"/>
									</g>
								</g>
							</g>
						</g>
					</g>
				</g>
			</g>
		</g>
	</g>
</g>
</svg>
