<?xml version="1.0" encoding="utf-8"?>
<!-- Generator: Adobe Illustrator 27.5.0, SVG Export Plug-In . SVG Version: 6.00 Build 0)  -->
<svg version="1.1" xmlns="http://www.w3.org/2000/svg" xmlns:xlink="http://www.w3.org/1999/xlink" x="0px" y="0px"
	 viewBox="0 0 500 500" style="enable-background:new 0 0 500 500;" xml:space="preserve">
<g id="Background_Complete">
	<g>
		<g>
			<path style="fill:#F5F5F5;" d="M30.708,160.762c1.394-0.842,2.878-1.481,4.408-1.916l0.908-4.363l7.372-0.129l1.061,4.328
				c1.545,0.381,3.05,0.967,4.473,1.76L52.656,158l5.304,5.121l-2.309,3.809c0.843,1.394,1.481,2.879,1.916,4.409l4.363,0.908
				l0.13,7.372l-4.328,1.061c-0.381,1.544-0.967,3.05-1.76,4.472l2.442,3.726l-5.121,5.304l-3.809-2.31
				c-1.394,0.842-2.878,1.481-4.409,1.915l-0.908,4.363l-7.372,0.129l-1.061-4.328c-1.545-0.381-3.05-0.967-4.473-1.76l-3.726,2.442
				l-5.304-5.121l2.309-3.809c-0.842-1.394-1.481-2.878-1.916-4.409l-4.363-0.908l-0.129-7.372l4.328-1.061
				c0.381-1.545,0.967-3.05,1.76-4.473l-2.442-3.726l5.121-5.304L30.708,160.762L30.708,160.762z M34.638,170.583
				c-3.034,3.143-2.946,8.15,0.197,11.184c3.142,3.034,8.15,2.946,11.184-0.197c3.034-3.143,2.946-8.15-0.197-11.184
				C42.679,167.352,37.672,167.44,34.638,170.583z"/>
		</g>
	</g>
	<g>
		<g>
			<path style="fill:#F5F5F5;" d="M286.142,37.196c1.186-0.717,2.449-1.261,3.752-1.631l0.773-3.714l6.275-0.11l0.903,3.684
				c1.315,0.324,2.596,0.823,3.807,1.498l3.171-2.079l4.515,4.359l-1.966,3.242c0.717,1.187,1.261,2.45,1.631,3.753l3.713,0.773
				l0.11,6.275l-3.684,0.903c-0.324,1.315-0.823,2.596-1.498,3.807l2.078,3.172l-4.359,4.515l-3.242-1.966
				c-1.187,0.717-2.45,1.261-3.753,1.63l-0.773,3.714l-6.275,0.11l-0.903-3.684c-1.315-0.324-2.596-0.823-3.807-1.498l-3.171,2.079
				l-4.515-4.359l1.966-3.242c-0.717-1.187-1.261-2.45-1.631-3.753l-3.714-0.773l-0.11-6.275l3.684-0.903
				c0.324-1.315,0.823-2.596,1.498-3.807l-2.078-3.171l4.359-4.515L286.142,37.196L286.142,37.196z M289.487,45.555
				c-2.583,2.675-2.508,6.937,0.167,9.52c2.675,2.583,6.937,2.507,9.519-0.168c2.582-2.675,2.508-6.937-0.167-9.519
				C296.331,42.805,292.069,42.88,289.487,45.555z"/>
		</g>
	</g>
	<g>
		<g>
			<path style="fill:#F5F5F5;" d="M73.992,41.461c1.927-1.164,3.979-2.047,6.094-2.649l1.255-6.033l10.192-0.179l1.467,5.984
				c2.136,0.526,4.217,1.337,6.184,2.433l5.151-3.377l7.333,7.081l-3.193,5.265c1.165,1.928,2.048,3.98,2.649,6.096l6.032,1.255
				l0.179,10.192l-5.984,1.467c-0.526,2.135-1.337,4.216-2.433,6.183l3.376,5.152l-7.08,7.334l-5.266-3.193
				c-1.927,1.165-3.979,2.047-6.095,2.648l-1.256,6.033l-10.192,0.179L80.94,87.35c-2.136-0.527-4.217-1.337-6.184-2.433
				l-5.151,3.377l-7.334-7.081l3.193-5.266c-1.165-1.927-2.048-3.979-2.649-6.095l-6.032-1.255l-0.179-10.192l5.984-1.467
				c0.526-2.135,1.337-4.217,2.433-6.183l-3.376-5.151l7.08-7.333L73.992,41.461L73.992,41.461z M79.425,55.039
				c-4.195,4.345-4.073,11.268,0.272,15.463c4.345,4.195,11.268,4.073,15.462-0.272c4.194-4.345,4.073-11.268-0.272-15.462
				C90.543,50.572,83.62,50.694,79.425,55.039z"/>
		</g>
	</g>
	<g>
		<g>
			<path style="fill:#F5F5F5;" d="M238.383,215.982c1.394-0.842,2.878-1.481,4.408-1.916l0.908-4.363l7.372-0.129l1.061,4.328
				c1.545,0.381,3.05,0.967,4.473,1.76l3.726-2.442l5.304,5.121l-2.309,3.809c0.843,1.394,1.481,2.879,1.916,4.409l4.363,0.908
				l0.13,7.372l-4.328,1.061c-0.381,1.544-0.967,3.05-1.76,4.472l2.442,3.726l-5.121,5.304l-3.809-2.31
				c-1.394,0.842-2.878,1.481-4.409,1.915l-0.908,4.363l-7.372,0.129l-1.061-4.328c-1.545-0.381-3.05-0.967-4.473-1.76l-3.726,2.442
				l-5.304-5.121l2.309-3.809c-0.842-1.394-1.481-2.878-1.916-4.409l-4.363-0.908l-0.129-7.372l4.328-1.061
				c0.381-1.544,0.967-3.05,1.76-4.473l-2.442-3.726l5.121-5.304L238.383,215.982L238.383,215.982z M242.313,225.803
				c-3.034,3.143-2.946,8.15,0.197,11.184c3.142,3.034,8.15,2.946,11.184-0.197c3.034-3.143,2.946-8.15-0.197-11.184
				C250.354,222.572,245.347,222.66,242.313,225.803z"/>
		</g>
	</g>
	<g>
		<g>
			<path style="fill:#F5F5F5;" d="M259.148,347.918c1.394-0.842,2.878-1.481,4.408-1.916l0.908-4.363l7.372-0.129l1.061,4.328
				c1.545,0.381,3.05,0.967,4.473,1.76l3.726-2.442l5.304,5.122l-2.309,3.809c0.843,1.394,1.481,2.879,1.916,4.409l4.363,0.908
				l0.13,7.372l-4.328,1.061c-0.381,1.544-0.967,3.05-1.76,4.472l2.442,3.726l-5.121,5.304l-3.809-2.31
				c-1.394,0.842-2.878,1.481-4.409,1.915l-0.908,4.363l-7.372,0.129l-1.061-4.328c-1.545-0.381-3.05-0.967-4.473-1.76l-3.726,2.442
				l-5.304-5.121l2.309-3.809c-0.842-1.394-1.481-2.878-1.916-4.409l-4.363-0.908l-0.129-7.372l4.328-1.061
				c0.381-1.545,0.967-3.05,1.76-4.473l-2.442-3.726l5.121-5.304L259.148,347.918L259.148,347.918z M263.078,357.738
				c-3.034,3.143-2.946,8.15,0.197,11.184c3.142,3.034,8.15,2.946,11.184-0.197c3.034-3.143,2.946-8.15-0.197-11.184
				C271.119,354.508,266.112,354.596,263.078,357.738z"/>
		</g>
	</g>
	<g>
		<g>
			<path style="fill:#F5F5F5;" d="M82.16,265.357c0.94-0.568,1.94-0.998,2.972-1.292l0.612-2.942l4.971-0.087l0.715,2.918
				c1.042,0.257,2.057,0.652,3.016,1.187l2.512-1.647l3.577,3.453l-1.557,2.568c0.568,0.94,0.999,1.941,1.292,2.973l2.942,0.612
				l0.087,4.971l-2.918,0.716c-0.257,1.041-0.652,2.056-1.187,3.016l1.646,2.512l-3.453,3.577l-2.568-1.557
				c-0.94,0.568-1.941,0.999-2.973,1.292l-0.612,2.942l-4.971,0.087l-0.715-2.919c-1.042-0.257-2.056-0.652-3.016-1.187
				l-2.512,1.647l-3.577-3.453l1.557-2.568c-0.568-0.94-0.999-1.94-1.292-2.973l-2.942-0.612l-0.087-4.971l2.919-0.716
				c0.257-1.041,0.652-2.056,1.187-3.016l-1.647-2.512l3.453-3.577L82.16,265.357L82.16,265.357z M84.81,271.979
				c-2.046,2.119-1.987,5.495,0.133,7.541c2.119,2.046,5.495,1.986,7.541-0.133c2.046-2.119,1.986-5.495-0.133-7.541
				C90.232,269.801,86.856,269.86,84.81,271.979z"/>
		</g>
	</g>
	<g>
		<g>
			<path style="fill:#F5F5F5;" d="M89.541,303.661c1.713-1.035,3.537-1.82,5.418-2.355l1.116-5.363l9.061-0.159l1.304,5.32
				c1.899,0.468,3.749,1.188,5.498,2.163l4.579-3.002l6.52,6.295l-2.838,4.681c1.036,1.714,1.821,3.538,2.355,5.419l5.362,1.116
				l0.159,9.061l-5.32,1.304c-0.468,1.898-1.188,3.748-2.163,5.497l3.001,4.58l-6.294,6.52l-4.682-2.839
				c-1.714,1.036-3.538,1.82-5.419,2.355l-1.116,5.363l-9.061,0.159l-1.304-5.32c-1.899-0.468-3.749-1.189-5.498-2.163l-4.579,3.002
				l-6.52-6.295l2.839-4.682c-1.035-1.714-1.821-3.537-2.355-5.419l-5.363-1.116l-0.159-9.061l5.32-1.305
				c0.468-1.898,1.189-3.749,2.163-5.497l-3.002-4.58l6.294-6.52L89.541,303.661L89.541,303.661z M94.371,315.732
				c-3.73,3.863-3.621,10.017,0.242,13.747c3.862,3.729,10.017,3.621,13.746-0.242c3.729-3.863,3.621-10.017-0.242-13.747
				C104.255,311.761,98.101,311.87,94.371,315.732z"/>
		</g>
	</g>
	<g>
		<g>
			<g>
				<g>
					<rect x="341.151" y="46.083" style="fill:#E0E0E0;" width="137.537" height="231.746"/>
				</g>
			</g>
		</g>
		<g>
			<g>
				<g>
					<rect x="344.857" y="50.436" style="fill:#F5F5F5;" width="129.657" height="223.583"/>
				</g>
			</g>
		</g>
		<g>
			<g>
				<g>
					<g>
						<rect x="409.685" y="62.381" style="fill:#FFFFFF;" width="51.7" height="80.225"/>
					</g>
				</g>
			</g>
			<g>
				<g>
					<g>
						<path style="fill:#E0E0E0;" d="M438.285,69.474c0,1.066-0.864,1.93-1.93,1.93c-1.066,0-1.93-0.864-1.93-1.93
							c0-1.066,0.864-1.93,1.93-1.93C437.421,67.545,438.285,68.409,438.285,69.474z"/>
					</g>
				</g>
			</g>
		</g>
		<g>
			<g>
				<g>
					<g>
						<rect x="357.582" y="164.934" style="fill:#FFFFFF;" width="51.7" height="80.225"/>
					</g>
				</g>
			</g>
			<g>
				<g>
					<g>
						<path style="fill:#E0E0E0;" d="M386.182,172.026c0,1.066-0.864,1.93-1.93,1.93c-1.066,0-1.93-0.864-1.93-1.93
							c0-1.066,0.864-1.93,1.93-1.93C385.318,170.097,386.182,170.961,386.182,172.026z"/>
					</g>
				</g>
			</g>
		</g>
		<g>
			<g>
				<g>
					<g>
						<rect x="356.882" y="62.381" style="fill:#FFFFFF;" width="44.155" height="62.647"/>
					</g>
				</g>
			</g>
			<g>
				<g>
					<g>
						<path style="fill:#E0E0E0;" d="M380.562,68.071c0,0.885-0.718,1.603-1.603,1.603c-0.885,0-1.603-0.717-1.603-1.603
							c0-0.885,0.718-1.603,1.603-1.603C379.845,66.468,380.562,67.186,380.562,68.071z"/>
					</g>
				</g>
			</g>
		</g>
		<g>
			<g>
				<g>
					<g>
						
							<rect x="417.19" y="168.618" transform="matrix(0.9937 -0.1121 0.1121 0.9937 -17.5981 50.5751)" style="fill:#FFFFFF;" width="47.52" height="26.329"/>
					</g>
				</g>
			</g>
			<g>
				<g>
					<g>
						<circle style="fill:#E0E0E0;" cx="440.034" cy="173.661" r="1.635"/>
					</g>
				</g>
			</g>
		</g>
		<g>
			<g>
				<g>
					<g>
						<path style="fill:#E0E0E0;" d="M402.384,183.232c0,0.213-8.118,0.385-18.131,0.385c-10.016,0-18.133-0.172-18.133-0.385
							c0-0.213,8.117-0.385,18.133-0.385C394.266,182.847,402.384,183.02,402.384,183.232z"/>
					</g>
				</g>
			</g>
		</g>
		<g>
			<g>
				<g>
					<g>
						<path style="fill:#E0E0E0;" d="M402.384,188.972c0,0.213-8.118,0.385-18.131,0.385c-10.016,0-18.133-0.172-18.133-0.385
							c0-0.212,8.117-0.385,18.133-0.385C394.266,188.587,402.384,188.76,402.384,188.972z"/>
					</g>
				</g>
			</g>
		</g>
		<g>
			<g>
				<g>
					<g>
						<path style="fill:#E0E0E0;" d="M402.384,194.712c0,0.213-8.118,0.385-18.131,0.385c-10.016,0-18.133-0.172-18.133-0.385
							c0-0.213,8.117-0.385,18.133-0.385C394.266,194.327,402.384,194.499,402.384,194.712z"/>
					</g>
				</g>
			</g>
		</g>
		<g>
			<g>
				<g>
					<g>
						<path style="fill:#E0E0E0;" d="M402.384,200.452c0,0.213-8.118,0.385-18.131,0.385c-10.016,0-18.133-0.172-18.133-0.385
							c0-0.213,8.117-0.385,18.133-0.385C394.266,200.067,402.384,200.239,402.384,200.452z"/>
					</g>
				</g>
			</g>
		</g>
		<g>
			<g>
				<g>
					<g>
						<path style="fill:#E0E0E0;" d="M402.384,206.192c0,0.213-8.118,0.385-18.131,0.385c-10.016,0-18.133-0.173-18.133-0.385
							c0-0.213,8.117-0.385,18.133-0.385C394.266,205.807,402.384,205.979,402.384,206.192z"/>
					</g>
				</g>
			</g>
		</g>
		<g>
			<g>
				<g>
					<g>
						<path style="fill:#E0E0E0;" d="M402.384,211.932c0,0.213-8.118,0.385-18.131,0.385c-10.016,0-18.133-0.173-18.133-0.385
							s8.117-0.385,18.133-0.385C394.266,211.546,402.384,211.719,402.384,211.932z"/>
					</g>
				</g>
			</g>
		</g>
		<g>
			<g>
				<g>
					<g>
						<path style="fill:#E0E0E0;" d="M402.384,217.671c0,0.213-8.118,0.385-18.131,0.385c-10.016,0-18.133-0.173-18.133-0.385
							s8.117-0.385,18.133-0.385C394.266,217.286,402.384,217.459,402.384,217.671z"/>
					</g>
				</g>
			</g>
		</g>
		<g>
			<g>
				<g>
					<g>
						<path style="fill:#E0E0E0;" d="M458.66,177.084c0.03,0.211-7.985,1.516-17.899,2.915c-9.917,1.4-17.978,2.363-18.008,2.152
							c-0.03-0.21,7.983-1.515,17.901-2.915C450.567,177.837,458.63,176.873,458.66,177.084z"/>
					</g>
				</g>
			</g>
		</g>
		<g>
			<g>
				<g>
					<g>
						<path style="fill:#E0E0E0;" d="M459.38,180.674c0.03,0.211-7.985,1.516-17.899,2.915c-9.918,1.4-17.979,2.363-18.008,2.152
							c-0.03-0.211,7.983-1.515,17.901-2.915C451.288,181.427,459.351,180.463,459.38,180.674z"/>
					</g>
				</g>
			</g>
		</g>
		<g>
			<g>
				<g>
					<g>
						<path style="fill:#E0E0E0;" d="M460.039,183.989c0.03,0.211-7.985,1.516-17.899,2.915c-9.917,1.399-17.979,2.363-18.008,2.152
							c-0.03-0.211,7.983-1.516,17.901-2.915C451.946,184.742,460.009,183.778,460.039,183.989z"/>
					</g>
				</g>
			</g>
		</g>
		<g>
			<g>
				<g>
					<g>
						<path style="fill:#E0E0E0;" d="M456.839,79.164c0,0.213-9.172,0.385-20.483,0.385c-11.315,0-20.485-0.172-20.485-0.385
							c0-0.213,9.17-0.385,20.485-0.385C447.668,78.779,456.839,78.952,456.839,79.164z"/>
					</g>
				</g>
			</g>
		</g>
		<g>
			<g>
				<g>
					<g>
						<path style="fill:#E0E0E0;" d="M456.839,82.577c0,0.213-9.172,0.385-20.483,0.385c-11.315,0-20.485-0.172-20.485-0.385
							s9.17-0.385,20.485-0.385C447.668,82.192,456.839,82.364,456.839,82.577z"/>
					</g>
				</g>
			</g>
		</g>
		<g>
			<g>
				<g>
					<g>
						<path style="fill:#E0E0E0;" d="M456.839,85.99c0,0.213-9.172,0.385-20.483,0.385c-11.315,0-20.485-0.173-20.485-0.385
							c0-0.213,9.17-0.385,20.485-0.385C447.668,85.605,456.839,85.777,456.839,85.99z"/>
					</g>
				</g>
			</g>
		</g>
		<g>
			<g>
				<g>
					<g>
						<path style="fill:#E0E0E0;" d="M456.839,89.403c0,0.213-9.172,0.385-20.483,0.385c-11.315,0-20.485-0.173-20.485-0.385
							c0-0.213,9.17-0.385,20.485-0.385C447.668,89.018,456.839,89.19,456.839,89.403z"/>
					</g>
				</g>
			</g>
		</g>
		<g>
			<g>
				<g>
					<g>
						<path style="fill:#E0E0E0;" d="M456.839,92.816c0,0.213-9.172,0.385-20.483,0.385c-11.315,0-20.485-0.172-20.485-0.385
							c0-0.213,9.17-0.385,20.485-0.385C447.668,92.43,456.839,92.603,456.839,92.816z"/>
					</g>
				</g>
			</g>
		</g>
		<g>
			<g>
				<g>
					<g>
						<path style="fill:#E0E0E0;" d="M456.839,96.228c0,0.213-9.172,0.385-20.483,0.385c-11.315,0-20.485-0.173-20.485-0.385
							s9.17-0.385,20.485-0.385C447.668,95.843,456.839,96.016,456.839,96.228z"/>
					</g>
				</g>
			</g>
		</g>
		<g>
			<g>
				<g>
					<g>
						<path style="fill:#E0E0E0;" d="M456.839,99.641c0,0.213-9.172,0.385-20.483,0.385c-11.315,0-20.485-0.172-20.485-0.385
							c0-0.213,9.17-0.385,20.485-0.385C447.668,99.256,456.839,99.429,456.839,99.641z"/>
					</g>
				</g>
			</g>
		</g>
		<g>
			<g>
				<g>
					<g>
						<path style="fill:#E0E0E0;" d="M456.839,109.769c0,0.213-9.172,0.385-20.483,0.385c-11.315,0-20.485-0.172-20.485-0.385
							c0-0.213,9.17-0.385,20.485-0.385C447.668,109.384,456.839,109.557,456.839,109.769z"/>
					</g>
				</g>
			</g>
		</g>
		<g>
			<g>
				<g>
					<g>
						<path style="fill:#E0E0E0;" d="M457.128,113.374c0,0.213-9.171,0.385-20.483,0.385c-11.315,0-20.485-0.172-20.485-0.385
							s9.17-0.385,20.485-0.385C447.956,112.989,457.128,113.161,457.128,113.374z"/>
					</g>
				</g>
			</g>
		</g>
		<g>
			<g>
				<g>
					<g>
						<path style="fill:#E0E0E0;" d="M457.416,116.979c0,0.213-9.172,0.385-20.483,0.385c-11.315,0-20.485-0.172-20.485-0.385
							c0-0.213,9.17-0.385,20.485-0.385C448.245,116.594,457.416,116.766,457.416,116.979z"/>
					</g>
				</g>
			</g>
		</g>
		<g>
			<g>
				<g>
					<g>
						<path style="fill:#E0E0E0;" d="M457.705,120.584c0,0.213-9.172,0.385-20.483,0.385c-11.315,0-20.485-0.172-20.485-0.385
							s9.17-0.385,20.485-0.385C448.533,120.198,457.705,120.371,457.705,120.584z"/>
					</g>
				</g>
			</g>
		</g>
		<g>
			<g>
				<g>
					<g>
						<path style="fill:#E0E0E0;" d="M457.993,124.188c0,0.213-9.172,0.385-20.483,0.385c-11.315,0-20.485-0.173-20.485-0.385
							c0-0.213,9.17-0.385,20.485-0.385C448.821,123.803,457.993,123.976,457.993,124.188z"/>
					</g>
				</g>
			</g>
		</g>
		<g>
			<g>
				<g>
					<g>
						<path style="fill:#E0E0E0;" d="M458.282,127.793c0,0.213-9.172,0.385-20.483,0.385c-11.315,0-20.485-0.172-20.485-0.385
							c0-0.213,9.17-0.385,20.485-0.385C449.11,127.408,458.282,127.58,458.282,127.793z"/>
					</g>
				</g>
			</g>
		</g>
	</g>
	<g>
		<g>
			<g>
				<g>
					<path style="fill:#F5F5F5;" d="M170.933,91.764h-29.637c-2.048,0-3.708-1.66-3.708-3.708V47.034
						c0-2.048,1.66-3.708,3.708-3.708h18.796l14.549,14.996v29.734C174.641,90.103,172.981,91.764,170.933,91.764z"/>
				</g>
			</g>
			<g>
				<g>
					<path style="fill:#E0E0E0;" d="M170.113,91.764h-27.996c-2.501,0-4.529-2.028-4.529-4.529V77.067h37.053v10.168
						C174.641,89.736,172.614,91.764,170.113,91.764z"/>
				</g>
			</g>
			<g>
				<g>
					<path style="fill:#FAFAFA;" d="M150.72,86.547l0.932-1.119c0.394,0.528,0.829,0.798,1.347,0.798
						c0.673,0,1.026-0.404,1.026-1.202v-3.45h-2.549v-1.347h4.216v4.703c0,1.792-0.901,2.673-2.611,2.673
						C152.108,87.604,151.248,87.231,150.72,86.547z"/>
				</g>
				<g>
					<path style="fill:#FAFAFA;" d="M156.695,86.961l0.539-1.16c0.497,0.321,1.253,0.539,1.937,0.539
						c0.746,0,1.026-0.197,1.026-0.508c0-0.911-3.367,0.021-3.367-2.207c0-1.057,0.953-1.803,2.58-1.803
						c0.767,0,1.616,0.176,2.144,0.487l-0.538,1.15c-0.549-0.311-1.098-0.415-1.606-0.415c-0.725,0-1.036,0.228-1.036,0.518
						c0,0.953,3.367,0.031,3.367,2.227c0,1.036-0.964,1.772-2.631,1.772C158.166,87.562,157.213,87.303,156.695,86.961z"/>
				</g>
			</g>
			<g>
				<g>
					<path style="fill:#FAFAFA;" d="M145.438,69.352l1.162-1.362c0.761,1.082,1.743,1.663,2.925,1.663
						c1.583,0,2.404-0.961,2.404-2.845v-7.872h-5.068v-1.743h7.051v9.515c0,3.125-1.522,4.667-4.387,4.667
						C147.862,71.375,146.34,70.654,145.438,69.352z"/>
				</g>
				<g>
					<path style="fill:#FAFAFA;" d="M156.378,70.093l0.801-1.522c0.902,0.641,2.344,1.102,3.726,1.102
						c1.783,0,2.524-0.541,2.524-1.442c0-2.384-6.711-0.32-6.711-4.547c0-1.903,1.703-3.185,4.427-3.185
						c1.382,0,2.945,0.361,3.866,0.961l-0.821,1.522c-0.961-0.621-2.023-0.841-3.065-0.841c-1.682,0-2.504,0.621-2.504,1.462
						c0,2.504,6.731,0.461,6.731,4.587c0,1.923-1.763,3.145-4.587,3.145C159.002,71.336,157.259,70.795,156.378,70.093z"/>
				</g>
			</g>
			<g>
				<g>
					<path style="fill:#EBEBEB;" d="M160.092,43.326v11.545c0,1.905,1.544,3.449,3.449,3.449l11.101,0.002L160.092,43.326z"/>
				</g>
			</g>
			<g>
				<g>
					<path style="fill:#E0E0E0;" d="M160.243,55.884c0,0-0.146,2.8,3.042,3.721c0.12,0.035,0.242,0.06,0.365,0.082
						c1.449,0.259,10.991,1.956,10.991,1.737c0-0.237,0-3.102,0-3.102H163.54C163.54,58.322,160.769,58.227,160.243,55.884z"/>
				</g>
			</g>
		</g>
	</g>
</g>
<g id="Background_Simple" style="display:none;">
	<path style="display:inline;fill:#F5F5F5;" d="M351.44,35.763l-1.524,1.043c-12.848,8.796-20.059,23.819-18.242,39.141
		c0.234,1.97,0.609,3.923,1.132,5.841c3.761,13.815,15,25.397,28.816,29.695c8.125,2.528,17.338,2.852,23.968,8.132
		c8.628,6.871,9.569,19.29,9.829,30.239c0.26,10.95,1.234,23.375,9.893,30.209c5.422,4.28,12.857,5.326,19.763,4.577
		c18.283-1.982,33.977-15.66,41.233-32.358c7.257-16.697,6.935-35.87,2.373-53.457c-6.391-24.637-21.485-47.572-43.57-60.642
		C403.025,25.114,373.805,23.105,351.44,35.763z"/>
	
		<ellipse transform="matrix(0.9232 -0.3844 0.3844 0.9232 -121.014 61.126)" style="display:inline;fill:#F5F5F5;" cx="92.401" cy="333.282" rx="36.908" ry="36.908"/>
	
		<ellipse transform="matrix(0.2255 -0.9742 0.9742 0.2255 16.1255 143.8357)" style="display:inline;fill:#F5F5F5;" cx="98.526" cy="61.776" rx="28.841" ry="28.841"/>
</g>
<g id="Table">
	<g>
		<polygon style="fill:#455A64;" points="15.876,445.461 68.66,409.818 324.407,408.595 336.113,445.996 		"/>
		<polygon style="fill:#455A64;" points="335.447,460.064 15.351,459.831 15.351,444.763 335.588,445.764 		"/>
		<g>
			<path style="fill:#263238;" d="M327.596,445.678c0,0.144-69.121,0.228-154.366,0.187c-85.275-0.041-154.381-0.19-154.381-0.334
				c0-0.144,69.106-0.228,154.381-0.187C258.475,445.385,327.596,445.534,327.596,445.678z"/>
		</g>
	</g>
</g>
<g id="Files">
	<g>
		<g>
			<g>
				<g>
					<path style="fill:#FF725E;" d="M247.969,115.069h-50.254c-3.473,0-6.288-2.815-6.288-6.288V39.223
						c0-3.473,2.815-6.288,6.288-6.288h31.871l24.671,25.428v50.418C254.257,112.254,251.442,115.069,247.969,115.069z"/>
				</g>
			</g>
			<g style="opacity:0.2;">
				<g>
					<path d="M247.779,115.069h-49.873c-3.578,0-6.479-2.901-6.479-6.479V91.387c0-0.684,0.555-1.239,1.239-1.239h60.352
						c0.684,0,1.239,0.555,1.239,1.239v17.203C254.257,112.168,251.357,115.069,247.779,115.069z"/>
				</g>
			</g>
			<g style="opacity:0.2;">
				<g>
					<path style="fill:#FFFFFF;" d="M229.587,32.935v19.576c0,3.23,2.618,5.848,5.847,5.848l18.823,0.003L229.587,32.935z"/>
				</g>
			</g>
			<g style="opacity:0.2;">
				<g>
					<path d="M229.844,54.229c0,0-0.248,4.748,5.158,6.309c0.203,0.059,0.411,0.102,0.619,0.139
						c2.458,0.439,18.637,3.317,18.637,2.946c0-0.402,0-5.261,0-5.261h-18.823C235.434,58.363,230.734,58.202,229.844,54.229z"/>
				</g>
			</g>
		</g>
		<g>
			<g>
				<path style="fill:#FAFAFA;" d="M209.413,101.006c0-2.946,2.262-5.053,5.305-5.053c1.689,0,3.099,0.614,4.02,1.731l-1.452,1.34
					c-0.656-0.754-1.48-1.145-2.456-1.145c-1.829,0-3.127,1.284-3.127,3.127c0,1.843,1.298,3.127,3.127,3.127
					c0.977,0,1.801-0.391,2.456-1.159l1.452,1.34c-0.921,1.131-2.331,1.745-4.034,1.745
					C211.676,106.059,209.413,103.952,209.413,101.006z"/>
			</g>
			<g>
				<path style="fill:#FAFAFA;" d="M219.403,104.929l0.768-1.703c0.824,0.6,2.051,1.019,3.225,1.019c1.34,0,1.884-0.447,1.884-1.047
					c0-1.829-5.681-0.572-5.681-4.202c0-1.661,1.34-3.044,4.118-3.044c1.229,0,2.484,0.293,3.392,0.866l-0.697,1.717
					c-0.907-0.517-1.843-0.768-2.708-0.768c-1.34,0-1.857,0.503-1.857,1.116c0,1.801,5.681,0.559,5.681,4.147
					c0,1.633-1.354,3.028-4.146,3.028C221.833,106.059,220.269,105.599,219.403,104.929z"/>
			</g>
			<g>
				<path style="fill:#FAFAFA;" d="M228.305,104.929l0.767-1.703c0.824,0.6,2.053,1.019,3.226,1.019c1.34,0,1.884-0.447,1.884-1.047
					c0-1.829-5.682-0.572-5.682-4.202c0-1.661,1.34-3.044,4.118-3.044c1.229,0,2.485,0.293,3.393,0.866l-0.698,1.717
					c-0.907-0.517-1.843-0.768-2.708-0.768c-1.34,0-1.856,0.503-1.856,1.116c0,1.801,5.682,0.559,5.682,4.147
					c0,1.633-1.354,3.028-4.146,3.028C230.734,106.059,229.171,105.599,228.305,104.929z"/>
			</g>
		</g>
		<g>
			<g>
				<path style="fill:#FAFAFA;" d="M212.605,69.382c1.033,0.314,1.504,0.965,1.504,2.514v3.591c0,1.055,0.539,1.661,1.639,1.661
					h0.404v2.738h-1.301c-2.807,0-4.243-1.437-4.243-4.018v-4.062c0-0.718-0.381-1.056-0.987-1.056h-0.741v-2.738h0.741
					c0.606,0,0.987-0.337,0.987-1.056v-4.063c0-2.581,1.437-4.018,4.243-4.018h1.301v2.738h-0.404c-1.099,0-1.639,0.606-1.639,1.662
					v3.592C214.109,68.417,213.637,69.067,212.605,69.382z"/>
			</g>
			<g>
				<path style="fill:#FAFAFA;" d="M236.806,68.013v2.738h-0.741c-0.606,0-0.987,0.337-0.987,1.056v4.062
					c0,2.582-1.437,4.018-4.243,4.018h-1.301v-2.738h0.404c1.099,0,1.639-0.607,1.639-1.661v-3.591c0-1.549,0.471-2.2,1.504-2.514
					c-1.033-0.314-1.504-0.965-1.504-2.514v-3.592c0-1.056-0.539-1.662-1.639-1.662h-0.404v-2.738h1.301
					c2.807,0,4.243,1.437,4.243,4.018v4.063c0,0.718,0.381,1.056,0.987,1.056H236.806z"/>
			</g>
		</g>
	</g>
	<g>
		<g>
			<g>
				<g>
					<path style="fill:#FF725E;" d="M318.342,165.565h-51.013c-3.525,0-6.383-2.858-6.383-6.383V88.573
						c0-3.525,2.858-6.383,6.383-6.383h32.353l25.044,25.812v51.18C324.725,162.707,321.867,165.565,318.342,165.565z"/>
				</g>
			</g>
			<g style="opacity:0.2;">
				<g>
					<path d="M317.828,165.565h-49.986c-3.809,0-6.897-3.088-6.897-6.897v-18.401h63.779v18.401
						C324.725,162.477,321.637,165.565,317.828,165.565z"/>
				</g>
			</g>
			<g style="opacity:0.2;">
				<g>
					<path style="fill:#FFFFFF;" d="M299.681,82.19v19.872c0,3.278,2.657,5.936,5.936,5.937l19.108,0.003L299.681,82.19z"/>
				</g>
			</g>
			<g style="opacity:0.2;">
				<g>
					<path d="M299.942,103.806c0,0-0.251,4.82,5.236,6.404c0.206,0.059,0.417,0.104,0.628,0.142
						c2.495,0.446,18.919,3.367,18.919,2.99c0-0.408,0-5.34,0-5.34h-19.108C305.617,108.002,300.846,107.839,299.942,103.806z"/>
				</g>
			</g>
		</g>
		<g>
			<g>
				<path style="fill:#FAFAFA;" d="M287.139,119.378l-7.656,2.805l7.656,2.782v2.874l-10.944-4.161v-2.989l10.944-4.162V119.378z"/>
			</g>
			<g>
				<path style="fill:#FAFAFA;" d="M295.366,110.871h3.196l-7.588,21.658h-3.196L295.366,110.871z"/>
			</g>
			<g>
				<path style="fill:#FAFAFA;" d="M309.917,120.688v2.989l-10.944,4.161v-2.874l7.656-2.782l-7.656-2.805v-2.851L309.917,120.688z"
					/>
			</g>
		</g>
		<g>
			<g>
				<path style="fill:#FAFAFA;" d="M284.534,149.682v8.572h-1.983v-3.515h-3.894v3.515h-1.983v-8.572h1.983v3.38h3.894v-3.38
					H284.534z"/>
			</g>
			<g>
				<path style="fill:#FAFAFA;" d="M288.341,151.298h-2.743v-1.616h7.47v1.616h-2.743v6.956h-1.984V151.298z"/>
			</g>
			<g>
				<path style="fill:#FAFAFA;" d="M301.932,158.254l-0.012-5.143l-2.523,4.237h-0.894l-2.51-4.127v5.033h-1.861v-8.572h1.641
					l3.209,5.327l3.159-5.327h1.629l0.024,8.572H301.932z"/>
			</g>
			<g>
				<path style="fill:#FAFAFA;" d="M305.824,149.682h1.983v6.956h4.298v1.617h-6.282V149.682z"/>
			</g>
		</g>
	</g>
</g>
<g id="Windows">
	<g>
		<path style="fill:#FFFFFF;" d="M138.712,267.519H46.09c-1.689,0-3.058-1.369-3.058-3.058V111.427c0-1.689,1.369-3.058,3.058-3.058
			h92.621c1.689,0,3.058,1.369,3.058,3.058v153.034C141.769,266.15,140.4,267.519,138.712,267.519z"/>
		<path style="fill:#E0E0E0;" d="M141.769,126.152H43.032v-14.175c0-1.992,1.615-3.607,3.607-3.607h91.658
			c1.917,0,3.472,1.554,3.472,3.472V126.152z"/>
		<g>
			<path style="fill:#263238;" d="M138.457,267.519c-0.007-0.03,0.465,0.044,1.273-0.283c0.395-0.17,0.858-0.471,1.265-0.964
				c0.393-0.496,0.722-1.204,0.721-2.046c-0.011-3.407-0.027-8.415-0.048-14.861c-0.02-12.915-0.048-31.588-0.083-54.658
				c-0.016-23.079-0.035-50.556-0.056-81.065l-0.001-1.432c0.002-0.491,0.01-0.931-0.118-1.36c-0.231-0.861-0.876-1.596-1.69-1.964
				c-0.408-0.187-0.852-0.279-1.308-0.274l-1.454,0.001c-0.971,0-1.945,0.001-2.921,0.001c-3.906,0.001-7.857,0.003-11.849,0.004
				c-7.986,0.002-16.139,0.004-24.439,0.007c-16.601,0.002-33.789,0.003-51.393,0.005c-1.022-0.008-2.014,0.529-2.566,1.383
				c-0.271,0.425-0.451,0.913-0.485,1.418c-0.026,0.505-0.007,1.083-0.013,1.621c0,2.188,0,4.369,0,6.543
				c0,4.348-0.001,8.667-0.001,12.954c-0.001,8.575-0.003,17.025-0.004,25.327c-0.005,16.605-0.01,32.621-0.015,47.879
				c-0.008,15.257-0.016,29.756-0.024,43.325c-0.002,3.392-0.005,6.726-0.007,9.999c-0.001,1.637-0.003,3.258-0.004,4.864
				c-0.131,1.558,0.986,3.014,2.46,3.306c0.708,0.126,1.536,0.046,2.303,0.07c0.779,0.001,1.555,0.001,2.326,0.002
				c1.542,0.001,3.069,0.003,4.578,0.004c3.019,0.003,5.973,0.006,8.857,0.009c23.071,0.035,41.741,0.063,54.655,0.083
				c6.446,0.021,11.453,0.038,14.859,0.049c1.692,0.011,2.984,0.02,3.864,0.026C138.011,267.501,138.457,267.519,138.457,267.519
				s-0.446,0.018-1.317,0.027c-0.88,0.006-2.173,0.014-3.864,0.026c-3.406,0.011-8.413,0.028-14.859,0.049
				c-12.914,0.02-31.585,0.048-54.655,0.083c-2.885,0.003-5.838,0.006-8.857,0.009c-1.51,0.001-3.036,0.003-4.578,0.004
				c-0.771,0.001-1.547,0.001-2.326,0.002c-0.787-0.027-1.54,0.066-2.387-0.075c-0.819-0.171-1.57-0.652-2.077-1.327
				c-0.514-0.664-0.759-1.554-0.709-2.373c-0.001-1.606-0.002-3.227-0.004-4.864c-0.002-3.273-0.005-6.607-0.007-9.999
				c-0.007-13.569-0.015-28.068-0.024-43.325c-0.005-15.258-0.01-31.274-0.015-47.879c-0.001-8.303-0.003-16.752-0.004-25.327
				c0-4.288-0.001-8.607-0.001-12.954c0-2.174,0-4.355,0-6.543c0.007-0.556-0.014-1.074,0.014-1.663
				c0.041-0.59,0.251-1.164,0.569-1.661c0.642-0.999,1.811-1.63,3.001-1.619c17.604,0.002,34.792,0.004,51.393,0.005
				c8.3,0.002,16.454,0.004,24.439,0.006c3.993,0.001,7.943,0.003,11.849,0.004c0.976,0,1.95,0.001,2.921,0.001l1.454,0
				c0.513-0.005,1.038,0.101,1.507,0.318c0.943,0.427,1.687,1.277,1.954,2.275c0.148,0.496,0.138,1.028,0.135,1.49l-0.001,1.432
				c-0.021,30.509-0.04,57.986-0.056,81.065c-0.035,23.071-0.063,41.743-0.083,54.658c-0.022,6.447-0.038,11.455-0.05,14.862
				c-0.008,0.87-0.356,1.594-0.765,2.096c-0.423,0.499-0.9,0.799-1.305,0.963c-0.408,0.169-0.743,0.202-0.96,0.23
				C138.569,267.523,138.457,267.519,138.457,267.519z"/>
		</g>
		<path style="fill:#FFFFFF;" d="M57.586,118.647c0,1.609-1.304,2.913-2.913,2.913s-2.913-1.304-2.913-2.913
			c0-1.609,1.304-2.913,2.913-2.913S57.586,117.038,57.586,118.647z"/>
		<circle style="fill:#FFFFFF;" cx="63.635" cy="118.647" r="2.913"/>
		<circle style="fill:#FFFFFF;" cx="72.598" cy="118.647" r="2.913"/>
		<g>
			<path style="fill:#263238;" d="M85.996,150.264H67.813c-1.09,0-1.973-0.883-1.973-1.973l0,0c0-1.09,0.883-1.973,1.973-1.973
				h18.183c1.09,0,1.973,0.883,1.973,1.973l0,0C87.969,149.381,87.086,150.264,85.996,150.264z"/>
		</g>
		<g>
			<path style="fill:#E0E0E0;" d="M85.996,160.591H67.813c-1.09,0-1.973-0.883-1.973-1.973l0,0c0-1.09,0.883-1.973,1.973-1.973
				h18.183c1.09,0,1.973,0.883,1.973,1.973l0,0C87.969,159.708,87.086,160.591,85.996,160.591z"/>
		</g>
		<g>
			<path style="fill:#E0E0E0;" d="M86.517,188.878H68.333c-1.09,0-1.973-0.883-1.973-1.973l0,0c0-1.09,0.883-1.973,1.973-1.973
				h18.183c1.09,0,1.973,0.883,1.973,1.973l0,0C88.489,187.995,87.606,188.878,86.517,188.878z"/>
		</g>
		<g>
			<path style="fill:#FF725E;" d="M85.996,171.264H67.813c-1.09,0-1.973-0.883-1.973-1.973l0,0c0-1.09,0.883-1.973,1.973-1.973
				h18.183c1.09,0,1.973,0.883,1.973,1.973l0,0C87.969,170.38,87.086,171.264,85.996,171.264z"/>
		</g>
		<g>
			<path style="fill:#FF725E;" d="M85.996,230.775H67.813c-1.09,0-1.973-0.883-1.973-1.973l0,0c0-1.089,0.883-1.973,1.973-1.973
				h18.183c1.09,0,1.973,0.883,1.973,1.973l0,0C87.969,229.892,87.086,230.775,85.996,230.775z"/>
		</g>
		<g>
			<path style="fill:#455A64;" d="M115.127,150.264H96.944c-1.09,0-1.973-0.883-1.973-1.973l0,0c0-1.09,0.883-1.973,1.973-1.973
				h18.183c1.09,0,1.973,0.883,1.973,1.973l0,0C117.1,149.381,116.217,150.264,115.127,150.264z"/>
		</g>
		<g>
			<path style="fill:#263238;" d="M134.817,160.591H96.775c-0.996,0-1.804-0.883-1.804-1.973l0,0c0-1.09,0.807-1.973,1.804-1.973
				h38.042c0.996,0,1.803,0.883,1.803,1.973l0,0C136.62,159.708,135.813,160.591,134.817,160.591z"/>
		</g>
		<g>
			<path style="fill:#E0E0E0;" d="M133.793,171.264H95.489c-1.024,0-1.855-0.883-1.855-1.973l0,0c0-1.09,0.83-1.973,1.855-1.973
				h38.304c1.024,0,1.855,0.883,1.855,1.973l0,0C135.648,170.38,134.818,171.264,133.793,171.264z"/>
		</g>
		<g>
			<path style="fill:#E0E0E0;" d="M106.123,179.894H67.818c-1.024,0-1.855-0.883-1.855-1.973l0,0c0-1.089,0.83-1.973,1.855-1.973
				h38.304c1.024,0,1.855,0.883,1.855,1.973l0,0C107.977,179.01,107.147,179.894,106.123,179.894z"/>
		</g>
		<g>
			<path style="fill:#455A64;" d="M58.9,148.292c0,1.107-0.897,2.004-2.004,2.004c-1.107,0-2.004-0.897-2.004-2.004
				c0-1.107,0.897-2.004,2.004-2.004C58.003,146.288,58.9,147.185,58.9,148.292z"/>
		</g>
		<g>
			<path style="fill:#455A64;" d="M58.9,138.409c0,1.107-0.897,2.004-2.004,2.004c-1.107,0-2.004-0.897-2.004-2.004
				s0.897-2.004,2.004-2.004C58.003,136.405,58.9,137.302,58.9,138.409z"/>
		</g>
		<g>
			<path style="fill:#455A64;" d="M58.9,158.587c0,1.107-0.897,2.004-2.004,2.004c-1.107,0-2.004-0.897-2.004-2.004
				c0-1.107,0.897-2.004,2.004-2.004C58.003,156.583,58.9,157.481,58.9,158.587z"/>
		</g>
		<g>
			<path style="fill:#455A64;" d="M58.9,169.291c0,1.107-0.897,2.004-2.004,2.004c-1.107,0-2.004-0.897-2.004-2.004
				s0.897-2.004,2.004-2.004C58.003,167.287,58.9,168.184,58.9,169.291z"/>
		</g>
		<g>
			<path style="fill:#E0E0E0;" d="M86.517,217.76H68.333c-1.09,0-1.973-0.883-1.973-1.973l0,0c0-1.09,0.883-1.973,1.973-1.973
				h18.183c1.09,0,1.973,0.883,1.973,1.973l0,0C88.489,216.876,87.606,217.76,86.517,217.76z"/>
		</g>
		<g>
			<path style="fill:#FF725E;" d="M85.996,200.145H67.813c-1.09,0-1.973-0.883-1.973-1.973l0,0c0-1.089,0.883-1.973,1.973-1.973
				h18.183c1.09,0,1.973,0.883,1.973,1.973l0,0C87.969,199.261,87.086,200.145,85.996,200.145z"/>
		</g>
		<g>
			<path style="fill:#E0E0E0;" d="M133.793,200.145H95.489c-1.024,0-1.855-0.883-1.855-1.973l0,0c0-1.089,0.83-1.973,1.855-1.973
				h38.304c1.024,0,1.855,0.883,1.855,1.973l0,0C135.648,199.261,134.818,200.145,133.793,200.145z"/>
		</g>
		<g>
			<path style="fill:#E0E0E0;" d="M106.123,208.775H67.818c-1.024,0-1.855-0.883-1.855-1.973l0,0c0-1.09,0.83-1.973,1.855-1.973
				h38.304c1.024,0,1.855,0.883,1.855,1.973l0,0C107.977,207.892,107.147,208.775,106.123,208.775z"/>
		</g>
		<g>
			<path style="fill:#455A64;" d="M58.9,198.172c0,1.107-0.897,2.004-2.004,2.004c-1.107,0-2.004-0.897-2.004-2.004
				s0.897-2.004,2.004-2.004C58.003,196.168,58.9,197.065,58.9,198.172z"/>
		</g>
		<path style="fill:#455A64;" d="M78.29,140.792H66.906c-0.529,0-0.958-0.429-0.958-0.958v-1.889c0-0.529,0.429-0.958,0.958-0.958
			H78.29c0.529,0,0.958,0.429,0.958,0.958v1.889C79.248,140.363,78.819,140.792,78.29,140.792z"/>
		<g>
			<g>
				<path style="fill:#263238;" d="M85.996,241.291H67.813c-1.09,0-1.973-0.883-1.973-1.973l0,0c0-1.089,0.883-1.973,1.973-1.973
					h18.183c1.09,0,1.973,0.883,1.973,1.973l0,0C87.969,240.408,87.086,241.291,85.996,241.291z"/>
			</g>
			<g>
				<path style="fill:#455A64;" d="M115.127,241.291H96.944c-1.09,0-1.973-0.883-1.973-1.973l0,0c0-1.089,0.883-1.973,1.973-1.973
					h18.183c1.09,0,1.973,0.883,1.973,1.973l0,0C117.1,240.408,116.217,241.291,115.127,241.291z"/>
			</g>
			<g>
				<path style="fill:#455A64;" d="M58.9,239.318c0,1.107-0.897,2.004-2.004,2.004c-1.107,0-2.004-0.897-2.004-2.004
					c0-1.107,0.897-2.004,2.004-2.004C58.003,237.314,58.9,238.211,58.9,239.318z"/>
			</g>
		</g>
		<g>
			<path style="fill:#455A64;" d="M58.9,248.822c0,1.107-0.897,2.004-2.004,2.004c-1.107,0-2.004-0.897-2.004-2.004
				c0-1.107,0.897-2.004,2.004-2.004C58.003,246.818,58.9,247.715,58.9,248.822z"/>
		</g>
		<path style="fill:#455A64;" d="M78.29,251.204H66.906c-0.529,0-0.958-0.429-0.958-0.958v-1.889c0-0.529,0.429-0.958,0.958-0.958
			H78.29c0.529,0,0.958,0.429,0.958,0.958v1.889C79.248,250.775,78.819,251.204,78.29,251.204z"/>
	</g>
	<g>
		<g>
			<rect x="148.363" y="242.954" style="fill:#FFFFFF;" width="180.35" height="114.722"/>
			<g>
				<rect x="148.363" y="242.954" style="fill:#EBEBEB;" width="32.482" height="114.722"/>
			</g>
			<g>
				<g>
					<g>
						<g>
							<g>
								<g>
									<g>
										<path style="fill:#E0E0E0;" d="M162.638,255.335c0.171-0.103,0.353-0.182,0.541-0.235l0.111-0.535l0.904-0.016l0.13,0.531
											c0.189,0.047,0.374,0.119,0.549,0.216l0.457-0.3l0.651,0.628l-0.283,0.467c0.103,0.171,0.182,0.353,0.235,0.541
											l0.535,0.111l0.016,0.904l-0.531,0.13c-0.047,0.189-0.119,0.374-0.216,0.549l0.3,0.457l-0.628,0.651l-0.467-0.283
											c-0.171,0.103-0.353,0.182-0.541,0.235l-0.111,0.535l-0.904,0.016l-0.13-0.531c-0.189-0.047-0.374-0.119-0.549-0.216
											l-0.457,0.3l-0.651-0.628l0.283-0.467c-0.103-0.171-0.182-0.353-0.235-0.541l-0.535-0.111l-0.016-0.904l0.531-0.13
											c0.047-0.19,0.119-0.374,0.216-0.549l-0.299-0.457l0.628-0.651L162.638,255.335L162.638,255.335z M163.12,256.54
											c-0.372,0.386-0.361,1,0.024,1.372c0.386,0.372,1,0.361,1.372-0.024c0.372-0.385,0.361-1-0.024-1.372
											C164.107,256.143,163.493,256.154,163.12,256.54z"/>
									</g>
								</g>
							</g>
						</g>
					</g>
				</g>
			</g>
			<g>
				<path style="fill:#E0E0E0;" d="M170.142,280.679h-14.16c-0.804,0-1.455-0.651-1.455-1.455l0,0c0-0.804,0.652-1.455,1.455-1.455
					h14.16c0.804,0,1.455,0.652,1.455,1.455l0,0C171.597,280.027,170.946,280.679,170.142,280.679z"/>
			</g>
			<g>
				<path style="fill:#E0E0E0;" d="M170.142,273.266h-14.16c-0.804,0-1.455-0.651-1.455-1.455l0,0c0-0.804,0.652-1.455,1.455-1.455
					h14.16c0.804,0,1.455,0.652,1.455,1.455l0,0C171.597,272.614,170.946,273.266,170.142,273.266z"/>
			</g>
			<g>
				<path style="fill:#E0E0E0;" d="M170.142,266.484h-14.16c-0.804,0-1.455-0.651-1.455-1.455l0,0c0-0.804,0.652-1.455,1.455-1.455
					h14.16c0.804,0,1.455,0.651,1.455,1.455l0,0C171.597,265.833,170.946,266.484,170.142,266.484z"/>
			</g>
			<g>
				<path style="fill:#263238;" d="M208.186,259.902h-13.412c-0.804,0-1.455-0.652-1.455-1.455l0,0c0-0.804,0.652-1.455,1.455-1.455
					h13.412c0.804,0,1.455,0.651,1.455,1.455l0,0C209.641,259.251,208.99,259.902,208.186,259.902z"/>
			</g>
			<g>
				<path style="fill:#E0E0E0;" d="M208.186,267.519h-13.412c-0.804,0-1.455-0.651-1.455-1.455l0,0c0-0.804,0.652-1.455,1.455-1.455
					h13.412c0.804,0,1.455,0.651,1.455,1.455l0,0C209.641,266.868,208.99,267.519,208.186,267.519z"/>
			</g>
			<g>
				<path style="fill:#FF725E;" d="M208.186,275.391h-13.412c-0.804,0-1.455-0.651-1.455-1.455l0,0c0-0.804,0.652-1.455,1.455-1.455
					h13.412c0.804,0,1.455,0.651,1.455,1.455l0,0C209.641,274.739,208.99,275.391,208.186,275.391z"/>
			</g>
			<g>
				<path style="fill:#263238;" d="M202.465,290.61h-7.691c-0.804,0-1.455-0.651-1.455-1.455l0,0c0-0.804,0.652-1.455,1.455-1.455
					h7.691c0.804,0,1.455,0.651,1.455,1.455l0,0C203.92,289.958,203.269,290.61,202.465,290.61z"/>
			</g>
			<g>
				<path style="fill:#263238;" d="M202.465,298.499h-7.691c-0.804,0-1.455-0.651-1.455-1.455l0,0c0-0.804,0.652-1.455,1.455-1.455
					h7.691c0.804,0,1.455,0.651,1.455,1.455l0,0C203.92,297.847,203.269,298.499,202.465,298.499z"/>
			</g>
			<g>
				<path style="fill:#E0E0E0;" d="M225.322,298.499H211.22c-0.804,0-1.455-0.651-1.455-1.455l0,0c0-0.804,0.652-1.455,1.455-1.455
					h14.102c0.804,0,1.455,0.651,1.455,1.455l0,0C226.777,297.847,226.125,298.499,225.322,298.499z"/>
			</g>
			<g>
				<path style="fill:#FF725E;" d="M217.346,305.514h-14.102c-0.804,0-1.455-0.651-1.455-1.455l0,0c0-0.804,0.651-1.455,1.455-1.455
					h14.102c0.804,0,1.455,0.651,1.455,1.455l0,0C218.801,304.862,218.149,305.514,217.346,305.514z"/>
			</g>
			<g>
				<path style="fill:#FF725E;" d="M220.47,313.516h-9.686c-0.549,0-0.993-0.445-0.993-0.993v-0.923
					c0-0.549,0.445-0.993,0.993-0.993h9.686c0.549,0,0.993,0.445,0.993,0.993v0.923C221.463,313.071,221.018,313.516,220.47,313.516
					z"/>
			</g>
			<g>
				<path style="fill:#FF725E;" d="M220.008,329.198h-8.762c-0.804,0-1.455-0.652-1.455-1.455l0,0c0-0.804,0.651-1.455,1.455-1.455
					h8.762c0.804,0,1.455,0.651,1.455,1.455l0,0C221.463,328.546,220.812,329.198,220.008,329.198z"/>
			</g>
			<g>
				<path style="fill:#FF725E;" d="M220.008,345.761h-8.762c-0.804,0-1.455-0.652-1.455-1.455l0,0c0-0.804,0.651-1.455,1.455-1.455
					h8.762c0.804,0,1.455,0.652,1.455,1.455l0,0C221.463,345.11,220.812,345.761,220.008,345.761z"/>
			</g>
			<g>
				<path style="fill:#455A64;" d="M241.549,345.761h-15.362c-0.804,0-1.455-0.652-1.455-1.455l0,0c0-0.804,0.651-1.455,1.455-1.455
					h15.362c0.804,0,1.455,0.652,1.455,1.455l0,0C243.004,345.11,242.352,345.761,241.549,345.761z"/>
			</g>
			<g>
				<path style="fill:#E0E0E0;" d="M252.301,345.761h-2.213c-0.804,0-1.455-0.652-1.455-1.455l0,0c0-0.804,0.652-1.455,1.455-1.455
					h2.213c0.804,0,1.455,0.652,1.455,1.455l0,0C253.756,345.11,253.105,345.761,252.301,345.761z"/>
			</g>
			<g>
				<path style="fill:#E0E0E0;" d="M240.628,329.198h-12.982c-0.804,0-1.455-0.652-1.455-1.455l0,0c0-0.804,0.652-1.455,1.455-1.455
					h12.982c0.804,0,1.455,0.651,1.455,1.455l0,0C242.083,328.546,241.432,329.198,240.628,329.198z"/>
			</g>
			<g>
				<path style="fill:#E0E0E0;" d="M269.096,336.469h-41.45c-0.804,0-1.455-0.652-1.455-1.455l0,0c0-0.804,0.652-1.455,1.455-1.455
					h41.45c0.804,0,1.455,0.651,1.455,1.455l0,0C270.551,335.817,269.9,336.469,269.096,336.469z"/>
			</g>
			<g>
				<path style="fill:#455A64;" d="M273.884,329.198H247.42c-0.804,0-1.455-0.652-1.455-1.455l0,0c0-0.804,0.651-1.455,1.455-1.455
					h26.464c0.804,0,1.455,0.651,1.455,1.455l0,0C275.339,328.546,274.688,329.198,273.884,329.198z"/>
			</g>
			<g>
				<path style="fill:#455A64;" d="M238.156,313.516h-11.887c-0.549,0-0.993-0.445-0.993-0.993v-0.923
					c0-0.549,0.445-0.993,0.993-0.993h11.887c0.549,0,0.993,0.445,0.993,0.993v0.923
					C239.149,313.071,238.704,313.516,238.156,313.516z"/>
			</g>
			<g>
				<path style="fill:#E0E0E0;" d="M247.645,313.516h-3.648c-0.549,0-0.993-0.445-0.993-0.993v-0.923
					c0-0.549,0.445-0.993,0.993-0.993h3.648c0.549,0,0.993,0.445,0.993,0.993v0.923
					C248.639,313.071,248.194,313.516,247.645,313.516z"/>
			</g>
			<g>
				<path style="fill:#E0E0E0;" d="M268.549,313.516h-14.632c-0.549,0-0.993-0.445-0.993-0.993v-0.923
					c0-0.549,0.445-0.993,0.993-0.993h14.632c0.549,0,0.993,0.445,0.993,0.993v0.923
					C269.543,313.071,269.098,313.516,268.549,313.516z"/>
			</g>
			<g>
				<path style="fill:#263238;" d="M226.898,305.514h-3.142c-0.804,0-1.455-0.651-1.455-1.455l0,0c0-0.804,0.652-1.455,1.455-1.455
					h3.142c0.804,0,1.455,0.651,1.455,1.455l0,0C228.353,304.862,227.701,305.514,226.898,305.514z"/>
			</g>
			<g>
				<path style="fill:#E0E0E0;" d="M253.52,305.514h-20.008c-0.804,0-1.455-0.651-1.455-1.455l0,0c0-0.804,0.652-1.455,1.455-1.455
					h20.008c0.804,0,1.455,0.651,1.455,1.455l0,0C254.975,304.862,254.324,305.514,253.52,305.514z"/>
			</g>
			<g>
				<path style="fill:#455A64;" d="M229.673,259.902h-13.412c-0.804,0-1.455-0.652-1.455-1.455l0,0c0-0.804,0.652-1.455,1.455-1.455
					h13.412c0.804,0,1.455,0.651,1.455,1.455l0,0C231.128,259.251,230.477,259.902,229.673,259.902z"/>
			</g>
			<g>
				<path style="fill:#263238;" d="M246.954,267.519h-30.693c-0.804,0-1.455-0.651-1.455-1.455l0,0c0-0.804,0.652-1.455,1.455-1.455
					h30.693c0.804,0,1.455,0.651,1.455,1.455l0,0C248.409,266.868,247.758,267.519,246.954,267.519z"/>
			</g>
			<g>
				<path style="fill:#E0E0E0;" d="M279.999,275.391h-63.738c-0.804,0-1.455-0.651-1.455-1.455l0,0c0-0.804,0.652-1.455,1.455-1.455
					h63.738c0.804,0,1.455,0.651,1.455,1.455l0,0C281.454,274.739,280.803,275.391,279.999,275.391z"/>
			</g>
			<g>
				<path style="fill:#E0E0E0;" d="M246.315,280.935h-30.053c-0.804,0-1.455-0.651-1.455-1.455l0,0c0-0.804,0.652-1.455,1.455-1.455
					h30.053c0.804,0,1.455,0.651,1.455,1.455l0,0C247.77,280.284,247.118,280.935,246.315,280.935z"/>
			</g>
			<g>
				<path style="fill:#455A64;" d="M240.167,290.61h-30.053c-0.804,0-1.455-0.651-1.455-1.455l0,0c0-0.804,0.652-1.455,1.455-1.455
					h30.053c0.804,0,1.455,0.651,1.455,1.455l0,0C241.622,289.958,240.97,290.61,240.167,290.61z"/>
			</g>
			<g>
				<path style="fill:#FF725E;" d="M256.991,290.61h-10.074c-0.804,0-1.455-0.651-1.455-1.455l0,0c0-0.804,0.651-1.455,1.455-1.455
					h10.074c0.804,0,1.455,0.651,1.455,1.455l0,0C258.446,289.958,257.795,290.61,256.991,290.61z"/>
			</g>
			<g>
				<path style="fill:#263238;" d="M282.746,290.563h-19.029c-0.804,0-1.455-0.651-1.455-1.455l0,0c0-0.804,0.652-1.455,1.455-1.455
					h19.029c0.804,0,1.455,0.651,1.455,1.455l0,0C284.201,289.911,283.55,290.563,282.746,290.563z"/>
			</g>
			<g>
				<path style="fill:#E0E0E0;" d="M308.642,290.563h-19.029c-0.804,0-1.455-0.651-1.455-1.455l0,0c0-0.804,0.651-1.455,1.455-1.455
					h19.029c0.804,0,1.455,0.651,1.455,1.455l0,0C310.097,289.911,309.446,290.563,308.642,290.563z"/>
			</g>
			<g>
				<path style="fill:#E0E0E0;" d="M164.01,288.526h-8.027c-0.804,0-1.455-0.652-1.455-1.455l0,0c0-0.804,0.652-1.455,1.455-1.455
					h8.027c0.804,0,1.455,0.651,1.455,1.455l0,0C165.465,287.875,164.814,288.526,164.01,288.526z"/>
			</g>
			<g>
				<path style="fill:#E0E0E0;" d="M161.607,312.068h-5.625c-0.804,0-1.455-0.652-1.455-1.455l0,0c0-0.804,0.652-1.455,1.455-1.455
					h5.625c0.804,0,1.455,0.651,1.455,1.455l0,0C163.063,311.417,162.411,312.068,161.607,312.068z"/>
			</g>
			<g>
				<path style="fill:#E0E0E0;" d="M171.597,296.374h-15.615c-0.804,0-1.455-0.652-1.455-1.455l0,0c0-0.804,0.652-1.455,1.455-1.455
					h15.615c0.804,0,1.455,0.652,1.455,1.455l0,0C173.052,295.722,172.401,296.374,171.597,296.374z"/>
			</g>
			<g>
				<path style="fill:#E0E0E0;" d="M168.858,304.221h-12.875c-0.804,0-1.455-0.651-1.455-1.455l0,0c0-0.804,0.652-1.455,1.455-1.455
					h12.875c0.804,0,1.455,0.651,1.455,1.455l0,0C170.313,303.569,169.661,304.221,168.858,304.221z"/>
			</g>
			<g>
				<path style="fill:#455A64;" d="M188.2,258.447c0,0.816-0.662,1.478-1.478,1.478c-0.816,0-1.478-0.662-1.478-1.478
					c0-0.816,0.662-1.478,1.478-1.478C187.538,256.969,188.2,257.631,188.2,258.447z"/>
			</g>
			<g>
				<circle style="fill:#455A64;" cx="186.722" cy="250.684" r="1.478"/>
			</g>
			<g>
				<circle style="fill:#455A64;" cx="186.722" cy="266.041" r="1.478"/>
			</g>
			<g>
				<circle style="fill:#455A64;" cx="186.722" cy="273.936" r="1.478"/>
			</g>
			<g>
				<circle style="fill:#455A64;" cx="186.722" cy="281.83" r="1.478"/>
			</g>
			<g>
				<path style="fill:#455A64;" d="M188.2,289.725c0,0.816-0.662,1.478-1.478,1.478c-0.816,0-1.478-0.662-1.478-1.478
					c0-0.816,0.662-1.478,1.478-1.478C187.538,288.247,188.2,288.909,188.2,289.725z"/>
			</g>
			<g>
				<circle style="fill:#455A64;" cx="186.722" cy="297.619" r="1.478"/>
			</g>
			<g>
				<circle style="fill:#455A64;" cx="186.722" cy="305.514" r="1.478"/>
			</g>
			<g>
				<path style="fill:#455A64;" d="M188.2,313.408c0,0.816-0.662,1.478-1.478,1.478c-0.816,0-1.478-0.662-1.478-1.478
					c0-0.816,0.662-1.478,1.478-1.478C187.538,311.93,188.2,312.592,188.2,313.408z"/>
			</g>
			<g>
				<path style="fill:#455A64;" d="M188.2,321.303c0,0.816-0.662,1.478-1.478,1.478c-0.816,0-1.478-0.662-1.478-1.478
					c0-0.816,0.662-1.478,1.478-1.478C187.538,319.825,188.2,320.487,188.2,321.303z"/>
			</g>
			<g>
				<circle style="fill:#455A64;" cx="186.722" cy="329.198" r="1.478"/>
			</g>
			<g>
				<path style="fill:#455A64;" d="M188.2,337.092c0,0.816-0.662,1.478-1.478,1.478c-0.816,0-1.478-0.662-1.478-1.478
					c0-0.816,0.662-1.478,1.478-1.478C187.538,335.614,188.2,336.276,188.2,337.092z"/>
			</g>
			<g>
				<circle style="fill:#455A64;" cx="186.722" cy="344.987" r="1.478"/>
			</g>
			<path style="fill:#E0E0E0;" d="M324.878,227.312H153.766c-2.984,0-5.403,2.419-5.403,5.403v10.239h180.35v-11.807
				C328.713,229.029,326.996,227.312,324.878,227.312z"/>
			<g>
				<circle style="fill:#FFFFFF;" cx="157.683" cy="235.606" r="2.148"/>
				<path style="fill:#FFFFFF;" d="M166.442,235.606c0,1.187-0.962,2.148-2.148,2.148c-1.187,0-2.148-0.962-2.148-2.148
					s0.962-2.148,2.148-2.148C165.48,233.457,166.442,234.419,166.442,235.606z"/>
				<path style="fill:#FFFFFF;" d="M173.052,235.606c0,1.187-0.962,2.148-2.148,2.148c-1.187,0-2.148-0.962-2.148-2.148
					s0.962-2.148,2.148-2.148C172.091,233.457,173.052,234.419,173.052,235.606z"/>
			</g>
		</g>
		<polygon style="fill:#FFFFFF;" points="186.722,355.885 201.966,372.365 215.804,355.885 		"/>
		<g>
			<path style="fill:#263238;" d="M323.822,357.675c-0.007-0.037,0.566,0.048,1.578-0.293c0.5-0.173,1.103-0.479,1.682-1.012
				c0.579-0.524,1.128-1.298,1.4-2.297c0.149-0.498,0.184-1.043,0.173-1.626c-0.002-0.583-0.004-1.196-0.006-1.84
				c-0.004-1.288-0.008-2.695-0.012-4.219c-0.007-3.051-0.015-6.569-0.024-10.529c-0.02-15.851-0.048-38.774-0.083-67.098
				c-0.005-7.082-0.011-14.502-0.017-22.233c-0.003-3.866-0.005-7.809-0.008-11.827c-0.013-0.994,0.027-2.037-0.03-3.004
				c-0.111-0.963-0.514-1.899-1.179-2.621c-0.648-0.737-1.548-1.239-2.509-1.45c-0.954-0.174-2.026-0.07-3.059-0.099
				c-16.656,0.008-34.452,0.016-53.179,0.024c-18.727,0.005-38.385,0.01-58.764,0.015c-10.189,0.001-20.559,0.003-31.083,0.004
				c-5.262,0-10.562,0.001-15.898,0.001c-2.668,0-5.344,0-8.029,0c-0.659,0.01-1.37-0.024-1.989,0.024
				c-0.634,0.063-1.253,0.262-1.807,0.577c-1.112,0.626-1.945,1.731-2.231,2.978c-0.205,0.853-0.096,1.815-0.125,2.755v2.818
				c0,1.877,0,3.749,0,5.618c0,3.737,0,7.457-0.001,11.16c-0.001,7.404-0.001,14.737-0.002,21.987
				c-0.003,14.501-0.005,28.674-0.008,42.441c-0.002,6.883-0.004,13.665-0.005,20.336c-0.001,3.335-0.002,6.643-0.003,9.921
				c0.006,1.633-0.016,3.286,0.013,4.881c0.07,1.55,1.001,3.005,2.335,3.758c0.661,0.388,1.424,0.582,2.184,0.607
				c0.799,0.002,1.596,0.005,2.391,0.007c1.594,0.001,3.181,0.001,4.759,0.002c3.157,0.001,6.283,0.003,9.376,0.004
				c6.186,0.003,12.241,0.006,18.156,0.009l0.095,0l0.065,0.069c4.797,5.05,9.451,9.95,13.961,14.697l-0.313,0.01
				c4.281-5.091,8.386-9.973,12.345-14.681l0.059-0.071h0.092c33.757,0.037,61.178,0.066,80.17,0.087
				c9.487,0.023,16.866,0.041,21.883,0.053c2.499,0.012,4.408,0.022,5.701,0.028C323.163,357.656,323.822,357.675,323.822,357.675
				s-0.659,0.02-1.944,0.029c-1.293,0.006-3.202,0.016-5.701,0.028c-5.017,0.012-12.396,0.03-21.883,0.053
				c-18.992,0.021-46.413,0.05-80.17,0.087l0.151-0.07c-3.953,4.714-8.051,9.601-12.325,14.698l-0.151,0.18l-0.162-0.17
				c-4.515-4.743-9.175-9.637-13.978-14.682l0.16,0.069c-5.915,0.003-11.97,0.006-18.156,0.009
				c-3.093,0.001-6.219,0.003-9.376,0.004c-1.579,0.001-3.165,0.001-4.759,0.002c-0.799-0.002-1.6-0.004-2.403-0.005
				c-0.837-0.026-1.679-0.241-2.408-0.668c-1.471-0.828-2.498-2.432-2.578-4.142c-0.031-1.653-0.01-3.264-0.017-4.91
				c-0.001-3.278-0.002-6.586-0.003-9.921c-0.002-6.671-0.004-13.453-0.006-20.336c-0.002-13.767-0.005-27.94-0.008-42.441
				c-0.001-7.25-0.001-14.583-0.002-21.987c0-3.702,0-7.423-0.001-11.16c0-1.868,0-3.741,0-5.618v-2.818v-1.411
				c-0.009-0.465,0.025-0.985,0.138-1.462c0.318-1.39,1.245-2.617,2.481-3.313c0.616-0.351,1.306-0.572,2.011-0.642
				c0.723-0.053,1.358-0.014,2.041-0.026c2.685,0,5.362,0,8.029,0c5.336,0,10.636,0.001,15.898,0.001
				c10.524,0.001,20.893,0.003,31.083,0.004c20.379,0.005,40.037,0.01,58.764,0.015c18.727,0.008,36.523,0.016,53.179,0.024
				c1.044,0.033,2.063-0.081,3.147,0.112c1.051,0.231,2.031,0.782,2.737,1.585c0.723,0.788,1.163,1.811,1.282,2.861
				c0.06,1.057,0.016,2.035,0.029,3.049c-0.003,4.018-0.005,7.962-0.008,11.827c-0.006,7.731-0.011,15.151-0.017,22.233
				c-0.035,28.324-0.063,51.247-0.083,67.098c-0.009,3.96-0.017,7.478-0.024,10.529c-0.004,1.524-0.008,2.932-0.012,4.219
				c-0.002,0.643-0.004,1.257-0.006,1.84c0.008,0.581-0.033,1.15-0.189,1.654c-0.286,1.018-0.854,1.801-1.448,2.327
				c-0.595,0.535-1.209,0.837-1.718,1.004c-0.511,0.168-0.917,0.217-1.187,0.236C323.958,357.677,323.822,357.675,323.822,357.675z"
				/>
		</g>
	</g>
	<g>
		<path style="fill:#FFFFFF;" d="M298.15,203.975H162.525c-1.75,0-3.169-1.419-3.169-3.169V131.66c0-1.75,1.419-3.169,3.169-3.169
			H298.77c1.75,0,3.169,1.419,3.169,3.169v68.526C301.94,202.279,300.243,203.975,298.15,203.975z"/>
		<path style="fill:#E0E0E0;" d="M301.94,144.701H159.356v-12.737c0-1.918,1.555-3.473,3.473-3.473h135.637
			c1.918,0,3.473,1.555,3.473,3.473V144.701z"/>
		<g>
			<path style="fill:#263238;" d="M297.928,203.975c-0.003-0.024,0.383,0.014,1.088-0.181c0.679-0.198,1.746-0.728,2.419-1.996
				c0.338-0.629,0.485-1.417,0.44-2.301c-0.004-0.884-0.008-1.85-0.012-2.896c-0.007-2.095-0.015-4.51-0.024-7.227
				c-0.02-10.886-0.048-26.618-0.083-46.056c-0.003-2.431-0.006-4.919-0.009-7.463c-0.001-1.272-0.003-2.558-0.004-3.858
				c0.113-1.263-0.583-2.503-1.733-3.026c-0.571-0.283-1.186-0.293-1.871-0.277c-0.67,0.001-1.343,0.001-2.02,0.002
				c-1.353,0.001-2.719,0.003-4.098,0.004c-2.758,0.002-5.567,0.005-8.425,0.007c-11.433,0.008-23.648,0.016-36.502,0.024
				c-25.71,0.006-53.973,0.013-83.641,0.021c-0.476,0.001-0.908-0.014-1.322,0.091c-0.417,0.098-0.813,0.281-1.16,0.532
				c-0.696,0.501-1.179,1.284-1.309,2.127c-0.067,0.409-0.039,0.876-0.045,1.338v1.379l0,2.752c0,3.663-0.001,7.303-0.001,10.916
				c-0.001,7.225-0.003,14.345-0.004,21.341c-0.002,6.996-0.004,13.868-0.006,20.598c-0.001,3.365-0.003,6.695-0.004,9.986
				c-0.067,1.573,0.912,3.086,2.354,3.644c0.712,0.311,1.48,0.284,2.304,0.278c0.809,0,1.615,0.001,2.418,0.001
				c25.71,0.021,48.864,0.04,68.312,0.056c19.438,0.035,35.169,0.063,46.053,0.083c5.429,0.021,9.647,0.038,12.521,0.049
				c1.423,0.011,2.511,0.02,3.256,0.026C297.552,203.957,297.928,203.975,297.928,203.975s-0.376,0.018-1.109,0.027
				c-0.745,0.006-1.833,0.014-3.256,0.026c-2.874,0.011-7.092,0.028-12.521,0.049c-10.885,0.02-26.616,0.048-46.053,0.083
				c-19.448,0.016-42.601,0.035-68.312,0.056c-0.804,0.001-1.61,0.001-2.418,0.001c-0.782,0.007-1.683,0.04-2.486-0.311
				c-1.626-0.62-2.736-2.355-2.661-4.093c-0.001-3.292-0.003-6.621-0.004-9.986c-0.002-6.73-0.004-13.602-0.006-20.598
				c-0.001-6.996-0.003-14.115-0.004-21.341c0-3.613-0.001-7.252-0.001-10.916l0-2.752l0-1.379c0.008-0.457-0.026-0.917,0.051-1.42
				c0.151-0.98,0.711-1.887,1.517-2.467c0.401-0.291,0.861-0.503,1.345-0.617c0.488-0.122,0.993-0.104,1.442-0.105
				c29.667,0.007,57.931,0.014,83.641,0.021c12.854,0.008,25.069,0.016,36.502,0.024c2.858,0.003,5.667,0.005,8.425,0.007
				c1.379,0.001,2.745,0.003,4.098,0.004c0.677,0.001,1.35,0.001,2.02,0.002c0.645-0.017,1.408-0.005,2.041,0.319
				c1.303,0.576,2.088,2.047,1.958,3.39c-0.001,1.3-0.003,2.586-0.004,3.858c-0.003,2.544-0.006,5.033-0.009,7.463
				c-0.035,19.438-0.063,35.17-0.083,46.056c-0.009,2.717-0.017,5.132-0.024,7.227c-0.004,1.046-0.009,2.012-0.012,2.896
				c0.001,0.439-0.005,0.871-0.086,1.269c-0.09,0.396-0.219,0.761-0.391,1.081c-0.707,1.294-1.805,1.815-2.497,1.998
				C298.312,204.026,297.928,203.975,297.928,203.975z"/>
		</g>
		<g>
			<circle style="fill:#FFFFFF;" cx="169.967" cy="137.859" r="2.655"/>
			<path style="fill:#FFFFFF;" d="M180.792,137.859c0,1.466-1.189,2.655-2.655,2.655s-2.655-1.189-2.655-2.655
				s1.189-2.655,2.655-2.655S180.792,136.393,180.792,137.859z"/>
			<circle style="fill:#FFFFFF;" cx="186.307" cy="137.859" r="2.655"/>
		</g>
		<g>
			<g>
				<path style="fill:#263238;" d="M200.441,167.544h-16.575c-0.993,0-1.798-0.805-1.798-1.798l0,0c0-0.993,0.805-1.798,1.798-1.798
					h16.575c0.993,0,1.798,0.805,1.798,1.798l0,0C202.239,166.739,201.434,167.544,200.441,167.544z"/>
			</g>
			<g>
				<path style="fill:#E0E0E0;" d="M200.441,176.957h-16.575c-0.993,0-1.798-0.805-1.798-1.798l0,0c0-0.993,0.805-1.798,1.798-1.798
					h16.575c0.993,0,1.798,0.805,1.798,1.798l0,0C202.239,176.152,201.434,176.957,200.441,176.957z"/>
			</g>
			<g>
				<path style="fill:#E0E0E0;" d="M287.938,167.544h-48.076c-0.993,0-1.798-0.805-1.798-1.798l0,0c0-0.993,0.805-1.798,1.798-1.798
					h48.076c0.993,0,1.798,0.805,1.798,1.798l0,0C289.736,166.739,288.931,167.544,287.938,167.544z"/>
			</g>
			<g>
				<path style="fill:#FF725E;" d="M200.441,186.685h-16.575c-0.993,0-1.798-0.805-1.798-1.798l0,0c0-0.993,0.805-1.798,1.798-1.798
					h16.575c0.993,0,1.798,0.805,1.798,1.798l0,0C202.239,185.88,201.434,186.685,200.441,186.685z"/>
			</g>
			<g>
				<path style="fill:#FF725E;" d="M276.469,176.957h-16.575c-0.993,0-1.798-0.805-1.798-1.798l0,0c0-0.993,0.805-1.798,1.798-1.798
					h16.575c0.993,0,1.798,0.805,1.798,1.798l0,0C278.268,176.152,277.462,176.957,276.469,176.957z"/>
			</g>
			<g>
				<path style="fill:#455A64;" d="M226.996,167.544H210.42c-0.993,0-1.798-0.805-1.798-1.798l0,0c0-0.993,0.805-1.798,1.798-1.798
					h16.575c0.993,0,1.798,0.805,1.798,1.798l0,0C228.794,166.739,227.989,167.544,226.996,167.544z"/>
			</g>
			<g>
				<path style="fill:#263238;" d="M248.352,176.957H210.42c-0.993,0-1.798-0.805-1.798-1.798l0,0c0-0.993,0.805-1.798,1.798-1.798
					h37.932c0.993,0,1.798,0.805,1.798,1.798l0,0C250.15,176.152,249.345,176.957,248.352,176.957z"/>
			</g>
			<g>
				<path style="fill:#E0E0E0;" d="M285.558,186.685h-75.218c-0.948,0-1.717-0.805-1.717-1.798l0,0c0-0.993,0.769-1.798,1.717-1.798
					h75.218c0.948,0,1.717,0.805,1.717,1.798l0,0C287.275,185.88,286.506,186.685,285.558,186.685z"/>
			</g>
			<g>
				<path style="fill:#E0E0E0;" d="M247.562,193.538H210.42c-0.993,0-1.798-0.805-1.798-1.798l0,0c0-0.993,0.805-1.798,1.798-1.798
					h37.141c0.993,0,1.798,0.805,1.798,1.798l0,0C249.36,192.732,248.555,193.538,247.562,193.538z"/>
			</g>
			<g>
				<path style="fill:#455A64;" d="M175.741,165.745c0,1.009-0.818,1.827-1.827,1.827c-1.009,0-1.827-0.818-1.827-1.827
					c0-1.009,0.818-1.827,1.827-1.827C174.923,163.919,175.741,164.736,175.741,165.745z"/>
			</g>
			<g>
				<path style="fill:#455A64;" d="M175.741,156.737c0,1.009-0.818,1.827-1.827,1.827c-1.009,0-1.827-0.818-1.827-1.827
					s0.818-1.827,1.827-1.827C174.923,154.91,175.741,155.728,175.741,156.737z"/>
			</g>
			<g>
				<circle style="fill:#455A64;" cx="173.914" cy="175.131" r="1.827"/>
			</g>
			<g>
				<circle style="fill:#455A64;" cx="173.914" cy="184.887" r="1.827"/>
			</g>
		</g>
		<path style="fill:#455A64;" d="M193.61,158.046h-10.207c-0.529,0-0.958-0.429-0.958-0.958v-1.553c0-0.529,0.429-0.958,0.958-0.958
			h10.207c0.529,0,0.958,0.429,0.958,0.958v1.553C194.568,157.617,194.139,158.046,193.61,158.046z"/>
	</g>
</g>
<g id="Coffee">
	<g>
		<g>
			<g>
				<g>
					<path style="fill:#6F4439;" d="M89.532,439.012c-8.341,3.632-16.378,3.966-24.018,0l-5.576-46.733h34.655L89.532,439.012z"/>
				</g>
				<g>
					<g>
						<g>
							<g>
								<path style="fill:#E0E0E0;" d="M92.299,389.568l-1.043-3.337l-26.105-3.188c-0.711-0.087-1.386,0.335-1.619,1.013
									l-1.895,5.513h-3.337v6.049c13.11,2.31,25.659,2.447,37.544,0l0-6.049H92.299z"/>
								<g>
									<path style="fill:#263238;" d="M92.299,389.568c0.005-0.007,0.088-0.014,0.244-0.021c0.185-0.007,0.411-0.014,0.688-0.024
										c0.635-0.013,1.505-0.031,2.614-0.053l0.098-0.002l0.001,0.1c0.015,1.56,0.035,3.602,0.058,6.049l0.001,0.127l-0.126,0.027
										c-4.156,0.874-9.68,1.708-16.115,1.842c-6.43,0.154-13.745-0.382-21.361-1.715l-0.145-0.024l-0.215-0.036l0-0.221
										c0.001-2.054,0.001-4.076,0.002-6.049l0-0.258l0.258,0c1.13,0.001,2.243,0.002,3.337,0.003l-0.241,0.172
										c0.638-1.846,1.261-3.65,1.867-5.404c0.134-0.486,0.525-0.956,1.015-1.152c0.244-0.102,0.512-0.151,0.774-0.137
										c0.261,0.021,0.459,0.054,0.691,0.08c0.894,0.111,1.773,0.221,2.638,0.329c3.454,0.435,6.67,0.839,9.587,1.206
										c5.774,0.75,10.355,1.345,13.299,1.727l0.064,0.008l0.017,0.06c0.305,1.051,0.544,1.875,0.718,2.477
										c0.072,0.263,0.131,0.477,0.179,0.653C92.287,389.481,92.304,389.561,92.299,389.568c-0.005,0.007-0.033-0.059-0.083-0.196
										c-0.059-0.168-0.131-0.372-0.219-0.623c-0.202-0.605-0.479-1.433-0.833-2.49l0.081,0.068
										c-2.949-0.337-7.539-0.863-13.324-1.525c-2.92-0.346-6.139-0.727-9.596-1.137c-0.865-0.104-1.745-0.209-2.639-0.316
										c-0.47-0.054-0.865-0.145-1.216,0.027c-0.359,0.157-0.623,0.454-0.74,0.864c-0.601,1.756-1.219,3.562-1.851,5.41
										l-0.059,0.172l-0.182,0c-1.094,0.001-2.207,0.002-3.337,0.003l0.258-0.258c0.001,1.972,0.001,3.995,0.002,6.049
										l-0.215-0.256l0.144,0.024c7.586,1.327,14.862,1.881,21.262,1.764c6.404-0.098,11.907-0.876,16.061-1.684l-0.125,0.153
										c0.023-2.447,0.043-4.488,0.058-6.049l0.098,0.098c-1.128-0.023-2.014-0.04-2.66-0.053c-0.27-0.01-0.49-0.017-0.67-0.024
										C92.367,389.582,92.294,389.575,92.299,389.568z"/>
								</g>
							</g>
						</g>
					</g>
				</g>
				<g>
					<path style="fill:#AE7461;" d="M91.976,423.52c-9.055,1.463-19.049,1.251-29.626,0l-1.441-14.167
						c11.16,1.2,22.107,1.251,32.815,0L91.976,423.52z"/>
				</g>
				<g>
					<g>
						<path style="fill:#6F4439;" d="M75.309,413.902c-1.355,0.821-1.905,2.546-1.222,4.016l0.942,2.029
							c0.683,1.47,2.355,2.163,3.856,1.658L75.309,413.902z"/>
					</g>
					<g>
						<path style="fill:#6F4439;" d="M75.941,413.609l3.577,7.702c1.355-0.82,1.905-2.546,1.222-4.016l-0.942-2.029
							C79.115,413.796,77.442,413.103,75.941,413.609z"/>
					</g>
				</g>
			</g>
		</g>
		<g>
			<path style="fill:#263238;" d="M92.595,389.656c0.008,0.035-0.412,0.16-1.18,0.356c-0.767,0.202-1.889,0.442-3.285,0.691
				c-2.79,0.501-6.7,0.947-11.034,0.942c-4.335-0.013-8.244-0.476-11.032-0.989c-1.395-0.255-2.516-0.499-3.282-0.705
				c-0.767-0.199-1.187-0.326-1.178-0.361c0.008-0.035,0.443,0.025,1.221,0.163c0.777,0.144,1.904,0.333,3.299,0.54
				c2.789,0.418,6.671,0.819,10.973,0.832c4.301,0.005,8.184-0.379,10.975-0.785c1.396-0.201,2.524-0.385,3.301-0.525
				C92.151,389.68,92.587,389.621,92.595,389.656z"/>
		</g>
	</g>
</g>
<g id="Device">
	<g>
		<path style="fill:#E0E0E0;" d="M110.404,320.164c0,0-5.709,1.23-6.701,5.283s7.952,100.995,8.311,103.357
			c0.564,3.709,3.693,8.422,10.741,8.168c6.142-0.221,89.852-0.026,110.93,0.023c2.801,0.007,4.484-2.379,4.853-5.216l0,0
			l-103.644-6.118L110.404,320.164z"/>
		<g>
			<path style="fill:#E0E0E0;" d="M107.804,323.397l8.978,104.546c0.172,1.708,1.595,3.016,3.311,3.044l118.444,0.532
				l-22.753-22.579l-76.945-0.542l-8.229-81.906c-0.115-1.088-0.906-1.984-1.972-2.233l-17.236-4.017
				C109.44,319.786,107.609,321.392,107.804,323.397z"/>
			<g>
				<path style="fill:#263238;" d="M107.805,323.397c0,0-0.034-0.169-0.019-0.505c0.013-0.332,0.1-0.85,0.461-1.414
					c0.35-0.555,1.027-1.159,2.014-1.327c0.487-0.097,1.038-0.014,1.575,0.129c0.548,0.125,1.133,0.259,1.754,0.4
					c2.487,0.571,5.55,1.274,9.149,2.1c1.801,0.415,3.736,0.861,5.8,1.336c1.085,0.181,2.066,1.141,2.19,2.331
					c0.115,1.12,0.234,2.272,0.356,3.456c1.926,18.945,4.676,45.996,7.977,78.471l-0.221-0.201
					c23.093,0.153,49.136,0.325,76.945,0.509l0.105,0.001l0.074,0.074c7.291,7.234,14.954,14.836,22.756,22.576l0.452,0.448
					l-0.636-0.003c-1.657-0.007-3.449-0.016-5.247-0.023c-30.801-0.146-60.141-0.284-86.828-0.41
					c-6.671-0.034-13.177-0.067-19.498-0.099c-1.58-0.008-3.149-0.016-4.706-0.024c-0.783-0.008-1.543,0.002-2.337-0.022
					c-0.824-0.049-1.62-0.393-2.219-0.949c-0.602-0.554-1-1.316-1.115-2.119c-0.087-0.778-0.135-1.518-0.204-2.274
					c-0.128-1.503-0.255-2.994-0.381-4.471c-1.004-11.823-1.939-22.836-2.793-32.891c-1.691-20.103-3.06-36.373-4.007-47.629
					c-0.461-5.617-0.819-9.98-1.063-12.952c-0.115-1.473-0.203-2.599-0.263-3.369C107.82,323.788,107.805,323.397,107.805,323.397
					s0.051,0.387,0.125,1.145c0.072,0.769,0.177,1.893,0.315,3.365c0.266,2.97,0.657,7.33,1.16,12.943
					c0.986,11.253,2.411,27.517,4.172,47.614c0.873,10.053,1.829,21.065,2.856,32.885c0.128,1.478,0.257,2.968,0.387,4.471
					c0.069,0.746,0.122,1.518,0.205,2.251c0.102,0.702,0.451,1.37,0.979,1.855c0.526,0.487,1.225,0.786,1.944,0.828
					c0.75,0.021,1.542,0.011,2.315,0.018c1.557,0.006,3.125,0.012,4.706,0.018c6.321,0.025,12.826,0.05,19.498,0.077
					c26.686,0.114,56.026,0.238,86.826,0.37c1.797,0.008,3.589,0.016,5.246,0.024l-0.185,0.445
					c-7.801-7.742-15.461-15.346-22.751-22.581l0.179,0.074c-27.809-0.208-53.851-0.403-76.944-0.576l-0.201-0.002l-0.02-0.2
					c-3.225-32.483-5.911-59.54-7.792-78.49c-0.117-1.183-0.23-2.335-0.341-3.454c-0.113-1.082-0.986-1.958-1.998-2.134
					c-2.062-0.486-3.995-0.942-5.793-1.366c-3.593-0.85-6.651-1.574-9.135-2.162c-0.619-0.147-1.203-0.286-1.75-0.416
					c-0.546-0.15-1.054-0.23-1.531-0.144c-0.954,0.151-1.621,0.727-1.972,1.263c-0.362,0.544-0.461,1.05-0.485,1.378
					C107.794,323.226,107.818,323.397,107.805,323.397z"/>
			</g>
		</g>
		<polygon style="fill:#263238;" points="194.502,428.803 205.512,428.803 191.593,410.748 185.059,410.748 		"/>
		<path style="fill:#263238;" d="M111.874,328.123l8.408,90.836l15.665-12.459l-6.744-76.531c-0.055-0.614-0.525-1.109-1.135-1.197
			l-14.685-2.1C112.528,326.549,111.785,327.263,111.874,328.123z"/>
		<polygon style="fill:#263238;" points="128.698,428.803 140.062,428.803 151.609,410.748 145.074,410.748 		"/>
		<polygon style="fill:#263238;" points="142.645,428.803 153.655,428.803 159.689,410.748 153.154,410.748 		"/>
		<polygon style="fill:#263238;" points="156.121,428.803 167.131,428.803 167.724,410.748 161.189,410.748 		"/>
		<polygon style="fill:#263238;" points="168.617,428.803 179.626,428.803 175.562,410.748 169.027,410.748 		"/>
		<polygon style="fill:#263238;" points="181.641,428.803 192.651,428.803 183.681,410.748 177.147,410.748 		"/>
		<g>
			<path style="fill:#E0E0E0;" d="M204.957,425.284c0,0.086-16.789,0.156-37.494,0.156c-20.712,0-37.497-0.07-37.497-0.156
				c0-0.086,16.785-0.156,37.497-0.156C188.168,425.128,204.957,425.198,204.957,425.284z"/>
		</g>
		<g>
			<path style="fill:#E0E0E0;" d="M202.962,421.973c0,0.086-15.944,0.156-35.608,0.156c-19.67,0-35.611-0.07-35.611-0.156
				c0-0.086,15.941-0.156,35.611-0.156C187.018,421.817,202.962,421.887,202.962,421.973z"/>
		</g>
		<g>
			<path style="fill:#E0E0E0;" d="M202.962,418.969c0,0.173-15.003,0.313-33.506,0.313c-18.509,0-33.509-0.14-33.509-0.313
				c0-0.173,15-0.312,33.509-0.312C187.959,418.657,202.962,418.797,202.962,418.969z"/>
		</g>
		<g>
			<path style="fill:#E0E0E0;" d="M203.423,416.227c0,0.173-14.68,0.313-32.785,0.313c-18.111,0-32.788-0.14-32.788-0.313
				s14.677-0.313,32.788-0.313C188.743,415.915,203.423,416.055,203.423,416.227z"/>
		</g>
		<g>
			<path style="fill:#E0E0E0;" d="M204.957,414.225c0,0.173-14.776,0.313-32.998,0.313c-18.229,0-33.001-0.14-33.001-0.313
				c0-0.172,14.773-0.313,33.001-0.313C190.182,413.913,204.957,414.053,204.957,414.225z"/>
		</g>
		<g>
			<path style="fill:#E0E0E0;" d="M206.583,412.134c0,0.173-15.053,0.313-33.617,0.313c-18.571,0-33.621-0.14-33.621-0.313
				c0-0.172,15.05-0.313,33.621-0.313C191.53,411.822,206.583,411.962,206.583,412.134z"/>
		</g>
		<g>
			<path style="fill:#E0E0E0;" d="M118.438,427.943c6.84-6.399,13.68-12.799,20.52-19.198"/>
			<g>
				<path style="fill:#263238;" d="M138.958,408.745c0.098,0.105-4.416,4.488-10.081,9.789c-5.667,5.302-10.34,9.514-10.438,9.409
					c-0.098-0.105,4.415-4.487,10.082-9.79C134.186,412.853,138.859,408.64,138.958,408.745z"/>
			</g>
		</g>
	</g>
</g>
<g id="Character_00000013195450124111778170000016365773003215084703_">
	<g>
		<g>
			<path style="fill:#455A64;" d="M478.509,337.237c0,0-1.006-10.613-27.458-17.406c-12.772-3.28-43.259-4.855-46.714,14.961
				c-0.112,0.642-15.174,125.272-15.174,125.272h56.365L478.509,337.237z"/>
			<path style="fill:#455A64;" d="M469.581,460.064h-26.004l8.684-122.105c0.636-5.942,6.786-10.225,13.735-9.568l2.328,0.22
				c6.95,0.657,11.351,7.352,11.152,14.979L469.581,460.064z"/>
			<g>
				<path style="fill:#263238;" d="M445.528,455.668c-0.143-0.012,1.693-24.064,4.102-53.716
					c2.409-29.662,4.478-53.691,4.621-53.679c0.143,0.012-1.693,24.059-4.102,53.721C447.74,431.646,445.671,455.68,445.528,455.668
					z"/>
			</g>
			<g>
				<path style="fill:#263238;" d="M473.517,331.47c-0.037,0.1-1.354-0.569-3.655-0.86c-2.266-0.305-5.607-0.064-8.673,1.687
					c-3.06,1.763-4.955,4.526-5.836,6.636c-0.91,2.133-0.998,3.608-1.103,3.589c-0.03-0.003-0.033-0.368,0.051-1.023
					c0.082-0.655,0.289-1.596,0.711-2.705c0.815-2.201,2.728-5.111,5.917-6.949c3.195-1.825,6.673-2.008,8.984-1.6
					c1.17,0.196,2.087,0.492,2.694,0.752C473.216,331.255,473.53,331.443,473.517,331.47z"/>
			</g>
		</g>
		<g>
			<g>
				<g>
					<g>
						<g>
							<g>
								<g>
									<path style="fill:#263238;" d="M391.414,178.81c0.261-7.148-4.584-8.114-8.314-7.291
										c-4.532-3.334-11.41-2.959-15.553,0.849c-3.395-1.852-7.761-1.78-11.093,0.182c-3.333,1.962-5.513,5.745-5.541,9.613
										c-3.888-0.477-7.961,1.763-9.639,5.302c-1.678,3.54-0.835,8.111,1.996,10.819c-4.16,1.516-6.753,6.422-5.662,10.713
										c1.09,4.291,5.711,7.364,10.09,6.711l43.863-29.211C394.192,183.728,391.275,182.627,391.414,178.81z"/>
								</g>
							</g>
						</g>
					</g>
				</g>
				<g>
					<g>
						<g>
							<g>
								<g>
									<g>
										<g>
											<g>
												<g>
													<path style="fill:#AE7461;" d="M346.431,217.02c0.897-19.957,16.97-35.876,36.935-36.586l1.984-0.071
														c21.435,0.489,32.994,18.967,31.913,40.38l-0.565,71.341l-0.14,13.546l-49.009,11.651l-0.498-28.239
														c0,0-20.678-2.466-21.663-23.017C344.913,256.1,345.596,235.583,346.431,217.02z"/>
												</g>
											</g>
										</g>
									</g>
								</g>
							</g>
						</g>
						<g>
							<g>
								<g>
									<g>
										<g>
											<g>
												<g>
													<g>
														<g>
															<path style="fill:#6F4439;" d="M366.879,289.019c0,0,13.157,0.323,26.659-8.843c0,0-5.81,15.022-26.391,13.9
																L366.879,289.019z"/>
														</g>
													</g>
												</g>
											</g>
										</g>
									</g>
								</g>
							</g>
						</g>
						<g>
							<g>
								<g>
									<g>
										<g>
											<g>
												<g>
													<g>
														<g>
															<g>
																<g>
																	<g>
																		<path style="fill:#263238;" d="M352.415,237.757c0,1.552,1.315,2.832,2.936,2.862
																			c1.618,0.029,2.933-1.202,2.932-2.755c-0.001-1.552-1.315-2.834-2.933-2.864
																			C353.729,234.97,352.415,236.205,352.415,237.757z"/>
																	</g>
																</g>
															</g>
														</g>
													</g>
												</g>
											</g>
										</g>
									</g>
								</g>
							</g>
						</g>
						<g>
							<g>
								<g>
									<g>
										<g>
											<g>
												<g>
													<g>
														<g>
															<g>
																<g>
																	<g>
																		<g>
																			<path style="fill:#263238;" d="M351.016,227.975c0.377,0.37,2.542-1.356,5.703-1.459
																				c3.155-0.149,5.531,1.394,5.86,0.995c0.163-0.178-0.233-0.856-1.268-1.555c-1.02-0.697-2.74-1.348-4.708-1.27
																				c-1.967,0.081-3.597,0.864-4.522,1.64C351.134,227.106,350.829,227.81,351.016,227.975z"/>
																		</g>
																	</g>
																</g>
															</g>
														</g>
													</g>
												</g>
											</g>
										</g>
									</g>
								</g>
							</g>
						</g>
						<g>
							<g>
								<g>
									<g>
										<g>
											<g>
												<g>
													<g>
														<g>
															<g>
																<g>
																	<g>
																		<path style="fill:#263238;" d="M377.812,237.106c0,1.552,1.315,2.831,2.937,2.861
																			c1.618,0.03,2.933-1.202,2.932-2.755c0-1.551-1.316-2.833-2.934-2.863
																			C379.127,234.318,377.812,235.553,377.812,237.106z"/>
																	</g>
																</g>
															</g>
														</g>
													</g>
												</g>
											</g>
										</g>
									</g>
								</g>
							</g>
						</g>
						<g>
							<g>
								<g>
									<g>
										<g>
											<g>
												<g>
													<g>
														<g>
															<g>
																<g>
																	<g>
																		<g>
																			<path style="fill:#263238;" d="M381.225,226.46c0.378,0.37,2.547-1.355,5.705-1.458
																				c3.154-0.149,5.531,1.394,5.86,0.994c0.162-0.177-0.23-0.855-1.27-1.554c-1.02-0.697-2.739-1.348-4.707-1.271
																				c-1.967,0.081-3.597,0.865-4.523,1.64C381.348,225.591,381.041,226.295,381.225,226.46z"/>
																		</g>
																	</g>
																</g>
															</g>
														</g>
													</g>
												</g>
											</g>
										</g>
									</g>
								</g>
							</g>
						</g>
						<g>
							<g>
								<g>
									<g>
										<g>
											<g>
												<g>
													<g>
														<g>
															<g>
																<g>
																	<g>
																		<path style="fill:#263238;" d="M371.652,250.247c0.008-0.181-1.967-0.451-5.164-0.744
																			c-0.81-0.054-1.579-0.187-1.735-0.733c-0.211-0.576,0.096-1.458,0.453-2.411c0.689-1.979,1.41-4.054,2.168-6.228
																			c3.003-8.865,5.145-16.142,4.787-16.26c-0.358-0.117-3.082,6.972-6.084,15.837
																			c-0.721,2.185-1.411,4.269-2.066,6.261c-0.272,0.928-0.761,1.986-0.306,3.181
																			c0.239,0.595,0.846,1.012,1.368,1.132c0.523,0.139,0.977,0.132,1.377,0.142
																			C369.659,250.482,371.646,250.426,371.652,250.247z"/>
																	</g>
																</g>
															</g>
														</g>
													</g>
												</g>
											</g>
										</g>
									</g>
								</g>
							</g>
						</g>
						<g>
							<g>
								<g>
									<g>
										<g>
											<g>
												<g>
													<g>
														<g>
															<g>
																<g>
																	<g>
																		<path style="fill:#263238;" d="M381.028,252.101c-0.515-0.012-0.4,3.418-3.248,5.956
																			c-2.844,2.546-6.513,2.291-6.523,2.771c-0.04,0.217,0.838,0.637,2.383,0.624c1.515-0.002,3.708-0.566,5.451-2.119
																			c1.738-1.557,2.437-3.576,2.504-4.987C381.675,252.908,381.262,252.072,381.028,252.101z"/>
																	</g>
																</g>
															</g>
														</g>
													</g>
												</g>
											</g>
										</g>
									</g>
								</g>
							</g>
						</g>
						<g>
							<g>
								<g>
									<g>
										<g>
											<g>
												<g>
													<g>
														<path style="fill:#263238;" d="M380.864,217.437c0.405,0.807,3.1-0.026,6.408-0.089
															c3.306-0.139,6.086,0.527,6.397-0.302c0.134-0.395-0.445-1.123-1.63-1.78c-1.175-0.657-2.968-1.177-4.951-1.119
															c-1.982,0.063-3.709,0.69-4.805,1.417C381.179,216.292,380.684,217.053,380.864,217.437z"/>
													</g>
												</g>
											</g>
										</g>
									</g>
								</g>
							</g>
						</g>
						<g>
							<g>
								<g>
									<g>
										<g>
											<g>
												<g>
													<g>
														<path style="fill:#263238;" d="M351.424,219.285c0.522,0.743,2.732,0.1,5.35,0.187
															c2.621-0.005,4.809,0.707,5.354-0.019c0.241-0.354-0.074-1.089-1.011-1.813c-0.922-0.721-2.492-1.348-4.292-1.378
															c-1.8-0.027-3.388,0.551-4.333,1.243C351.533,218.199,351.195,218.924,351.424,219.285z"/>
													</g>
												</g>
											</g>
										</g>
									</g>
								</g>
							</g>
						</g>
						<g>
							<g>
								<g>
									<g>
										<g>
											<g>
												<g>
													<path style="fill:#263238;" d="M348.073,207.521c0,0,4.965-13.068,11.066-16.294c7.387-3.905,10.916,4.23,18.008,1.973
														c7.092-2.257,14.143-6.002,21.66-0.725c8.227,5.776,4.625,10.161,5.444,19.266
														c3.322,36.913,10.448,47.132,11.75,29.643c0.142-1.916,5.385-3.622,5.884-11.714
														c0.646-10.493,0.596-23.203-2.001-30.54c-2.19-6.185-5.909-10.379-12.473-14.916
														c-10.362-7.161-24.234-6.83-33.617-5.548C364.411,179.949,346.642,191.43,348.073,207.521z"/>
												</g>
											</g>
										</g>
									</g>
								</g>
							</g>
						</g>
						<g>
							<g>
								<g>
									<g>
										<g>
											<g>
												<g>
													<path style="fill:#AE7461;" d="M414.67,240.872c0.016-3.178,2.662-5.781,5.834-5.593
														c3.847,0.229,8.192,2.254,8.22,10.187c0.051,14.072-14.087,11.22-14.113,10.817
														C414.594,256.009,414.639,246.761,414.67,240.872z"/>
												</g>
											</g>
										</g>
									</g>
								</g>
							</g>
						</g>
						<g>
							<g>
								<g>
									<g>
										<g>
											<g>
												<g>
													<path style="fill:#6F4439;" d="M417.654,250.977c0.062-0.045,0.246,0.171,0.661,0.359
														c0.404,0.183,1.099,0.308,1.832,0.031c1.485-0.551,2.728-2.915,2.787-5.452c0.031-1.28-0.242-2.499-0.699-3.507
														c-0.433-1.028-1.101-1.745-1.85-1.875c-0.745-0.17-1.273,0.28-1.444,0.677c-0.188,0.394-0.097,0.674-0.172,0.699
														c-0.039,0.035-0.303-0.235-0.192-0.817c0.057-0.279,0.221-0.612,0.551-0.883c0.337-0.276,0.833-0.418,1.354-0.363
														c1.086,0.071,2.066,1.066,2.569,2.172c0.562,1.111,0.899,2.481,0.864,3.919c-0.08,2.836-1.522,5.495-3.554,6.09
														c-0.989,0.262-1.815-0.033-2.243-0.364C417.681,251.317,417.606,251.003,417.654,250.977z"/>
												</g>
											</g>
										</g>
									</g>
								</g>
							</g>
						</g>
					</g>
					<g>
						<g>
							<g>
								<g>
									<g>
										<g>
											<path style="fill:#263238;" d="M413.427,213.648c-1.781,1.311-3.664,2.664-5.856,2.96
												c-2.192,0.296-4.752-0.878-5.201-3.044c-0.201-0.972-0.003-2.116-0.673-2.85c-0.8-0.875-2.206-0.542-3.379-0.375
												c-4.071,0.579-8.359-2.163-9.541-6.102c-0.987,1.598-3.422,1.616-5.035,0.656c-1.614-0.961-2.688-2.589-3.973-3.958
												c-1.285-1.37-3.062-2.573-4.911-2.242c-1.034,0.184-1.985,0.838-3.033,0.782c-1.852-0.098-2.83-2.228-3.174-4.05
												c-0.345-1.822-0.638-3.952-2.237-4.892c-1.482-0.871-3.34-0.271-5.031,0.04c-1.69,0.311-3.898-0.01-4.392-1.656
												c-0.259-0.863,0.082-1.794,0.538-2.572c2.066-3.523,6.785-5.224,10.623-3.828c1.21-4.694,5.425-8.463,10.225-9.142
												c4.799-0.68,9.895,1.771,12.36,5.945c2.875-2.801,7.151-4.086,11.094-3.333c3.943,0.753,7.445,3.523,9.085,7.187
												c3.387-1.021,7.331,0.163,9.597,2.88c2.266,2.717,2.72,6.81,1.106,9.959c2.578,1.354,4.831,3.787,4.986,6.695
												c0.156,2.908-2.575,5.907-5.41,5.242c1.215,2.225,0.401,5.333-1.748,6.676c-2.15,1.343-5.3,0.714-6.767-1.353"/>
										</g>
									</g>
								</g>
							</g>
						</g>
					</g>
				</g>
				<g>
					<g>
						<g>
							<g>
								<g>
									<g>
										<path style="fill:#455A64;" d="M422.227,207.881c0.047-0.039,0.301,1.172-0.78,2.733c-0.536,0.742-1.47,1.526-2.757,1.78
											c-1.258,0.258-2.822,0.002-4.049-1.022l0.591-0.11c-0.652,1.235-1.526,2.5-2.681,3.605
											c-0.744,0.704-1.576,1.311-2.504,1.683c-0.909,0.401-1.958,0.473-2.82,0.364c-1.789-0.133-3.377-1.035-4.139-2.183
											c-0.79-1.121-1.065-2.179-1.242-2.884c-0.168-0.714-0.197-1.12-0.149-1.132c0.06-0.016,0.193,0.366,0.45,1.039
											c0.261,0.664,0.623,1.66,1.393,2.627c1.404,1.969,5.782,2.844,8.454-0.102c1.073-1.025,1.919-2.222,2.559-3.38
											l0.233-0.423l0.359,0.313c0.996,0.867,2.336,1.14,3.427,0.959c1.109-0.171,1.958-0.798,2.497-1.431
											C422.152,208.997,422.103,207.849,422.227,207.881z"/>
									</g>
								</g>
							</g>
						</g>
					</g>
				</g>
			</g>
			<g>
				<path style="fill:#AE7461;" d="M256.021,391.954c0,0-26.527-0.795-28.117-1.292c-1.59-0.497-5.464-0.596-7.352,0
					c-1.888,0.596-9.439,3.279-9.439,3.279l-16.026,4.272c0,0-16.105,10.534-15.768,12.642c0.337,2.108,2.086,3.553,4.968,2.46
					c2.881-1.093,17.421-8.644,17.421-8.644l15.959-1.689c0,0,21.827,7.84,26.232,7.452c4.405-0.389,15.698-2.299,15.698-2.299
					s1.59-11.312,0.795-13.1C259.598,393.246,256.021,391.954,256.021,391.954z"/>
				<g>
					<path style="fill:#AE7461;" d="M180.472,420.225c0,0,13.443-14.415,17.169-16.359c3.725-1.944,24.457-5.345,24.457-5.345
						s6.641-2.754,9.07-1.782c2.43,0.972,28.183,4.859,29.316,5.021c1.134,0.162-5.507,22.676-5.507,22.676s-8.908,1.62-19.274-0.81
						c-10.366-2.43-13.929-5.669-13.929-5.669l-10.348-2.717l-6.331,2.415c0,0-1.137,9.373-5.673,8.887l-2.106-1.458l1.62-10.366
						l-6.641,2.753c0,0-5.183,7.775-9.07,6.641C179.338,422.978,180.472,420.225,180.472,420.225z"/>
					<g>
						<path style="fill:#6F4439;" d="M180.472,420.225c0.026,0.002-0.165,0.376-0.103,1.125c0.037,0.368,0.168,0.829,0.501,1.265
							c0.329,0.438,0.857,0.826,1.522,1.108c0.665,0.281,1.46,0.522,2.333,0.335c0.864-0.197,1.729-0.679,2.573-1.306
							c1.686-1.269,3.326-3.124,4.88-5.359l0.025-0.036l0.038-0.016c1.991-0.833,4.228-1.77,6.631-2.776l0.271-0.114l-0.045,0.292
							c-0.479,3.119-1.017,6.619-1.593,10.37l-0.08-0.188c0.643,0.443,1.37,0.944,2.109,1.453l-0.091-0.034
							c0.848,0.076,1.691-0.249,2.336-0.857c0.65-0.601,1.161-1.392,1.546-2.25c0.785-1.711,1.273-3.639,1.552-5.61l0.019-0.132
							l0.121-0.046c1.972-0.756,4.125-1.58,6.328-2.424l0.068-0.026l0.072,0.019c3.269,0.854,6.759,1.767,10.351,2.705l0.046,0.012
							l0.055,0.043c2.034,1.59,4.587,2.686,7.159,3.649c2.603,0.933,5.341,1.689,8.155,2.268c2.816,0.576,5.735,0.886,8.7,0.981
							c2.96,0.083,5.994-0.029,8.98-0.497l-0.203,0.182c0.458-1.589,0.95-3.297,1.445-5.015c1.422-5.093,2.852-10.107,3.891-15.063
							c0.119-0.618,0.235-1.242,0.283-1.846c0.012-0.149,0.015-0.302,0-0.419c0.01-0.065-0.062-0.103,0.041-0.019
							c0.018,0.01,0.039,0.015,0.057,0.015l-0.026-0.004l-0.059-0.009l-0.117-0.017l-0.934-0.14
							c-1.242-0.19-2.475-0.379-3.701-0.567c-2.449-0.386-4.866-0.767-7.246-1.142c-4.758-0.768-9.367-1.521-13.789-2.365
							c-1.108-0.231-2.189-0.416-3.286-0.752c-0.981-0.382-2.068-0.252-3.111-0.094c-2.094,0.371-4.1,1.055-5.995,1.8l-0.025,0.01
							l-0.023,0.004c-7.247,1.218-13.876,2.41-19.658,3.798c-1.443,0.349-2.837,0.725-4.12,1.206c-1.266,0.497-2.281,1.4-3.268,2.21
							c-1.957,1.66-3.657,3.302-5.189,4.782c-3.057,2.97-5.383,5.375-6.977,7.003c-0.783,0.805-1.389,1.427-1.814,1.863
							C180.695,420.02,180.472,420.225,180.472,420.225s0.191-0.238,0.585-0.673c0.414-0.447,1.004-1.084,1.768-1.908
							c1.564-1.658,3.862-4.091,6.896-7.092c1.522-1.495,3.21-3.151,5.168-4.835c0.491-0.42,0.997-0.842,1.542-1.242
							c0.535-0.407,1.136-0.79,1.799-1.041c1.317-0.503,2.711-0.885,4.159-1.244c5.797-1.423,12.419-2.641,19.673-3.884
							l-0.048,0.014c1.926-0.763,3.933-1.455,6.087-1.845c1.061-0.164,2.239-0.315,3.344,0.106c1.01,0.307,2.128,0.503,3.219,0.726
							c4.41,0.832,9.022,1.576,13.777,2.337c2.38,0.372,4.796,0.749,7.245,1.132c1.225,0.186,2.459,0.374,3.7,0.563l0.932,0.139
							l0.116,0.017l0.058,0.009l0.032,0.005c0.036,0.008,0.075,0.022,0.11,0.042c0.23,0.174,0.195,0.312,0.221,0.398
							c0.023,0.195,0.015,0.36,0.004,0.526c-0.052,0.656-0.17,1.281-0.29,1.91c-1.045,5-2.472,10.004-3.896,15.106
							c-0.496,1.72-0.989,3.429-1.447,5.02l-0.046,0.158l-0.158,0.025c-3.057,0.477-6.094,0.585-9.089,0.501
							c-2.993-0.099-5.939-0.414-8.785-0.999c-2.844-0.588-5.593-1.352-8.225-2.299c-1.313-0.479-2.592-1.015-3.824-1.619
							c-1.23-0.616-2.414-1.259-3.49-2.14l0.101,0.055c-3.589-0.947-7.077-1.867-10.344-2.729l0.139-0.008
							c-2.205,0.837-4.36,1.656-6.335,2.405l0.139-0.178c-0.294,2.024-0.79,3.963-1.608,5.735c-0.403,0.884-0.937,1.717-1.651,2.373
							c-0.704,0.664-1.689,1.047-2.651,0.949l-0.05-0.005l-0.042-0.029c-0.736-0.512-1.461-1.017-2.102-1.462l-0.099-0.069
							l0.019-0.119c0.596-3.748,1.151-7.245,1.646-10.362L199,414.87c-2.41,0.99-4.653,1.911-6.65,2.731l0.063-0.052
							c-1.592,2.253-3.253,4.101-4.985,5.379c-0.867,0.629-1.759,1.116-2.666,1.311c-0.923,0.188-1.768-0.083-2.431-0.379
							c-0.677-0.3-1.219-0.713-1.552-1.178c-0.338-0.463-0.461-0.947-0.486-1.327C180.255,420.584,180.472,420.225,180.472,420.225z
							"/>
					</g>
				</g>
				<g>
					<path style="fill:#6F4439;" d="M221.185,408.025c-0.005,0.036-0.368,0.025-1.021-0.025c-0.653-0.05-1.596-0.14-2.76-0.262
						c-1.207-0.134-2.582-0.287-4.083-0.454c-0.385-0.045-0.779-0.092-1.179-0.139c-0.402-0.06-0.753-0.034-1.175,0.025
						c-0.814,0.112-1.66,0.307-2.519,0.523c-3.372,0.979-6.746,1.63-8.045,3.63c-0.691,0.908-1.011,1.803-1.2,2.417
						c-0.18,0.621-0.229,0.98-0.266,0.977c-0.034-0.001-0.055-0.372,0.069-1.025c0.134-0.645,0.407-1.595,1.1-2.587
						c0.352-0.486,0.797-0.988,1.374-1.409c0.575-0.415,1.276-0.763,2.007-1.018c1.464-0.534,3.092-1.042,4.833-1.49
						c0.871-0.219,1.727-0.414,2.583-0.525c0.41-0.059,0.894-0.081,1.294-0.013c0.401,0.053,0.793,0.105,1.178,0.156
						c1.498,0.208,2.87,0.398,4.074,0.565c1.159,0.169,2.095,0.314,2.741,0.426C220.835,407.911,221.19,407.989,221.185,408.025z"/>
				</g>
				<g>
					<path style="fill:#6F4439;" d="M185.082,415.43c-0.023-0.025,0.366-0.431,1.112-1.12c0.746-0.688,1.846-1.661,3.24-2.823
						c1.396-1.16,3.08-2.516,5.025-3.929c0.977-0.701,2.017-1.418,3.144-2.097c0.568-0.334,1.156-0.659,1.791-0.936
						c0.653-0.275,1.31-0.451,1.982-0.636c5.371-1.48,10.398-1.867,13.976-2.404c1.729-0.215,3.163-0.393,4.261-0.53
						c1.008-0.114,1.567-0.159,1.572-0.124c0.005,0.036-0.545,0.149-1.544,0.325c-1.092,0.179-2.517,0.412-4.235,0.693
						c-3.567,0.63-8.577,1.075-13.893,2.542c-0.661,0.181-1.326,0.362-1.916,0.61c-0.6,0.26-1.176,0.574-1.734,0.899
						c-1.11,0.661-2.148,1.363-3.125,2.049c-1.948,1.382-3.651,2.704-5.072,3.824c-1.355,1.091-2.479,1.997-3.339,2.69
						C185.543,415.104,185.108,415.459,185.082,415.43z"/>
				</g>
			</g>
			<g>
				<path style="fill:#FF725E;" d="M352.612,321.503c0,0-7.073,9.71-12.676,21.379c-4.802,10.001-20.348,44.046-20.348,44.046
					l-63.325,3.324l0.934,24.466c0,0,61.164,21.79,74.856,17.587c13.692-4.203,28.277-19.99,28.277-19.99l6.548-103.2
					C366.879,309.115,361.446,308.091,352.612,321.503z"/>
				<path style="fill:#FF725E;" d="M365.852,309.347c0,0-16.237,36.829-18.61,52.43c-4.71,30.972-6.292,50.357-6.292,50.357
					l-5.521,47.93h108.149c0,0,3.581-88.831,1.281-118.616c-1.723-22.315-18.814-36.214-25.806-43.847
					c-0.421-0.459-2.347-6.707-2.347-6.707l-50.396,12.907L365.852,309.347z"/>
				<g>
					<path style="fill:#263238;" d="M360.622,314.944c0.008,0.004-0.034,0.122-0.125,0.349c-0.103,0.25-0.24,0.583-0.413,1.004
						c-0.382,0.908-0.925,2.199-1.618,3.848c-1.391,3.346-3.396,8.198-5.413,14.352c-2.031,6.148-4.018,13.612-5.591,22.031
						c-1.609,8.411-2.912,17.745-3.999,27.572c-1.993,19.676-3.797,37.485-5.106,50.411c-0.669,6.426-1.212,11.636-1.59,15.272
						c-0.197,1.778-0.35,3.17-0.459,4.149c-0.056,0.452-0.099,0.809-0.132,1.078c-0.033,0.242-0.054,0.366-0.063,0.365
						c-0.009-0.001-0.005-0.127,0.01-0.371c0.02-0.27,0.047-0.628,0.081-1.083c0.085-0.982,0.207-2.377,0.362-4.16
						c0.339-3.641,0.826-8.856,1.426-15.289c1.251-12.907,2.903-30.741,4.955-50.43c1.088-9.835,2.407-19.181,4.045-27.605
						c1.602-8.431,3.633-15.909,5.713-22.057c2.067-6.155,4.127-10.992,5.576-14.315c0.715-1.667,1.312-2.942,1.708-3.811
						c0.194-0.413,0.346-0.738,0.461-0.984C360.555,315.052,360.614,314.941,360.622,314.944z"/>
				</g>
				<g style="opacity:0.3;">
					<path d="M416.808,372.921c-0.995-9.813-5.404-19.656-13.476-25.323l-65.943,94.166c11.642,6.277,24.567,12.76,37.501,9.993
						c6.957-1.488,13.144-5.591,18.161-10.637c10.428-10.487,16.085-24.776,20.061-39.021
						C415.764,392.6,417.804,382.733,416.808,372.921z"/>
				</g>
				<g>
					<g>
						<path style="fill:#FF725E;" d="M424.284,361.545c-8.216,29.073-26.706,64.547-32.385,71.674
							c-11.093,13.923-25.754,16.929-34.501,16.929c-7.44,0-70.321-12.246-88.955-15.907c-3.146-0.618-5.612-3.056-6.271-6.194
							l-0.162-0.771l-8.389-2.259l4.467-22.509l0.891-1.247l89.933,2.829l0,0l26.162-72.866c0.494-0.833,8.05-25.285,28.536-24.174"
							/>
						<g>
							<path style="fill:#263238;" d="M403.61,307.048c0,0-0.23,0.01-0.68,0.009c-0.45,0.008-1.122-0.036-2.004,0.049
								c-1.756,0.104-4.403,0.461-7.557,1.795c-3.128,1.357-6.681,3.814-9.869,7.613c-3.222,3.779-6.052,8.767-8.3,14.783
								l0.012-0.025c-6.607,18.462-15.58,43.534-26.086,72.893l-0.056,0.155l-0.165-0.005c-26.764-0.832-57.342-1.783-89.934-2.797
								l0.219-0.108c-0.279,0.39-0.585,0.819-0.891,1.247l0.043-0.1c-1.292,6.51-2.666,13.435-4.055,20.435
								c-0.141,0.71-0.282,1.42-0.411,2.074l-0.188-0.302c2.913,0.784,5.731,1.544,8.389,2.259l0.164,0.044l0.023,0.154
								c0.286,1.872,1.098,3.598,2.472,4.846c0.672,0.623,1.451,1.132,2.299,1.474c0.838,0.361,1.754,0.498,2.686,0.685
								c3.696,0.722,7.365,1.439,11.006,2.15c7.286,1.402,14.459,2.782,21.501,4.136c14.091,2.67,27.665,5.209,40.614,7.4
								c3.239,0.537,6.438,1.051,9.601,1.498c1.583,0.198,3.156,0.42,4.708,0.491c1.563,0.021,3.124-0.058,4.658-0.233
								c6.152-0.655,11.955-2.603,16.997-5.453c5.059-2.85,9.28-6.663,12.683-10.819c1.677-2.091,3.027-4.374,4.363-6.582
								c1.31-2.227,2.546-4.433,3.717-6.606c9.312-17.426,15.409-32.202,19.283-42.49c1.904-5.161,3.257-9.208,4.118-11.968
								c0.424-1.374,0.747-2.424,0.969-3.142c0.221-0.707,0.346-1.065,0.346-1.065s-0.092,0.368-0.297,1.08
								c-0.21,0.721-0.518,1.776-0.921,3.158c-0.83,2.771-2.154,6.831-4.03,12.006c-3.82,10.317-9.869,25.123-19.151,42.592
								c-1.167,2.179-2.4,4.392-3.709,6.628c-1.336,2.218-2.683,4.509-4.382,6.637c-3.422,4.196-7.676,8.053-12.78,10.939
								c-5.087,2.887-10.944,4.861-17.158,5.532c-1.551,0.179-3.125,0.26-4.712,0.241c-1.601-0.071-3.174-0.293-4.764-0.49
								c-3.171-0.444-6.374-0.955-9.616-1.489c-12.959-2.179-26.537-4.707-40.631-7.37c-7.043-1.352-14.217-2.729-21.504-4.127
								c-3.642-0.71-7.312-1.426-11.008-2.147c-0.91-0.183-1.878-0.327-2.784-0.714c-0.905-0.366-1.737-0.908-2.454-1.573
								c-1.461-1.308-2.344-3.225-2.627-5.119l0.187,0.198c-2.657-0.715-5.476-1.474-8.389-2.259l-0.235-0.063l0.047-0.239
								c0.13-0.654,0.27-1.363,0.411-2.074c1.39-7,2.764-13.925,4.057-20.435l0.011-0.055l0.033-0.046
								c0.306-0.429,0.613-0.857,0.891-1.247l0.081-0.113l0.138,0.004c32.59,1.037,63.168,2.01,89.932,2.861l-0.221,0.15
								c10.568-29.337,19.593-54.39,26.238-72.838l0.012-0.025c2.232-5.94,5.129-11.014,8.379-14.781
								c3.225-3.809,6.821-6.266,9.981-7.609c3.186-1.32,5.85-1.653,7.614-1.732c0.886-0.072,1.559-0.015,2.01-0.01
								C403.382,307.031,403.61,307.048,403.61,307.048z"/>
						</g>
					</g>
				</g>
				<g>
					<path style="fill:#263238;" d="M329.095,398.319c-0.155,0.08-1.399-3.248-4.336-6.364c-2.901-3.151-6.132-4.627-6.041-4.776
						c0.024-0.054,0.858,0.237,2.093,0.947c1.233,0.707,2.84,1.88,4.33,3.474c1.484,1.598,2.54,3.284,3.158,4.564
						C328.92,397.446,329.151,398.298,329.095,398.319z"/>
				</g>
				<g>
					<path style="fill:#263238;" d="M359.786,421.719c-0.089,0.013-0.264-1.153-0.786-2.967c-0.517-1.813-1.456-4.261-2.951-6.719
						c-1.504-2.453-3.252-4.407-4.629-5.696c-1.375-1.293-2.332-1.981-2.28-2.055c0.021-0.03,0.277,0.117,0.725,0.409
						c0.453,0.285,1.072,0.752,1.801,1.373c1.46,1.236,3.293,3.194,4.827,5.698c1.526,2.508,2.43,5.033,2.862,6.896
						c0.219,0.932,0.351,1.696,0.398,2.229C359.809,421.419,359.822,421.714,359.786,421.719z"/>
				</g>
				<g style="opacity:0.3;">
					<path d="M335.797,403.521l5.235,0.194c0.844-20.541,5.078-41.024,8.7-61.261C340.5,361.307,338.081,382.656,335.797,403.521z"
						/>
				</g>
				<g>
					<path style="fill:#263238;" d="M417.297,297.601c0.004,0.017-0.166,0.076-0.494,0.172c-0.386,0.106-0.862,0.236-1.439,0.395
						c-1.327,0.353-3.12,0.83-5.302,1.41c-4.477,1.189-10.646,2.895-17.504,4.625c-6.86,1.734-13.133,3.068-17.711,3.82
						c-2.288,0.378-4.147,0.645-5.437,0.777c-0.596,0.06-1.087,0.11-1.486,0.15c-0.34,0.029-0.52,0.035-0.522,0.017
						c-0.002-0.018,0.173-0.059,0.509-0.121c0.395-0.066,0.881-0.148,1.471-0.247c1.28-0.194,3.126-0.515,5.401-0.939
						c4.551-0.843,10.795-2.231,17.648-3.963c6.851-1.728,13.036-3.378,17.54-4.476c2.25-0.556,4.078-0.978,5.345-1.25
						c0.587-0.12,1.07-0.219,1.463-0.3C417.114,297.608,417.292,297.584,417.297,297.601z"/>
				</g>
			</g>
		</g>
	</g>
</g>
</svg>
