<?xml version="1.0" encoding="utf-8"?>
<!-- Generator: Adobe Illustrator 27.5.0, SVG Export Plug-In . SVG Version: 6.00 Build 0)  -->
<svg version="1.1" xmlns="http://www.w3.org/2000/svg" xmlns:xlink="http://www.w3.org/1999/xlink" x="0px" y="0px"
	 viewBox="0 0 500 500" style="enable-background:new 0 0 500 500;" xml:space="preserve">
<g id="Background_Complete">
	<g>
		<g>
			<path style="fill:#E0E0E0;" d="M322.507,470.293c0,0-0.135,0.096-0.415,0.261c-0.272,0.179-0.711,0.384-1.299,0.626
				c-1.182,0.447-3.068,0.84-5.479,0.612c-2.405-0.217-5.288-1.026-8.379-2.49c-3.1-1.398-6.491-3.409-10.654-4.359
				c-2.074-0.454-4.333-0.497-6.605-0.038c-2.276,0.45-4.539,1.355-6.808,2.429c-2.275,1.07-4.567,2.324-7.039,3.414
				c-2.467,1.079-5.156,1.986-8.035,2.187c-2.881,0.182-5.819-0.436-8.631-1.426c-2.822-0.997-5.543-2.366-8.342-3.647
				c-2.794-1.285-5.7-2.488-8.795-3.112c-3.1-0.564-6.351-0.443-9.51,0.303c-6.35,1.488-11.98,4.683-17.766,6.875
				c-2.892,1.103-5.848,1.971-8.832,2.297c-0.74,0.132-1.49,0.109-2.231,0.144c-0.742,0.047-1.479,0.015-2.212-0.033
				c-1.463-0.119-2.894-0.361-4.286-0.684c-5.564-1.356-10.419-3.817-15.23-5.265c-4.811-1.431-9.508-2.027-13.778-1.947
				c-8.584,0.099-15.297,2.428-19.599,4.451c-2.149,1.054-3.753,2.002-4.807,2.692c-0.511,0.339-0.909,0.602-1.197,0.793
				c-0.272,0.176-0.419,0.256-0.419,0.256s0.126-0.108,0.388-0.299c0.281-0.201,0.67-0.479,1.17-0.837
				c1.039-0.72,2.632-1.7,4.777-2.787c4.294-2.089,11.033-4.489,19.682-4.637c4.303-0.104,9.045,0.474,13.909,1.902
				c4.859,1.446,9.724,3.89,15.214,5.211c1.372,0.315,2.779,0.549,4.212,0.663c0.717,0.046,1.439,0.076,2.166,0.028
				c0.725-0.036,1.459-0.013,2.185-0.145c2.925-0.325,5.838-1.182,8.706-2.28c5.741-2.178,11.378-5.389,17.833-6.906
				c3.211-0.759,6.548-0.885,9.723-0.304c3.165,0.64,6.108,1.864,8.91,3.157c2.807,1.289,5.515,2.655,8.296,3.642
				c2.772,0.98,5.636,1.585,8.436,1.415c2.797-0.19,5.435-1.066,7.881-2.128c2.45-1.071,4.746-2.317,7.039-3.386
				c2.288-1.072,4.587-1.983,6.915-2.433c2.323-0.46,4.648-0.403,6.761,0.072c4.239,0.995,7.621,3.039,10.7,4.455
				c3.058,1.48,5.9,2.306,8.275,2.552c2.379,0.256,4.242-0.098,5.423-0.509C321.94,470.649,322.486,470.254,322.507,470.293z"/>
		</g>
	</g>
	<g>
		<g>
			<path style="fill:#E0E0E0;" d="M472.963,439.081c-0.007,0.017-0.211-0.05-0.591-0.193c-0.431-0.166-0.981-0.377-1.659-0.638
				c-1.44-0.551-3.521-1.366-6.168-2.107c-2.636-0.704-5.917-1.36-9.496-0.838c-1.786,0.245-3.574,0.883-5.402,1.652
				c-1.83,0.743-3.752,1.6-5.897,1.894c-2.155,0.315-4.272-0.158-6.158-0.78c-1.902-0.621-3.67-1.356-5.417-1.809
				c-3.498-0.923-6.857-0.491-9.427,0.383c-2.594,0.886-4.441,2.188-5.608,3.171c-1.16,1.005-1.694,1.678-1.737,1.64
				c-0.014-0.011,0.115-0.182,0.374-0.497c0.25-0.324,0.668-0.758,1.229-1.295c1.14-1.042,2.987-2.416,5.621-3.366
				c2.608-0.938,6.055-1.426,9.668-0.501c1.793,0.452,3.578,1.183,5.454,1.788c1.866,0.608,3.887,1.049,5.931,0.75
				c2.047-0.278,3.937-1.11,5.775-1.851c1.831-0.763,3.684-1.416,5.525-1.655c3.689-0.51,7.018,0.203,9.665,0.958
				c2.659,0.793,4.725,1.665,6.144,2.274c0.708,0.309,1.256,0.554,1.623,0.729C472.78,438.965,472.97,439.064,472.963,439.081z"/>
		</g>
	</g>
	<g>
		<g>
			<g>
				<path style="fill:#E0E0E0;" d="M443.649,149.248c-0.01,0.028-0.302-0.079-0.845-0.188c-0.54-0.108-1.346-0.202-2.319-0.061
					c-0.967,0.138-2.107,0.532-3.103,1.359c-0.995,0.811-1.846,2.036-2.186,3.483l-0.01,0.038l-0.133,0.516l-0.198-0.49
					c-0.558-1.377-1.547-2.475-2.621-3.176c-1.077-0.713-2.236-1.014-3.207-1.089c-1.974-0.134-3.128,0.482-3.142,0.399
					c-0.008-0.017,0.263-0.173,0.798-0.347c0.533-0.171,1.345-0.345,2.359-0.298c1.006,0.045,2.227,0.333,3.366,1.065
					c1.134,0.719,2.182,1.863,2.77,3.315l-0.331,0.027l0.01-0.041c0.361-1.533,1.266-2.814,2.323-3.653
					c1.06-0.855,2.268-1.243,3.273-1.353c1.014-0.114,1.84,0.023,2.382,0.173C443.38,149.081,443.656,149.232,443.649,149.248z"/>
			</g>
		</g>
	</g>
	<g>
		<g>
			<g>
				<path style="fill:#E0E0E0;" d="M342.261,107.623c0.021,0.021-0.271,0.322-0.768,0.888c-0.498,0.565-1.178,1.421-1.887,2.562
					c-1.426,2.252-2.853,5.837-2.804,9.948c0,0.043-0.001,0.086-0.001,0.125l-0.346,0.029c-0.596-4.044-2.718-7.266-4.58-9.129
					c-1.873-1.903-3.396-2.641-3.345-2.712c0.006-0.01,0.1,0.033,0.275,0.126c0.171,0.098,0.437,0.222,0.75,0.432
					c0.64,0.394,1.525,1.041,2.494,1.981c0.97,0.937,1.997,2.198,2.871,3.763c0.876,1.56,1.569,3.438,1.88,5.49l-0.346,0.029
					c0-0.04,0.001-0.084,0.001-0.128c-0.05-4.196,1.445-7.837,2.944-10.084c0.745-1.139,1.462-1.981,1.995-2.522
					c0.257-0.279,0.485-0.468,0.63-0.606C342.171,107.68,342.253,107.614,342.261,107.623z"/>
			</g>
		</g>
	</g>
	<g>
		<g>
			<path style="fill:#F5F5F5;" d="M112.134,162.759c0.558-4.051-5.159-7.383-9.455-7.729c-2.049-0.165-4.176,0.148-6.117-0.528
				c-4.205-1.465-5.884-6.898-9.987-8.628c-3.067-1.294-6.599-0.142-9.572,1.354c-2.974,1.497-5.912,3.38-9.235,3.593
				c-2.89,0.185-6.028-0.887-8.556,0.525c-1.884,1.052-2.871,3.223-4.607,4.504c-1.699,1.253-3.915,1.518-6.023,1.633
				c-2.108,0.115-4.29,0.136-6.209,1.015c-1.919,0.879-3.507,2.908-3.109,4.981L112.134,162.759z"/>
		</g>
	</g>
	<g>
		<g>
			<path style="fill:#F5F5F5;" d="M466.859,223.952c0.671-4.873-6.207-8.882-11.375-9.299c-2.465-0.199-5.025,0.178-7.359-0.636
				c-5.059-1.763-7.079-8.299-12.015-10.38c-3.69-1.557-7.939-0.171-11.516,1.63c-3.578,1.8-7.113,4.066-11.11,4.322
				c-3.477,0.223-7.252-1.067-10.294,0.632c-2.267,1.266-3.454,3.877-5.543,5.418c-2.044,1.508-4.71,1.827-7.246,1.965
				c-2.536,0.138-5.161,0.164-7.47,1.221c-2.309,1.057-4.22,3.499-3.74,5.993L466.859,223.952z"/>
		</g>
	</g>
	<g>
		<g>
			<path style="fill:#EBEBEB;" d="M301.951,53.47c0.701-5.092-6.485-9.281-11.885-9.716c-2.575-0.208-5.25,0.186-7.689-0.664
				c-5.285-1.842-7.397-8.67-12.554-10.846c-3.856-1.626-8.295-0.179-12.032,1.703c-3.738,1.881-7.432,4.249-11.608,4.516
				c-3.632,0.233-7.577-1.115-10.755,0.66c-2.368,1.322-3.609,4.051-5.792,5.661c-2.135,1.575-4.921,1.909-7.571,2.053
				c-2.65,0.144-5.393,0.171-7.805,1.276c-2.413,1.105-4.409,3.656-3.908,6.262L301.951,53.47z"/>
		</g>
	</g>
	<g>
		<g>
			<path style="fill:#EBEBEB;" d="M442.798,305.889c0.533-3.875-4.935-7.063-9.045-7.394c-1.96-0.158-3.995,0.142-5.852-0.505
				c-4.022-1.402-5.629-6.599-9.554-8.254c-2.934-1.238-6.313-0.136-9.157,1.296c-2.845,1.432-5.656,3.233-8.834,3.437
				c-2.764,0.177-5.766-0.848-8.185,0.502c-1.802,1.006-2.746,3.083-4.408,4.308c-1.625,1.199-3.745,1.453-5.761,1.562
				c-2.016,0.11-4.104,0.13-5.94,0.971c-1.836,0.841-3.355,2.782-2.974,4.765L442.798,305.889z"/>
		</g>
	</g>
</g>
<g id="Background_Simple" style="display:none;">
	<g style="display:inline;">
		<path style="fill:#F5F5F5;" d="M319.152,76.944l-1.948,1.26c-16.424,10.625-25.973,29.256-24.194,48.558
			c0.229,2.481,0.636,4.947,1.229,7.373c4.269,17.473,18.005,32.388,35.215,38.239c10.121,3.441,21.681,4.151,29.833,10.999
			c10.61,8.912,11.385,24.54,11.352,38.299c-0.033,13.76,0.783,29.396,11.432,38.263c6.669,5.553,15.972,7.111,24.669,6.397
			c23.026-1.889,43.184-18.553,52.846-39.284c9.661-20.732,9.887-44.82,4.734-67.057c-7.218-31.151-25.421-60.449-52.728-77.589
			C384.286,65.264,347.656,61.782,319.152,76.944z"/>
	</g>
	<g style="display:inline;">
		<circle style="fill:#F5F5F5;" cx="66.455" cy="163.478" r="38.59"/>
	</g>
</g>
<g id="Sea">
	<g>
		<g>
			<path style="fill:#263238;" d="M473.38,413.932c0,0.144-102.587,0.26-229.105,0.26c-126.562,0-229.127-0.117-229.127-0.26
				c0-0.144,102.565-0.26,229.127-0.26C370.793,413.672,473.38,413.788,473.38,413.932z"/>
		</g>
	</g>
</g>
<g id="Sun">
	<g>
		<g>
			<g>
				<circle style="fill:#FF725E;" cx="104.094" cy="86.209" r="17.413"/>
			</g>
		</g>
		<g>
			<g>
				<g>
					<path style="fill:#FF725E;" d="M101.614,125.146c-0.101,0-0.183-3.216-0.183-7.182c0-3.968,0.082-7.183,0.183-7.183
						c0.101,0,0.183,3.215,0.183,7.183C101.797,121.93,101.715,125.146,101.614,125.146z"/>
				</g>
			</g>
		</g>
		<g>
			<g>
				<g>
					<path style="fill:#FF725E;" d="M91.579,106.731c0.088,0.051-1.55,3.051-3.658,6.701c-2.108,3.651-3.888,6.569-3.976,6.518
						c-0.088-0.051,1.55-3.05,3.658-6.701C89.711,109.599,91.491,106.681,91.579,106.731z"/>
				</g>
			</g>
		</g>
		<g>
			<g>
				<g>
					<path style="fill:#FF725E;" d="M81.28,100.319c0.063,0.079-1.758,1.631-4.067,3.466c-2.31,1.836-4.232,3.259-4.295,3.18
						c-0.063-0.079,1.758-1.631,4.067-3.467C79.294,101.663,81.217,100.24,81.28,100.319z"/>
				</g>
			</g>
		</g>
		<g>
			<g>
				<g>
					<path style="fill:#FF725E;" d="M118.985,118.07c-0.052,0.009-0.208-0.671-0.459-1.767c-0.25-1.096-0.606-2.607-1.05-4.262
						c-0.446-1.655-0.897-3.141-1.23-4.215c-0.333-1.074-0.539-1.74-0.489-1.759c0.045-0.017,0.337,0.618,0.735,1.675
						c0.397,1.056,0.89,2.538,1.338,4.203c0.447,1.664,0.764,3.194,0.95,4.307C118.967,117.365,119.033,118.062,118.985,118.07z"/>
				</g>
			</g>
		</g>
		<g>
			<g>
				<g>
					<path style="fill:#FF725E;" d="M136.647,105.537c-0.067,0.076-2.371-1.829-5.147-4.255c-2.777-2.427-4.973-4.456-4.906-4.532
						c0.067-0.076,2.371,1.829,5.147,4.256C134.518,103.432,136.714,105.461,136.647,105.537z"/>
				</g>
			</g>
		</g>
		<g>
			<g>
				<g>
					<path style="fill:#FF725E;" d="M143.412,88.314c-0.012,0.052-0.81-0.088-2.1-0.302c-1.29-0.215-3.074-0.491-5.054-0.719
						c-1.981-0.226-3.781-0.361-5.086-0.444c-1.305-0.083-2.114-0.128-2.114-0.181c0-0.047,0.811-0.095,2.124-0.078
						c1.312,0.017,3.126,0.111,5.118,0.339c1.991,0.229,3.779,0.548,5.061,0.829C142.643,88.038,143.423,88.267,143.412,88.314z"/>
				</g>
			</g>
		</g>
		<g>
			<g>
				<g>
					<path style="fill:#FF725E;" d="M143.434,71.377c0.024,0.098-3.746,1.101-8.419,2.24c-4.675,1.139-8.483,1.982-8.507,1.883
						c-0.024-0.098,3.745-1.101,8.42-2.24C139.602,72.122,143.41,71.279,143.434,71.377z"/>
				</g>
			</g>
		</g>
		<g>
			<g>
				<g>
					<path style="fill:#FF725E;" d="M123.757,51.644c0.085,0.056-1.719,2.933-4.028,6.426c-2.309,3.494-4.25,6.28-4.334,6.224
						c-0.084-0.056,1.719-2.932,4.028-6.426C121.732,54.375,123.673,51.588,123.757,51.644z"/>
				</g>
			</g>
		</g>
		<g>
			<g>
				<g>
					<path style="fill:#FF725E;" d="M104.229,47.522c0.052,0.003,0.046,0.916,0.025,2.391c-0.021,1.474-0.05,3.51-0.048,5.759
						c0.003,2.25,0.036,4.285,0.061,5.76c0.024,1.474,0.032,2.388-0.02,2.39c-0.049,0.003-0.148-0.906-0.239-2.381
						c-0.091-1.474-0.166-3.515-0.169-5.77c-0.002-2.254,0.068-4.294,0.156-5.769C104.083,48.429,104.181,47.519,104.229,47.522z"/>
				</g>
			</g>
		</g>
		<g>
			<g>
				<g>
					<path style="fill:#FF725E;" d="M89.441,65.94c-0.086,0.053-1.921-2.792-4.096-6.352c-2.177-3.562-3.871-6.491-3.784-6.544
						c0.086-0.053,1.92,2.791,4.097,6.353C87.834,62.957,89.528,65.887,89.441,65.94z"/>
				</g>
			</g>
		</g>
		<g>
			<g>
				<g>
					<path style="fill:#FF725E;" d="M80.608,73.448c-0.01,0.048-0.719-0.056-1.852-0.294c-1.132-0.238-2.686-0.618-4.38-1.117
						c-1.694-0.5-3.205-1.024-4.285-1.439c-1.08-0.414-1.732-0.712-1.715-0.758c0.018-0.049,0.701,0.163,1.8,0.513
						c1.099,0.351,2.616,0.834,4.303,1.332c1.687,0.497,3.223,0.915,4.337,1.216C79.93,73.203,80.619,73.396,80.608,73.448z"/>
				</g>
			</g>
		</g>
		<g>
			<g>
				<g>
					<path style="fill:#FF725E;" d="M76.748,86.826c0.01,0.101-2.479,0.423-5.557,0.719c-3.079,0.296-5.583,0.454-5.592,0.354
						c-0.01-0.101,2.478-0.422,5.557-0.718C74.235,86.883,76.738,86.725,76.748,86.826z"/>
				</g>
			</g>
		</g>
	</g>
</g>
<g id="Birds">
	<g>
		<g>
			<g>
				<path style="fill:#263238;" d="M391.042,88.754c-0.012,0.034-0.601-0.208-1.714-0.455c-1.107-0.243-2.769-0.458-4.784-0.184
					c-2.001,0.268-4.372,1.072-6.447,2.78c-2.071,1.677-3.843,4.215-4.55,7.225c-0.007,0.027-0.014,0.055-0.021,0.08l-0.133,0.516
					l-0.198-0.49c-1.158-2.86-3.216-5.133-5.448-6.578c-2.238-1.472-4.645-2.081-6.654-2.218c-2.021-0.141-3.661,0.149-4.754,0.435
					c-1.097,0.289-1.677,0.544-1.69,0.512c-0.005-0.011,0.137-0.079,0.413-0.2c0.275-0.122,0.691-0.281,1.24-0.442
					c1.092-0.328,2.748-0.662,4.805-0.55c2.043,0.108,4.512,0.704,6.811,2.194c2.293,1.463,4.408,3.783,5.597,6.717l-0.331,0.027
					c0.007-0.026,0.014-0.054,0.021-0.082c0.728-3.095,2.555-5.691,4.688-7.395c2.138-1.737,4.577-2.535,6.616-2.775
					c2.056-0.247,3.738,0.01,4.847,0.296c0.558,0.14,0.982,0.285,1.261,0.399C390.901,88.679,391.046,88.743,391.042,88.754z"/>
			</g>
		</g>
	</g>
	<g>
		<g>
			<g>
				<path style="fill:#263238;" d="M463.572,101.072c-0.011,0.029-0.338-0.094-0.95-0.221c-0.609-0.124-1.518-0.233-2.617-0.076
					c-1.092,0.153-2.381,0.597-3.508,1.53c-1.125,0.916-2.087,2.299-2.472,3.936l-0.011,0.044l-0.133,0.516l-0.198-0.49
					c-0.63-1.556-1.749-2.796-2.963-3.587c-1.217-0.805-2.527-1.143-3.624-1.225c-1.104-0.084-2.002,0.066-2.603,0.214
					c-0.604,0.149-0.926,0.28-0.938,0.252c-0.005-0.011,0.071-0.053,0.222-0.124c0.15-0.072,0.378-0.164,0.68-0.258
					c0.6-0.19,1.515-0.383,2.655-0.328c1.132,0.053,2.503,0.377,3.782,1.202c1.274,0.809,2.451,2.095,3.112,3.726l-0.331,0.027
					l0.012-0.046c0.405-1.722,1.422-3.162,2.609-4.106c1.19-0.962,2.547-1.399,3.677-1.525c1.14-0.13,2.07,0.021,2.68,0.188
					c0.307,0.082,0.539,0.167,0.692,0.234C463.498,101.021,463.576,101.061,463.572,101.072z"/>
			</g>
		</g>
	</g>
	<g>
		<g>
			<g>
				<path style="fill:#263238;" d="M429.016,49.946c0.021,0.022-0.327,0.375-0.92,1.043c-0.593,0.667-1.402,1.68-2.245,3.031
					c-1.696,2.667-3.392,6.919-3.334,11.796c0,0.051-0.001,0.102-0.001,0.149l-0.346,0.028c-0.36-2.38-1.154-4.564-2.157-6.389
					c-1-1.83-2.174-3.317-3.284-4.436c-1.108-1.122-2.119-1.914-2.847-2.414c-0.726-0.502-1.147-0.756-1.132-0.783
					c0.006-0.01,0.116,0.043,0.322,0.154c0.202,0.118,0.516,0.267,0.884,0.516c0.756,0.469,1.801,1.238,2.945,2.353
					c1.146,1.111,2.359,2.603,3.391,4.455c1.034,1.846,1.853,4.067,2.221,6.493l-0.346,0.028c0-0.048,0.001-0.099,0.001-0.151
					c-0.06-4.963,1.706-9.27,3.474-11.932c0.88-1.35,1.725-2.348,2.353-2.991c0.303-0.332,0.572-0.557,0.741-0.721
					C428.913,50.017,429.008,49.937,429.016,49.946z"/>
			</g>
		</g>
	</g>
</g>
<g id="Buoy">
	<g>
		<g>
			<g>
				<g>
					
						<rect x="447.783" y="351.285" transform="matrix(-0.9038 0.428 -0.428 -0.9038 1015.6002 510.4909)" style="fill:#455A64;" width="5.261" height="36.256"/>
				</g>
				<g>
					<g>
						<path style="fill:#263238;" d="M445.028,351.712c0.13-0.062,2.887,5.428,6.158,12.261c3.272,6.835,5.819,12.425,5.689,12.487
							c-0.13,0.062-2.887-5.427-6.159-12.262C447.445,357.365,444.898,351.775,445.028,351.712z"/>
					</g>
				</g>
				<g>
					<g>
						<path style="fill:#263238;" d="M443.433,360.664c0.13-0.061,2.842,5.428,6.057,12.258c3.216,6.833,5.716,12.42,5.586,12.481
							c-0.13,0.061-2.842-5.427-6.058-12.259C445.804,366.313,443.303,360.725,443.433,360.664z"/>
					</g>
				</g>
			</g>
			<g>
				<g>
					
						<rect x="446.621" y="351.466" transform="matrix(0.7003 0.7138 -0.7138 0.7003 398.4449 -209.9275)" style="fill:#455A64;" width="5.261" height="36.256"/>
				</g>
				<g>
					<g>
						<path style="fill:#263238;" d="M460.419,354.842c0.1,0.103-4.221,4.47-9.65,9.753c-5.431,5.285-9.914,9.484-10.015,9.38
							c-0.1-0.103,4.22-4.469,9.651-9.754C455.835,358.939,460.319,354.739,460.419,354.842z"/>
					</g>
				</g>
				<g>
					<g>
						<path style="fill:#263238;" d="M458.824,363.794c0.101,0.102-4.176,4.483-9.552,9.783c-5.378,5.302-9.818,9.515-9.919,9.413
							c-0.101-0.102,4.175-4.482,9.553-9.784C454.282,367.906,458.723,363.691,458.824,363.794z"/>
					</g>
				</g>
			</g>
			<g>
				<path style="fill:#455A64;" d="M461.366,349.96l-15.359-2.736c-1.556-0.277-2.593-1.764-2.316-3.32l3.032-17.02
					c0.533-2.992,3.39-4.985,6.382-4.452l10.162,1.811c2.992,0.533,4.985,3.39,4.452,6.382l-3.032,17.02
					C464.409,349.2,462.922,350.237,461.366,349.96z"/>
			</g>
			<g>
				
					<rect x="444.73" y="337.041" transform="matrix(0.9845 0.1754 -0.1754 0.9845 66.5216 -74.6198)" style="fill:#FFFFFF;" width="21.326" height="3.939"/>
			</g>
			<g>
				
					<rect x="446.043" y="329.672" transform="matrix(0.9845 0.1754 -0.1754 0.9845 65.2514 -74.9661)" style="fill:#FFFFFF;" width="21.326" height="3.939"/>
			</g>
			<g>
				<g>
					<path style="fill:#263238;" d="M461.366,349.96c0.003-0.03,0.307,0.047,0.871-0.033c0.544-0.084,1.411-0.409,1.975-1.33
						c0.296-0.451,0.376-1.039,0.482-1.705c0.111-0.662,0.231-1.377,0.36-2.143c0.264-1.545,0.562-3.294,0.891-5.222
						c0.335-1.938,0.702-4.056,1.095-6.327c0.099-0.569,0.2-1.147,0.302-1.734c0.098-0.595,0.235-1.178,0.227-1.762
						c0.01-1.175-0.387-2.396-1.182-3.354c-1.559-2.134-4.603-1.987-7.317-2.596c-1.39-0.246-2.805-0.497-4.241-0.752
						c-0.711-0.117-1.457-0.279-2.153-0.363c-0.7-0.073-1.419-0.004-2.1,0.209c-1.368,0.418-2.518,1.421-3.129,2.668
						c-0.321,0.629-0.461,1.284-0.576,2.008c-0.127,0.707-0.252,1.408-0.377,2.103c-0.5,2.779-0.983,5.46-1.443,8.016
						c-0.231,1.276-0.457,2.522-0.676,3.732c-0.11,0.605-0.218,1.201-0.325,1.788c-0.101,0.6-0.253,1.146-0.149,1.669
						c0.16,1.065,1.003,1.927,1.974,2.154c1.048,0.196,2.054,0.384,3.016,0.564c3.823,0.716,6.932,1.299,9.139,1.712
						c1.042,0.206,1.868,0.37,2.48,0.491C461.073,349.871,461.369,349.942,461.366,349.96c-0.003,0.018-0.305-0.018-0.877-0.103
						c-0.616-0.098-1.448-0.229-2.497-0.395c-2.213-0.374-5.333-0.901-9.168-1.549c-0.972-0.171-1.988-0.35-3.047-0.536
						c-1.121-0.251-2.107-1.236-2.304-2.474c-0.123-0.627,0.047-1.249,0.137-1.817c0.103-0.588,0.207-1.184,0.313-1.79
						c0.212-1.212,0.431-2.458,0.654-3.736c0.451-2.558,0.924-5.24,1.414-8.021c0.123-0.695,0.247-1.397,0.373-2.104
						c0.107-0.692,0.27-1.473,0.619-2.148c0.672-1.373,1.934-2.475,3.438-2.935c0.748-0.234,1.54-0.31,2.31-0.229
						c0.772,0.095,1.463,0.249,2.191,0.37c1.435,0.257,2.85,0.51,4.24,0.759c1.389,0.25,2.754,0.495,4.092,0.736
						c1.396,0.241,2.664,1.004,3.508,2.061c0.861,1.05,1.287,2.383,1.267,3.661c0.001,0.651-0.147,1.257-0.246,1.835
						c-0.107,0.586-0.212,1.164-0.315,1.732c-0.415,2.267-0.803,4.38-1.157,6.316c-0.357,1.923-0.681,3.668-0.967,5.209
						c-0.144,0.763-0.278,1.476-0.402,2.136c-0.115,0.644-0.221,1.294-0.554,1.769c-0.635,0.971-1.567,1.272-2.134,1.327
						C461.661,350.079,461.366,349.96,461.366,349.96z"/>
				</g>
			</g>
			<g>
				
					<rect x="458.032" y="350.212" transform="matrix(0.9845 0.1754 -0.1754 0.9845 71.8662 -75.0737)" style="fill:#455A64;" width="5.261" height="37.669"/>
			</g>
			<g>
				
					<rect x="437.043" y="347.36" transform="matrix(0.9845 0.1754 -0.1754 0.9845 71.049 -71.4436)" style="fill:#455A64;" width="5.261" height="37.669"/>
			</g>
			<g>
				<path style="fill:#455A64;" d="M469.635,355.582l-33.33-5.938c-1.717-0.306-2.861-1.946-2.555-3.663l0.079-0.445
					c0.306-1.717,1.946-2.861,3.663-2.555l33.33,5.938c1.717,0.306,2.861,1.946,2.555,3.663l-0.079,0.445
					C472.992,354.743,471.352,355.887,469.635,355.582z"/>
			</g>
			<g>
				<g>
					<path style="fill:#263238;" d="M470.031,355.652c-0.025,0.142-7.655-1.099-17.041-2.771
						c-9.388-1.673-16.976-3.143-16.951-3.285c0.025-0.142,7.654,1.099,17.042,2.772
						C462.467,354.04,470.057,355.511,470.031,355.652z"/>
				</g>
			</g>
			<g>
				<g>
					<path style="fill:#263238;" d="M471.207,349.054c-0.025,0.142-7.656-1.099-17.041-2.771
						c-9.388-1.673-16.976-3.143-16.951-3.285c0.025-0.141,7.654,1.099,17.042,2.772
						C463.643,347.442,471.232,348.913,471.207,349.054z"/>
				</g>
			</g>
			<g>
				<g>
					<path style="fill:#263238;" d="M438.963,385.181c-0.142-0.025,1.093-7.621,2.758-16.962c1.665-9.345,3.129-16.898,3.271-16.873
						c0.141,0.025-1.093,7.619-2.758,16.964C440.569,377.652,439.104,385.206,438.963,385.181z"/>
				</g>
			</g>
			<g>
				<g>
					<path style="fill:#263238;" d="M454.619,387.97c-0.142-0.025,1.093-7.621,2.758-16.963c1.665-9.345,3.129-16.898,3.271-16.873
						c0.141,0.025-1.093,7.619-2.758,16.964C456.225,380.441,454.76,387.995,454.619,387.97z"/>
				</g>
			</g>
			<g>
				<path style="fill:#455A64;" d="M467.854,388.619l-41.445-7.384c-2.717-0.484-5.312,1.326-5.796,4.043l-5.085,28.543
					l52.929-0.095l3.44-19.311C472.382,391.698,470.572,389.103,467.854,388.619z"/>
			</g>
			<g>
				<polygon style="fill:#263238;" points="468.457,413.727 415.544,413.686 419.115,393.689 470.399,402.826 				"/>
			</g>
			<g>
				<g>
					<path style="fill:#263238;" d="M466.905,388.55c-0.025,0.142-8.816-1.306-19.632-3.233c-10.82-1.928-19.567-3.605-19.542-3.746
						c0.025-0.142,8.814,1.306,19.634,3.233C458.18,386.731,466.93,388.409,466.905,388.55z"/>
				</g>
			</g>
		</g>
		<g>
			<g>
				<path style="fill:#FFFFFF;" d="M386.993,414.811c4.621-6.089,13.435-8.585,20.563-5.826c3.02,1.169,5.887,3.198,9.122,3.059
					c3.394-0.146,6.199-2.645,9.448-3.637c3.782-1.156,7.845-0.198,11.701,0.682c11.573,2.642,33.662,5.334,48.067,5.722"/>
			</g>
			<g>
				<g>
					<path style="fill:#263238;" d="M485.894,414.811c0,0.009-0.091,0.015-0.267,0.017c-0.206,0-0.463-0.001-0.781-0.002
						c-0.687-0.009-1.7-0.02-3.004-0.077c-2.608-0.093-6.378-0.308-11.027-0.709c-4.648-0.4-10.174-0.989-16.288-1.812
						c-6.105-0.833-12.83-1.915-19.75-3.538c-1.734-0.343-3.469-0.582-5.174-0.55c-1.709,0.02-3.358,0.388-4.867,1.064
						c-1.519,0.66-2.938,1.511-4.441,2.16c-1.486,0.661-3.129,1.07-4.72,0.885c-1.586-0.163-3.024-0.749-4.355-1.354
						c-1.335-0.611-2.589-1.269-3.857-1.747c-2.539-0.945-5.107-1.222-7.405-1.024c-4.643,0.355-8.06,2.306-10.075,3.88
						c-1.013,0.808-1.727,1.527-2.182,2.036c-0.211,0.237-0.381,0.429-0.518,0.582c-0.119,0.13-0.184,0.193-0.191,0.188
						c-0.007-0.005,0.043-0.08,0.149-0.221c0.127-0.163,0.285-0.367,0.481-0.618c0.432-0.535,1.128-1.283,2.134-2.125
						c1.999-1.642,5.441-3.679,10.172-4.09c2.341-0.225,4.972,0.034,7.587,0.987c2.596,0.935,5.089,2.691,8.106,3.027
						c1.494,0.166,3.025-0.215,4.475-0.863c1.461-0.635,2.877-1.489,4.435-2.172c1.552-0.701,3.3-1.095,5.06-1.114
						c1.763-0.035,3.534,0.21,5.286,0.557c6.938,1.627,13.609,2.713,19.715,3.574c6.102,0.848,11.617,1.474,16.256,1.921
						c4.639,0.448,8.401,0.719,11.003,0.874c1.27,0.074,2.272,0.133,2.997,0.175c0.317,0.022,0.574,0.039,0.779,0.054
						C485.804,414.79,485.894,414.802,485.894,414.811z"/>
				</g>
			</g>
		</g>
		<g>
			<g>
				<circle style="fill:#FAFAFA;" cx="406.792" cy="397.21" r="2.751"/>
			</g>
			<g>
				<g>
					<path style="fill:#263238;" d="M409.543,397.21c-0.044,0.001-0.056-0.245-0.184-0.647c-0.127-0.395-0.414-0.965-1.014-1.393
						c-0.58-0.431-1.514-0.66-2.408-0.318c-0.887,0.315-1.645,1.259-1.635,2.358c-0.01,1.099,0.749,2.044,1.635,2.359
						c0.894,0.342,1.828,0.112,2.408-0.318c0.599-0.429,0.887-0.998,1.014-1.393C409.488,397.455,409.499,397.209,409.543,397.21
						c0.027-0.002,0.087,0.246,0.012,0.696c-0.074,0.44-0.333,1.105-0.987,1.637c-0.631,0.532-1.718,0.857-2.795,0.476
						c-1.067-0.345-2.006-1.478-1.992-2.81c-0.013-1.331,0.926-2.464,1.992-2.809c1.077-0.38,2.164-0.056,2.795,0.476
						c0.654,0.532,0.913,1.197,0.987,1.637C409.631,396.964,409.57,397.212,409.543,397.21z"/>
				</g>
			</g>
		</g>
	</g>
</g>
<g id="Character">
	<g>
		<g>
			<g>
				<path style="fill:#F5F5F5;" d="M220.074,121.528c0,0,8.624,146.343,86.613,227.859l-90.419-2.703L220.074,121.528z"/>
			</g>
			<g>
				<g>
					<path style="fill:#263238;" d="M220.074,121.528c-0.04,2.516-1.526,96.772-3.551,225.161l-0.247-0.259
						c18.291,0.545,37.23,1.109,56.628,1.687c11.575,0.347,22.987,0.689,33.791,1.012l-0.194,0.437
						c-12.05-12.727-22.148-26.535-30.669-40.497c-8.546-13.963-15.418-28.149-21.225-41.882
						c-11.563-27.523-18.743-53.3-23.689-74.991c-4.909-21.724-7.534-39.448-9.039-51.675c-0.742-6.117-1.197-10.867-1.467-14.085
						c-0.139-1.609-0.221-2.836-0.276-3.66c-0.023-0.405-0.04-0.713-0.053-0.929C220.078,121.675,220.076,121.591,220.074,121.528
						c0.028,0.321,0.157,1.771,0.434,4.899c0.301,3.215,0.786,7.959,1.557,14.07c1.562,12.215,4.238,29.922,9.189,51.622
						c4.988,21.666,12.2,47.411,23.776,74.889c5.814,13.71,12.686,27.87,21.225,41.803c8.513,13.932,18.596,27.706,30.618,40.398
						l0.432,0.456l-0.626-0.019c-10.803-0.322-22.215-0.663-33.791-1.008c-19.397-0.582-38.337-1.15-56.627-1.698l-0.252-0.008
						l0.005-0.252C218.328,218.296,220.028,124.042,220.074,121.528z"/>
				</g>
			</g>
		</g>
		<g>
			<path style="fill:#FFFFFF;" d="M270.553,300.231c-3.076,12.233-19.537,6.233-27.32-0.263c-3.823-3.19-6.617-7.417-10.001-11.07
				c-3.384-3.653-7.746-6.881-12.722-7.047l-0.462,34.476c0,0,6.709-5.467,18.69,6.391c11.981,11.858,25.144,13.647,32.993,7.607
				c7.849-6.041,9.839-12.066,9.839-12.066L270.553,300.231z"/>
		</g>
	</g>
	<g>
		<g>
			<path style="fill:#F5F5F5;" d="M56.051,341.223c0,0,23.293-177.669,160.888-220.534l-0.106,17.596
				c0,0-42.709,94.909-0.566,209.772L56.051,341.223z"/>
		</g>
		<g>
			<g>
				<path style="fill:#263238;" d="M128.247,204.328c0.118,0.082-3.385,5.336-7.823,11.734c-4.44,6.4-8.134,11.52-8.252,11.438
					c-0.118-0.082,3.384-5.335,7.824-11.735C124.434,209.367,128.129,204.246,128.247,204.328z"/>
			</g>
		</g>
		<g>
			<path style="fill:#FFFFFF;" d="M64.717,301.975c9.708,6.939,23.895,6.759,34.68,1.653c10.785-5.106,19.353-13.842,27.597-22.47
				c8.244-8.628,16.626-17.492,27.225-22.975c13.134-6.794,29.179-7.702,42.996-2.435l0.729,0.351c0,0-0.041-25.234,0.152-28.6
				c0,0-14.649-5.128-24.54-6.549c-11.126-1.599-31.435,1.203-49.291,20.041c-15.624,16.483-30.656,38.288-48.957,28.862
				C71.388,281.076,67.81,291.847,64.717,301.975z"/>
		</g>
		<g>
			<g>
				<path style="fill:#263238;" d="M56.051,341.223c1.861,0.077,63.884,2.637,160.226,6.613l-0.217,0.297
					c-8.858-24.258-15.565-52.076-17.786-82.169c-2.19-30.054-0.088-62.317,7.698-94.464c2.815-11.512,6.193-22.756,10.625-33.321
					l-0.023,0.105c0.036-5.95,0.072-11.82,0.107-17.596l0.334,0.247c-19.405,6.087-37.242,15.069-52.693,26.058
					c-15.489,10.961-28.703,23.692-39.774,36.924c-11.096,13.232-20.172,26.892-27.662,40.142
					c-7.496,13.257-13.459,26.093-18.318,37.989c-9.691,23.827-15.051,43.824-18.283,57.629c-1.607,6.914-2.64,12.308-3.298,15.966
					c-0.31,1.827-0.547,3.219-0.707,4.163C56.131,340.746,56.051,341.223,56.051,341.223s0.048-0.486,0.182-1.424
					c0.135-0.941,0.348-2.34,0.661-4.172c0.628-3.664,1.632-9.067,3.212-15.991c3.178-13.825,8.49-33.849,18.148-57.716
					c4.842-11.916,10.792-24.775,18.282-38.059c7.483-13.277,16.559-26.968,27.665-40.235c11.08-13.268,24.315-26.037,39.838-37.034
					c15.485-11.026,33.368-20.04,52.824-26.148l0.336-0.106l-0.002,0.353c-0.034,5.776-0.069,11.646-0.104,17.596l0,0.051
					l-0.023,0.054c-4.404,10.503-7.785,21.747-10.592,33.232c-7.773,32.089-9.879,64.299-7.706,94.304
					c2.205,30.044,8.88,57.822,17.703,82.054l0.113,0.311l-0.33-0.014C119.928,344.035,57.911,341.305,56.051,341.223z"/>
			</g>
		</g>
		<g>
			<g>
				<path style="fill:#263238;" d="M173.557,148.476c0,0-0.113,0.113-0.35,0.313c-0.256,0.212-0.607,0.502-1.058,0.876
					c-0.956,0.776-2.333,1.894-4.096,3.326c-0.893,0.721-1.884,1.52-2.967,2.393c-1.068,0.895-2.188,1.916-3.414,2.985
					c-2.426,2.168-5.282,4.533-8.185,7.424c-1.478,1.418-3.026,2.902-4.638,4.449c-1.606,1.554-3.167,3.28-4.845,5.006
					c-3.396,3.416-6.73,7.337-10.305,11.401c-6.951,8.297-14.158,17.788-20.95,28.278c-6.711,10.546-12.342,21.053-16.991,30.829
					c-2.208,4.943-4.384,9.607-6.076,14.117c-0.871,2.244-1.79,4.382-2.534,6.489c-0.735,2.11-1.44,4.136-2.114,6.07
					c-1.42,3.844-2.381,7.425-3.342,10.533c-0.461,1.56-0.923,3.003-1.292,4.346c-0.343,1.348-0.657,2.582-0.94,3.694
					c-0.568,2.2-1.011,3.917-1.318,5.109c-0.152,0.565-0.27,1.005-0.356,1.326c-0.083,0.298-0.139,0.448-0.139,0.448
					s0.021-0.158,0.087-0.46c0.074-0.323,0.175-0.767,0.305-1.338c0.286-1.198,0.697-2.924,1.224-5.135
					c0.27-1.117,0.57-2.355,0.897-3.709c0.355-1.349,0.804-2.797,1.252-4.362c0.935-3.119,1.873-6.713,3.273-10.569
					c0.664-1.94,1.36-3.973,2.085-6.09c0.735-2.114,1.646-4.259,2.51-6.51c1.678-4.525,3.843-9.204,6.043-14.161
					c4.634-9.805,10.263-20.341,16.988-30.908c6.805-10.51,14.039-20.012,21.023-28.307c3.591-4.064,6.943-7.98,10.358-11.389
					c1.687-1.723,3.258-3.444,4.874-4.993c1.623-1.541,3.181-3.02,4.668-4.432c2.924-2.878,5.8-5.227,8.247-7.377
					c1.236-1.06,2.367-2.07,3.445-2.955c1.095-0.862,2.096-1.65,2.999-2.36c1.791-1.4,3.189-2.493,4.16-3.252
					c0.464-0.356,0.826-0.633,1.089-0.835C173.422,148.56,173.557,148.476,173.557,148.476z"/>
			</g>
		</g>
	</g>
	<g>
		<g>
			<g>
				<g>
					<g>
						<g>
							<g>
								<path style="fill:#FFBE9D;" d="M208.149,208.803c0,0,2.312-2.527,3.01-2.581c0.699-0.054,7.903,2.097,7.903,2.097
									s1.613,0.322,2.258,1.075c0.645,0.753,6.98,7.913,6.98,7.913l4.564,2.253l-4.193,10.579l-7.505-5.319
									c0,0-9.253-1.664-10.06-2.632c-0.806-0.968-1.451-2.527-0.86-3.011c0,0-0.753-1.344-0.538-2.258
									c0.215-0.914,0.484-1.64,0.484-1.64s-1.398-0.994-1.451-1.693c-0.054-0.699-0.269-1.075-0.269-1.075l-0.323-0.538V208.803z"
									/>
							</g>
						</g>
						<g>
							<g>
								<g>
									<path style="fill:#EB996E;" d="M211.37,210.311c0.041,0.015,0.009,0.246-0.126,0.599c-0.135,0.346-0.388,0.838-0.871,1.21
										c-0.492,0.374-1.087,0.445-1.472,0.343c-0.395-0.1-0.553-0.315-0.526-0.34c0.03-0.044,0.225,0.081,0.565,0.107
										c0.333,0.031,0.821-0.065,1.231-0.376c0.413-0.317,0.677-0.74,0.86-1.048C211.214,210.496,211.325,210.293,211.37,210.311z
										"/>
								</g>
							</g>
						</g>
					</g>
					<g>
						<g>
							<g>
								<path style="fill:#FFBE9D;" d="M224.431,214.257l-13.409-7.429c0,0-1.388,1.468,0.523,3.502
									c1.911,2.035,4.837,3.989,4.837,3.989l3.71,6.631L224.431,214.257z"/>
							</g>
						</g>
					</g>
				</g>
			</g>
		</g>
		<g>
			<g>
				<g>
					<path style="fill:#FF725E;" d="M314.915,202.277l9.581,0.015l8.541-2.076c0,0,5.209,23.746,7.679,32.804
						c2.47,9.058,29.095,38.977,29.919,41.172c0.824,2.196,0.275,11.803-11.254,14.548c-11.528,2.745-17.841-1.921-20.861,3.568
						c-3.019,5.49-5.49,8.784-5.49,8.784l-59.467,5.158l8.139-43.368l2.978-54.15l10.189-12.62L314.915,202.277z"/>
				</g>
				<g style="opacity:0.3;">
					<path d="M314.915,202.277l9.581,0.015l8.541-2.076c0,0,5.209,23.746,7.679,32.804c2.47,9.058,29.095,38.977,29.919,41.172
						c0.824,2.196,0.275,11.803-11.254,14.548c-11.528,2.745-17.841-1.921-20.861,3.568c-3.019,5.49-5.49,8.784-5.49,8.784
						l-59.467,5.158l8.139-43.368l2.978-54.15l10.189-12.62L314.915,202.277z"/>
				</g>
			</g>
			<g>
				<g>
					<path style="fill:#FFBE9D;" d="M381.43,128.598l-3.725,10.283l-1.267,1.712c0,0-1.185,5.734-1.278,6.964
						c-0.093,1.23,1.376,7.697,1.376,7.697l-3.689,5.654l9.82,3.996c0,0,2.786-5.176,3.544-5.754
						c0.757-0.578,1.33-2.261,1.528-3.404c0.198-1.143,1.817-7.904,1.817-7.904s4.538-7.408,2.714-7.825
						c-0.416-0.095-1.376-0.002-1.376-0.002s-2.741,4.879-3.449,4.967l-0.989-0.601c0,0,2.214-7.501,2.348-8.909
						s-0.138-2.408-1.222-2.594c0,0-0.822,0.313-0.904,0.669c-0.081,0.357-2.307,8.731-2.769,8.563
						c-0.462-0.168-0.226-0.927-0.226-0.927s2.944-10.149,2.828-10.739c-0.116-0.589-0.593-1.512-1.612-1.432l-2.209,5.563
						c0,0,1.073-4.697,0.331-5.554C382.279,128.167,381.43,128.598,381.43,128.598z"/>
				</g>
				<g>
					<g>
						<path style="fill:#EB996E;" d="M383.067,151.554c-0.085-0.001-0.009-0.882-0.313-2.295c-0.31-1.381-1.174-3.363-2.978-4.825
							l-0.133-0.108l0.039-0.155c0.187-0.746,0.383-1.528,0.585-2.334l0.012-0.049l0.033-0.045c0.178-0.238,0.361-0.521,0.533-0.804
							c0.579-0.962,1.016-1.973,1.2-2.961c0.088-0.49,0.121-0.982,0.009-1.397c-0.092-0.417-0.416-0.724-0.736-0.779l0.169-0.059
							c-1.207,1.108-2.217,2.019-2.934,2.645c-0.717,0.626-1.14,0.965-1.172,0.932c-0.032-0.034,0.332-0.437,0.997-1.117
							c0.665-0.68,1.632-1.638,2.807-2.78l0.073-0.071l0.096,0.012c0.583,0.073,1.015,0.554,1.155,1.086
							c0.153,0.531,0.115,1.08,0.028,1.616c-0.188,1.076-0.643,2.139-1.246,3.143c-0.181,0.299-0.366,0.583-0.567,0.851l0.046-0.094
							c-0.209,0.804-0.412,1.584-0.605,2.329l-0.094-0.262c1.941,1.617,2.744,3.708,2.99,5.166c0.12,0.738,0.13,1.335,0.099,1.738
							C383.127,151.34,383.096,151.556,383.067,151.554z"/>
					</g>
				</g>
				<g>
					<g>
						<path style="fill:#EB996E;" d="M383.231,143.177c0.046-0.128,1.542,0.341,3.116,1.434c1.58,1.085,2.549,2.317,2.446,2.405
							c-0.11,0.105-1.215-0.93-2.742-1.977C384.532,143.983,383.172,143.317,383.231,143.177z"/>
					</g>
				</g>
			</g>
			<g>
				<g>
					<g>
						<g>
							<g>
								<g>
									<g>
										<path style="fill:#FF725E;" d="M318.341,411.752l-11.759,12.003c0,0,8.251,15.984,6.294,18.414l-24.092-21.965
											l17.555-19.455L318.341,411.752z"/>
									</g>
								</g>
							</g>
							<g style="opacity:0.3;">
								<g>
									<g>
										<path d="M318.341,411.752l-11.759,12.003c0,0,8.251,15.984,6.294,18.414l-24.092-21.965l17.555-19.455L318.341,411.752z"
											/>
									</g>
								</g>
							</g>
							<g>
								<g>
									<g>
										<g>
											<path style="fill:#E0E0E0;" d="M300.083,415.919c-0.583-0.298-1.383-0.067-1.704,0.503
												c-0.321,0.57-0.094,1.386,0.483,1.693c0.577,0.308,1.546,0.06,1.802-0.542c0.256-0.602-0.064-1.545-0.698-1.705"/>
										</g>
									</g>
								</g>
							</g>
							<g style="opacity:0.6;">
								<g>
									<g>
										<path style="fill:#FFFFFF;" d="M288.783,420.204l1.846-1.892l22.409,21.767c0,0,0.647,1.445-0.163,2.09L288.783,420.204z"
											/>
									</g>
								</g>
							</g>
							<g>
								<g>
									<g>
										<g>
											<path style="fill:#263238;" d="M307.084,423.988c-0.111,0.114-0.748-0.369-1.672-0.518
												c-0.92-0.174-1.683,0.064-1.749-0.081c-0.088-0.122,0.729-0.665,1.844-0.464
												C306.624,423.115,307.208,423.904,307.084,423.988z"/>
										</g>
									</g>
								</g>
							</g>
							<g>
								<g>
									<g>
										<g>
											<path style="fill:#263238;" d="M308.658,427.337c-0.077,0.138-0.769-0.126-1.622,0.007
												c-0.857,0.108-1.448,0.554-1.561,0.442c-0.127-0.082,0.419-0.846,1.483-0.991
												C308.02,426.641,308.758,427.223,308.658,427.337z"/>
										</g>
									</g>
								</g>
							</g>
							<g>
								<g>
									<g>
										<g>
											<path style="fill:#263238;" d="M307.336,431.67c-0.13-0.072,0.242-0.809,1.132-1.178c0.887-0.375,1.673-0.124,1.634,0.02
												c-0.022,0.157-0.694,0.177-1.42,0.491C307.949,431.3,307.463,431.765,307.336,431.67z"/>
										</g>
									</g>
								</g>
							</g>
							<g>
								<g>
									<g>
										<g>
											<path style="fill:#263238;" d="M309.46,420.956c-0.147,0.062-0.539-0.592-1.245-1.153
												c-0.695-0.576-1.416-0.824-1.385-0.981c0.009-0.147,0.911-0.122,1.734,0.551
												C309.392,420.038,309.602,420.916,309.46,420.956z"/>
										</g>
									</g>
								</g>
							</g>
						</g>
						<g>
							<g>
								<g>
									<g>
										<path style="fill:#263238;" d="M311.788,418.49c-0.043,0.05-0.574-0.301-1.201-1.106
											c-0.311-0.401-0.637-0.919-0.909-1.539c-0.135-0.31-0.258-0.644-0.358-0.999c-0.046-0.173-0.112-0.365-0.106-0.616
											c-0.019-0.242,0.192-0.621,0.517-0.675c0.292-0.073,0.583,0.046,0.761,0.201c0.183,0.156,0.294,0.323,0.396,0.475
											c0.209,0.31,0.379,0.628,0.515,0.941c0.27,0.629,0.402,1.235,0.447,1.745c0.087,1.027-0.123,1.64-0.184,1.627
											c-0.089-0.01-0.025-0.626-0.204-1.572c-0.09-0.471-0.252-1.021-0.523-1.587c-0.137-0.282-0.302-0.568-0.498-0.845
											c-0.194-0.3-0.41-0.499-0.579-0.445c-0.063,0.022-0.082,0.036-0.097,0.159c-0.007,0.119,0.034,0.281,0.079,0.451
											c0.086,0.333,0.191,0.65,0.305,0.945c0.23,0.592,0.502,1.1,0.759,1.511C311.423,417.982,311.848,418.428,311.788,418.49z"
											/>
									</g>
								</g>
							</g>
						</g>
						<g>
							<g>
								<g>
									<g>
										<path style="fill:#263238;" d="M311.481,418.519c-0.058-0.02,0.093-0.654,0.744-1.455
											c0.324-0.396,0.781-0.819,1.369-1.171c0.294-0.174,0.621-0.33,0.975-0.452c0.358-0.109,0.821-0.271,1.325,0.092
											c0.246,0.209,0.275,0.575,0.197,0.796c-0.069,0.236-0.181,0.39-0.279,0.555c-0.212,0.322-0.469,0.593-0.74,0.813
											c-0.543,0.444-1.142,0.679-1.652,0.777c-1.04,0.195-1.659-0.112-1.633-0.161c0.015-0.095,0.632,0.052,1.539-0.22
											c0.447-0.134,0.961-0.38,1.415-0.786c0.227-0.202,0.439-0.441,0.613-0.717c0.196-0.29,0.288-0.585,0.168-0.646
											c-0.118-0.111-0.497-0.104-0.782,0.01c-0.321,0.103-0.621,0.235-0.895,0.382c-0.548,0.298-0.994,0.655-1.331,0.991
											C311.837,418.005,311.561,418.56,311.481,418.519z"/>
									</g>
								</g>
							</g>
						</g>
					</g>
				</g>
				<g>
					<g>
						<g>
							<g>
								<g>
									<g>
										<path style="fill:#FF725E;" d="M315.272,414.171l-0.092,16.803c0,0,17.049,5.737,17.334,8.844l-32.587,0.991l-0.93-26.188
											L315.272,414.171z"/>
									</g>
								</g>
							</g>
							<g>
								<g>
									<g>
										<g>
											<path style="fill:#E0E0E0;" d="M305.06,429.869c-0.625,0.192-1.039,0.914-0.874,1.547
												c0.166,0.633,0.897,1.061,1.526,0.88c0.629-0.181,1.152-1.033,0.917-1.643s-1.121-1.065-1.688-0.739"/>
										</g>
									</g>
								</g>
							</g>
							<g style="opacity:0.6;">
								<g>
									<g>
										<path style="fill:#FFFFFF;" d="M299.927,440.81l0.01-2.643l31.24,0.038c0,0,1.47,0.587,1.337,1.614L299.927,440.81z"/>
									</g>
								</g>
							</g>
							<g>
								<g>
									<g>
										<g>
											<path style="fill:#263238;" d="M315.703,430.793c0,0.159-0.794,0.256-1.561,0.791c-0.781,0.515-1.164,1.217-1.312,1.158
												c-0.148-0.027,0.061-0.985,1.001-1.617C314.765,430.485,315.733,430.646,315.703,430.793z"/>
										</g>
									</g>
								</g>
							</g>
							<g>
								<g>
									<g>
										<g>
											<path style="fill:#263238;" d="M319.164,432.102c0.041,0.153-0.64,0.445-1.16,1.134c-0.54,0.674-0.654,1.406-0.813,1.404
												c-0.149,0.029-0.287-0.899,0.376-1.744C318.222,432.046,319.156,431.951,319.164,432.102z"/>
										</g>
									</g>
								</g>
							</g>
							<g>
								<g>
									<g>
										<g>
											<path style="fill:#263238;" d="M321.23,436.134c-0.143,0.038-0.389-0.75-0.007-1.634
												c0.376-0.887,1.116-1.253,1.187-1.123c0.094,0.128-0.375,0.61-0.678,1.341
												C321.412,435.441,321.387,436.113,321.23,436.134z"/>
										</g>
									</g>
								</g>
							</g>
							<g>
								<g>
									<g>
										<g>
											<path style="fill:#263238;" d="M315.299,426.961c-0.062,0.147-0.799-0.05-1.697,0.038
												c-0.899,0.07-1.59,0.393-1.677,0.259c-0.096-0.112,0.57-0.722,1.628-0.811
												C314.612,426.35,315.374,426.833,315.299,426.961z"/>
										</g>
									</g>
								</g>
							</g>
						</g>
						<g>
							<g>
								<g>
									<g>
										<path style="fill:#263238;" d="M315.255,423.57c0.004,0.066-0.622,0.183-1.632,0.041
											c-0.503-0.071-1.097-0.217-1.723-0.473c-0.313-0.128-0.634-0.283-0.952-0.469c-0.153-0.092-0.334-0.184-0.504-0.369
											c-0.182-0.161-0.295-0.58-0.099-0.844c0.159-0.255,0.451-0.373,0.686-0.385c0.24-0.015,0.436,0.027,0.615,0.066
											c0.366,0.077,0.709,0.187,1.025,0.317c0.631,0.264,1.148,0.607,1.535,0.942c0.777,0.677,1.053,1.264,1,1.296
											c-0.07,0.055-0.453-0.432-1.24-0.987c-0.392-0.276-0.892-0.558-1.48-0.776c-0.295-0.107-0.612-0.197-0.946-0.26
											c-0.348-0.08-0.642-0.074-0.725,0.083c-0.03,0.06-0.034,0.083,0.041,0.182c0.077,0.091,0.22,0.178,0.371,0.269
											c0.294,0.179,0.589,0.334,0.877,0.467c0.577,0.265,1.126,0.441,1.596,0.557
											C314.64,423.459,315.255,423.484,315.255,423.57z"/>
									</g>
								</g>
							</g>
						</g>
						<g>
							<g>
								<g>
									<g>
										<path style="fill:#263238;" d="M315.055,423.805c-0.056,0.026-0.388-0.535-0.478-1.563
											c-0.043-0.51-0.009-1.131,0.168-1.794c0.09-0.33,0.216-0.669,0.385-1.003c0.181-0.328,0.401-0.766,1.016-0.856
											c0.322-0.022,0.598,0.222,0.696,0.434c0.114,0.217,0.142,0.406,0.186,0.593c0.071,0.379,0.076,0.752,0.034,1.099
											c-0.081,0.697-0.348,1.283-0.646,1.707c-0.611,0.864-1.269,1.074-1.285,1.02c-0.055-0.078,0.49-0.402,0.952-1.229
											c0.228-0.407,0.426-0.941,0.47-1.549c0.023-0.303,0.009-0.623-0.059-0.942c-0.061-0.345-0.2-0.62-0.329-0.581
											c-0.162,0.002-0.429,0.272-0.554,0.552c-0.159,0.297-0.283,0.6-0.377,0.897c-0.186,0.595-0.258,1.162-0.267,1.638
											C314.953,423.188,315.141,423.778,315.055,423.805z"/>
									</g>
								</g>
							</g>
						</g>
					</g>
				</g>
				<g>
					<g>
						<g>
							<path style="fill:#263238;" d="M333.464,275.492l28.152,68.103c2.616,6.003,3.649,11.859,1.917,18.068
								c-1.113,3.99-3.338,7.582-6.218,10.56l-41.327,48.399l-12.48-18.771l32.012-44.006l-16.263-33.518l3.638-48.835H333.464z"/>
						</g>
					</g>
					<g>
						<g>
							<path style="fill:#263238;" d="M317.865,426.518l5.896-136.139l-0.019-14.738l-32.176-3.838c0,0-7.294,12.936-9.397,21.648
								c-2.102,8.712,9.011,59.23,9.011,59.23l0.178,24.252l4.333,49.954L317.865,426.518z"/>
						</g>
					</g>
				</g>
				<g>
					<path style="fill:#455A64;" d="M317.865,426.518c-0.116-0.005,1.076-30.987,2.664-69.191
						c1.588-38.218,2.969-69.185,3.086-69.18c0.116,0.005-1.076,30.98-2.664,69.198
						C319.363,395.548,317.981,426.522,317.865,426.518z"/>
				</g>
				<g>
					<path style="fill:#455A64;" d="M311.988,275.048c0.025,0.01-0.042,0.259-0.213,0.692c-0.17,0.434-0.463,1.045-0.903,1.755
						c-0.868,1.418-2.44,3.217-4.681,4.488c-2.241,1.272-4.592,1.698-6.255,1.716c-0.836,0.014-1.51-0.049-1.97-0.125
						c-0.46-0.075-0.708-0.146-0.704-0.172c0.009-0.075,1.025,0.101,2.661-0.001c1.625-0.093,3.89-0.554,6.059-1.785
						c2.168-1.23,3.726-2.938,4.64-4.284C311.548,275.98,311.918,275.017,311.988,275.048z"/>
				</g>
				<g>
					<path style="fill:#455A64;" d="M343.173,356.461c0.006,0.123-1.732,0.281-3.831,0.707c-2.102,0.416-3.766,0.939-3.808,0.823
						c-0.041-0.102,1.586-0.813,3.725-1.237C341.396,356.322,343.171,356.352,343.173,356.461z"/>
				</g>
			</g>
			<g>
				<g>
					<path style="fill:#FF725E;" d="M314.732,196.939l0.183,5.338c0,0,8.714,17.245,11.703,21.826
						c4.268,6.541,9.225,15.175,14.818,23.027c2.691,3.777,19.875,18.202,26.434,24.431c2.323,2.207,3.31,5.564,2.289,8.601
						c-0.173,0.515-2.569,3.974-2.856,4.389c0,0,7.973-7.185,6.171-13.192c-1.802-6.007-19.721-23.685-23.811-31.28
						c-4.369-8.113-9.829-20.807-12.633-26.188c-2.803-5.381-4.569-14.71-4.569-14.71l-12.315,2.983L314.732,196.939z"/>
				</g>
				<g>
					<path style="fill:#FFBE9D;" d="M330.811,232.191c-0.457,0.609-3.747,19.271-3.747,19.271l6.399,24.03
						c0,0-1.308,2.371-10.584,0.845c-7.556-1.243-35.915-3.434-35.915-3.434l-1.586-37.959l7.792-33.6l21.743,0.934L330.811,232.191
						z"/>
				</g>
				<g>
					<path style="fill:#FAFAFA;" d="M292.039,206.226l16.252,21.618c2.435,3.238,7.542,2.662,9.051-1.099
						c0.018-0.044,0.035-0.088,0.052-0.133c1.209-3.14,3.512-13.061,3.512-13.061l10.424,17.977l7.18,30.163
						c0,0-16.779,3.647-25.28,4.904c-14.872,2.198-24.716,3.643-24.716,3.643l-3.144-35.14l4.226-20.236L292.039,206.226z"/>
				</g>
				<g>
					<path style="fill:#FF725E;" d="M332.156,199.408l23.786-17.606l15.704-22.23l14.432,5.334l-0.784,6.151l-2.143-0.291
						c-5.472,9.844-14.201,22.876-15.573,25.107c-2.218,3.607-28.491,27.976-28.491,27.976L332.156,199.408z"/>
				</g>
				<g style="opacity:0.3;">
					<g>
						<path d="M290.942,213.721c0.489,3.812,0.171,7.679-0.07,11.515c-1.63,25.944,13.833,45.105,13.364,68.898
							c-5.411-12.09-11.969-23.41-15.921-36.052C283.798,243.629,284.751,227.538,290.942,213.721z"/>
					</g>
				</g>
				<g>
					<path style="fill:#FF725E;" d="M281.919,202.134l5.453-0.158l6.519-4.535l-1.688,9.94c0,0-3.011,15.972-3.096,24.289
						c-0.18,17.672,16.907,54.769,15.716,65.246c0,0-10.797-4.759-19.526-5.715c-8.366-0.916-11.734,15.204-11.734,15.204
						s-1.362-22.11,0.066-28.301c1.429-6.191,5.239-15.223,5.239-15.223l-2.615-28.767c0.187,2.162-0.246-1.516-0.246-1.516
						s-13.293,16.467-17.259,15.938c-4.49-0.599-27.073-16.071-27.073-16.071l-1.946,2.993l-4.34-6.136l5.987-13.919l24.28,10.997
						l16.364-18.907c0,0,4.241-5.156,9.511-5.329"/>
				</g>
				<g>
					<g>
						<path style="fill:#263238;" d="M272.605,214.929c0.069-0.016,0.407,1.136,0.874,3.018c0.467,1.882,1.056,4.496,1.603,7.406
							c0.546,2.911,0.933,5.565,1.144,7.495c0.213,1.93,0.265,3.13,0.198,3.137c-0.075,0.008-0.257-1.177-0.563-3.088
							c-0.303-1.911-0.746-4.546-1.291-7.448c-0.551-2.819-1.049-5.367-1.451-7.422
							C272.745,216.127,272.534,214.946,272.605,214.929z"/>
					</g>
				</g>
				<g style="opacity:0.3;">
					<g>
						<path d="M337.576,212.211c1.953,3.04,3.448,6.594,3.239,10.201c0,0-8.979-15.227-10.857-17.471
							C332.812,206.586,335.622,209.171,337.576,212.211z"/>
					</g>
				</g>
				<g>
					<g>
						<path style="fill:#263238;" d="M332.812,209.132c0.03-0.019,0.339,0.399,0.863,1.178c0.525,0.779,1.266,1.917,2.161,3.337
							c1.791,2.839,4.196,6.806,6.695,11.279c2.503,4.472,4.607,8.614,5.965,11.69c0.664,1.544,1.2,2.794,1.501,3.686
							c0.318,0.885,0.478,1.379,0.444,1.391c-0.034,0.013-0.257-0.457-0.632-1.316c-0.358-0.865-0.943-2.089-1.647-3.607
							c-1.439-3.025-3.587-7.127-6.086-11.59c-2.495-4.464-4.845-8.456-6.555-11.341c-0.814-1.38-1.492-2.529-2.018-3.421
							C333.032,209.607,332.781,209.152,332.812,209.132z"/>
					</g>
				</g>
				<g>
					<g>
						<path style="fill:#263238;" d="M288.036,201.998c0.071,0.014-0.103,1.241-0.441,3.215c-0.338,1.973-0.839,4.693-1.425,7.69
							c-0.091,0.462-0.181,0.918-0.268,1.363l-0.428-0.24c1.889-1.729,3.589-3.257,4.865-4.375l0.232-0.203l0.066,0.292
							c0.431,1.893,0.66,3.06,0.592,3.077c-0.068,0.017-0.422-1.118-0.944-2.988l0.298,0.089c-1.22,1.18-2.882,2.748-4.761,4.489
							l-0.579,0.536l0.15-0.776c0.086-0.445,0.175-0.901,0.264-1.364c0.586-2.997,1.145-5.705,1.575-7.66
							C287.664,203.186,287.965,201.984,288.036,201.998z"/>
					</g>
				</g>
				<g>
					<g>
						<path style="fill:#263238;" d="M320.147,202.165c0.055-0.03,0.551,0.746,1.334,2.065c0.783,1.319,1.852,3.182,3.054,5.323
							l0.551,0.981l-0.921-0.65c-0.606-0.428-1.23-0.882-1.864-1.358c-1.185-0.898-2.305-1.759-3.245-2.681l0.404-0.225
							c0.43,1.924,0.78,3.565,1.009,4.729c0.229,1.164,0.338,1.849,0.285,1.862s-0.26-0.65-0.57-1.795
							c-0.311-1.145-0.725-2.771-1.193-4.686l-0.193-0.788l0.597,0.563c0.912,0.86,2.044,1.716,3.218,2.605
							c0.634,0.467,1.251,0.921,1.846,1.359l-0.37,0.331c-1.18-2.154-2.193-4.047-2.897-5.41
							C320.488,203.027,320.092,202.195,320.147,202.165z"/>
					</g>
				</g>
				<g>
					<g>
						<path style="fill:#263238;" d="M314.988,202.592c0.016-0.008,0.154,0.216,0.403,0.649c0.269,0.48,0.625,1.114,1.069,1.908
							c0.952,1.707,2.284,4.094,3.917,7.022c3.329,5.916,7.982,14.062,13.314,22.939c2.68,4.427,5.388,8.554,8.137,12.086
							c2.79,3.484,5.768,6.244,8.243,8.553c2.498,2.295,4.573,4.094,5.996,5.352c0.678,0.607,1.22,1.092,1.63,1.459
							c0.367,0.34,0.554,0.525,0.542,0.538c-0.012,0.014-0.222-0.145-0.611-0.459c-0.426-0.348-0.989-0.808-1.693-1.384
							c-1.463-1.211-3.577-2.969-6.112-5.234c-2.515-2.282-5.524-5.015-8.373-8.529c-2.788-3.54-5.519-7.676-8.205-12.113
							c-5.339-8.887-9.942-17.065-13.19-23.031c-1.623-2.983-2.906-5.415-3.774-7.104c-0.409-0.813-0.736-1.463-0.983-1.954
							C315.08,202.841,314.972,202.601,314.988,202.592z"/>
					</g>
				</g>
				<g style="opacity:0.3;">
					<g>
						<path d="M324.545,209.817c-1.164-2.327-2.581-4.087-3.744-6.415l-0.293-0.588c2.334,2.607,4.348,6.183,6.352,9.357
							c-2.056-0.524-4.147-2.067-5.819-3.372c0,0-0.353,2.162-0.34,3.183c-0.447-1.981-0.923-4.098-1.369-6.079
							C319.331,205.903,322.765,208.736,324.545,209.817z"/>
					</g>
				</g>
				<g style="opacity:0.3;">
					<g>
						<path d="M291.207,212.806c-0.299-0.425-0.598-0.851-0.897-1.276c-1.997,1.962-3.993,3.924-5.99,5.886
							c-0.17-0.786,0.049-1.599,0.266-2.374c0.649-2.314,1.59-5.15,2.239-7.464c-0.308,2.096-0.909,4.714-1.216,6.811
							c1.586-1.574,3.18-2.959,4.853-4.605L291.207,212.806z"/>
					</g>
				</g>
				<g style="opacity:0.3;">
					<g>
						<path style="fill:none;stroke:#000000;stroke-miterlimit:10;" d="M288.518,212.209"/>
					</g>
				</g>
				<g style="opacity:0.3;">
					<g>
						<path d="M272.605,215.39c1.247,4.211,3.172,12.821,3.403,17.207l0,0C273.822,228.361,271.954,220.113,272.605,215.39z"/>
					</g>
				</g>
				<g>
					<g>
						<path style="fill:#263238;" d="M290.274,219.245c0.018,0.003-0.013,0.282-0.088,0.807c-0.068,0.526-0.163,1.303-0.262,2.305
							c-0.191,2.005-0.408,4.916-0.469,8.518c-0.013,3.596-0.125,7.919,1.25,12.5c1.186,4.61,2.742,9.62,4.346,14.883
							c1.621,5.257,3.325,10.219,4.76,14.772c1.451,4.548,2.637,8.686,3.461,12.205c0.827,3.518,1.33,6.403,1.57,8.41
							c0.147,0.999,0.186,1.785,0.24,2.314c0.044,0.53,0.058,0.809,0.04,0.81c-0.018,0.002-0.067-0.274-0.144-0.799
							c-0.088-0.524-0.159-1.304-0.336-2.296c-0.3-1.992-0.857-4.856-1.727-8.351c-0.867-3.496-2.087-7.612-3.561-12.146
							c-1.458-4.539-3.176-9.497-4.801-14.765c-1.605-5.266-3.147-10.282-4.313-14.919c-0.284-1.162-0.562-2.29-0.764-3.416
							c-0.204-1.129-0.283-2.231-0.346-3.294c-0.111-2.128-0.094-4.109-0.044-5.916c0.109-3.613,0.382-6.527,0.635-8.532
							c0.131-1.002,0.259-1.777,0.36-2.299C290.19,219.513,290.256,219.242,290.274,219.245z"/>
					</g>
				</g>
				<g>
					<g>
						<path style="fill:#263238;" d="M279.503,263.039c0.03-0.143,1.7,0.083,3.753,0.372c2.053,0.292,3.721,0.536,3.709,0.682
							c-0.01,0.141-1.711,0.128-3.782-0.167C281.112,263.635,279.474,263.177,279.503,263.039z"/>
					</g>
				</g>
				<g>
					<g>
						<path style="fill:#263238;" d="M238.737,218.739c0.127,0.068-1.787,3.867-4.274,8.484c-2.488,4.618-4.606,8.305-4.733,8.237
							c-0.126-0.068,1.787-3.866,4.275-8.484C236.491,222.359,238.61,218.671,238.737,218.739z"/>
					</g>
				</g>
				<g>
					<g>
						<path style="fill:#263238;" d="M367.44,165.703c0.028-0.07,1.026,0.272,2.633,0.826c1.608,0.554,3.831,1.306,6.309,2.065
							c2.48,0.757,4.744,1.376,6.387,1.816c1.642,0.44,2.66,0.714,2.645,0.787c-0.014,0.067-1.06-0.079-2.731-0.429
							c-1.67-0.349-3.961-0.915-6.453-1.676c-2.491-0.762-4.707-1.573-6.286-2.218C368.364,166.23,367.414,165.766,367.44,165.703z"
							/>
					</g>
				</g>
				<g>
					<g>
						<path style="fill:#263238;" d="M302.255,249.28c-0.043-0.063,0.775-0.697,2.083-1.733c1.309-1.035,3.098-2.487,5.002-4.173
							c1.903-1.688,3.559-3.29,4.744-4.466c1.185-1.175,1.913-1.911,1.97-1.86c0.051,0.045-0.581,0.868-1.704,2.114
							c-1.122,1.246-2.749,2.901-4.664,4.601c-1.917,1.697-3.755,3.114-5.127,4.078C303.187,248.807,302.293,249.335,302.255,249.28
							z"/>
					</g>
				</g>
				<g style="opacity:0.3;">
					<g>
						<path d="M297.009,253.188c3.443-2.825,10.354-6.578,14.976-11.908l0.457,0.054c-3.818,5.508-7.911,11.256-13.972,14.117
							c-0.756,0.357-1.829,0.583-2.284-0.118C295.73,254.63,296.361,253.72,297.009,253.188z"/>
					</g>
				</g>
			</g>
			<g>
				<g>
					<g>
						<g>
							<path style="fill:#263238;" d="M325.152,163.85c0,0,0.349,8.379,6.199,13.739c2.453,2.247,7.38,3.109,8.68,6.171l0.351,1.522
								c0,0-20.962,13.411-28.447,13.868l-6.273-15.425L325.152,163.85z"/>
						</g>
					</g>
					<g>
						<g>
							<g>
								<g>
									<g>
										<g>
											<g>
												<g>
													<g>
														<g>
															<path style="fill:#263238;" d="M284.2,171.177c1.706-7.375,2.361-15.958,8.493-20.766
																c4.55-3.568,9.736-4.563,15.513-4.321c2.845,0.119,6.057,1.432,8.535,2.834c3.397,1.923,4.836,5.824,6.476,9.367
																c3.284,7.098,2.868,16.711,0.644,19.382l-29.663,15.665c-5.923-3.083-9.634-4.311-10.581-12.206
																C283.219,177.809,283.446,174.437,284.2,171.177z"/>
														</g>
													</g>
												</g>
											</g>
											<g>
												<g>
													<g>
														<g>
															<path style="fill:#FFBE9D;" d="M297.71,154.152l14.293-3.389c6.014-0.876,10.321,6.401,10.942,12.447
																c0.689,6.716,1.266,14.943,0.666,19.998c-1.207,10.165-8.898,11.755-8.898,11.755
																c-0.004-0.034-0.018,0.152,0.042,3.155l0.197,4.866c0.08,1.967-0.44,3.948-1.643,5.507
																c-2.753,3.567-7.772,4.044-13.689,1.854c-3.43-1.269-4.85-5.745-5.113-9.222l-2.814-41.245
																C291.584,158.035,295.883,154.419,297.71,154.152z"/>
														</g>
													</g>
												</g>
												<g>
													<g>
														<g>
															<g>
																<g>
																	<path style="fill:#263238;" d="M320.891,172.848c0.051,0.683-0.485,1.29-1.198,1.356
																		c-0.711,0.066-1.33-0.432-1.381-1.116c-0.051-0.683,0.485-1.291,1.196-1.357
																		C320.22,171.665,320.839,172.165,320.891,172.848z"/>
																</g>
															</g>
														</g>
													</g>
												</g>
												<g>
													<g>
														<g>
															<g>
																<g>
																	<path style="fill:#263238;" d="M321.383,169.301c-0.154,0.175-1.164-0.512-2.558-0.454
																		c-1.393,0.038-2.388,0.796-2.546,0.631c-0.077-0.073,0.074-0.384,0.507-0.726c0.426-0.34,1.162-0.684,2.03-0.714
																		c0.868-0.029,1.612,0.262,2.044,0.572C321.302,168.922,321.46,169.222,321.383,169.301z"/>
																</g>
															</g>
														</g>
													</g>
												</g>
												<g>
													<g>
														<g>
															<g>
																<g>
																	<path style="fill:#263238;" d="M308.366,172.848c0.051,0.683-0.485,1.29-1.198,1.356
																		c-0.711,0.066-1.33-0.432-1.382-1.115c-0.051-0.683,0.486-1.291,1.197-1.357
																		C307.696,171.665,308.315,172.165,308.366,172.848z"/>
																</g>
															</g>
														</g>
													</g>
												</g>
												<g>
													<g>
														<g>
															<g>
																<g>
																	<path style="fill:#263238;" d="M308.572,169.301c-0.154,0.175-1.166-0.512-2.559-0.454
																		c-1.393,0.038-2.388,0.796-2.546,0.631c-0.077-0.073,0.073-0.384,0.508-0.726c0.426-0.34,1.161-0.684,2.03-0.715
																		c0.868-0.029,1.611,0.262,2.044,0.572C308.49,168.922,308.648,169.222,308.572,169.301z"/>
																</g>
															</g>
														</g>
													</g>
												</g>
												<g>
													<g>
														<g>
															<g>
																<g>
																	<path style="fill:#263238;" d="M313.1,178.504c-0.009-0.079,0.851-0.263,2.248-0.498
																		c0.354-0.051,0.689-0.135,0.739-0.38c0.074-0.261-0.09-0.638-0.279-1.046c-0.369-0.848-0.754-1.738-1.159-2.669
																		c-1.614-3.802-2.797-6.934-2.643-6.997c0.154-0.064,1.587,2.966,3.201,6.768c0.389,0.938,0.762,1.832,1.116,2.687
																		c0.151,0.399,0.4,0.849,0.24,1.39c-0.086,0.27-0.339,0.473-0.565,0.544c-0.225,0.079-0.426,0.09-0.601,0.108
																		C313.985,178.542,313.108,178.583,313.1,178.504z"/>
																</g>
															</g>
														</g>
													</g>
												</g>
												<g>
													<g>
														<g>
															<g>
																<g>
																	<path style="fill:#EB996E;" d="M314.712,194.963c0,0-6.779,0.706-13.671-3.076c0,0,3.623,6.937,13.696,5.594
																		L314.712,194.963z"/>
																</g>
															</g>
														</g>
													</g>
												</g>
												<g>
													<g>
														<g>
															<g>
																<path style="fill:#EB996E;" d="M308.55,181.546c0.32-0.569,0.927-0.885,1.559-0.93
																	c0.912-0.066,1.689,0.217,2.315,1.036c0.212,0.235,0.221,0.922,0.145,1.114c-0.076,0.193-0.015,0.097-0.157,0.233
																	c-0.515,0.492-1.06,0.985-1.739,1.175c-0.679,0.191-1.53,0.003-2.004-0.649
																	C308.247,182.946,308.23,182.114,308.55,181.546z"/>
															</g>
														</g>
													</g>
												</g>
												<g>
													<g>
														<g>
															<g>
																<g>
																	<path style="fill:#263238;" d="M308.785,179.69c0.226-0.023,0.297,1.489,1.64,2.505
																		c1.341,1.019,2.946,0.777,2.967,0.987c0.025,0.094-0.346,0.31-1.026,0.359c-0.667,0.053-1.651-0.117-2.473-0.738
																		c-0.82-0.623-1.199-1.486-1.278-2.105C308.53,180.068,308.681,179.686,308.785,179.69z"/>
																</g>
															</g>
														</g>
													</g>
												</g>
												<g>
													<g>
														<g>
															<g>
																<g>
																	<path style="fill:#263238;" d="M308.197,164.362c-0.1,0.391-1.504,0.347-3.114,0.702
																		c-1.617,0.322-2.885,0.927-3.134,0.609c-0.112-0.153,0.082-0.53,0.578-0.947c0.491-0.416,1.298-0.844,2.265-1.048
																		c0.968-0.202,1.878-0.134,2.495,0.05C307.909,163.91,308.239,164.177,308.197,164.362z"/>
																</g>
															</g>
														</g>
													</g>
												</g>
												<g>
													<g>
														<g>
															<g>
																<g>
																	<path style="fill:#263238;" d="M321.268,165.548c-0.316,0.274-1.332-0.205-2.608-0.405
																		c-1.269-0.24-2.39-0.131-2.592-0.495c-0.086-0.175,0.13-0.464,0.646-0.693c0.509-0.228,1.323-0.358,2.198-0.207
																		c0.874,0.152,1.594,0.546,1.992,0.932C321.308,165.068,321.409,165.412,321.268,165.548z"/>
																</g>
															</g>
														</g>
													</g>
												</g>
											</g>
										</g>
									</g>
								</g>
								<g>
									<g>
										<g>
											<path style="fill:#263238;" d="M311.742,149.674c0.017,0.073,0.031,0.146,0.048,0.219l-0.035,0.015
												C311.75,149.83,311.746,149.752,311.742,149.674z"/>
										</g>
									</g>
								</g>
							</g>
						</g>
						<g>
							<g>
								<path style="fill:#263238;" d="M309.571,193.338c-0.328-2.805-6.426-9.138-8.53-11.023
									c-3.721-3.333-5.656-5.613-3.726-12.675c2.528-0.312,4.886-1.83,6.57-3.793c2.026-2.362,3.251-5.289,4.445-8.164
									c-0.07,2.818-1.047,5.606-2.749,7.852c1.122,0.234,2.306-0.246,3.149-1.023c0.843-0.777,1.395-1.817,1.848-2.87
									c1.098-2.55,1.695-5.308,1.79-8.083c0.373,3.969-0.068,8.016-1.321,11.802c0.707-0.218,1.465-0.022,2.197,0.084
									c0.732,0.106,1.572,0.085,2.09-0.444c0.346-0.354,0.472-0.863,0.572-1.347c0.697-3.375,0.811-6.869,0.336-10.283
									c0.901,1.846,1.794,3.712,2.317,5.698c0.523,1.986,0.658,4.121,0.043,6.08c0.291,0.369,0.909,0.311,1.255-0.008
									c0.346-0.319,0.477-0.805,0.549-1.269c0.266-1.697-0.034-3.426-0.333-5.118c1.01,1.791,1.345,3.868,1.904,5.847
									c0.559,1.979,1.908,3.421,3.627,4.548c0.298-2.96-0.267-4.395-0.712-7.166c-0.34-2.118-1.345-4.219-2.273-6.154
									c-1.039-2.167-2.483-4.289-4.097-5.702c-2.977-2.608-4.221-1.485-6.122-0.491l-0.225,0.094
									c-0.007-0.046-0.009-0.094-0.016-0.14l-0.086-0.404c-4.948-1.115-10.196-0.87-15.018,0.702
									c-3.584,1.168-7.992,4.853-9.816,8.151c-0.034,0.062-0.07,0.124-0.104,0.188c-8.961,16.959-4.643,27.073,0.473,40.555
									l10.216-1.918l-3.252-6.803l4.15,6.92L309.571,193.338z"/>
							</g>
						</g>
					</g>
				</g>
				<g>
					<g>
						<path style="fill:#263238;" d="M311.681,191.95c-0.103,0.033,0.137-1.76-1.308-3.996c-0.703-1.103-1.826-2.221-3.242-3.234
							c-1.409-1.029-3.128-1.929-4.816-3.113c-1.704-1.16-3.078-2.696-3.872-4.316c-0.812-1.613-1.15-3.234-1.204-4.585
							c-0.062-1.357,0.133-2.448,0.334-3.172c0.091-0.366,0.201-0.638,0.276-0.821c0.075-0.183,0.122-0.276,0.139-0.27
							c0.12,0.022-0.579,1.6-0.381,4.24c0.099,1.305,0.463,2.857,1.263,4.389c0.79,1.542,2.083,2.973,3.746,4.11
							c1.645,1.156,3.37,2.076,4.799,3.151c1.435,1.059,2.579,2.249,3.272,3.426c0.705,1.171,0.977,2.269,1.045,3.021
							C311.802,191.538,311.707,191.954,311.681,191.95z"/>
					</g>
				</g>
			</g>
		</g>
		<g>
			<g>
				<g>
					<path style="fill:#FF725E;" d="M211.979,74.997c-0.013,2.927-0.025,5.854-0.038,8.78c-0.034,7.894-0.069,15.788-0.103,23.683
						c-0.051,11.75-0.102,23.5-0.153,35.25c-0.062,14.237-0.124,28.475-0.186,42.712c-0.068,15.7-0.137,31.4-0.205,47.1
						c-0.068,15.741-0.137,31.481-0.206,47.222c-0.064,14.777-0.129,29.554-0.193,44.331c-0.054,12.404-0.108,24.808-0.162,37.212
						c-0.039,8.981-0.078,17.962-0.117,26.943c-0.018,4.225-0.102,8.456-0.055,12.681c0.002,0.185-0.002,0.37-0.002,0.554
						c-0.011,2.616,2.308,5.121,5,5c2.719-0.122,4.988-2.197,5-5c0.013-2.927,0.025-5.854,0.038-8.78
						c0.034-7.894,0.069-15.788,0.103-23.683c0.051-11.75,0.102-23.5,0.154-35.25c0.062-14.237,0.124-28.475,0.186-42.712
						c0.068-15.7,0.137-31.4,0.205-47.1c0.068-15.741,0.137-31.481,0.206-47.222c0.064-14.777,0.129-29.554,0.193-44.331
						c0.054-12.404,0.108-24.808,0.162-37.212c0.039-8.981,0.078-17.962,0.117-26.942c0.018-4.225,0.102-8.456,0.055-12.681
						c-0.002-0.185,0.002-0.37,0.002-0.554c0.011-2.616-2.308-5.121-5-5C214.26,70.119,211.991,72.194,211.979,74.997
						L211.979,74.997z"/>
				</g>
			</g>
			<g style="opacity:0.6;">
				<g>
					<path d="M211.979,74.997c-0.013,2.927-0.025,5.854-0.038,8.78c-0.034,7.894-0.069,15.788-0.103,23.683
						c-0.051,11.75-0.102,23.5-0.153,35.25c-0.062,14.237-0.124,28.475-0.186,42.712c-0.068,15.7-0.137,31.4-0.205,47.1
						c-0.068,15.741-0.137,31.481-0.206,47.222c-0.064,14.777-0.129,29.554-0.193,44.331c-0.054,12.404-0.108,24.808-0.162,37.212
						c-0.039,8.981-0.078,17.962-0.117,26.943c-0.018,4.225-0.102,8.456-0.055,12.681c0.002,0.185-0.002,0.37-0.002,0.554
						c-0.011,2.616,2.308,5.121,5,5c2.719-0.122,4.988-2.197,5-5c0.013-2.927,0.025-5.854,0.038-8.78
						c0.034-7.894,0.069-15.788,0.103-23.683c0.051-11.75,0.102-23.5,0.154-35.25c0.062-14.237,0.124-28.475,0.186-42.712
						c0.068-15.7,0.137-31.4,0.205-47.1c0.068-15.741,0.137-31.481,0.206-47.222c0.064-14.777,0.129-29.554,0.193-44.331
						c0.054-12.404,0.108-24.808,0.162-37.212c0.039-8.981,0.078-17.962,0.117-26.942c0.018-4.225,0.102-8.456,0.055-12.681
						c-0.002-0.185,0.002-0.37,0.002-0.554c0.011-2.616-2.308-5.121-5-5C214.26,70.119,211.991,72.194,211.979,74.997
						L211.979,74.997z"/>
				</g>
			</g>
			<g>
				<g>
					<g>
						<path style="fill:#FF725E;" d="M211.933,88.021c10.046-1.561,18.285-2.318,27.599,0.978c4.652,1.646,9.655,5.863,14.719,6.225
							c4.56,0.326,8.975-1.413,13.516-1.99c7.166-0.911,14.744,1.293,19.563,5.688c0,0-11.437-3.619-21.264,3.12
							c-9.827,6.739-13.117,13.03-26.192,8.858c-8.289-2.645-23.884-1.427-28.169,3.498L211.933,88.021z"/>
					</g>
					<g>
						<g>
							<path style="fill:#263238;" d="M211.933,88.021c0,0,0.012,0.168,0.016,0.479c0.002,0.332,0.005,0.788,0.009,1.374
								c0,1.224,0,2.988,0.001,5.252c-0.017,4.562-0.041,11.133-0.071,19.274l-0.318-0.121c1.481-1.602,3.586-2.552,5.779-3.27
								c2.215-0.706,4.601-1.155,7.091-1.427c2.492-0.27,5.094-0.336,7.769-0.189c2.668,0.159,5.439,0.525,8.148,1.394
								c2.666,0.828,5.539,1.402,8.442,1.114c2.923-0.221,5.674-1.584,8.158-3.345c2.496-1.77,4.885-3.814,7.481-5.677
								c1.291-0.927,2.635-1.857,4.101-2.576l1.101-0.541l1.146-0.447c0.758-0.323,1.558-0.525,2.35-0.759
								c4.8-1.247,9.786-1.089,14.272,0.12l-0.251,0.435c-4.124-3.691-9.512-5.466-14.626-5.782
								c-2.577-0.174-5.102,0.106-7.528,0.617c-2.43,0.494-4.797,1.112-7.173,1.389c-1.186,0.139-2.372,0.192-3.537,0.11
								c-1.174-0.087-2.303-0.366-3.37-0.732c-2.141-0.738-4.044-1.81-5.876-2.807c-1.829-1.003-3.585-1.987-5.377-2.656
								c-1.807-0.648-3.582-1.153-5.295-1.529c-3.437-0.722-6.613-0.925-9.385-0.89c-2.775,0.025-5.152,0.245-7.083,0.454
								c-1.93,0.211-3.429,0.417-4.428,0.548c-0.485,0.062-0.863,0.11-1.141,0.146C212.077,88.012,211.933,88.021,211.933,88.021
								c-0.006-0.005,0.119-0.031,0.373-0.077c0.28-0.049,0.66-0.116,1.148-0.201c1.017-0.166,2.497-0.398,4.432-0.639
								c1.932-0.238,4.313-0.487,7.101-0.538c2.785-0.06,5.987,0.119,9.459,0.824c1.732,0.369,3.523,0.866,5.354,1.512
								c1.835,0.674,3.608,1.658,5.441,2.652c1.834,0.988,3.729,2.042,5.822,2.754c1.044,0.354,2.135,0.618,3.261,0.697
								c1.133,0.075,2.29,0.021,3.454-0.12c2.333-0.279,4.684-0.899,7.131-1.403c2.441-0.521,5.03-0.816,7.651-0.643
								c5.21,0.314,10.699,2.104,14.944,5.893l0.806,0.72l-1.057-0.284c-4.356-1.171-9.299-1.332-13.984-0.107
								c-0.775,0.23-1.559,0.427-2.299,0.743l-1.121,0.437l-1.076,0.529c-1.433,0.702-2.741,1.605-4.032,2.531
								c-2.579,1.847-4.963,3.885-7.493,5.675c-2.513,1.78-5.376,3.199-8.403,3.422c-3.006,0.291-5.934-0.308-8.63-1.151
								c-2.67-0.864-5.39-1.229-8.035-1.397c-2.647-0.154-5.229-0.098-7.698,0.16c-2.468,0.26-4.832,0.695-7.015,1.379
								c-2.162,0.693-4.223,1.626-5.626,3.129l-0.325,0.348l0.006-0.468c0.111-8.182,0.2-14.787,0.262-19.372
								c0.039-2.248,0.069-4,0.09-5.215c0.014-0.573,0.024-1.019,0.032-1.344C211.919,88.166,211.933,88.021,211.933,88.021z"/>
						</g>
					</g>
				</g>
				<g>
					<g>
						<path style="fill:#263238;" d="M261.993,97.999c0.035,0.081-1.113,0.51-2.656,1.698c-0.772,0.589-1.637,1.361-2.562,2.263
							c-0.927,0.899-1.92,1.929-3.053,2.93c-1.135,0.998-2.322,1.855-3.529,2.417c-1.204,0.564-2.391,0.833-3.395,0.881
							c-1.007,0.045-1.818-0.117-2.343-0.304c-0.529-0.186-0.785-0.364-0.773-0.387c0.026-0.102,1.159,0.508,3.09,0.323
							c0.953-0.091,2.075-0.384,3.213-0.946c1.14-0.558,2.281-1.397,3.393-2.376c1.113-0.982,2.113-1.998,3.066-2.886
							c0.951-0.891,1.859-1.65,2.676-2.214c0.818-0.564,1.535-0.937,2.048-1.149C261.681,98.038,261.983,97.971,261.993,97.999z"/>
					</g>
				</g>
				<g style="opacity:0.3;">
					<g>
						<path d="M243.696,108.451c-3.643-1.601-6.349-3.328-9.991-4.928c-1.546-0.679-3.169-1.42-4.14-2.801
							c-1.227-1.744-1.035-4.346,0.436-5.891c1.794-1.885,4.87-1.933,7.285-0.964c2.415,0.969,4.398,2.746,6.541,4.223
							c2.143,1.477,4.681,2.707,7.256,2.333c2.036-0.296,3.781-1.545,5.534-2.62c1.753-1.076,3.77-2.038,5.793-1.669
							c0.523,0.095,1.641,0.279,1.82,0.78c0.184,0.516-0.491,0.592-1.247,0.747c-0.537,0.11-1.12,0.357-1.615,0.592
							c-1.706,0.809-3.327,1.98-4.882,3.693c-1.586,1.746-3.808,3.756-5.771,4.981C248.752,108.152,245.966,108.9,243.696,108.451"
							/>
					</g>
				</g>
			</g>
		</g>
		<g>
			<g>
				<path style="fill:#263238;" d="M340.771,179.55c-0.007,0.034-0.539-0.033-1.495-0.2c-0.953-0.174-2.341-0.427-4.004-0.968
					c-1.647-0.545-3.618-1.416-5.313-3.057c-0.845-0.815-1.556-1.854-2.087-3.008c-0.531-1.156-0.905-2.416-1.219-3.704
					c-0.589-2.591-1.177-5.01-2.011-7.136c-0.805-2.129-1.722-3.971-2.579-5.465c-0.855-1.497-1.642-2.653-2.198-3.443
					c-0.555-0.792-0.877-1.22-0.844-1.247c0.014-0.011,0.111,0.082,0.283,0.272c0.172,0.189,0.423,0.472,0.723,0.853
					c0.609,0.757,1.448,1.89,2.353,3.378c0.907,1.485,1.87,3.332,2.71,5.48c0.868,2.136,1.487,4.621,2.069,7.184
					c0.594,2.548,1.513,4.929,3.139,6.497c1.595,1.583,3.491,2.472,5.095,3.05c1.619,0.575,2.988,0.883,3.926,1.118
					C340.258,179.38,340.778,179.514,340.771,179.55z"/>
			</g>
		</g>
		<g>
			<g>
				<g>
					<path style="fill:#FFBE9D;" d="M224.247,214.257l-3.766-2.34l-9.644-5.089c0,0-1.917,1.861,1.319,4.538l3.99,3.16
						c0,0,3.572,6.46,4.304,6.98c1.28,0.909,3.98,0.596,3.98,0.596"/>
				</g>
				<g>
					<g>
						<path style="fill:#EB996E;" d="M224.431,222.101c0.003,0.027-0.312,0.094-0.907,0.131c-0.591,0.017-1.48,0.068-2.559-0.29
							c-0.262-0.119-0.546-0.203-0.79-0.475c-0.21-0.238-0.396-0.494-0.585-0.764c-0.376-0.539-0.75-1.134-1.144-1.77
							c-0.785-1.273-1.626-2.717-2.512-4.289l0.062,0.073c-0.817-0.642-1.671-1.313-2.554-2.007
							c-0.855-0.714-1.868-1.337-2.628-2.351c-0.403-0.523-0.721-1.148-0.783-1.833c-0.061-0.688,0.156-1.367,0.63-1.882
							l0.124-0.135l0.173,0.092c3.873,2.057,7.245,3.873,9.602,5.168l0.008,0.004l0.002,0.002c1.109,0.725,2.02,1.322,2.733,1.788
							c0.63,0.424,0.962,0.666,0.946,0.693c-0.017,0.027-0.381-0.164-1.04-0.541c-0.733-0.432-1.672-0.985-2.813-1.658l0.01,0.006
							c-2.399-1.215-5.801-2.973-9.685-5.01l0.297-0.043c-0.328,0.362-0.531,0.932-0.47,1.471c0.051,0.549,0.316,1.088,0.682,1.562
							c0.669,0.908,1.672,1.544,2.534,2.266c0.877,0.7,1.725,1.377,2.536,2.024l0.039,0.031l0.023,0.042
							c0.867,1.575,1.685,3.03,2.438,4.312c0.378,0.64,0.736,1.242,1.089,1.781c0.176,0.269,0.353,0.525,0.531,0.742
							c0.148,0.195,0.431,0.311,0.655,0.419c0.984,0.372,1.87,0.379,2.448,0.409C224.109,222.087,224.428,222.072,224.431,222.101z"
							/>
					</g>
				</g>
			</g>
		</g>
	</g>
	<g>
		<g>
			<path style="fill:#455A64;" d="M373.917,403.692c0,0-6.914,22.471-16.421,41.485H104.263l-2.635-2.778
				c-17.56-18.515-30.806-40.722-38.514-65.048c-1.484-4.685-2.341-8.071-1.985-8.773L373.917,403.692z"/>
		</g>
		<g>
			<path style="fill:#263238;" d="M57.047,382.421l318.801,21.568c4.331,0.293,8.08-2.98,8.373-7.312l0,0
				c0.293-4.331-2.981-8.08-7.312-8.373L58.109,366.737c-4.331-0.293-8.08,2.98-8.373,7.311l0,0
				C49.443,378.379,52.716,382.128,57.047,382.421z"/>
		</g>
		<g>
			<g>
				<path style="fill:#A86B62;" d="M62.216,382.522c104.811,7.222,209.621,14.443,314.432,21.665"/>
			</g>
			<g>
				<g>
					<path style="fill:#263238;" d="M376.648,404.187c-0.01,0.143-70.412-4.59-157.226-10.572
						c-86.845-5.984-157.216-10.949-157.206-11.093c0.01-0.143,70.396,4.589,157.241,10.573
						C306.273,399.077,376.658,404.043,376.648,404.187z"/>
				</g>
			</g>
		</g>
		<g>
			<g>
				<path style="fill:#E0E0E0;" d="M369.41,416.923c-0.008,0.144-66.404-3.218-148.282-7.508
					c-81.906-4.291-148.277-7.885-148.269-8.029c0.008-0.143,66.39,3.218,148.296,7.509
					C303.033,413.185,369.417,416.78,369.41,416.923z"/>
			</g>
		</g>
		<g>
			<g>
				<path style="fill:#E0E0E0;" d="M362.749,433.805c-0.006,0.144-62.113-2.287-138.702-5.428
					c-76.616-3.143-138.7-5.806-138.694-5.949c0.006-0.144,62.099,2.287,138.715,5.429
					C300.657,430.997,362.754,433.661,362.749,433.805z"/>
			</g>
		</g>
		<g>
			<g>
				<path style="fill:#E0E0E0;" d="M125.602,404.348c-0.144,0-0.26-3.871-0.26-8.644c0-4.775,0.117-8.645,0.26-8.645
					c0.144,0,0.26,3.87,0.26,8.645C125.862,400.478,125.746,404.348,125.602,404.348z"/>
			</g>
		</g>
		<g>
			<g>
				<path style="fill:#E0E0E0;" d="M192.877,445.177c-0.144,0-0.26-4.01-0.26-8.955c0-4.947,0.117-8.956,0.26-8.956
					c0.144,0,0.26,4.009,0.26,8.956C193.138,441.168,193.021,445.177,192.877,445.177z"/>
			</g>
		</g>
		<g>
			<g>
				<path style="fill:#E0E0E0;" d="M289.803,412.753c-0.144,0-0.26-3.271-0.26-7.305c0-4.035,0.117-7.306,0.26-7.306
					c0.144,0,0.26,3.27,0.26,7.306C290.064,409.482,289.947,412.753,289.803,412.753z"/>
			</g>
		</g>
		<g>
			<g>
				<path style="fill:#E0E0E0;" d="M243.646,428.919c-0.144,0-0.26-4.137-0.26-9.24c0-5.104,0.117-9.241,0.26-9.241
					s0.26,4.137,0.26,9.241C243.906,424.782,243.79,428.919,243.646,428.919z"/>
			</g>
		</g>
	</g>
	<g>
		<g>
			<g>
				<path style="fill:#FFFFFF;" d="M58.973,455.547c11.237-13.378,21.272-20.33,36.976-25.821
					c15.704-5.491,33.471-4.83,48.723,1.815c9.648,4.203,18.982,10.839,29.487,10.206c10.946-0.66,19.917-9.111,30.623-11.485
					c20.209-4.481,40.274,13.438,60.572,9.381c9.521-1.903,17.813-8.516,27.495-9.247c13.792-1.042,25.875,10.016,39.677,10.918
					c11.279,0.737,22.268-5.418,33.498-4.137c9.45,1.078,17.426,7.199,26.026,11.263c8.6,4.063,9.051,4.813,26.669,6.448"/>
			</g>
			<g>
				<g>
					<path style="fill:#263238;" d="M418.72,454.888c0,0-0.335-0.014-0.987-0.068c-0.664-0.059-1.629-0.144-2.89-0.256
						c-2.535-0.265-6.296-0.544-11.063-1.471c-2.386-0.457-4.969-1.331-7.643-2.58c-2.666-1.256-5.588-2.578-8.616-4.227
						c-3.035-1.626-6.215-3.481-9.716-5.184c-3.501-1.67-7.374-3.214-11.661-3.721c-2.139-0.229-4.35-0.226-6.596-0.02
						c-2.247,0.214-4.521,0.636-6.828,1.122c-4.613,0.973-9.37,2.332-14.466,2.886c-2.54,0.266-5.172,0.338-7.798-0.059
						c-2.622-0.376-5.241-1.032-7.813-1.924c-5.154-1.768-10.176-4.258-15.532-6.231c-5.307-2.006-11.223-3.263-17.094-2.113
						c-5.876,1.11-11.295,4.128-17.072,6.469c-2.886,1.19-5.922,2.171-9.087,2.643c-3.162,0.487-6.409,0.412-9.619,0.038
						c-6.439-0.8-12.683-2.919-18.932-5.03c-6.251-2.11-12.462-4.233-18.827-5.041c-3.173-0.414-6.371-0.427-9.484,0.006
						c-3.118,0.429-6.095,1.449-8.942,2.671c-5.698,2.452-10.926,5.764-16.665,7.694c-2.854,0.969-5.835,1.551-8.801,1.53
						c-2.968,0.001-5.867-0.598-8.608-1.465c-5.5-1.758-10.413-4.507-15.277-6.878c-2.425-1.211-4.867-2.278-7.316-3.215
						c-1.241-0.423-2.452-0.904-3.697-1.248c-0.618-0.186-1.233-0.371-1.846-0.555c-0.621-0.156-1.239-0.311-1.854-0.466
						c-9.869-2.457-19.543-2.388-28.028-0.891c-4.256,0.749-8.212,1.92-11.864,3.274c-3.657,1.341-7.035,2.797-10.093,4.359
						c-3.06,1.559-5.795,3.223-8.216,4.894c-2.412,1.686-4.499,3.385-6.333,4.961c-3.62,3.211-6.189,5.965-7.896,7.855
						c-0.864,0.937-1.485,1.685-1.924,2.17c-0.433,0.49-0.665,0.732-0.665,0.732s0.205-0.265,0.624-0.766
						c0.426-0.496,1.034-1.256,1.886-2.205c1.684-1.914,4.232-4.695,7.841-7.938c1.828-1.592,3.912-3.309,6.324-5.013
						c2.421-1.689,5.16-3.372,8.225-4.95c3.063-1.581,6.448-3.054,10.111-4.411c3.657-1.37,7.637-2.561,11.913-3.325
						c8.528-1.529,18.258-1.62,28.196,0.834c0.62,0.155,1.242,0.31,1.867,0.466c0.617,0.184,1.237,0.369,1.859,0.555
						c1.254,0.344,2.474,0.826,3.724,1.25c2.468,0.94,4.93,2.011,7.362,3.221c4.879,2.37,9.782,5.102,15.219,6.831
						c2.71,0.854,5.56,1.438,8.467,1.434c2.905,0.017,5.823-0.554,8.639-1.512c5.662-1.906,10.878-5.212,16.622-7.691
						c2.869-1.234,5.897-2.273,9.07-2.711c3.165-0.442,6.413-0.428,9.622-0.01c6.439,0.817,12.679,2.952,18.93,5.061
						c6.248,2.112,12.462,4.217,18.828,5.009c3.173,0.371,6.372,0.445,9.481-0.033c3.109-0.462,6.101-1.425,8.97-2.606
						c5.741-2.318,11.188-5.355,17.17-6.484c2.971-0.587,6.012-0.552,8.928-0.124c2.925,0.432,5.735,1.273,8.423,2.275
						c5.389,1.993,10.401,4.487,15.515,6.248c2.552,0.889,5.14,1.541,7.724,1.916c2.586,0.396,5.177,0.329,7.694,0.071
						c5.046-0.539,9.795-1.883,14.427-2.85c2.317-0.483,4.606-0.902,6.875-1.113c2.269-0.203,4.508-0.201,6.676,0.038
						c4.346,0.527,8.249,2.1,11.761,3.789c3.512,1.723,6.687,3.591,9.71,5.226c3.01,1.656,5.922,2.989,8.581,4.258
						c2.66,1.258,5.208,2.136,7.581,2.607c4.741,0.954,8.502,1.266,11.031,1.565c1.259,0.134,2.222,0.237,2.885,0.308
						C418.389,454.838,418.72,454.888,418.72,454.888z"/>
				</g>
			</g>
		</g>
		<g>
			<g>
				<path style="fill:#FAFAFA;" d="M81.984,426.565c-5.284-4.466-11.957-7.266-18.846-7.906c-2.273-0.211-4.613-0.186-6.775,0.545
					c-2.162,0.731-4.139,2.249-5.009,4.36c-0.87,2.11-0.416,4.811,1.369,6.234c1.359,1.082,3.241,1.299,4.956,1.023
					c1.715-0.276,3.323-0.989,4.946-1.606c6.032-2.294,12.539-3.331,18.986-3.025"/>
			</g>
			<g>
				<g>
					<path style="fill:#263238;" d="M81.612,426.19c-0.001,0.018-0.25,0.027-0.723,0.028c-0.473-0.003-1.17,0.004-2.066,0.028
						c-1.791,0.054-4.389,0.208-7.54,0.786c-1.575,0.287-3.285,0.68-5.089,1.214c-1.813,0.524-3.669,1.255-5.663,2.031
						c-1.004,0.369-2.066,0.704-3.204,0.843c-1.132,0.129-2.34,0.065-3.471-0.383c-1.133-0.429-2.128-1.334-2.649-2.479
						c-0.529-1.14-0.666-2.456-0.415-3.711c0.252-1.265,0.924-2.39,1.776-3.278c0.859-0.89,1.895-1.559,2.985-2.024
						c2.202-0.927,4.535-1.028,6.662-0.896c4.279,0.296,8.031,1.376,10.996,2.649c2.972,1.279,5.177,2.712,6.627,3.777
						c0.721,0.542,1.268,0.977,1.621,1.295c0.357,0.312,0.539,0.482,0.527,0.496c-0.012,0.014-0.216-0.129-0.593-0.414
						c-0.373-0.29-0.938-0.698-1.672-1.211c-1.478-1.008-3.694-2.381-6.652-3.603c-2.951-1.217-6.668-2.245-10.882-2.51
						c-2.089-0.118-4.348,0-6.433,0.886c-2.045,0.865-3.974,2.604-4.451,4.937c-0.23,1.147-0.103,2.358,0.374,3.388
						c0.474,1.035,1.34,1.828,2.369,2.225c1.025,0.411,2.156,0.481,3.225,0.363c1.075-0.125,2.107-0.442,3.097-0.799
						c1.97-0.753,3.88-1.487,5.707-1.995c1.826-0.521,3.556-0.896,5.146-1.163c3.184-0.536,5.802-0.634,7.601-0.626
						c0.901,0.007,1.6,0.033,2.072,0.07C81.365,426.146,81.613,426.172,81.612,426.19z"/>
				</g>
			</g>
		</g>
		<g>
			<g>
				<circle style="fill:#FAFAFA;" cx="165.645" cy="427.103" r="5.643"/>
			</g>
			<g>
				<g>
					<path style="fill:#263238;" d="M171.288,427.103c-0.053,0.003-0.039-0.503-0.275-1.353c-0.233-0.835-0.807-2.052-2.066-2.986
						c-1.216-0.936-3.214-1.457-5.143-0.735c-1.913,0.662-3.564,2.698-3.542,5.074c-0.022,2.377,1.629,4.413,3.542,5.075
						c1.93,0.722,3.927,0.201,5.143-0.736c1.259-0.934,1.833-2.152,2.065-2.986C171.249,427.605,171.235,427.1,171.288,427.103
						c0.018,0,0.029,0.124,0.034,0.363c0.01,0.238-0.016,0.594-0.112,1.04c-0.18,0.879-0.725,2.193-2.039,3.229
						c-1.268,1.038-3.417,1.654-5.53,0.894c-1.04-0.364-2.036-1.064-2.746-2.039c-0.729-0.963-1.143-2.207-1.153-3.487
						c0.011-1.279,0.425-2.524,1.154-3.486c0.71-0.976,1.706-1.675,2.746-2.039c2.113-0.76,4.262-0.144,5.53,0.894
						c1.313,1.036,1.859,2.35,2.039,3.229c0.096,0.446,0.122,0.801,0.112,1.04C171.318,426.979,171.306,427.103,171.288,427.103z"/>
				</g>
			</g>
		</g>
	</g>
</g>
</svg>
