<?xml version="1.0" encoding="utf-8"?>
<!-- Generator: Adobe Illustrator 27.5.0, SVG Export Plug-In . SVG Version: 6.00 Build 0)  -->
<svg version="1.1" xmlns="http://www.w3.org/2000/svg" xmlns:xlink="http://www.w3.org/1999/xlink" x="0px" y="0px"
	 viewBox="0 0 500 500" style="enable-background:new 0 0 500 500;" xml:space="preserve">
<g id="Background_Complete">
	<g>
		<g>
			<path style="fill:#EBEBEB;" d="M377.555,326.032c0,0-8.08-5.84-19.037,13.612c-10.958,19.452-15.273,30.754-15.273,30.754
				s-2.851,4.053-5.598,1.212c-2.747-2.841-6.343-10.726-11.262-9.538c-5.103,1.232-6.998,6.79-6.381,15.099
				c0.617,8.309,1.3,26.564,1.355,28.215c0.055,1.621-0.97,3.962-3.151,2.327c-2.182-1.635-14.5-16.561-21.233-10.292
				c-6.733,6.27-1.211,29.136-0.655,31.647c0.556,2.511,0.026,3.552-1.18,4.117c-1.205,0.566-4.873-4.842-8.551-8.943
				c-3.678-4.102-8.661-8.213-12.242-4.27c-3.581,3.943-5.379,20.852,9.608,49.064l7.801,12.618l14.899-0.205
				c31.858-2.382,45.198-12.927,46.621-18.06c1.423-5.133-4.714-7.153-10.145-8.074c-5.431-0.921-11.962-1.137-12.127-2.458
				c-0.165-1.321,0.432-2.325,2.852-3.195c2.42-0.87,24.705-8.404,26.413-17.444c1.709-9.039-17.488-11.492-20.036-12.464
				c-2.547-0.972-1.114-3.088,0.286-3.907c1.426-0.834,17.228-9.999,24.584-13.912c7.356-3.913,11.045-8.482,9.363-13.454
				c-1.621-4.795-10.208-3.628-14.077-4.434c-3.869-0.807-1.963-5.38-1.963-5.38s7.255-9.681,17.857-29.329
				c10.602-19.648,1.1-23.411,1.1-23.411"/>
		</g>
		<g>
			<g>
				<path style="fill:#E0E0E0;" d="M289.274,484.221c7.843-14.399,22.213-39.757,34.437-61.592
					c12.22-21.828,23.265-41.6,31.181-55.958c3.943-7.171,7.138-12.979,9.356-17.013c1.099-1.995,1.956-3.55,2.548-4.625
					c0.289-0.513,0.512-0.911,0.673-1.197c0.154-0.268,0.243-0.4,0.243-0.4s-0.061,0.147-0.202,0.423
					c-0.151,0.291-0.361,0.696-0.633,1.219c-0.574,1.084-1.405,2.653-2.471,4.666c-2.151,4.049-5.304,9.887-9.228,17.085
					c-7.843,14.399-18.845,34.199-31.065,56.026c-12.224,21.835-26.638,47.166-34.554,61.524"/>
			</g>
		</g>
		<g>
			<g>
				<path style="fill:#E0E0E0;" d="M330.97,373.303c0.031-0.007,0.147,0.357,0.332,1.021c0.188,0.664,0.43,1.631,0.719,2.83
					c0.572,2.398,1.279,5.729,1.992,9.42c0.69,3.642,1.313,6.935,1.791,9.454c0.222,1.134,0.41,2.091,0.56,2.86
					c0.135,0.675,0.196,1.052,0.165,1.06c-0.031,0.008-0.15-0.355-0.34-1.018c-0.185-0.665-0.428-1.633-0.704-2.834
					c-0.549-2.404-1.212-5.744-1.924-9.434c-0.716-3.635-1.363-6.922-1.858-9.438c-0.228-1.133-0.421-2.09-0.575-2.859
					C330.997,373.688,330.939,373.311,330.97,373.303z"/>
			</g>
		</g>
		<g>
			<g>
				<path style="fill:#E0E0E0;" d="M337.879,400.268c-0.03-0.124,6.775-1.882,15.196-3.928c8.425-2.046,15.277-3.604,15.307-3.481
					c0.03,0.124-6.773,1.882-15.198,3.928C344.763,398.833,337.909,400.391,337.879,400.268z"/>
			</g>
		</g>
		<g>
			<g>
				<path style="fill:#E0E0E0;" d="M317.598,432.947c0.003-0.032,0.393-0.032,1.096-0.005c0.797,0.036,1.792,0.081,2.974,0.134
					c2.511,0.11,5.978,0.247,9.81,0.258c3.833,0.02,7.302-0.083,9.813-0.178c1.182-0.043,2.178-0.08,2.975-0.109
					c0.703-0.022,1.093-0.019,1.095,0.012c0.002,0.032-0.383,0.089-1.083,0.167c-0.7,0.077-1.714,0.169-2.97,0.256
					c-2.511,0.178-5.989,0.333-9.833,0.314c-3.843-0.011-7.319-0.2-9.828-0.393c-1.255-0.102-2.269-0.195-2.968-0.281
					C317.981,433.039,317.596,432.979,317.598,432.947z"/>
			</g>
		</g>
		<g>
			<g>
				<path style="fill:#E0E0E0;" d="M305.981,409.933c0.028-0.015,0.221,0.29,0.546,0.853c0.363,0.655,0.81,1.458,1.336,2.407
					c1.111,2.041,2.616,4.876,4.254,8.02c1.638,3.145,3.099,6.004,4.135,8.084c0.475,0.975,0.878,1.801,1.206,2.474
					c0.276,0.589,0.415,0.922,0.387,0.936c-0.028,0.014-0.221-0.29-0.546-0.854c-0.363-0.654-0.81-1.458-1.336-2.406
					c-1.111-2.041-2.616-4.876-4.255-8.021c-1.638-3.144-3.098-6.002-4.135-8.083c-0.475-0.975-0.878-1.801-1.206-2.474
					C306.092,410.28,305.953,409.948,305.981,409.933z"/>
			</g>
		</g>
		<g>
			<g>
				<path style="fill:#E0E0E0;" d="M284.411,436.508c0.028-0.015,0.271,0.377,0.688,1.099c0.449,0.802,1.028,1.836,1.724,3.078
					c1.438,2.608,3.396,6.227,5.534,10.236c2.138,4.011,4.051,7.654,5.415,10.301c0.643,1.27,1.179,2.327,1.595,3.147
					c0.367,0.748,0.557,1.168,0.529,1.183c-0.028,0.015-0.271-0.377-0.688-1.099c-0.449-0.802-1.028-1.836-1.724-3.078
					c-1.438-2.608-3.396-6.227-5.535-10.238c-2.138-4.009-4.05-7.652-5.415-10.299c-0.643-1.269-1.179-2.327-1.595-3.146
					C284.573,436.943,284.383,436.523,284.411,436.508z"/>
			</g>
		</g>
		<g>
			<g>
				<path style="fill:#E0E0E0;" d="M299.721,464.752c0.001-0.032,0.495-0.045,1.388-0.041c0.974,0.009,2.245,0.02,3.777,0.034
					c3.189,0.026,7.593,0.044,12.455-0.073c4.864-0.11,9.263-0.325,12.447-0.503c1.529-0.084,2.799-0.154,3.771-0.208
					c0.891-0.046,1.385-0.056,1.388-0.024c0.003,0.032-0.486,0.102-1.373,0.203c-0.887,0.101-2.172,0.226-3.763,0.354
					c-3.181,0.262-7.586,0.529-12.458,0.639c-4.87,0.118-9.282,0.048-12.472-0.062c-1.595-0.059-2.885-0.119-3.776-0.181
					C300.212,464.832,299.72,464.784,299.721,464.752z"/>
			</g>
		</g>
	</g>
	<g>
		<g>
			<g>
				<g>
					<g>
						<path style="fill:#EBEBEB;" d="M168.408,483.251c18.471-11.58,23.675-34.524,24.006-55.366
							c0.056-3.479,0.62-7.121-0.88-10.251c-1.501-3.129-5.251-5.404-8.434-4.096c-2.64,1.086-3.913,4.03-5.48,6.439
							c-2.084,3.206-5.081,5.795-8.533,7.374c-2.269,1.037-5.04,1.603-7.163,0.29c-2.913-1.802-3.06-5.959-2.866-9.412
							c0.362-6.436,0.722-12.872,1.084-19.307c0.194-3.453,0.38-6.979-0.531-10.311c-0.911-3.332-3.133-6.496-6.373-7.58
							c-3.241-1.084-7.398,0.608-8.261,3.954c-0.359,1.393-0.145,2.868-0.313,4.296c-0.167,1.429-0.915,2.983-2.296,3.314
							c-1.399,0.336-2.732-0.712-3.714-1.775c-3.392-3.665-5.587-8.279-7.625-12.86c-2.038-4.581-4.005-9.265-7.05-13.23
							c-3.045-3.965-7.37-7.203-12.302-7.73c-4.934-0.526-10.356,2.264-11.849,7.058c-1.496,4.807,1.098,9.89,3.993,13.986
							c4.295,6.077,9.463,11.52,15.29,16.103c1.05,0.827,2.189,1.721,2.541,3.021c0.636,2.34-1.661,4.519-3.972,5.162
							c-2.618,0.729-5.398,0.322-8.107,0.505c-2.709,0.183-5.686,1.225-6.832,3.72c-1.591,3.46,1.177,7.308,3.962,9.877
							c5.576,5.144,12.028,9.309,18.985,12.259c2.495,1.056,5.128,2.006,7.088,3.893c1.96,1.888,3.042,5.054,1.683,7.425
							c-1.36,2.374-4.577,2.994-7.214,2.367c-2.636-0.626-4.947-2.19-7.436-3.273c-4.658-2.029-10.804-2.007-14.049,1.944
							c-2.133,2.597-2.496,6.343-1.646,9.608c0.85,3.265,2.762,6.136,4.811,8.798c7.163,9.305,16.544,16.977,27.366,21.345
							C147.112,485.165,157.264,486.707,168.408,483.251"/>
					</g>
				</g>
			</g>
		</g>
		<g>
			<g>
				<g>
					<g>
						<g>
							<path style="fill:#E0E0E0;" d="M163.687,469.94c-2.539-10.653-6.29-22.099-10.624-33.936
								c-1.095-2.955-2.176-5.875-3.242-8.753c-1.071-2.87-2.132-5.717-3.342-8.436c-2.398-5.452-5.118-10.51-7.851-15.231
								c-2.731-4.724-5.495-9.107-8.11-13.186c-2.624-4.076-5.142-7.828-7.582-11.15c-4.862-6.666-9.411-11.568-12.671-14.805
								c-1.627-1.625-2.93-2.844-3.825-3.658c-0.431-0.387-0.769-0.691-1.023-0.92c-0.233-0.204-0.356-0.304-0.363-0.296
								c-0.008,0.008,0.1,0.125,0.319,0.345c0.244,0.24,0.568,0.56,0.98,0.966c0.865,0.845,2.14,2.091,3.739,3.741
								c3.201,3.288,7.682,8.219,12.483,14.898c2.411,3.33,4.9,7.088,7.501,11.17c2.593,4.089,5.337,8.476,8.048,13.196
								c2.711,4.717,5.41,9.763,7.786,15.188c1.2,2.707,2.249,5.529,3.32,8.407c1.064,2.876,2.144,5.795,3.237,8.749
								c4.331,11.828,8.089,23.241,10.652,33.854"/>
						</g>
					</g>
				</g>
			</g>
		</g>
		<g>
			<g>
				<g>
					<g>
						<g>
							<path style="fill:#E0E0E0;" d="M146.298,418.78c0.042,0.009,0.186-0.51,0.411-1.457c0.229-0.946,0.515-2.324,0.844-4.032
								c0.66-3.415,1.41-8.162,2.218-13.398c0.808-5.24,1.623-9.962,2.333-13.358c0.351-1.698,0.648-3.071,0.865-4.016
								c0.213-0.948,0.31-1.478,0.268-1.49c-0.042-0.012-0.22,0.496-0.507,1.426c-0.292,0.928-0.657,2.289-1.064,3.98
								c-0.826,3.382-1.716,8.113-2.523,13.357c-0.784,5.17-1.492,9.847-2.034,13.42c-0.254,1.613-0.471,2.972-0.644,4.063
								C146.317,418.235,146.254,418.771,146.298,418.78z"/>
						</g>
					</g>
				</g>
			</g>
		</g>
		<g>
			<g>
				<g>
					<g>
						<g>
							<path style="fill:#E0E0E0;" d="M102.301,408.266c-0.003,0.044,0.625,0.149,1.761,0.301c1.134,0.158,2.777,0.378,4.798,0.716
								c4.046,0.642,9.603,1.724,15.682,3.187c6.079,1.474,11.523,3.042,15.427,4.289c1.958,0.61,3.529,1.146,4.617,1.511
								c1.087,0.369,1.695,0.553,1.712,0.512c0.016-0.042-0.564-0.305-1.627-0.747c-1.064-0.436-2.616-1.04-4.561-1.708
								c-3.88-1.362-9.323-3.004-15.42-4.484c-6.097-1.466-11.69-2.482-15.765-3.01c-2.036-0.28-3.692-0.433-4.838-0.514
								C102.941,408.242,102.306,408.22,102.301,408.266z"/>
						</g>
					</g>
				</g>
			</g>
		</g>
		<g>
			<g>
				<g>
					<g>
						<g>
							<path style="fill:#E0E0E0;" d="M163.182,469.095c0.02,0.01,0.133-0.171,0.331-0.526c0.227-0.424,0.504-0.942,0.84-1.569
								c0.723-1.365,1.718-3.369,2.914-5.86c2.396-4.981,5.49-11.965,8.799-19.718c3.312-7.756,6.336-14.76,8.625-19.783
								c1.121-2.442,2.043-4.45,2.728-5.943c0.294-0.648,0.535-1.183,0.733-1.622c0.161-0.373,0.237-0.574,0.217-0.585
								c-0.02-0.009-0.133,0.172-0.332,0.528c-0.227,0.424-0.504,0.941-0.839,1.568c-0.723,1.366-1.718,3.369-2.914,5.86
								c-2.396,4.981-5.49,11.965-8.801,19.721c-3.311,7.754-6.335,14.756-8.624,19.781c-1.122,2.44-2.043,4.45-2.728,5.941
								c-0.294,0.648-0.535,1.184-0.734,1.622C163.237,468.885,163.162,469.086,163.182,469.095z"/>
						</g>
					</g>
				</g>
			</g>
		</g>
		<g>
			<g>
				<g>
					<g>
						<g>
							<path style="fill:#E0E0E0;" d="M105.116,447.132c-0.007,0.021,0.191,0.114,0.574,0.271c0.454,0.178,1.011,0.396,1.685,0.66
								c1.557,0.592,3.66,1.392,6.217,2.363c5.25,1.997,12.468,4.837,20.44,7.987c7.974,3.152,15.227,5.929,20.519,7.817
								c2.646,0.945,4.794,1.688,6.289,2.171c0.691,0.219,1.262,0.399,1.725,0.546c0.397,0.118,0.609,0.169,0.616,0.148
								c0.007-0.021-0.191-0.114-0.574-0.272c-0.453-0.176-1.01-0.394-1.685-0.659c-1.558-0.592-3.659-1.391-6.216-2.363
								c-5.25-1.996-12.469-4.837-20.444-7.988c-7.972-3.151-15.223-5.927-20.516-7.815c-2.646-0.945-4.794-1.688-6.29-2.171
								c-0.691-0.219-1.26-0.4-1.725-0.546C105.335,447.162,105.124,447.111,105.116,447.132z"/>
						</g>
					</g>
				</g>
			</g>
		</g>
	</g>
	<g>
		<g>
			<g>
				<path style="fill:#E0E0E0;" d="M82.037,84.928c0.522,2.745-1.281,5.394-4.026,5.916c-2.745,0.522-5.394-1.281-5.916-4.026
					c-0.522-2.745,1.281-5.394,4.026-5.916C78.867,80.38,81.515,82.182,82.037,84.928z"/>
			</g>
		</g>
		<g>
			<g>
				<g>
					<path style="fill:#E0E0E0;" d="M81.001,83.41c-0.205,0.233-4.225-3.275-8.292-8.373c-4.042-5.094-7.261-9.211-7.061-9.403
						c0.247-0.233,3.897,3.622,7.925,8.7C77.607,79.39,81.209,83.185,81.001,83.41z"/>
				</g>
			</g>
		</g>
		<g>
			<g>
				<g>
					<path style="fill:#E0E0E0;" d="M73.77,58.406c0.288,0.039-0.276,2.835-2.731,5.153c-2.433,2.343-5.253,2.773-5.278,2.484
						c-0.098-0.314,2.32-1.165,4.509-3.29C72.496,60.668,73.461,58.292,73.77,58.406z"/>
				</g>
			</g>
		</g>
		<g>
			<g>
				<g>
					<path style="fill:#E0E0E0;" d="M76.821,62.679c0.299,0.008-0.145,2.817-2.703,4.909c-2.535,2.122-5.377,2.033-5.328,1.737
						c-0.045-0.324,2.398-0.715,4.618-2.595C75.669,64.901,76.511,62.575,76.821,62.679z"/>
				</g>
			</g>
		</g>
	</g>
	<g>
		<g>
			<g>
				<path style="fill:#E0E0E0;" d="M425.138,292.368c0.522,2.745-1.281,5.394-4.026,5.916c-2.745,0.522-5.394-1.281-5.916-4.026
					c-0.522-2.745,1.281-5.394,4.026-5.916C421.968,287.821,424.616,289.623,425.138,292.368z"/>
			</g>
		</g>
		<g>
			<g>
				<g>
					<path style="fill:#E0E0E0;" d="M424.102,290.85c-0.205,0.233-4.225-3.275-8.292-8.373c-4.042-5.094-7.261-9.211-7.061-9.403
						c0.247-0.233,3.897,3.622,7.925,8.699C420.708,286.831,424.31,290.625,424.102,290.85z"/>
				</g>
			</g>
		</g>
		<g>
			<g>
				<g>
					<path style="fill:#E0E0E0;" d="M416.871,265.846c0.288,0.039-0.276,2.836-2.731,5.154c-2.433,2.343-5.253,2.773-5.278,2.484
						c-0.098-0.314,2.32-1.164,4.509-3.29C415.597,268.108,416.562,265.733,416.871,265.846z"/>
				</g>
			</g>
		</g>
		<g>
			<g>
				<g>
					<path style="fill:#E0E0E0;" d="M419.922,270.119c0.299,0.008-0.145,2.817-2.703,4.909c-2.535,2.122-5.377,2.033-5.328,1.737
						c-0.045-0.324,2.398-0.715,4.618-2.596C418.77,272.342,419.612,270.015,419.922,270.119z"/>
				</g>
			</g>
		</g>
	</g>
	<g>
		<g>
			<g>
				<path style="fill:#E0E0E0;" d="M411.515,74.561c-2.337,1.533-5.474,0.881-7.006-1.456c-1.533-2.337-0.881-5.473,1.456-7.006
					c2.337-1.533,5.473-0.881,7.006,1.456C414.503,69.892,413.852,73.028,411.515,74.561z"/>
			</g>
		</g>
		<g>
			<g>
				<g>
					<path style="fill:#E0E0E0;" d="M412.521,73.023c-0.293-0.101,1.409-5.156,4.563-10.865c3.16-5.684,5.732-10.233,5.986-10.122
						c0.31,0.139-1.855,4.986-5.005,10.651C414.936,68.349,412.808,73.128,412.521,73.023z"/>
				</g>
			</g>
		</g>
		<g>
			<g>
				<g>
					<path style="fill:#E0E0E0;" d="M432.855,56.775c0.074,0.281-2.725,0.83-5.806-0.552c-3.096-1.351-4.572-3.792-4.314-3.926
						c0.253-0.211,1.964,1.698,4.765,2.907C430.278,56.463,432.842,56.445,432.855,56.775z"/>
				</g>
			</g>
		</g>
		<g>
			<g>
				<g>
					<path style="fill:#E0E0E0;" d="M430.074,61.228c0.107,0.28-2.658,0.944-5.57-0.619c-2.931-1.53-3.935-4.19-3.644-4.258
						c0.282-0.165,1.579,1.942,4.165,3.273C427.58,61.014,430.052,60.902,430.074,61.228z"/>
				</g>
			</g>
		</g>
	</g>
	<g>
		<g>
			<g>
				<g>
					<g>
						<path style="fill:#E0E0E0;" d="M61.146,216.687c-2.547,1.953-6.195,1.472-8.148-1.074c-1.953-2.547-1.472-6.195,1.074-8.148
							c2.547-1.953,6.195-1.472,8.148,1.074C64.174,211.085,63.693,214.734,61.146,216.687z"/>
					</g>
				</g>
				<g>
					<g>
						<g>
							<path style="fill:#E0E0E0;" d="M62.169,214.84c-0.542-0.145,0.833-6.16,3.97-12.982c3.141-6.785,5.843-12.126,6.335-11.951
								c0.558,0.202-1.369,6.025-4.494,12.774C64.882,209.416,62.703,214.991,62.169,214.84z"/>
						</g>
					</g>
				</g>
				<g>
					<g>
						<g>
							<path style="fill:#E0E0E0;" d="M87.792,200.852c0.009,0.471-4.843,0.647-9.91-2.335c-2.502-1.46-4.369-3.483-5.237-5.223
								c-0.914-1.743-0.773-3.044-0.533-3.06c0.309-0.058,0.657,0.985,1.738,2.297c1.046,1.327,2.796,2.926,5.065,4.254
								C83.448,199.485,87.896,200.225,87.792,200.852z"/>
						</g>
					</g>
				</g>
			</g>
			<g>
				<g>
					<path style="fill:#E0E0E0;" d="M76.464,227.633c-2.547,1.953-6.195,1.472-8.148-1.074c-1.953-2.547-1.472-6.195,1.074-8.148
						c2.547-1.953,6.195-1.472,8.148,1.074C79.492,222.031,79.011,225.679,76.464,227.633z"/>
				</g>
			</g>
			<g>
				<g>
					<g>
						<path style="fill:#E0E0E0;" d="M77.487,225.786c-0.542-0.145,0.833-6.16,3.97-12.982c3.141-6.785,5.843-12.126,6.335-11.951
							c0.558,0.202-1.369,6.025-4.494,12.774C80.2,220.362,78.021,225.936,77.487,225.786z"/>
					</g>
				</g>
			</g>
			<g>
				<g>
					<g>
						<path style="fill:#E0E0E0;" d="M86.307,204.532c0.068,0.523-4.555,0.995-9.403-1.634c-4.873-2.586-7.037-6.697-6.564-6.93
							c0.477-0.35,3.131,2.848,7.517,5.152C82.202,203.499,86.334,203.94,86.307,204.532z"/>
					</g>
				</g>
			</g>
		</g>
	</g>
	<g>
		<g>
			<g>
				<g>
					<g>
						<path style="fill:#EBEBEB;" d="M444.337,152.217c-0.672,3.002-3.651,4.891-6.653,4.219c-3.002-0.672-4.891-3.651-4.219-6.653
							c0.672-3.002,3.651-4.891,6.654-4.219C443.12,146.236,445.009,149.214,444.337,152.217z"/>
					</g>
				</g>
				<g>
					<g>
						<g>
							<path style="fill:#EBEBEB;" d="M443.953,150.23c-0.487,0.227-3.174-5.043-5.06-11.989c-1.861-6.921-3.157-12.51-2.687-12.684
								c0.535-0.195,2.697,5.273,4.547,12.158C442.615,144.572,444.439,150.012,443.953,150.23z"/>
						</g>
					</g>
				</g>
				<g>
					<g>
						<g>
							<path style="fill:#EBEBEB;" d="M454.2,124.19c0.296,0.341-3.164,3.453-8.724,4.374c-2.738,0.465-5.355,0.124-7.063-0.622
								c-1.744-0.72-2.439-1.764-2.273-1.923c0.192-0.232,1.089,0.321,2.69,0.621c1.585,0.333,3.855,0.433,6.341,0.015
								C450.165,125.855,453.891,123.665,454.2,124.19z"/>
						</g>
					</g>
				</g>
			</g>
			<g>
				<g>
					<path style="fill:#EBEBEB;" d="M462.332,150.851c-0.672,3.002-3.651,4.891-6.653,4.219c-3.002-0.672-4.891-3.651-4.219-6.653
						c0.672-3.002,3.651-4.891,6.654-4.219C461.115,144.87,463.004,147.848,462.332,150.851z"/>
				</g>
			</g>
			<g>
				<g>
					<g>
						<path style="fill:#EBEBEB;" d="M461.948,148.864c-0.487,0.227-3.174-5.043-5.061-11.989
							c-1.861-6.921-3.157-12.511-2.687-12.685c0.535-0.195,2.697,5.273,4.547,12.158
							C460.61,143.207,462.434,148.646,461.948,148.864z"/>
					</g>
				</g>
			</g>
			<g>
				<g>
					<g>
						<path style="fill:#EBEBEB;" d="M455.37,127.809c0.371,0.343-2.739,3.532-7.921,4.579c-5.174,1.094-9.293-0.6-9.088-1.062
							c0.136-0.551,4.053,0.17,8.696-0.831C451.716,129.573,455.027,127.357,455.37,127.809z"/>
					</g>
				</g>
			</g>
		</g>
	</g>
	<g>
		<g>
			<g>
				<g>
					<g>
						<path style="fill:#F5F5F5;" d="M41.137,143.293c-0.422,2.024-2.404,3.323-4.428,2.902c-2.024-0.421-3.323-2.404-2.902-4.428
							c0.421-2.024,2.404-3.323,4.428-2.902S41.558,141.269,41.137,143.293z"/>
					</g>
				</g>
				<g>
					<g>
						<g>
							<path style="fill:#F5F5F5;" d="M40.859,141.962c-0.325,0.157-2.184-3.356-3.521-8.004c-1.32-4.631-2.247-8.373-1.933-8.495
								c0.357-0.136,1.865,3.516,3.178,8.123C39.903,138.174,41.183,141.811,40.859,141.962z"/>
						</g>
					</g>
				</g>
				<g>
					<g>
						<g>
							<path style="fill:#F5F5F5;" d="M47.481,124.363c0.203,0.226-2.091,2.352-5.817,3.027c-1.835,0.34-3.597,0.137-4.751-0.347
								c-1.179-0.466-1.657-1.16-1.547-1.269c0.126-0.158,0.735,0.205,1.814,0.39c1.068,0.208,2.594,0.252,4.26-0.054
								C44.787,125.522,47.268,124.014,47.481,124.363z"/>
						</g>
					</g>
				</g>
			</g>
			<g>
				<g>
					<path style="fill:#F5F5F5;" d="M53.213,142.194c-0.421,2.024-2.404,3.323-4.428,2.902s-3.323-2.404-2.902-4.428
						c0.421-2.024,2.404-3.323,4.428-2.901S53.635,140.17,53.213,142.194z"/>
				</g>
			</g>
			<g>
				<g>
					<g>
						<path style="fill:#F5F5F5;" d="M52.936,140.863c-0.325,0.157-2.184-3.356-3.521-8.004c-1.32-4.631-2.247-8.374-1.933-8.495
							c0.357-0.136,1.865,3.516,3.178,8.123C51.979,137.075,53.26,140.712,52.936,140.863z"/>
					</g>
				</g>
			</g>
			<g>
				<g>
					<g>
						<path style="fill:#F5F5F5;" d="M48.304,126.783c0.253,0.227-1.804,2.401-5.275,3.156c-3.465,0.787-6.25-0.31-6.117-0.622
							c0.086-0.372,2.725,0.074,5.834-0.646C45.866,128.005,48.069,126.483,48.304,126.783z"/>
					</g>
				</g>
			</g>
		</g>
	</g>
	<g>
		<g>
			<g>
				<g>
					<g>
						<path style="fill:#F5F5F5;" d="M430.123,209.277c-1.874,0.874-4.101,0.063-4.975-1.81c-0.874-1.874-0.063-4.101,1.81-4.975
							c1.874-0.874,4.101-0.063,4.975,1.81C432.808,206.176,431.997,208.404,430.123,209.277z"/>
					</g>
				</g>
				<g>
					<g>
						<g>
							<path style="fill:#F5F5F5;" d="M431.024,208.258c-0.321-0.166,1.382-3.758,4.305-7.611c2.92-3.829,5.363-6.812,5.648-6.633
								c0.323,0.205-1.7,3.598-4.605,7.408C433.486,205.225,431.339,208.427,431.024,208.258z"/>
						</g>
					</g>
				</g>
				<g>
					<g>
						<g>
							<path style="fill:#F5F5F5;" d="M449.085,203.03c-0.06,0.298-3.136-0.268-5.907-2.848c-1.37-1.266-2.263-2.799-2.566-4.014
								c-0.332-1.223-0.062-2.022,0.091-1.999c0.202,0.007,0.276,0.711,0.773,1.687c0.473,0.98,1.351,2.23,2.593,3.38
								C446.544,201.565,449.238,202.65,449.085,203.03z"/>
						</g>
					</g>
				</g>
			</g>
			<g>
				<g>
					<circle style="fill:#F5F5F5;" cx="436.65" cy="214.902" r="3.743"/>
				</g>
			</g>
			<g>
				<g>
					<g>
						<path style="fill:#F5F5F5;" d="M439.133,217.275c-0.321-0.166,1.382-3.758,4.305-7.611c2.92-3.829,5.363-6.812,5.648-6.634
							c0.323,0.205-1.7,3.598-4.605,7.407C441.594,214.242,439.448,217.444,439.133,217.275z"/>
					</g>
				</g>
			</g>
			<g>
				<g>
					<g>
						<path style="fill:#F5F5F5;" d="M447.639,205.137c-0.03,0.338-3.003-0.009-5.686-2.337c-2.705-2.305-3.492-5.192-3.163-5.272
							c0.349-0.154,1.572,2.227,4.01,4.287C445.202,203.916,447.739,204.769,447.639,205.137z"/>
					</g>
				</g>
			</g>
		</g>
	</g>
</g>
<g id="Background_Simple" style="display:none;">
	<path style="display:inline;fill:#EBEBEB;" d="M410.016,284.531c-7.939-19.464-32.717-31.419-52.797-25.202
		c-14.826,4.59-29.509,18.484-36.914,32.124c-7.405,13.64-14.318,28.473-27.109,37.264c-17.638,12.122-41.438,9.346-61.955,3.254
		c-20.517-6.092-40.917-15.097-62.287-13.919c-0.652,0.036-1.303,0.081-1.95,0.136c-34.952,2.971-56.801,39.227-44.277,71.994
		c8.289,21.686,25.05,35.694,40.968,44.282c22.072,11.907,48.045,13.841,73.121,14.182c23.425,0.319,47.057-0.56,69.83-6.059
		c22.772-5.498,43.99-15.82,61.792-31.048c25.225-21.578,31.824-30.147,43.256-59.986
		C419.214,331.922,417.955,303.995,410.016,284.531z"/>
	<path style="display:inline;fill:#EBEBEB;" d="M449.886,171.445c-4.23-9.826-16.971-15.635-26.528-10.827
		c-10.87,1.248-19.466,15.437-18.939,26.758c0.527,11.321,12.662,21.927,23.956,20.977c5.599-0.471,11.96-2.903,16.262-6.517
		C453.947,194.016,454.117,181.271,449.886,171.445z"/>
	<path style="display:inline;fill:#EBEBEB;" d="M98.011,214.758c0.782-7.659-4.172-15.283-11.114-18.612
		c-6.942-3.33-15.398-2.681-22.304,0.722c-6.907,3.403-12.354,9.314-16.235,15.963c-6.541,11.206-8.884,24.798-6.472,37.548
		c2.412,12.749,9.559,24.546,19.742,32.588c4.569,3.271,15.772,8.89,27.52,4.943c9.685-3.253,15.015-13.044,13.494-23.147
		c-1.638-10.881-11.483-19.948-10.501-30.907C92.737,227.194,97.332,221.41,98.011,214.758z"/>
</g>
<g id="Plant">
	<g>
		<g>
			<g>
				<path style="fill:#E8505B;" d="M373.969,422.486c2.786,1.209,4.836,3.785,5.865,6.643c1.029,2.858,1.121,5.981,0.779,8.999
					c-0.662,5.84-3.98,11.735-7.553,16.402c-4.918-4.292-6.049-11.779-6.384-15.613
					C366.145,432.857,368.866,421.582,373.969,422.486"/>
			</g>
		</g>
		<g>
			<g>
				<path style="fill:#E8505B;" d="M378.776,464.169c-0.787-3.301,0.586-6.922,3.12-9.179c2.534-2.257,6.074-3.212,9.457-2.954
					c1.565,0.12,3.255,0.576,4.151,1.864c0.837,1.204,0.744,2.885,0.064,4.185c-0.68,1.3-1.855,2.272-3.098,3.051
					C388.208,463.81,383.594,465.615,378.776,464.169"/>
			</g>
		</g>
		<g>
			<g>
				<g>
					<path style="fill:#263238;" d="M372.469,482.075c-0.03-0.007,0.038-0.433,0.175-1.199c0.155-0.844,0.355-1.934,0.595-3.243
						c0.543-2.71,1.241-6.592,3.347-10.361c2.078-3.759,4.986-6.527,7.435-7.901c1.216-0.704,2.28-1.123,3.032-1.341
						c0.371-0.125,0.674-0.173,0.873-0.222c0.201-0.042,0.308-0.058,0.312-0.043c0.035,0.095-1.704,0.408-4.062,1.864
						c-2.364,1.414-5.175,4.155-7.218,7.85c-2.065,3.69-2.806,7.518-3.424,10.214c-0.298,1.359-0.539,2.46-0.727,3.217
						C372.619,481.668,372.497,482.082,372.469,482.075z"/>
				</g>
			</g>
		</g>
		<g>
			<g>
				<g>
					<path style="fill:#263238;" d="M372.654,431.254c0.015,0,0.035,0.18,0.06,0.524c0.023,0.389,0.053,0.888,0.089,1.505
						c0.07,1.307,0.147,3.201,0.222,5.54c0.151,4.679,0.27,11.147,0.24,18.291c-0.032,7.146-0.207,13.614-0.399,18.292
						c-0.096,2.339-0.189,4.231-0.27,5.538c-0.042,0.617-0.076,1.116-0.102,1.504c-0.028,0.344-0.05,0.524-0.065,0.523
						c-0.015-0.001-0.021-0.182-0.021-0.527c0.006-0.389,0.013-0.889,0.022-1.507c0.033-1.362,0.079-3.241,0.135-5.541
						c0.115-4.678,0.242-11.142,0.274-18.284c0.03-7.139-0.041-13.603-0.116-18.282c-0.036-2.3-0.065-4.18-0.087-5.542
						c-0.004-0.618-0.007-1.118-0.009-1.508C372.631,431.436,372.64,431.255,372.654,431.254z"/>
				</g>
			</g>
		</g>
		<g>
			<g>
				<path style="fill:#E8505B;" d="M370.267,467.724c-1.119-7.066-5.881-13.454-12.333-16.545c-1.643-0.787-3.789-1.301-5.14-0.079
					c-1.353,1.224-1.05,3.422-0.388,5.122c2.754,7.076,10.152,12.071,17.745,11.982"/>
			</g>
		</g>
		<g>
			<g>
				<g>
					<path style="fill:#263238;" d="M358.731,456.718c0.013-0.026,0.383,0.136,1.044,0.455c0.332,0.157,0.737,0.352,1.179,0.628
						c0.442,0.276,0.976,0.545,1.501,0.941c0.537,0.379,1.135,0.782,1.717,1.293c0.612,0.476,1.206,1.051,1.828,1.661
						c1.211,1.248,2.431,2.739,3.473,4.462c1.026,1.733,1.769,3.512,2.288,5.173c0.234,0.839,0.459,1.636,0.578,2.402
						c0.166,0.757,0.228,1.476,0.295,2.13c0.09,0.652,0.06,1.25,0.082,1.771c0.024,0.522-0.01,0.97-0.04,1.336
						c-0.053,0.732-0.097,1.134-0.126,1.131c-0.096-0.004,0.071-1.624-0.215-4.207c-0.085-0.644-0.163-1.35-0.342-2.093
						c-0.132-0.752-0.366-1.532-0.606-2.355c-0.531-1.627-1.271-3.368-2.279-5.07c-1.023-1.692-2.212-3.164-3.389-4.407
						c-0.605-0.607-1.181-1.184-1.774-1.664c-0.564-0.515-1.145-0.926-1.664-1.317C360.169,457.475,358.688,456.801,358.731,456.718
						z"/>
				</g>
			</g>
		</g>
	</g>
</g>
<g id="Music">
	<g>
		<path style="fill:#E8505B;" d="M360.906,189.292c-1.395-3.634-3.759-8.698-6.493-11.469c-2.276-2.306-5.95-2.972-8.789-1.868
			c-1.164,0.452-1.947,1.516-2.273,2.722c-0.786,2.909-4.466,6.024-6.968,7.282c-2.905,1.46-6.216,2.352-8.494,4.671
			c-6.603,6.722-0.009,19.623-6.059,26.848c-3.48,4.156-9.675,4.541-15.078,4.107c-6.713-0.54-14.054-1.71-19.164,3.978
			c-2.692,2.997-3.816,7.098-3.35,11.099c1.045,8.975,8.296,15.092,16.17,18.357c17.444,7.233,39.065,1.554,51.58-12.588
			C364.502,228.29,367.675,206.921,360.906,189.292z"/>
		<g style="opacity:0.8;">
			<path style="fill:#FFFFFF;" d="M360.906,189.292c-1.395-3.634-3.759-8.698-6.493-11.469c-2.276-2.306-5.95-2.972-8.789-1.868
				c-1.164,0.452-1.947,1.516-2.273,2.722c-0.786,2.909-4.466,6.024-6.968,7.282c-2.905,1.46-6.216,2.352-8.494,4.671
				c-6.603,6.722-0.009,19.623-6.059,26.848c-3.48,4.156-9.675,4.541-15.078,4.107c-6.713-0.54-14.054-1.71-19.164,3.978
				c-2.692,2.997-3.816,7.098-3.35,11.099c1.045,8.975,8.296,15.092,16.17,18.357c17.444,7.233,39.065,1.554,51.58-12.588
				C364.502,228.29,367.675,206.921,360.906,189.292z"/>
		</g>
	</g>
	<g>
		<path style="fill:#E8505B;" d="M347.626,84.38c-8.562-3.402-18.748-2.963-26.093-8.526c-4.212-3.191-6.886-7.943-9.833-12.329
			c-2.947-4.386-6.577-8.739-11.616-10.33c-2.277-0.719-4.871-0.611-7.129,0.202c-3.858,1.389-5.209,6.201-2.832,9.542
			c2.563,3.603,5.94,9.113,5.673,13.726c-0.408,7.039-2.149,14.743,1.663,20.674c5.021,7.811,16.634,7.928,23.617,14.048
			c12.688,11.12,4.684,35.953,18.501,45.634c8.253,5.783,20.59,1.967,26.643-6.089c6.054-8.057,6.981-18.914,5.769-28.919
			C370.104,106.433,362.211,90.175,347.626,84.38z"/>
		<g style="opacity:0.8;">
			<path style="fill:#FFFFFF;" d="M347.626,84.38c-8.562-3.402-18.748-2.963-26.093-8.526c-4.212-3.191-6.886-7.943-9.833-12.329
				c-2.947-4.386-6.577-8.739-11.616-10.33c-2.277-0.719-4.871-0.611-7.129,0.202c-3.858,1.389-5.209,6.201-2.832,9.542
				c2.563,3.603,5.94,9.113,5.673,13.726c-0.408,7.039-2.149,14.743,1.663,20.674c5.021,7.811,16.634,7.928,23.617,14.048
				c12.688,11.12,4.684,35.953,18.501,45.634c8.253,5.783,20.59,1.967,26.643-6.089c6.054-8.057,6.981-18.914,5.769-28.919
				C370.104,106.433,362.211,90.175,347.626,84.38z"/>
		</g>
	</g>
	<g>
		<path style="fill:#E8505B;" d="M134.446,159.937c-5.887-6.537-12.204-15.078-9.082-23.303c1.893-4.988,6.913-8.333,8.611-13.391
			c3.6-10.718-9.333-21.447-6.699-32.442c1.897-7.917,10.718-11.7,16.235-17.686c5.184-5.625,7.46-13.344,12.025-19.482
			c6.02-8.096,16.319-13.011,26.349-11.925c10.03,1.086,19.269,8.458,21.936,18.187c2.667,9.73-1.859,21.139-10.776,25.858
			c-7.252,3.837-15.941,3.161-24.054,4.383c-8.113,1.222-17.097,5.93-17.978,14.086c-0.86,7.962,6.461,16.213,2.78,23.325
			c-2.038,3.937-6.652,5.616-10.72,7.375c-4.069,1.759-8.455,4.621-8.836,9.037c-0.239,2.764,1.2,5.356,1.98,8.019
			c0.78,2.663,0.603,6.112-1.807,7.488"/>
		<g style="opacity:0.8;">
			<path style="fill:#FFFFFF;" d="M134.446,159.937c-5.887-6.537-12.204-15.078-9.082-23.303c1.893-4.988,6.913-8.333,8.611-13.391
				c3.6-10.718-9.333-21.447-6.699-32.442c1.897-7.917,10.718-11.7,16.235-17.686c5.184-5.625,7.46-13.344,12.025-19.482
				c6.02-8.096,16.319-13.011,26.349-11.925c10.03,1.086,19.269,8.458,21.936,18.187c2.667,9.73-1.859,21.139-10.776,25.858
				c-7.252,3.837-15.941,3.161-24.054,4.383c-8.113,1.222-17.097,5.93-17.978,14.086c-0.86,7.962,6.461,16.213,2.78,23.325
				c-2.038,3.937-6.652,5.616-10.72,7.375c-4.069,1.759-8.455,4.621-8.836,9.037c-0.239,2.764,1.2,5.356,1.98,8.019
				c0.78,2.663,0.603,6.112-1.807,7.488"/>
		</g>
	</g>
	<g>
		<path style="fill:#E8505B;" d="M252.739,31.529c-7.785-1.58-16.305,3.68-18.499,11.315c-2.194,7.635,2.14,16.542,9.454,19.643
			c7.314,3.101,16.645,0.101,20.89-6.614c2.516-3.98,2.382-10.244,0.379-14.506C262.96,37.106,258.595,31.248,252.739,31.529"/>
		<g style="opacity:0.8;">
			<path style="fill:#FFFFFF;" d="M252.739,31.529c-7.785-1.58-16.305,3.68-18.499,11.315c-2.194,7.635,2.14,16.542,9.454,19.643
				c7.314,3.101,16.645,0.101,20.89-6.614c2.516-3.98,2.382-10.244,0.379-14.506C262.96,37.106,258.595,31.248,252.739,31.529"/>
		</g>
	</g>
	<g>
		<g>
			<g>
				<path style="fill:#263238;" d="M211.902,41.258c0.691,2.101-0.452,4.364-2.553,5.055c-2.101,0.691-4.364-0.452-5.055-2.553
					c-0.691-2.101,0.452-4.364,2.553-5.055C208.948,38.014,211.211,39.157,211.902,41.258z"/>
			</g>
		</g>
		<g>
			<g>
				<g>
					<path style="fill:#263238;" d="M210.934,40.173c-0.137,0.204-3.651-2.137-7.366-5.721c-3.694-3.583-6.643-6.485-6.506-6.656
						c0.17-0.208,3.429,2.443,7.112,6.015C207.858,37.366,211.073,39.975,210.934,40.173z"/>
				</g>
			</g>
		</g>
		<g>
			<g>
				<g>
					<path style="fill:#263238;" d="M202.695,21.291c0.23,0.001,0.074,2.253-1.615,4.324c-1.669,2.088-3.838,2.715-3.888,2.49
						c-0.109-0.237,1.701-1.152,3.202-3.044C201.927,23.197,202.441,21.234,202.695,21.291z"/>
				</g>
			</g>
		</g>
		<g>
			<g>
				<g>
					<path style="fill:#263238;" d="M205.527,24.332c0.236-0.024,0.175,2.225-1.618,4.13c-1.772,1.925-4.011,2.146-4.004,1.91
						c-0.068-0.25,1.809-0.807,3.358-2.51C204.851,26.194,205.274,24.282,205.527,24.332z"/>
				</g>
			</g>
		</g>
	</g>
	<g>
		<g>
			<g>
				<path style="fill:#263238;" d="M274.713,88.477c-1.386,1.723-3.907,1.997-5.63,0.61c-1.723-1.386-1.997-3.907-0.611-5.63
					c1.386-1.723,3.907-1.997,5.63-0.61C275.826,84.232,276.1,86.753,274.713,88.477z"/>
			</g>
		</g>
		<g>
			<g>
				<g>
					<path style="fill:#263238;" d="M275.096,87.073c-0.246-0.004-0.195-4.226,0.789-9.293c0.995-5.05,1.823-9.102,2.041-9.081
						c0.267,0.029-0.182,4.207-1.174,9.24C275.776,82.965,275.338,87.083,275.096,87.073z"/>
				</g>
			</g>
		</g>
		<g>
			<g>
				<g>
					<path style="fill:#263238;" d="M286.45,69.884c0.124,0.194-1.85,1.289-4.507,0.999c-2.66-0.263-4.366-1.742-4.205-1.905
						c0.139-0.221,1.892,0.8,4.296,1.029C284.433,70.277,286.36,69.639,286.45,69.884z"/>
				</g>
			</g>
		</g>
		<g>
			<g>
				<g>
					<path style="fill:#263238;" d="M285.441,73.915c0.149,0.184-1.772,1.358-4.345,0.891c-2.58-0.438-3.984-2.196-3.781-2.319
						c0.172-0.193,1.662,1.078,3.934,1.45C283.511,74.361,285.345,73.674,285.441,73.915z"/>
				</g>
			</g>
		</g>
	</g>
	<g>
		<g>
			<g>
				<path style="fill:#263238;" d="M122.511,263.048c0.599,1.65-0.252,3.473-1.902,4.072c-1.65,0.599-3.473-0.252-4.072-1.902
					c-0.599-1.65,0.252-3.473,1.902-4.072C120.088,260.547,121.911,261.398,122.511,263.048z"/>
			</g>
		</g>
		<g>
			<g>
				<g>
					<path style="fill:#263238;" d="M121.716,262.211c-0.104,0.165-2.948-1.606-5.982-4.359c-3.018-2.752-5.427-4.981-5.323-5.12
						c0.13-0.169,2.78,1.854,5.787,4.597C119.208,260.06,121.822,262.05,121.716,262.211z"/>
				</g>
			</g>
		</g>
		<g>
			<g>
				<g>
					<path style="fill:#263238;" d="M114.721,247.435c0.182-0.004,0.114,1.786-1.176,3.469c-1.273,1.697-2.978,2.247-3.023,2.07
						c-0.092-0.185,1.321-0.955,2.465-2.493C114.158,248.966,114.518,247.396,114.721,247.435z"/>
				</g>
			</g>
		</g>
		<g>
			<g>
				<g>
					<path style="fill:#263238;" d="M117.041,249.778c0.186-0.025,0.193,1.761-1.183,3.315c-1.358,1.57-3.129,1.8-3.129,1.612
						c-0.06-0.196,1.415-0.684,2.602-2.073C116.55,251.272,116.839,249.745,117.041,249.778z"/>
				</g>
			</g>
		</g>
	</g>
	<g>
		<g>
			<g>
				<g>
					<g>
						<path style="fill:#263238;" d="M345.473,62.395c1.367,1.664,3.824,1.904,5.488,0.537c1.664-1.367,1.904-3.824,0.538-5.488
							c-1.367-1.664-3.824-1.905-5.488-0.538C344.347,58.274,344.106,60.731,345.473,62.395z"/>
					</g>
				</g>
				<g>
					<g>
						<g>
							<path style="fill:#263238;" d="M345.086,61.033c0.376-0.012,0.393-4.152-0.62-9.088c-1.02-4.911-1.974-8.813-2.322-8.773
								c-0.396,0.047-0.022,4.146,0.994,9.031C344.138,57.075,344.714,61.05,345.086,61.033z"/>
						</g>
					</g>
				</g>
				<g>
					<g>
						<g>
							<path style="fill:#263238;" d="M330.47,47.994c-0.078,0.307,3.066,1.16,6.831-0.018c1.857-0.573,3.385-1.612,4.217-2.616
								c0.862-1,0.968-1.872,0.814-1.919c-0.193-0.085-0.579,0.544-1.485,1.237c-0.886,0.708-2.272,1.487-3.957,2.009
								C333.516,47.761,330.497,47.568,330.47,47.994z"/>
						</g>
					</g>
				</g>
			</g>
			<g>
				<g>
					<path style="fill:#263238;" d="M333.798,67.218c1.367,1.664,3.824,1.905,5.488,0.537c1.664-1.367,1.905-3.824,0.538-5.488
						c-1.367-1.664-3.824-1.904-5.488-0.537C332.672,63.097,332.431,65.554,333.798,67.218z"/>
				</g>
			</g>
			<g>
				<g>
					<g>
						<path style="fill:#263238;" d="M333.411,65.855c0.376-0.012,0.393-4.152-0.62-9.088c-1.02-4.911-1.974-8.813-2.322-8.774
							c-0.396,0.047-0.022,4.146,0.994,9.031C332.463,61.898,333.039,65.872,333.411,65.855z"/>
					</g>
				</g>
			</g>
			<g>
				<g>
					<g>
						<path style="fill:#263238;" d="M330.88,50.624c-0.124,0.331,2.825,1.343,6.393,0.363c3.578-0.948,5.617-3.306,5.344-3.53
							c-0.259-0.301-2.479,1.385-5.696,2.224C333.72,50.574,330.952,50.234,330.88,50.624z"/>
					</g>
				</g>
			</g>
		</g>
	</g>
	<g>
		<g>
			<g>
				<g>
					<g>
						<path style="fill:#263238;" d="M174.205,112.83c-1.375,0.826-3.16,0.381-3.986-0.994c-0.826-1.375-0.381-3.16,0.994-3.986
							c1.375-0.826,3.16-0.381,3.986,0.994C176.026,110.219,175.581,112.004,174.205,112.83z"/>
					</g>
				</g>
				<g>
					<g>
						<g>
							<path style="fill:#263238;" d="M174.818,111.971c-0.261-0.102,0.762-3.013,2.706-6.223c1.943-3.192,3.588-5.692,3.822-5.577
								c0.266,0.132-1.021,2.915-2.955,6.09C176.472,109.431,175.075,112.076,174.818,111.971z"/>
						</g>
					</g>
				</g>
				<g>
					<g>
						<g>
							<path style="fill:#263238;" d="M188.335,106.472c-0.022,0.235-2.442,0.048-4.79-1.72c-1.16-0.866-1.973-1.977-2.306-2.89
								c-0.355-0.917-0.212-1.556-0.092-1.55c0.157-0.011,0.271,0.526,0.733,1.239c0.445,0.718,1.223,1.611,2.275,2.399
								C186.255,105.548,188.422,106.167,188.335,106.472z"/>
						</g>
					</g>
				</g>
			</g>
			<g>
				<g>
					<path style="fill:#263238;" d="M181.194,119.133c-1.375,0.826-3.16,0.381-3.986-0.994c-0.826-1.375-0.381-3.16,0.994-3.986
						c1.375-0.826,3.16-0.381,3.986,0.994C183.015,116.522,182.57,118.307,181.194,119.133z"/>
				</g>
			</g>
			<g>
				<g>
					<g>
						<path style="fill:#263238;" d="M181.807,118.273c-0.261-0.103,0.762-3.013,2.706-6.223c1.943-3.192,3.588-5.692,3.822-5.578
							c0.266,0.132-1.021,2.915-2.954,6.09C183.461,115.733,182.064,118.379,181.807,118.273z"/>
					</g>
				</g>
			</g>
			<g>
				<g>
					<g>
						<path style="fill:#263238;" d="M187.389,108.216c0.004,0.263-2.318,0.237-4.578-1.343c-2.274-1.56-3.116-3.724-2.868-3.813
							c0.257-0.147,1.394,1.592,3.442,2.984C185.409,107.471,187.437,107.924,187.389,108.216z"/>
					</g>
				</g>
			</g>
		</g>
	</g>
	<g>
		<g>
			<g>
				<g>
					<g>
						<path style="fill:#263238;" d="M103.75,131.33c-0.246,1.072-1.314,1.741-2.386,1.495c-1.072-0.246-1.741-1.314-1.495-2.386
							c0.246-1.072,1.314-1.741,2.386-1.495C103.326,129.189,103.996,130.258,103.75,131.33z"/>
					</g>
				</g>
				<g>
					<g>
						<g>
							<path style="fill:#263238;" d="M103.616,130.619c-0.174,0.08-1.125-1.809-1.786-4.295c-0.652-2.477-1.104-4.477-0.936-4.539
								c0.192-0.069,0.954,1.89,1.602,4.354C103.149,128.594,103.79,130.542,103.616,130.619z"/>
						</g>
					</g>
				</g>
				<g>
					<g>
						<g>
							<path style="fill:#263238;" d="M107.329,121.331c0.105,0.123-1.138,1.228-3.126,1.547c-0.979,0.161-1.914,0.034-2.523-0.236
								c-0.622-0.261-0.868-0.635-0.809-0.692c0.069-0.083,0.388,0.117,0.96,0.227c0.566,0.122,1.377,0.162,2.266,0.017
								C105.883,121.919,107.219,121.143,107.329,121.331z"/>
						</g>
					</g>
				</g>
			</g>
			<g>
				<g>
					<path style="fill:#263238;" d="M110.184,130.876c-0.246,1.072-1.314,1.741-2.386,1.495c-1.072-0.246-1.741-1.314-1.495-2.386
						c0.246-1.072,1.314-1.741,2.386-1.495C109.761,128.736,110.43,129.804,110.184,130.876z"/>
				</g>
			</g>
			<g>
				<g>
					<g>
						<path style="fill:#263238;" d="M110.051,130.165c-0.175,0.08-1.125-1.809-1.786-4.295c-0.652-2.477-1.104-4.478-0.936-4.539
							c0.191-0.068,0.954,1.89,1.602,4.354C109.583,128.14,110.225,130.088,110.051,130.165z"/>
					</g>
				</g>
			</g>
			<g>
				<g>
					<g>
						<path style="fill:#263238;" d="M107.74,122.627c0.132,0.123-0.986,1.257-2.84,1.621c-1.851,0.381-3.32-0.232-3.246-0.397
							c0.05-0.197,1.448,0.069,3.11-0.28C106.431,123.251,107.618,122.465,107.74,122.627z"/>
					</g>
				</g>
			</g>
		</g>
	</g>
	<g>
		<g>
			<g>
				<g>
					<g>
						<path style="fill:#263238;" d="M363.215,258.982c-0.675,0.417-1.56,0.208-1.978-0.467c-0.417-0.675-0.208-1.561,0.467-1.978
							c0.675-0.417,1.561-0.208,1.978,0.467C364.099,257.679,363.891,258.565,363.215,258.982z"/>
					</g>
				</g>
				<g>
					<g>
						<g>
							<path style="fill:#263238;" d="M363.513,258.553c-0.13-0.049,0.358-1.495,1.299-3.095c0.941-1.591,1.738-2.838,1.855-2.783
								c0.132,0.063-0.487,1.448-1.423,3.031C364.315,257.286,363.641,258.603,363.513,258.553z"/>
						</g>
					</g>
				</g>
				<g>
					<g>
						<g>
							<path style="fill:#263238;" d="M370.164,255.748c-0.01,0.116-1.207,0.039-2.38-0.82c-0.579-0.421-0.988-0.965-1.159-1.415
								c-0.181-0.452-0.114-0.768-0.055-0.766c0.077-0.007,0.137,0.259,0.37,0.608c0.224,0.352,0.615,0.789,1.141,1.172
								C369.129,255.304,370.205,255.596,370.164,255.748z"/>
						</g>
					</g>
				</g>
			</g>
			<g>
				<g>
					<path style="fill:#263238;" d="M366.712,262.055c-0.675,0.417-1.561,0.208-1.978-0.467c-0.417-0.675-0.208-1.561,0.467-1.978
						c0.675-0.417,1.561-0.208,1.978,0.467C367.596,260.752,367.387,261.638,366.712,262.055z"/>
				</g>
			</g>
			<g>
				<g>
					<g>
						<path style="fill:#263238;" d="M367.009,261.626c-0.13-0.049,0.358-1.495,1.299-3.095c0.941-1.591,1.739-2.838,1.855-2.783
							c0.132,0.063-0.487,1.448-1.423,3.031C367.812,260.359,367.137,261.677,367.009,261.626z"/>
					</g>
				</g>
			</g>
			<g>
				<g>
					<g>
						<path style="fill:#263238;" d="M369.707,256.617c0.004,0.13-1.145,0.132-2.273-0.636c-1.135-0.757-1.565-1.822-1.443-1.868
							c0.126-0.074,0.699,0.778,1.721,1.454C368.723,256.261,369.729,256.472,369.707,256.617z"/>
					</g>
				</g>
			</g>
		</g>
	</g>
</g>
<g id="Character">
	<g>
		<g>
			<g>
				<path style="fill:#FFBE9D;" d="M381.549,142.115l-1.809-28.242l5.023-7.31l9.944-11.731c0,0,2.068-0.48,1.126,3.554
					c-0.942,4.034-6.28,11.308-6.28,11.308l6.06-4.912l3.274-0.136l5.288,9.767c0,0-3.365,1.603-5.196,0.244l-2.32,3.618
					l3.475-0.345l4.263,1.801l-2.004,5.188l-2.198,5.862c0,0-0.201,11.91-2.55,13.422c-2.349,1.511-2.349,1.511-2.349,1.511
					L381.549,142.115z"/>
				<path style="fill:#FFBE9D;" d="M264.085,191.351c0,0,26.162-4.71,28.149-4.463c1.987,0.247,26.447,10.104,28.79,10.995
					c2.343,0.891,39.809,6.585,39.809,6.585l21.088-63.473l17.121,0.437c0,0-10.184,63.521-13.433,72.551
					c-3.249,9.03-3.661,14.978-7.211,16.772c-3.55,1.795-13.664,4.191-23.243,3.6s-49.127-8.834-49.127-8.834L264.085,191.351z"/>
			</g>
			<g>
				<path style="fill:#EB996E;" d="M402.425,111.025c0.024,0.003,0.034,0.233-0.172,0.577c-0.2,0.336-0.656,0.771-1.38,0.925
					c-0.724,0.156-1.639-0.078-2.396-0.665c-0.774-0.582-1.348-1.476-1.869-2.395l0.397,0.065c-0.192,0.176-0.393,0.369-0.593,0.571
					c-1.6,1.644-2.99,3.22-4.061,4.295c-1.057,1.091-1.806,1.68-1.853,1.624c-0.046-0.054,0.598-0.724,1.582-1.874
					c1-1.136,2.336-2.742,3.962-4.413c0.204-0.206,0.414-0.405,0.617-0.59l0.24-0.218l0.158,0.283
					c0.512,0.918,1.036,1.75,1.705,2.286c0.659,0.545,1.435,0.773,2.05,0.685c0.625-0.088,1.061-0.423,1.284-0.691
					C402.328,111.217,402.385,111.012,402.425,111.025z"/>
			</g>
			<g>
				<path style="fill:#EB996E;" d="M398.229,121.847c-0.025-0.082,0.541-0.332,1.443-0.655l0.423-0.151l-0.173,0.439
					c-0.229,0.582-0.523,1.326-0.545,2.133c-0.062,1.014,0.568,1.758,1.145,2.031c0.582,0.283,1.016,0.103,1.041,0.185
					c0.049,0.036-0.402,0.402-1.178,0.156c-0.367-0.125-0.768-0.388-1.071-0.806c-0.318-0.414-0.475-1.004-0.457-1.576
					c0.03-0.949,0.394-1.725,0.687-2.299l0.25,0.288C398.863,121.823,398.254,121.929,398.229,121.847z"/>
			</g>
			<g>
				<path style="fill:#EB996E;" d="M392.133,139.321c-0.05-0.02,0.242-0.663,0.513-1.89c0.26-1.219,0.469-3.067,0.001-5.259
					c-0.234-1.089-0.619-2.262-1.261-3.403c-0.63-1.152-1.52-2.224-2.605-3.252c-1.051-1.042-2.274-2.141-2.999-3.693
					c-0.716-1.543-0.81-3.291-1.464-4.819c-0.573-1.314-1.742-2.497-3.076-2.425l0.242-0.276c0.429,5.786,0.806,10.881,1.084,14.624
					c0.111,1.776,0.201,3.228,0.269,4.317c0.053,1.012,0.066,1.566,0.035,1.569c-0.032,0.003-0.107-0.547-0.216-1.555
					c-0.107-1.085-0.249-2.533-0.422-4.304c-0.322-3.74-0.762-8.83-1.26-14.61l-0.023-0.26l0.264-0.016
					c0.801-0.049,1.596,0.294,2.191,0.811c0.603,0.519,1.065,1.184,1.389,1.914c0.701,1.663,0.785,3.387,1.452,4.817
					c0.657,1.432,1.821,2.509,2.873,3.565c1.08,1.039,2.015,2.187,2.646,3.386c0.648,1.192,1.025,2.411,1.242,3.537
					c0.434,2.266,0.16,4.153-0.165,5.379c-0.166,0.616-0.335,1.084-0.477,1.387C392.229,139.172,392.15,139.329,392.133,139.321z"/>
			</g>
			<g>
				<path style="fill:#EB996E;" d="M399.003,114.122c0.116,0.085-0.56,1.206-1.51,2.503c-0.95,1.298-1.815,2.281-1.931,2.196
					c-0.116-0.085,0.56-1.206,1.51-2.504C398.023,115.02,398.887,114.037,399.003,114.122z"/>
			</g>
		</g>
		<polygon style="fill:#FFBE9D;" points="296.448,368.035 288.909,482.773 241.014,482.773 233.752,405.973 		"/>
		<path style="fill:#FFBE9D;" d="M171.343,349.521c0,0-7.797,26.234-5.347,56.926c1.609,20.162,12.629,76.326,12.629,76.326h45.549
			l9.149-73.731l-58.123-28.68L171.343,349.521z"/>
		<path style="fill:#263238;" d="M226.826,199.719c1.003-7.986-6.754-26.684-9.056-34.398c-3.218,2.459-7.442,3.558-11.45,2.979
			c-0.852,6.823-1.703,13.646-2.555,20.469c-0.247,1.977-2.511,14.381-3.911,15.798"/>
		<path style="fill:#E8505B;" d="M205.129,142.84c-0.12-0.918-1.9-3.771-0.688-8.526c1.536-6.021,3.024-11.737,7.168-16.323
			s6.934-7.883,11.514-10.16c4.215-2.095,8.132-2.182,8.132-2.182c0.211-1.021,0.838-2.11,1.962-3.282c0,0-9.551-2.084-18.903,4.821
			c-8.276,6.111-15.78,15.678-17.907,27.313c-1.602,8.766,1.956,16.063,1.956,16.063L205.129,142.84z"/>
		<g>
			<path style="fill:#455A64;" d="M289.9,326.313l-94.735-18.162c0,0-18.333,12.332-27.871,51.919
				c-4.18,17.35-0.119,77.376-0.119,77.376l127.405,1.632C294.579,439.078,301.482,341.867,289.9,326.313z"/>
			<path style="fill:#F5F5F5;" d="M250.958,350.53c-0.557-1.006-1.808-1.315-2.745-0.929c-1.603,0.323-3.168,1.243-3.87,2.72
				c-0.702,1.477-0.274,3.515,1.167,4.288c0.988,0.53,2.248,0.383,3.208-0.196c0.96-0.579,1.646-1.535,2.099-2.56
				C251.283,352.802,251.515,351.536,250.958,350.53z"/>
			<path style="fill:#F5F5F5;" d="M250.083,373.109c-0.557-1.006-1.808-1.315-2.745-0.929c-1.603,0.323-3.168,1.243-3.87,2.719
				c-0.702,1.477-0.274,3.515,1.167,4.288c0.988,0.53,2.248,0.383,3.208-0.196c0.96-0.579,1.645-1.534,2.099-2.56
				C250.408,375.381,250.64,374.116,250.083,373.109z"/>
			<path style="fill:#F5F5F5;" d="M247.93,396.911c-0.556-1.006-1.808-1.315-2.745-0.929c-1.603,0.322-3.168,1.243-3.87,2.719
				c-0.702,1.477-0.274,3.515,1.167,4.288c0.988,0.53,2.248,0.383,3.208-0.196c0.96-0.579,1.646-1.534,2.099-2.56
				C248.255,399.183,248.486,397.918,247.93,396.911z"/>
			<path style="fill:#F5F5F5;" d="M245.567,419.914c-0.557-1.006-1.808-1.315-2.745-0.929c-1.603,0.323-3.168,1.243-3.87,2.72
				s-0.274,3.515,1.167,4.288c0.988,0.53,2.248,0.383,3.208-0.196c0.96-0.579,1.646-1.535,2.099-2.56
				C245.891,422.186,246.123,420.92,245.567,419.914z"/>
			<g>
				<g>
					<path style="fill:#263238;" d="M238.414,348.863c-0.143-0.012-0.165-1.137-0.049-2.513c0.116-1.376,0.327-2.481,0.47-2.469
						c0.143,0.012,0.165,1.137,0.049,2.513C238.768,347.77,238.557,348.875,238.414,348.863z"/>
				</g>
				<g>
					<path style="fill:#263238;" d="M237.571,358.828c-0.143-0.012-0.165-1.137-0.049-2.513c0.116-1.376,0.327-2.481,0.47-2.469
						c0.143,0.012,0.165,1.137,0.049,2.513C237.925,357.734,237.714,358.84,237.571,358.828z"/>
				</g>
				<g>
					<path style="fill:#263238;" d="M236.728,368.792c-0.143-0.012-0.165-1.137-0.049-2.513c0.116-1.376,0.327-2.481,0.47-2.469
						c0.143,0.012,0.165,1.137,0.049,2.513C237.082,367.699,236.871,368.804,236.728,368.792z"/>
				</g>
				<g>
					<path style="fill:#263238;" d="M235.885,378.756c-0.143-0.012-0.165-1.137-0.049-2.513c0.116-1.376,0.327-2.481,0.47-2.469
						c0.143,0.012,0.165,1.137,0.049,2.513C236.239,377.663,236.028,378.768,235.885,378.756z"/>
				</g>
				<g>
					<path style="fill:#263238;" d="M235.042,388.721c-0.143-0.012-0.165-1.137-0.049-2.513c0.116-1.376,0.327-2.481,0.47-2.469
						c0.143,0.012,0.165,1.137,0.049,2.513C235.395,387.627,235.185,388.733,235.042,388.721z"/>
				</g>
				<g>
					<path style="fill:#263238;" d="M234.199,398.685c-0.143-0.012-0.165-1.137-0.049-2.513c0.116-1.376,0.327-2.481,0.47-2.469
						c0.143,0.012,0.165,1.137,0.049,2.513C234.552,397.592,234.342,398.697,234.199,398.685z"/>
				</g>
				<g>
					<path style="fill:#263238;" d="M233.355,408.65c-0.143-0.012-0.165-1.137-0.049-2.513c0.117-1.376,0.327-2.481,0.47-2.469
						c0.143,0.012,0.165,1.137,0.049,2.513C233.709,407.556,233.499,408.662,233.355,408.65z"/>
				</g>
				<g>
					<path style="fill:#263238;" d="M232.512,418.614c-0.143-0.012-0.165-1.137-0.049-2.513c0.117-1.376,0.327-2.481,0.47-2.469
						c0.143,0.012,0.165,1.137,0.049,2.513C232.866,417.521,232.656,418.626,232.512,418.614z"/>
				</g>
				<g>
					<path style="fill:#263238;" d="M231.669,428.578c-0.143-0.012-0.165-1.137-0.049-2.513c0.117-1.376,0.327-2.481,0.47-2.469
						c0.143,0.012,0.165,1.137,0.049,2.513C232.023,427.485,231.813,428.591,231.669,428.578z"/>
				</g>
			</g>
			<g>
				<path style="fill:#263238;" d="M249.087,429.62c-0.018-0.002,0-0.311,0.05-0.896c0.06-0.63,0.141-1.483,0.244-2.558
					c0.229-2.268,0.553-5.467,0.951-9.401c0.793-7.938,1.821-18.911,2.681-31.051c0.858-12.145,1.403-23.154,1.778-31.123
					c0.184-3.949,0.335-7.161,0.441-9.438c0.058-1.079,0.105-1.934,0.139-2.566c0.037-0.586,0.066-0.894,0.084-0.893
					c0.018,0.001,0.025,0.309,0.021,0.897c-0.01,0.632-0.024,1.489-0.041,2.569c-0.044,2.231-0.138,5.458-0.276,9.446
					c-0.282,7.975-0.768,18.992-1.627,31.145c-0.861,12.148-1.948,23.122-2.835,31.053c-0.446,3.965-0.828,7.172-1.116,9.385
					c-0.143,1.071-0.257,1.92-0.341,2.547C249.157,429.318,249.104,429.622,249.087,429.62z"/>
			</g>
			<g>
				<path style="fill:#263238;" d="M234.17,429.474c-0.018-0.002-0.009-0.307,0.025-0.887c0.042-0.625,0.1-1.47,0.172-2.536
					c0.176-2.249,0.423-5.42,0.728-9.317c0.668-7.905,1.585-18.745,2.597-30.72c1.072-11.975,2.042-22.811,2.75-30.713
					c0.373-3.892,0.677-7.057,0.893-9.303c0.113-1.062,0.203-1.904,0.269-2.527c0.067-0.577,0.111-0.88,0.129-0.878
					c0.018,0.001,0.009,0.307-0.025,0.887c-0.042,0.625-0.1,1.47-0.172,2.535c-0.176,2.249-0.423,5.419-0.728,9.316
					c-0.668,7.905-1.585,18.747-2.598,30.727c-1.072,11.971-2.042,22.807-2.749,30.709c-0.373,3.891-0.677,7.057-0.893,9.303
					c-0.113,1.062-0.203,1.904-0.269,2.527C234.232,429.173,234.188,429.475,234.17,429.474z"/>
			</g>
			<g>
				<path style="fill:#263238;" d="M207.259,341.565c0.03,0.021-0.293,0.504-0.904,1.365c-0.298,0.436-0.681,0.956-1.183,1.515
					c-0.494,0.564-1.02,1.241-1.712,1.887c-0.338,0.334-0.689,0.683-1.054,1.044c-0.37,0.359-0.795,0.689-1.214,1.055
					c-0.826,0.748-1.805,1.424-2.816,2.161c-2.077,1.392-4.491,2.737-7.171,3.82c-2.695,1.05-5.374,1.727-7.841,2.138
					c-1.242,0.157-2.418,0.336-3.532,0.358c-0.555,0.021-1.091,0.073-1.607,0.065c-0.514-0.013-1.008-0.025-1.484-0.037
					c-0.946,0.005-1.794-0.127-2.54-0.199c-0.748-0.062-1.383-0.178-1.899-0.291c-1.035-0.207-1.601-0.338-1.594-0.373
					c0.02-0.122,2.3,0.427,6.042,0.495c0.47,0.001,0.959,0.002,1.467,0.003c0.51-0.003,1.039-0.064,1.587-0.094
					c1.099-0.04,2.259-0.234,3.482-0.401c2.431-0.432,5.068-1.113,7.726-2.148c2.643-1.069,5.029-2.381,7.094-3.734
					c1.005-0.717,1.981-1.371,2.809-2.096c0.42-0.354,0.847-0.672,1.22-1.019c0.369-0.349,0.724-0.686,1.065-1.009
					C205.878,343.454,207.161,341.491,207.259,341.565z"/>
			</g>
			<g>
				<g>
					<path style="fill:#263238;" d="M169.739,429.285c-0.002,0.144-0.563,0.254-1.253,0.247c-0.691-0.008-1.249-0.13-1.247-0.274
						c0.002-0.144,0.563-0.254,1.253-0.246C169.182,429.019,169.741,429.142,169.739,429.285z"/>
				</g>
				<g>
					<path style="fill:#263238;" d="M179.503,429.385c-0.002,0.144-1.096,0.25-2.443,0.236c-1.348-0.013-2.44-0.141-2.438-0.284
						c0.001-0.144,1.095-0.25,2.444-0.236C178.412,429.114,179.504,429.241,179.503,429.385z"/>
				</g>
				<g>
					<path style="fill:#263238;" d="M189.266,429.474c-0.001,0.144-1.095,0.251-2.443,0.238c-1.348-0.012-2.44-0.139-2.439-0.282
						c0.001-0.144,1.095-0.251,2.443-0.238C188.176,429.204,189.268,429.331,189.266,429.474z"/>
				</g>
				<g>
					<path style="fill:#263238;" d="M199.03,429.561c-0.001,0.144-1.095,0.251-2.443,0.239c-1.348-0.012-2.44-0.138-2.439-0.282
						c0.001-0.144,1.095-0.251,2.443-0.239C197.939,429.291,199.031,429.417,199.03,429.561z"/>
				</g>
				<g>
					<path style="fill:#263238;" d="M208.792,429.649c-0.001,0.144-1.095,0.25-2.443,0.238c-1.348-0.012-2.44-0.139-2.439-0.283
						c0.001-0.144,1.095-0.25,2.443-0.238C207.701,429.379,208.793,429.506,208.792,429.649z"/>
				</g>
				<g>
					<path style="fill:#263238;" d="M218.555,429.747c-0.001,0.144-1.096,0.249-2.443,0.235c-1.348-0.014-2.44-0.142-2.438-0.286
						c0.001-0.144,1.095-0.249,2.443-0.235C217.465,429.475,218.556,429.603,218.555,429.747z"/>
				</g>
				<g>
					<path style="fill:#263238;" d="M228.317,429.86c-0.002,0.144-1.096,0.247-2.444,0.231c-1.348-0.016-2.439-0.146-2.438-0.29
						c0.002-0.144,1.096-0.247,2.444-0.231C227.228,429.587,228.319,429.717,228.317,429.86z"/>
				</g>
				<g>
					<path style="fill:#263238;" d="M238.079,429.996c-0.002,0.144-1.096,0.245-2.444,0.225c-1.348-0.02-2.439-0.152-2.437-0.296
						s1.096-0.245,2.444-0.225C236.99,429.719,238.081,429.852,238.079,429.996z"/>
				</g>
				<g>
					<path style="fill:#263238;" d="M247.841,430.159c-0.003,0.144-1.097,0.241-2.445,0.217c-1.348-0.024-2.438-0.16-2.436-0.303
						c0.002-0.144,1.097-0.241,2.445-0.217C246.753,429.88,247.843,430.015,247.841,430.159z"/>
				</g>
				<g>
					<path style="fill:#263238;" d="M257.602,430.357c-0.003,0.144-1.098,0.237-2.445,0.208c-1.348-0.029-2.438-0.168-2.435-0.312
						c0.003-0.144,1.098-0.237,2.446-0.208C256.514,430.074,257.605,430.214,257.602,430.357z"/>
				</g>
				<g>
					<path style="fill:#263238;" d="M267.362,430.596c-0.004,0.144-1.099,0.232-2.447,0.198c-1.348-0.034-2.437-0.179-2.434-0.323
						c0.004-0.144,1.099-0.232,2.447-0.198C266.276,430.308,267.365,430.452,267.362,430.596z"/>
				</g>
				<g>
					<path style="fill:#263238;" d="M277.121,430.88c-0.004,0.144-1.1,0.227-2.448,0.186c-1.348-0.041-2.436-0.19-2.432-0.334
						c0.004-0.144,1.1-0.227,2.448-0.186C276.037,430.586,277.125,430.736,277.121,430.88z"/>
				</g>
				<g>
					<path style="fill:#263238;" d="M286.879,431.215c-0.005,0.144-1.102,0.221-2.449,0.173c-1.348-0.048-2.435-0.203-2.43-0.347
						c0.005-0.144,1.101-0.221,2.449-0.173C285.796,430.916,286.884,431.071,286.879,431.215z"/>
				</g>
				<g>
					<path style="fill:#263238;" d="M294.265,431.505c-0.006,0.144-0.57,0.237-1.26,0.209c-0.69-0.028-1.244-0.167-1.238-0.311
						c0.006-0.144,0.57-0.237,1.26-0.209C293.716,431.222,294.271,431.361,294.265,431.505z"/>
				</g>
			</g>
			<g>
				<path style="fill:#263238;" d="M295.006,360.181c-0.01,0.035-0.403-0.049-1.108-0.23c-0.707-0.173-1.713-0.492-2.934-0.944
					c-2.442-0.899-5.717-2.469-8.972-4.772c-3.249-2.312-5.813-4.886-7.468-6.894c-0.83-1.003-1.463-1.847-1.86-2.457
					c-0.404-0.605-0.613-0.949-0.583-0.969c0.075-0.053,1.004,1.257,2.722,3.186c1.712,1.93,4.282,4.426,7.49,6.71
					c3.214,2.274,6.418,3.875,8.805,4.854C293.488,359.648,295.032,360.093,295.006,360.181z"/>
			</g>
			<g>
				<path style="fill:#263238;" d="M178.624,460.227c-0.035,0.008-0.14-0.3-0.3-0.864c-0.162-0.564-0.368-1.386-0.602-2.408
					c-0.469-2.042-1.02-4.888-1.459-8.057c-0.437-3.17-0.678-6.059-0.781-8.152c-0.052-1.047-0.076-1.894-0.073-2.481
					c0.001-0.586,0.018-0.911,0.054-0.913c0.076-0.003,0.189,1.286,0.386,3.366c0.196,2.08,0.494,4.95,0.93,8.107
					c0.437,3.156,0.929,5.999,1.304,8.054C178.458,458.937,178.699,460.21,178.624,460.227z"/>
			</g>
			<g>
				<path style="fill:#263238;" d="M180.373,437.145c0.161,0.04-0.851,3.568-1.037,8.047c-0.219,4.479,0.47,8.082,0.306,8.108
					c-0.063,0.013-0.316-0.872-0.539-2.34c-0.225-1.467-0.387-3.523-0.287-5.792c0.105-2.268,0.452-4.301,0.809-5.741
					C179.979,437.985,180.311,437.127,180.373,437.145z"/>
			</g>
			<g>
				<path style="fill:#263238;" d="M185.843,460.362c-0.09-0.022,0.213-1.271,0.404-3.322c0.203-2.05,0.188-4.904-0.216-8.026
					c-0.405-3.122-1.024-5.916-1.46-7.94c-0.442-2.024-0.704-3.281-0.632-3.299c0.067-0.017,0.455,1.207,0.99,3.213
					c0.528,2.006,1.208,4.803,1.618,7.961c0.409,3.156,0.365,6.066,0.065,8.133c-0.144,1.033-0.311,1.863-0.477,2.422
					C185.98,460.066,185.878,460.371,185.843,460.362z"/>
			</g>
			<g>
				<path style="fill:#263238;" d="M190.353,447.285c-0.114,0.066-1.275-1.931-1.969-4.67c-0.709-2.737-0.65-5.045-0.519-5.042
					c0.156-0.009,0.33,2.24,1.023,4.913C189.565,445.161,190.493,447.217,190.353,447.285z"/>
			</g>
			<g>
				<path style="fill:#263238;" d="M196.015,437.828c0.132-0.004,0.442,2.606,0.582,5.874c0.048,1.64-0.146,3.154-0.514,4.183
					c-0.351,1.038-0.793,1.568-0.839,1.536c-0.076-0.042,0.241-0.624,0.486-1.64c0.263-1.011,0.393-2.456,0.347-4.068
					C195.938,440.484,195.859,437.833,196.015,437.828z"/>
			</g>
			<g>
				<path style="fill:#263238;" d="M201.709,462.781c-0.034,0.012-0.166-0.314-0.378-0.918c-0.113-0.3-0.233-0.673-0.326-1.118
					c-0.101-0.443-0.24-0.944-0.312-1.512c-0.403-2.26-0.423-5.432-0.319-8.889c0.039-1.73,0.045-3.374-0.019-4.864
					c-0.099-1.485-0.229-2.823-0.486-3.918c-0.467-2.202-1.119-3.462-1.019-3.507c0.032-0.016,0.201,0.292,0.482,0.868
					c0.149,0.285,0.309,0.643,0.445,1.077c0.147,0.43,0.335,0.917,0.451,1.479c0.308,1.108,0.479,2.467,0.606,3.973
					c0.092,1.509,0.1,3.169,0.061,4.903c-0.104,3.465-0.141,6.588,0.163,8.825C201.336,461.418,201.807,462.749,201.709,462.781z"/>
			</g>
			<g>
				<path style="fill:#263238;" d="M205.967,452.048c-0.089-0.029,0.156-0.788,0.225-2.048c0.087-1.262-0.103-3.004-0.37-4.944
					c-0.268-1.939-0.366-3.76-0.116-5.053c0.23-1.296,0.665-2.003,0.706-1.978c0.089,0.035-0.214,0.775-0.341,2.029
					c-0.148,1.254,0.001,3,0.268,4.937c0.267,1.935,0.406,3.744,0.221,5.044C206.389,451.335,206.012,452.07,205.967,452.048z"/>
			</g>
			<g>
				<path style="fill:#263238;" d="M210.285,457.532c-0.091-0.031,0.271-1.08,0.492-2.838c0.241-1.758,0.218-4.212,0.089-6.937
					c-0.13-2.724-0.117-5.229,0.195-7.014c0.149-0.89,0.32-1.604,0.498-2.076c0.166-0.477,0.273-0.733,0.308-0.721
					c0.091,0.029-0.246,1.086-0.44,2.847c-0.214,1.762-0.17,4.217-0.04,6.943c0.13,2.725,0.096,5.232-0.245,7.013
					c-0.162,0.888-0.346,1.599-0.534,2.068C210.431,457.29,210.319,457.543,210.285,457.532z"/>
			</g>
			<g>
				<path style="fill:#263238;" d="M218.331,455.933c-0.061,0.02-0.444-0.91-0.887-2.472c-0.445-1.56-0.92-3.762-1.176-6.23
					c-0.252-2.469-0.236-4.721-0.119-6.34c0.116-1.62,0.3-2.608,0.365-2.601c0.079,0.008,0.024,1.006,0.003,2.616
					c-0.022,1.609,0.02,3.832,0.269,6.271c0.253,2.438,0.665,4.623,1.015,6.193C218.15,454.943,218.407,455.909,218.331,455.933z"/>
			</g>
			<g>
				<path style="fill:#263238;" d="M222.116,436.722c0.149,0.053-0.518,1.986-0.715,4.465c-0.219,2.479,0.115,4.495-0.04,4.522
					c-0.124,0.039-0.704-1.998-0.479-4.566C221.089,438.575,222,436.663,222.116,436.722z"/>
			</g>
			<g>
				<path style="fill:#263238;" d="M224.141,459.194c-0.071-0.085,1.184-0.586,2.139-2.338c0.47-0.859,0.838-1.994,0.942-3.288
					c0.106-1.293-0.079-2.736-0.409-4.218c-0.335-1.486-0.759-2.887-1.066-4.193c-0.311-1.304-0.497-2.509-0.535-3.53
					c-0.037-1.022,0.063-1.85,0.192-2.405c0.128-0.557,0.261-0.845,0.288-0.837c0.092,0.019-0.29,1.232-0.113,3.22
					c0.083,0.99,0.301,2.158,0.633,3.438c0.328,1.281,0.767,2.681,1.109,4.194c0.337,1.512,0.517,3.01,0.379,4.374
					c-0.137,1.361-0.563,2.546-1.101,3.428c-0.541,0.885-1.173,1.464-1.655,1.775C224.461,459.129,224.15,459.215,224.141,459.194z"
					/>
			</g>
			<g>
				<path style="fill:#263238;" d="M234.059,456.683c-0.061,0.026-0.548-0.951-1.195-2.591c-0.648-1.639-1.433-3.949-2.094-6.559
					c-0.659-2.611-1.066-5.018-1.276-6.767c-0.21-1.75-0.246-2.841-0.18-2.848c0.077-0.008,0.242,1.067,0.544,2.793
					c0.301,1.727,0.763,4.103,1.416,6.693c0.656,2.589,1.38,4.899,1.936,6.561C233.765,455.629,234.131,456.653,234.059,456.683z"/>
			</g>
			<g>
				<path style="fill:#263238;" d="M240.877,455.319c-0.081,0.014-0.267-0.951-0.803-2.432c-0.516-1.49-1.457-3.456-2.451-5.673
					c-0.994-2.219-1.665-4.362-1.831-5.968c-0.189-1.605,0.019-2.599,0.073-2.589c0.089,0.005,0.015,0.99,0.292,2.535
					c0.255,1.549,0.958,3.61,1.944,5.812c0.987,2.201,1.89,4.223,2.324,5.769C240.879,454.313,240.938,455.313,240.877,455.319z"/>
			</g>
			<g>
				<path style="fill:#263238;" d="M246.017,459.362c-0.089-0.041,0.567-1.164,0.961-3.166c0.409-1.988,0.322-4.892-1.04-7.715
					c-0.636-1.422-1.361-2.74-1.923-3.996c-0.567-1.256-0.954-2.452-1.13-3.488c-0.185-1.036-0.149-1.899-0.064-2.476
					c0.093-0.58,0.217-0.882,0.244-0.874c0.096,0.01-0.267,1.284,0.182,3.28c0.216,0.991,0.626,2.137,1.205,3.358
					c0.576,1.225,1.313,2.533,1.964,3.986c0.659,1.446,1.087,2.947,1.19,4.337c0.121,1.389-0.031,2.646-0.267,3.665
					c-0.246,1.02-0.575,1.805-0.838,2.324C246.238,459.117,246.041,459.376,246.017,459.362z"/>
			</g>
			<g>
				<path style="fill:#263238;" d="M252.277,447.77c-0.095,0.086-1.5-1.664-2.225-4.286c-0.746-2.617-0.457-4.842-0.331-4.819
					c0.16,0.002,0.112,2.16,0.832,4.678C251.248,445.867,252.412,447.685,252.277,447.77z"/>
			</g>
			<g>
				<path style="fill:#263238;" d="M254.893,437.869c0.091-0.009,0.115,0.753,0.46,1.871c0.178,0.557,0.486,1.18,0.899,1.847
					c0.423,0.654,0.886,1.475,1.129,2.388c0.499,1.85,0.294,3.557,0.253,4.744c-0.074,1.197-0.082,1.937-0.158,1.943
					c-0.067,0.006-0.19-0.74-0.21-1.949c-0.05-1.201,0.081-2.88-0.387-4.598c-0.236-0.866-0.627-1.592-1.041-2.285
					c-0.401-0.698-0.698-1.385-0.839-1.99C254.728,438.627,254.843,437.869,254.893,437.869z"/>
			</g>
			<g>
				<path style="fill:#263238;" d="M265.751,453.077c-0.082-0.029,0.458-0.815,0.214-2.181c-0.109-0.672-0.425-1.425-0.906-2.207
					c-0.472-0.783-1.093-1.618-1.606-2.592c-1.045-1.933-1.5-3.926-1.516-5.365c-0.024-1.447,0.28-2.303,0.333-2.287
					c0.087,0.015-0.082,0.88,0.035,2.267c0.109,1.382,0.597,3.268,1.607,5.139c0.492,0.937,1.091,1.765,1.561,2.595
					c0.475,0.821,0.788,1.663,0.856,2.399C266.493,452.357,265.777,453.142,265.751,453.077z"/>
			</g>
			<g>
				<path style="fill:#263238;" d="M274.859,450.876c-0.034,0.049-0.747-0.359-1.738-1.237c-0.99-0.874-2.219-2.26-3.222-4.023
					c-0.997-1.766-1.556-3.534-1.797-4.832c-0.245-1.301-0.228-2.122-0.169-2.126c0.169-0.037,0.438,3.26,2.419,6.701
					C272.286,448.825,274.977,450.75,274.859,450.876z"/>
			</g>
			<g>
				<path style="fill:#263238;" d="M281.861,453.754c-0.104-0.008,0.298-1.103-0.26-2.737c-0.271-0.804-0.772-1.706-1.507-2.56
					c-0.734-0.855-1.715-1.648-2.777-2.444c-1.065-0.797-2.106-1.548-2.961-2.361c-0.855-0.81-1.512-1.664-1.933-2.457
					c-0.42-0.794-0.608-1.509-0.661-2.004c-0.055-0.498-0.009-0.773,0.018-0.773c0.098-0.017,0.067,1.12,0.964,2.596
					c0.44,0.732,1.096,1.524,1.939,2.287c0.841,0.765,1.875,1.495,2.948,2.297c1.071,0.803,2.075,1.63,2.831,2.551
					c0.754,0.918,1.249,1.891,1.491,2.76c0.242,0.871,0.239,1.618,0.151,2.11C282.017,453.514,281.885,453.762,281.861,453.754z"/>
			</g>
			<g>
				<path style="fill:#263238;" d="M285.861,448.426c-0.052,0.116-2.261-1.505-3.562-4.51c-1.335-2.992-1.035-5.715-0.914-5.675
					c0.166-0.012,0.109,2.603,1.391,5.465C284.017,446.584,285.983,448.312,285.861,448.426z"/>
			</g>
			<g>
				<path style="fill:#263238;" d="M290.216,454.895c-0.08-0.055,0.552-0.801,1.018-2.242c0.472-1.41,0.674-3.617-0.265-5.712
					c-0.464-1.04-1.148-1.925-1.733-2.761c-0.595-0.831-1.096-1.633-1.395-2.366c-0.631-1.479-0.41-2.519-0.355-2.493
					c0.087-0.004,0.008,0.982,0.69,2.341c0.328,0.68,0.836,1.425,1.448,2.236c0.601,0.816,1.319,1.712,1.82,2.829
					c1.01,2.256,0.722,4.606,0.137,6.048c-0.288,0.736-0.624,1.283-0.892,1.629C290.42,454.751,290.24,454.915,290.216,454.895z"/>
			</g>
			<g>
				<path style="fill:#263238;" d="M300.315,448.487c-0.027,0.123-2.624-1.067-4.619-3.845c-2.025-2.757-2.352-5.595-2.226-5.583
					c0.16-0.049,0.701,2.634,2.648,5.277C298.028,447.004,300.412,448.349,300.315,448.487z"/>
			</g>
			<g>
				<path style="fill:#263238;" d="M167.403,449.592c-0.153-0.077,1.643-2.534,2.06-6.128c0.474-3.588-0.668-6.409-0.501-6.446
					c0.053-0.023,0.415,0.637,0.726,1.808c0.314,1.166,0.517,2.857,0.291,4.702c-0.232,1.843-0.841,3.434-1.43,4.488
					C167.961,449.075,167.449,449.627,167.403,449.592z"/>
			</g>
		</g>
		<g>
			<path style="fill:#FFBE9D;" d="M214.545,201.746l9.591-2.584l34.116-6.301l16.872,4.757c0,0-16.845,17.825-24.064,19.189
				C235.629,219.721,214.545,201.746,214.545,201.746z"/>
			<path style="fill:#E8505B;" d="M292.477,185.628l-29.453,5.33c0,0-5.373,36.104-46.567,10.608c0,0-19.487-0.891-26.535,8.778
				c-5.131,7.039-18.665,42.573-18.665,42.573l27.254,22.711l3.411,17.552c0,0-14.998,13.652-14.277,23.419
				c0,0,37.326,29.475,63.091,25.877c25.765-3.597,39.162-16.162,39.162-16.162l11.499-99.896l21.245,6.028l3.079-34.677
				L292.477,185.628z"/>
			<g>
				<path style="fill:#263238;" d="M224.904,309.149c-0.014,0.033-0.387-0.087-1.053-0.335c-0.668-0.243-1.616-0.64-2.771-1.17
					c-2.309-1.057-5.416-2.721-8.614-4.924c-3.195-2.209-5.854-4.524-7.661-6.308c-0.905-0.891-1.613-1.637-2.076-2.175
					c-0.468-0.535-0.713-0.841-0.687-0.866c0.062-0.058,1.152,1.068,3.016,2.773c1.862,1.706,4.535,3.956,7.704,6.147
					c3.172,2.185,6.223,3.886,8.479,5.021C223.496,308.451,224.936,309.071,224.904,309.149z"/>
			</g>
			<g>
				<path style="fill:#263238;" d="M244.362,271.269c0.025,0.017-0.221,0.426-0.74,1.111c-0.518,0.687-1.341,1.629-2.486,2.664
					c-2.26,2.069-6.027,4.415-10.705,5.272c-4.68,0.854-9.034-0.007-11.88-1.142c-1.437-0.562-2.541-1.152-3.268-1.611
					c-0.729-0.457-1.102-0.752-1.086-0.777c0.054-0.095,1.615,1.021,4.481,2.043c2.835,1.029,7.094,1.808,11.659,0.975
					c4.563-0.837,8.271-3.072,10.557-5.038C243.212,272.796,244.278,271.199,244.362,271.269z"/>
			</g>
			<g style="opacity:0.3;">
				<path d="M201.924,293.179c1.918,3.479,5.242,5.474,8.476,7.781c4.858,3.466,9.957,7.033,15.858,7.926
					c0.969,0.147,1.98,0.215,2.911-0.09c0.931-0.305,1.771-1.055,1.931-2.022c0.204-1.235-0.756-2.418-1.901-2.924
					c-1.145-0.507-2.438-0.508-3.689-0.565C216.467,302.874,208.137,297.824,201.924,293.179"/>
			</g>
			<g style="opacity:0.3;">
				<path d="M215.921,278.06c3.093,2.734,6.384,5.372,10.242,6.841c3.858,1.469,8.41,1.625,11.961-0.48
					c3.551-2.106,5.646-6.805,4.03-10.604c-7.234,6.263-16.81,7.151-25.899,4.16"/>
			</g>
			<g>
				<path style="fill:#263238;" d="M193.23,247.35c0.142-0.025,1.505,6.936,3.045,15.547c1.54,8.614,2.674,15.615,2.532,15.64
					c-0.141,0.025-1.505-6.935-3.045-15.548C194.222,254.377,193.088,247.375,193.23,247.35z"/>
			</g>
			<g>
				<path style="fill:#263238;" d="M253.027,265.624c0.054,0.133-1.14,0.744-2.668,1.364c-1.528,0.62-2.81,1.015-2.864,0.882
					c-0.054-0.133,1.14-0.744,2.668-1.364C251.69,265.886,252.973,265.491,253.027,265.624z"/>
			</g>
			<g style="opacity:0.3;">
				<path d="M253.336,207.97c-1.038,6.69-2.078,13.437-1.737,20.198c0.342,6.762,2.171,13.626,6.34,18.959
					c3.264,4.175,7.751,7.182,11.818,10.58c4.067,3.398,7.919,7.514,9.122,12.676c0.764,3.282,0.389,6.704,0.379,10.073
					c-0.004,1.345,0.503,3.141,1.846,3.07c0.461-0.024,0.87-0.293,1.246-0.561c6.449-4.592,11-11.771,12.399-19.564
					c1.399-7.792-0.369-16.107-4.818-22.655c-7.224-10.633-20.862-16.443-25.688-28.359"/>
			</g>
			<g>
				<path style="fill:#263238;" d="M303.309,206.326c0.143,0.015-0.268,5.176-0.919,11.526c-0.651,6.352-1.294,11.489-1.437,11.474
					c-0.143-0.015,0.268-5.174,0.919-11.527C302.522,211.448,303.166,206.311,303.309,206.326z"/>
			</g>
			<g>
				<path style="fill:#FAFAFA;" d="M301.153,227.232c0,0-0.072,0.263-0.287,0.747c-0.218,0.482-0.623,1.174-1.334,1.931
					c-1.402,1.504-4.241,3.148-8.198,3.394c-3.912,0.373-8.765-0.618-14.184,0.746c-5.359,1.248-11.242,4.34-15.666,9.752
					c-4.362,5.374-7.08,13.136-6.095,21.296c0.244,2.026,0.713,4.069,1.574,5.986c0.855,1.903,2.134,3.702,3.94,4.866
					c1.796,1.179,4.067,1.558,6.246,1.234c2.19-0.315,4.312-1.238,6.168-2.556c3.714-2.676,6.268-6.986,7.211-11.667
					c0.959-4.671,0.339-9.87-2.305-14.105c-1.305-2.11-3.056-3.971-5.113-5.441c-2.065-1.46-4.413-2.554-6.898-3.206
					c-2.481-0.665-5.115-0.826-7.688-0.454c-1.293,0.156-2.548,0.533-3.788,0.954c-1.22,0.48-2.426,1.016-3.566,1.689
					c-4.601,2.665-8.305,6.499-12.073,10.072c-3.728,3.615-7.827,6.931-12.57,8.841c-2.351,0.972-4.891,1.478-7.406,1.402
					c-2.514-0.097-4.976-0.87-7.056-2.188c-4.193-2.639-6.945-6.986-8.092-11.502c-2.331-9.095,1.417-18.957,8.557-23.415
					c1.789-1.068,3.851-1.714,5.899-1.556c2.032,0.16,3.956,1.09,5.276,2.554c0.649,0.74,1.127,1.627,1.349,2.573
					c0.225,0.943,0.191,1.93-0.04,2.842c-0.459,1.837-1.618,3.387-3.04,4.462c-1.437,1.068-3.098,1.692-4.737,2.05
					c-0.822,0.181-1.643,0.302-2.456,0.377c-0.813,0.066-1.62,0.068-2.412,0.104c-3.178,0.001-6.152-0.589-8.792-1.491
					c-2.646-0.904-4.965-2.119-6.969-3.423c-1.966-1.363-3.644-2.776-4.995-4.204c-2.737-2.831-4.248-5.547-5.09-7.421
					c-0.48-0.917-0.678-1.688-0.88-2.175c-0.18-0.497-0.26-0.756-0.26-0.756s0.113,0.247,0.31,0.737
					c0.218,0.481,0.431,1.243,0.925,2.149c0.869,1.852,2.4,4.535,5.141,7.325c1.353,1.408,3.028,2.798,4.986,4.138
					c1.996,1.281,4.301,2.471,6.925,3.354c2.618,0.88,5.562,1.45,8.699,1.436c0.782-0.039,1.578-0.043,2.38-0.112
					c0.801-0.078,1.609-0.2,2.413-0.38c1.604-0.356,3.214-0.971,4.592-2.003c1.356-1.03,2.461-2.524,2.887-4.259
					c0.216-0.861,0.244-1.783,0.031-2.659c-0.209-0.878-0.655-1.702-1.266-2.396c-1.242-1.372-3.081-2.26-5.008-2.404
					c-1.934-0.146-3.918,0.473-5.645,1.511c-6.932,4.337-10.617,14.037-8.314,22.924c1.125,4.41,3.825,8.649,7.891,11.199
					c2.016,1.274,4.384,2.013,6.814,2.106c2.429,0.071,4.895-0.418,7.196-1.371c4.645-1.874,8.691-5.14,12.402-8.743
					c3.759-3.564,7.482-7.43,12.171-10.148c1.162-0.686,2.396-1.235,3.645-1.726c1.269-0.431,2.565-0.819,3.894-0.98
					c2.646-0.382,5.349-0.215,7.892,0.467c2.546,0.668,4.95,1.79,7.067,3.288c2.109,1.509,3.908,3.42,5.249,5.592
					c2.718,4.364,3.343,9.693,2.358,14.472c-0.972,4.791-3.585,9.203-7.419,11.958c-1.914,1.356-4.102,2.306-6.382,2.631
					c-2.267,0.334-4.667-0.066-6.559-1.314c-1.902-1.231-3.224-3.112-4.099-5.069c-0.881-1.971-1.353-4.06-1.597-6.116
					c-0.98-8.29,1.798-16.146,6.238-21.58c4.504-5.471,10.466-8.569,15.886-9.803c5.491-1.349,10.365-0.321,14.234-0.664
					c3.918-0.212,6.728-1.804,8.138-3.265C300.885,228.344,301.094,227.191,301.153,227.232z"/>
			</g>
			<g>
				<path style="fill:#FAFAFA;" d="M310.417,192.75c0.019,0.023-0.349,0.37-1.077,0.92c-0.726,0.553-1.84,1.276-3.312,1.993
					c-2.911,1.443-7.466,2.695-12.476,2.066c-5.011-0.634-9.113-2.978-11.575-5.098c-1.248-1.06-2.147-2.037-2.713-2.753
					c-0.568-0.714-0.838-1.141-0.814-1.159c0.085-0.075,1.24,1.607,3.761,3.626c2.483,2.015,6.518,4.247,11.407,4.867
					c4.887,0.613,9.35-0.548,12.255-1.883C308.816,193.999,310.353,192.657,310.417,192.75z"/>
			</g>
			<g>
				<path style="fill:#FAFAFA;" d="M325.043,211.641c0.037,0.093-1.187,0.54-2.955,1.626c-0.888,0.535-1.884,1.27-2.917,2.165
					c-1.015,0.917-2.057,2.006-3.011,3.264c-0.938,1.27-1.69,2.577-2.284,3.809c-0.568,1.244-0.993,2.406-1.255,3.409
					c-0.544,2.003-0.628,3.302-0.727,3.293c-0.036-0.002-0.035-0.327-0.002-0.915c0.011-0.295,0.039-0.655,0.112-1.068
					c0.068-0.413,0.121-0.89,0.26-1.4c0.222-1.034,0.619-2.234,1.176-3.519c0.583-1.272,1.341-2.62,2.303-3.922
					c0.977-1.289,2.057-2.396,3.113-3.314c1.075-0.896,2.115-1.616,3.044-2.12c0.45-0.278,0.893-0.462,1.27-0.644
					c0.375-0.187,0.713-0.315,0.993-0.409C324.719,211.699,325.03,211.607,325.043,211.641z"/>
			</g>
			<g>
				<path style="fill:#FAFAFA;" d="M183.339,263.927c-0.087,0.006-0.191-1.275-0.557-3.308c-0.362-2.032-1.05-4.809-2.227-7.727
					c-1.186-2.916-2.625-5.389-3.779-7.099c-1.152-1.714-1.969-2.706-1.902-2.762c0.027-0.023,0.257,0.202,0.651,0.633
					c0.398,0.426,0.933,1.08,1.553,1.919c1.243,1.673,2.757,4.156,3.961,7.115c1.195,2.961,1.836,5.797,2.108,7.864
					c0.138,1.034,0.21,1.876,0.22,2.459C183.382,263.603,183.375,263.925,183.339,263.927z"/>
			</g>
			<g>
				<path style="fill:#FAFAFA;" d="M291.177,303.607c-0.03,0.032-0.352-0.372-1.135-0.933c-0.771-0.568-2.04-1.264-3.829-1.636
					c-1.779-0.355-4.073-0.372-6.557,0.357c-2.481,0.747-5.076,2.241-7.662,4.238c-2.612,1.969-5.232,4.458-8.442,6.655
					c-1.606,1.088-3.37,2.099-5.339,2.792c-1.963,0.696-4.145,1.004-6.34,0.82c-4.371-0.346-8.911-2.589-11.691-6.557
					c-2.774-3.936-3.586-9.367-1.961-14.208c0.832-2.391,2.243-4.654,4.382-6.035c1.061-0.673,2.309-1.108,3.585-1.038
					c1.286,0.07,2.46,0.709,3.312,1.601c0.857,0.88,1.415,2.129,1.251,3.391c-0.181,1.271-1.106,2.276-2.156,2.81
					c-2.147,1.093-4.46,1.024-6.603,1.282c-8.71,0.614-16.59-0.593-22.898-2.44c-6.326-1.851-11.146-4.218-14.321-6.061
					c-1.581-0.942-2.794-1.692-3.581-2.258c-0.38-0.263-0.68-0.47-0.905-0.626c-0.202-0.143-0.303-0.22-0.298-0.228
					c0.005-0.007,0.116,0.055,0.328,0.184c0.232,0.145,0.541,0.337,0.933,0.582c0.804,0.536,2.033,1.257,3.623,2.169
					c3.196,1.784,8.018,4.088,14.322,5.884c6.286,1.791,14.12,2.951,22.762,2.315c2.128-0.254,4.445-0.223,6.403-1.241
					c0.961-0.49,1.742-1.377,1.892-2.442c0.137-1.06-0.338-2.17-1.12-2.968c-0.772-0.808-1.844-1.382-2.971-1.439
					c-1.136-0.064-2.292,0.332-3.278,0.96c-2.001,1.291-3.366,3.454-4.168,5.767c-1.571,4.673-0.788,9.948,1.887,13.747
					c2.671,3.83,7.072,6.024,11.312,6.37c2.131,0.184,4.235-0.104,6.15-0.774c1.92-0.667,3.657-1.65,5.248-2.717
					c3.181-2.154,5.817-4.625,8.462-6.591c2.62-1.993,5.266-3.49,7.803-4.224c2.542-0.717,4.876-0.668,6.681-0.276
					c1.814,0.41,3.09,1.149,3.85,1.751c0.384,0.3,0.655,0.551,0.821,0.738C291.099,303.507,291.184,303.601,291.177,303.607z"/>
			</g>
			<g>
				<path style="fill:#FAFAFA;" d="M215.725,331.608c-0.035,0.006-0.175-0.505-0.397-1.433c-0.235-0.925-0.6-2.256-1.143-3.869
					c-1.103-3.213-3.059-7.545-6.174-11.704c-1.547-2.082-3.215-3.917-4.852-5.456c-1.642-1.534-3.205-2.835-4.676-3.671
					c-1.459-0.853-2.782-1.27-3.716-1.401c-0.935-0.142-1.467-0.097-1.469-0.147c-0.001-0.018,0.13-0.04,0.383-0.065
					c0.252-0.025,0.63-0.039,1.112,0.011c0.965,0.071,2.352,0.447,3.871,1.281c1.533,0.817,3.145,2.11,4.822,3.64
					c1.674,1.539,3.375,3.388,4.942,5.496c3.155,4.213,5.084,8.63,6.106,11.901c0.504,1.643,0.816,2.998,0.991,3.941
					C215.688,331.077,215.761,331.602,215.725,331.608z"/>
			</g>
			<g>
				<path style="fill:#FAFAFA;" d="M287.822,328.23c-0.007,0.108-2.036-0.104-5.297,0.106c-1.63,0.094-3.56,0.356-5.672,0.788
					c-2.104,0.468-4.387,1.126-6.7,2.044c-2.304,0.943-4.405,2.052-6.246,3.174c-1.821,1.154-3.394,2.303-4.634,3.366
					c-2.495,2.11-3.81,3.669-3.889,3.596c-0.027-0.024,0.291-0.419,0.893-1.117c0.296-0.353,0.671-0.774,1.143-1.228
					c0.467-0.457,0.977-1.005,1.613-1.531c1.221-1.109,2.789-2.303,4.619-3.493c1.849-1.159,3.972-2.296,6.307-3.251
					c2.344-0.93,4.661-1.583,6.797-2.031c2.144-0.412,4.101-0.639,5.75-0.686c0.823-0.061,1.57-0.021,2.224-0.016
					c0.655-0.001,1.217,0.042,1.675,0.092C287.322,328.13,287.825,328.194,287.822,328.23z"/>
			</g>
		</g>
		<g>
			<path style="fill:#FFBE9D;" d="M147.398,193.759c0,0,7.876,6.713,9.02,11.99c0.507,2.336,4.444,20.158,4.444,20.158
				l-17.948,5.943c0,0-0.828-4.298-4.387-6.533S125.6,216.54,125.6,216.54l-2.897-22.84l7.939-7.044l0.164-11.703
				c0,0,3.036,0.091,3.612,3.532c0.576,3.442,4.071,9.362,4.071,9.362L147.398,193.759z"/>
			<path style="fill:#FFBE9D;" d="M142.913,231.85c0,0,9.224,68.963,11.645,77.058c2.518,8.42,9.166,13.967,16.423,13.361
				c7.257-0.606,12.685-5.539,14.936-11.502c2.042-5.411,11.42-36.101,11.42-36.101l-22.366-18.865l-5.367,15.301l-8.742-45.195
				L142.913,231.85z"/>
			<g>
				<path style="fill:#EB996E;" d="M149.986,214.708c-0.066,0.106-2.127-1.747-3.269-4.873c-0.573-1.541-0.825-3.015-0.911-4.079
					c-0.085-1.067-0.031-1.727,0.034-1.73c0.175-0.017,0.25,2.633,1.364,5.626C148.299,212.662,150.116,214.604,149.986,214.708z"/>
			</g>
			<g>
				<g>
					<polygon style="fill:#263238;" points="132.748,173.356 130.323,207.373 143.799,216.36 145.067,215.415 147.242,183.368 
						135.126,173.257 					"/>
					<polygon style="fill:#FFFFFF;" points="136.505,177.447 135.834,188.965 144.138,195.249 144.867,184.468 					"/>
					<g>
						<path style="fill:#455A64;" d="M134.414,198.68c-0.016-0.007,0.013-0.113,0.089-0.31c0.087-0.191,0.224-0.474,0.471-0.794
							c0.48-0.643,1.463-1.403,2.874-1.754c1.394-0.482,3.344-0.03,4.754,1.302c0.714,0.649,1.277,1.604,1.464,2.64
							c0.213,1.027,0.204,2.164-0.199,3.234c-0.406,1.068-1.217,1.936-2.182,2.411c-0.972,0.482-2.042,0.554-2.992,0.432
							c-1.918-0.213-3.537-1.313-4.172-2.664c-0.611-1.336-0.632-2.544-0.529-3.335C134.109,199.038,134.395,198.662,134.414,198.68
							c0.042,0.019-0.17,0.41-0.221,1.183c-0.041,0.758,0.046,1.928,0.656,3.147c0.616,1.2,2.104,2.178,3.9,2.354
							c0.888,0.102,1.854,0.019,2.706-0.412c0.85-0.425,1.566-1.197,1.925-2.142c0.359-0.948,0.378-1.995,0.186-2.944
							c-0.173-0.968-0.646-1.777-1.295-2.396c-1.298-1.239-3.022-1.696-4.337-1.291c-1.35,0.29-2.298,0.952-2.804,1.526
							C134.618,198.285,134.457,198.702,134.414,198.68z"/>
					</g>
				</g>
				<g>
					<path style="fill:#455A64;" d="M145.067,215.415c-0.016,0.022-0.346-0.18-0.947-0.575c-0.657-0.444-1.513-1.023-2.562-1.732
						c-2.242-1.56-5.299-3.686-8.869-6.169l-0.11-0.077l0.009-0.136c0.19-2.856,0.398-5.981,0.616-9.26
						c0.459-6.691,0.904-12.745,1.252-17.126c0.18-2.129,0.328-3.881,0.439-5.186c0.058-0.561,0.106-1.026,0.146-1.408
						c0.039-0.322,0.068-0.49,0.086-0.489c0.018,0.001,0.024,0.172,0.019,0.496c-0.013,0.384-0.029,0.851-0.048,1.415
						c-0.069,1.308-0.161,3.064-0.274,5.197c-0.254,4.387-0.64,10.446-1.1,17.137c-0.232,3.279-0.453,6.402-0.655,9.257
						l-0.101-0.213c3.526,2.545,6.545,4.725,8.76,6.323c1.016,0.755,1.846,1.371,2.483,1.843
						C144.782,215.148,145.083,215.393,145.067,215.415z"/>
				</g>
			</g>
			<path style="fill:#FFBE9D;" d="M130.641,186.656l10.211-0.424c0,0,0.416,3.933-1.887,4.583l-8.137,0.338l5.174,1.339l7.629,6.452
				c0,0-2.008,2.413-3.803,1.933s-5.349-3.218-5.349-3.218l-4.357,1.956l6.36,0.846l5.763,7.861c0,0-2.945,1.232-4.431,0.184
				c-1.486-1.048-3.027-3.425-3.027-3.425l-3.743,0.71l-0.251,9.997l-5.192,0.751l-3.019-14.712l1.06-2.596l-0.938-5.531
				L130.641,186.656z"/>
			<g>
				<path style="fill:#EB996E;" d="M136.001,192.492c-0.024,0.092-1.732-0.265-4.285-0.878l0.22-0.065
					c-0.934,1.035-1.981,2.195-3.099,3.434c-1.679,1.831-3.221,3.468-4.356,4.636c-1.135,1.168-1.864,1.866-1.917,1.817
					c-0.053-0.049,0.579-0.834,1.645-2.066c1.066-1.231,2.564-2.908,4.244-4.739c1.138-1.221,2.203-2.363,3.154-3.383l0.094-0.1
					l0.127,0.035C134.358,191.884,136.025,192.401,136.001,192.492z"/>
			</g>
			<g>
				<path style="fill:#EB996E;" d="M124.486,205.597c-0.063-0.028,0.085-0.525,0.463-1.266c0.374-0.741,0.996-1.708,1.746-2.714
					c0.378-0.499,0.718-0.988,1.122-1.399c0.395-0.408,0.883-0.701,1.332-0.772c0.444-0.085,0.82,0.011,1.035,0.133
					c0.218,0.127,0.289,0.251,0.268,0.274c-0.037,0.066-0.48-0.278-1.218-0.049c-0.749,0.178-1.384,1.106-2.12,2.123
					C125.587,203.903,124.601,205.642,124.486,205.597z"/>
			</g>
			<g>
				<path style="fill:#EB996E;" d="M169.711,288.998c-0.069,0.003-0.183-0.996-0.254-2.617c-0.074-1.621-0.091-3.862-0.06-6.333
					c0.035-2.375,0.066-4.522,0.092-6.323c0.023-1.617,0.039-2.619,0.114-2.623c0.069-0.003,0.183,0.996,0.254,2.617
					c0.074,1.621,0.091,3.862,0.06,6.334c-0.035,2.374-0.066,4.521-0.092,6.321C169.802,287.992,169.786,288.994,169.711,288.998z"
					/>
			</g>
		</g>
		<g>
			<path style="fill:#263238;" d="M232.175,103.5c0,0.018-0.209,0.039-0.607,0.062c-0.452,0.022-1.027,0.049-1.734,0.083
				c-1.497,0.145-3.678,0.345-6.26,1.097c-2.576,0.739-5.538,2.042-8.393,4.151c-1.431,1.046-2.822,2.289-4.197,3.651
				c-1.402,1.346-2.696,2.85-3.925,4.5c-2.443,3.295-4.451,6.682-5.875,9.934c-0.696,1.63-1.285,3.217-1.63,4.751
				c-0.351,1.535-0.483,2.983-0.452,4.335c0.016,2.688,0.324,4.858,0.755,6.294c0.209,0.72,0.435,1.258,0.611,1.61
				c0.176,0.354,0.3,0.52,0.287,0.532c-0.031,0.036-0.613-0.627-1.091-2.081c-0.499-1.442-0.867-3.635-0.93-6.35
				c-0.055-1.35,0.058-2.87,0.399-4.436c0.335-1.573,0.918-3.188,1.611-4.846c1.419-3.305,3.431-6.728,5.899-10.055
				c1.232-1.657,2.575-3.21,3.984-4.551c1.39-1.368,2.81-2.624,4.272-3.676c2.919-2.123,5.953-3.415,8.576-4.118
				c2.63-0.717,4.839-0.861,6.348-0.945c0.758-0.009,1.346,0.007,1.745,0.015C231.967,103.468,232.176,103.482,232.175,103.5z"/>
		</g>
		<g>
			<path style="fill:#E8505B;" d="M277.769,136.527c1.077,7.755-2.948,14.722-8.99,15.562c-6.042,0.839-11.813-4.768-12.89-12.523
				c-1.077-7.755,2.948-14.722,8.99-15.562C270.921,123.165,276.692,128.772,277.769,136.527z"/>
			<g>
				<path style="fill:#FFFFFF;" d="M275.009,143.965c-0.09-0.036,0.48-1.201,0.818-3.223c0.344-1.999,0.373-4.918-0.724-7.834
					c-1.084-2.927-3.113-5.047-4.786-6.184c-1.692-1.153-2.973-1.433-2.938-1.533c0.007-0.028,0.33,0.011,0.889,0.183
					c0.561,0.166,1.354,0.488,2.25,1.042c1.78,1.091,3.945,3.263,5.072,6.308c1.14,3.033,1.045,6.055,0.599,8.086
					c-0.22,1.025-0.504,1.827-0.743,2.36C275.207,143.703,275.037,143.979,275.009,143.965z"/>
			</g>
		</g>
		<g>
			<path style="fill:#263238;" d="M279.502,190.565c-0.035-0.027,0.357-0.557,1.017-1.544c0.658-0.987,1.597-2.431,2.534-4.327
				c0.903-1.9,1.845-4.282,2.069-7.055c0.276-2.767-0.457-5.83-2.009-8.636c-1.589-2.798-3.591-5.167-5.355-7.356
				c-1.778-2.182-3.319-4.225-4.368-6.099c-1.086-1.861-1.548-3.565-1.83-4.723c-0.09-0.593-0.131-1.057-0.165-1.37
				c-0.03-0.313-0.037-0.477-0.019-0.479c0.039-0.003,0.16,0.646,0.381,1.804c0.341,1.129,0.842,2.775,1.952,4.583
				c1.073,1.822,2.624,3.817,4.42,5.979c1.782,2.17,3.814,4.545,5.44,7.408c1.593,2.869,2.346,6.078,2.031,8.929
				c-0.26,2.86-1.26,5.273-2.218,7.178c-0.992,1.901-1.985,3.324-2.698,4.28c-0.356,0.479-0.648,0.839-0.852,1.078
				C279.629,190.456,279.516,190.576,279.502,190.565z"/>
		</g>
		<g>
			<g>
				<path style="fill:#263238;" d="M207.073,193.906c-0.625,7.645,5.58,13.995,7.982,21.279c2.954,8.957-0.581,19.648-8.292,25.078
					c7.492,1.296,15.18-3.469,18.774-10.169c3.594-6.701,2.724-14.931,0.788-22.284c-1.937-7.353-2.542-9.836-2.542-9.836"/>
				<g>
					<path style="fill:#263238;" d="M231.1,106.325c0,0,0.93-6.435,7.59-5.153c6.66,1.282,17.149,3.799,22.778,14.75
						c5.629,10.951,11.603,38.978,11.764,40.14c0.161,1.162,6.741,45.854,10.357,51.408c3.354,5.153,7.689,6.313,7.689,6.313
						s-6.697,4.715-13.962-1.846s-20.956-33.726-20.956-33.726L231.1,106.325z"/>
					<g>
						<g>
							<g>
								<path style="fill:#FFBE9D;" d="M207.522,129.906l-1.253-5.104l29.473-12.776c9.268-3.138,21.672,4.069,24.413,13.462
									c3.046,10.435,6.353,23.296,6.874,31.475c1.047,16.448-10.671,21.205-10.671,21.205l3.476,15.78l-35.023,8.335
									L207.522,129.906z"/>
							</g>
						</g>
						<g>
							<g>
								<g>
									<g>
										<g>
											<g>
												<g>
													<g>
														<g>
															<g>
																<g>
																	<path style="fill:#263238;" d="M259.418,136.68c-0.193,0.322-1.993-0.473-4.183,0.026
																		c-2.195,0.466-3.55,1.955-3.848,1.74c-0.144-0.092,0.006-0.63,0.592-1.297c0.575-0.663,1.64-1.421,3.007-1.722
																		c1.367-0.299,2.628-0.055,3.404,0.311C259.18,136.104,259.516,136.533,259.418,136.68z"/>
																</g>
															</g>
														</g>
													</g>
												</g>
											</g>
										</g>
									</g>
								</g>
							</g>
						</g>
						<g>
							<g>
								<g>
									<g>
										<g>
											<g>
												<g>
													<g>
														<g>
															<g>
																<g>
																	<path style="fill:#263238;" d="M237.654,143.015c-0.193,0.322-1.995-0.472-4.183,0.026
																		c-2.195,0.467-3.55,1.955-3.849,1.74c-0.143-0.093,0.004-0.629,0.592-1.297c0.575-0.663,1.64-1.421,3.006-1.722
																		c1.367-0.299,2.628-0.055,3.404,0.311C237.413,142.44,237.751,142.868,237.654,143.015z"/>
																</g>
															</g>
														</g>
													</g>
												</g>
											</g>
										</g>
									</g>
								</g>
							</g>
						</g>
						<g>
							<g>
								<g>
									<g>
										<g>
											<g>
												<g>
													<g>
														<g>
															<g>
																<path style="fill:#263238;" d="M248.468,152.706c-0.038-0.122,1.272-0.664,3.415-1.442
																	c0.546-0.183,1.051-0.414,1.06-0.817c0.041-0.434-0.329-0.985-0.747-1.575c-0.83-1.236-1.7-2.532-2.613-3.889
																	c-3.662-5.551-6.447-10.166-6.222-10.312c0.225-0.146,3.376,4.236,7.038,9.787c0.889,1.372,1.739,2.679,2.549,3.931
																	c0.355,0.588,0.881,1.228,0.784,2.131c-0.057,0.452-0.4,0.848-0.736,1.025c-0.334,0.19-0.648,0.267-0.921,0.346
																	C249.88,152.509,248.504,152.829,248.468,152.706z"/>
															</g>
														</g>
													</g>
												</g>
											</g>
										</g>
									</g>
								</g>
							</g>
						</g>
						<g>
							<g>
								<g>
									<g>
										<g>
											<g>
												<g>
													<g>
														<g>
															<path style="fill:#EB996E;" d="M256.361,178.212c0,0-11.079,3.18-23.094-0.804c0,0,7.863,9.914,23.973,4.766
																L256.361,178.212z"/>
														</g>
													</g>
												</g>
											</g>
										</g>
									</g>
								</g>
							</g>
						</g>
						<g>
							<g>
								<g>
									<g>
										<g>
											<g>
												<g>
													<g>
														<g>
															<path style="fill:#E8505B;" d="M248.728,158.196c-1.023-0.865-2.532-1.127-3.87-0.671
																c-0.928,0.316-1.786,0.991-2.19,1.895c-0.404,0.904-0.278,2.031,0.413,2.652c0.778,0.699,2.057,0.613,3.036,0.081
																c0.98-0.533,1.725-1.424,2.426-2.302c0.194-0.243,0.391-0.495,0.48-0.789c0.089-0.293,0.044-0.641-0.187-0.815"/>
														</g>
													</g>
												</g>
											</g>
										</g>
									</g>
								</g>
							</g>
						</g>
						<g>
							<g>
								<g>
									<g>
										<g>
											<g>
												<g>
													<g>
														<g>
															<g>
																<path style="fill:#263238;" d="M242.359,155.672c0.352-0.101,0.891,2.277,3.307,3.508
																	c2.413,1.237,4.889,0.4,4.983,0.729c0.067,0.141-0.461,0.589-1.525,0.858c-1.042,0.272-2.651,0.279-4.129-0.473
																	c-1.475-0.756-2.32-2.018-2.62-2.976C242.06,156.344,242.193,155.695,242.359,155.672z"/>
															</g>
														</g>
													</g>
												</g>
											</g>
										</g>
									</g>
								</g>
							</g>
						</g>
						<g>
							<g>
								<g>
									<g>
										<g>
											<g>
												<path style="fill:#263238;" d="M235.581,131.561c-0.082,0.645-2.334,0.854-4.836,1.742
													c-2.52,0.838-4.424,2.057-4.885,1.599c-0.21-0.221,0.026-0.863,0.734-1.629c0.701-0.763,1.905-1.608,3.41-2.127
													c1.505-0.516,2.974-0.588,3.996-0.418C235.03,130.896,235.61,131.258,235.581,131.561z"/>
											</g>
										</g>
									</g>
								</g>
							</g>
						</g>
						<g>
							<g>
								<g>
									<g>
										<g>
											<g>
												<path style="fill:#263238;" d="M256.081,126.827c-0.274,0.584-1.9,0.407-3.721,0.791
													c-1.834,0.32-3.278,1.088-3.749,0.647c-0.212-0.218-0.082-0.771,0.484-1.393c0.556-0.619,1.577-1.251,2.833-1.494
													c1.256-0.241,2.439-0.033,3.185,0.335C255.871,126.081,256.197,126.546,256.081,126.827z"/>
											</g>
										</g>
									</g>
								</g>
							</g>
						</g>
					</g>
					<path style="fill:#263238;" d="M217.015,148.327c8.579-7.044,12.806-21.496,17.32-31.638c1-2.248,2.02-4.746,1.288-7.095
						c-0.76-2.441-3.316-4.001-5.861-4.242c-2.546-0.24-5.07,0.609-7.39,1.685c-9.66,4.482-17.211,13.292-20.162,23.523
						c-0.93,3.226-0.373,10.332,2.345,12.302c2.98,2.16,6.597,0.33,9.504,2.587"/>
					<path style="fill:#263238;" d="M263.487,171.894c5.755,6.486,10.277,16.386,10.175,25.057
						c-0.094,8.013-2.787,16.652,1.12,23.649c3.516,6.297,11.191,8.919,16.173,14.133c5.749,6.017,7.364,15.238,5.363,23.316
						c-2,8.078-7.211,15.073-13.457,20.572c2.976-7.934,0.512-17.6-5.9-23.14c-4.064-3.512-9.345-5.35-13.491-8.765
						c-6.017-4.956-9.041-12.801-9.88-20.551c-0.838-7.75,0.257-15.561,1.129-23.307c0.872-7.747,2.106-16.744,0.388-24.347
						C258.44,177.994,261.414,175.32,263.487,171.894z"/>
					<g>
						<path style="fill:#263238;" d="M235.958,107.417c0.036-0.004,0.112,0.62,0.219,1.754c0.063,0.567,0.118,1.262,0.111,2.072
							c0.002,0.809,0.053,1.733-0.037,2.75c-0.032,0.511-0.064,1.045-0.099,1.598c-0.039,0.556-0.138,1.127-0.209,1.723
							c-0.122,1.196-0.404,2.448-0.67,3.772c-0.626,2.625-1.533,5.463-2.813,8.308c-1.314,2.83-2.867,5.374-4.443,7.565
							c-0.827,1.067-1.59,2.1-2.415,2.975c-0.404,0.444-0.772,0.893-1.166,1.286c-0.397,0.388-0.778,0.762-1.144,1.12
							c-0.71,0.734-1.443,1.299-2.056,1.827c-0.608,0.536-1.169,0.949-1.639,1.272c-0.928,0.661-1.449,1.011-1.469,0.982
							c-0.021-0.029,0.461-0.436,1.346-1.143c0.449-0.346,0.988-0.78,1.574-1.333c0.591-0.545,1.3-1.125,1.987-1.869
							c0.355-0.363,0.725-0.741,1.11-1.133c0.383-0.396,0.74-0.848,1.133-1.293c0.802-0.878,1.544-1.91,2.352-2.973
							c1.537-2.183,3.06-4.702,4.358-7.499c1.265-2.811,2.174-5.61,2.819-8.201c0.275-1.306,0.57-2.542,0.71-3.723
							c0.08-0.588,0.188-1.153,0.237-1.703c0.045-0.548,0.089-1.075,0.131-1.581c0.113-1.007,0.088-1.923,0.113-2.726
							c0.035-0.804,0.01-1.496-0.022-2.062C235.93,108.051,235.922,107.421,235.958,107.417z"/>
					</g>
				</g>
				<g>
					<path style="fill:#263238;" d="M228.5,231.396c-0.017-0.006,0.045-0.239,0.178-0.677c0.123-0.441,0.36-1.072,0.583-1.91
						c0.488-1.662,1.088-4.103,1.512-7.168c0.879-6.087,0.714-14.901-2.675-23.745c-1.688-4.406-3.912-8.347-5.807-11.989
						c-1.907-3.638-3.526-6.99-4.52-9.952c-0.996-2.957-1.466-5.462-1.55-7.205c-0.11-0.866-0.034-1.548-0.051-2.005
						c0.006-0.458,0.018-0.698,0.036-0.697c0.059-0.001,0.041,0.964,0.217,2.683c0.145,1.723,0.665,4.189,1.696,7.102
						c1.029,2.918,2.67,6.229,4.597,9.849c1.915,3.624,4.161,7.57,5.869,12.027c3.428,8.948,3.532,17.865,2.553,23.983
						c-0.474,3.082-1.133,5.524-1.683,7.175c-0.253,0.833-0.522,1.455-0.678,1.885C228.612,231.181,228.517,231.402,228.5,231.396z"
						/>
				</g>
			</g>
			<g>
				<path style="fill:#455A64;" d="M211.575,142.626c-0.023-0.028,0.386-0.421,1.142-1.107c0.382-0.339,0.844-0.757,1.358-1.269
					c0.517-0.507,1.128-1.061,1.748-1.729c1.282-1.295,2.724-2.918,4.235-4.791c1.488-1.891,3.033-4.042,4.49-6.406
					c1.44-2.376,2.65-4.732,3.655-6.919c0.977-2.199,1.764-4.223,2.332-5.954c0.312-0.857,0.526-1.653,0.742-2.345
					c0.22-0.69,0.382-1.293,0.509-1.787c0.265-0.985,0.429-1.528,0.464-1.521c0.035,0.007-0.061,0.565-0.267,1.568
					c-0.098,0.503-0.231,1.116-0.426,1.817c-0.19,0.702-0.381,1.511-0.672,2.38c-0.526,1.757-1.283,3.809-2.244,6.036
					c-0.988,2.215-2.196,4.599-3.648,6.996c-1.47,2.385-3.04,4.547-4.561,6.436c-1.544,1.871-3.025,3.48-4.348,4.75
					c-0.641,0.656-1.273,1.194-1.812,1.683c-0.535,0.493-1.02,0.891-1.423,1.208C212.05,142.313,211.598,142.653,211.575,142.626z"
					/>
			</g>
			<g>
				<path style="fill:#455A64;" d="M204.762,141.292c-0.016,0.002-0.047-0.146-0.069-0.432c-0.015-0.286-0.008-0.713,0.102-1.251
					c0.207-1.07,0.906-2.578,2.332-3.935c1.401-1.386,3.467-2.482,5.576-3.861c2.12-1.381,4.336-3.077,6.478-5.062
					c4.3-3.97,7.382-8.348,9.27-11.674c0.957-1.661,1.635-3.06,2.098-4.028c0.443-0.978,0.705-1.514,0.739-1.501
					s-0.165,0.575-0.553,1.582c-0.408,0.998-1.039,2.43-1.963,4.127c-1.82,3.397-4.889,7.862-9.237,11.876
					c-2.165,2.007-4.416,3.71-6.573,5.084c-2.157,1.376-4.199,2.418-5.584,3.727c-1.405,1.275-2.126,2.695-2.386,3.713
					C204.725,140.684,204.816,141.292,204.762,141.292z"/>
			</g>
			<g>
				<path style="fill:#455A64;" d="M212.914,240.004c-0.01-0.015,0.18-0.188,0.55-0.502c0.182-0.161,0.423-0.341,0.68-0.585
					c0.258-0.255,0.549-0.541,0.871-0.859c1.277-1.317,2.876-3.505,4.073-6.568c1.189-3.057,1.916-6.98,1.734-11.321
					c-0.176-4.346-1.332-9.039-2.909-13.814c-1.588-4.782-3.371-9.257-4.664-13.452c-1.307-4.187-2.116-8.084-2.382-11.4
					c-0.264-3.318-0.024-6.022,0.329-7.844c0.183-0.911,0.346-1.612,0.499-2.078c0.138-0.469,0.218-0.711,0.236-0.706
					c0.06,0.016-0.25,0.996-0.535,2.818c-0.29,1.819-0.47,4.497-0.162,7.778c0.311,3.28,1.149,7.132,2.473,11.289
					c1.311,4.162,3.106,8.629,4.701,13.432c1.584,4.798,2.74,9.541,2.893,13.958c0.158,4.408-0.618,8.386-1.871,11.475
					c-1.26,3.096-2.934,5.287-4.271,6.575c-0.338,0.308-0.642,0.586-0.913,0.833c-0.271,0.234-0.524,0.402-0.718,0.551
					C213.136,239.874,212.925,240.019,212.914,240.004z"/>
			</g>
			<g>
				<path style="fill:#455A64;" d="M203.523,200.814c-0.035-0.009,0.044-0.442,0.216-1.214c0.199-0.877,0.446-1.97,0.74-3.268
					c0.624-2.759,1.44-6.579,2.193-10.826c0.75-4.249,1.295-8.118,1.656-10.923c0.169-1.32,0.312-2.432,0.426-3.324
					c0.104-0.785,0.178-1.218,0.214-1.215c0.036,0.003,0.03,0.442-0.012,1.234c-0.039,0.792-0.128,1.935-0.262,3.346
					c-0.267,2.822-0.756,6.711-1.508,10.973c-0.755,4.26-1.631,8.08-2.348,10.822c-0.358,1.371-0.667,2.476-0.902,3.233
					C203.703,200.409,203.558,200.824,203.523,200.814z"/>
			</g>
		</g>
		<g>
			<g>
				<path style="fill:#E8505B;" d="M219.424,154.533c1.077,7.755-2.948,14.722-8.99,15.562c-4.556,0.633-8.786-2.675-11.137-7.529
					c-0.767-1.584-1.34-3.171-1.753-4.994c-1.73-7.636,2.948-14.722,8.99-15.562C212.576,141.171,218.347,146.777,219.424,154.533z"
					/>
				<path style="fill:#E8505B;" d="M211.822,155.144c1.877,6.901,0.297,13.34-3.53,14.381c-3.827,1.041-8.451-3.71-10.328-10.611
					c-1.877-6.901-0.297-13.34,3.53-14.381C205.32,143.492,209.944,148.243,211.822,155.144z"/>
				<path style="opacity:0.3;" d="M211.822,155.144c1.877,6.901,0.297,13.34-3.53,14.381c-3.827,1.041-8.451-3.71-10.328-10.611
					c-1.877-6.901-0.297-13.34,3.53-14.381C205.32,143.492,209.944,148.243,211.822,155.144z"/>
				<g>
					<path style="fill:#263238;" d="M209.941,142.057c-0.018,0.103-1.08-0.229-2.789-0.042c-1.702,0.165-3.965,1.096-6.104,2.589
						c-2.052,1.61-2.891,4.002-3.322,5.633c-0.421,1.676-0.461,2.764-0.55,2.758c-0.034-0.001-0.058-0.273-0.051-0.766
						c0.014-0.492,0.07-1.206,0.242-2.074c0.174-0.867,0.47-1.89,0.982-2.955c0.521-1.055,1.283-2.158,2.383-3.011
						c2.229-1.559,4.586-2.459,6.388-2.542c0.892-0.05,1.614,0.041,2.095,0.158C209.696,141.921,209.949,142.027,209.941,142.057z"
						/>
				</g>
				<g>
					<path style="fill:#263238;" d="M199.932,145.286c-0.009-0.013,0.087-0.097,0.293-0.224c0.206-0.126,0.532-0.279,0.977-0.403
						c0.869-0.236,2.311-0.367,3.823,0.392c1.481,0.703,3.051,2.05,4.143,3.924c1.162,1.813,2.199,3.973,2.886,6.371
						c0.683,2.393,0.939,4.811,0.663,6.969c-0.247,2.161-1.02,4.026-1.953,5.374c-0.932,1.434-2.355,1.919-3.243,2.027
						c-0.461,0.05-0.824,0.013-1.059-0.05c-0.235-0.061-0.349-0.121-0.344-0.134c0.01-0.055,0.499,0.143,1.373-0.016
						c0.837-0.163,2.149-0.677,2.966-2.031c0.862-1.328,1.569-3.132,1.783-5.225c0.24-2.09-0.019-4.428-0.687-6.771
						c-0.671-2.343-1.673-4.464-2.791-6.258c-1.048-1.843-2.493-3.121-3.904-3.851c-1.389-0.752-2.759-0.691-3.609-0.523
						C200.377,145.036,199.956,145.331,199.932,145.286z"/>
				</g>
			</g>
			<g>
				<path style="fill:#FFFFFF;" d="M217.754,161.68c-0.09-0.026,0.321-1.224,0.507-3.225c0.195-1.987,0.059-4.822-1.04-7.676
					c-1.099-2.855-2.901-5.049-4.378-6.392c-1.481-1.36-2.589-1.972-2.539-2.052c0.016-0.028,0.308,0.094,0.805,0.377
					c0.498,0.281,1.19,0.741,1.978,1.399c1.572,1.3,3.483,3.528,4.62,6.481c1.137,2.951,1.214,5.885,0.919,7.905
					c-0.142,1.016-0.347,1.822-0.528,2.364C217.919,161.403,217.784,161.69,217.754,161.68z"/>
			</g>
		</g>
		<g>
			<path style="fill:#263238;" d="M185.483,161.024c-0.004,0.144-3.52,0.173-7.854,0.065c-4.335-0.108-7.845-0.311-7.842-0.455
				c0.003-0.144,3.52-0.173,7.854-0.065C181.976,160.676,185.487,160.88,185.483,161.024z"/>
		</g>
		<g>
			<path style="fill:#263238;" d="M184.214,167.114c0.078,0.121-1.733,1.439-4.046,2.944c-2.313,1.506-4.252,2.628-4.33,2.508
				c-0.078-0.12,1.733-1.438,4.046-2.944C182.197,168.116,184.135,166.993,184.214,167.114z"/>
		</g>
		<g>
			<path style="fill:#263238;" d="M189.218,168.942c0.131,0.06-1.013,2.852-2.554,6.236c-1.542,3.385-2.897,6.081-3.028,6.021
				c-0.131-0.06,1.012-2.851,2.554-6.237C187.732,171.578,189.088,168.882,189.218,168.942z"/>
		</g>
		<g>
			<path style="fill:#263238;" d="M310.025,119.869c0.018,0.073-1.154,0.417-3.046,0.965c-1.892,0.548-4.503,1.311-7.366,2.217
				c-2.864,0.908-5.438,1.786-7.301,2.427c-1.863,0.641-3.018,1.034-3.045,0.964c-0.025-0.064,1.083-0.578,2.918-1.31
				c1.834-0.732,4.398-1.668,7.272-2.579c2.873-0.909,5.509-1.619,7.429-2.077C308.806,120.02,310.009,119.802,310.025,119.869z"/>
		</g>
		<g>
			<path style="fill:#263238;" d="M292.317,109.548c0.124,0.073-1.346,2.805-3.284,6.101c-1.938,3.298-3.609,5.911-3.733,5.838
				c-0.124-0.073,1.346-2.804,3.284-6.102C290.522,112.089,292.193,109.476,292.317,109.548z"/>
		</g>
		<g>
			<path style="fill:#263238;" d="M302.596,134.734c-0.021,0.142-2.608-0.118-5.778-0.582c-3.171-0.464-5.724-0.955-5.703-1.097
				s2.608,0.118,5.779,0.582C300.064,134.1,302.617,134.592,302.596,134.734z"/>
		</g>
	</g>
</g>
<g id="Desk">
	<g>
		<path style="fill:#263238;" d="M463.687,482.772c0,0.144-95.279,0.26-212.784,0.26c-117.546,0-212.805-0.117-212.805-0.26
			c0-0.144,95.258-0.26,212.805-0.26C368.408,482.512,463.687,482.629,463.687,482.772z"/>
	</g>
</g>
</svg>
