<?xml version="1.0" encoding="utf-8"?>
<!-- Generator: Adobe Illustrator 27.5.0, SVG Export Plug-In . SVG Version: 6.00 Build 0)  -->
<svg version="1.1" xmlns="http://www.w3.org/2000/svg" xmlns:xlink="http://www.w3.org/1999/xlink" x="0px" y="0px"
	 viewBox="0 0 500 500" style="enable-background:new 0 0 500 500;" xml:space="preserve">
<g id="Background_Complete">
	<g id="XMLID_68_">
		<path id="XMLID_74_" style="fill:#EBEBEB;" d="M136.306,126.371L136.306,126.371c-18.921,0-34.259-15.338-34.259-34.259l0,0
			c0-18.921,15.338-34.259,34.259-34.259l0,0c18.921,0,34.259,15.338,34.259,34.259l0,0
			C170.566,111.033,155.227,126.371,136.306,126.371z"/>
		<g id="XMLID_69_">
			<g id="XMLID_71_">
				<rect id="XMLID_73_" x="120.772" y="84.475" style="fill:#FFFFFF;" width="7.09" height="22.906"/>
				<path id="XMLID_72_" style="fill:#FFFFFF;" d="M124.283,81.476c2.316,0,4.193-1.894,4.193-4.228
					c0-2.334-1.877-4.226-4.193-4.226c-2.316,0-4.193,1.893-4.193,4.226C120.09,79.582,121.966,81.476,124.283,81.476z"/>
			</g>
			<path id="XMLID_70_" style="fill:#FFFFFF;" d="M139.196,95.357c0-3.22,1.482-5.139,4.32-5.139c2.607,0,3.86,1.841,3.86,5.139
				c0,3.299,0,12.024,0,12.024h7.057c0,0,0-8.367,0-14.503c0-6.135-3.478-9.102-8.334-9.102c-4.859,0-6.903,3.785-6.903,3.785
				v-3.085h-6.802v22.906h6.802C139.196,107.381,139.196,98.886,139.196,95.357z"/>
		</g>
	</g>
	<polygon style="fill:#F5F5F5;" points="182.22,23.886 186.912,32.464 195.489,37.155 186.912,41.846 182.22,50.424 177.529,41.846 
		168.951,37.155 177.529,32.464 	"/>
	<polygon style="fill:#EBEBEB;" points="377.87,256.273 381.389,262.706 387.822,266.224 381.389,269.743 377.87,276.176 
		374.352,269.743 367.918,266.224 374.352,262.706 	"/>
	<polygon style="fill:#E0E0E0;" points="387.822,224.508 389.409,227.411 392.312,228.998 389.409,230.586 387.822,233.488 
		386.235,230.586 383.332,228.998 386.235,227.411 	"/>
	<polygon style="fill:#E0E0E0;" points="148.714,27.112 150.301,30.015 153.203,31.602 150.301,33.19 148.714,36.092 147.126,33.19 
		144.223,31.602 147.126,30.015 	"/>
	<g>
		<g>
			<path style="fill:#E0E0E0;" d="M69.133,296.758c3.579-1.556,6.091-5.3,6.055-9.674c-0.051-5.729-4.446-10.337-9.819-10.292
				c-5.37,0.044-9.684,4.725-9.634,10.454c0.039,4.414,2.665,8.136,6.323,9.604c-14.938,2.449-14.048,18.707-14.048,18.707
				l35.395-0.295C83.405,315.261,83.999,298.806,69.133,296.758z"/>
		</g>
	</g>
	<g>
		<path style="fill:#EBEBEB;" d="M408.636,403.938c-0.501-2.546-3.013-4.538-5.606-4.444c-2.57,0.093-4.91,2.223-5.26,4.768
			c-0.372-2.542-2.73-4.651-5.301-4.721c-2.594-0.07-5.088,1.943-5.566,4.493c-0.348,1.857,0.289,3.791,1.335,5.365
			c1.045,1.574,2.474,2.85,3.885,4.106c1.978,1.76,3.806,3.415,5.783,5.175c1.962-1.778,3.632-3.448,5.593-5.226
			c1.401-1.269,2.818-2.556,3.849-4.14C408.38,407.731,409,405.792,408.636,403.938z"/>
	</g>
	<g>
		<g>
			<path style="fill:#E0E0E0;" d="M431.688,193.15l3.793-0.752l5.989-13.176l-1.501-7.571c0,0,5.791-1.523,7.067,8.527
				c1.276,10.05,1.522,7.378,1.522,7.378s12.457-2.421,13.706-1.544c0.908,0.636,3.7,12.933,5.16,19.613
				c0.735,3.363-0.713,6.913-3.694,8.333c-0.423,0.203-0.861,0.358-1.304,0.446c-3.104,0.616-19.468,1.237-19.468,1.237
				l-6.551,1.299L431.688,193.15z"/>
		</g>
		<g>
			<polygon style="fill:#E0E0E0;" points="420.418,193.225 427.895,218.703 434.391,217.415 429.35,191.997 			"/>
		</g>
	</g>
</g>
<g id="Background_Simple" style="display:none;">
	<path style="display:inline;fill:#F5F5F5;" d="M469.896,186.177c-2.588-27.477-8.955-52.63-22.483-73.469
		c-13.527-20.839-39.619-31.82-63.713-37.88c-24.095-6.06-44.241-0.343-61.718,17.315c-18.298,18.488-23.864,46.938-28.961,72.446
		c-5.096,25.508-15.048,58.566-35.764,74.296c-23.609,17.927-60.702,8.237-90.006,3.76c-29.304-4.477-61.754-8.79-86.458,7.595
		c-20.264,13.439-30.509,38.991-29.277,63.275c1.232,24.284,8.728,46.735,20.949,67.755c16.839,28.963,66.47,64.171,99.892,53.48
		l144.125-8.12c27.168-12.467,20.956,6.768,65.342-19.049c25.839-15.029,65.681-69.46,77.391-106.905
		C469.488,267.828,473.123,220.442,469.896,186.177z"/>
	<path style="display:inline;fill:#F5F5F5;" d="M182.864,34.82l-9.172-3.809c-36.056-12.219-79.949,8.55-93.367,44.177
		c-13.418,35.627,5.871,80.19,41.03,94.792c35.159,14.601,80.342-3.187,96.111-37.837C233.235,97.491,216.968,51.738,182.864,34.82z
		"/>
</g>
<g id="Floor">
	<g>
		<path style="fill:#263238;" d="M470.469,469.323c0,0.144-99.169,0.26-221.472,0.26c-122.346,0-221.494-0.117-221.494-0.26
			c0-0.144,99.148-0.26,221.494-0.26C371.3,469.063,470.469,469.179,470.469,469.323z"/>
	</g>
</g>
<g id="Icons">
	<g id="XMLID_45_">
		<path id="XMLID_47_" style="fill:#E8505B;" d="M393.433,183.15L393.433,183.15c-20.18,9.814-44.494,1.412-54.309-18.767l0,0
			c-9.815-20.179-1.412-44.494,18.767-54.309l0,0c20.179-9.814,44.494-1.412,54.309,18.767l0,0
			C422.014,149.021,413.612,173.335,393.433,183.15z"/>
		<path id="XMLID_46_" style="fill:#FFFFFF;" d="M365.621,155.693c0.684-0.043,1.087-0.516,0.946-1.229
			c-0.099-0.493-0.363-1.73-0.465-2.249c-0.137-0.708-0.308-0.894-1.034-1.214c-1.579-0.697-2.966-1.919-4.022-4.09
			c-3.064-6.299-1.094-14.23,6.466-17.907c6.693-3.255,12.36-0.954,15.017,4.509c3.495,7.187,3.265,14.799-1.457,17.095
			c-2.608,1.268-5.608,0.061-6.269-2.886c-0.785-3.523-0.992-7.637-2.101-9.917c-0.992-2.04-2.915-3.21-5.182-2.107
			c-2.667,1.297-3.466,5.096-1.67,8.79c1.144,2.353,2.715,3.557,2.715,3.557s2.894,12.886,3.4,15.142
			c1.007,4.494,4.22,9.043,4.532,9.508c0.185,0.277,0.599,0.161,0.662-0.144c0.09-0.441,1.358-5.906,0.531-10.346
			c-0.233-1.258-1.577-7.704-1.577-7.704c1.669,1.231,4.908,1.453,7.598,0.145c8.014-3.898,9.897-13.846,5.141-23.624
			c-3.596-7.394-13.206-11.234-22.725-6.605c-11.843,5.76-13.685,17.155-10.242,24.235
			C357.97,152.942,361.449,155.967,365.621,155.693z"/>
	</g>
	<g id="XMLID_38_">
		<path id="XMLID_44_" style="fill:#E8505B;" d="M434.013,297.755L434.013,297.755c-14.457-5.524-21.699-21.722-16.174-36.179l0,0
			c5.524-14.457,21.722-21.699,36.179-16.174l0,0c14.457,5.524,21.699,21.722,16.175,36.179l0,0
			C464.668,296.038,448.47,303.279,434.013,297.755z"/>
		<g id="XMLID_39_">
			<path id="XMLID_41_" style="fill-rule:evenodd;clip-rule:evenodd;fill:#FFFFFF;" d="M458.644,276.336
				c2.699-7.636-1.212-16.089-8.881-19.019c-7.577-2.895-16.021,0.678-19.196,7.996c-0.085,0.202-0.169,0.404-0.248,0.608
				c-1.011,2.647-1.215,5.397-0.742,7.999l-5.408,6.533l8.756,0.501c1.596,1.88,3.677,3.402,6.145,4.345
				c7.788,2.976,16.49-0.877,19.444-8.605C458.559,276.576,458.605,276.457,458.644,276.336z M439.923,283.069
				c-2.409-0.92-4.374-2.488-5.777-4.438l-5.109-0.288l3.148-3.804c-0.677-2.483-0.605-5.185,0.378-7.759
				c0.146-0.383,0.313-0.758,0.496-1.119c2.856-5.731,9.707-8.461,15.852-6.113c6.224,2.378,9.51,9.117,7.67,15.357
				c-0.09,0.314-0.192,0.622-0.311,0.932C453.791,282.325,446.457,285.566,439.923,283.069z"/>
			<path id="XMLID_40_" style="fill-rule:evenodd;clip-rule:evenodd;fill:#FFFFFF;" d="M449.799,276.602
				c-0.284-0.305-1.663-1.785-1.937-2.018c-0.272-0.24-0.483-0.381-0.845-0.126c-0.362,0.255-1.324,0.772-1.608,0.921
				c-0.293,0.153-0.501,0.104-0.785-0.202c-0.278-0.303-1.257-1.085-2.128-2.765c-0.677-1.295-0.948-2.684-1.015-3.103
				c-0.067-0.419,0.182-0.535,0.419-0.641c0.219-0.098,0.497-0.271,0.751-0.401c0.069-0.042,0.129-0.08,0.188-0.117
				c0.127-0.095,0.232-0.191,0.374-0.326c0.207-0.185,0.223-0.406,0.203-0.61c-0.02-0.204-0.068-2.159-0.096-2.956
				c-0.022-0.795-0.357-0.787-0.562-0.865c-0.198-0.076-0.416-0.197-0.647-0.285c-0.231-0.088-0.64-0.146-1.088,0.076
				c-0.448,0.222-1.657,0.713-2.302,2.403c-0.151,0.396-0.23,0.82-0.268,1.236c-0.112,1.341,0.26,2.625,0.326,2.848
				c0.086,0.29,0.937,4.714,3.921,7.435c2.995,2.71,3.169,2.255,3.826,2.438c0.654,0.189,2.361-0.043,2.952-0.74
				c0.596-0.687,0.858-1.374,0.827-1.552C450.275,277.079,450.076,276.905,449.799,276.602z"/>
		</g>
	</g>
	<g id="XMLID_24_">
		<path id="XMLID_26_" style="fill:#E8505B;" d="M69.631,168.241L69.631,168.241c-11.801,0-21.368-9.567-21.368-21.369l0,0
			c0-11.801,9.567-21.368,21.368-21.368l0,0c11.801,0,21.368,9.567,21.368,21.368l0,0C91,158.674,81.433,168.241,69.631,168.241z"/>
		<path id="XMLID_25_" style="fill:#FFFFFF;" d="M58.246,154.026c2.068,1.326,4.523,2.099,7.161,2.099
			c8.674,0,13.574-7.326,13.279-13.897c0.912-0.658,1.705-1.481,2.331-2.418c-0.838,0.371-1.739,0.623-2.683,0.735
			c0.964-0.577,1.705-1.493,2.054-2.584c-0.903,0.535-1.903,0.925-2.966,1.134c-0.853-0.908-2.066-1.475-3.411-1.475
			c-3.015,0-5.231,2.814-4.55,5.736c-3.883-0.195-7.325-2.055-9.629-4.881c-1.224,2.1-0.635,4.847,1.446,6.238
			c-0.766-0.024-1.487-0.235-2.117-0.585c-0.05,2.165,1.5,4.189,3.747,4.64c-0.658,0.179-1.378,0.219-2.109,0.079
			c0.593,1.857,2.319,3.206,4.363,3.245C63.199,153.631,60.724,154.318,58.246,154.026z"/>
	</g>
	<g id="XMLID_4_">
		<path id="XMLID_21_" style="fill:#455A64;" d="M108.032,407.613L108.032,407.613c-19.773,4.71-39.62-7.5-44.331-27.273l0,0
			c-4.71-19.773,7.5-39.62,27.272-44.331h0c19.773-4.71,39.62,7.5,44.33,27.273l0,0
			C140.015,383.056,127.805,402.903,108.032,407.613z"/>
		<g id="XMLID_5_">
			<path id="XMLID_14_" style="fill:#FFFFFF;" d="M95.669,355.718c5.242-1.249,5.867-1.376,7.959-1.775
				c1.935-0.368,3.05-0.296,3.807-0.192c1.001,0.138,1.756,0.407,2.607,0.931c0.851,0.523,1.432,1.076,2.006,1.907
				c0.434,0.628,1.001,1.591,1.545,3.485c0.587,2.047,0.756,2.663,2.004,7.905c1.249,5.241,1.376,5.867,1.775,7.959
				c0.368,1.935,0.296,3.05,0.192,3.806c-0.138,1.001-0.408,1.756-0.931,2.607c-0.523,0.851-1.076,1.432-1.907,2.006
				c-0.628,0.434-1.591,1.001-3.484,1.545c-2.047,0.587-2.663,0.755-7.905,2.003c-5.242,1.249-5.867,1.377-7.959,1.776
				c-1.935,0.369-3.05,0.296-3.806,0.192c-1.001-0.138-1.756-0.407-2.607-0.93c-0.85-0.524-1.431-1.076-2.006-1.907
				c-0.433-0.628-1.001-1.591-1.544-3.484c-0.587-2.048-0.755-2.664-2.004-7.905c-1.249-5.242-1.377-5.867-1.775-7.959
				c-0.369-1.935-0.296-3.051-0.192-3.807c0.138-1.001,0.408-1.756,0.931-2.606c0.524-0.851,1.076-1.432,1.908-2.006
				c0.628-0.434,1.591-1.001,3.484-1.545C89.811,357.135,90.428,356.967,95.669,355.718 M94.827,352.182
				c-5.331,1.27-5.994,1.452-8.066,2.046c-2.067,0.593-3.414,1.265-4.547,2.048c-1.171,0.809-2.106,1.741-2.938,3.092
				c-0.832,1.351-1.242,2.607-1.435,4.017c-0.188,1.364-0.18,2.87,0.222,4.982c0.403,2.117,0.54,2.791,1.81,8.122
				c1.27,5.331,1.452,5.994,2.046,8.065c0.593,2.067,1.265,3.414,2.048,4.547c0.808,1.171,1.741,2.106,3.092,2.938
				c1.351,0.831,2.606,1.242,4.016,1.436c1.364,0.188,2.87,0.18,4.982-0.223c2.117-0.403,2.791-0.54,8.122-1.81
				c5.331-1.27,5.994-1.452,8.065-2.046c2.067-0.593,3.414-1.265,4.548-2.048c1.172-0.809,2.106-1.741,2.938-3.092
				c0.831-1.352,1.242-2.606,1.436-4.016c0.187-1.365,0.18-2.87-0.223-4.982c-0.404-2.116-0.541-2.79-1.811-8.121
				c-1.27-5.331-1.452-5.994-2.046-8.066c-0.593-2.066-1.265-3.414-2.048-4.547c-0.809-1.171-1.741-2.107-3.093-2.938
				c-1.351-0.831-2.606-1.242-4.016-1.436c-1.364-0.187-2.87-0.18-4.982,0.223C100.831,350.775,100.158,350.912,94.827,352.182"/>
			<path id="XMLID_8_" style="fill:#FFFFFF;" d="M97.102,361.732c-5.567,1.326-9.005,6.915-7.679,12.482
				c1.326,5.567,6.915,9.005,12.482,7.679c5.567-1.326,9.005-6.914,7.679-12.481C108.257,363.843,102.669,360.405,97.102,361.732
				 M101.062,378.355c-3.614,0.861-7.241-1.371-8.102-4.984c-0.861-3.614,1.371-7.241,4.985-8.102
				c3.614-0.861,7.241,1.37,8.102,4.985C106.907,373.867,104.676,377.495,101.062,378.355"/>
			<path id="XMLID_7_" style="fill:#FFFFFF;" d="M109.841,358.276c0.31,1.301-0.493,2.607-1.794,2.917
				c-1.302,0.31-2.608-0.494-2.917-1.794c-0.31-1.301,0.493-2.607,1.795-2.917C108.225,356.171,109.531,356.975,109.841,358.276"/>
		</g>
	</g>
	<g id="XMLID_1_">
		<path id="XMLID_3_" style="fill:#455A64;" d="M386.807,375.222L386.807,375.222c-9.479,0-17.163-7.684-17.163-17.163l0,0
			c0-9.479,7.684-17.163,17.163-17.163l0,0c9.479,0,17.163,7.684,17.163,17.163l0,0C403.97,367.537,396.286,375.222,386.807,375.222
			z"/>
		<path id="XMLID_2_" style="fill:#FFFFFF;" d="M384.191,368.433h4.178V357.97h2.915l0.311-3.503h-3.226c0,0,0-1.308,0-1.995
			c0-0.826,0.166-1.152,0.965-1.152c0.643,0,2.261,0,2.261,0v-3.636c0,0-2.384,0-2.893,0c-3.109,0-4.511,1.369-4.511,3.99
			c0,2.283,0,2.793,0,2.793h-2.173v3.547h2.173V368.433z"/>
	</g>
</g>
<g id="Device">
	<g>
		<g>
			<g>
				<g>
					<g>
						<g>
							<g>
								<g>
									<path style="fill:#263238;" d="M328.27,470.046l-137.887-0.082c-16.584-0.009-30.022-13.458-30.018-30.041l0.068-345.685
										c0.003-16.593,13.46-30.04,30.053-30.031l137.887,0.081c16.584,0.01,30.021,13.458,30.018,30.042l-0.068,345.686
										C358.321,456.609,344.864,470.056,328.27,470.046z"/>
								</g>
							</g>
						</g>
						<g>
							<g>
								<g>
									<path style="fill:#FFFFFF;" d="M328.227,76.515L301.493,76.5c-3.585-0.002-6.493,3.035-6.492,6.782l-0.002,4.849
										c0,3.748-2.908,6.785-6.492,6.783l-52.11-0.031c-3.585-0.002-6.491-3.042-6.49-6.79l0.001-4.849
										c0-3.748-2.906-6.788-6.491-6.79l-9.402-0.006l-23.399-0.013c-11.621-0.006-21.045,9.411-21.048,21.032l-0.066,337.414
										c-0.002,11.616,9.409,21.034,21.023,21.041l137.612,0.08c11.62,0.007,21.045-9.41,21.048-21.031l0.066-337.415
										C349.252,85.94,339.842,76.522,328.227,76.515z"/>
								</g>
							</g>
						</g>
					</g>
				</g>
				<g>
					<g>
						<g>
							<g>
								<path style="fill:#263238;" d="M330.24,103.927c0.001,0.09-3.476,0.193-7.764,0.228c-4.29,0.035-7.767-0.009-7.767-0.1
									c-0.001-0.09,3.475-0.192,7.765-0.228C326.762,103.792,330.24,103.836,330.24,103.927z"/>
							</g>
						</g>
					</g>
					<g>
						<g>
							<g>
								<path style="fill:#263238;" d="M330.273,107.901c0.001,0.09-3.476,0.193-7.764,0.228c-4.29,0.035-7.767-0.009-7.767-0.1
									c-0.001-0.09,3.475-0.192,7.765-0.228C326.795,107.766,330.272,107.81,330.273,107.901z"/>
							</g>
						</g>
					</g>
					<g>
						<g>
							<g>
								<path style="fill:#263238;" d="M330.306,111.874c0.001,0.09-3.476,0.193-7.764,0.228c-4.29,0.035-7.767-0.009-7.767-0.1
									c-0.001-0.09,3.475-0.192,7.765-0.228C326.828,111.739,330.305,111.784,330.306,111.874z"/>
							</g>
						</g>
					</g>
				</g>
				<g>
					<g>
						<g>
							<path style="fill:#263238;" d="M184.019,115.75c0.008-0.008,0.147-0.016,0.407-0.027c0.321-0.011,0.692-0.023,1.132-0.037
								c1.068-0.025,2.465-0.059,4.179-0.1l-0.116,0.118c-0.015-0.927-0.031-1.939-0.049-3.03c0.006-0.563-0.048-1.095,0.007-1.745
								c0.113-0.649,0.691-1.222,1.402-1.288c0.674-0.013,1.267-0.044,1.997-0.01c0.753,0.092,1.393,0.816,1.371,1.614
								c0.016,1.413,0.033,2.889,0.05,4.42l-0.194-0.191c1.693-0.017,3.456-0.035,5.272-0.054l-0.2,0.204
								c-0.019-2.123-0.038-4.319-0.059-6.569c-0.005-0.561-0.01-1.119-0.014-1.673c-0.002-0.516-0.316-0.861-0.741-1.246
								c-0.78-0.769-1.549-1.527-2.305-2.272c-0.755-0.745-1.497-1.477-2.223-2.194c-0.363-0.358-0.722-0.713-1.077-1.064
								c-0.37-0.357-0.661-0.726-1.09-0.814c-0.416-0.112-0.875-0.023-1.21,0.231c-0.319,0.27-0.66,0.652-0.981,0.965
								c-0.649,0.655-1.28,1.292-1.892,1.908c-1.19,1.236-2.429,2.365-3.33,3.432c-0.38,0.59-0.238,1.311-0.265,1.968
								c-0.001,0.653-0.003,1.273-0.004,1.858c-0.007,1.139-0.013,2.137-0.018,2.992c-0.009,0.765-0.016,1.396-0.021,1.914
								C184.037,115.502,184.029,115.74,184.019,115.75c-0.01,0.01-0.022-0.208-0.036-0.634c-0.014-0.509-0.032-1.131-0.053-1.884
								c-0.02-0.862-0.042-1.868-0.068-3.017c-0.011-0.596-0.023-1.228-0.035-1.894c-0.005-0.337-0.01-0.683-0.016-1.037
								c-0.003-0.374,0.094-0.761,0.291-1.103c0.975-1.195,2.139-2.253,3.338-3.525c0.607-0.622,1.233-1.263,1.877-1.923
								c0.338-0.332,0.615-0.662,1.017-1.008c0.422-0.324,1.001-0.44,1.529-0.301c0.561,0.124,0.926,0.584,1.266,0.905
								c0.357,0.349,0.717,0.703,1.082,1.06c0.729,0.715,1.473,1.444,2.23,2.187c0.757,0.744,1.528,1.5,2.309,2.267
								c0.185,0.196,0.408,0.362,0.589,0.638c0.171,0.263,0.268,0.573,0.276,0.889c0.005,0.557,0.01,1.117,0.015,1.681
								c0.017,2.25,0.034,4.446,0.05,6.569l0.002,0.203l-0.202,0.001c-1.817,0.012-3.579,0.023-5.272,0.034l-0.193,0.001
								l-0.001-0.192c-0.008-1.531-0.016-3.007-0.023-4.42c0.022-0.637-0.473-1.199-1.065-1.28
								c-0.606-0.032-1.322-0.011-1.912-0.006c-0.567,0.047-1.04,0.502-1.137,1.025c-0.051,0.53-0.012,1.148-0.023,1.685
								c0,1.092,0.001,2.104,0.001,3.031l0,0.119l-0.116-0.001c-1.743-0.012-3.163-0.022-4.249-0.03
								c-0.43-0.007-0.793-0.014-1.107-0.019C184.136,115.764,184.012,115.758,184.019,115.75z"/>
						</g>
					</g>
				</g>
				<g>
					<g>
						<g>
							<g>
								<path style="fill:#455A64;" d="M274.98,379.406c0,0.036-0.514,0.07-1.445,0.101c-1.029,0.022-2.352,0.049-3.94,0.083
									c-3.327,0.047-7.923,0.076-12.999,0.076c-5.078,0-9.674-0.029-13.001-0.076c-1.588-0.033-2.911-0.061-3.94-0.083
									c-0.93-0.031-1.445-0.066-1.445-0.101c0-0.036,0.514-0.07,1.445-0.101c1.028-0.021,2.352-0.049,3.94-0.083
									c3.327-0.047,7.923-0.076,13.001-0.076c5.076,0,9.672,0.029,12.999,0.076c1.588,0.033,2.912,0.061,3.94,0.083
									C274.465,379.336,274.98,379.37,274.98,379.406z"/>
							</g>
							<g>
								<path style="fill:#455A64;" d="M332.771,388.452c0,0.144-21.17,0.26-47.278,0.26c-26.117,0-47.282-0.117-47.282-0.26
									c0-0.144,21.165-0.26,47.282-0.26C311.602,388.192,332.771,388.308,332.771,388.452z"/>
							</g>
							<g>
								<path style="fill:#455A64;" d="M303.221,396.962c0,0.144-14.554,0.26-32.503,0.26c-17.956,0-32.507-0.117-32.507-0.26
									s14.551-0.26,32.507-0.26C288.667,396.701,303.221,396.818,303.221,396.962z"/>
							</g>
						</g>
					</g>
					<g>
						<path style="fill:#263238;" d="M334.64,413.526l-2.938-2.947l-2.797,2.79l0.013-8.435l5.735,0.009L334.64,413.526z
							 M331.703,410.212l0.092,0.091l2.586,2.595l0.012-7.697l-5.216-0.008l-0.012,7.549L331.703,410.212z"/>
					</g>
					<g>
						<path style="fill:#263238;" d="M256.408,412.429l-1.037-0.462c-0.501,0.271-0.94,0.405-1.342,0.408
							c-1.588,0.013-2.89-1.269-2.903-2.856c-0.013-1.588,1.269-2.89,2.857-2.903c1.588-0.013,2.89,1.269,2.903,2.856
							c0.006,0.707-0.249,1.386-0.717,1.92L256.408,412.429z M253.985,406.813c-1.479,0.012-2.673,1.225-2.661,2.704
							c0.012,1.479,1.225,2.673,2.704,2.661c0.38-0.003,0.802-0.137,1.292-0.407l0.043-0.024l0.764,0.341l-0.173-0.751l0.035-0.038
							c0.457-0.502,0.706-1.15,0.7-1.824C256.677,407.995,255.464,406.801,253.985,406.813z"/>
					</g>
					<g>
						<path style="fill:#263238;" d="M263.074,411.984l-1.188-2.9l-2.228-2.03l5.405-0.043L263.074,411.984z M260.162,407.247
							l1.898,1.742l1.012,2.47l1.698-4.249L260.162,407.247z"/>
					</g>
					<g>
						
							<rect x="261.776" y="407.952" transform="matrix(0.8382 -0.5454 0.5454 0.8382 -179.9127 209.7816)" style="fill:#263238;" width="3.516" height="0.197"/>
					</g>
					<g>
						<path style="fill:#E8505B;" d="M247.904,407.659c-0.155-0.772-0.919-1.374-1.706-1.342c-0.78,0.031-1.487,0.68-1.591,1.453
							c-0.116-0.771-0.834-1.408-1.614-1.427c-0.787-0.019-1.542,0.595-1.684,1.37c-0.104,0.564,0.092,1.15,0.411,1.627
							c0.319,0.477,0.754,0.862,1.183,1.242c0.602,0.532,1.158,1.032,1.761,1.564c0.593-0.542,1.098-1.05,1.691-1.592
							c0.424-0.387,0.852-0.779,1.163-1.26C247.83,408.81,248.016,408.221,247.904,407.659z"/>
					</g>
					<g>
						<path style="fill:#263238;" d="M340.662,420.988c0,0-0.012-0.324-0.018-0.941c-0.004-0.626-0.01-1.539-0.018-2.736
							c-0.01-2.413-0.024-5.961-0.042-10.558c-0.022-9.191-0.054-22.562-0.094-39.334l0.171,0.172
							c-38.476,0.021-95.909,0.053-159.916,0.089h-0.01l0.26-0.26c-0.003,18.617-0.006,36.676-0.008,53.569l-0.252-0.252
							c46.036,0.047,85.982,0.088,114.433,0.117c14.236,0.03,25.594,0.054,33.406,0.071c3.901,0.014,6.913,0.025,8.964,0.033
							c1.015,0.007,1.79,0.012,2.324,0.016C340.386,420.977,340.662,420.988,340.662,420.988s-0.254,0.011-0.768,0.016
							c-0.527,0.004-1.291,0.009-2.293,0.016c-2.038,0.007-5.033,0.018-8.911,0.032c-7.798,0.017-19.136,0.041-33.348,0.071
							c-28.494,0.029-68.501,0.07-114.607,0.117l-0.252,0v-0.252c-0.003-16.893-0.006-34.952-0.008-53.569v-0.26h0.26h0.01
							c64.008,0.036,121.44,0.067,159.916,0.089h0.172l0,0.172c-0.04,16.816-0.072,30.222-0.094,39.437
							c-0.018,4.58-0.033,8.116-0.042,10.52c-0.008,1.184-0.014,2.086-0.018,2.706C340.673,420.687,340.662,420.988,340.662,420.988
							z"/>
					</g>
					<g>
						<g>
							<g>
								<g>
									
										<rect x="191.727" y="372.053" transform="matrix(0.0057 -1 1 0.0057 -185.9514 601.3948)" style="fill:#EBEBEB;" width="35.416" height="44.3"/>
									<g>
										<path style="fill:#263238;" d="M231.685,376.621c-0.005,0.005-0.079,0.009-0.222,0.012
											c-0.163,0.003-0.368,0.006-0.628,0.01c-0.575,0.003-1.382,0.008-2.419,0.014c-2.13,0.002-5.201,0.006-9.083,0.01
											c-7.791-0.016-18.832-0.038-31.949-0.065l0.234-0.232c-0.052,10.545-0.111,22.626-0.174,35.412
											c0.054,0.063-0.485-0.493-0.251-0.258l0.012,0l0.024,0l0.048,0l0.096,0.001l0.192,0.001l0.384,0.002l0.766,0.004
											l1.527,0.009c1.016,0.006,2.027,0.012,3.032,0.018c2.011,0.012,4.002,0.024,5.968,0.036
											c3.933,0.025,7.772,0.05,11.494,0.074c7.441,0.054,14.415,0.104,20.747,0.15l-0.218,0.215
											c0.107-10.635,0.196-19.457,0.258-25.651c0.041-3.081,0.074-5.506,0.097-7.191c0.015-0.813,0.027-1.447,0.036-1.904
											C231.668,376.856,231.685,376.621,231.685,376.621s0.015,0.204,0.02,0.622c0.003,0.447,0.008,1.068,0.014,1.863
											c0.004,1.674,0.009,4.083,0.015,7.143c-0.008,6.227-0.02,15.097-0.034,25.788l0,0.216l-0.217-0.001
											c-6.331-0.026-13.306-0.055-20.747-0.086c-3.722-0.018-7.561-0.037-11.494-0.057c-1.967-0.01-3.957-0.021-5.968-0.032
											c-1.006-0.005-2.017-0.011-3.032-0.017l-1.527-0.009l-0.766-0.004l-0.384-0.002l-0.192-0.001l-0.096,0l-0.048,0l-0.024,0
											l-0.012,0c0.228,0.233-0.325-0.317-0.267-0.266c0.083-12.786,0.161-24.867,0.229-35.412l0.001-0.234l0.233,0.002
											c13.178,0.123,24.271,0.226,32.099,0.299c3.859,0.048,6.912,0.087,9.03,0.113c1.017,0.018,1.808,0.031,2.372,0.041
											c0.249,0.007,0.446,0.013,0.602,0.017C231.624,376.611,231.69,376.616,231.685,376.621z"/>
									</g>
								</g>
							</g>
						</g>
						
							<rect x="193.927" y="373.609" transform="matrix(0.0057 -1 1 0.0057 -185.9805 601.3647)" style="fill:#E0E0E0;" width="30.957" height="41.187"/>
						<polygon style="fill:#F5F5F5;" points="188.725,409.564 203.219,390.403 212.062,402.493 218.143,396.091 229.911,409.798 
													"/>
						<g>
							<g>
								<path style="fill:#F5F5F5;" d="M215.927,388.118c-0.01,1.791-1.47,3.235-3.261,3.225c-1.791-0.01-3.235-1.47-3.225-3.261
									c0.01-1.791,1.47-3.235,3.261-3.224C214.493,384.867,215.937,386.327,215.927,388.118z"/>
							</g>
						</g>
					</g>
				</g>
				<g>
					<g>
						<g>
							<g>
								<g>
									<path style="fill:#263238;" d="M262.087,146.872c0,0.018-0.163,0.036-0.473,0.053c-0.371,0.013-0.818,0.029-1.356,0.049
										c-1.262,0.021-2.946,0.049-4.989,0.083c-4.213,0.047-10.033,0.076-16.46,0.076c-6.43,0-12.25-0.029-16.463-0.076
										c-2.043-0.034-3.727-0.062-4.989-0.083c-0.538-0.019-0.985-0.036-1.356-0.049c-0.31-0.017-0.473-0.035-0.473-0.053
										c0-0.018,0.163-0.036,0.473-0.053c0.371-0.013,0.818-0.029,1.356-0.049c1.261-0.021,2.946-0.049,4.989-0.083
										c4.213-0.047,10.033-0.076,16.463-0.076c6.428,0,12.247,0.029,16.46,0.076c2.043,0.034,3.728,0.062,4.989,0.083
										c0.538,0.019,0.985,0.035,1.356,0.049C261.924,146.837,262.087,146.854,262.087,146.872z"/>
								</g>
							</g>
						</g>
						<g>
							<g>
								<path style="fill:#263238;" d="M327.532,342.653l-4.366-4.379l-4.157,4.146l0.019-12.535l8.523,0.013L327.532,342.653z
									 M323.168,337.729l0.137,0.136l3.844,3.857l0.018-11.439l-7.752-0.012l-0.017,11.219L323.168,337.729z"/>
							</g>
							<g>
								<path style="fill:#263238;" d="M216.674,341.334l-2.041-0.91c-0.986,0.534-1.851,0.797-2.642,0.804
									c-3.126,0.025-5.689-2.497-5.714-5.622c-0.025-3.125,2.497-5.688,5.623-5.713c3.125-0.025,5.688,2.497,5.713,5.622
									c0.011,1.392-0.489,2.729-1.411,3.78L216.674,341.334z M211.903,330.28c-2.912,0.023-5.261,2.411-5.238,5.322
									c0.023,2.911,2.411,5.261,5.323,5.237c0.748-0.006,1.579-0.269,2.543-0.801l0.085-0.048l1.504,0.672l-0.341-1.479
									l0.069-0.075c0.899-0.988,1.389-2.264,1.378-3.591C217.202,332.606,214.815,330.257,211.903,330.28z"/>
							</g>
							<g>
								<path style="fill:#263238;" d="M229.794,340.459l-2.339-5.709l-4.386-3.997l10.638-0.086L229.794,340.459z M224.062,331.133
									l3.736,3.429l1.992,4.862l3.342-8.364L224.062,331.133z"/>
							</g>
							<g>
								
									<rect x="227.24" y="332.522" transform="matrix(0.8382 -0.5453 0.5453 0.8382 -144.1201 179.6392)" style="fill:#263238;" width="6.92" height="0.389"/>
							</g>
							<g>
								<path style="fill:#E8505B;" d="M199.933,331.945c-0.305-1.52-1.809-2.704-3.358-2.642c-1.535,0.061-2.928,1.338-3.131,2.859
									c-0.227-1.517-1.641-2.772-3.176-2.809c-1.549-0.036-3.035,1.172-3.315,2.696c-0.204,1.11,0.181,2.264,0.809,3.202
									c0.628,0.938,1.484,1.697,2.329,2.444c1.185,1.047,2.28,2.031,3.465,3.079c1.168-1.066,2.162-2.067,3.329-3.133
									c0.834-0.761,1.677-1.533,2.29-2.481C199.789,334.212,200.155,333.052,199.933,331.945z"/>
							</g>
						</g>
						<circle style="fill:#EBEBEB;" cx="198.963" cy="146.872" r="7.216"/>
					</g>
					<g>
						<g>
							<path style="fill:#455A64;" d="M324.807,301.255c0,0.144-30.26,0.26-67.579,0.26c-37.332,0-67.585-0.117-67.585-0.26
								s30.253-0.26,67.585-0.26C294.547,300.994,324.807,301.111,324.807,301.255z"/>
						</g>
						<g>
							<path style="fill:#455A64;" d="M324.807,289.999c0,0.144-30.26,0.26-67.579,0.26c-37.332,0-67.585-0.117-67.585-0.26
								s30.253-0.26,67.585-0.26C294.547,289.739,324.807,289.855,324.807,289.999z"/>
						</g>
						<g>
							<path style="fill:#455A64;" d="M263.214,312.66c0,0.144-16.471,0.26-36.784,0.26c-20.32,0-36.787-0.117-36.787-0.26
								s16.467-0.26,36.787-0.26C246.743,312.4,263.214,312.517,263.214,312.66z"/>
						</g>
					</g>
				</g>
				<g>
					<g>
						<path style="fill:#263238;" d="M254.135,435.29c-0.007,1.609-1.298,2.907-2.884,2.9c-1.586-0.008-2.866-1.319-2.859-2.927
							c0.007-1.608,1.298-2.908,2.884-2.9C252.862,432.37,254.142,433.68,254.135,435.29z"/>
					</g>
					<g>
						<path style="fill:#263238;" d="M263.033,435.331c-0.007,1.608-1.298,2.906-2.884,2.9c-1.586-0.007-2.866-1.317-2.859-2.927
							c0.006-1.608,1.298-2.907,2.884-2.9C261.76,432.411,263.04,433.721,263.033,435.331z"/>
					</g>
					<g>
						<path style="fill:#263238;" d="M271.931,435.372c-0.006,1.608-1.298,2.908-2.884,2.9c-1.586-0.007-2.866-1.317-2.859-2.927
							c0.007-1.609,1.298-2.907,2.884-2.9C270.658,432.452,271.938,433.762,271.931,435.372z"/>
					</g>
				</g>
			</g>
			<g>
				<rect x="181.694" y="161.154" style="fill:#E0E0E0;" width="159.927" height="97.804"/>
				<polygon style="fill:#F5F5F5;" points="196.457,258.975 242.285,197.637 270.696,235.997 289.951,215.48 327.718,258.937 				
					"/>
				<g>
					<g>
						<path style="fill:#F5F5F5;" d="M282.738,190.113c0.002,5.708-4.624,10.337-10.332,10.338
							c-5.708,0.002-10.336-4.624-10.338-10.332c-0.002-5.708,4.624-10.336,10.332-10.338
							C278.108,179.779,282.736,184.405,282.738,190.113z"/>
					</g>
				</g>
			</g>
			<g>
				<path style="fill:#263238;" d="M341.19,349.853c-0.002-2.092-0.097-90.445-0.236-221.24l0.236,0.236
					c-48.228,0.007-102.592,0.016-159.908,0.024h-0.018l0.26-0.26c-0.018,82.738-0.035,159.31-0.049,221.24l-0.212-0.212
					C278.245,349.77,339.445,349.851,341.19,349.853c-1.744,0.002-62.944,0.083-159.926,0.212l-0.212,0l0-0.212
					c-0.014-61.929-0.03-138.501-0.049-221.24l0-0.26h0.26h0.018c57.316,0.009,111.68,0.017,159.908,0.024l0.236,0l0,0.236
					c-0.048,65.462-0.089,120.796-0.117,159.772c-0.027,19.46-0.049,34.835-0.063,45.353c-0.012,5.244-0.022,9.276-0.028,12.003
					c-0.006,1.353-0.011,2.381-0.014,3.079C341.199,349.509,341.19,349.853,341.19,349.853z"/>
			</g>
		</g>
	</g>
</g>
<g id="Megaphone">
	<g>
		<g>
			<g>
				<g>
					<path style="fill:#FFBE9D;" d="M266.043,377.297l3.538-11.888c0.617-2.578,1.437-5.619,2.54-9.089
						c0.992-3.119,3.535-6.396,5.856-8.756c3.611-3.672,5.329-3.698,7.756-5.647c0.221-0.142,0.468-0.345,0.676-0.457
						c0.502-0.272,0.871-0.633,1.18-1.021c2.092-2.263,0.083-5.765-4.165-5.432c-3.198,0.251-8.414,1.166-16.896,9.916
						c-0.105,0.133-0.217,0.244-0.321,0.38c-4.451,5.786-8.632-10.732-9.386-16.88c-0.489-3.989-4.804-6.441-8.709-4.997
						l-20.661,9.663c-1.706-0.601-3.732-0.499-6.032,0.204c-3.042,1.125-4.731,4.253-3.936,7.288l8.38,33.451l-24.612,81.893h53.048
						L266.043,377.297z"/>
				</g>
				<g>
					<g>
						<g>
							<g>
								<path style="fill:#E8505B;" d="M306.796,302.084l-16.398,32.133l-8.199-2.278l-41.216,33.526
									c-3.507,2.853-8.648,2.396-11.597-1.031L213.694,346.2c0,0,31.642-13.63,37.494-24.913
									c5.852-11.283-0.911-13.842-0.911-13.842l14.892-16.923L306.796,302.084z"/>
							</g>
						</g>
						<g>
							<path style="fill:#E8505B;" d="M285.527,236.443c0,0-24.004-5.309-57.782-37.792c-33.778-32.482-49.65-75.618-53.785-75.407
								c-4.135,0.21-22.188-8.172-56.524,66.52c-34.336,74.691-20.811,92.036-13.978,91.896c6.833-0.141,53.227-13.069,82.205-9.776
								c28.978,3.295,66.225,18.397,66.225,18.397L285.527,236.443z"/>
						</g>
						<g>
							<path style="fill:#E8505B;" d="M336.52,277.155l-8.189,15.57l-3.669,6.975c-5.031,9.567-16.67,13.521-26.488,8.999
								l-51.449-17.926l29.963-68.404l51.402,27.393C337.957,255.019,341.724,267.259,336.52,277.155z"/>
						</g>
						<g style="opacity:0.4;">
							<path d="M336.52,277.155l-8.189,15.57l-3.669,6.975c-5.031,9.567-16.67,13.521-26.488,8.999l-51.449-17.926l29.963-68.404
								l51.402,27.393C337.957,255.019,341.724,267.259,336.52,277.155z"/>
						</g>
						<g>
							<path style="fill:#E8505B;" d="M120.209,191.124c-18.274,40.461-25.881,76.516-16.99,80.531
								c8.89,4.016,30.911-25.53,49.185-65.991c18.273-40.46,25.88-76.515,16.99-80.53
								C160.504,121.119,138.484,150.663,120.209,191.124z"/>
						</g>
						<g style="opacity:0.5;">
							<path d="M120.209,191.124c-18.274,40.461-25.881,76.516-16.99,80.531c8.89,4.016,30.911-25.53,49.185-65.991
								c18.273-40.46,25.88-76.515,16.99-80.53C160.504,121.119,138.484,150.663,120.209,191.124z"/>
						</g>
					</g>
					<g>
						<polygon style="fill:#E8505B;" points="340.936,299.652 326.991,295.273 335.62,278.865 346.078,285.366 						"/>
					</g>
					<g style="opacity:0.6;">
						<polygon points="335.62,278.865 326.991,295.273 329.856,296.174 336.872,279.643 						"/>
					</g>
					<g>
						<path style="fill:#E8505B;" d="M326.012,282.65c-0.205,0.451-7.164-2.254-15.543-6.042
							c-8.386-3.788-15.012-7.224-14.808-7.675c0.203-0.45,7.161,2.255,15.544,6.043C319.586,278.764,326.214,282.2,326.012,282.65z
							"/>
					</g>
					<g>
						<path style="fill:#E8505B;" d="M330.3,272.878c-0.22,0.445-6.517-2.21-14.067-5.927c-7.553-3.72-13.495-7.093-13.276-7.538
							c0.218-0.443,6.513,2.211,14.067,5.931C324.574,269.061,330.518,272.434,330.3,272.878z"/>
					</g>
					<g>
						<path style="fill:#E8505B;" d="M320.602,292.9c-0.074,0.238-1.73-0.144-4.373-0.961c-1.32-0.407-2.884-0.924-4.615-1.523
							c-1.719-0.623-3.504-1.525-5.416-2.392c-7.629-3.541-13.454-7.008-13.264-7.419c0.226-0.486,6.453,2.285,14.011,5.792
							c1.896,0.859,3.654,1.805,5.312,2.498c1.665,0.672,3.158,1.301,4.404,1.854C319.155,291.856,320.674,292.663,320.602,292.9z"
							/>
					</g>
					<g>
						<path style="fill:#E8505B;" d="M157.465,182.126c0,0-20.863-12.937-32.278,15.25c-11.414,28.187,10.536,32.822,10.536,32.822
							C144.706,216.268,152.003,200.305,157.465,182.126z"/>
					</g>
					<g style="opacity:0.5;">
						<path d="M179.653,148.533c0.122,0.021-0.175,1.935-0.817,5.385c-0.66,3.444-1.593,8.444-2.931,14.583
							c-0.882,3.023-1.846,6.325-2.88,9.864c-0.523,1.774-1.065,3.606-1.621,5.494c-0.28,0.945-0.564,1.902-0.852,2.872
							c-0.312,0.963-0.718,1.907-1.081,2.88c-1.503,3.879-3.079,7.946-4.713,12.162c-0.41,1.054-0.824,2.117-1.242,3.189
							c-0.406,1.077-0.979,2.09-1.466,3.151c-1.02,2.102-2.054,4.236-3.101,6.394c-1.05,2.158-2.088,4.29-3.111,6.392
							c-0.532,1.039-0.976,2.117-1.57,3.103c-0.585,0.991-1.165,1.975-1.74,2.949c-2.304,3.891-4.528,7.646-6.648,11.226
							c-0.542,0.887-1.032,1.79-1.597,2.631c-0.586,0.828-1.164,1.645-1.735,2.45c-1.141,1.607-2.25,3.168-3.322,4.678
							c-2.146,3.003-4.148,5.805-5.981,8.37c-3.989,4.834-7.335,8.647-9.633,11.293c-2.312,2.635-3.636,4.055-3.731,3.976
							c-0.095-0.078,1.047-1.648,3.193-4.419c2.226-2.823,5.352-6.786,9.191-11.653c1.765-2.585,3.691-5.409,5.757-8.436
							c1.038-1.513,2.112-3.077,3.218-4.686c0.554-0.804,1.116-1.621,1.686-2.447c0.549-0.84,1.027-1.746,1.555-2.632
							c2.077-3.573,4.256-7.32,6.514-11.203c0.567-0.971,1.137-1.949,1.714-2.936c0.587-0.981,1.023-2.052,1.549-3.087
							c1.012-2.088,2.04-4.207,3.079-6.351c1.042-2.142,2.072-4.259,3.087-6.345c0.487-1.052,1.061-2.057,1.467-3.125
							c0.419-1.062,0.835-2.116,1.248-3.16c1.656-4.174,3.255-8.202,4.778-12.042c0.371-0.963,0.786-1.897,1.108-2.849
							c0.298-0.96,0.592-1.908,0.883-2.842c0.582-1.866,1.148-3.68,1.696-5.433c1.103-3.498,2.131-6.762,3.075-9.75
							c1.45-6.014,2.63-10.91,3.471-14.398C179.003,150.384,179.532,148.512,179.653,148.533z"/>
					</g>
				</g>
				<g style="opacity:0.4;">
					<path d="M218.693,343.961c1.903,3.455,3.845,6.964,6.662,9.725c2.816,2.761,6.684,4.717,10.609,4.322
						c3.924-0.395,7.643-3.655,7.685-7.599c1.884,1.415,4.77,0.648,6.331-1.117c1.56-1.765,2.067-4.219,2.254-6.568
						c2.558,1.509,6.116,0.312,7.823-2.118c1.707-2.43,1.813-5.704,0.986-8.557c-0.827-2.852-2.479-5.383-4.107-7.867
						c1.97,0.159,4.056,0.297,5.819-0.596c1.763-0.893,2.952-3.224,1.924-4.912c-0.603-0.991-1.761-1.483-2.868-1.829
						c-3.087-0.966-5.253-1.74-8.467-1.367c-0.746,0.007,1.286,8.476-18.884,20.058
						C222.552,342.376,218.693,343.961,218.693,343.961z"/>
				</g>
			</g>
			<g>
				<path style="fill:#EB996E;" d="M264.113,356.197c-0.013,0.093-1.356-0.164-3.533-0.106c-2.164,0.049-5.189,0.524-8.176,1.957
					c-2.989,1.432-5.253,3.494-6.647,5.15c-1.409,1.66-2.049,2.868-2.13,2.82c-0.029-0.015,0.101-0.332,0.395-0.875
					c0.293-0.544,0.769-1.304,1.45-2.178c1.345-1.747,3.632-3.914,6.707-5.387c3.073-1.474,6.194-1.901,8.398-1.855
					c1.108,0.017,1.999,0.121,2.606,0.234C263.791,356.067,264.119,356.165,264.113,356.197z"/>
			</g>
			<path style="fill:#FFBE9D;" d="M220.008,338.59c3.249,3.121,5.471,6.566,8.879,9.709c1.549,1.428,3.954,4.134,6.03,4.494
				c2.076,0.36,3.406,0.084,4.227-1.856c0.665-1.571-0.529-3.718-1.355-5.013c-2.171-3.406-4.247-6.068-5.873-8.716
				c-0.761-1.24,0.225-1.496,0.584-0.922c1.564,1.621,3.897,3.026,5.297,4.791c1.918,2.417,2.266,5.617,7.285,4.605
				c0.663-0.134,1.326-0.363,1.863-0.774c1.889-1.446,1.969-3.96,1.173-5.974c-0.623-1.578-1.717-2.917-2.794-4.227
				c2.136,2.412,4.468,4.952,7.864,5.226c1.975,0.159,3.958-0.76,4.756-2.574c1.005-2.282-0.436-4.488-1.882-6.272
				c-2.563-3.162-5.423-6.083-8.529-8.713c-1.156-0.979-2.63-1.527-4.146-1.537c-1.757-0.011-3.956,0.319-5.041,1.847
				c-1.971,2.774-1.364,5.227-1.364,5.227s-4.406-2.234-7.946,0.103c-3.54,2.336-4.416,6.352-4.416,6.352L220.008,338.59z"/>
			<path style="fill:#FFBE9D;" d="M243.453,319.87c-1.364-1.373-1.682-3.885-0.624-5.959c0.749-1.469,1.695-2.896,2.653-3.219
				c4.191-1.414,22.502,1.754,22.335,5.818c-0.172,4.173-1.504,6.01-11.442,4.575c-1.748-0.252-4.491-0.597-4.491-0.597l-2.398,3.6
				L243.453,319.87z"/>
		</g>
		<g>
			<path style="fill:#EB996E;" d="M246.732,336.887c-0.145,0.089-1.539-2.754-4.384-5.303c-2.816-2.583-5.781-3.692-5.707-3.845
				c0.021-0.057,0.786,0.14,1.939,0.683c1.151,0.539,2.67,1.467,4.118,2.776c1.443,1.312,2.515,2.733,3.165,3.826
				C246.516,336.118,246.788,336.861,246.732,336.887z"/>
		</g>
		<g>
			<path style="fill:#EB996E;" d="M249.814,324.399c-0.091,0.085-1.3-0.901-2.949-1.91c-0.82-0.505-1.581-0.929-2.149-1.184
				c-0.566-0.266-0.941-0.339-0.939-0.417c-0.004-0.067,0.43-0.121,1.066,0.071c0.636,0.18,1.454,0.569,2.296,1.087
				C248.829,323.079,249.936,324.289,249.814,324.399z"/>
		</g>
		<g>
			<path style="fill:#EB996E;" d="M252.888,320.621c-0.012,0.11-1.606,0.156-3.527-0.397c-0.954-0.292-1.759-0.752-2.257-1.182
				c-0.503-0.428-0.712-0.786-0.663-0.828c0.096-0.089,1.234,0.993,3.073,1.513C251.331,320.253,252.915,320.448,252.888,320.621z"
				/>
		</g>
		<g>
			<path style="fill:#EB996E;" d="M235.091,341.918c-0.059,0.042-0.707-0.784-1.67-2.17c-0.983-1.353-2.234-3.373-4.274-4.858
				c-2.041-1.487-4.444-1.84-6.054-1.604c-1.643,0.229-2.5,0.907-2.551,0.811c-0.017-0.023,0.175-0.21,0.584-0.462
				c0.405-0.259,1.057-0.542,1.907-0.712c1.684-0.346,4.251-0.034,6.417,1.544c2.156,1.576,3.371,3.676,4.278,5.078
				C234.613,340.983,235.149,341.877,235.091,341.918z"/>
		</g>
		<g>
			<path style="fill:#EB996E;" d="M249.1,382.418c0.016,0.143-3.336,0.625-7.484,1.076c-4.15,0.451-7.526,0.701-7.541,0.558
				c-0.016-0.143,3.335-0.625,7.485-1.076C245.708,382.525,249.084,382.275,249.1,382.418z"/>
		</g>
	</g>
</g>
<g id="Stars">
	<g>
		<polygon style="fill:#E8505B;" points="406.632,49.844 407.76,51.908 409.824,53.036 407.76,54.166 406.632,56.229 
			405.503,54.166 403.438,53.036 405.503,51.908 		"/>
		<polygon style="fill:#E8505B;" points="430.236,101.014 431.365,103.078 433.429,104.207 431.365,105.336 430.236,107.4 
			429.108,105.336 427.043,104.207 429.108,103.078 		"/>
		<polygon style="fill:#E8505B;" points="51.903,237.533 53.032,239.598 55.096,240.727 53.032,241.855 51.903,243.919 
			50.775,241.855 48.711,240.727 50.775,239.598 		"/>
		<polygon style="fill:#E8505B;" points="375.662,62.562 378.269,67.328 383.035,69.935 378.269,72.542 375.662,77.309 
			373.055,72.542 368.289,69.935 373.055,67.328 		"/>
		<polygon style="fill:#E8505B;" points="73.061,205.097 75.662,209.853 80.418,212.454 75.662,215.055 73.061,219.811 
			70.46,215.055 65.704,212.454 70.46,209.853 		"/>
		<polygon style="fill:#E8505B;" points="436.658,318.565 439.259,323.321 444.015,325.922 439.259,328.524 436.658,333.28 
			434.057,328.524 429.301,325.922 434.057,323.321 		"/>
	</g>
</g>
</svg>
