<?xml version="1.0" encoding="utf-8"?>
<!-- Generator: Adobe Illustrator 27.5.0, SVG Export Plug-In . SVG Version: 6.00 Build 0)  -->
<svg version="1.1" xmlns="http://www.w3.org/2000/svg" xmlns:xlink="http://www.w3.org/1999/xlink" x="0px" y="0px"
	 viewBox="0 0 3710 3710" style="enable-background:new 0 0 3710 3710;" xml:space="preserve">
<g id="Background">
	<g>
		<g>
			<rect style="fill:#FFFFFF;" width="3710" height="3710"/>
		</g>
	</g>
</g>
<g id="Illustration">
	<g>
		<path style="fill:#F4F7FA;" d="M1041.722,555.198c-96.454,140.604,16.64,368.557-126.481,474.304
			c-139.318,102.936-310.466-65.79-441.764,22.817c-194.773,131.443-159.204,732.9,125.565,1106.598
			c85.64,112.384,157.197,156.111,188.889,283.211c68.053,272.917-171.118,435.265-125.604,570.246
			c102.481,303.927,1678.564,558.957,2310.959-354.443c295.354-426.596,339.546-1042.603,75.656-1510.463
			C2572.097,302.049,1258.149,239.708,1041.722,555.198z"/>
		<g>
			
				<linearGradient id="SVGID_1_" gradientUnits="userSpaceOnUse" x1="451.7156" y1="1006.6347" x2="2435.4668" y2="1006.6347" gradientTransform="matrix(0.9992 0.0401 -0.0401 0.9992 140.5537 689.5381)">
				<stop  offset="0" style="stop-color:#AA80F9"/>
				<stop  offset="0.9964" style="stop-color:#6165D7"/>
			</linearGradient>
			<path style="fill:url(#SVGID_1_);" d="M2088.851,3067.666c78.013-23.554,209.348-63.208,304.936-183.87
				c173.781-219.369,116.597-564.092-4.207-783.583c-103.764-188.533-296.267-311.296-681.271-556.827
				c-362.597-231.243-486.512-258.032-517.177-398.797c-43.718-200.677,163.894-349.274,77.79-575.734
				c-10.333-27.175-45.82-120.51-130.934-155.814c-145.699-60.436-334.564,91.594-423.061,203.865
				c-85.362,108.295-177.495,306.662-109.077,467.394c49.57,116.454,141.307,114.222,160.456,221.266
				c19.267,107.701-67.788,142.445-108.529,319.499c-16.276,70.733-48.946,212.714,13.331,335.123
				c80.525,158.277,246.895,140.554,276.837,272.077c21.634,95.029-58.151,135.353-56.678,245.32
				c1.938,144.771,142.576,251.28,260.795,338.35C1291.27,2918.467,1666.837,3195.081,2088.851,3067.666z"/>
			<path style="opacity:0.16;fill:#FFFFFF;" d="M1081.996,474.364c77.426,57.65-159.426,295.604-105.217,621.461
				c58.326,350.606,418.027,589.084,584.256,699.292c283.613,188.034,408.011,154.121,587.763,361.496
				c71.143,82.075,219.356,253.064,194.774,482.924c-2.284,21.356-31.297,259.066-218.771,365.963
				c-212.645,121.252-467.481-17.988-687.063-137.96c-132.682-72.496-397.734-217.311-373.435-366.289
				c14.854-91.071,134.418-162.726,231.448-181.435c138.49-26.707,250.046,50.783,263.23,27.287
				c11.875-21.163-67.208-104.389-177.299-167.71c-220.203-126.653-339.329-44.173-502.131-160.658
				c-19.734-14.118-174.465-128.26-172.208-294.653c1.3-95.967,54.857-211.81,132.973-228.877
				c88.348-19.302,169.98,96.075,190.936,77.919c20.039-17.36-42.422-133.395-120.904-239.06
				c-115.316-155.256-169.133-158.752-210.562-256.035c-63.208-148.423-5.737-299.491,2.835-321.09
				C782.955,554.556,1015.799,425.075,1081.996,474.364z"/>
		</g>
		<g>
			
				<linearGradient id="SVGID_00000166677003277815978530000007490020850937143977_" gradientUnits="userSpaceOnUse" x1="1703.4537" y1="2190.9214" x2="2674.8691" y2="641.2832" gradientTransform="matrix(0.9593 -0.2824 0.2824 0.9593 -27.8481 841.6242)">
				<stop  offset="0.0036" style="stop-color:#E38DDD"/>
				<stop  offset="1" style="stop-color:#9571F6"/>
			</linearGradient>
			<path style="fill:url(#SVGID_00000166677003277815978530000007490020850937143977_);" d="M2256.618,3045.189
				c51.292,11.115,137.642,29.827,229.176-8.25c166.413-69.226,241.936-281.218,242.498-442.569
				c0.484-138.594-69.556-267.881-209.633-526.459c-131.925-243.529-193.333-297.338-166.613-386.189
				c38.092-126.668,201.44-145.469,223.722-299.901c2.672-18.532,11.856-82.18-25.041-128.659
				c-63.161-79.564-217.025-52.972-301.944-17.404c-81.911,34.308-195.783,117.222-207.484,229.114
				c-8.477,81.069,43.88,108.48,21.212,174.743c-22.807,66.67-82.687,59.031-160.958,146.003
				c-31.269,34.745-94.036,104.489-97.218,192.882c-4.115,114.294,95.11,156.304,70.87,239.724
				c-17.513,60.274-75.044,58.048-108.579,120.434c-44.149,82.13,1.764,186.057,41.127,272.031
				C1854.105,2711.93,1979.155,2985.062,2256.618,3045.189z"/>
			<path style="opacity:0.16;fill:#FFFFFF;" d="M2500.033,1270.197c25.585,56.66-182.153,116.642-253.455,317.08
				c-76.718,215.662,51.314,462.361,110.483,576.368c100.949,194.515,181.599,214.291,218.017,387.242
				c14.414,68.45,44.443,211.054-41.231,332.813c-7.959,11.313-98.582,136.106-237.557,137.717
				c-157.637,1.829-257.629-156.216-343.791-292.394c-52.062-82.287-156.064-246.664-95.826-322.964
				c36.824-46.643,126.545-49.63,187.032-29.844c86.333,28.238,124.938,106.736,139.704,97.624
				c13.3-8.207-5.225-79.787-47.432-149.847c-84.423-140.134-177.281-130.915-232.557-247.385
				c-6.701-14.117-58.165-126.746-4.897-219.741c30.721-53.635,97.082-102.133,146.404-87.332
				c55.783,16.739,65.696,107.22,83.171,103.545c16.709-3.514,17.797-88.375,6.622-172.403
				c-16.421-123.464-45.633-142.25-38.563-209.979c10.788-103.333,90.36-170.443,101.937-179.927
				C2306.576,1221.906,2478.159,1221.755,2500.033,1270.197z"/>
		</g>
		<g>
			
				<linearGradient id="SVGID_00000069360682566462853760000006424357054226308748_" gradientUnits="userSpaceOnUse" x1="192.6864" y1="-127.0049" x2="925.6999" y2="-1296.3352" gradientTransform="matrix(0.4225 -0.9063 0.9063 0.4225 1226.4425 3076.1191)">
				<stop  offset="0.0036" style="stop-color:#E38DDD"/>
				<stop  offset="1" style="stop-color:#9571F6"/>
			</linearGradient>
			<path style="fill:url(#SVGID_00000069360682566462853760000006424357054226308748_);" d="M1538.442,3120.752
				c31.884-23.486,85.559-63.024,109.679-133.833c43.849-128.733-38.458-277.254-129.504-358.08
				c-78.205-69.426-186.329-94.291-402.58-144.024c-203.665-46.839-264.762-38.93-301.72-98.386
				c-52.689-84.762,18.172-186.6-58.121-276.267c-9.155-10.759-40.599-47.715-85.317-50.022
				c-76.548-3.949-138.268,96.408-160.507,162.22c-21.451,63.481-31.338,169.304,26.156,231.757
				c41.656,45.248,83.295,29.29,109.491,75.183c26.356,46.174-7.845,76.256,2.329,163.953
				c4.064,35.035,12.223,105.361,60.666,151.267c62.638,59.357,135.926,24.155,171.048,79.498
				c25.377,39.987-4.587,71.439,13.991,121.548c24.458,65.968,106.191,91.836,174.494,112.453
				C1148.975,3182.299,1365.966,3247.799,1538.442,3120.752z"/>
			<path style="opacity:0.16;fill:#FFFFFF;" d="M655.226,2097.334c44.836,13.789-24.866,161.3,53.008,301.668
				c83.789,151.029,287.306,201.653,381.358,225.047c160.467,39.916,211.902,4.135,327.965,69.816
				c45.936,25.995,141.634,80.152,167.804,189.396c2.431,10.149,27.85,123.709-40.581,203.175
				c-77.619,90.137-216.966,67.876-337.035,48.698c-72.552-11.59-217.485-34.74-230.615-106.906
				c-8.027-44.115,35.049-96.389,76.429-120.753c59.06-34.776,122.752-17.459,124.963-30.364
				c1.991-11.623-47.767-36.853-108.482-47.92c-121.441-22.136-162.555,35.023-256.059,8.196
				c-11.334-3.251-100.762-30.319-126.82-106.869c-15.029-44.15-9.369-105.909,23.618-126.441
				c37.307-23.222,93.468,16.313,100.106,4.588c6.348-11.211-41.141-54.168-94.278-89.769
				c-78.076-52.309-103.285-45.148-138.092-82.944c-53.105-57.665-51.388-136.188-50.979-147.473
				C531.366,2182.738,616.893,2085.545,655.226,2097.334z"/>
		</g>
		<g>
			<g>
				
					<linearGradient id="SVGID_00000034775802952061329960000000670342119634755483_" gradientUnits="userSpaceOnUse" x1="1522.8196" y1="3061.6414" x2="1923.6841" y2="1776.5179">
					<stop  offset="0" style="stop-color:#311944"/>
					<stop  offset="1" style="stop-color:#893976"/>
				</linearGradient>
				<path style="fill:url(#SVGID_00000034775802952061329960000000670342119634755483_);" d="M706.162,3191.183
					c-42.945,1.473-86.24-10.458-121.473-36.692c-78.043-58.095-86.44-163.679-18.64-235.087l780.347-834.266
					c32.419-34.13,79.281-52.918,128.348-51.579c48.847,1.333,95.089,22.484,126.851,57.903l331.766,369.958l733.845-796.367
					c56.391-62.008,154.064-65.777,218.069-9.052c63.615,56.377,70.411,151.729,15.27,213.589l-845.608,930.142
					c-30.443,34.152-74.763,54.096-121.576,54.594c-47.019,0.5-91.919-18.661-122.98-52.607l-335.637-366.797L844.725,3129.55
					C808.634,3168.363,757.65,3189.416,706.162,3191.183z"/>
				<g>
					
						<linearGradient id="SVGID_00000026149385291046238120000008414923214481169333_" gradientUnits="userSpaceOnUse" x1="2374.021" y1="3179.1589" x2="2744" y2="1993.0504">
						<stop  offset="0" style="stop-color:#311944"/>
						<stop  offset="1" style="stop-color:#893976"/>
					</linearGradient>
					<polygon style="fill:url(#SVGID_00000026149385291046238120000008414923214481169333_);" points="3002.365,1945.942 
						2590.805,1584.921 3123.615,1406.024 3160.822,1406.024 3040.535,1941.65 					"/>
				</g>
			</g>
			<g>
				
					<linearGradient id="SVGID_00000112615922150848819930000014246166666868667837_" gradientUnits="userSpaceOnUse" x1="1560.0262" y1="3061.6414" x2="1960.8906" y2="1776.5179">
					<stop  offset="0" style="stop-color:#FCB148"/>
					<stop  offset="0.0521" style="stop-color:#FDBA46"/>
					<stop  offset="0.1424" style="stop-color:#FFC244"/>
					<stop  offset="0.3183" style="stop-color:#FFC444"/>
					<stop  offset="0.4849" style="stop-color:#FDB946"/>
					<stop  offset="0.7754" style="stop-color:#F99C4D"/>
					<stop  offset="0.8658" style="stop-color:#F8924F"/>
					<stop  offset="1" style="stop-color:#F8924F"/>
				</linearGradient>
				<path style="fill:url(#SVGID_00000112615922150848819930000014246166666868667837_);" d="M743.368,3191.183
					c-42.944,1.473-86.239-10.458-121.473-36.692c-78.043-58.095-86.441-163.679-18.641-235.087l780.347-834.266
					c32.42-34.13,79.28-52.918,128.347-51.579c48.847,1.333,95.09,22.484,126.851,57.903l331.766,369.958l733.845-796.367
					c56.391-62.008,154.065-65.777,218.069-9.052c63.615,56.377,70.411,151.729,15.27,213.589l-845.607,930.142
					c-30.444,34.152-74.764,54.096-121.576,54.594c-47.019,0.5-91.919-18.661-122.98-52.607l-335.637-366.797L881.932,3129.55
					C845.841,3168.363,794.857,3189.416,743.368,3191.183z"/>
				<g>
					
						<linearGradient id="SVGID_00000169516780924793185300000002159875239775996336_" gradientUnits="userSpaceOnUse" x1="2402.4456" y1="3148.2744" x2="2765.1387" y2="1985.5236">
						<stop  offset="0" style="stop-color:#FCB148"/>
						<stop  offset="0.0521" style="stop-color:#FDBA46"/>
						<stop  offset="0.1424" style="stop-color:#FFC244"/>
						<stop  offset="0.3183" style="stop-color:#FFC444"/>
						<stop  offset="0.4849" style="stop-color:#FDB946"/>
						<stop  offset="0.7754" style="stop-color:#F99C4D"/>
						<stop  offset="0.8658" style="stop-color:#F8924F"/>
						<stop  offset="1" style="stop-color:#F8924F"/>
					</linearGradient>
					<polygon style="fill:url(#SVGID_00000169516780924793185300000002159875239775996336_);" points="3039.571,1945.942 
						2628.011,1584.921 3160.822,1406.024 					"/>
				</g>
			</g>
		</g>
		<g>
			<g>
				
					<linearGradient id="SVGID_00000031909312516568922100000013867720619657181592_" gradientUnits="userSpaceOnUse" x1="1305.3259" y1="2461.478" x2="1366.0393" y2="2461.478" gradientTransform="matrix(0.9858 -0.1678 0.1678 0.9858 0.9801 -81.3323)">
					<stop  offset="0.0036" style="stop-color:#F36F56"/>
					<stop  offset="1" style="stop-color:#FFC444"/>
				</linearGradient>
				<path style="fill:url(#SVGID_00000031909312516568922100000013867720619657181592_);" d="M1710.243,2085.129l-4.412,70.55
					c0,0,10.018,10.612,29.29,3.225l21.052-69.278L1710.243,2085.129z"/>
				
					<linearGradient id="SVGID_00000003807111834818123630000013016727274153677189_" gradientUnits="userSpaceOnUse" x1="1422.6608" y1="2211.3174" x2="1263.4557" y2="2769.8857" gradientTransform="matrix(0.9858 -0.1678 0.1678 0.9858 0.9801 -81.3323)">
					<stop  offset="0" style="stop-color:#444B8C"/>
					<stop  offset="0.9964" style="stop-color:#26264F"/>
				</linearGradient>
				<path style="fill:url(#SVGID_00000003807111834818123630000013016727274153677189_);" d="M1719.074,2137.001
					c0,0-34.553,14.093-27.845,29.375c3.601,8.206,16.064,26.741,26.835,42.147c9.968,14.258,27.974,20.57,44.64,15.576
					c5.593-1.675,11.314-3.314,16.377-4.62c10.474-2.7,11.087-17.342,0.886-20.938c-4.946-1.743-9.846-3.154-14.112-3.813
					c-12.65-1.952-30.055-31.836-32.092-43.806C1731.724,2138.953,1719.074,2137.001,1719.074,2137.001z"/>
				
					<linearGradient id="SVGID_00000075151000183405126940000010898423807207373953_" gradientUnits="userSpaceOnUse" x1="1892.0537" y1="1602.152" x2="1377.243" y2="2025.0328">
					<stop  offset="0.0036" style="stop-color:#26264F"/>
					<stop  offset="1" style="stop-color:#444B8C"/>
				</linearGradient>
				<path style="fill:url(#SVGID_00000075151000183405126940000010898423807207373953_);" d="M1636.021,1407.988
					c50.894,17.563,239.098,88.704,281.018,251.882c2.238,8.711,7.978,32.936,8.238,72.502
					c1.083,164.703-94.695,304.095-164.35,385.185c-21.96-0.366-43.92-0.734-65.88-1.101c-10.96-42.036-21.031-104.909-5.27-175.654
					c24.09-108.124,86.586-136.168,74.534-189.238c-21.885-96.373-245.666-81.792-266.752-168.089
					C1489.941,1552.303,1506.679,1499.404,1636.021,1407.988z"/>
				
					<linearGradient id="SVGID_00000075130331916540427100000017977127625036410280_" gradientUnits="userSpaceOnUse" x1="1417.3074" y1="1599.1503" x2="1276.4214" y2="2093.4463" gradientTransform="matrix(0.9956 0.0937 -0.0937 0.9956 20.029 69.0563)">
					<stop  offset="0" style="stop-color:#444B8C"/>
					<stop  offset="0.9964" style="stop-color:#26264F"/>
				</linearGradient>
				<path style="fill:url(#SVGID_00000075130331916540427100000017977127625036410280_);" d="M1006.534,2394.042l95.563-2.228
					c5.889-0.136,8.418-7.479,3.907-11.268c-4.446-3.734-10.59-6.791-18.442-5.974c-18.166,1.888-58.943-23.533-77.444-18.079
					c-6.043,1.782-10.954,16-13.471,19.93C991.706,2384.143,997.371,2394.256,1006.534,2394.042z"/>
				
					<linearGradient id="SVGID_00000013176201851454380630000002342266064381199273_" gradientUnits="userSpaceOnUse" x1="1200.0669" y1="2167.3533" x2="1271.6998" y2="2167.3533" gradientTransform="matrix(0.9956 0.0937 -0.0937 0.9956 20.029 69.0563)">
					<stop  offset="0.0036" style="stop-color:#F36F56"/>
					<stop  offset="1" style="stop-color:#FFC444"/>
				</linearGradient>
				<path style="fill:url(#SVGID_00000013176201851454380630000002342266064381199273_);" d="M1049.468,2320.624l-39.35,35.87
					c0,0,13.738,10.264,33.781,5.865l40.221-27.682L1049.468,2320.624z"/>
				<g style="opacity:0.3;">
					
						<linearGradient id="SVGID_00000052065268954718151230000015155841583478274480_" gradientUnits="userSpaceOnUse" x1="1754.1421" y1="2372.9629" x2="1163.1785" y2="2054.5437" gradientTransform="matrix(0.9858 -0.1678 0.1678 0.9858 0.9801 -81.3323)">
						<stop  offset="0" style="stop-color:#AB316D"/>
						<stop  offset="1" style="stop-color:#792D3D"/>
					</linearGradient>
					<path style="fill:url(#SVGID_00000052065268954718151230000015155841583478274480_);" d="M1804.853,1832.937
						c26.395-71.262,58.046-159.129,21.897-209.018c-36.583-50.488-116.732-7.873-197.133-48.555
						c-29.824-15.091-60.472-42.095-85.97-90.969c-45.138,46.599-51.27,77.875-46.088,99.081
						c21.086,86.297,244.867,71.716,266.752,168.089c12.052,53.07-50.444,81.115-74.534,189.238
						c-13.55,60.819-7.997,115.781,0.788,156.727c7.832-38.024,20-77.959,38.606-118.268
						C1758.015,1916.774,1777.047,1908.009,1804.853,1832.937z"/>
				</g>
				
					<linearGradient id="SVGID_00000161609518237806624780000014799483500761180806_" gradientUnits="userSpaceOnUse" x1="891.6641" y1="2112.2834" x2="321.0809" y2="2704.8115" gradientTransform="matrix(0.9542 -0.2992 0.2992 0.9542 -14.04 -148.0025)">
					<stop  offset="0.0036" style="stop-color:#26264F"/>
					<stop  offset="1" style="stop-color:#444B8C"/>
				</linearGradient>
				<path style="fill:url(#SVGID_00000161609518237806624780000014799483500761180806_);" d="M1665.177,1387.409
					c-30.98,142.218-96.985,359.379-248.212,586.056c-111.956,167.812-234.949,287.374-331.42,367.255
					c-6.862,2.052-18.561,4.57-32.901,2.811c-10.657-1.309-19.109-4.529-24.792-7.24c6.646-40.093,20.66-99.322,53.896-163.292
					c60.817-117.06,114.974-113.3,176.06-216.614c44.728-75.649,59.272-156.012,88.359-316.736
					c22.46-124.107,22.475-153.771,53.229-189.357C1461.577,1378.341,1578.334,1377.528,1665.177,1387.409z"/>
				<g style="opacity:0.3;">
					
						<linearGradient id="SVGID_00000052807782612211312700000005646124170377517992_" gradientUnits="userSpaceOnUse" x1="848.7457" y1="2095.6069" x2="290.0133" y2="2675.8286" gradientTransform="matrix(0.9542 -0.2992 0.2992 0.9542 -14.04 -148.0025)">
						<stop  offset="0" style="stop-color:#AB316D"/>
						<stop  offset="1" style="stop-color:#792D3D"/>
					</linearGradient>
					<path style="fill:url(#SVGID_00000052807782612211312700000005646124170377517992_);" d="M1105.064,2199.469
						c21.706-34.255,60.216-69.928,136.179-140.297c78.507-72.724,75.489-59.577,90.941-81.067
						c69.182-96.218,31.721-199.03,48.824-323.107c9.544-69.224,40.11-159.685,129.102-261.012
						c-41.707,7.691-81.639,24.228-110.714,56.304c-35.698,39.384-33.067,77.951-53.229,189.357
						c-29.087,160.724-43.631,241.087-88.359,316.736c-61.085,103.314-115.241,99.554-176.06,216.614
						c-33.236,63.97-47.251,123.199-53.896,163.292c5.683,2.711,14.135,5.932,24.792,7.24c8.451,1.036,15.948,0.572,22.115-0.39
						C1069.743,2261.8,1094.052,2216.847,1105.064,2199.469z"/>
				</g>
			</g>
			<g>
				
					<linearGradient id="SVGID_00000152257458259872218420000009875973599683517617_" gradientUnits="userSpaceOnUse" x1="1224.5209" y1="1035.4326" x2="1752.8804" y2="1035.4326">
					<stop  offset="0" style="stop-color:#FF9085"/>
					<stop  offset="0.6291" style="stop-color:#FC7BA7"/>
					<stop  offset="1" style="stop-color:#FB6FBB"/>
				</linearGradient>
				<path style="fill:url(#SVGID_00000152257458259872218420000009875973599683517617_);" d="M1752.88,844.114
					c-62.572-9.269-273.091-33.706-422.539,77.479c-35.35,26.299-122.094,90.832-103.147,167.331
					c18.262,73.734,129.913,139.207,277.017,146.708c12.131-10.121,24.26-20.24,36.391-30.361
					c-77.017-24.535-123.777-72.844-119.141-112.031c4.052-34.252,46.443-53.64,67.705-63.367
					c72.464-33.141,151.377-15.624,178.197-8.548C1695.869,962.254,1724.375,903.185,1752.88,844.114z"/>
				
					<linearGradient id="SVGID_00000175290318011632848920000018073555697351641766_" gradientUnits="userSpaceOnUse" x1="2327.3035" y1="714.1183" x2="2448.4136" y2="714.1183" gradientTransform="matrix(0.9787 0.2052 -0.2052 0.9787 126.7305 -588.6435)">
					<stop  offset="0.0036" style="stop-color:#26264F"/>
					<stop  offset="1" style="stop-color:#444B8C"/>
				</linearGradient>
				<path style="fill:url(#SVGID_00000175290318011632848920000018073555697351641766_);" d="M2366.734,581.342
					c14.915,39.074,4.824,79.216-22.538,89.66c-27.362,10.444-61.634-12.764-76.549-51.838
					c-14.915-39.074-4.823-79.216,22.538-89.66C2317.547,519.059,2351.82,542.268,2366.734,581.342z"/>
				
					<linearGradient id="SVGID_00000051372733337240167810000016103025848644088707_" gradientUnits="userSpaceOnUse" x1="2093.8247" y1="809.0682" x2="2424.9543" y2="809.0682" gradientTransform="matrix(0.9787 0.2052 -0.2052 0.9787 126.7305 -588.6435)">
					<stop  offset="0.0036" style="stop-color:#26264F"/>
					<stop  offset="1" style="stop-color:#444B8C"/>
				</linearGradient>
				<path style="fill:url(#SVGID_00000051372733337240167810000016103025848644088707_);" d="M1985.007,751.744l291.862-195.794
					c3.801-2.55,8.567-3.162,12.867-1.594c18.594,6.78,66.298,30.642,55.172,94.431c-0.925,5.301-4.727,9.696-9.855,11.327
					l-337.71,107.391L1985.007,751.744z"/>
				
					<linearGradient id="SVGID_00000013193850111935183650000017398346474754317753_" gradientUnits="userSpaceOnUse" x1="2089.9255" y1="936.358" x2="2113.5813" y2="936.358" gradientTransform="matrix(0.9787 0.2052 -0.2052 0.9787 126.7305 -588.6435)">
					<stop  offset="0.0036" style="stop-color:#26264F"/>
					<stop  offset="1" style="stop-color:#444B8C"/>
				</linearGradient>
				<path style="fill:url(#SVGID_00000013193850111935183650000017398346474754317753_);" d="M2001.253,755.356
					c2.914,7.632,0.942,15.473-4.402,17.513c-5.345,2.04-12.038-2.493-14.952-10.125c-2.913-7.632-0.942-15.473,4.402-17.513
					C1991.646,743.191,1998.34,747.724,2001.253,755.356z"/>
				
					<linearGradient id="SVGID_00000171708290580335995540000004761741146567217537_" gradientUnits="userSpaceOnUse" x1="2278.147" y1="834.0319" x2="2340.5803" y2="834.0319" gradientTransform="matrix(0.9787 0.2052 -0.2052 0.9787 126.7305 -588.6435)">
					<stop  offset="0" style="stop-color:#FFC444"/>
					<stop  offset="0.9964" style="stop-color:#F36F56"/>
				</linearGradient>
				<path style="fill:url(#SVGID_00000171708290580335995540000004761741146567217537_);" d="M2218.506,750.059l-36.141-41.391
					c0,0,22.702-1.857,21.729-35.118c-0.974-33.261,18.48-22.818,13.803,2.893c-4.678,25.713-1.692,44.661-1.692,44.661
					l22.234,24.359L2218.506,750.059z"/>
				<g>
					
						<linearGradient id="SVGID_00000121962833862881251610000006614772763221851538_" gradientUnits="userSpaceOnUse" x1="-2427.4456" y1="810.431" x2="-2175.645" y2="1127.2283" gradientTransform="matrix(-0.9834 -0.1821 -0.1821 0.9834 -234.7077 -488.6152)">
						<stop  offset="0" style="stop-color:#FFC444"/>
						<stop  offset="0.9964" style="stop-color:#F36F56"/>
					</linearGradient>
					<path style="fill:url(#SVGID_00000121962833862881251610000006614772763221851538_);" d="M1944.744,821.128
						c13.061-14.976,12.188-35.006,11.957-39.345c-0.965-18.151-2.032-21.078-4.577-25.355l-3.668-5.666
						c0,0-0.244-0.261-0.506-0.527c-2.769-2.768-13.956-8.508-16.487-9.11c-8.094-1.92-30.139,24.291-48.016,67.659
						c-1.071,1.47-2.139,2.959-3.202,4.461c-1.973,2.789-3.374,4.863-3.481,5.021c-2.218,3.254-13.564,14.672-24.571,20.675
						c-25.386,13.847-77.278,14.356-78.555,22.507c-1.187,7.569,41.246,21.836,84.482,29.925
						c30.548,5.713,83.106,12.386,86.287,1.768c3.175-10.601-47.582-26.382-33.932-61.168
						C1911.828,828.524,1935.121,832.162,1944.744,821.128z"/>
					<path style="fill:#26264F;" d="M1969.394,745.978c-6.273,13.089-19.104,24.153-23.32,24.906
						c-0.544,0.099-3.691,0.818-7.213,2.93c-0.48,0.288-0.96,0.662-1.483,1.195c-6.797,6.896,1.716,22.86-2.575,25.353
						c-3.115,1.809-10.337-6.021-12.499-4.209c-2.037,1.706,3.235,9.747,0.858,11.818c-1.794,1.564-5.503-2.409-9.817-0.757
						c-2.15,0.822-2.296,2.215-6.002,6.091c-2.097,2.192-4.651,4.467-6.335,5.607c-8.189,5.543-22.355,2.257-23.36-1.997
						c-0.28-1.185,0.654-1.626,1.321-4.84c0,0,0.618-2.98,0.227-6.949c-0.559-5.672-5.466-11.87-9.719-19.597
						c-7.875-14.312-7.636-23.206-7.432-26.153c0.073-1.049,0.173-1.819,0.247-2.375c1.478-11.141,8.21-25.34,16.701-32.003
						c14.227-11.163,27.343,3.58,47.662-4.52c23.446-9.346,25.071-36.579,34.681-35.105
						C1971.933,686.998,1980.993,721.779,1969.394,745.978z"/>
					
						<linearGradient id="SVGID_00000044866404179089675340000012486547214138439306_" gradientUnits="userSpaceOnUse" x1="-2413.8611" y1="806.9942" x2="-2195.9666" y2="1081.1334" gradientTransform="matrix(-0.9834 -0.1821 -0.1821 0.9834 -234.7077 -488.6152)">
						<stop  offset="0" style="stop-color:#FFC444"/>
						<stop  offset="0.9964" style="stop-color:#F36F56"/>
					</linearGradient>
					<path style="fill:url(#SVGID_00000044866404179089675340000012486547214138439306_);" d="M1931.555,795.042
						c-1.115-5.942-8.732-4.477-11.479,1.219c-2.747,5.696-0.036,14.265,5.869,15.689
						C1931.85,813.373,1933.054,803.038,1931.555,795.042z"/>
				</g>
				
					<linearGradient id="SVGID_00000085938395093065539270000016532089607786471598_" gradientUnits="userSpaceOnUse" x1="1299.1041" y1="1151.7241" x2="2364.9209" y2="1151.7241">
					<stop  offset="0" style="stop-color:#FF9085"/>
					<stop  offset="0.6291" style="stop-color:#FC7BA7"/>
					<stop  offset="1" style="stop-color:#FB6FBB"/>
				</linearGradient>
				<path style="fill:url(#SVGID_00000085938395093065539270000016532089607786471598_);" d="M1676.44,845.956
					c30.708-13.765,73.871-8.508,160.022,3.307c64.66,8.867,123.385,23.719,158.542,32.705
					c76.339,19.511,103.411,31.465,154.865,29.44c36.289-1.424,77.798-3.059,95.534-30.274
					c19.488-29.901,5.06-82.672-36.867-129.978c11.695-6.021,23.39-12.048,35.085-18.07c17.376,7.825,72.255,35.18,101.669,97.89
					c25.559,54.485,28.823,126.808-6.209,180.55c-31.414,48.192-82.504,64.505-159.426,89.072
					c-86.179,27.524-99.823,10.838-139.041,37.083c-29.685,19.868-52.816,69.658-97.866,168.434
					c-25.381,55.651-44.802,102.788-82.26,173.136c-35.785,67.201-45.244,75.229-54.818,80.889
					c-45.854,27.12-81.601-7.461-198.875-15.028c-74.854-4.827-76.96,8.114-142.313-1.115
					c-60.366-8.526-123.806-17.492-152.138-66.761c-23.975-41.692-8.533-90.744-6.185-97.691
					c17.657-52.241,61.598-67.359,109.651-107.257c43.143-35.819,69.369-83.055,121.816-177.516
					C1627.499,932.908,1614.021,873.936,1676.44,845.956z"/>
				
					<linearGradient id="SVGID_00000059997344418967058430000012061602866905767583_" gradientUnits="userSpaceOnUse" x1="2497.6487" y1="928.8207" x2="1955.6375" y2="1555.1451" gradientTransform="matrix(0.9787 0.2052 -0.2052 0.9787 126.7305 -588.6435)">
					<stop  offset="0" style="stop-color:#FF9085"/>
					<stop  offset="1" style="stop-color:#FB6FBB"/>
				</linearGradient>
				<path style="opacity:0.3;fill:url(#SVGID_00000059997344418967058430000012061602866905767583_);" d="M2364.744,925.427
					c-11.137,22.085-26.323,43.262-47.084,61.095c-67.392,57.877-167.29,58.352-219.438,58.603
					c-94.654,0.45-146.561-26.3-170.895,3.149c-22.912,27.73,14.71,61.611-1.864,116.518
					c-19.975,66.182-85.992,54.633-144.522,131.734c-60.096,79.158-37.503,153.242-84.63,168.901
					c-31.872,10.588-45.982-22.042-108.281-41.157c-113.492-34.823-190.052,35.614-238.931-4.96
					c-12.329-10.233-25.365-29.617-26.932-70.432c-6.512,8.796-11.974,18.731-16.007,30.667c-2.348,6.947-17.79,55.999,6.185,97.691
					c28.333,49.269,91.772,58.235,152.138,66.761c65.353,9.229,67.459-3.711,142.313,1.115
					c117.274,7.566,153.021,42.148,198.875,15.028c9.574-5.661,19.033-13.689,54.818-80.889
					c37.458-70.348,56.879-117.484,82.26-173.136c45.05-98.776,68.181-148.566,97.866-168.434
					c39.219-26.245,52.862-9.559,139.041-37.083c76.922-24.568,128.012-40.88,159.426-89.072
					C2355.878,985.761,2363.791,955.722,2364.744,925.427z"/>
			</g>
		</g>
	</g>
</g>
</svg>
