<?xml version="1.0" encoding="utf-8"?>
<!-- Generator: Adobe Illustrator 27.5.0, SVG Export Plug-In . SVG Version: 6.00 Build 0)  -->
<svg version="1.1" xmlns="http://www.w3.org/2000/svg" xmlns:xlink="http://www.w3.org/1999/xlink" x="0px" y="0px"
	 viewBox="0 0 500 500" style="enable-background:new 0 0 500 500;" xml:space="preserve">
<g id="Background_Complete">
	<g>
		<g>
			<g>
				<g>
					<g>
						<g>
							<g>
								<rect x="184.906" y="360.83" style="fill:#EBEBEB;" width="17.89" height="109.685"/>
							</g>
						</g>
					</g>
				</g>
				<g>
					<g>
						<g>
							<g>
								<rect x="411.469" y="361.085" style="fill:#EBEBEB;" width="17.89" height="109.685"/>
							</g>
						</g>
					</g>
				</g>
				<g>
					<g>
						<g>
							<g>
								<rect x="449.686" y="427.713" style="fill:#EBEBEB;" width="17.89" height="43.057"/>
							</g>
						</g>
					</g>
				</g>
				<g>
					<g>
						<g>
							<g>
								<rect x="35.474" y="367.763" style="fill:#EBEBEB;" width="17.891" height="102.752"/>
							</g>
						</g>
					</g>
				</g>
				<g>
					<g>
						<g>
							<g>
								<rect x="72.832" y="289.153" style="fill:#EBEBEB;" width="17.89" height="181.361"/>
							</g>
						</g>
					</g>
				</g>
				<g>
					<g>
						<g>
							<g>
								<rect x="110.19" y="406.376" style="fill:#EBEBEB;" width="17.89" height="64.139"/>
							</g>
						</g>
					</g>
				</g>
				<g>
					<g>
						<g>
							<g>
								<rect x="147.548" y="280.797" style="fill:#EBEBEB;" width="17.89" height="189.717"/>
							</g>
						</g>
					</g>
				</g>
				<g>
					<g>
						<g>
							<g>
								<rect x="222.263" y="297.201" style="fill:#EBEBEB;" width="17.89" height="173.314"/>
							</g>
						</g>
					</g>
				</g>
				<g>
					<g>
						<g>
							<g>
								<rect x="259.621" y="342.237" style="fill:#EBEBEB;" width="17.89" height="128.277"/>
							</g>
						</g>
					</g>
				</g>
				<g>
					<g>
						<g>
							<g>
								<rect x="296.978" y="279.501" style="fill:#EBEBEB;" width="17.89" height="191.014"/>
							</g>
						</g>
					</g>
				</g>
				<g>
					<g>
						<g>
							<g>
								<rect x="334.336" y="246.782" style="fill:#EBEBEB;" width="17.89" height="223.733"/>
							</g>
						</g>
					</g>
				</g>
				<g>
					<g>
						<g>
							<g>
								<rect x="371.694" y="312.017" style="fill:#EBEBEB;" width="17.89" height="158.498"/>
							</g>
						</g>
					</g>
				</g>
			</g>
		</g>
	</g>
</g>
<g id="Background_Simple" style="display:none;">
	<g style="display:inline;">
		<path style="fill:#F5F5F5;" d="M328.484,319.78l-0.962-1.99c-8.109-16.778-24.596-27.999-43.052-28.591
			c-2.372-0.076-4.751,0.019-7.115,0.294c-17.02,1.978-32.738,13.205-40.296,28.784c-4.445,9.162-6.478,20.007-13.912,26.906
			c-9.675,8.98-24.538,7.871-37.542,6.22c-13.003-1.652-27.881-2.723-37.517,6.3c-6.035,5.651-8.603,14.26-8.953,22.566
			c-0.926,21.99,12.451,43.008,30.911,54.583s41.204,14.625,62.832,12.374c30.298-3.154,60.138-16.91,79.556-40.704
			C331.853,382.728,339.46,348.511,328.484,319.78z"/>
	</g>
</g>
<g id="Floor">
	<g>
		<g>
			<path style="fill:#263238;" d="M466.294,470.727c0,0.144-99.085,0.26-221.283,0.26c-122.241,0-221.305-0.117-221.305-0.26
				s99.063-0.26,221.305-0.26C367.209,470.466,466.294,470.583,466.294,470.727z"/>
		</g>
	</g>
</g>
<g id="Plant">
	<g>
		<g>
			<g>
				<g>
					<g>
						<g>
							<g>
								<path style="fill:#263238;" d="M391.359,412.185c-14.955-6.348-32.27-18.835-39.994-34.148
									C367.497,384.518,381.722,396.664,391.359,412.185"/>
							</g>
						</g>
					</g>
				</g>
				<g>
					<g>
						<g>
							<g>
								<path style="fill:#263238;" d="M388.178,388.423c-14.955-6.348-32.27-18.836-39.994-34.148
									C364.316,360.756,378.541,372.902,388.178,388.423"/>
							</g>
						</g>
					</g>
				</g>
				<g>
					<g>
						<g>
							<g>
								<path style="fill:#263238;" d="M383.851,365.31c-14.955-6.348-32.27-18.835-39.994-34.148
									C359.989,337.643,374.214,349.789,383.851,365.31"/>
							</g>
						</g>
					</g>
				</g>
				<g>
					<g>
						<g>
							<g>
								<path style="fill:#263238;" d="M378.427,341.114c-14.109-8.372-29.835-23.15-35.696-39.384
									C357.993,310.399,370.69,324.407,378.427,341.114"/>
							</g>
						</g>
					</g>
				</g>
				<g>
					<g>
						<g>
							<g>
								<path style="fill:#263238;" d="M372.63,322.599c-10.282-13.448-19.865-33.457-19.739-50.797
									C364.146,285.992,371.167,304.06,372.63,322.599"/>
							</g>
						</g>
					</g>
				</g>
				<g>
					<g>
						<g>
							<g>
								<path style="fill:#263238;" d="M375.504,331.401c2.077-18.181,9.15-41.044,21.157-54.679
									C394.754,296.205,387.229,315.653,375.504,331.401"/>
							</g>
						</g>
					</g>
				</g>
				<g>
					<g>
						<g>
							<g>
								<path style="fill:#263238;" d="M380.338,351.29c3.66-18.747,12.912-41.933,26.546-55.083
									C403.294,316.324,393.852,335.916,380.338,351.29"/>
							</g>
						</g>
					</g>
				</g>
				<g>
					<g>
						<g>
							<g>
								<path style="fill:#263238;" d="M385.892,375.544c3.66-18.747,12.912-41.933,26.546-55.083
									C408.847,340.578,399.405,360.171,385.892,375.544"/>
							</g>
						</g>
					</g>
				</g>
				<g>
					<g>
						<g>
							<g>
								<path style="fill:#263238;" d="M390.348,405.322c3.66-18.747,12.912-41.933,26.546-55.083
									C413.303,370.356,403.861,389.948,390.348,405.322"/>
							</g>
						</g>
					</g>
				</g>
				<g>
					<g>
						<g>
							<g>
								<g>
									<path style="fill:#263238;" d="M371.933,319.036c0.01-0.003,0.049,0.092,0.116,0.28c0.075,0.221,0.168,0.497,0.284,0.839
										c0.251,0.784,0.597,1.868,1.036,3.243c0.899,2.817,2.115,6.921,3.538,12.013c1.433,5.09,3.008,11.188,4.634,17.988
										c1.596,6.807,3.222,14.322,4.723,22.251c1.482,7.935,2.692,15.53,3.677,22.453c0.957,6.927,1.7,13.182,2.216,18.444
										c0.524,5.262,0.882,9.526,1.069,12.477c0.091,1.44,0.162,2.576,0.214,3.398c0.016,0.361,0.03,0.651,0.041,0.885
										c0.006,0.199,0.004,0.302-0.006,0.303c-0.01,0.001-0.028-0.1-0.054-0.298c-0.026-0.232-0.058-0.521-0.099-0.88
										c-0.078-0.819-0.186-1.952-0.323-3.388c-0.256-2.944-0.677-7.2-1.253-12.452c-0.568-5.253-1.353-11.496-2.338-18.412
										c-1.013-6.912-2.239-14.495-3.718-22.421c-1.499-7.92-3.107-15.429-4.673-22.236c-1.595-6.8-3.127-12.902-4.508-18.002
										c-1.371-5.102-2.526-9.221-3.357-12.057c-0.395-1.388-0.706-2.483-0.931-3.274c-0.093-0.349-0.168-0.63-0.228-0.856
										C371.943,319.139,371.923,319.039,371.933,319.036z"/>
								</g>
							</g>
						</g>
					</g>
				</g>
			</g>
			<g style="opacity:0.5;">
				<g>
					<g>
						<g>
							<g>
								<path d="M372.63,322.599"/>
							</g>
						</g>
					</g>
				</g>
			</g>
			<g>
				<g>
					<g>
						<g>
							<g>
								<path style="fill:#455A64;" d="M398.645,422.087c-6.341-13.282-10.955-31.954-7.841-46.531
									C397.839,389.648,400.627,406.198,398.645,422.087"/>
							</g>
						</g>
					</g>
				</g>
				<g>
					<g>
						<g>
							<g>
								<path style="fill:#455A64;" d="M409.194,404.89c-6.341-13.282-10.955-31.954-7.841-46.531
									C408.388,372.45,411.177,389.001,409.194,404.89"/>
							</g>
						</g>
					</g>
				</g>
				<g>
					<g>
						<g>
							<g>
								<path style="fill:#455A64;" d="M418.655,387.402c-6.341-13.282-10.955-31.954-7.841-46.531
									C417.848,354.963,420.637,371.513,418.655,387.402"/>
							</g>
						</g>
					</g>
				</g>
				<g>
					<g>
						<g>
							<g>
								<path style="fill:#455A64;" d="M427.978,368.544c-4.717-14.059-7.083-33.222-2.27-47.242
									C431.016,336.262,431.823,353.065,427.978,368.544"/>
							</g>
						</g>
					</g>
				</g>
				<g>
					<g>
						<g>
							<g>
								<path style="fill:#455A64;" d="M434.043,353.1c0.463-14.957,4.862-33.69,14.15-44.734
									C447.968,324.399,442.935,340.311,434.043,353.1"/>
							</g>
						</g>
					</g>
				</g>
				<g>
					<g>
						<g>
							<g>
								<path style="fill:#455A64;" d="M431.236,360.516c11-10.381,27.73-20.687,42.766-22.036
									C462.421,349.8,447.209,357.637,431.236,360.516"/>
							</g>
						</g>
					</g>
				</g>
				<g>
					<g>
						<g>
							<g>
								<path style="fill:#455A64;" d="M423.817,376.248c12.329-9.768,30.645-18.939,46.479-18.975
									C457.285,367.962,440.753,374.711,423.817,376.248"/>
							</g>
						</g>
					</g>
				</g>
				<g>
					<g>
						<g>
							<g>
								<path style="fill:#455A64;" d="M414.547,395.223c12.329-9.768,30.645-18.939,46.479-18.975
									C448.015,386.937,431.483,393.686,414.547,395.223"/>
							</g>
						</g>
					</g>
				</g>
				<g>
					<g>
						<g>
							<g>
								<path style="fill:#455A64;" d="M401.632,417.063c12.329-9.768,30.645-18.939,46.479-18.975
									C435.1,408.777,418.568,415.526,401.632,417.063"/>
							</g>
						</g>
					</g>
				</g>
				<g>
					<g>
						<g>
							<g>
								<g>
									<path style="fill:#263238;" d="M435.482,350.386c0.009,0.003-0.015,0.087-0.069,0.247c-0.069,0.19-0.153,0.421-0.255,0.704
										c-0.253,0.658-0.597,1.556-1.032,2.689c-0.898,2.334-2.271,5.684-4.032,9.795c-3.52,8.222-8.732,19.44-15.209,31.459
										c-3.248,6.005-6.498,11.641-9.545,16.711c-3.074,5.054-5.921,9.556-8.404,13.276c-2.472,3.727-4.524,6.709-5.986,8.737
										c-0.711,0.984-1.273,1.763-1.686,2.334c-0.181,0.241-0.328,0.437-0.45,0.599c-0.104,0.133-0.161,0.199-0.169,0.193
										c-0.008-0.006,0.034-0.082,0.122-0.226c0.109-0.17,0.242-0.377,0.405-0.631c0.392-0.586,0.925-1.384,1.6-2.393
										c1.407-2.066,3.408-5.079,5.835-8.83c2.438-3.744,5.248-8.263,8.294-13.325c3.019-5.078,6.25-10.713,9.495-16.711
										c6.468-12.002,11.729-23.178,15.338-31.352c1.806-4.087,3.233-7.411,4.192-9.719c0.475-1.116,0.852-2,1.128-2.649
										c0.123-0.275,0.224-0.499,0.307-0.684C435.432,350.459,435.473,350.383,435.482,350.386z"/>
								</g>
							</g>
						</g>
					</g>
				</g>
			</g>
		</g>
		<g>
			<g>
				<g>
					<polygon style="fill:#FF725E;" points="428.851,423.691 365.839,423.691 365.839,435.836 372.314,435.836 377.767,470.472 
						416.717,470.472 422.325,435.836 428.851,435.836 					"/>
				</g>
			</g>
		</g>
		<g>
			<g>
				<g>
					<g>
						<path style="fill:#263238;" d="M428.851,435.582c0-0.162-14.005-0.293-31.277-0.293c-17.278,0-31.28,0.131-31.28,0.293
							s14.002,0.293,31.28,0.293C414.846,435.875,428.851,435.744,428.851,435.582z"/>
					</g>
				</g>
			</g>
		</g>
	</g>
</g>
<g id="Device">
	<g>
		<g>
			<g>
				<g>
					<g>
						<g>
							<g>
								<g>
									<g>
										<g>
											<g>
												<g>
													<g>
														<g>
															<g>
																<g>
																	<g>
																		<path style="fill:#E0E0E0;" d="M430.347,57.883v197.742c0,6.378-5.171,11.549-11.549,11.549H124.969
																			c-6.378,0-11.549-5.171-11.549-11.549V57.883c0-6.379,5.171-11.549,11.549-11.549h293.827
																			C425.176,46.333,430.347,51.505,430.347,57.883z"/>
																	</g>
																	<g>
																		<g>
																			<path style="fill:#263238;" d="M430.347,57.883c0,0-0.021-0.231-0.048-0.685c-0.015-0.454-0.1-1.134-0.308-2.007
																				c-0.19-0.879-0.596-1.934-1.252-3.089c-0.668-1.146-1.659-2.37-3.065-3.417c-0.688-0.544-1.514-0.978-2.4-1.388
																				c-0.913-0.342-1.895-0.68-2.972-0.789c-1.068-0.14-2.207-0.104-3.393-0.104
																				c-1.186,0.002-2.422,0.004-3.707,0.006c-5.142,0.007-11.073,0.015-17.751,0.024
																				c-26.716,0.02-65.366,0.048-113.123,0.083c-23.88,0.01-50.038,0.02-78.118,0.032
																				c-14.04,0.004-28.561,0.008-43.519,0.013c-7.479,0.002-15.067,0.004-22.758,0.006
																				c-3.846,0.001-7.718,0.002-11.614,0.003c-0.98,0-1.946-0.02-2.889,0.118c-0.954,0.104-1.875,0.398-2.77,0.738
																				c-1.766,0.745-3.365,1.928-4.557,3.45c-1.192,1.519-2.019,3.341-2.294,5.268
																				c-0.171,0.957-0.14,1.936-0.147,2.938l0.001,2.992c0.001,3.995,0.002,8.014,0.002,12.056
																				c0.001,8.084,0.003,16.26,0.004,24.524c0.002,16.527,0.004,33.402,0.006,50.581
																				c0.002,34.358,0.003,69.931,0.005,106.365c0.026,1.114,0.164,2.224,0.484,3.291
																				c0.338,1.059,0.806,2.074,1.417,3.002c0.63,0.915,1.38,1.742,2.227,2.458c0.865,0.695,1.824,1.263,2.839,1.702
																				c1.026,0.421,2.109,0.673,3.206,0.804c1.092,0.08,2.235,0.051,3.361,0.056c2.257,0,4.51,0,6.76,0
																				c8.998,0,17.937,0.001,26.811,0.001c17.747,0.001,35.235,0.003,52.418,0.004
																				c34.366,0.005,67.514,0.01,99.092,0.015c31.578,0.008,61.584,0.017,89.667,0.024
																				c3.51,0.001,6.991,0.002,10.44,0.004c1.725,0.001,3.442,0.001,5.151,0.002c0.86,0.009,1.705,0.003,2.531-0.077
																				c0.828-0.109,1.648-0.275,2.431-0.558c3.148-1.082,5.736-3.594,6.871-6.663c0.599-1.53,0.784-3.153,0.756-4.793
																				c0.001-1.646,0.001-3.283,0.002-4.913c0.006-13.035,0.012-25.544,0.017-37.484
																				c0.035-47.757,0.063-86.404,0.083-113.117c0.021-13.351,0.038-23.719,0.049-30.754
																				c0.011-3.512,0.02-6.191,0.026-7.998C430.329,58.806,430.347,57.883,430.347,57.883s0.018,0.923,0.027,2.725
																				c0.006,1.806,0.014,4.486,0.026,7.998c0.011,7.035,0.028,17.403,0.049,30.754
																				c0.02,26.713,0.048,65.359,0.083,113.117c0.005,11.94,0.011,24.45,0.017,37.484
																				c0.001,1.629,0.001,3.267,0.002,4.913c0.031,1.645-0.16,3.364-0.78,4.939c-1.175,3.18-3.852,5.786-7.117,6.911
																				c-0.811,0.294-1.662,0.467-2.521,0.58c-0.866,0.084-1.73,0.09-2.579,0.082c-1.709,0.001-3.426,0.001-5.151,0.002
																				c-3.449,0.001-6.93,0.002-10.44,0.004c-28.083,0.008-58.089,0.016-89.667,0.024
																				c-31.578,0.005-64.726,0.01-99.092,0.015c-17.183,0.001-34.67,0.003-52.418,0.004
																				c-8.874,0-17.813,0.001-26.811,0.001c-2.25,0-4.503,0-6.76,0c-1.131-0.006-2.248,0.026-3.412-0.059
																				c-1.147-0.136-2.282-0.401-3.354-0.841c-1.063-0.459-2.066-1.054-2.971-1.781
																				c-0.886-0.748-1.67-1.613-2.329-2.571c-0.64-0.971-1.131-2.033-1.483-3.142c-0.335-1.116-0.48-2.279-0.506-3.442
																				c0.002-36.434,0.004-72.007,0.005-106.365c0.002-17.179,0.004-34.054,0.006-50.581
																				c0.001-8.263,0.003-16.44,0.004-24.524c0.001-4.042,0.001-8.061,0.002-12.056l0.001-2.992
																				c0.007-0.985-0.024-2.01,0.154-3.011c0.288-2.01,1.151-3.91,2.394-5.493c1.243-1.585,2.91-2.818,4.751-3.593
																				c0.933-0.356,1.894-0.66,2.888-0.769c0.992-0.143,1.988-0.121,2.953-0.121c3.897,0.001,7.769,0.002,11.614,0.003
																				c7.691,0.002,15.279,0.004,22.758,0.006c14.958,0.005,29.479,0.009,43.519,0.013
																				c28.08,0.012,54.237,0.022,78.118,0.032c47.757,0.035,86.407,0.063,113.123,0.083
																				c6.677,0.009,12.609,0.017,17.751,0.024c1.285,0.002,2.521,0.004,3.707,0.006
																				c1.183,0.004,2.325-0.029,3.41,0.117c1.089,0.115,2.081,0.461,3.001,0.81c0.893,0.417,1.725,0.86,2.417,1.412
																				c1.413,1.063,2.405,2.302,3.07,3.461c0.653,1.167,1.053,2.232,1.235,3.117c0.2,0.879,0.276,1.562,0.283,2.018
																				C430.344,57.653,430.347,57.883,430.347,57.883z"/>
																		</g>
																	</g>
																</g>
															</g>
														</g>
													</g>
												</g>
											</g>
										</g>
										<g>
											<g>
												<g>
													<g>
														<g>
															<g>
																<g>
																	
																		<rect x="164.91" y="25.237" transform="matrix(6.123234e-17 -1 1 6.123234e-17 110.7942 425.9397)" style="fill:#FFFFFF;" width="206.913" height="264.671"/>
																</g>
															</g>
														</g>
													</g>
												</g>
											</g>
										</g>
										<g>
											<g>
												<g>
													<g>
														<g>
															<g>
																<g>
																	<circle style="fill:#263238;" cx="414.421" cy="155.861" r="8.474"/>
																</g>
															</g>
														</g>
													</g>
												</g>
											</g>
										</g>
										<g>
											<g>
												<g>
													<g>
														<g>
															<g>
																<g>
																	<path style="fill:#263238;" d="M126.049,124.712v64.084c0,0.671-0.544,1.215-1.215,1.215h-1.07
																		c-0.671,0-1.215-0.544-1.215-1.215v-64.084c0-0.671,0.544-1.215,1.215-1.215h1.07
																		C125.505,123.497,126.049,124.041,126.049,124.712z"/>
																</g>
															</g>
														</g>
													</g>
												</g>
											</g>
										</g>
									</g>
								</g>
							</g>
						</g>
					</g>
				</g>
			</g>
			<g>
				<g>
					<g>
						<g>
							<g>
								<rect x="136.031" y="53.404" style="fill:#FF725E;" width="24.789" height="207.626"/>
							</g>
						</g>
					</g>
					<g>
						<g>
							<g>
								<path style="fill:#FFFFFF;" d="M161.899,164.386h-23.501c-1.307,0-2.367-1.06-2.367-2.367V146.11
									c0-1.307,1.06-2.367,2.367-2.367h23.501V164.386z"/>
							</g>
						</g>
					</g>
					<g>
						<g>
							<g>
								<path style="fill:#FFFFFF;" d="M148.426,83.275L148.426,83.275c-2.496,0-4.52-2.031-4.52-4.536l0,0
									c0-2.505,2.024-4.536,4.52-4.536h0c2.496,0,4.52,2.031,4.52,4.536l0,0C152.946,81.244,150.922,83.275,148.426,83.275z"/>
							</g>
						</g>
					</g>
					<g>
						<g>
							<path style="fill:#FFFFFF;" d="M152.187,99.549c0,0.144-1.825,0.26-4.076,0.26c-2.252,0-4.076-0.117-4.076-0.26
								c0-0.144,1.825-0.26,4.076-0.26C150.361,99.289,152.187,99.405,152.187,99.549z"/>
						</g>
					</g>
					<g>
						<g>
							<path style="fill:#FFFFFF;" d="M152.911,122.527c0,0.144-1.825,0.26-4.076,0.26c-2.252,0-4.076-0.117-4.076-0.26
								s1.825-0.26,4.076-0.26C151.086,122.267,152.911,122.383,152.911,122.527z"/>
						</g>
					</g>
					<g>
						<g>
							<path style="fill:#FFFFFF;" d="M152.911,180.969c0,0.144-1.825,0.26-4.076,0.26c-2.252,0-4.076-0.117-4.076-0.26
								c0-0.144,1.825-0.26,4.076-0.26C151.086,180.709,152.911,180.825,152.911,180.969z"/>
						</g>
					</g>
					<g>
						<g>
							<path style="fill:#FFFFFF;" d="M152.911,211.11c0,0.144-1.825,0.26-4.076,0.26c-2.252,0-4.076-0.117-4.076-0.26
								c0-0.144,1.825-0.26,4.076-0.26C151.086,210.85,152.911,210.967,152.911,211.11z"/>
						</g>
					</g>
					<g>
						<g>
							<path style="fill:#263238;" d="M152.911,154.366c0,0.144-1.825,0.261-4.076,0.261c-2.252,0-4.076-0.117-4.076-0.261
								c0-0.144,1.825-0.26,4.076-0.26C151.086,154.106,152.911,154.223,152.911,154.366z"/>
						</g>
					</g>
				</g>
			</g>
		</g>
		<g>
			<g>
				<path style="fill:#263238;" d="M400.703,261.03c-0.002-1.794-0.086-82.379-0.216-207.626l0.216,0.216
					c-75.459,0.013-166.565,0.028-264.649,0.045h-0.023l0.26-0.26c-0.01,74.882-0.019,145.688-0.027,207.625l-0.234-0.233
					C293.178,260.935,398.652,261.028,400.703,261.03c-2.049,0.002-107.524,0.095-264.671,0.234l-0.234,0v-0.234
					c-0.008-61.937-0.017-132.743-0.027-207.625v-0.261h0.26h0.023c98.084,0.017,189.19,0.032,264.649,0.045l0.216,0l0,0.216
					C400.788,178.651,400.705,259.237,400.703,261.03z"/>
			</g>
		</g>
		<g>
			<g>
				<g>
					<g>
						<g>
							<g>
								<g>
									<rect x="316.577" y="224.309" style="fill:#FF725E;" width="3.566" height="11.943"/>
								</g>
							</g>
						</g>
						<g>
							<g>
								<g>
									<rect x="286.796" y="222.579" style="fill:#FF725E;" width="3.566" height="13.674"/>
								</g>
							</g>
						</g>
						<g>
							<g>
								<g>
									<rect x="294.241" y="219.729" style="fill:#FF725E;" width="3.566" height="16.524"/>
								</g>
							</g>
						</g>
						<g>
							<g>
								<g>
									<rect x="301.687" y="220.635" style="fill:#FF725E;" width="3.566" height="15.618"/>
								</g>
							</g>
						</g>
						<g>
							<g>
								<g>
									<rect x="309.132" y="215.352" style="fill:#FF725E;" width="3.566" height="20.901"/>
								</g>
							</g>
						</g>
						<g>
							<g>
								<g>
									<rect x="324.023" y="215.453" style="fill:#FF725E;" width="3.566" height="20.799"/>
								</g>
							</g>
						</g>
						<g>
							<g>
								<g>
									<rect x="331.468" y="222.285" style="fill:#FF725E;" width="3.565" height="13.968"/>
								</g>
							</g>
						</g>
						<g>
							<g>
								<g>
									<rect x="338.913" y="216.37" style="fill:#FF725E;" width="3.566" height="19.883"/>
								</g>
							</g>
						</g>
						<g>
							<g>
								<g>
									<rect x="346.359" y="211.891" style="fill:#FF725E;" width="3.566" height="24.362"/>
								</g>
							</g>
						</g>
						<g>
							<g>
								<g>
									<rect x="353.804" y="216.268" style="fill:#FF725E;" width="3.566" height="19.985"/>
								</g>
							</g>
						</g>
					</g>
				</g>
			</g>
			<g>
				<g>
					<g>
						<path style="fill:#E0E0E0;" d="M364.822,251.063H277.12c-3.992,0-7.24-3.248-7.24-7.24v-52.434c0-3.992,3.248-7.24,7.24-7.24
							h87.702c3.992,0,7.24,3.248,7.24,7.24v52.434C372.063,247.815,368.814,251.063,364.822,251.063z M277.12,184.864
							c-3.598,0-6.525,2.927-6.525,6.525v52.434c0,3.598,2.927,6.525,6.525,6.525h87.702c3.598,0,6.525-2.927,6.525-6.525v-52.434
							c0-3.598-2.927-6.525-6.525-6.525H277.12z"/>
					</g>
				</g>
			</g>
			<g>
				<g>
					<g>
						<g>
							<path style="fill:#E0E0E0;" d="M327.046,201.582c0,0.103-10.145,0.186-22.657,0.186c-12.516,0-22.659-0.083-22.659-0.186
								c0-0.103,10.143-0.186,22.659-0.186C316.901,201.395,327.046,201.479,327.046,201.582z"/>
						</g>
					</g>
				</g>
			</g>
		</g>
		<g>
			<g>
				<polygon style="fill:#F5F5F5;" points="180.904,184.739 180.904,249.498 188.739,249.498 199.526,249.498 249.813,249.498 
					249.813,184.739 				"/>
			</g>
			<g>
				<g>
					<g>
						<g>
							<g>
								<g>
									<g>
										<path style="fill:#263238;" d="M215.052,192.078c-11.743,0-21.262,9.519-21.262,21.262
											c0,11.742,9.519,21.262,21.262,21.262c11.742,0,21.262-9.519,21.262-21.262
											C236.314,201.597,226.794,192.078,215.052,192.078z M215.373,226.08c-7.213,0-13.061-5.848-13.061-13.061
											c0-7.213,5.848-13.061,13.061-13.061c7.213,0,13.061,5.848,13.061,13.061C228.434,220.232,222.586,226.08,215.373,226.08z
											"/>
									</g>
								</g>
							</g>
						</g>
						<g>
							<g>
								<g>
									<g>
										<g>
											<path style="fill:#FF725E;" d="M215.378,192.086c0,2.262-0.001,5.313-0.002,7.872
												c7.212,0.002,13.058,5.849,13.058,13.061c0,1.381-0.216,2.711-0.613,3.96l7.706,2.09
												c0.509-1.823,0.787-3.743,0.787-5.729C236.314,201.706,226.969,192.261,215.378,192.086z"/>
										</g>
									</g>
								</g>
							</g>
							<g>
								<g>
									<g>
										<g>
											<path style="fill:#455A64;" d="M202.312,213.019c0-5.319,3.181-9.891,7.742-11.928l-3.27-7.345
												c-7.635,3.226-12.993,10.784-12.993,19.594c0,0.299,0.01,0.596,0.023,0.892h8.557
												C202.333,213.832,202.312,213.428,202.312,213.019z"/>
										</g>
									</g>
								</g>
							</g>
							<g>
								<g>
									<g>
										<g>
											<path style="fill:#FF725E;" d="M215.373,226.08c-0.948,0-1.872-0.104-2.763-0.296c-0.328,1.895-0.949,5.567-1.436,8.458
												c1.258,0.232,2.553,0.359,3.879,0.359c9.756,0,17.972-6.574,20.474-15.532l-7.706-2.09
												C226.143,222.256,221.205,226.08,215.373,226.08z"/>
										</g>
									</g>
								</g>
							</g>
							<g style="opacity:0.3;">
								<g>
									<g>
										<g>
											<path d="M215.373,226.08c-0.948,0-1.872-0.104-2.763-0.296c-0.328,1.895-0.949,5.567-1.436,8.458
												c1.258,0.232,2.553,0.359,3.879,0.359c9.756,0,17.972-6.574,20.474-15.532l-7.706-2.09
												C226.143,222.256,221.205,226.08,215.373,226.08z"/>
										</g>
									</g>
								</g>
							</g>
						</g>
					</g>
					<g>
						<g>
							<g>
								<g>
									<path style="fill:#263238;" d="M212.551,214.076h-0.787v1.015h-1.09v-1.015h-2.602v-0.752l2.278-3.065h1.174l-2.112,2.906
										h1.298v-0.904h1.056v0.904h0.787V214.076z"/>
								</g>
							</g>
						</g>
						<g>
							<g>
								<g>
									<path style="fill:#263238;" d="M212.881,212.675c0-1.594,0.884-2.499,2.071-2.499c1.194,0,2.071,0.904,2.071,2.499
										c0,1.595-0.877,2.499-2.071,2.499C213.765,215.174,212.881,214.269,212.881,212.675z M215.898,212.675
										c0-1.097-0.387-1.553-0.946-1.553c-0.552,0-0.939,0.456-0.939,1.553c0,1.098,0.387,1.553,0.939,1.553
										C215.511,214.228,215.898,213.772,215.898,212.675z"/>
								</g>
							</g>
						</g>
						<g>
							<g>
								<g>
									<path style="fill:#263238;" d="M217.484,211.536c0-0.814,0.497-1.332,1.201-1.332c0.704,0,1.194,0.511,1.194,1.332
										c0,0.822-0.49,1.332-1.194,1.332C217.981,212.868,217.484,212.351,217.484,211.536z M219.19,211.536
										c0-0.518-0.201-0.766-0.504-0.766c-0.297,0-0.504,0.255-0.504,0.766c0,0.511,0.207,0.766,0.504,0.766
										C218.989,212.302,219.19,212.054,219.19,211.536z M221.564,210.259h0.821l-3.299,4.832h-0.822L221.564,210.259z
										 M220.77,213.814c0-0.815,0.497-1.332,1.194-1.332c0.704,0,1.201,0.517,1.201,1.332c0,0.814-0.497,1.332-1.201,1.332
										C221.267,215.146,220.77,214.628,220.77,213.814z M222.468,213.814c0-0.511-0.2-0.766-0.504-0.766
										c-0.297,0-0.504,0.249-0.504,0.766c0,0.518,0.207,0.766,0.504,0.766C222.268,214.58,222.468,214.325,222.468,213.814z"/>
								</g>
							</g>
						</g>
					</g>
				</g>
				<g>
					<g>
						<g>
							<g>
								<g>
									<g>
										<path style="fill:#263238;" d="M232.645,239.966c0,0.111-7.877,0.202-17.593,0.202c-9.718,0-17.594-0.09-17.594-0.202
											c0-0.111,7.876-0.202,17.594-0.202C224.768,239.764,232.645,239.855,232.645,239.966z"/>
									</g>
								</g>
							</g>
						</g>
					</g>
					<g>
						<g>
							<g>
								<g>
									<g>
										<path style="fill:#263238;" d="M224.81,243.197c0,0.111-4.369,0.202-9.758,0.202c-5.39,0-9.758-0.09-9.758-0.202
											s4.368-0.202,9.758-0.202C220.441,242.995,224.81,243.085,224.81,243.197z"/>
									</g>
								</g>
							</g>
						</g>
					</g>
				</g>
			</g>
		</g>
		<g>
			<g>
				<g>
					<path style="fill:#E0E0E0;" d="M386.067,89.823c0,0-0.347,0.016-1.028,0.024c-0.699,0.005-1.706,0.013-3.025,0.023
						c-2.682,0.01-6.611,0.025-11.69,0.044c-10.201,0.018-25.002,0.045-43.484,0.078c-37.003,0.023-88.735,0.054-147.724,0.091
						l0.362-0.26c0.002,11.609,0.005,23.648,0.007,35.969c-0.003,12.696-0.005,25.092-0.007,37.061l-0.361-0.26
						c58.617,0.036,109.975,0.068,146.697,0.091c18.341,0.033,33.024,0.059,43.143,0.078c5.038,0.019,8.935,0.034,11.595,0.044
						c1.307,0.01,2.307,0.018,3,0.023c0.674,0.008,1.019,0.024,1.019,0.024s-0.345,0.016-1.019,0.024
						c-0.693,0.005-1.692,0.013-3,0.023c-2.66,0.01-6.557,0.025-11.595,0.044c-10.119,0.018-24.802,0.044-43.143,0.077
						c-36.722,0.023-88.08,0.055-146.697,0.091l-0.362,0l0-0.26c-0.002-11.97-0.005-24.366-0.007-37.061
						c0.002-12.321,0.005-24.36,0.007-35.969v-0.26l0.362,0c58.989,0.036,110.721,0.068,147.724,0.091
						c18.482,0.033,33.282,0.059,43.484,0.078c5.079,0.019,9.008,0.034,11.69,0.044c1.318,0.01,2.326,0.018,3.025,0.023
						C385.72,89.807,386.067,89.823,386.067,89.823z"/>
				</g>
			</g>
			<g>
				<g>
					<path style="fill:#E0E0E0;" d="M386.067,102.118c0,0.146-46.331,0.265-103.47,0.265c-57.159,0-103.48-0.119-103.48-0.265
						c0-0.146,46.321-0.265,103.48-0.265C339.736,101.853,386.067,101.971,386.067,102.118z"/>
				</g>
			</g>
			<g>
				<g>
					<path style="fill:#E0E0E0;" d="M386.067,112.177c0,0.146-46.331,0.265-103.47,0.265c-57.159,0-103.48-0.119-103.48-0.265
						c0-0.146,46.321-0.265,103.48-0.265C339.736,111.912,386.067,112.031,386.067,112.177z"/>
				</g>
			</g>
			<g>
				<g>
					<path style="fill:#E0E0E0;" d="M386.067,122.236c0,0.146-46.331,0.265-103.47,0.265c-57.159,0-103.48-0.119-103.48-0.265
						c0-0.146,46.321-0.265,103.48-0.265C339.736,121.971,386.067,122.09,386.067,122.236z"/>
				</g>
			</g>
			<g>
				<g>
					<path style="fill:#E0E0E0;" d="M386.067,132.296c0,0.146-46.331,0.265-103.47,0.265c-57.159,0-103.48-0.119-103.48-0.265
						c0-0.146,46.321-0.265,103.48-0.265C339.736,132.031,386.067,132.15,386.067,132.296z"/>
				</g>
			</g>
			<g>
				<g>
					<path style="fill:#E0E0E0;" d="M386.067,142.355c0,0.146-46.331,0.265-103.47,0.265c-57.159,0-103.48-0.119-103.48-0.265
						c0-0.146,46.321-0.265,103.48-0.265C339.736,142.09,386.067,142.209,386.067,142.355z"/>
				</g>
			</g>
			<g>
				<g>
					<path style="fill:#E0E0E0;" d="M179.117,152.415c0-0.146,46.331-0.265,103.47-0.265c57.159,0,103.48,0.119,103.48,0.265
						c0,0.146-46.321,0.265-103.48,0.265C225.448,152.68,179.117,152.561,179.117,152.415z"/>
				</g>
			</g>
			<g>
				<g>
					<path style="fill:#E0E0E0;" d="M208.451,163.964c-0.146,0-0.265-16.598-0.265-37.069c0-20.478,0.119-37.073,0.265-37.073
						c0.146,0,0.265,16.595,0.265,37.073C208.716,147.366,208.598,163.964,208.451,163.964z"/>
				</g>
			</g>
			<g>
				<g>
					<path style="fill:#E0E0E0;" d="M238.257,163.964c-0.146,0-0.265-16.598-0.265-37.069c0-20.478,0.119-37.073,0.265-37.073
						c0.146,0,0.265,16.595,0.265,37.073C238.522,147.366,238.403,163.964,238.257,163.964z"/>
				</g>
			</g>
			<g>
				<g>
					<path style="fill:#E0E0E0;" d="M268.063,163.964c-0.146,0-0.265-16.598-0.265-37.069c0-20.478,0.119-37.073,0.265-37.073
						c0.146,0,0.265,16.595,0.265,37.073C268.328,147.366,268.209,163.964,268.063,163.964z"/>
				</g>
			</g>
			<g>
				<g>
					<path style="fill:#E0E0E0;" d="M297.868,163.964c-0.146,0-0.265-16.598-0.265-37.069c0-20.478,0.119-37.073,0.265-37.073
						s0.265,16.595,0.265,37.073C298.133,147.366,298.015,163.964,297.868,163.964z"/>
				</g>
			</g>
			<g>
				<g>
					<path style="fill:#E0E0E0;" d="M327.674,163.964c-0.147,0-0.265-16.598-0.265-37.069c0-20.478,0.119-37.073,0.265-37.073
						c0.146,0,0.265,16.595,0.265,37.073C327.939,147.366,327.82,163.964,327.674,163.964z"/>
				</g>
			</g>
			<g>
				<g>
					<path style="fill:#E0E0E0;" d="M356.527,163.964c-0.146,0-0.265-16.598-0.265-37.069c0-20.478,0.119-37.073,0.265-37.073
						c0.146,0,0.265,16.595,0.265,37.073C356.792,147.366,356.673,163.964,356.527,163.964z"/>
				</g>
			</g>
			<g>
				<g>
					<path style="fill:#E0E0E0;" d="M386.332,163.964c-0.146,0-0.265-16.598-0.265-37.069c0-20.478,0.119-37.073,0.265-37.073
						s0.265,16.595,0.265,37.073C386.598,147.366,386.479,163.964,386.332,163.964z"/>
				</g>
			</g>
			<g>
				<path style="fill:#FF725E;" d="M210.266,152.415c0,1.002-0.812,1.814-1.814,1.814c-1.002,0-1.814-0.812-1.814-1.814
					s0.812-1.814,1.814-1.814C209.453,150.6,210.266,151.413,210.266,152.415z"/>
			</g>
			<g>
				<path style="fill:#FF725E;" d="M240.071,132.296c0,1.002-0.812,1.814-1.814,1.814s-1.814-0.812-1.814-1.814
					c0-1.002,0.812-1.814,1.814-1.814S240.071,131.294,240.071,132.296z"/>
			</g>
			<g>
				<path style="fill:#FF725E;" d="M269.877,142.183c0,1.002-0.812,1.814-1.814,1.814c-1.002,0-1.814-0.812-1.814-1.814
					s0.812-1.814,1.814-1.814C269.065,140.368,269.877,141.181,269.877,142.183z"/>
			</g>
			<g>
				<path style="fill:#FF725E;" d="M299.5,120.994c1.48,1.942-0.716,4.138-2.658,2.658c0,0,0,0,0,0
					C295.364,121.711,297.558,119.516,299.5,120.994z"/>
			</g>
			<g>
				<path style="fill:#FF725E;" d="M329.647,120.994c1.48,1.942-0.716,4.138-2.658,2.658c0,0,0,0,0,0
					C325.51,121.711,327.705,119.516,329.647,120.994z"/>
			</g>
			<g>
				<path style="fill:#FF725E;" d="M357.851,140.742c1.48,1.942-0.716,4.138-2.658,2.658h0
					C353.715,141.459,355.909,139.264,357.851,140.742z"/>
			</g>
			<g>
				<path style="fill:#455A64;" d="M240.071,112.177c0,1.002-0.812,1.814-1.814,1.814s-1.814-0.812-1.814-1.814
					c0-1.002,0.812-1.814,1.814-1.814S240.071,111.175,240.071,112.177z"/>
			</g>
			<g>
				<path style="fill:#455A64;" d="M210.266,142.355c0,1.002-0.812,1.814-1.814,1.814c-1.002,0-1.814-0.812-1.814-1.814
					s0.812-1.814,1.814-1.814C209.453,140.541,210.266,141.353,210.266,142.355z"/>
			</g>
			<g>
				<path style="fill:#455A64;" d="M357.856,151.086c1.479,1.942-0.715,4.137-2.658,2.659
					C353.718,151.802,355.914,149.606,357.856,151.086z"/>
			</g>
			<g>
				<path style="fill:#455A64;" d="M329.488,132.296c0,1.002-0.812,1.814-1.814,1.814c-1.002,0-1.814-0.812-1.814-1.814
					s0.812-1.814,1.814-1.814C328.676,130.482,329.488,131.294,329.488,132.296z"/>
			</g>
			<g>
				<path style="fill:#455A64;" d="M299.986,132.031c0,1.002-0.812,1.814-1.814,1.814c-1.002,0-1.814-0.812-1.814-1.814
					s0.812-1.814,1.814-1.814C299.173,130.217,299.986,131.029,299.986,132.031z"/>
			</g>
			<g>
				<g>
					<path style="fill:#E0E0E0;" d="M196.006,171.179c0,0.146-1.285,0.265-2.87,0.265c-1.585,0-2.87-0.119-2.87-0.265
						c0-0.146,1.285-0.265,2.87-0.265C194.721,170.914,196.006,171.033,196.006,171.179z"/>
				</g>
			</g>
			<g>
				<g>
					<path style="fill:#E0E0E0;" d="M226.47,171.179c0,0.146-1.285,0.265-2.87,0.265c-1.585,0-2.87-0.119-2.87-0.265
						c0-0.146,1.285-0.265,2.87-0.265C225.185,170.914,226.47,171.033,226.47,171.179z"/>
				</g>
			</g>
			<g>
				<g>
					<path style="fill:#E0E0E0;" d="M256.935,171.179c0,0.146-1.285,0.265-2.87,0.265c-1.585,0-2.87-0.119-2.87-0.265
						c0-0.146,1.285-0.265,2.87-0.265C255.65,170.914,256.935,171.033,256.935,171.179z"/>
				</g>
			</g>
			<g>
				<g>
					<path style="fill:#E0E0E0;" d="M287.399,171.179c0,0.146-1.285,0.265-2.87,0.265c-1.585,0-2.87-0.119-2.87-0.265
						c0-0.146,1.285-0.265,2.87-0.265C286.114,170.914,287.399,171.033,287.399,171.179z"/>
				</g>
			</g>
			<g>
				<g>
					<path style="fill:#E0E0E0;" d="M317.863,171.179c0,0.146-1.285,0.265-2.87,0.265c-1.585,0-2.87-0.119-2.87-0.265
						c0-0.146,1.285-0.265,2.87-0.265C316.579,170.914,317.863,171.033,317.863,171.179z"/>
				</g>
			</g>
			<g>
				<g>
					<path style="fill:#E0E0E0;" d="M345.105,171.179c0,0.146-1.285,0.265-2.87,0.265c-1.585,0-2.87-0.119-2.87-0.265
						c0-0.146,1.285-0.265,2.87-0.265C343.821,170.914,345.105,171.033,345.105,171.179z"/>
				</g>
			</g>
			<g>
				<g>
					<path style="fill:#E0E0E0;" d="M372.348,171.179c0,0.146-1.285,0.265-2.87,0.265c-1.585,0-2.87-0.119-2.87-0.265
						c0-0.146,1.285-0.265,2.87-0.265C371.063,170.914,372.348,171.033,372.348,171.179z"/>
				</g>
			</g>
			<g>
				<g>
					<g>
						<path style="fill:#E0E0E0;" d="M174.813,162.447c0,0.146-1.038,0.265-2.318,0.265c-1.28,0-2.318-0.119-2.318-0.265
							c0-0.146,1.038-0.265,2.318-0.265C173.775,162.182,174.813,162.301,174.813,162.447z"/>
					</g>
				</g>
				<g>
					<g>
						<path style="fill:#E0E0E0;" d="M174.813,150.747c0,0.146-1.038,0.265-2.318,0.265c-1.28,0-2.318-0.119-2.318-0.265
							c0-0.146,1.038-0.265,2.318-0.265C173.775,150.482,174.813,150.601,174.813,150.747z"/>
					</g>
				</g>
				<g>
					<g>
						<path style="fill:#E0E0E0;" d="M174.813,139.047c0,0.146-1.038,0.265-2.318,0.265c-1.28,0-2.318-0.119-2.318-0.265
							c0-0.146,1.038-0.265,2.318-0.265C173.775,138.782,174.813,138.9,174.813,139.047z"/>
					</g>
				</g>
				<g>
					<g>
						<path style="fill:#E0E0E0;" d="M174.813,127.347c0,0.146-1.038,0.265-2.318,0.265c-1.28,0-2.318-0.119-2.318-0.265
							c0-0.146,1.038-0.265,2.318-0.265C173.775,127.082,174.813,127.2,174.813,127.347z"/>
					</g>
				</g>
				<g>
					<g>
						<path style="fill:#E0E0E0;" d="M174.813,115.647c0,0.146-1.038,0.265-2.318,0.265c-1.28,0-2.318-0.119-2.318-0.265
							c0-0.146,1.038-0.265,2.318-0.265C173.775,115.382,174.813,115.5,174.813,115.647z"/>
					</g>
				</g>
				<g>
					<g>
						<path style="fill:#E0E0E0;" d="M174.813,103.947c0,0.146-1.038,0.265-2.318,0.265c-1.28,0-2.318-0.118-2.318-0.265
							c0-0.146,1.038-0.265,2.318-0.265C173.775,103.682,174.813,103.8,174.813,103.947z"/>
					</g>
				</g>
				<g>
					<g>
						<path style="fill:#E0E0E0;" d="M174.813,92.246c0,0.146-1.038,0.265-2.318,0.265c-1.28,0-2.318-0.119-2.318-0.265
							s1.038-0.265,2.318-0.265C173.775,91.981,174.813,92.1,174.813,92.246z"/>
					</g>
				</g>
			</g>
			<g>
				<polygon style="fill:#FF725E;" points="178.921,163.324 178.589,162.381 208.225,151.965 238.181,131.744 267.99,141.632 
					298.021,121.824 328.097,121.736 328.227,121.828 356.801,142.015 384.486,123.721 385.037,124.555 356.782,143.226 
					356.504,143.029 327.781,122.737 298.322,122.823 268.136,142.733 238.333,132.848 208.617,152.887 				"/>
			</g>
			<g>
				<polygon style="fill:#455A64;" points="356.959,152.627 327.785,132.796 297.718,132.796 267.634,112.941 238.464,112.679 
					208.66,142.855 179.117,142.855 179.117,141.855 208.242,141.855 238.05,111.675 267.939,111.944 298.019,131.796 
					328.093,131.796 356.625,151.192 385.122,101.117 385.991,101.611 				"/>
			</g>
		</g>
		<g>
			<g>
				<path style="fill:#263238;" d="M385.761,75.193c0,0.144-11.238,0.26-25.097,0.26c-13.864,0-25.099-0.117-25.099-0.26
					s11.235-0.26,25.099-0.26C374.523,74.932,385.761,75.049,385.761,75.193z"/>
			</g>
		</g>
		<g>
			<path style="fill:#263238;" d="M180.602,74.12h-1.822v-1.073h4.961v1.073h-1.822v4.62h-1.317V74.12z"/>
			<path style="fill:#263238;" d="M188.073,78.74l-1.098-1.586h-0.065h-1.146v1.586h-1.318v-5.693h2.464
				c1.521,0,2.473,0.789,2.473,2.065c0,0.854-0.431,1.48-1.171,1.797l1.277,1.83H188.073z M186.837,74.12h-1.073v1.984h1.073
				c0.805,0,1.212-0.374,1.212-0.992C188.049,74.486,187.642,74.12,186.837,74.12z"/>
			<path style="fill:#263238;" d="M194.829,77.682v1.057h-4.408v-5.693h4.303v1.057h-2.993v1.236h2.643v1.024h-2.643v1.318H194.829z
				"/>
			<path style="fill:#263238;" d="M201.097,73.047v5.693h-1.081l-2.839-3.457v3.457h-1.301v-5.693h1.09l2.83,3.456v-3.456H201.097z"
				/>
			<path style="fill:#263238;" d="M202.443,73.047h2.586c1.862,0,3.139,1.122,3.139,2.846s-1.277,2.847-3.139,2.847h-2.586V73.047z
				 M204.965,77.658c1.13,0,1.871-0.675,1.871-1.765c0-1.09-0.74-1.765-1.871-1.765h-1.204v3.53H204.965z"/>
		</g>
	</g>
</g>
<g id="Character">
	<g>
		<g>
			<g>
				<path style="fill:#FFBE9D;" d="M131.232,208.438l-3.516,4.395v-7.563h-11.075c0,0-1.23,17.319-0.967,21.011
					c0.264,3.692,4.395,14.239,4.395,14.239s6.241-3.428,11.163-9.756c4.922-6.328,13.1-21.744,13.1-21.744l-8.529-5.152
					L131.232,208.438z"/>
			</g>
			<g>
				<g>
					<path style="fill:#EB996E;" d="M131.932,207.626c0.054,0.05-0.517,0.772-1.447,1.932c-0.933,1.158-2.229,2.754-3.708,4.48
						c-1.482,1.725-2.877,3.245-3.962,4.275c-1.078,1.038-1.84,1.577-1.881,1.525c-0.049-0.06,0.618-0.689,1.618-1.783
						c1.008-1.086,2.351-2.636,3.83-4.356C129.311,210.237,131.806,207.51,131.932,207.626z"/>
				</g>
			</g>
		</g>
		<g>
			<g>
				<path style="fill:#FF725E;" d="M131.602,180.127c0,0-3.156-25.844-15.63-28.486l-6.462,24.841l5.369,17.915l17.811-2.431
					L131.602,180.127z"/>
			</g>
			<g>
				<path style="fill:#FF725E;" d="M49.188,197.3l0.589,1.846l12.261,38.411c0,0,30.214,11.487,41.071,6.94
					c10.857-4.547,15.883-11.008,15.883-11.008l-2.422-81.757l-17.228-2.61l-29.711-2.18l-19.902,6.384L49.188,197.3z"/>
			</g>
			<g style="opacity:0.3;">
				<g>
					<path d="M86.687,212.27c-11.153-4.607-22.088-11.606-31.413-19.264l-6.086,3.246c4.574,9.228,8.378,17.653,14.683,25.797
						c2.123,2.743,5.171,5.452,8.393,6.736c4.595,1.83,10.48,0.503,14.099-2.868c3.619-3.37,6.333-13.263,5.144-21.336
						C89.475,204.692,88.568,213.047,86.687,212.27z"/>
				</g>
			</g>
			<g>
				<g>
					<path style="fill:#263238;" d="M118.266,188.645c-0.174,0.024-0.26-3.836-2.041-8.149c-1.735-4.334-4.367-7.157-4.226-7.261
						c0.043-0.041,0.754,0.604,1.707,1.825c0.953,1.217,2.105,3.045,3.002,5.239c0.89,2.197,1.34,4.309,1.507,5.846
						C118.385,187.686,118.326,188.645,118.266,188.645z"/>
				</g>
			</g>
		</g>
		<g>
			<g>
				<path style="fill:#263238;" d="M118.218,127.625c-1.586,0.214-3.264-0.535-4.164-1.859c1.074,0.165,2.231,0.317,3.199-0.176
					c0.968-0.494,1.516-1.919,0.757-2.697c-0.592-0.607-1.568-0.502-2.414-0.564c-1.97-0.145-3.792-1.543-4.441-3.408
					c-0.716-2.057-0.061-4.3,0.196-6.463c0.747-6.276-2.237-12.856-7.451-16.429l-13.547-7.831
					c-4.913,6.288-6.445,14.763-5.426,22.677c1.019,7.914,4.376,15.354,8.412,22.238c1.176,2.006,2.428,3.996,4.088,5.625
					c1.659,1.628,3.776,2.883,6.088,3.124c0.61-1.901,0.222-4.093-1.003-5.669c3.66,0.233,7.395-1.104,10.075-3.609
					c-0.968-0.742-1.936-1.484-2.903-2.227C112.743,130.767,115.966,129.736,118.218,127.625z"/>
			</g>
			<g>
				<g>
					<g>
						<g>
							<g>
								<g>
									<g>
										<path style="fill:#FFBE9D;" d="M66.046,105.529c0.239-5.661,3.764-10.4,9.212-11.957l16.983-4.853
											c7.37-1.01,12.567,7.944,13.263,15.351c0.773,8.229,1.353,16.919,0.565,23.101c-1.584,12.431-11.016,14.296-11.016,14.296
											c-0.002-0.018,0.166,5.886,0.263,9.499l-2.767,16.192l-22.393-19.116l-4.148-42.362
											C65.996,105.469,66.034,105.811,66.046,105.529z"/>
									</g>
								</g>
							</g>
							<g>
								<g>
									<g>
										<g>
											<g>
												<g>
													<g>
														<g>
															<g>
																<g>
																	<g>
																		<g>
																			<g>
																				<g>
																					<g>
																						<g>
																							<g>
																								<g>
																									<path style="fill:#263238;" d="M103.356,113.523c0.056,0.837-0.607,1.574-1.481,1.648
																										c-0.871,0.074-1.624-0.543-1.679-1.38c-0.055-0.837,0.608-1.575,1.479-1.648
																										C102.548,112.069,103.301,112.687,103.356,113.523z"/>
																								</g>
																							</g>
																						</g>
																					</g>
																				</g>
																			</g>
																		</g>
																	</g>
																</g>
															</g>
														</g>
													</g>
												</g>
											</g>
										</g>
									</g>
								</g>
							</g>
							<g>
								<g>
									<g>
										<g>
											<g>
												<g>
													<g>
														<g>
															<g>
																<g>
																	<g>
																		<g>
																			<g>
																				<g>
																					<g>
																						<g>
																							<g>
																								<g>
																									<g>
																										<path style="fill:#263238;" d="M103.785,108.97c-0.19,0.213-1.42-0.639-3.126-0.582
																											c-1.706,0.032-2.932,0.949-3.124,0.746c-0.094-0.09,0.095-0.469,0.629-0.883
																											c0.525-0.412,1.429-0.825,2.492-0.853c1.064-0.027,1.97,0.337,2.496,0.722
																											C103.69,108.506,103.879,108.874,103.785,108.97z"/>
																									</g>
																								</g>
																							</g>
																						</g>
																					</g>
																				</g>
																			</g>
																		</g>
																	</g>
																</g>
															</g>
														</g>
													</g>
												</g>
											</g>
										</g>
									</g>
								</g>
							</g>
							<g>
								<g>
									<g>
										<g>
											<g>
												<g>
													<g>
														<g>
															<g>
																<g>
																	<g>
																		<g>
																			<g>
																				<g>
																					<g>
																						<g>
																							<g>
																								<g>
																									<path style="fill:#263238;" d="M88.406,113.543c0.056,0.837-0.608,1.574-1.48,1.647
																										c-0.871,0.073-1.624-0.543-1.679-1.38c-0.055-0.837,0.608-1.575,1.479-1.649
																										C87.598,112.088,88.351,112.706,88.406,113.543z"/>
																								</g>
																							</g>
																						</g>
																					</g>
																				</g>
																			</g>
																		</g>
																	</g>
																</g>
															</g>
														</g>
													</g>
												</g>
											</g>
										</g>
									</g>
								</g>
							</g>
							<g>
								<g>
									<g>
										<g>
											<g>
												<g>
													<g>
														<g>
															<g>
																<g>
																	<g>
																		<g>
																			<g>
																				<g>
																					<g>
																						<g>
																							<g>
																								<g>
																									<g>
																										<path style="fill:#263238;" d="M87.572,109.433c-0.191,0.213-1.422-0.639-3.128-0.582
																											c-1.706,0.032-2.932,0.949-3.123,0.746c-0.093-0.09,0.093-0.469,0.629-0.883
																											c0.525-0.412,1.429-0.825,2.492-0.854c1.063-0.027,1.97,0.337,2.497,0.722
																											C87.475,108.969,87.665,109.338,87.572,109.433z"/>
																									</g>
																								</g>
																							</g>
																						</g>
																					</g>
																				</g>
																			</g>
																		</g>
																	</g>
																</g>
															</g>
														</g>
													</g>
												</g>
											</g>
										</g>
									</g>
								</g>
							</g>
							<g>
								<g>
									<g>
										<g>
											<g>
												<g>
													<g>
														<g>
															<g>
																<g>
																	<g>
																		<g>
																			<g>
																				<g>
																					<g>
																						<g>
																							<g>
																								<g>
																									<g>
																										<path style="fill:#263238;" d="M93.292,122.689c-0.011-0.097,1.045-0.312,2.757-0.585
																											c0.434-0.059,0.844-0.158,0.909-0.457c0.093-0.318-0.104-0.782-0.331-1.283
																											c-0.442-1.042-0.905-2.135-1.391-3.28c-1.935-4.671-3.351-8.517-3.162-8.593
																											c0.189-0.076,1.911,3.648,3.847,8.319c0.467,1.152,0.913,2.25,1.338,3.301
																											c0.18,0.49,0.481,1.044,0.279,1.704c-0.107,0.329-0.42,0.576-0.697,0.659
																											c-0.277,0.094-0.522,0.106-0.737,0.126C94.375,122.745,93.301,122.786,93.292,122.689z"/>
																									</g>
																								</g>
																							</g>
																						</g>
																					</g>
																				</g>
																			</g>
																		</g>
																	</g>
																</g>
															</g>
														</g>
													</g>
												</g>
											</g>
										</g>
									</g>
								</g>
							</g>
							<g>
								<g>
									<g>
										<g>
											<g>
												<g>
													<g>
														<path style="fill:#EB996E;" d="M78.519,137.534c0,0,4.269,8.382,16.614,6.844l-0.08-2.91
															C95.053,141.468,86.916,142.236,78.519,137.534z"/>
													</g>
												</g>
											</g>
										</g>
									</g>
								</g>
							</g>
							<g>
								<g>
									<g>
										<g>
											<g>
												<g>
													<g>
														<g>
															<g>
																<g>
																	<g>
																		<g>
																			<g>
																				<g>
																					<g>
																						<path style="fill:#263238;" d="M86.86,103.279c-0.154,0.469-1.865,0.302-3.86,0.605
																							c-2.002,0.263-3.599,0.899-3.877,0.491c-0.125-0.196,0.143-0.641,0.782-1.11
																							c0.633-0.468,1.653-0.927,2.852-1.098c1.198-0.168,2.305-0.011,3.044,0.263
																							C86.544,102.703,86.925,103.057,86.86,103.279z"/>
																					</g>
																				</g>
																			</g>
																		</g>
																	</g>
																</g>
															</g>
														</g>
													</g>
												</g>
											</g>
										</g>
									</g>
								</g>
							</g>
							<g>
								<g>
									<g>
										<g>
											<g>
												<g>
													<g>
														<g>
															<g>
																<g>
																	<g>
																		<g>
																			<g>
																				<g>
																					<g>
																						<path style="fill:#263238;" d="M103.079,103.764c-0.288,0.397-1.477,0.031-2.891,0.055
																							c-1.416-0.025-2.604,0.341-2.892-0.056c-0.127-0.193,0.05-0.587,0.562-0.971
																							c0.504-0.382,1.357-0.707,2.33-0.708c0.973,0.001,1.825,0.327,2.329,0.709
																							C103.03,103.176,103.206,103.571,103.079,103.764z"/>
																					</g>
																				</g>
																			</g>
																		</g>
																	</g>
																</g>
															</g>
														</g>
													</g>
												</g>
											</g>
										</g>
									</g>
								</g>
							</g>
						</g>
					</g>
					<g>
						<g>
							<g>
								<path style="fill:#EB996E;" d="M86.888,126.023c0.198-1.023,1.215-1.831,2.253-1.757c0.763,0.055,1.464,0.55,1.827,1.222
									c0.364,0.673,0.402,1.498,0.165,2.225l-0.031,0.161c-0.677,0.792-1.88,1.097-2.838,0.689
									C87.307,128.155,86.691,127.045,86.888,126.023z"/>
							</g>
						</g>
					</g>
					<g>
						<g>
							<g>
								<g>
									<g>
										<g>
											<g>
												<g>
													<g>
														<g>
															<g>
																<path style="fill:#263238;" d="M92.341,127.875c-0.005-0.26-1.729-0.128-3.068-1.507
																	c-1.343-1.377-1.294-3.23-1.536-3.224c-0.11-0.015-0.303,0.436-0.263,1.213c0.033,0.763,0.365,1.855,1.184,2.699
																	c0.821,0.841,1.853,1.15,2.565,1.153C91.949,128.217,92.361,127.992,92.341,127.875z"/>
															</g>
														</g>
													</g>
												</g>
											</g>
										</g>
									</g>
								</g>
							</g>
						</g>
					</g>
				</g>
			</g>
			<g>
				<path style="fill:#263238;" d="M71.755,85.822c1.911-3.035,6.425-6.204,9.958-6.822c4.028-0.704,6.455-0.014,9.104,2.405
					c0,0,2.061,1.989,3.993,2.364c1.932,0.376,3.547,0.057,5.851,1.236c3.148,1.61,4.527,5.819,5.986,9.039
					c1.813,4.002,4.395,7.686,5.577,11.917s0.553,9.431-3.013,11.998c0.681-3.612,1.243-7.63-0.74-10.724
					c-1.513-2.36-4.208-3.667-6.148-5.69c-2.341-2.44-2.646-5.705-5.099-8.034C91.625,88.196,81.765,97.549,71.755,85.822"/>
			</g>
			<g>
				<path style="fill:#263238;" d="M107.325,102.737c-1.457-3.535-3.031-7.095-5.52-9.997c-3.098-3.612-7.564-6.021-12.285-6.626
					c-4.72-0.605-9.65,0.6-13.559,3.314l-0.976,0.082c3.025,3.834,7.867,6.166,12.751,6.143c2.909-0.014,6.064-0.76,8.559,0.736
					c2.398,1.437,3.307,4.456,5.281,6.437c1.343,1.348,3.146,2.177,4.45,3.563c1.382,1.47,2.086,3.435,2.753,5.339
					C109.649,108.754,108.505,105.601,107.325,102.737z"/>
			</g>
			<g>
				<path style="fill:#263238;" d="M81.298,91.845l-7.93-6.975c-6.181-0.322-10.148,5.52-12.27,10.03
					c-1.577,3.352-2.068,7.103-3.256,10.612c-1.22,3.603-3.169,6.934-4.28,10.572c-1.111,3.638-1.262,7.867,0.928,10.978
					c0.461-0.848,0.922-1.695,1.384-2.543c0.231,3.518,1.729,6.939,4.159,9.493c0.177-0.883,0.355-1.766,0.532-2.65
					c1.284,2.676,3.394,4.949,5.967,6.428l3.714,9.93C75.733,131.009,61.607,129.742,81.298,91.845z"/>
			</g>
			<g>
				<path style="fill:#263238;" d="M80.163,93.3c-0.473,2.252-0.968,4.516-1.862,6.637c-0.894,2.121-2.218,4.111-4.081,5.462
					c-2.713,1.968-6.207,2.373-9.465,3.156c-3.259,0.783-6.73,2.289-8.072,5.36c0.531-4.505,1.463-8.963,2.78-13.304
					c1.453-4.786,3.549-9.663,7.537-12.683c3.653-2.765,8.742-3.583,13.02-1.942"/>
			</g>
			<g>
				<g>
					<g>
						<g>
							<g>
								<g>
									<g>
										<g>
											<g>
												<g>
													<g>
														<g>
															<g>
																<g>
																	<g>
																		<g>
																			<g>
																				<g>
																					<g>
																						<g>
																							<g>
																								<g>
																									<path style="fill:#FFBE9D;" d="M71.728,115.154c-0.166-0.415-7.861-2.946-7.731,5.153
																										c0.127,7.868,8.019,6.093,8.028,5.867C72.034,125.948,71.728,115.154,71.728,115.154z"/>
																								</g>
																							</g>
																						</g>
																					</g>
																				</g>
																			</g>
																		</g>
																	</g>
																</g>
															</g>
														</g>
													</g>
												</g>
											</g>
										</g>
									</g>
								</g>
							</g>
						</g>
					</g>
					<g>
						<g>
							<g>
								<g>
									<g>
										<g>
											<g>
												<g>
													<g>
														<g>
															<g>
																<g>
																	<g>
																		<g>
																			<g>
																				<g>
																					<g>
																						<g>
																							<g>
																								<g>
																									<g>
																										<path style="fill:#EB996E;" d="M69.541,123.24c-0.035-0.024-0.135,0.099-0.365,0.209
																											c-0.224,0.108-0.611,0.187-1.024,0.041c-0.837-0.289-1.562-1.595-1.628-3.013
																											c-0.034-0.716,0.103-1.4,0.346-1.97c0.229-0.58,0.594-0.99,1.01-1.072c0.415-0.104,0.716,0.14,0.816,0.36
																											c0.11,0.218,0.063,0.376,0.105,0.389c0.022,0.019,0.166-0.135,0.096-0.459
																											c-0.035-0.156-0.131-0.34-0.319-0.487c-0.192-0.15-0.471-0.223-0.762-0.186
																											c-0.606,0.053-1.141,0.622-1.409,1.247c-0.3,0.628-0.471,1.398-0.433,2.202
																											c0.081,1.584,0.921,3.052,2.064,3.359c0.556,0.134,1.015-0.042,1.25-0.232
																											C69.53,123.431,69.568,123.254,69.541,123.24z"/>
																									</g>
																								</g>
																							</g>
																						</g>
																					</g>
																				</g>
																			</g>
																		</g>
																	</g>
																</g>
															</g>
														</g>
													</g>
												</g>
											</g>
										</g>
									</g>
								</g>
							</g>
						</g>
					</g>
				</g>
				<g>
					<g>
						<g>
							<g>
								<g>
									<g>
										<g>
											<g>
												<path style="fill:#FFFFFF;" d="M68.686,124.656c-0.77-0.121-1.585,0.436-1.753,1.197
													c-0.168,0.761,0.336,1.609,1.085,1.824c0.749,0.215,1.627-0.235,1.888-0.97c0.261-0.734-0.134-1.638-0.85-1.945"/>
											</g>
										</g>
									</g>
								</g>
							</g>
						</g>
					</g>
					<g>
						<g>
							<g>
								<g>
									<g>
										<g>
											<g>
												<g>
													<path style="fill:#263238;" d="M69.057,124.762c-0.044,0.048,0.521,0.258,0.737,1.036
														c0.102,0.372,0.066,0.87-0.272,1.243c-0.32,0.372-0.911,0.615-1.454,0.462c-0.541-0.159-0.913-0.678-0.987-1.164
														c-0.089-0.496,0.146-0.937,0.429-1.198c0.597-0.545,1.187-0.423,1.175-0.487c0.004-0.02-0.123-0.078-0.371-0.076
														c-0.244,0.001-0.616,0.086-0.971,0.371c-0.35,0.269-0.681,0.809-0.59,1.436c0.075,0.603,0.506,1.248,1.216,1.463
														c0.715,0.195,1.423-0.123,1.806-0.594c0.41-0.483,0.416-1.117,0.262-1.531c-0.149-0.43-0.42-0.699-0.626-0.83
														C69.202,124.761,69.063,124.744,69.057,124.762z"/>
												</g>
											</g>
										</g>
									</g>
								</g>
							</g>
						</g>
					</g>
				</g>
			</g>
			<g>
				<g>
					<path style="fill:#455A64;" d="M63.645,124.301c-0.013,0.013-0.095-0.048-0.241-0.177c-0.147-0.128-0.362-0.321-0.602-0.605
						c-0.49-0.554-1.132-1.44-1.639-2.681c-0.502-1.232-0.851-2.847-0.624-4.629c0.2-1.786,1.219-3.641,2.786-4.969
						c1.558-1.351,3.333-2.181,4.918-2.888c1.598-0.692,3.031-1.295,4.174-1.918c2.314-1.221,3.344-2.527,3.408-2.461
						c0.022,0.017-0.201,0.365-0.72,0.897c-0.521,0.528-1.36,1.217-2.507,1.885c-1.142,0.676-2.581,1.323-4.159,2.035
						c-1.563,0.724-3.29,1.555-4.772,2.842c-1.491,1.271-2.436,2.967-2.653,4.645c-0.239,1.673,0.052,3.225,0.493,4.429
						C62.422,123.145,63.745,124.229,63.645,124.301z"/>
				</g>
			</g>
			<g>
				<g>
					<path style="fill:#455A64;" d="M62.953,119.631c-0.023,0.011-0.187-0.247-0.353-0.767c-0.169-0.516-0.332-1.306-0.284-2.29
						c0.044-0.978,0.308-2.159,0.964-3.297c0.632-1.147,1.736-2.196,3.078-2.862c1.334-0.688,2.681-1.089,3.845-1.555
						c1.165-0.453,2.152-1.001,2.876-1.594c1.49-1.187,1.712-2.456,1.801-2.408c0.026,0.005,0.011,0.312-0.19,0.826
						c-0.202,0.509-0.634,1.207-1.372,1.863c-0.73,0.661-1.747,1.269-2.934,1.758c-1.178,0.499-2.514,0.915-3.785,1.573
						c-1.282,0.641-2.285,1.58-2.905,2.643c-0.636,1.05-0.924,2.155-1.011,3.081C62.509,118.483,63.061,119.605,62.953,119.631z"/>
				</g>
			</g>
			<g>
				<g>
					<path style="fill:#455A64;" d="M80.672,93.818c-0.156,0.062-0.883-2.604-3.075-5.079c-2.157-2.507-4.7-3.587-4.618-3.733
						c0.023-0.056,0.686,0.132,1.659,0.664c0.972,0.529,2.23,1.446,3.351,2.726c1.117,1.283,1.856,2.653,2.248,3.688
						C80.634,93.12,80.731,93.803,80.672,93.818z"/>
				</g>
			</g>
			<g>
				<g>
					<path style="fill:#455A64;" d="M116.834,122.742c-0.007,0.035-0.366-0.014-1.01-0.135c-0.643-0.122-1.567-0.343-2.685-0.72
						c-0.553-0.204-1.16-0.438-1.772-0.787c-0.61-0.339-1.26-0.783-1.726-1.482c-0.233-0.343-0.398-0.76-0.468-1.183
						c-0.03-0.198-0.059-0.399-0.09-0.601c-0.041-0.215-0.066-0.438-0.072-0.66c-0.026-0.895,0.218-1.774,0.48-2.625
						c0.263-0.85,0.518-1.667,0.547-2.463c0.036-0.785-0.228-1.524-0.614-2.153c-0.782-1.265-1.904-2.137-2.723-2.959
						c-0.842-0.801-1.557-1.405-2.078-1.788c-0.519-0.386-0.833-0.563-0.815-0.599c0.029-0.082,1.395,0.537,3.141,2.115
						c0.849,0.79,2.004,1.62,2.884,2.979c0.429,0.67,0.751,1.519,0.715,2.423c-0.027,0.89-0.299,1.752-0.559,2.598
						c-0.261,0.843-0.486,1.668-0.467,2.459c0.004,0.197,0.024,0.389,0.057,0.579c0.028,0.205,0.057,0.409,0.084,0.61
						c0.058,0.374,0.187,0.71,0.381,1.007c0.382,0.601,0.968,1.034,1.54,1.369c0.571,0.347,1.153,0.594,1.685,0.815
						C115.431,122.359,116.859,122.646,116.834,122.742z"/>
				</g>
			</g>
		</g>
		<g>
			<g>
				<g>
					<g>
						<g>
							<g>
								<g>
									<g>
										<polygon style="fill:#FFBE9D;" points="88.795,457.093 89.23,446.056 108.465,445.332 108.172,458.839 101.178,463.058 
																					"/>
									</g>
								</g>
							</g>
						</g>
					</g>
				</g>
			</g>
			<g>
				<g>
					<g>
						<g>
							<g>
								<g>
									<g>
										<g>
											<g>
												<g>
													<g>
														<g>
															<g>
																<g>
																	<g>
																		<g>
																			<path style="fill:#FF725E;" d="M108.592,456.326l-0.007,1.265c0,0,21.356,8.815,21.546,12.885l-42.568-0.626
																				l0.787-14.156C94.635,458.718,101.254,459.146,108.592,456.326z"/>
																		</g>
																	</g>
																</g>
															</g>
														</g>
													</g>
												</g>
											</g>
										</g>
									</g>
								</g>
							</g>
						</g>
						<g style="opacity:0.3;">
							<g>
								<g>
									<g>
										<g>
											<g>
												<g>
													<g>
														<g>
															<g>
																<g>
																	<g>
																		<g>
																			<path d="M108.592,456.326l-0.007,1.265c0,0,21.356,8.815,21.546,12.885l-42.568-0.626l0.787-14.156
																				C94.635,458.718,101.254,459.146,108.592,456.326z"/>
																		</g>
																	</g>
																</g>
															</g>
														</g>
													</g>
												</g>
											</g>
										</g>
									</g>
								</g>
							</g>
						</g>
						<g style="opacity:0.6;">
							<g>
								<g>
									<g>
										<g>
											<g>
												<g>
													<g>
														<g>
															<g>
																<g>
																	<g>
																		<g>
																			<g>
																				<path style="fill:#FFFFFF;" d="M92.593,460.286c-0.827,0.213-1.41,1.131-1.231,1.966
																					c0.179,0.835,1.107,1.436,1.938,1.237c0.831-0.198,1.564-1.279,1.293-2.089c-0.271-0.81-1.4-1.456-2.159-1.064"
																					/>
																			</g>
																		</g>
																	</g>
																</g>
															</g>
														</g>
													</g>
												</g>
											</g>
										</g>
									</g>
								</g>
							</g>
						</g>
						<g style="opacity:0.6;">
							<g>
								<g>
									<g>
										<g>
											<g>
												<g>
													<g>
														<g>
															<g>
																<g>
																	<g>
																		<g>
																			<path style="fill:#FFFFFF;" d="M87.562,469.851l0.189-3.405l40.73,1.847c0,0,1.883,0.852,1.649,2.184
																				L87.562,469.851z"/>
																		</g>
																	</g>
																</g>
															</g>
														</g>
													</g>
												</g>
											</g>
										</g>
									</g>
								</g>
							</g>
						</g>
						<g>
							<g>
								<g>
									<g>
										<g>
											<g>
												<g>
													<g>
														<g>
															<g>
																<g>
																	<g>
																		<g>
																			<g>
																				<path style="fill:#263238;" d="M108.732,457.712c-0.01,0.208-1.05,0.286-2.083,0.94
																					c-1.05,0.626-1.59,1.519-1.78,1.434c-0.191-0.043,0.137-1.281,1.401-2.05
																					C107.527,457.256,108.78,457.522,108.732,457.712z"/>
																			</g>
																		</g>
																	</g>
																</g>
															</g>
														</g>
													</g>
												</g>
											</g>
										</g>
									</g>
								</g>
							</g>
						</g>
						<g>
							<g>
								<g>
									<g>
										<g>
											<g>
												<g>
													<g>
														<g>
															<g>
																<g>
																	<g>
																		<g>
																			<g>
																				<path style="fill:#263238;" d="M113.169,459.624c0.045,0.202-0.861,0.543-1.58,1.411
																					c-0.744,0.848-0.936,1.795-1.143,1.783c-0.196,0.03-0.322-1.19,0.593-2.253
																					C111.944,459.495,113.168,459.426,113.169,459.624z"/>
																			</g>
																		</g>
																	</g>
																</g>
															</g>
														</g>
													</g>
												</g>
											</g>
										</g>
									</g>
								</g>
							</g>
						</g>
						<g>
							<g>
								<g>
									<g>
										<g>
											<g>
												<g>
													<g>
														<g>
															<g>
																<g>
																	<g>
																		<g>
																			<g>
																				<path style="fill:#263238;" d="M115.627,465.005c-0.189,0.042-0.464-1.001,0.087-2.131
																					c0.542-1.135,1.529-1.569,1.615-1.395c0.115,0.173-0.525,0.774-0.963,1.709
																					C115.906,464.112,115.834,464.988,115.627,465.005z"/>
																			</g>
																		</g>
																	</g>
																</g>
															</g>
														</g>
													</g>
												</g>
											</g>
										</g>
									</g>
								</g>
							</g>
						</g>
					</g>
				</g>
			</g>
		</g>
		<g>
			<g>
				<g>
					<g>
						<g>
							<g>
								<g>
									<g>
										<polygon style="fill:#FFBE9D;" points="71.502,457.344 71.937,446.306 91.172,445.582 90.88,459.089 83.886,463.309 
																					"/>
									</g>
								</g>
							</g>
						</g>
					</g>
				</g>
			</g>
			<g>
				<g>
					<g>
						<g>
							<g>
								<g>
									<g>
										<g>
											<g>
												<g>
													<g>
														<g>
															<g>
																<g>
																	<g>
																		<g>
																			<path style="fill:#FF725E;" d="M91.299,456.577l-0.007,1.265c0,0,21.356,8.816,21.545,12.885l-42.568-0.626
																				l0.787-14.157C77.343,458.969,83.962,459.396,91.299,456.577z"/>
																		</g>
																	</g>
																</g>
															</g>
														</g>
													</g>
												</g>
											</g>
										</g>
									</g>
								</g>
							</g>
						</g>
						<g style="opacity:0.6;">
							<g>
								<g>
									<g>
										<g>
											<g>
												<g>
													<g>
														<g>
															<g>
																<g>
																	<g>
																		<g>
																			<g>
																				<path style="fill:#FFFFFF;" d="M75.301,460.537c-0.827,0.213-1.41,1.131-1.231,1.966
																					c0.179,0.835,1.107,1.436,1.938,1.237c0.831-0.198,1.564-1.279,1.293-2.089c-0.271-0.81-1.4-1.456-2.159-1.064"
																					/>
																			</g>
																		</g>
																	</g>
																</g>
															</g>
														</g>
													</g>
												</g>
											</g>
										</g>
									</g>
								</g>
							</g>
						</g>
						<g style="opacity:0.6;">
							<g>
								<g>
									<g>
										<g>
											<g>
												<g>
													<g>
														<g>
															<g>
																<g>
																	<g>
																		<g>
																			<path style="fill:#FFFFFF;" d="M70.27,470.101l0.189-3.405l40.729,1.847c0,0,1.883,0.852,1.649,2.184
																				L70.27,470.101z"/>
																		</g>
																	</g>
																</g>
															</g>
														</g>
													</g>
												</g>
											</g>
										</g>
									</g>
								</g>
							</g>
						</g>
						<g>
							<g>
								<g>
									<g>
										<g>
											<g>
												<g>
													<g>
														<g>
															<g>
																<g>
																	<g>
																		<g>
																			<g>
																				<path style="fill:#263238;" d="M91.439,457.963c-0.01,0.208-1.05,0.286-2.083,0.94
																					c-1.05,0.626-1.59,1.519-1.78,1.434c-0.191-0.043,0.137-1.281,1.401-2.05
																					C90.234,457.506,91.487,457.773,91.439,457.963z"/>
																			</g>
																		</g>
																	</g>
																</g>
															</g>
														</g>
													</g>
												</g>
											</g>
										</g>
									</g>
								</g>
							</g>
						</g>
						<g>
							<g>
								<g>
									<g>
										<g>
											<g>
												<g>
													<g>
														<g>
															<g>
																<g>
																	<g>
																		<g>
																			<g>
																				<path style="fill:#263238;" d="M95.877,459.875c0.045,0.202-0.861,0.542-1.58,1.411
																					c-0.744,0.848-0.937,1.795-1.143,1.783c-0.196,0.03-0.322-1.19,0.593-2.253
																					C94.651,459.746,95.876,459.677,95.877,459.875z"/>
																			</g>
																		</g>
																	</g>
																</g>
															</g>
														</g>
													</g>
												</g>
											</g>
										</g>
									</g>
								</g>
							</g>
						</g>
						<g>
							<g>
								<g>
									<g>
										<g>
											<g>
												<g>
													<g>
														<g>
															<g>
																<g>
																	<g>
																		<g>
																			<g>
																				<path style="fill:#263238;" d="M98.334,465.256c-0.189,0.042-0.464-1.001,0.087-2.131
																					c0.542-1.135,1.529-1.569,1.615-1.395c0.115,0.173-0.525,0.774-0.963,1.709
																					C98.613,464.363,98.541,465.238,98.334,465.256z"/>
																			</g>
																		</g>
																	</g>
																</g>
															</g>
														</g>
													</g>
												</g>
											</g>
										</g>
									</g>
								</g>
							</g>
						</g>
					</g>
				</g>
			</g>
		</g>
		<g>
			<g>
				<path style="fill:#FFBE9D;" d="M42.609,185.326c0,0,16.002,24.804,24.404,34.805c8.401,10.001,22.203,1.2,23.803-12.402
					c1.6-13.602,1.2-38.806,1.2-38.806l-11.177-6.653l-7.226,34.408l-9.001-16.753L42.609,185.326z"/>
			</g>
			<g>
				<g>
					<path style="fill:#FFBE9D;" d="M92.016,168.924l4.801-12.002c0,0,2.251-1.092,2.835-1.639c0.704-0.659,0.566-4.962,0.366-5.762
						c-0.2-0.8,0.778-3,0.089-3.4c-0.689-0.4-2.617-0.003-2.689-0.8c-0.015-0.171,0.995-2.208-0.403-3.218
						c-0.505-0.365-2.213-0.398-2.213-0.398l-0.784-3.985c0,0-3.201-4.189-5.001-2c0,0-6.801,8.201-7.401,9.401
						c-0.6,1.2-0.776,15.1-0.776,17.701"/>
				</g>
				<g>
					<g>
						<path style="fill:#EB996E;" d="M80.839,162.821c-0.017,0-0.035-0.249-0.049-0.724c-0.007-0.525-0.015-1.215-0.027-2.078
							c-0.005-1.806,0.007-4.421,0.092-7.659c0.047-1.619,0.101-3.394,0.244-5.304c0.045-0.479,0.082-0.963,0.168-1.466
							c0.059-0.562,0.418-1.01,0.7-1.415c0.6-0.831,1.243-1.658,1.907-2.504c1.33-1.69,2.752-3.445,4.238-5.258
							c0.39-0.435,0.677-0.948,1.282-1.338c0.616-0.369,1.387-0.25,1.958,0.02c1.173,0.566,2.057,1.48,2.869,2.466l0.036,0.044
							l0.013,0.064c0.076,0.385,0.158,0.801,0.24,1.219c0.183,0.933,0.365,1.857,0.544,2.766l-0.25-0.209
							c0.528,0.018,1.039,0.057,1.562,0.159c0.261,0.06,0.525,0.109,0.808,0.299c0.22,0.178,0.435,0.382,0.565,0.641
							c0.29,0.507,0.302,1.092,0.233,1.604c-0.034,0.261-0.097,0.511-0.169,0.754l-0.111,0.352l-0.022,0.074
							c0.007-0.014-0.006-0.042,0.004-0.017c0.006,0.024,0.008,0.049,0.027,0.065c0.041,0.085,0.262,0.163,0.473,0.196
							c0.217,0.038,0.452,0.053,0.688,0.071c0.237,0.018,0.478,0.031,0.728,0.07c0.252,0.057,0.504,0.055,0.796,0.326
							c0.241,0.301,0.21,0.593,0.21,0.839c-0.013,0.252-0.048,0.49-0.091,0.72c-0.084,0.461-0.193,0.903-0.251,1.328
							c-0.026,0.217-0.039,0.403,0.002,0.584c0.052,0.247,0.067,0.464,0.089,0.691c0.036,0.447,0.052,0.885,0.06,1.32
							c0.006,0.868-0.011,1.715-0.129,2.545c-0.074,0.416-0.11,0.823-0.378,1.245c-0.328,0.389-0.67,0.523-1.005,0.744
							c-0.675,0.391-1.34,0.728-1.992,1.045l0.097-0.104c-1.496,3.643-2.718,6.618-3.589,8.74c-0.421,0.992-0.756,1.783-1.007,2.374
							c-0.236,0.541-0.369,0.822-0.388,0.815c-0.018-0.007,0.079-0.303,0.281-0.857c0.226-0.601,0.529-1.405,0.908-2.413
							c0.832-2.137,1.999-5.135,3.428-8.804l0.027-0.069l0.07-0.035c0.637-0.319,1.298-0.663,1.95-1.051
							c0.303-0.193,0.697-0.408,0.87-0.637c0.163-0.249,0.234-0.672,0.289-1.053c0.105-0.789,0.116-1.625,0.104-2.475
							c-0.011-0.425-0.03-0.857-0.068-1.287c-0.021-0.211-0.041-0.437-0.083-0.625c-0.06-0.255-0.042-0.522-0.014-0.751
							c0.061-0.467,0.169-0.911,0.247-1.354c0.041-0.221,0.071-0.441,0.08-0.652c0.013-0.205-0.017-0.428-0.09-0.492
							c-0.048-0.062-0.297-0.137-0.5-0.162c-0.217-0.033-0.451-0.046-0.689-0.062c-0.239-0.018-0.482-0.031-0.739-0.074
							c-0.246-0.057-0.553-0.082-0.802-0.403c-0.063-0.079-0.091-0.171-0.11-0.267c-0.015-0.033-0.014-0.121,0.004-0.195l0.03-0.101
							l0.108-0.345c0.066-0.225,0.122-0.452,0.151-0.679c0.061-0.45,0.038-0.919-0.177-1.284c-0.093-0.191-0.255-0.337-0.42-0.475
							c-0.135-0.095-0.376-0.162-0.605-0.208c-0.47-0.091-0.977-0.131-1.47-0.147l-0.21-0.007l-0.04-0.203
							c-0.179-0.909-0.361-1.833-0.545-2.766c-0.082-0.418-0.164-0.833-0.24-1.219l0.048,0.108
							c-0.756-0.928-1.645-1.824-2.666-2.311c-0.508-0.235-1.065-0.303-1.494-0.046c-0.409,0.244-0.765,0.78-1.144,1.215
							c-1.491,1.806-2.92,3.553-4.257,5.23c-0.668,0.839-1.316,1.661-1.913,2.474c-0.297,0.421-0.594,0.784-0.635,1.23
							c-0.085,0.469-0.128,0.952-0.176,1.422c-0.16,1.891-0.236,3.665-0.307,5.28c-0.106,3.192-0.193,5.79-0.255,7.65
							c-0.029,0.862-0.052,1.552-0.069,2.076C80.874,162.572,80.857,162.821,80.839,162.821z"/>
					</g>
				</g>
			</g>
			<g>
				<g>
					<path style="fill:#EB996E;" d="M94.8,141.704c0.017,0.088-0.832,0.211-2.102,0.632c-0.646,0.199-1.297,0.604-2.136,1.027
						c-0.867,0.408-1.895,0.533-2.908,0.687c-2.065,0.183-3.563,1.414-4.252,2.531c-0.713,1.125-0.606,2.025-0.706,2.014
						c-0.039,0.032-0.299-0.918,0.388-2.199c0.337-0.623,0.888-1.29,1.656-1.831c0.751-0.571,1.803-0.888,2.833-1.029
						c1.036-0.156,2.006-0.266,2.792-0.61c0.78-0.364,1.542-0.784,2.223-0.941C93.939,141.64,94.793,141.652,94.8,141.704z"/>
				</g>
			</g>
			<g>
				<g>
					<path style="fill:#EB996E;" d="M91.836,142.15c-0.107,0.09-0.549-0.316-0.662-1.01c-0.116-0.694,0.172-1.22,0.302-1.169
						c0.142,0.043,0.114,0.526,0.212,1.085C91.774,141.615,91.956,142.064,91.836,142.15z"/>
				</g>
			</g>
			<g>
				<g>
					<path style="fill:#EB996E;" d="M97.706,145.412c0.037,0.128-2.762,0.892-6.316,0.924c-0.889,0.009-1.716-0.051-2.347,0.23
						c-0.63,0.269-1.034,0.824-1.256,1.31c-0.425,1.015-0.36,1.769-0.457,1.759c-0.04,0.01-0.258-0.73,0.116-1.897
						c0.203-0.562,0.623-1.241,1.4-1.61c0.779-0.368,1.686-0.298,2.538-0.313C94.875,145.785,97.676,145.26,97.706,145.412z"/>
				</g>
			</g>
			<g>
				<g>
					<path style="fill:#EB996E;" d="M99.652,148.907c0.014,0.065-0.56,0.258-1.524,0.354c-0.962,0.109-2.292,0.071-3.726,0.114
						c-0.717,0.031-1.398,0.073-1.964,0.244c-0.572,0.164-1.01,0.461-1.269,0.814c-0.548,0.725-0.322,1.356-0.399,1.363
						c-0.028,0.012-0.131-0.115-0.181-0.4c-0.045-0.281,0.002-0.724,0.275-1.169c0.263-0.451,0.792-0.858,1.428-1.064
						c0.639-0.22,1.357-0.275,2.09-0.308c1.475-0.043,2.782,0.052,3.726,0.038C99.052,148.893,99.637,148.832,99.652,148.907z"/>
				</g>
			</g>
			<g>
				<g>
					<path style="fill:#EB996E;" d="M97.872,152.435c0.101,0.045-0.431,0.936-1.717,1.225l0.204-0.277
						c0.025,0.231,0.05,0.453,0.075,0.68c0.147,1.508,0.15,2.738,0.007,2.749c-0.143,0.011-0.378-1.195-0.524-2.693
						c-0.019-0.227-0.038-0.448-0.058-0.679l-0.02-0.24l0.225-0.037C97.153,152.986,97.782,152.339,97.872,152.435z"/>
				</g>
			</g>
		</g>
		<g>
			<g>
				<path style="fill:#263238;" d="M118.949,232.027c0,0,14.234,31.418,14.234,51.067c0,19.65-14.035,83.901-14.035,83.901
					s-1.871,17.778-3.743,41.483s-7.174,43.978-7.174,43.978H94.195l0,0l-22.769,0.624c0,0-9.669-39.611-9.045-54.583
					c0.624-14.971,3.119-32.126,3.119-32.126s-12.164-49.592-14.347-58.637c-0.856-3.545-1.242-10.298-1.316-17.482
					c-0.153-14.79,2.609-29.466,8.031-43.227l3.973-10.084L118.949,232.027z"/>
			</g>
			<g>
				<g>
					<path style="fill:#455A64;" d="M97.963,294.846c-0.154-0.007-1.846,35.166-3.777,78.55
						c-1.933,43.399-3.374,78.575-3.219,78.582c0.154,0.007,1.845-35.158,3.778-78.557
						C96.676,330.037,98.117,294.853,97.963,294.846z"/>
				</g>
			</g>
			<g>
				<g>
					<path style="fill:#455A64;" d="M101.031,280.797c0.038,0.005,0.147-0.613,0.311-1.738c0.171-1.123,0.356-2.757,0.526-4.782
						c0.345-4.047,0.518-9.676,0.098-15.869c-0.43-6.194-1.37-11.747-2.265-15.709c-0.445-1.982-0.851-3.576-1.174-4.665
						c-0.316-1.091-0.508-1.689-0.545-1.679c-0.037,0.01,0.084,0.627,0.334,1.732c0.258,1.104,0.604,2.707,0.998,4.692
						c0.793,3.97,1.666,9.503,2.094,15.666c0.418,6.162,0.308,11.762,0.065,15.803c-0.119,2.021-0.243,3.656-0.347,4.785
						C101.028,280.165,100.992,280.793,101.031,280.797z"/>
				</g>
			</g>
			<g>
				<g>
					<path style="fill:#455A64;" d="M53.204,262.303c-0.015,0.021,0.297,0.292,0.976,0.591c0.676,0.293,1.744,0.562,3.072,0.514
						c2.664-0.073,6.186-1.433,9.394-3.831c3.226-2.413,5.367-5.471,6.495-7.822c0.582-1.174,0.932-2.177,1.145-2.875
						c0.192-0.706,0.28-1.098,0.243-1.109c-0.108-0.036-0.505,1.537-1.738,3.803c-1.198,2.264-3.335,5.205-6.481,7.557
						c-3.129,2.339-6.535,3.717-9.078,3.882C54.649,263.214,53.234,262.188,53.204,262.303z"/>
				</g>
			</g>
			<g>
				<g>
					<path style="fill:#455A64;" d="M111.99,243.593c-0.037,0.011,0.047,0.366,0.231,1.001c0.174,0.638,0.504,1.538,0.981,2.62
						c0.945,2.166,2.637,5.02,5.113,7.67c2.486,2.643,5.225,4.516,7.325,5.599c1.049,0.546,1.926,0.934,2.551,1.148
						c0.621,0.225,0.97,0.331,0.984,0.295c0.038-0.094-1.32-0.625-3.344-1.789c-2.023-1.157-4.669-3.042-7.108-5.635
						c-2.429-2.601-4.139-5.363-5.163-7.456C112.528,244.951,112.086,243.562,111.99,243.593z"/>
				</g>
			</g>
			<g>
				<g>
					<path style="fill:#455A64;" d="M91.911,242.88c0.046,0.001,0.063-0.217,0.182-0.57c0.117-0.347,0.375-0.843,0.902-1.214
						c0.51-0.373,1.326-0.568,2.102-0.268c0.77,0.277,1.427,1.097,1.419,2.051c0.009,0.954-0.648,1.775-1.419,2.052
						c-0.776,0.3-1.592,0.105-2.102-0.268c-0.527-0.371-0.785-0.867-0.902-1.214C91.974,243.096,91.957,242.879,91.911,242.88
						c-0.03-0.002-0.091,0.219-0.029,0.623c0.061,0.395,0.288,0.994,0.874,1.475c0.565,0.481,1.544,0.779,2.517,0.438
						c0.964-0.309,1.814-1.333,1.802-2.536c0.012-1.203-0.838-2.226-1.802-2.535c-0.973-0.341-1.952-0.044-2.517,0.437
						c-0.586,0.481-0.813,1.081-0.874,1.475C91.82,242.66,91.881,242.881,91.911,242.88z"/>
				</g>
			</g>
			<g>
				<g>
					<path style="fill:#455A64;" d="M72.495,365.46c-0.075,0.135,3.304,2.153,7.546,4.507c4.244,2.355,7.743,4.154,7.818,4.019
						c0.075-0.135-3.303-2.153-7.547-4.508C76.071,367.125,72.57,365.326,72.495,365.46z"/>
				</g>
			</g>
		</g>
		<g>
			<g>
				<g>
					<g>
						<path style="fill:#E0E0E0;" d="M132.454,168.078c-4.345,6.604-21.938,33.355-27.14,41.266
							c-0.574,0.873,0.141,2.013,1.177,1.882l31.254-3.932c0.334-0.042,0.636-0.22,0.834-0.491l29.853-40.772
							c0.617-0.842-0.037-2.02-1.077-1.943l-32.158,2.379C134.081,166.55,133.069,167.143,132.454,168.078z"/>
					</g>
					<g>
						<g>
							<path style="fill:#263238;" d="M132.454,168.078c0,0,0.064-0.14,0.249-0.375c0.187-0.23,0.499-0.562,1.011-0.852
								c0.5-0.309,1.245-0.475,2.082-0.506c0.846-0.07,1.818-0.149,2.908-0.239c4.403-0.345,10.73-0.842,18.538-1.454
								c1.958-0.15,4.008-0.307,6.144-0.471c1.068-0.082,2.158-0.165,3.268-0.249c0.289-0.016,0.531-0.053,0.862-0.053
								c0.329,0.007,0.656,0.148,0.899,0.373c0.501,0.44,0.629,1.267,0.237,1.836c-2.722,3.734-5.63,7.722-8.69,11.918
								c-6.129,8.381-12.864,17.591-19.934,27.259c-0.454,0.612-0.858,1.189-1.349,1.825c-0.154,0.165-0.345,0.296-0.556,0.376
								c-0.22,0.087-0.437,0.096-0.606,0.12l-1.102,0.139c-1.468,0.184-2.926,0.367-4.373,0.549
								c-2.895,0.363-5.747,0.72-8.549,1.072c-5.605,0.7-11.012,1.375-16.163,2.018c-0.335,0.036-0.613,0.089-0.992,0.111
								c-0.383,0.005-0.773-0.156-1.036-0.431c-0.271-0.27-0.424-0.646-0.428-1.028c-0.015-0.375,0.204-0.776,0.376-1.001
								c0.696-1.055,1.383-2.097,2.061-3.123c1.355-2.052,2.67-4.044,3.942-5.97c2.545-3.849,4.916-7.435,7.083-10.712
								c4.333-6.525,7.843-11.811,10.286-15.49c1.213-1.806,2.16-3.216,2.819-4.197c0.316-0.461,0.563-0.821,0.744-1.084
								C132.355,168.195,132.446,168.073,132.454,168.078c0.007,0.005-0.068,0.137-0.224,0.389c-0.17,0.27-0.403,0.639-0.701,1.113
								c-0.64,0.993-1.559,2.422-2.737,4.251c-2.41,3.7-5.874,9.018-10.148,15.581c-2.15,3.287-4.504,6.885-7.03,10.746
								c-1.265,1.931-2.573,3.928-3.92,5.985c-0.674,1.028-1.358,2.072-2.051,3.129c-0.2,0.28-0.288,0.47-0.296,0.742
								c0.004,0.254,0.108,0.512,0.293,0.695c0.18,0.187,0.436,0.29,0.696,0.288c0.265-0.014,0.625-0.074,0.935-0.109
								c5.15-0.653,10.556-1.338,16.16-2.048c2.802-0.354,5.654-0.714,8.549-1.079c1.447-0.182,2.905-0.366,4.373-0.551l1.103-0.139
								c0.197-0.027,0.358-0.035,0.484-0.089c0.137-0.052,0.261-0.137,0.36-0.244c0.436-0.591,0.873-1.184,1.311-1.779
								c7.082-9.66,13.828-18.862,19.967-27.235c3.068-4.179,5.984-8.151,8.715-11.87c0.277-0.397,0.191-0.973-0.163-1.29
								c-0.172-0.159-0.394-0.259-0.629-0.264c-0.231-0.003-0.546,0.034-0.813,0.049c-1.111,0.079-2.201,0.158-3.269,0.234
								c-2.137,0.152-4.188,0.298-6.146,0.438c-7.813,0.543-14.145,0.983-18.551,1.289c-1.092,0.072-2.064,0.136-2.912,0.192
								c-0.852,0.017-1.539,0.157-2.043,0.443C132.756,167.503,132.485,168.116,132.454,168.078z"/>
						</g>
					</g>
				</g>
				<g>
					<g>
						<path style="fill:#263238;" d="M168.433,166.031c0.001,0.016-0.223,0.049-0.655,0.097c-0.476,0.048-1.106,0.112-1.897,0.191
							c-1.704,0.151-4.097,0.364-7.063,0.627c-6.059,0.495-14.452,1.18-24.018,1.961l0.191-0.111
							c-1.503,2.234-3.055,4.553-4.611,6.949c-6.338,9.743-11.874,18.698-16.056,25.07c-2.079,3.194-3.807,5.748-5.01,7.506
							c-0.591,0.842-1.061,1.511-1.41,2.008c-0.327,0.456-0.506,0.69-0.521,0.68c-0.015-0.01,0.135-0.264,0.434-0.739
							c0.329-0.511,0.771-1.198,1.328-2.062c1.177-1.835,2.834-4.419,4.869-7.593c4.101-6.419,9.586-15.403,15.93-25.155
							c1.558-2.398,3.115-4.718,4.625-6.951l0.069-0.102l0.122-0.009c9.572-0.71,17.97-1.333,24.032-1.783
							c2.971-0.199,5.368-0.36,7.075-0.475c0.794-0.044,1.426-0.078,1.904-0.105C168.205,166.018,168.432,166.016,168.433,166.031z"
							/>
					</g>
				</g>
				<g>
					<g>
						<path style="fill:#FFFFFF;" d="M149.055,171.861c0,0,0.001,0,0.001,0c0.005-0.001,0.008-0.003,0.012-0.004L149.055,171.861z"
							/>
					</g>
					<g>
						<path style="fill:#FFFFFF;" d="M149.829,172.327c-0.078-0.372-0.429-0.526-0.773-0.466c-0.37,0.11-0.56,0.197-0.838,0.471
							c-0.282,0.278-0.401,0.763-0.153,1.071c0.312,0.386,0.954,0.244,1.33-0.08C149.683,173.075,149.907,172.699,149.829,172.327z"
							/>
					</g>
				</g>
			</g>
			<g>
				<path style="fill:#FFBE9D;" d="M135.23,195.455c0,0-1.233-2.941,1.897-3.32c3.13-0.379,11.348,0,11.348,0
					s4.493,0.474,3.545,3.699c0,0,2.656,2.372,1.233,4.933c-1.423,2.561-1.992,1.802-1.992,1.802s0.379,3.13-1.992,3.605
					c0,0-2.571,3.035-4.938,2.846c-2.366-0.19-12.421-5.027-13.085-5.976c-0.664-0.949-1.613-1.488-1.044-2.546
					c0,0-1.233-2.776,1.423-3.198C131.626,197.3,131.815,194.981,135.23,195.455z"/>
			</g>
			<g>
				<g>
					<path style="fill:#EB996E;" d="M149.493,196.518c-0.001,0.072-0.809,0.125-2.115,0.152c-1.305,0.027-3.108,0.029-5.099-0.002
						c-1.987-0.066-3.794,0.011-5.122-0.305c-1.35-0.313-1.88-1.105-1.816-1.122c0.055-0.067,0.625,0.565,1.892,0.762
						c1.242,0.208,3.066,0.08,5.054,0.144c1.991,0.03,3.793,0.087,5.097,0.154C148.688,196.368,149.494,196.446,149.493,196.518z"/>
				</g>
			</g>
			<g>
				<g>
					<path style="fill:#EB996E;" d="M147.251,201.259c0.008,0.028-0.227,0.139-0.68,0.235c-0.452,0.098-1.127,0.173-1.956,0.121
						c-0.829-0.049-1.805-0.223-2.853-0.517c-1.05-0.29-2.167-0.693-3.346-1.055c-1.178-0.364-2.317-0.626-3.367-0.694
						c-1.024-0.046-2.133-0.019-2.868-0.58c-0.363-0.258-0.612-0.614-0.684-0.977c-0.07-0.357,0.002-0.67,0.118-0.888
						c0.248-0.452,0.584-0.478,0.575-0.453c0.026,0.04-0.243,0.136-0.39,0.535c-0.163,0.384-0.077,1.086,0.587,1.478
						c0.639,0.436,1.587,0.386,2.687,0.405c1.106,0.045,2.296,0.306,3.493,0.676c1.169,0.384,2.284,0.75,3.327,1.092
						c1.02,0.313,1.956,0.518,2.751,0.611C146.244,201.445,147.234,201.169,147.251,201.259z"/>
				</g>
			</g>
			<g>
				<g>
					<path style="fill:#EB996E;" d="M143.89,205.27c-0.019,0.068-0.826-0.084-2.112-0.409c-1.285-0.324-3.047-0.827-4.969-1.456
						c-1.923-0.63-3.641-1.266-4.869-1.764c-1.229-0.498-1.97-0.853-1.945-0.919c0.053-0.138,3.143,0.937,6.976,2.189
						C140.801,204.167,143.929,205.127,143.89,205.27z"/>
				</g>
			</g>
			<g>
				<g>
					<path style="fill:#EB996E;" d="M144.696,208.992c-0.009,0.063-0.687,0.036-1.752-0.202c-1.066-0.232-2.5-0.721-4.005-1.41
						c-1.508-0.686-2.823-1.386-3.775-1.891c-0.95-0.509-1.531-0.841-1.501-0.908c0.066-0.155,2.526,0.928,5.491,2.325
						C142.113,208.326,144.715,208.856,144.696,208.992z"/>
				</g>
			</g>
		</g>
		<g>
			<g>
				<path style="fill:#FF725E;" d="M49.729,153.326c0,0-12.859,5.355-9.668,22.371c3.191,17.016,4.854,22.698,4.854,22.698
					l25.35-13.339L49.729,153.326z"/>
			</g>
			<g>
				<g>
					<path style="fill:#263238;" d="M69.727,185.339c0.017,0.031-0.313,0.244-0.926,0.602c-0.613,0.358-1.508,0.86-2.619,1.472
						c-2.223,1.223-5.311,2.881-8.737,4.684c-3.427,1.803-6.543,3.41-8.811,4.55c-1.134,0.57-2.055,1.023-2.698,1.326
						c-0.642,0.303-1.005,0.455-1.022,0.423c-0.017-0.032,0.314-0.245,0.928-0.603c0.613-0.358,1.508-0.86,2.62-1.472
						c2.223-1.223,5.31-2.88,8.736-4.683c3.425-1.802,6.54-3.408,8.807-4.548c1.134-0.57,2.056-1.023,2.698-1.326
						C69.346,185.46,69.71,185.307,69.727,185.339z"/>
				</g>
			</g>
			<g>
				<g>
					<path style="fill:#263238;" d="M69.727,185.339c-0.068,0.032-0.57-0.883-1.385-2.357c-0.91-1.623-2.007-3.578-3.22-5.74
						c-1.222-2.16-2.327-4.112-3.244-5.733c-0.817-1.476-1.294-2.406-1.232-2.443c0.062-0.036,0.65,0.827,1.549,2.255
						c0.898,1.429,2.106,3.423,3.38,5.663c1.273,2.239,2.362,4.304,3.094,5.828C69.403,184.336,69.789,185.309,69.727,185.339z"/>
				</g>
			</g>
		</g>
	</g>
</g>
</svg>
