<?xml version="1.0" encoding="utf-8"?>
<!-- Generator: Adobe Illustrator 27.5.0, SVG Export Plug-In . SVG Version: 6.00 Build 0)  -->
<svg version="1.1" xmlns="http://www.w3.org/2000/svg" xmlns:xlink="http://www.w3.org/1999/xlink" x="0px" y="0px"
	 viewBox="0 0 500 500" style="enable-background:new 0 0 500 500;" xml:space="preserve">
<g id="Background_Complete">
	<g>
		<path style="fill:#EBEBEB;" d="M259.787,49.04c-5.629-2.658-11.887-2.958-15.866-2.352c-3.727,0.567-9.122,1.989-13.66,5.544
			c-2.818,2.208-4.917,4.958-6.237,8.174c-1.564,3.809-2.04,8.3-1.417,13.349c0.094,0.757,0.481,1.429,1.09,1.891
			c0.613,0.464,1.368,0.656,2.128,0.541l9.772-1.487c1.379-0.21,2.407-1.419,2.393-2.812c-0.033-3.13,1.001-8.566,8.294-9.805
			c5.559-0.941,8.468,2.74,9.463,4.368c1.618,2.648,1.827,6.049,0.559,9.097c-1.948,4.683-6.632,6.067-9.25,6.475
			c-3.011,0.469-5.09,3.288-4.634,6.283l1.6,10.515c0.234,1.536,1.673,2.595,3.208,2.361l9.521-1.449
			c1.536-0.234,2.595-1.673,2.361-3.208l-0.336-2.209c-0.008-0.053,0.018-0.104,0.066-0.129c2.042-1.085,5.944-3.549,9.14-7.866
			c4.08-5.51,5.579-12.05,4.455-19.436C270.83,56.314,264.671,51.346,259.787,49.04z"/>
		<path style="fill:#EBEBEB;" d="M252.868,103.033l-0.833,0.127c-3.982,0.606-6.728,4.338-6.122,8.32
			c0.606,3.982,4.338,6.728,8.32,6.122l0.833-0.127c3.982-0.606,6.728-4.338,6.122-8.32
			C260.582,105.173,256.85,102.427,252.868,103.033z"/>
	</g>
	<g>
		<path style="fill:#EBEBEB;" d="M63.671,218.782c-2.828-3.537-6.821-5.734-9.615-6.611c-2.616-0.821-6.596-1.617-10.698-0.745
			c-2.548,0.542-4.798,1.668-6.689,3.347c-2.24,1.989-3.987,4.771-5.194,8.269c-0.181,0.525-0.143,1.087,0.108,1.584
			c0.252,0.499,0.684,0.866,1.218,1.034l6.86,2.154c0.968,0.304,2.027-0.157,2.463-1.072c0.979-2.056,3.393-5.277,8.555-3.754
			c3.933,1.163,4.657,4.499,4.786,5.88c0.21,2.248-0.741,4.537-2.544,6.123c-2.77,2.437-6.273,1.843-8.115,1.273
			c-2.118-0.656-4.377,0.521-5.037,2.624l-2.317,7.382c-0.338,1.078,0.263,2.23,1.341,2.569l6.684,2.098
			c1.078,0.338,2.23-0.263,2.569-1.341l0.487-1.551c0.012-0.037,0.045-0.062,0.085-0.063c1.681-0.056,5.019-0.419,8.488-2.217
			c4.428-2.296,7.498-6.09,9.126-11.275C68.56,227.066,66.124,221.851,63.671,218.782z"/>
		<path style="fill:#EBEBEB;" d="M41.884,251.849l-0.585-0.184c-2.796-0.878-5.784,0.683-6.661,3.478
			c-0.877,2.796,0.683,5.784,3.478,6.661l0.585,0.184c2.795,0.877,5.784-0.683,6.661-3.478
			C46.24,255.715,44.679,252.727,41.884,251.849z"/>
	</g>
	<g>
		<g>
			<g>
				<g>
					<path style="fill:#EBEBEB;" d="M360.048,458.38c24.338-1.057,55.213-8.829,74.094-24.711
						C408.081,434.344,381.727,443.133,360.048,458.38"/>
				</g>
			</g>
		</g>
		<g>
			<g>
				<g>
					<path style="fill:#EBEBEB;" d="M376.98,429.596c24.338-1.057,55.212-8.829,74.094-24.71
						C425.014,405.56,398.659,414.349,376.98,429.596"/>
				</g>
			</g>
		</g>
		<g>
			<g>
				<g>
					<path style="fill:#EBEBEB;" d="M395.182,402.178c24.338-1.057,55.212-8.829,74.094-24.71
						C443.216,378.142,416.861,386.931,395.182,402.178"/>
				</g>
			</g>
		</g>
		<g>
			<g>
				<g>
					<path style="fill:#EBEBEB;" d="M415.494,373.896c24.211-4.035,54.055-15.472,70.802-33.403
						C460.31,344.363,435.126,356.244,415.494,373.896"/>
				</g>
			</g>
		</g>
		<g>
			<g>
				<g>
					<path style="fill:#EBEBEB;" d="M433.349,353.028c21.497-12.303,45.455-33.293,54.374-55.449
						C464.468,310.369,445.128,330.091,433.349,353.028"/>
				</g>
			</g>
		</g>
		<g>
			<g>
				<g>
					<path style="fill:#EBEBEB;" d="M424.694,362.893c6.62-24.145,8.676-56.604-1.039-79.625
						C416.115,308.992,416.484,337.313,424.694,362.893"/>
				</g>
			</g>
		</g>
		<g>
			<g>
				<g>
					<path style="fill:#EBEBEB;" d="M407.471,385.964c4.692-25.61,3.857-59.505-8.399-82.672
						C393.565,330.614,396.552,360.019,407.471,385.964"/>
				</g>
			</g>
		</g>
		<g>
			<g>
				<g>
					<path style="fill:#EBEBEB;" d="M386.947,414.259c4.692-25.61,3.857-59.505-8.399-82.672
						C373.041,358.91,376.028,388.315,386.947,414.259"/>
				</g>
			</g>
		</g>
		<g>
			<g>
				<g>
					<path style="fill:#EBEBEB;" d="M365.069,450.109c4.692-25.61,3.857-59.505-8.399-82.672
						C351.163,394.76,354.15,424.165,365.069,450.109"/>
				</g>
			</g>
		</g>
		<g>
			<g>
				<g>
					<g>
						<path style="fill:#E0E0E0;" d="M356.731,463.349c-3.525,6.51-6.287,11.826-8.115,15.54c-0.885,1.803-1.586,3.231-2.101,4.279
							c-0.211,0.451-0.384,0.82-0.525,1.123c-0.114,0.255-0.165,0.39-0.151,0.397c0.014,0.007,0.094-0.113,0.235-0.354
							c0.164-0.291,0.363-0.647,0.607-1.081c0.552-1.028,1.304-2.429,2.254-4.198c1.925-3.661,4.773-8.927,8.368-15.391
							c3.576-6.474,7.996-14.092,13.026-22.477c5.074-8.359,10.798-17.462,17.04-26.864c12.512-18.781,24.754-35.156,33.894-46.784
							c4.569-5.815,8.317-10.485,10.944-13.681c1.262-1.563,2.261-2.8,2.994-3.708c0.306-0.394,0.556-0.715,0.761-0.979
							c0.167-0.224,0.247-0.344,0.235-0.354c-0.012-0.01-0.116,0.089-0.307,0.293c-0.224,0.248-0.497,0.55-0.831,0.921
							c-0.766,0.881-1.809,2.081-3.127,3.598c-2.714,3.126-6.541,7.736-11.18,13.505c-9.279,11.535-21.622,27.872-34.151,46.679"/>
					</g>
				</g>
			</g>
		</g>
	</g>
	<g>
		<g>
			<g>
				<g>
					<path style="fill:#EBEBEB;" d="M314.727,294.99c8.883-21.93,14.47-52.343,8.055-75.432
						C312.865,242.855,310,269.685,314.727,294.99"/>
				</g>
			</g>
		</g>
		<g>
			<g>
				<g>
					<path style="fill:#EBEBEB;" d="M296.125,268.419c8.883-21.93,14.47-52.343,8.055-75.432
						C294.263,216.285,291.398,243.115,296.125,268.419"/>
				</g>
			</g>
		</g>
		<g>
			<g>
				<g>
					<path style="fill:#EBEBEB;" d="M279.243,241.277c8.883-21.93,14.47-52.343,8.055-75.432
						C277.381,189.143,274.516,215.973,279.243,241.277"/>
				</g>
			</g>
		</g>
		<g>
			<g>
				<g>
					<path style="fill:#EBEBEB;" d="M262.448,211.923c6.201-23.018,8.134-54-0.953-76.03
						C254.432,160.415,254.771,187.457,262.448,211.923"/>
				</g>
			</g>
		</g>
		<g>
			<g>
				<g>
					<path style="fill:#EBEBEB;" d="M251.213,187.73c-2.198-23.956-11.081-53.59-27.058-70.408
						C226.074,143.029,235.698,168.072,251.213,187.73"/>
				</g>
			</g>
		</g>
		<g>
			<g>
				<g>
					<path style="fill:#EBEBEB;" d="M256.437,199.356c-18.662-15.588-46.512-30.498-70.77-31.2
						C205.353,185.194,230.525,196.292,256.437,199.356"/>
				</g>
			</g>
		</g>
		<g>
			<g>
				<g>
					<path style="fill:#EBEBEB;" d="M269.874,223.88c-20.734-14.476-51.019-27.41-76.431-25.927
						C215.361,213.84,242.547,223.062,269.874,223.88"/>
				</g>
			</g>
		</g>
		<g>
			<g>
				<g>
					<path style="fill:#EBEBEB;" d="M286.595,253.426c-20.734-14.476-51.019-27.41-76.431-25.927
						C232.083,243.387,259.268,252.609,286.595,253.426"/>
				</g>
			</g>
		</g>
		<g>
			<g>
				<g>
					<path style="fill:#EBEBEB;" d="M309.445,287.217c-20.735-14.476-51.019-27.41-76.431-25.927
						C254.932,277.178,282.118,286.4,309.445,287.217"/>
				</g>
			</g>
		</g>
		<g>
			<g>
				<g>
					<g>
						<path style="fill:#E0E0E0;" d="M317.779,299.925c4.329,5.74,7.912,10.325,10.457,13.438c1.236,1.51,2.215,2.705,2.933,3.582
							c0.314,0.369,0.57,0.67,0.78,0.917c0.18,0.204,0.278,0.303,0.29,0.293c0.012-0.01-0.062-0.128-0.218-0.35
							c-0.191-0.262-0.425-0.582-0.71-0.973c-0.685-0.902-1.62-2.132-2.8-3.685c-2.458-3.177-5.962-7.818-10.223-13.601
							c-4.277-5.771-9.225-12.749-14.605-20.576c-5.339-7.855-11.073-16.583-16.862-25.892
							c-11.547-18.63-21.077-36.052-27.664-48.818c-3.295-6.383-5.909-11.577-7.673-15.188c-0.872-1.745-1.562-3.127-2.068-4.141
							c-0.224-0.429-0.408-0.78-0.558-1.067c-0.13-0.238-0.204-0.357-0.218-0.351c-0.014,0.007,0.032,0.138,0.135,0.39
							c0.129,0.298,0.286,0.661,0.478,1.105c0.469,1.032,1.109,2.438,1.917,4.214c1.668,3.659,4.197,8.899,7.422,15.325
							c6.448,12.851,15.904,30.346,27.467,49.002"/>
					</g>
				</g>
			</g>
		</g>
	</g>
	<g>
		<path style="fill:#EBEBEB;" d="M484.156,209.136c-4.096-4.869-9.782-7.816-13.737-8.95c-3.704-1.062-9.322-2.041-15.054-0.673
			c-3.56,0.85-6.682,2.51-9.279,4.935c-3.077,2.872-5.434,6.841-7.007,11.797c-0.236,0.743-0.163,1.532,0.207,2.221
			c0.371,0.693,0.991,1.193,1.747,1.41l9.712,2.785c1.37,0.393,2.841-0.292,3.422-1.592c1.304-2.922,4.582-7.532,11.886-5.573
			c5.566,1.496,6.699,6.156,6.929,8.092c0.374,3.15-0.882,6.399-3.359,8.69c-3.806,3.52-8.747,2.809-11.354,2.072
			c-2.998-0.848-6.131,0.885-6.984,3.862l-2.997,10.451c-0.438,1.526,0.448,3.124,1.974,3.562l9.462,2.713
			c1.526,0.438,3.124-0.448,3.561-1.974l0.63-2.196c0.015-0.053,0.061-0.089,0.117-0.092c2.359-0.138,7.035-0.763,11.845-3.411
			c6.14-3.38,10.32-8.816,12.425-16.157C491.314,220.601,487.71,213.36,484.156,209.136z"/>
		<path style="fill:#EBEBEB;" d="M454.709,256.346l-0.828-0.237c-3.957-1.135-8.1,1.161-9.235,5.119
			c-1.135,3.957,1.161,8.1,5.119,9.235l0.828,0.237c3.957,1.135,8.1-1.161,9.235-5.119
			C460.963,261.624,458.666,257.481,454.709,256.346z"/>
	</g>
	<g>
		<path style="fill:#EBEBEB;" d="M163.679,294.647c-4.717-3.529-10.462-4.991-14.266-5.182c-3.563-0.179-8.834,0.119-13.714,2.557
			c-3.031,1.514-5.497,3.667-7.329,6.399c-2.17,3.236-3.462,7.31-3.839,12.109c-0.057,0.72,0.175,1.416,0.653,1.959
			c0.48,0.546,1.145,0.867,1.871,0.904l9.341,0.47c1.318,0.066,2.501-0.86,2.751-2.155c0.562-2.909,2.548-7.753,9.545-7.522
			c5.332,0.179,7.333,4.142,7.947,5.84c0.999,2.762,0.55,5.954-1.202,8.541c-2.692,3.973-7.296,4.371-9.801,4.254
			c-2.881-0.134-5.341,2.086-5.485,4.949l-0.506,10.052c-0.074,1.468,1.06,2.722,2.528,2.796l9.102,0.458
			c1.468,0.074,2.722-1.06,2.796-2.528l0.106-2.112c0.002-0.051,0.036-0.093,0.086-0.108c2.098-0.62,6.182-2.166,9.962-5.564
			c4.825-4.337,7.452-10.117,7.807-17.178C172.541,303.48,167.77,297.709,163.679,294.647z"/>
		<path style="fill:#EBEBEB;" d="M147.05,343.399l-0.796-0.04c-3.806-0.191-7.059,2.749-7.25,6.556
			c-0.192,3.806,2.749,7.059,6.556,7.251l0.796,0.04c3.806,0.191,7.059-2.749,7.251-6.556
			C153.798,346.843,150.857,343.591,147.05,343.399z"/>
	</g>
	<g>
		<path style="fill:#EBEBEB;" d="M115.109,472.678h8.641c5.085-18.12,7.532-38.284,4.202-55.141
			C120.152,434.436,115.782,453.472,115.109,472.678z"/>
		<path style="fill:#EBEBEB;" d="M113.472,388.591c-10.624,23.016-14.907,49.993-12.104,75.972c0.096,0.204,0.194,0.409,0.291,0.613
			C111.266,443.22,118.207,412.563,113.472,388.591z"/>
		<path style="fill:#EBEBEB;" d="M90.675,356.202c-7.787,23.73-9.228,50.258-4.155,74.979c0.313,0.75,0.634,1.517,0.96,2.29
			C94.511,410.29,97.945,379.103,90.675,356.202z"/>
		<path style="fill:#EBEBEB;" d="M75.819,404.75c-0.084-0.265-0.12-0.403-0.106-0.409c0.014-0.006,0.077,0.121,0.187,0.374
			c0.126,0.305,0.281,0.677,0.469,1.132c0.152,0.385,0.33,0.838,0.521,1.323c0.344,0.554,0.674,1.118,1.026,1.665
			c-0.709-24.757-7.443-55.766-21.658-74.044c0.33,25.481,7.461,50.763,20.076,71.477c-0.041-0.115-0.087-0.244-0.125-0.351
			C76.053,405.448,75.925,405.065,75.819,404.75z"/>
		<path style="fill:#EBEBEB;" d="M81.78,421.015c-0.073-0.187-0.144-0.371-0.215-0.556c-16.842-16.961-42.089-33.62-64.813-35.825
			C34.375,403.26,57.489,416.182,81.78,421.015z"/>
		<path style="fill:#EBEBEB;" d="M93.568,447.148c-0.093-0.08-0.191-0.16-0.285-0.24c0.032,0.072,0.065,0.145,0.097,0.217
			C93.443,447.132,93.506,447.142,93.568,447.148z"/>
		<path style="fill:#EBEBEB;" d="M22.425,415.741c19.636,17.445,44.513,28.533,70.055,31.278c-0.183-0.419-0.358-0.826-0.538-1.241
			C73.11,430.132,45.975,415.798,22.425,415.741z"/>
		<path style="fill:#EBEBEB;" d="M36.614,447.148c12.861,11.426,27.975,20.111,44.046,25.53h19.764
			C82.065,458.892,57.878,447.2,36.614,447.148z"/>
		<path style="fill:#E0E0E0;" d="M83.96,426.579c2.23,5.633,4.91,12.124,7.981,19.199c0.18,0.415,0.355,0.822,0.538,1.241
			c3.472,7.955,7.439,16.63,11.826,25.66h0.961c-1.235-2.532-2.438-5.035-3.608-7.502c-0.097-0.204-0.194-0.409-0.291-0.613
			c-2.874-6.077-5.544-11.928-7.987-17.437c-0.032-0.072-0.065-0.146-0.097-0.217c-2.111-4.766-4.048-9.265-5.804-13.438
			c-0.326-0.774-0.647-1.54-0.96-2.29c-0.701-1.68-1.372-3.307-2.007-4.862c-2.764-6.765-4.948-12.267-6.417-16.087
			c-0.467-1.185-0.864-2.194-1.206-3.062c-0.191-0.485-0.369-0.938-0.521-1.323c-0.189-0.455-0.343-0.826-0.469-1.132
			c-0.11-0.253-0.173-0.38-0.187-0.374c-0.014,0.006,0.022,0.144,0.106,0.409c0.105,0.315,0.234,0.697,0.391,1.166
			c0.038,0.107,0.084,0.236,0.125,0.351c0.373,1.053,0.855,2.409,1.455,4.099c0.934,2.626,2.212,6.045,3.776,10.092
			c0.071,0.185,0.142,0.369,0.215,0.556C82.457,422.762,83.181,424.611,83.96,426.579z"/>
	</g>
</g>
<g id="Background_Simple" style="display:none;">
	<path style="display:inline;fill:#F5F5F5;" d="M73.315,99.43l1.749-4.039c14.744-34.046,46.614-57.732,83.278-60.435
		c4.713-0.347,9.452-0.355,14.178-0.004c34.022,2.527,66.216,23.561,82.54,53.928c9.6,17.859,14.541,39.263,29.899,52.374
		c19.988,17.063,49.465,13.629,75.196,9.268c25.731-4.361,55.238-7.721,75.152,9.43c12.472,10.741,18.294,27.656,19.677,44.15
		c3.661,43.667-21.212,86.584-56.976,111.137c-35.764,24.552-80.757,32.501-123.966,29.811
		c-60.531-3.768-121.029-28.666-161.626-74.394C71.819,224.928,53.857,157.491,73.315,99.43z"/>
	
		<ellipse transform="matrix(0.7071 -0.7071 0.7071 0.7071 -254.9051 181.2093)" style="display:inline;fill:#F5F5F5;" cx="91.286" cy="398.302" rx="32.579" ry="32.579"/>
</g>
<g id="Floor">
	<g>
		<path style="fill:#263238;" d="M470.385,472.286c0,0.151-98.678,0.273-220.375,0.273c-121.739,0-220.396-0.122-220.396-0.273
			c0-0.151,98.657-0.273,220.396-0.273C371.707,472.013,470.385,472.135,470.385,472.286z"/>
	</g>
</g>
<g id="Speech_Bubble_2">
	<g>
		<g>
			<g>
				
					<ellipse transform="matrix(0.9325 -0.3612 0.3612 0.9325 -39.3947 33.5073)" style="fill:#FFFFFF;" cx="69.944" cy="122.145" rx="32.206" ry="32.206"/>
				<g>
					<path style="fill:#263238;" d="M102.15,122.145c0,0-0.023-0.177-0.047-0.521c-0.023-0.358-0.055-0.867-0.097-1.529
						c-0.02-0.337-0.042-0.713-0.067-1.126c-0.043-0.412-0.131-0.859-0.204-1.345c-0.077-0.486-0.16-1.009-0.249-1.567
						c-0.067-0.563-0.276-1.135-0.42-1.756c-0.567-2.488-1.73-5.428-3.566-8.544c-1.851-3.103-4.521-6.345-8.157-9.097
						c-0.457-0.34-0.919-0.684-1.386-1.033c-0.487-0.319-1-0.612-1.507-0.924c-0.518-0.294-1.008-0.652-1.563-0.904
						c-0.549-0.263-1.104-0.529-1.664-0.798c-0.281-0.133-0.563-0.267-0.846-0.401c-0.295-0.107-0.591-0.215-0.889-0.324
						c-0.595-0.217-1.197-0.436-1.803-0.657c-0.613-0.202-1.254-0.333-1.888-0.505c-0.641-0.145-1.271-0.371-1.939-0.439
						c-1.325-0.188-2.663-0.461-4.05-0.469c-0.691-0.024-1.387-0.091-2.088-0.08c-0.701,0.036-1.408,0.073-2.12,0.109
						c-0.355,0.025-0.714,0.022-1.07,0.069l-1.068,0.164c-0.713,0.118-1.438,0.202-2.154,0.35c-1.413,0.384-2.877,0.671-4.269,1.253
						c-1.436,0.46-2.787,1.169-4.176,1.835c-0.676,0.367-1.324,0.794-1.994,1.191c-0.327,0.21-0.677,0.388-0.989,0.625l-0.942,0.706
						c-1.301,0.893-2.439,2.01-3.631,3.086c-0.54,0.594-1.082,1.192-1.627,1.792l-0.409,0.451l-0.368,0.487l-0.733,0.981
						l-0.736,0.985l-0.645,1.053l-0.644,1.06l-0.323,0.532l-0.274,0.56c-0.361,0.749-0.723,1.502-1.087,2.257
						c-0.288,0.787-0.578,1.577-0.868,2.37c-1.044,3.213-1.606,6.625-1.652,10.097c0.046,3.474,0.606,6.887,1.65,10.101
						c0.291,0.793,0.58,1.584,0.868,2.371c0.364,0.756,0.726,1.508,1.087,2.258l0.273,0.56l0.323,0.532l0.644,1.06l0.644,1.054
						l0.736,0.985l0.733,0.981l0.367,0.487l0.409,0.451c0.545,0.6,1.088,1.198,1.627,1.793c1.192,1.076,2.33,2.194,3.632,3.087
						l0.943,0.706c0.312,0.237,0.662,0.416,0.99,0.625c0.669,0.397,1.318,0.824,1.994,1.191c1.389,0.666,2.739,1.376,4.176,1.835
						c1.392,0.582,2.856,0.868,4.27,1.253c0.717,0.148,1.442,0.232,2.155,0.35l1.068,0.164c0.356,0.047,0.715,0.045,1.07,0.069
						c0.712,0.037,1.418,0.073,2.12,0.11c0.701,0.011,1.397-0.057,2.088-0.08c1.388-0.008,2.726-0.281,4.051-0.469
						c0.668-0.068,1.298-0.294,1.939-0.439c0.634-0.173,1.275-0.303,1.888-0.505c0.607-0.221,1.208-0.44,1.803-0.657
						c0.298-0.109,0.594-0.216,0.889-0.324c0.283-0.134,0.566-0.268,0.846-0.401c0.56-0.269,1.115-0.535,1.664-0.798
						c0.555-0.252,1.046-0.61,1.563-0.904c0.507-0.313,1.021-0.605,1.507-0.924c0.467-0.348,0.929-0.693,1.386-1.033
						c3.637-2.752,6.306-5.994,8.157-9.098c1.835-3.116,2.999-6.056,3.565-8.544c0.145-0.621,0.354-1.192,0.42-1.756
						c0.089-0.559,0.172-1.081,0.249-1.567c0.072-0.486,0.16-0.933,0.204-1.345c0.024-0.413,0.047-0.788,0.067-1.125
						c0.042-0.662,0.075-1.17,0.097-1.529C102.127,122.322,102.15,122.145,102.15,122.145s0.005,0.177-0.005,0.522
						c-0.013,0.359-0.032,0.869-0.057,1.533c-0.014,0.339-0.03,0.715-0.047,1.13c-0.037,0.414-0.119,0.863-0.185,1.352
						c-0.072,0.489-0.149,1.015-0.231,1.577c-0.061,0.567-0.265,1.143-0.404,1.768c-0.546,2.506-1.694,5.472-3.523,8.621
						c-1.845,3.136-4.52,6.418-8.178,9.21c-0.46,0.345-0.924,0.694-1.395,1.047c-0.49,0.324-1.007,0.621-1.517,0.939
						c-0.521,0.299-1.016,0.662-1.575,0.918c-0.553,0.268-1.112,0.538-1.677,0.812c-0.283,0.135-0.567,0.271-0.853,0.408
						c-0.297,0.11-0.596,0.22-0.897,0.33c-0.601,0.221-1.207,0.444-1.82,0.669c-0.618,0.207-1.265,0.341-1.906,0.517
						c-0.647,0.148-1.283,0.378-1.958,0.449c-1.338,0.194-2.691,0.473-4.093,0.484c-0.698,0.026-1.402,0.095-2.111,0.086
						c-0.709-0.035-1.424-0.07-2.143-0.106c-0.359-0.024-0.723-0.021-1.082-0.068l-1.08-0.164c-0.721-0.118-1.455-0.201-2.18-0.35
						c-1.431-0.385-2.913-0.674-4.322-1.26c-1.454-0.463-2.823-1.178-4.228-1.851c-0.685-0.37-1.342-0.801-2.02-1.202
						c-0.332-0.212-0.686-0.393-1.002-0.632l-0.955-0.713c-1.318-0.903-2.472-2.032-3.679-3.121
						c-0.547-0.601-1.097-1.206-1.649-1.813l-0.415-0.456l-0.373-0.492l-0.743-0.992l-0.746-0.997l-0.653-1.066l-0.652-1.073
						l-0.327-0.538l-0.277-0.567c-0.366-0.759-0.733-1.521-1.102-2.286c-0.292-0.797-0.586-1.598-0.881-2.401
						c-1.058-3.254-1.627-6.712-1.672-10.229c0.046-3.516,0.616-6.972,1.674-10.225c0.295-0.803,0.588-1.603,0.881-2.4
						c0.369-0.765,0.736-1.526,1.102-2.285l0.278-0.566l0.327-0.538l0.652-1.073l0.654-1.066l0.746-0.997l0.743-0.992l0.373-0.492
						l0.414-0.456c0.552-0.607,1.102-1.211,1.649-1.812c1.207-1.089,2.361-2.217,3.679-3.12l0.955-0.713
						c0.316-0.239,0.67-0.42,1.002-0.632c0.678-0.401,1.335-0.832,2.019-1.202c1.406-0.673,2.774-1.387,4.228-1.851
						c1.41-0.585,2.891-0.874,4.322-1.259c0.725-0.149,1.459-0.232,2.18-0.35l1.08-0.163c0.36-0.047,0.723-0.044,1.082-0.068
						c0.72-0.035,1.434-0.071,2.143-0.106c0.709-0.009,1.412,0.06,2.11,0.086c1.402,0.012,2.755,0.29,4.092,0.484
						c0.675,0.071,1.311,0.3,1.958,0.449c0.64,0.176,1.287,0.31,1.906,0.516c0.612,0.225,1.219,0.448,1.82,0.669
						c0.3,0.111,0.599,0.221,0.897,0.33c0.286,0.137,0.57,0.272,0.854,0.408c0.565,0.273,1.124,0.544,1.677,0.812
						c0.56,0.256,1.054,0.619,1.575,0.918c0.511,0.317,1.027,0.614,1.517,0.938c0.47,0.353,0.936,0.702,1.395,1.047
						c3.658,2.791,6.333,6.073,8.178,9.21c1.83,3.15,2.978,6.116,3.524,8.622c0.139,0.625,0.343,1.201,0.404,1.768
						c0.082,0.562,0.159,1.088,0.231,1.577c0.066,0.489,0.148,0.938,0.185,1.352c0.017,0.415,0.033,0.792,0.047,1.131
						c0.025,0.664,0.044,1.174,0.057,1.533C102.155,121.968,102.15,122.145,102.15,122.145z"/>
				</g>
			</g>
			<g>
				<path style="fill:#FF725E;" d="M58.486,116.625h6.119c0,0,0-5.138,5.339-5.23c2.773-0.048,4.21,1.769,4.795,3.16
					c0.678,1.616,0.473,3.457-0.436,4.956c-1.038,1.711-3.312,3.266-7.436,2.54v8.979h6.05v-3.264c0,0,8.485-2.194,8.485-11.545
					c0-8.947-8.024-11.026-11.458-11.026C67.318,105.195,58.37,105.83,58.486,116.625z"/>
				<rect x="66.85" y="133.36" style="fill:#FF725E;" width="6.14" height="5.735"/>
			</g>
		</g>
		<g>
			<path style="fill:#FFFFFF;" d="M103.61,152.279c0,2.715-2.201,4.917-4.917,4.917s-4.917-2.201-4.917-4.917
				c0-2.715,2.201-4.917,4.917-4.917S103.61,149.564,103.61,152.279z"/>
			<g>
				<path style="fill:#263238;" d="M103.61,152.279c-0.043,0.002-0.028-0.438-0.23-1.181c-0.201-0.729-0.7-1.795-1.799-2.613
					c-1.062-0.821-2.809-1.278-4.499-0.648c-0.832,0.302-1.625,0.87-2.188,1.653c-0.579,0.773-0.904,1.765-0.914,2.788
					c0.01,1.023,0.335,2.015,0.914,2.789c0.563,0.784,1.356,1.352,2.188,1.654c1.69,0.63,3.437,0.172,4.499-0.648
					c1.099-0.818,1.598-1.884,1.798-2.613C103.582,152.717,103.567,152.277,103.61,152.279c0.014,0,0.022,0.108,0.025,0.316
					c0.007,0.207-0.017,0.516-0.102,0.904c-0.16,0.764-0.636,1.904-1.777,2.803c-1.102,0.9-2.968,1.432-4.801,0.772
					c-0.902-0.316-1.766-0.924-2.382-1.77c-0.632-0.835-0.991-1.914-1-3.025c0.009-1.11,0.368-2.189,1-3.023
					c0.615-0.846,1.479-1.454,2.381-1.77c1.832-0.66,3.698-0.128,4.801,0.771c1.142,0.898,1.618,2.039,1.778,2.803
					c0.085,0.387,0.109,0.696,0.102,0.904C103.632,152.171,103.624,152.279,103.61,152.279z"/>
			</g>
		</g>
	</g>
</g>
<g id="Speech_Bubble_1">
	<g>
		<g>
			<g>
				
					<ellipse transform="matrix(0.7071 -0.7071 0.7071 0.7071 53.1105 332.5085)" style="fill:#FFFFFF;" cx="427.929" cy="102.144" rx="33.845" ry="33.845"/>
				<g>
					<path style="fill:#263238;" d="M461.774,102.144c0,0-0.024-0.186-0.049-0.548c-0.024-0.376-0.058-0.911-0.102-1.607
						c-0.021-0.354-0.044-0.749-0.07-1.183c-0.046-0.433-0.138-0.903-0.214-1.414c-0.081-0.511-0.168-1.06-0.262-1.647
						c-0.07-0.592-0.29-1.193-0.442-1.845c-0.595-2.614-1.818-5.704-3.747-8.979c-1.945-3.261-4.751-6.668-8.573-9.56
						c-0.48-0.357-0.965-0.719-1.457-1.085c-0.512-0.335-1.051-0.643-1.584-0.971c-0.544-0.309-1.059-0.686-1.643-0.95
						c-0.577-0.277-1.16-0.556-1.749-0.839c-0.295-0.14-0.591-0.28-0.889-0.422c-0.31-0.113-0.621-0.226-0.934-0.34
						c-0.626-0.228-1.257-0.458-1.895-0.69c-0.644-0.213-1.317-0.35-1.984-0.531c-0.673-0.153-1.336-0.39-2.038-0.461
						c-1.392-0.197-2.799-0.484-4.257-0.492c-0.726-0.025-1.457-0.096-2.194-0.084c-0.737,0.038-1.479,0.076-2.227,0.115
						c-0.373,0.026-0.751,0.023-1.124,0.073l-1.122,0.173c-0.749,0.124-1.511,0.212-2.264,0.368
						c-1.485,0.404-3.024,0.706-4.487,1.317c-1.51,0.483-2.929,1.229-4.388,1.929c-0.711,0.385-1.392,0.834-2.095,1.251
						c-0.344,0.22-0.712,0.408-1.04,0.657l-0.99,0.742c-1.368,0.939-2.564,2.113-3.816,3.243c-0.567,0.625-1.137,1.253-1.71,1.883
						l-0.43,0.473l-0.386,0.511l-0.77,1.031l-0.774,1.035l-0.677,1.107l-0.676,1.114l-0.339,0.559l-0.287,0.588
						c-0.379,0.788-0.76,1.578-1.142,2.372c-0.303,0.827-0.607,1.658-0.913,2.491c-1.097,3.376-1.687,6.962-1.736,10.611
						c0.048,3.65,0.637,7.238,1.733,10.615c0.305,0.834,0.609,1.664,0.912,2.492c0.382,0.794,0.763,1.585,1.142,2.373l0.287,0.589
						l0.34,0.559l0.676,1.114l0.677,1.107l0.774,1.035l0.77,1.031l0.386,0.512l0.43,0.474c0.573,0.631,1.143,1.259,1.71,1.884
						c1.253,1.131,2.449,2.305,3.816,3.244l0.991,0.742c0.328,0.249,0.695,0.437,1.04,0.657c0.704,0.417,1.385,0.866,2.095,1.252
						c1.459,0.7,2.879,1.446,4.389,1.929c1.463,0.611,3.002,0.913,4.487,1.317c0.753,0.156,1.515,0.244,2.264,0.368l1.122,0.173
						c0.374,0.049,0.751,0.047,1.125,0.073c0.748,0.039,1.491,0.077,2.228,0.115c0.737,0.011,1.469-0.06,2.194-0.085
						c1.458-0.008,2.865-0.295,4.257-0.493c0.702-0.072,1.364-0.309,2.038-0.462c0.666-0.181,1.34-0.318,1.984-0.531
						c0.638-0.232,1.27-0.462,1.895-0.69c0.313-0.114,0.624-0.227,0.934-0.34c0.298-0.141,0.594-0.282,0.889-0.422
						c0.589-0.283,1.172-0.562,1.749-0.839c0.583-0.265,1.099-0.641,1.643-0.95c0.533-0.328,1.072-0.635,1.584-0.971
						c0.491-0.366,0.977-0.728,1.457-1.085c3.822-2.892,6.627-6.3,8.572-9.56c1.929-3.275,3.151-6.364,3.747-8.978
						c0.152-0.652,0.372-1.253,0.442-1.845c0.093-0.587,0.18-1.136,0.261-1.647c0.076-0.511,0.169-0.98,0.214-1.413
						c0.026-0.434,0.049-0.829,0.07-1.183c0.044-0.696,0.078-1.23,0.102-1.606C461.75,102.33,461.774,102.144,461.774,102.144
						s0.005,0.186-0.006,0.548c-0.014,0.377-0.034,0.913-0.06,1.611c-0.015,0.356-0.031,0.752-0.05,1.188
						c-0.039,0.435-0.125,0.907-0.194,1.421c-0.075,0.514-0.156,1.066-0.243,1.657c-0.064,0.596-0.278,1.201-0.425,1.858
						c-0.574,2.633-1.78,5.75-3.703,9.06c-1.939,3.296-4.75,6.745-8.594,9.679c-0.483,0.362-0.972,0.729-1.466,1.1
						c-0.515,0.341-1.058,0.653-1.595,0.986c-0.548,0.314-1.067,0.695-1.655,0.965c-0.582,0.281-1.169,0.566-1.763,0.853
						c-0.298,0.142-0.596,0.285-0.897,0.429c-0.313,0.115-0.627,0.231-0.942,0.347c-0.632,0.232-1.269,0.466-1.912,0.703
						c-0.65,0.217-1.33,0.358-2.003,0.543c-0.68,0.156-1.349,0.397-2.058,0.472c-1.406,0.204-2.828,0.497-4.301,0.509
						c-0.734,0.027-1.473,0.1-2.218,0.09c-0.745-0.037-1.496-0.074-2.252-0.111c-0.377-0.025-0.759-0.023-1.137-0.072l-1.135-0.172
						c-0.758-0.124-1.529-0.212-2.291-0.368c-1.504-0.405-3.061-0.709-4.542-1.324c-1.528-0.487-2.966-1.238-4.444-1.945
						c-0.72-0.389-1.41-0.842-2.122-1.263c-0.349-0.223-0.721-0.413-1.053-0.664l-1.004-0.749c-1.385-0.949-2.598-2.135-3.866-3.28
						c-0.575-0.632-1.153-1.267-1.733-1.905l-0.436-0.479l-0.392-0.518l-0.781-1.043l-0.784-1.048l-0.687-1.12l-0.686-1.128
						l-0.344-0.566l-0.291-0.596c-0.384-0.798-0.77-1.598-1.158-2.402c-0.307-0.838-0.616-1.679-0.925-2.523
						c-1.112-3.42-1.71-7.053-1.757-10.749c0.048-3.694,0.647-7.327,1.76-10.745c0.31-0.844,0.618-1.685,0.926-2.522
						c0.387-0.804,0.773-1.604,1.158-2.402l0.292-0.595l0.344-0.565l0.685-1.128l0.687-1.12l0.784-1.048l0.781-1.043l0.392-0.517
						l0.435-0.479c0.58-0.638,1.158-1.273,1.733-1.905c1.268-1.144,2.481-2.33,3.866-3.279l1.003-0.749
						c0.332-0.251,0.704-0.441,1.053-0.664c0.712-0.422,1.402-0.874,2.122-1.263c1.477-0.707,2.915-1.458,4.443-1.945
						c1.481-0.615,3.038-0.919,4.542-1.324c0.762-0.156,1.533-0.244,2.29-0.368l1.135-0.172c0.378-0.049,0.76-0.046,1.137-0.071
						c0.756-0.037,1.507-0.074,2.252-0.111c0.745-0.01,1.484,0.063,2.218,0.09c1.473,0.012,2.895,0.305,4.301,0.509
						c0.709,0.075,1.378,0.315,2.058,0.472c0.673,0.185,1.353,0.326,2.002,0.543c0.644,0.237,1.281,0.471,1.912,0.703
						c0.316,0.116,0.63,0.232,0.942,0.347c0.301,0.144,0.599,0.286,0.897,0.428c0.594,0.287,1.181,0.572,1.763,0.853
						c0.588,0.269,1.107,0.65,1.655,0.965c0.537,0.333,1.08,0.646,1.595,0.986c0.494,0.371,0.983,0.738,1.466,1.101
						c3.844,2.934,6.656,6.382,8.595,9.678c1.923,3.31,3.13,6.427,3.703,9.061c0.147,0.657,0.361,1.262,0.425,1.858
						c0.087,0.59,0.168,1.143,0.243,1.657c0.07,0.514,0.155,0.986,0.194,1.421c0.018,0.436,0.035,0.832,0.05,1.188
						c0.026,0.698,0.046,1.234,0.06,1.611C461.779,101.959,461.774,102.144,461.774,102.144z"/>
				</g>
			</g>
			<g>
				<path style="fill:#FF725E;" d="M415.888,96.343h6.43c0,0,0-5.399,5.611-5.496c2.914-0.05,4.425,1.859,5.039,3.321
					c0.713,1.698,0.497,3.633-0.458,5.208c-1.091,1.798-3.481,3.433-7.814,2.669v9.436h6.358v-3.43c0,0,8.917-2.305,8.917-12.132
					c0-9.403-8.432-11.586-12.041-11.586C425.169,84.332,415.766,84.999,415.888,96.343z"/>
				<rect x="424.677" y="113.93" style="fill:#FF725E;" width="6.453" height="6.027"/>
			</g>
		</g>
		<g>
			<path style="fill:#FFFFFF;" d="M396.437,131.308c0,2.854-2.313,5.167-5.167,5.167c-2.854,0-5.167-2.313-5.167-5.167
				c0-2.854,2.313-5.167,5.167-5.167C394.124,126.141,396.437,128.454,396.437,131.308z"/>
			<g>
				<path style="fill:#263238;" d="M396.437,131.308c-0.046,0.002-0.029-0.46-0.242-1.241c-0.211-0.766-0.735-1.886-1.89-2.746
					c-1.116-0.862-2.952-1.343-4.727-0.681c-0.874,0.317-1.708,0.914-2.299,1.738c-0.609,0.813-0.951,1.855-0.961,2.929
					c0.01,1.075,0.352,2.117,0.961,2.93c0.592,0.824,1.425,1.421,2.3,1.738c1.775,0.663,3.612,0.181,4.728-0.681
					c1.155-0.86,1.679-1.979,1.89-2.746C396.408,131.768,396.391,131.306,396.437,131.308c0.015,0,0.023,0.113,0.026,0.332
					c0.007,0.218-0.018,0.543-0.107,0.95c-0.168,0.803-0.668,2.001-1.868,2.945c-1.159,0.945-3.119,1.505-5.045,0.811
					c-0.948-0.332-1.856-0.971-2.503-1.86c-0.664-0.878-1.041-2.012-1.051-3.178c0.01-1.166,0.387-2.3,1.051-3.177
					c0.647-0.889,1.554-1.528,2.502-1.86c1.926-0.694,3.886-0.135,5.045,0.811c1.2,0.944,1.701,2.143,1.868,2.945
					c0.089,0.407,0.114,0.732,0.107,0.95C396.46,131.195,396.452,131.308,396.437,131.308z"/>
			</g>
		</g>
	</g>
</g>
<g id="Character_1">
	<g>
		<g>
			<path style="fill:#263238;" d="M208.317,379.867c-10.793-27.039-18.892-45.819-18.892-45.819l-98.694,15.001
				c0,0-17.739,45.475-16.204,66.11c1.535,20.635,8.758,56.971,8.758,56.971h119.428C202.714,472.13,219.11,406.906,208.317,379.867
				z"/>
			<g>
				<g>
					<path style="fill:#263238;" d="M172.698,154.347c0.774-7.801,1.944-15.645,4.799-22.946
						c2.855-7.301,7.532-14.084,14.139-18.305l1.697,1.578c1.171-3.353,4.289-5.944,7.8-6.482c3.511-0.538,7.261,1.001,9.383,3.849
						c3.786-1.02,8.127,0.526,10.416,3.709c2.289,3.183,2.372,7.791,0.2,11.055c3.546,0.45,6.678,3.241,7.53,6.713
						c0.852,3.472-0.63,7.396-3.565,9.437c3.909,3.378,5.466,9.227,3.755,14.102c-1.712,4.875-6.584,8.466-11.747,8.658
						c1.152,4.488-1.186,9.625-5.327,11.704c-4.141,2.079-9.657,0.885-12.568-2.721c0.362,4.669-3.372,9.089-7.921,10.2
						c-4.549,1.111-9.506-0.727-12.825-4.03c-3.32-3.303-5.142-7.883-5.848-12.512C171.908,163.728,172.235,159.007,172.698,154.347
						z"/>
					<g>
						<g>
							<g>
								<path style="fill:#FF725E;" d="M193.701,119.782c4.539,1.47,5.468,5.146,6.411,8.209c2.03,6.593-0.253,16.351-3.943,22.179
									c-3.69,5.829-7.736,8.792-14.564,9.778c-0.222-10.467-0.444-20.933-0.666-31.4L193.701,119.782z"/>
							</g>
							<g>
								<g>
									<g>
										<g>
											<path style="fill:#263238;" d="M196.263,137.808c3.1-4.026,2.661-10.349-0.965-13.908
												c1.987-2.497,1.274-6.348-0.746-8.818c-2.02-2.47-5.02-3.888-7.917-5.227c-1.59-7.305-9.791-12.443-17.057-10.688
												c-3.786-5.565-11.852-6.439-18.313-4.555c-1.579,0.46-3.155,1.054-4.8,1.048c-1.206-0.005-2.384-0.335-3.58-0.496
												c-6.574-0.884-13.099,3.744-15.663,9.862c-0.41,0.978-0.746,2.009-1.396,2.847c-0.853,1.1-2.146,1.746-3.248,2.596
												c-2.383,1.837-3.896,4.757-4.022,7.763c-0.107,2.553,0.706,5.263-0.37,7.581c-0.539,1.162-1.513,2.101-1.932,3.311
												c-1.216,3.507,2.672,7.093,1.952,10.735c-0.147,0.743-0.482,1.435-0.688,2.164c-0.421,1.49-0.278,3.133,0.395,4.528
												c0.519,1.077,1.356,2.063,1.426,3.256c0.054,0.906-0.349,1.768-0.531,2.656c-0.444,2.174,4.247,10.557,6.124,11.738
												l56.133,0.502c4.248-0.865,7.708-4.715,8.117-9.031c0.068-0.718,0.079-1.497,0.523-2.064
												c0.379-0.484,0.991-0.705,1.532-0.996c3.614-1.941,4.051-6.903,3.67-10.988c-0.054-0.572-0.113-1.158,0.031-1.714
												C195.148,139.102,195.754,138.469,196.263,137.808z"/>
										</g>
									</g>
									<g>
										<g>
											<path style="fill:#FFBF9D;" d="M180.182,137.888c0.166-9.934-6.064-21.35-15.933-26.208
												c-6.221-3.063-11.074-3.082-14.344-3.464c-7.327-0.854-13.239,2.776-13.239,2.776
												c-3.094,0.727-14.432,11.109-15.021,22.374c-0.654,12.515-0.959,27.821,0.623,37.137
												c3.181,18.732,17.588,20.967,17.588,20.967c0.002-0.029-1.341,31.139-1.341,31.139l27.689,22.693l8.46-37.258
												L180.182,137.888z"/>
										</g>
									</g>
									<g>
										<g>
											<g>
												<g>
													<g>
														<g>
															<path style="fill:#FF9A6C;" d="M139.856,191.47c0,0,12.716,0.682,25.142-6.969c0,0-6.548,13.298-25.348,11.743
																L139.856,191.47z"/>
														</g>
													</g>
												</g>
											</g>
										</g>
									</g>
									<g>
										<g>
											<g>
												<g>
													<g>
														<g>
															<path style="fill:#FFBF9D;" d="M177.35,155.704c-0.012-1.398,1.568-4.71,2.946-4.94
																c3.679-0.614,10.325-0.389,10.487,8.969c0.221,12.793-12.337,9.936-12.697,10.01
																C176.046,170.161,177.39,160.529,177.35,155.704z"/>
														</g>
													</g>
												</g>
											</g>
										</g>
									</g>
									<g>
										<g>
											<g>
												<g>
													<g>
														<g>
															<g>
																<path style="fill:#FF9A6C;" d="M181.534,165.009c0.056-0.042,0.226,0.152,0.605,0.318
																	c0.371,0.161,1.005,0.267,1.667,0.006c1.343-0.519,2.444-2.685,2.466-4.992c0.012-1.165-0.25-2.27-0.679-3.181
																	c-0.407-0.929-1.023-1.572-1.706-1.681c-0.679-0.145-1.154,0.271-1.305,0.633c-0.165,0.361-0.079,0.616-0.147,0.638
																	c-0.035,0.033-0.278-0.209-0.184-0.739c0.048-0.255,0.193-0.56,0.49-0.811c0.302-0.255,0.751-0.39,1.226-0.347
																	c0.988,0.052,1.891,0.944,2.362,1.943c0.525,1.004,0.848,2.244,0.834,3.553c-0.037,2.579-1.315,5.014-3.156,5.581
																	c-0.895,0.25-1.651-0.008-2.044-0.303C181.562,165.318,181.491,165.033,181.534,165.009z"/>
															</g>
														</g>
													</g>
												</g>
											</g>
										</g>
									</g>
									<path style="fill:#263238;" d="M118.901,131.471c0.407-4.647,2.258-9.053,4.5-13.143c1.552-2.831,3.337-5.594,5.779-7.705
										c2.041-1.764,4.471-3.011,6.909-4.167c6.409-3.04,13.558-5.619,20.478-4.06c3.715,0.837,7.059,2.811,10.313,4.79
										c2.493,1.517,4.997,3.07,7.086,5.109c1.832,1.789,3.305,3.914,4.605,6.12c3.098,5.259,5.285,11.138,5.704,17.228
										c0.419,6.089,5.026,11.473,1.455,16.424c-0.276,0.383-6.635,1.7-7.074,1.875c-1.033,0.411-2.17-0.71-2.162-1.822
										c0.008-1.112,0.774-2.071,1.598-2.818c-1.583-0.053-2.669-1.816-2.569-3.397c0.1-1.581,1.035-2.973,1.975-4.248
										c0.122-0.167,0.25-0.343,0.275-0.548c0.066-0.54-0.545-0.872-1.012-1.148c-2.279-1.349-2.533-5.1-0.456-6.743
										c-3.052-0.707-5.029-4.377-3.942-7.315c0.172-0.464,0.406-0.985,0.184-1.428c-0.214-0.425-0.742-0.558-1.198-0.694
										c-3.376-1.001-5.646-4.816-4.913-8.261c-1.776,0.093-3.581,0.184-5.309-0.236c-1.728-0.419-3.399-1.43-4.189-3.023
										c-1.133,2.04-3.357,3.431-5.687,3.555c-2.33,0.125-4.69-1.02-6.034-2.927c-2.98,0.285-6.028-0.187-8.782-1.359
										c-0.676,2.776-2.866,5.134-5.585,6.013c-0.528,0.171-1.135,0.337-1.389,0.83c-0.162,0.314-0.136,0.687-0.117,1.04
										c0.094,1.786-1.123,2.547-2.108,4.04c-0.985,1.493-2.702,3.717-4.422,3.224c0.191,3.042-1.436,5.257-4.005,6.899
										L118.901,131.471z"/>
									<g>
										<g>
											<path style="fill:#455A64;" d="M116.254,129.124c0,0,0.123-0.529,0.677-1.379c0.267-0.428,0.646-0.927,1.002-1.565
												c0.348-0.639,0.624-1.449,0.696-2.397c0.094-0.945,0.007-2.005-0.084-3.164c-0.091-1.155-0.189-2.444,0.067-3.799
												c0.243-1.349,0.776-2.751,1.646-4.045c0.435-0.646,0.954-1.264,1.558-1.825c0.6-0.567,1.304-1.045,2.008-1.521
												c0.699-0.482,1.407-0.997,1.929-1.694c0.525-0.697,0.845-1.552,1.191-2.419c0.695-1.748,1.709-3.461,3.064-4.973
												c1.346-1.512,2.986-2.884,4.924-3.857c0.952-0.521,2.001-0.873,3.07-1.185c1.086-0.245,2.21-0.438,3.359-0.41
												c0.573-0.008,1.149,0.067,1.725,0.122c0.573,0.084,1.138,0.2,1.705,0.295c1.132,0.215,2.277,0.238,3.419-0.026
												c1.143-0.236,2.263-0.658,3.443-0.963c1.172-0.334,2.389-0.532,3.621-0.672c1.234-0.137,2.49-0.138,3.749-0.067
												c1.26,0.094,2.52,0.316,3.759,0.659c2.453,0.726,4.844,2.079,6.477,4.195c0.161,0.21,0.321,0.419,0.48,0.626
												l-0.205-0.079c3.863-0.925,7.909,0.084,11.035,2.132c3.147,2.041,5.489,5.207,6.248,8.704l-0.103-0.127
												c1.553,0.719,3.089,1.442,4.505,2.33c1.413,0.884,2.711,1.943,3.689,3.244c0.969,1.307,1.562,2.846,1.702,4.402
												c0.147,1.55-0.235,3.154-1.186,4.336l-0.013-0.214c1.842,1.816,2.784,4.242,3.001,6.544
												c0.219,2.313-0.247,4.57-1.277,6.369c-0.234,0.463-0.553,0.865-0.839,1.273c-0.309,0.391-0.624,0.756-0.871,1.149
												c-0.249,0.393-0.412,0.815-0.445,1.258c-0.04,0.443,0.011,0.887,0.047,1.328c0.149,1.764,0.125,3.402-0.095,4.857
												c-0.223,1.452-0.632,2.726-1.228,3.706c-0.582,0.989-1.315,1.667-1.973,2.093c-0.657,0.441-1.24,0.615-1.562,0.855
												c-0.335,0.22-0.452,0.401-0.463,0.39c0,0,0.102-0.192,0.435-0.43c0.321-0.258,0.903-0.449,1.537-0.895
												c0.638-0.432,1.345-1.107,1.903-2.084c0.572-0.968,0.962-2.226,1.168-3.661c0.204-1.439,0.216-3.061,0.055-4.811
												c-0.038-0.437-0.096-0.893-0.057-1.368c0.031-0.477,0.212-0.954,0.471-1.366c0.259-0.416,0.578-0.79,0.879-1.176
												c0.277-0.401,0.585-0.793,0.809-1.245c0.993-1.755,1.437-3.96,1.214-6.214c-0.221-2.244-1.15-4.597-2.934-6.344
												l-0.103-0.101l0.09-0.113c0.887-1.112,1.247-2.623,1.103-4.107c-0.138-1.488-0.714-2.972-1.647-4.224
												c-0.945-1.251-2.21-2.284-3.601-3.148c-1.394-0.869-2.916-1.584-4.469-2.3l-0.083-0.038l-0.02-0.09
												c-0.74-3.389-3.022-6.473-6.096-8.464c-3.052-1.997-6.997-2.973-10.736-2.076l-0.122,0.029l-0.083-0.108
												c-0.153-0.199-0.308-0.401-0.464-0.604c-1.575-2.041-3.887-3.355-6.282-4.065c-1.21-0.336-2.443-0.554-3.679-0.647
												c-1.236-0.071-2.47-0.071-3.684,0.063c-1.211,0.136-2.409,0.33-3.562,0.657c-1.159,0.296-2.287,0.721-3.465,0.963
												c-0.588,0.123-1.187,0.2-1.789,0.201c-0.602,0-1.192-0.08-1.766-0.178c-0.575-0.098-1.137-0.214-1.697-0.297
												c-0.561-0.054-1.118-0.129-1.675-0.122c-1.116-0.03-2.21,0.156-3.27,0.391c-1.043,0.302-2.069,0.642-3.001,1.15
												c-1.899,0.946-3.512,2.288-4.839,3.767c-1.336,1.482-2.336,3.155-3.027,4.873c-0.349,0.859-0.679,1.74-1.239,2.479
												c-0.561,0.74-1.298,1.267-2.003,1.748c-0.713,0.477-1.399,0.938-1.986,1.486c-0.591,0.543-1.102,1.143-1.53,1.772
												c-0.859,1.259-1.39,2.628-1.637,3.947c-0.26,1.323-0.177,2.589-0.096,3.747c0.08,1.159,0.157,2.231,0.05,3.192
												c-0.084,0.962-0.38,1.793-0.745,2.438c-0.373,0.643-0.761,1.132-1.037,1.552c-0.284,0.415-0.467,0.751-0.578,0.983
												C116.306,129.001,116.264,129.127,116.254,129.124z"/>
										</g>
									</g>
									<g>
										<g>
											<path style="fill:#455A64;" d="M163.549,96.404c-0.019,0.029-0.339-0.191-0.964-0.491
												c-0.623-0.295-1.57-0.662-2.796-0.791c-1.216-0.136-2.723-0.022-4.2,0.646c-1.467,0.663-2.891,1.866-3.8,3.497
												c-0.261,0.468-0.484,0.966-0.624,1.453c-0.134,0.484-0.151,0.998,0.104,1.347l0.316,0.433l-0.518-0.142
												c-1.422-0.39-2.88-0.108-3.952,0.502c-1.091,0.608-1.777,1.546-2.151,2.385c-0.379,0.848-0.465,1.603-0.483,2.112
												c-0.014,0.513,0.029,0.794,0,0.798c-0.011,0.002-0.031-0.066-0.06-0.2c-0.03-0.133-0.058-0.334-0.07-0.597
												c-0.023-0.521,0.027-1.308,0.392-2.207c0.358-0.888,1.059-1.903,2.21-2.572c1.129-0.668,2.677-0.992,4.215-0.582
												l-0.202,0.291c-0.359-0.498-0.313-1.14-0.169-1.667c0.155-0.54,0.382-1.044,0.657-1.541
												c0.953-1.71,2.45-2.958,3.992-3.633c1.556-0.681,3.128-0.767,4.378-0.592c1.262,0.169,2.219,0.587,2.832,0.928
												c0.307,0.173,0.536,0.323,0.682,0.438C163.484,96.33,163.557,96.393,163.549,96.404z"/>
										</g>
									</g>
									<g>
										<g>
											<path style="fill:#455A64;" d="M184.425,110.928c0.015,0.017-0.135,0.187-0.443,0.461c-0.31,0.271-0.781,0.65-1.44,1.017
												c-0.656,0.36-1.516,0.718-2.546,0.786c-1.012,0.069-2.218-0.153-3.184-0.936l0.283-0.045
												c-0.121,0.172-0.245,0.349-0.371,0.528c-0.135,0.172-0.287,0.336-0.433,0.507c-0.934,0.981-2.073,1.656-3.181,2.014
												c-1.107,0.371-2.17,0.469-3.046,0.407c-0.879-0.061-1.564-0.271-2.02-0.443c-0.448-0.195-0.681-0.331-0.67-0.352
												c0.026-0.08,0.995,0.462,2.703,0.523c0.846,0.025,1.863-0.097,2.916-0.47c1.055-0.361,2.132-1.014,3.016-1.942
												c0.137-0.162,0.281-0.317,0.409-0.479c0.12-0.169,0.238-0.335,0.352-0.497l0.125-0.176l0.159,0.13
												c0.863,0.708,1.971,0.936,2.923,0.891c0.963-0.042,1.796-0.353,2.447-0.673
												C183.723,111.51,184.383,110.872,184.425,110.928z"/>
										</g>
									</g>
									<g>
										<g>
											<path style="fill:#455A64;" d="M191.28,122.74c0.013,0.003,0.003,0.083-0.029,0.236c-0.043,0.148-0.115,0.371-0.28,0.621
												c-0.311,0.504-1.005,1.119-2.051,1.387c-1.051,0.283-2.356,0.081-3.658-0.368c-0.653-0.228-1.331-0.456-2.026-0.78
												c-0.675-0.325-1.412-0.795-1.78-1.596c-0.028-0.07-0.056-0.141-0.081-0.205l0.302,0.089
												c-1.224,0.973-2.488,1.821-3.777,2.309c-1.281,0.507-2.571,0.595-3.59,0.399c-1.027-0.185-1.785-0.615-2.222-0.989
												c-0.223-0.184-0.375-0.35-0.467-0.47c-0.092-0.12-0.135-0.186-0.125-0.195c0.027-0.024,0.229,0.221,0.683,0.547
												c0.448,0.326,1.189,0.697,2.175,0.84c0.983,0.152,2.193,0.043,3.418-0.462c1.231-0.487,2.454-1.317,3.666-2.282
												l0.202-0.161l0.1,0.251c0.021,0.054,0.044,0.112,0.068,0.171c0.3,0.664,0.946,1.1,1.592,1.414
												c0.654,0.312,1.339,0.552,1.976,0.785c1.27,0.458,2.499,0.668,3.479,0.439c0.986-0.218,1.661-0.758,1.991-1.208
												C191.19,123.059,191.241,122.727,191.28,122.74z"/>
										</g>
									</g>
								</g>
							</g>
						</g>
						<g>
							<g>
								<g>
									<g>
										<g>
											<g>
												<g>
													<g>
														<g>
															<path style="fill:#263238;" d="M149.969,148.72c-0.084,1.248,0.903,2.348,2.204,2.46
																c1.299,0.112,2.423-0.806,2.508-2.054c0.084-1.248-0.903-2.349-2.202-2.461
																C151.177,146.552,150.053,147.473,149.969,148.72z"/>
														</g>
													</g>
												</g>
											</g>
										</g>
									</g>
								</g>
							</g>
						</g>
						<g>
							<g>
								<g>
									<g>
										<g>
											<g>
												<g>
													<g>
														<g>
															<path style="fill:#263238;" d="M127.039,148.092c-0.085,1.248,0.903,2.348,2.204,2.46
																c1.299,0.112,2.423-0.806,2.507-2.055c0.084-1.248-0.903-2.35-2.202-2.461
																C128.247,145.924,127.123,146.844,127.039,148.092z"/>
														</g>
													</g>
												</g>
											</g>
										</g>
									</g>
								</g>
							</g>
						</g>
						<g>
							<g>
								<g>
									<g>
										<g>
											<g>
												<g>
													<g>
														<g>
															<g>
																<path style="fill:#263238;" d="M126.105,140.242c0.283,0.318,2.118-0.951,4.664-0.862
																	c2.544,0.052,4.371,1.422,4.656,1.119c0.141-0.134-0.141-0.7-0.935-1.319c-0.782-0.615-2.13-1.233-3.716-1.278
																	c-1.586-0.042-2.939,0.499-3.725,1.072C126.248,139.549,125.965,140.098,126.105,140.242z"/>
															</g>
														</g>
													</g>
												</g>
											</g>
										</g>
									</g>
								</g>
							</g>
						</g>
						<g>
							<g>
								<g>
									<g>
										<g>
											<g>
												<g>
													<g>
														<g>
															<g>
																<path style="fill:#263238;" d="M151.423,141.512c0.315,0.287,2.012-1.163,4.552-1.336
																	c2.535-0.21,4.493,0.965,4.747,0.635c0.125-0.148-0.209-0.682-1.066-1.216c-0.841-0.533-2.244-1.008-3.827-0.889
																	c-1.582,0.121-2.872,0.798-3.595,1.449C151.497,140.809,151.27,141.385,151.423,141.512z"/>
															</g>
														</g>
													</g>
												</g>
											</g>
										</g>
									</g>
								</g>
							</g>
						</g>
						<g>
							<g>
								<g>
									<g>
										<g>
											<g>
												<g>
													<g>
														<g>
															<path style="fill:#263238;" d="M141.929,160.623c0.017-0.144-1.557-0.468-4.111-0.879
																c-0.648-0.088-1.259-0.237-1.354-0.684c-0.138-0.475,0.156-1.167,0.496-1.913c0.662-1.553,1.354-3.182,2.082-4.888
																c2.896-6.962,5.015-12.695,4.734-12.809c-0.281-0.114-2.858,5.436-5.754,12.398c-0.698,1.717-1.366,3.354-2.001,4.92
																c-0.27,0.731-0.72,1.556-0.419,2.541c0.16,0.492,0.625,0.859,1.038,0.985c0.413,0.14,0.778,0.159,1.099,0.189
																C140.314,160.705,141.915,160.768,141.929,160.623z"/>
														</g>
													</g>
												</g>
											</g>
										</g>
									</g>
								</g>
							</g>
						</g>
						<path style="fill:#FF9A6C;" d="M145.872,164.408c0.954,0.134,1.907,0.627,2.464,1.425c0.556,0.798,0.958,2.666,0.406,3.392
							c-0.472,0.62-2.574,0.617-4.02,0.435c-0.67-0.084-1.229-0.549-1.451-1.186l-0.571-1.643c-0.325-0.935,0.161-1.985,1.107-2.282
							C144.448,164.348,145.164,164.309,145.872,164.408z"/>
						<g>
							<g>
								<g>
									<g>
										<g>
											<path style="fill:#263238;" d="M150.264,132.216c0.379,0.632,2.813-0.177,5.814-0.395
												c2.999-0.278,5.531,0.119,5.801-0.566c0.117-0.326-0.42-0.885-1.505-1.357c-1.076-0.472-2.71-0.802-4.509-0.655
												c-1.799,0.15-3.356,0.744-4.34,1.387C150.534,131.274,150.096,131.914,150.264,132.216z"/>
										</g>
									</g>
								</g>
							</g>
						</g>
						<g>
							<g>
								<g>
									<g>
										<g>
											<path style="fill:#263238;" d="M126.733,136.061c0.534,0.564,2.549-0.09,4.991-0.185
												c2.438-0.168,4.522,0.267,4.981-0.351c0.201-0.299-0.141-0.87-1.059-1.393c-0.906-0.521-2.408-0.927-4.085-0.838
												c-1.677,0.091-3.117,0.655-3.951,1.27C126.764,135.182,126.496,135.785,126.733,136.061z"/>
										</g>
									</g>
								</g>
							</g>
						</g>
					</g>
				</g>
				<g>
					<g>
						<path style="fill:#455A64;" d="M214.466,241.789l-24.021,87.128l8.426,24.974c-31.72,13.98-77.572,18.424-113.716,0.909
							c0,0,12.277-36.025,12.695-43.038c0.418-7.013-2.6-47.977,0.741-61.715c3.341-13.738,12.906-43.183,12.906-43.183
							l28.135-4.467c12.9,6.929,21.16,7.96,35.033-0.069l26.208,5.716L214.466,241.789z"/>
					</g>
					<g>
						<path style="fill:#455A64;" d="M111.924,206.817c0,0-15.109,1.6-21.193,14.027c-6.01,12.277-22.693,66.612-23.601,75.688
							c-0.908,9.077,6.456,21.295,12.876,22.984l19.467-19.407l16.151,1.438l21.265-99.22L111.924,206.817z"/>
					</g>
					<g style="opacity:0.3;">
						<g>
							<path d="M100.516,240.193c-4.698,12.187-6.026,25.653-3.799,38.522c-3.546-1.324-7.091-2.649-10.637-3.973
								c2.898,4.003,6.705,7.343,11.052,9.695c-2.868-0.829-5.807-1.667-8.787-1.472c-2.979,0.195-6.058,1.63-7.398,4.298
								c3.477-0.635,7.016-1.273,10.527-0.863c3.511,0.41,7.053,2.031,8.943,5.018c-2.622-11.318-3.631-23.007-2.988-34.607"/>
						</g>
					</g>
				</g>
				<g>
					<g style="opacity:0.3;">
						<g>
							<path d="M96.103,314.917l79.289,7.856c-5.715-0.121-10.113,4.716-15.061,7.578c-9.162,5.299-20.572,3.817-31.028,2.173
								c-8.663-1.363-17.326-2.725-25.989-4.087c-2.186-0.344-4.515-0.755-6.126-2.272C94.3,323.446,95.09,318.751,96.103,314.917z"
								/>
						</g>
					</g>
					<g>
						<path style="fill:#FFBF9D;" d="M156.658,308.399l13.277-12.819c1.289-1.244,3.052-1.864,4.835-1.695
							c3.79,0.358,10.212,1.025,11.532,1.539c1.899,0.738,3.692,1.793,4.22,2.743c0.528,0.949,2.321,6.646,2.426,7.49
							c0.051,0.41-0.072,1.593-0.212,2.701c-0.166,1.309-1.606,2.082-2.755,1.432c-0.516-0.292-0.986-0.677-1.253-1.179
							c-0.844-1.583-0.738-2.216-0.738-2.216s0.422,5.697-4.22,5.802c0,0,2.138,4.853-3.837,6.858c0,0,0.221,3.165-4.776,3.587
							c-4.997,0.422-9.533,0-9.533,0s-9.134,6.561-15.57,6.983c-6.435,0.422-20.844-2.391-20.844-2.391l-1.739-26.539
							L156.658,308.399z"/>
					</g>
					<g>
						<g>
							<path style="fill:#FF9A6C;" d="M174.647,300.266c-0.016,0.045,0.795,0.388,2.127,0.891c1.333,0.498,3.189,1.163,5.295,1.723
								c1.042,0.297,2.094,0.464,2.968,0.703c0.888,0.238,1.423,0.903,1.809,1.484c0.386,0.588,0.692,1.088,0.958,1.392
								c0.261,0.309,0.446,0.439,0.459,0.424c0.02-0.021-0.129-0.183-0.349-0.508c-0.227-0.322-0.49-0.826-0.857-1.444
								c-0.188-0.306-0.412-0.641-0.724-0.949c-0.307-0.313-0.734-0.564-1.197-0.711c-0.935-0.275-1.931-0.438-2.978-0.735
								c-2.089-0.555-3.95-1.18-5.303-1.617C175.506,300.478,174.664,300.219,174.647,300.266z"/>
						</g>
					</g>
					<g>
						<g>
							<path style="fill:#FF9A6C;" d="M172.938,308.402c-0.017,0.045,0.547,0.308,1.478,0.682c0.931,0.375,2.231,0.857,3.683,1.343
								c1.453,0.486,2.781,0.882,3.75,1.144c0.969,0.261,1.577,0.391,1.591,0.344c0.014-0.048-0.569-0.263-1.517-0.585
								c-1.077-0.36-2.328-0.778-3.711-1.241c-1.382-0.463-2.633-0.882-3.709-1.242C173.55,308.535,172.956,308.355,172.938,308.402
								z"/>
						</g>
					</g>
					<g>
						<g>
							<path style="fill:#FF9A6C;" d="M169.657,315.968c-0.011,0.109,2.312,0.346,5.075,1.099c2.768,0.738,4.895,1.701,4.94,1.601
								c0.019-0.041-0.489-0.335-1.355-0.72c-0.865-0.385-2.095-0.847-3.493-1.225c-1.398-0.376-2.693-0.595-3.635-0.697
								C170.247,315.924,169.66,315.923,169.657,315.968z"/>
						</g>
					</g>
					<g>
						<path style="fill:#455A64;" d="M138.905,328.917l-58.9-9.402c0,0,7.078-29.543,17.404-29.543
							c1.513,0,53.831,16.997,53.831,16.997L138.905,328.917z"/>
					</g>
					<g>
						<g>
							<path style="fill:#FF9A6C;" d="M149.21,316.054c0.037,0.034,0.553-0.46,1.381-1.264c0.91-0.893,2.006-1.971,3.218-3.161
								c1.25-1.243,2.365-2.387,3.148-3.239c0.784-0.851,1.236-1.407,1.201-1.44c-0.037-0.034-0.553,0.46-1.381,1.264
								c-0.91,0.894-2.006,1.971-3.219,3.162c-1.25,1.243-2.365,2.386-3.147,3.238C149.628,315.465,149.175,316.022,149.21,316.054z
								"/>
						</g>
					</g>
				</g>
				<g>
					<path style="fill:#263238;" d="M151.241,306.969c-0.008,0.028-0.266-0.021-0.749-0.14c-0.576-0.153-1.268-0.338-2.099-0.559
						c-1.944-0.559-4.534-1.304-7.675-2.208c-6.47-1.899-15.39-4.579-25.227-7.589c-5.447-1.682-10.607-3.275-15.188-4.689
						l-0.119-0.037l-0.089-0.12c-1.805-2.428-4.465-3.907-6.865-4.639c-2.44-0.745-4.723-0.834-6.566-0.668
						c-1.853,0.151-3.281,0.558-4.243,0.848c-0.959,0.308-1.456,0.529-1.476,0.49c-0.02-0.036,0.447-0.333,1.394-0.719
						c0.95-0.367,2.383-0.853,4.277-1.074c1.882-0.236,4.242-0.209,6.794,0.515c2.53,0.735,5.297,2.165,7.325,4.83l-0.208-0.156
						c4.588,1.391,9.756,2.958,15.211,4.612c9.837,3.01,18.729,5.78,25.154,7.826c3.108,1.009,5.672,1.84,7.596,2.465
						c0.813,0.282,1.49,0.516,2.053,0.711C151.009,306.837,151.25,306.941,151.241,306.969z"/>
				</g>
			</g>
			<g>
				<g>
					<g>
						<g>
							<path style="fill:#FFBF9D;" d="M135.636,212.538c0.492-1.638,3.259-16.773,4.384-20.293
								c1.587-4.965,14.488-13.844,14.488-13.844s-2.023-4.661-7.516-2.238c-6.503,2.868-9.718,7.696-11.356,6.713
								c-1.638-0.983-11.853-11.381-14.639-11.053c-2.785,0.328-3.397,3.185-2.414,4.332c0.983,1.147,2.086,3.04,2.086,3.04
								s-5.898-1.775-4.751,4.683c0,0-6.717-4.191-6.062,4.655c0,0-4.423-1.802-5.406,1.311c-0.983,3.113,1.932,6.717,3.407,9.175
								c1.475,2.457,6.259,16.711,6.259,16.711l0.056,12.567l23.487-4.827L135.636,212.538z"/>
							<g>
								<path style="fill:#FF9A6C;" d="M135.636,212.538c0.018,0.001,0.08,0.246,0.185,0.721c0.11,0.525,0.256,1.222,0.441,2.107
									c0.375,1.905,0.909,4.612,1.59,8.067l0.037,0.188l-0.191,0.04c-5.8,1.225-13.821,2.919-23.461,4.954l-0.389,0.082
									l-0.003-0.4c-0.029-3.87-0.061-8.103-0.095-12.567l0.019,0.114c-1.676-4.834-3.418-10.033-5.606-15.286
									c-1.07-2.53-3.299-4.735-4.103-7.805c-0.197-0.76-0.288-1.58-0.156-2.4c0.123-0.786,0.495-1.694,1.272-2.189
									c0.755-0.5,1.65-0.609,2.458-0.552c0.824,0.06,1.597,0.239,2.379,0.533l-0.575,0.418c-0.033-0.864-0.067-1.742,0.057-2.648
									c0.161-0.883,0.36-1.868,1.123-2.614c0.739-0.779,1.902-0.946,2.839-0.779c0.967,0.159,1.841,0.503,2.684,0.995l-0.64,0.432
									c-0.157-1.187-0.36-2.634,0.439-3.935c0.498-0.818,1.428-1.286,2.292-1.407c0.883-0.127,1.716-0.037,2.557,0.181
									l-0.487,0.617c-0.589-0.985-1.221-1.969-1.923-2.837c-0.454-0.454-0.693-1.24-0.655-1.878
									c0.034-0.663,0.258-1.302,0.639-1.837c0.378-0.536,0.923-0.95,1.522-1.184c0.301-0.109,0.607-0.198,0.919-0.24
									c0.301-0.042,0.724,0.005,1.017,0.087c1.206,0.391,2.128,1.065,3.064,1.716c3.664,2.676,6.804,5.748,9.971,8.52
									c0.378,0.309,0.844,0.746,1.12,0.824c0.284,0.093,0.755-0.127,1.162-0.37c0.837-0.52,1.635-1.189,2.441-1.813
									c1.604-1.273,3.259-2.464,4.996-3.44c1.727-0.911,3.548-1.922,5.6-1.837c2.059,0.043,3.827,1.413,4.648,3.143l0.12,0.252
									l-0.241,0.171c-5.027,3.573-9.546,7.091-12.743,10.876c-0.796,0.953-1.416,1.956-1.77,3.025
									c-0.329,1.103-0.584,2.201-0.829,3.25c-0.462,2.103-0.887,4.036-1.271,5.785c-0.736,3.45-1.317,6.171-1.727,8.091
									c-0.207,0.93-0.374,1.639-0.501,2.114C135.742,212.303,135.636,212.538,135.636,212.538
									c-0.022,0.001,0.036-0.25,0.125-0.734c0.1-0.532,0.233-1.238,0.401-2.132c0.366-1.929,0.885-4.663,1.542-8.129
									c0.36-1.757,0.757-3.699,1.189-5.812c0.234-1.058,0.474-2.156,0.8-3.295c0.364-1.156,1.032-2.249,1.832-3.224
									c3.244-3.913,7.736-7.456,12.787-11.097l-0.121,0.423c-0.723-1.477-2.275-2.684-4.042-2.695
									c-1.774-0.08-3.508,0.858-5.202,1.769c-1.687,0.958-3.294,2.123-4.884,3.395c-0.806,0.627-1.588,1.296-2.517,1.879
									c-0.471,0.252-1,0.623-1.767,0.462c-0.722-0.266-0.992-0.654-1.441-0.986c-3.203-2.788-6.342-5.838-9.932-8.45
									c-0.892-0.628-1.843-1.284-2.81-1.588c-0.244-0.054-0.41-0.086-0.664-0.063c-0.255,0.034-0.495,0.107-0.732,0.19
									c-0.465,0.183-0.867,0.494-1.151,0.897c-0.565,0.793-0.707,1.988-0.016,2.688c0.758,0.937,1.389,1.923,2.003,2.947
									l0.534,0.89l-1.021-0.273c-1.368-0.366-3.169-0.326-3.893,0.873c-0.597,0.922-0.48,2.235-0.32,3.332l0.129,0.884
									l-0.769-0.451c-0.719-0.422-1.555-0.75-2.36-0.877c-0.81-0.135-1.616,0.004-2.124,0.543c-1.039,1.123-1.01,3.015-0.937,4.6
									l0.029,0.639l-0.604-0.22c-1.324-0.483-2.978-0.768-4.054-0.07c-0.535,0.338-0.809,0.958-0.925,1.639
									c-0.11,0.675-0.039,1.379,0.137,2.062c0.356,1.373,1.079,2.654,1.839,3.882c0.747,1.219,1.652,2.432,2.199,3.806
									c2.201,5.333,3.91,10.512,5.568,15.374l0.019,0.055l0,0.059c0.006,4.464,0.012,8.697,0.017,12.567l-0.392-0.318
									c9.661-1.931,17.7-3.538,23.513-4.7l-0.154,0.228c-0.604-3.485-1.077-6.216-1.409-8.137
									c-0.143-0.887-0.255-1.586-0.34-2.112C135.646,212.779,135.619,212.537,135.636,212.538z"/>
							</g>
						</g>
					</g>
					<g>
						<g>
							<path style="fill:#FF9A6C;" d="M120.691,179.359c-0.063,0.08,1.263,1.213,2.851,2.66c1.591,1.444,2.844,2.656,2.918,2.586
								c0.07-0.065-1.077-1.395-2.679-2.849C122.183,180.298,120.749,179.283,120.691,179.359z"/>
						</g>
					</g>
					<g>
						<g>
							<path style="fill:#FF9A6C;" d="M115.439,183.525c-0.084,0.035,0.419,1.306,1.447,2.624c1.021,1.324,2.127,2.128,2.182,2.055
								c0.069-0.08-0.907-0.984-1.9-2.273C116.166,184.648,115.533,183.478,115.439,183.525z"/>
						</g>
					</g>
					<g>
						<g>
							<path style="fill:#FF9A6C;" d="M109.948,188.21c-0.08,0.057,0.473,0.96,1.234,2.015c0.762,1.055,1.443,1.864,1.523,1.806
								c0.08-0.057-0.473-0.959-1.234-2.015C110.709,188.961,110.028,188.152,109.948,188.21z"/>
						</g>
					</g>
				</g>
			</g>
			<path style="fill:#455A64;" d="M200.872,208.044l-25.26,25.204l-25.915,32.558l-10.306-43.388l-26.334,5.412
				c0,0,1.858,49.011,9.962,71.224c1.542,4.228,6.105,7.371,8.14,8.338c12.731,6.046,25.16-3.309,25.16-3.309
				s53.113-35.647,58.87-59.511c2.719-11.269,1.629-24.667-3.003-30.182C208.114,209.54,200.872,208.044,200.872,208.044z"/>
			<g>
				<path style="fill:#263238;" d="M215.189,244.572c0,0-0.06,0.263-0.202,0.772c-0.167,0.5-0.3,1.285-0.711,2.232
					c-0.668,1.953-2.044,4.688-4.17,7.973c-2.14,3.278-5.088,7.071-8.837,11.175c-3.762,4.091-8.27,8.544-13.51,13.177
					c-5.22,4.655-11.155,9.507-17.688,14.5c-3.269,2.494-6.691,5.019-10.268,7.548c-0.899,0.626-1.804,1.257-2.716,1.892
					c-0.902,0.622-1.845,1.279-2.829,1.833c-1.974,1.116-4.084,2.055-6.306,2.75c-4.419,1.43-9.417,1.719-14.111,0.266
					c-0.598-0.139-1.145-0.432-1.722-0.642c-0.568-0.233-1.152-0.438-1.693-0.755c-1.089-0.601-2.101-1.326-3.066-2.117
					c-1.898-1.601-3.632-3.558-4.56-5.983c-1.683-4.766-2.885-9.758-3.951-14.847c-0.967-5.108-1.865-10.308-2.535-15.602
					c-1.857-14.121-2.914-27.876-3.508-40.904l-0.01-0.213l0.21-0.043c9.191-1.883,17.996-3.687,26.337-5.396l0.223-0.046
					l0.052,0.221c3.894,16.484,7.358,31.151,10.252,43.4l-0.304-0.08c8.895-9.568,16.034-17.247,20.962-22.549
					c2.46-2.63,4.365-4.667,5.668-6.06c0.643-0.679,1.135-1.199,1.477-1.561c0.335-0.349,0.515-0.519,0.515-0.519
					s-0.155,0.193-0.478,0.554c-0.334,0.37-0.814,0.901-1.441,1.595c-1.287,1.407-3.169,3.466-5.599,6.124
					c-4.9,5.327-11.999,13.044-20.844,22.658l-0.226,0.246l-0.078-0.325c-2.924-12.242-6.425-26.9-10.361-43.374l0.274,0.175
					c-8.339,1.719-17.141,3.535-26.33,5.429l0.2-0.255c0.605,13.006,1.669,26.757,3.523,40.854
					c0.67,5.286,1.564,10.474,2.527,15.569c1.06,5.073,2.257,10.048,3.921,14.772c0.876,2.3,2.552,4.209,4.405,5.773
					c0.94,0.773,1.934,1.485,2.985,2.066c0.515,0.304,1.085,0.504,1.641,0.732c0.563,0.205,1.098,0.493,1.681,0.629
					c4.579,1.422,9.467,1.152,13.819-0.249c2.187-0.681,4.27-1.604,6.216-2.7c0.98-0.551,1.874-1.171,2.8-1.808
					c0.911-0.632,1.816-1.26,2.714-1.884c3.576-2.519,7-5.034,10.27-7.517c6.536-4.972,12.477-9.802,17.705-14.432
					c5.248-4.608,9.765-9.035,13.539-13.098c3.761-4.076,6.724-7.84,8.882-11.09c2.144-3.257,3.544-5.966,4.241-7.899
					c0.426-0.938,0.575-1.715,0.758-2.209C215.095,244.827,215.189,244.572,215.189,244.572z"/>
			</g>
			<g>
				<path style="fill:#263238;" d="M154.488,285.731c-0.093-0.021,0.216-1.275,0.377-3.331c0.1-1.027,0.084-2.256,0.012-3.613
					c-0.11-1.355-0.338-2.836-0.725-4.356c-0.777-3.048-2.087-5.61-3.145-7.377c-1.074-1.764-1.87-2.777-1.798-2.834
					c0.028-0.023,0.25,0.211,0.629,0.655c0.388,0.437,0.893,1.116,1.48,1.982c1.151,1.738,2.543,4.328,3.338,7.443
					c0.397,1.553,0.615,3.07,0.7,4.456c0.047,1.387,0.024,2.64-0.124,3.678c-0.125,1.039-0.291,1.873-0.453,2.434
					C154.624,285.434,154.523,285.74,154.488,285.731z"/>
			</g>
			<g>
				<path style="fill:#263238;" d="M150.893,167.708c-0.047,0.139-0.59,0.078-1.42-0.091c-0.831-0.164-1.945-0.418-3.185-0.514
					c-1.241-0.104-2.35-0.014-3.113,0.186c-0.78,0.182-1.108,0.498-1.235,0.446c-0.061-0.029-0.062-0.201,0.096-0.435
					c0.155-0.231,0.46-0.488,0.874-0.698c0.827-0.43,2.106-0.654,3.461-0.538c1.362,0.106,2.534,0.501,3.325,0.85
					C150.491,167.27,150.939,167.574,150.893,167.708z"/>
			</g>
		</g>
		<g style="opacity:0.3;">
			<path d="M191.018,328.363c0,0-11.563-1.418-17.783-2.38c-3.4-0.526-8.576-1.072-9.555-2.022c-1.217-1.18-1.209-3.145-1.338-4.836
				c-2.205-28.846,7.712-60.052,38.366-78.662l7.819,2.056l-0.506,18.792L191.018,328.363z"/>
		</g>
	</g>
</g>
<g id="Character_2">
	<g>
		<g>
			<g>
				<g>
					<g>
						<g>
							<g>
								<g>
									<g>
										<g>
											<g>
												<g>
													<g>
														<path style="fill:#263238;" d="M371.737,103.542c3.923,0.351,7.866-2.62,8.609-6.488
															c0.744-3.868-1.816-8.089-5.589-9.218c2.373-2.552,2.882-6.656,1.207-9.712c-1.675-3.056-5.409-4.832-8.837-4.204
															c-0.227-3.433-2.361-6.678-5.424-8.247c-3.062-1.569-6.943-1.404-9.862,0.419c-3.878-3.165-10.006-3.138-13.856,0.06
															c-3.355-0.536-6.954,1.331-8.449,4.383c-1.495,3.051-0.762,7.04,1.718,9.362"/>
													</g>
												</g>
											</g>
										</g>
									</g>
								</g>
							</g>
						</g>
						<g>
							<g>
								<g>
									<g>
										<g>
											<g>
												<g>
													<path style="fill:#FFBF9D;" d="M336.451,74.123l1.766-0.041c17.767-0.414,32.875,12.882,34.715,30.559
														c1.712,16.441,3.393,34.627,3.49,43.466c0.2,18.303-18.034,21.575-18.034,21.575l2.06,21.947l-44.439-0.34
														l-5.787-79.634C308.141,92.693,317.44,75.679,336.451,74.123z"/>
												</g>
											</g>
										</g>
									</g>
								</g>
								<g>
									<g>
										<g>
											<g>
												<g>
													<g>
														<g>
															<g>
																<g>
																	<g>
																		<g>
																			<path style="fill:#FF9A6C;" d="M358.411,169.677c0,0-12.759,0.95-25.229-6.483c0,0,7.435,13.339,25.654,11.265
																				L358.411,169.677z"/>
																		</g>
																	</g>
																</g>
															</g>
														</g>
													</g>
												</g>
											</g>
										</g>
									</g>
								</g>
								<g>
									<g>
										<g>
											<g>
												<g>
													<g>
														<g>
															<g>
																<g>
																	<g>
																		<g>
																			<g>
																				<g>
																					<g>
																						<path style="fill:#263238;" d="M367.343,124.499c0.082,1.379-1.02,2.584-2.458,2.695
																							c-1.435,0.11-2.667-0.914-2.748-2.293c-0.081-1.379,1.019-2.585,2.455-2.697
																							C366.03,122.093,367.262,123.12,367.343,124.499z"/>
																					</g>
																				</g>
																			</g>
																		</g>
																	</g>
																</g>
															</g>
														</g>
													</g>
												</g>
											</g>
										</g>
									</g>
								</g>
								<g>
									<g>
										<g>
											<g>
												<g>
													<g>
														<g>
															<g>
																<g>
																	<g>
																		<g>
																			<g>
																				<g>
																					<g>
																						<g>
																							<path style="fill:#263238;" d="M369.207,113.685c-0.316,0.349-2.329-1.071-5.141-0.998
																								c-2.81,0.032-4.84,1.527-5.152,1.19c-0.154-0.149,0.162-0.772,1.045-1.447
																								c0.869-0.672,2.363-1.341,4.115-1.374c1.752-0.031,3.24,0.579,4.102,1.219
																								C369.056,112.919,369.363,113.528,369.207,113.685z"/>
																						</g>
																					</g>
																				</g>
																			</g>
																		</g>
																	</g>
																</g>
															</g>
														</g>
													</g>
												</g>
											</g>
										</g>
									</g>
								</g>
								<g>
									<g>
										<g>
											<g>
												<g>
													<g>
														<g>
															<g>
																<g>
																	<g>
																		<g>
																			<g>
																				<g>
																					<g>
																						<path style="fill:#263238;" d="M343.131,124.499c0.081,1.379-1.02,2.584-2.458,2.694
																							c-1.435,0.111-2.667-0.914-2.748-2.293c-0.081-1.378,1.02-2.585,2.456-2.696
																							C341.818,122.092,343.05,123.12,343.131,124.499z"/>
																					</g>
																				</g>
																			</g>
																		</g>
																	</g>
																</g>
															</g>
														</g>
													</g>
												</g>
											</g>
										</g>
									</g>
								</g>
								<g>
									<g>
										<g>
											<g>
												<g>
													<g>
														<g>
															<g>
																<g>
																	<g>
																		<g>
																			<g>
																				<g>
																					<g>
																						<g>
																							<path style="fill:#263238;" d="M341.581,114.853c-0.316,0.348-2.333-1.07-5.142-0.997
																								c-2.809,0.033-4.839,1.527-5.152,1.19c-0.153-0.149,0.159-0.772,1.046-1.447
																								c0.869-0.672,2.362-1.34,4.114-1.374c1.751-0.032,3.24,0.579,4.103,1.219
																								C341.427,114.088,341.736,114.697,341.581,114.853z"/>
																						</g>
																					</g>
																				</g>
																			</g>
																		</g>
																	</g>
																</g>
															</g>
														</g>
													</g>
												</g>
											</g>
										</g>
									</g>
								</g>
								<g>
									<g>
										<g>
											<g>
												<g>
													<g>
														<g>
															<g>
																<g>
																	<g>
																		<g>
																			<g>
																				<g>
																					<g>
																						<path style="fill:#263238;" d="M352.271,135.468c-0.017-0.16,1.724-0.503,4.547-0.931
																							c0.716-0.09,1.393-0.249,1.502-0.742c0.157-0.523-0.162-1.29-0.529-2.117
																							c-0.715-1.721-1.464-3.526-2.25-5.418c-3.131-7.716-5.414-14.066-5.102-14.19
																							c0.312-0.123,3.102,6.031,6.232,13.746c0.755,1.903,1.476,3.717,2.162,5.452
																							c0.291,0.81,0.78,1.725,0.438,2.809c-0.181,0.541-0.699,0.943-1.156,1.078
																							c-0.457,0.151-0.861,0.168-1.215,0.197C354.054,135.573,352.286,135.627,352.271,135.468z"/>
																					</g>
																				</g>
																			</g>
																		</g>
																	</g>
																</g>
															</g>
														</g>
													</g>
												</g>
											</g>
										</g>
									</g>
								</g>
								<g>
									<g>
										<g>
											<g>
												<g>
													<g>
														<g>
															<g>
																<g>
																	<g>
																		<path style="fill:#263238;" d="M342.176,109.047c-0.354,0.722-2.782,0.005-5.751-0.022
																			c-2.968-0.094-5.455,0.524-5.743-0.211c-0.125-0.35,0.387-1.003,1.443-1.599c1.047-0.595,2.65-1.074,4.43-1.04
																			c1.779,0.038,3.336,0.58,4.327,1.218C341.88,108.03,342.333,108.703,342.176,109.047z"/>
																	</g>
																</g>
															</g>
														</g>
													</g>
												</g>
											</g>
										</g>
									</g>
								</g>
								<g>
									<g>
										<g>
											<g>
												<g>
													<g>
														<g>
															<g>
																<g>
																	<g>
																		<path style="fill:#263238;" d="M369.073,102.087c-0.578,0.652-2.913,0.043-5.705,0.078
																			c-2.792-0.048-5.144,0.549-5.703-0.106c-0.246-0.319,0.111-0.967,1.129-1.596
																			c1.003-0.626,2.694-1.159,4.613-1.154c1.918,0.006,3.594,0.546,4.58,1.177
																			C368.988,101.12,369.327,101.77,369.073,102.087z"/>
																	</g>
																</g>
															</g>
														</g>
													</g>
												</g>
											</g>
										</g>
									</g>
								</g>
								<g>
									<g>
										<g>
											<g>
												<g>
													<g>
														<g>
															<g>
																<g>
																	<path style="fill:#263238;" d="M370.977,96.291c0,0-5.093-11.346-10.681-13.892
																		c-6.764-3.081-9.473,4.328-15.888,2.695c-6.416-1.633-12.874-4.59-19.274,0.489
																		c-7.005,5.56-3.576,9.266-3.827,17.394c-1.019,32.956-6.812,42.404-8.884,26.941
																		c-0.227-1.694-4.972-2.935-5.838-10.095c-1.123-9.285-1.744-20.575,0.179-27.227
																		c1.621-5.607,4.705-9.527,10.297-13.9c8.828-6.902,21.164-7.334,29.564-6.686
																		C355.024,72.659,371.405,81.925,370.977,96.291z"/>
																</g>
															</g>
														</g>
													</g>
												</g>
											</g>
										</g>
									</g>
								</g>
								<g>
									<g>
										<g>
											<g>
												<g>
													<g>
														<g>
															<g>
																<g>
																	<path style="fill:#FFBF9D;" d="M313.577,129.393c-0.181-2.822-2.666-4.994-5.474-4.661
																		c-3.405,0.404-7.157,2.43-6.767,9.476c0.691,12.5,13.098,9.227,13.1,8.868
																		C314.437,142.832,313.913,134.622,313.577,129.393z"/>
																</g>
															</g>
														</g>
													</g>
												</g>
											</g>
										</g>
									</g>
								</g>
								<g>
									<g>
										<g>
											<g>
												<g>
													<g>
														<g>
															<g>
																<g>
																	<path style="fill:#FF9A6C;" d="M311.456,138.524c-0.057-0.037-0.21,0.165-0.568,0.354
																		c-0.349,0.184-0.96,0.331-1.626,0.123c-1.348-0.411-2.576-2.446-2.76-4.696c-0.095-1.135,0.084-2.232,0.438-3.151
																		c0.331-0.936,0.886-1.607,1.545-1.762c0.653-0.19,1.146,0.182,1.318,0.525c0.187,0.34,0.122,0.594,0.189,0.612
																		c0.037,0.03,0.257-0.225,0.128-0.735c-0.065-0.245-0.228-0.532-0.535-0.756c-0.313-0.227-0.762-0.327-1.222-0.251
																		c-0.96,0.12-1.779,1.055-2.167,2.063c-0.441,1.016-0.669,2.25-0.562,3.525c0.219,2.514,1.639,4.801,3.475,5.222
																		c0.892,0.181,1.611-0.125,1.974-0.44C311.45,138.827,311.5,138.544,311.456,138.524z"/>
																</g>
															</g>
														</g>
													</g>
												</g>
											</g>
										</g>
									</g>
								</g>
							</g>
							<g>
								<g>
									<g>
										<g>
											<g>
												<g>
													<g>
														<g>
															<path style="fill:#263238;" d="M313.257,105.151c1.65,1.071,3.393,2.174,5.355,2.323
																c1.962,0.148,4.174-1.028,4.459-2.975c0.128-0.875-0.108-1.88,0.448-2.566c0.664-0.819,1.931-0.597,2.981-0.51
																c3.646,0.301,7.802-3.815,8.645-7.375c0.96,1.367,3.002,1.74,4.384,0.802c1.383-0.937,1.882-1.466,2.952-2.75
																c1.069-1.283,2.585-2.444,4.244-2.248c0.928,0.11,1.806,0.64,2.735,0.536c1.64-0.184,2.397-2.126,2.607-3.763
																c0.211-1.636,0.36-3.543,1.73-4.462c1.27-0.852,2.952-0.415,4.47-0.228c1.517,0.187,3.461-0.213,3.814-1.701
																c0.185-0.78-0.167-1.589-0.612-2.256c-2.019-3.021-6.299-4.284-9.635-2.844c-1.32-4.105-5.261-7.232-9.559-7.584
																c-4.298-0.353-8.695,2.09-10.666,5.926c-2.7-2.337-6.565-3.254-10.027-2.379c-3.462,0.875-6.427,3.518-7.693,6.858
																c-3.061-0.729-6.502,0.528-8.372,3.06c-1.869,2.532-2.059,6.19-0.461,8.902c-2.219,1.337-4.092,3.616-4.078,6.207
																c0.014,2.59,2.596,5.111,5.079,4.372c-0.963,2.039-0.077,4.756,1.902,5.837c1.98,1.081,4.744,0.357,5.939-1.556"/>
														</g>
													</g>
												</g>
											</g>
										</g>
									</g>
								</g>
							</g>
							<g>
								<g>
									<g>
										<g>
											<g>
												<g>
													<g>
														<g>
															<g>
																<path style="fill:#455A64;" d="M352.85,78.795c0.01,0.001,0.011,0.078,0.003,0.229
																	c-0.013,0.15-0.017,0.378-0.064,0.67c-0.101,0.58-0.314,1.441-0.852,2.431c-0.542,0.976-1.392,2.108-2.705,3.022
																	c-1.286,0.924-3.063,1.645-5.09,1.58l0.205-0.282c0.413,1.061,0.337,2.347-0.17,3.459
																	c-0.479,1.131-1.25,2.141-2.069,3.126c-0.42,0.474-0.781,1.028-1.367,1.468c-0.569,0.423-1.257,0.676-1.965,0.782
																	c-1.406,0.213-3.009-0.186-4.06-1.349l0.464-0.144c-0.26,2.494-1.617,5.015-3.828,6.584
																	c-1.169,0.887-2.628,1.447-4.077,1.442c-1.449,0.02-2.804-0.374-4.069-0.794l0.331-0.155
																	c-0.636,1.571-1.638,2.921-2.871,3.93c-1.209,1.007-2.836,1.618-4.33,1.289c-2.967-0.556-4.983-2.966-5.432-5.269
																	l0.287,0.125c-1.446,0.833-3.017,0.946-4.284,0.732c-1.284-0.204-2.301-0.736-3.028-1.267
																	c-0.731-0.542-1.169-1.105-1.434-1.496c-0.244-0.407-0.346-0.633-0.332-0.64c0.062-0.053,0.437,0.941,1.888,1.964
																	c0.724,0.488,1.717,0.972,2.952,1.139c1.219,0.179,2.706,0.036,4.041-0.76l0.231-0.138l0.056,0.264
																	c0.447,2.148,2.386,4.395,5.137,4.879c1.353,0.284,2.784-0.262,3.93-1.215c1.151-0.951,2.106-2.252,2.697-3.728
																	l0.093-0.234l0.238,0.078c1.245,0.41,2.553,0.778,3.892,0.756c1.34-0.003,2.649-0.501,3.764-1.341
																	c2.089-1.485,3.362-3.844,3.621-6.205l0.065-0.594l0.4,0.449c0.887,0.995,2.321,1.379,3.586,1.19
																	c0.634-0.091,1.245-0.314,1.742-0.678c0.485-0.35,0.862-0.898,1.288-1.376c0.818-0.969,1.569-1.941,2.025-2.993
																	c0.483-1.04,0.554-2.171,0.199-3.132l-0.109-0.296l0.315,0.014c1.91,0.084,3.622-0.571,4.879-1.438
																	c1.284-0.855,2.134-1.931,2.692-2.863C352.828,80.092,352.76,78.768,352.85,78.795z"/>
															</g>
														</g>
													</g>
												</g>
											</g>
										</g>
									</g>
								</g>
							</g>
						</g>
					</g>
				</g>
			</g>
			<path style="fill:#FFBF9D;" d="M262.871,189.666c0,0-47.022,16.561-60.624,23.402c-10.626,5.344-17.359,24.733-1.007,32.814
				c12.193,6.026,78.199-5.49,78.199-5.49L262.871,189.666z"/>
			<g>
				<g>
					<g>
						<g>
							<path style="fill:#263238;" d="M406.42,354.3l-119.474-4.521l-4.326,40.67l-4.786,81.58l60.987,0.257
								c0.025-0.346,7.606-45.858,7.606-45.858l3.446-0.902l-0.32,46.76h57.161c3.001-38.695,4.716-71.195,4.821-74.253
								C412.367,373.86,406.42,354.3,406.42,354.3z"/>
							<g>
								<g>
									<g>
										<g>
											<g>
												<g>
													<g>
														<g>
															<g>
																<g>
																	<path style="fill:#455A64;" d="M342.126,401.081c-0.022,0.055,0.617,0.394,1.815,0.924
																		c1.202,0.505,2.968,1.279,5.339,1.618c1.183,0.164,2.521,0.17,3.915-0.138c1.384-0.306,2.849-0.963,4.009-2.138
																		c1.16-1.177,1.871-2.786,2.297-4.443c0.43-1.672,0.644-3.4,0.921-5.159c1.058-7.053,1.704-13.481,2.042-18.14
																		c0.17-2.329,0.267-4.217,0.309-5.523c0.039-1.306,0.028-2.03-0.033-2.034c-0.063-0.004-0.169,0.712-0.317,2.008
																		c-0.161,1.486-0.359,3.321-0.594,5.491c-0.5,4.635-1.244,11.031-2.299,18.065
																		c-0.539,3.477-0.857,7.009-2.925,9.158c-2.066,2.11-5.052,2.449-7.253,2.22c-2.273-0.242-4.055-0.909-5.286-1.312
																		C342.838,401.251,342.151,401.021,342.126,401.081z"/>
																</g>
															</g>
														</g>
													</g>
												</g>
											</g>
										</g>
									</g>
								</g>
							</g>
							<g>
								<g>
									<g>
										<g>
											<g>
												<g>
													<g>
														<g>
															<g>
																<g>
																	<path style="fill:#455A64;" d="M353.518,367.661c0.012-0.039-0.285-0.21-0.884-0.221
																		c-0.593-0.019-1.484,0.199-2.344,0.865c-0.823,0.661-1.678,1.823-1.65,3.357c-0.004,1.555,1.272,3.031,2.875,3.532
																		c1.59,0.545,3.492,0.11,4.409-1.146c0.93-1.22,0.928-2.663,0.654-3.683c-0.299-1.045-0.889-1.748-1.378-2.083
																		c-0.491-0.345-0.83-0.383-0.844-0.344c-0.111,0.121,1.226,0.663,1.603,2.574c0.168,0.901,0.071,2.112-0.681,3.016
																		c-0.72,0.923-2.166,1.247-3.483,0.812c-1.319-0.429-2.293-1.545-2.328-2.715c-0.071-1.173,0.567-2.206,1.235-2.834
																		C352.137,367.471,353.535,367.825,353.518,367.661z"/>
																</g>
															</g>
														</g>
													</g>
												</g>
											</g>
										</g>
									</g>
								</g>
							</g>
							<g>
								<g>
									<g>
										<g>
											<g>
												<g>
													<g>
														<g>
															<g>
																<g>
																	<path style="fill:#455A64;" d="M286.946,388.002c-0.002,0.062,0.515,0.117,1.456,0.164
																		c0.94,0.063,2.307,0.029,3.986-0.123c3.356-0.292,7.982-1.305,12.665-3.505c4.676-2.218,8.4-5.146,10.758-7.551
																		c1.185-1.2,2.079-2.234,2.628-3c0.562-0.756,0.847-1.19,0.798-1.228c-0.124-0.1-1.422,1.52-3.866,3.768
																		c-2.434,2.251-6.129,5.027-10.702,7.197c-4.58,2.151-9.071,3.239-12.356,3.688
																		C289.023,387.87,286.947,387.841,286.946,388.002z"/>
																</g>
															</g>
														</g>
													</g>
												</g>
											</g>
										</g>
									</g>
								</g>
							</g>
						</g>
					</g>
				</g>
			</g>
			<g>
				<g>
					<path style="fill:#455A64;" d="M408.828,347.669c-2.344-5.336-1.909-5.827-1.909-5.827l-6.643-58.128l-6.38-56.547
						l-5.174-41.855l-29.887-6.4c0,0-3.441,9.534-17.888,9.823c-16.644,0.332-26.182-14.55-26.182-14.55l-47.789,10.26
						l17.972,123.262l2.155,33.201c0,0-3.568,5.372-3.568,11.135c0,5.763-0.234,9.604-0.234,9.604
						c44.358,12.186,88.377,22.739,128.88,10.942C412.181,372.591,411.171,353.005,408.828,347.669z"/>
					<g>
						<path style="fill:#455A64;" d="M377.819,183.13c0,0,17.226,1.924,23.338,8.412c6.112,6.488,25.65,38.588,25.65,38.588
							l-28.378,38.824l-13.147-17.94L377.819,183.13z"/>
					</g>
					<g>
						<g>
							<g>
								<path style="fill:#263238;" d="M390.952,203.22c0.239-0.023,2.953,21.314,6.061,47.652
									c3.11,26.347,5.437,47.718,5.198,47.741c-0.238,0.023-2.952-21.31-6.062-47.657
									C393.04,224.618,390.713,203.243,390.952,203.22z"/>
							</g>
						</g>
					</g>
				</g>
			</g>
			<polygon style="fill:#455A64;" points="266.976,184.445 228.712,201.429 242.557,240.163 279.439,246.008 			"/>
			<g>
				<path style="fill:#263238;" d="M272.243,210.121c0.255-0.027,2.08,15.085,4.077,33.75c1.997,18.671,3.409,33.824,3.154,33.852
					c-0.255,0.027-2.08-15.082-4.077-33.753C273.4,225.305,271.988,210.148,272.243,210.121z"/>
			</g>
			<g style="opacity:0.3;">
				<path d="M281.677,406.517c20.775-7.47,32.286-22.188,41.578-37.799c9.291-15.61,10.62-37.593,4.672-54.758
					c0,0-42.935,41.534-43.24,42.449C284.382,357.325,281.677,406.517,281.677,406.517z"/>
			</g>
			<g style="opacity:0.3;">
				<path d="M340.117,188.197c-0.514,4.217,1.842,8.283,4.732,11.397c2.891,3.114,6.39,5.651,9.024,8.985
					c3.007,3.805,4.728,8.441,6.402,12.992c3.496,9.504,6.992,19.007,10.488,28.511c3.011,8.185,6.062,16.45,10.836,23.748
					c4.774,7.298,11.496,13.65,19.799,16.319l-6.304-53.542l-33.254-53.479L340.117,188.197z"/>
			</g>
			<g>
				<g>
					<path style="fill:#FFBF9D;" d="M374.573,188.663c0-0.673,0.534-25.473-1.129-28.167c-1.663-2.693-2.994-5.219-3.326-7.744
						c0,0,0.907-1.473-0.746-2.396c-1.653-0.923-4.275,1.327-4.332,5.307s0.399,10.788,0.399,10.788s-18.295-10.384-23.311-10.673
						c-5.016-0.288-12.539-1.211-12.938,1.212c-0.399,2.423-0.057,3,2.565,3.923c2.622,0.923,6.782,1.558,10.886,2.942
						c4.104,1.385,5.984,2.325,5.984,2.325s-9.347-2.752-11.399,0c-2.052,2.751-1.767,5.232-0.456,6.559
						c0,0-2.793,1.154-2.508,4.211c0.285,3.058,1.653,3.808,1.653,3.808s-2.736,2.077-1.425,4.731
						c1.311,2.654,4.389,0.981,7.295,3.981c2.907,3,10.145,10.038,12.938,11.596c2.793,1.558,9.176,2.192,9.176,2.192
						L374.573,188.663z"/>
					<g>
						<path style="fill:#FF9A6C;" d="M374.573,188.663c0.006,0.002-0.049,0.087-0.163,0.253c-0.126,0.179-0.296,0.422-0.518,0.737
							c-0.475,0.663-1.162,1.622-2.05,2.863c-1.823,2.518-4.474,6.181-7.833,10.822l-0.045,0.063l-0.077-0.008
							c-1.263-0.133-2.579-0.319-3.946-0.576c-1.365-0.26-2.787-0.577-4.21-1.115c-0.716-0.256-1.41-0.653-2.042-1.113
							c-0.645-0.45-1.263-0.95-1.891-1.461c-1.245-1.032-2.489-2.143-3.752-3.306c-1.263-1.165-2.543-2.384-3.84-3.654
							c-0.644-0.64-1.296-1.288-1.957-1.944c-0.652-0.679-1.291-1.328-2.108-1.776c-0.802-0.467-1.725-0.694-2.672-0.904
							c-0.922-0.211-2.035-0.431-2.73-1.304c-0.68-0.812-0.974-1.958-0.715-3.015c0.268-1.055,0.927-1.942,1.762-2.636l0.027,0.36
							c-0.724-0.503-1.076-1.233-1.356-1.985c-0.256-0.764-0.398-1.549-0.426-2.38c-0.029-0.835,0.22-1.694,0.7-2.406
							c0.493-0.707,1.153-1.27,1.955-1.645l-0.074,0.366c-1.171-1.17-1.347-3.037-0.808-4.533c0.252-0.765,0.641-1.477,1.106-2.131
							c0.214-0.333,0.554-0.677,0.925-0.868c0.372-0.206,0.77-0.338,1.171-0.436c1.616-0.34,3.255-0.2,4.867,0.007
							c1.617,0.226,3.219,0.569,4.82,1.017l-0.172,0.438c-2.403-1.104-5.003-2.035-7.646-2.84c-2.659-0.794-5.436-1.313-8.206-2.096
							c-0.992-0.314-1.98-0.599-2.904-1.191c-0.461-0.298-0.841-0.831-0.911-1.398c-0.085-0.555-0.016-1.079,0.052-1.588
							c0.038-0.233,0.061-0.545,0.231-0.816c0.162-0.26,0.391-0.449,0.626-0.596c0.482-0.278,0.995-0.415,1.501-0.514
							c1.017-0.187,2.031-0.221,3.034-0.226c2.007,0.002,3.981,0.155,5.932,0.29c0.977,0.08,1.933,0.09,2.934,0.283
							c0.482,0.108,0.948,0.255,1.42,0.38l1.371,0.477c3.6,1.368,6.969,3.026,10.224,4.675c3.25,1.661,6.373,3.344,9.368,5.032
							l-0.321,0.201c-0.224-3.929-0.457-7.689-0.356-11.328c0.137-1.813,0.826-3.68,2.341-4.731
							c0.381-0.246,0.825-0.418,1.292-0.435c0.466-0.027,0.944,0.165,1.287,0.435c0.358,0.266,0.659,0.669,0.734,1.132
							c0.077,0.464-0.031,0.909-0.25,1.309l0.025-0.119c0.395,2.77,1.778,5.157,3.069,7.327c0.159,0.257,0.35,0.563,0.436,0.881
							c0.107,0.311,0.163,0.621,0.227,0.929c0.112,0.617,0.192,1.226,0.253,1.826c0.126,1.201,0.199,2.366,0.259,3.493
							c0.217,4.507,0.214,8.398,0.213,11.58c-0.01,3.182-0.054,5.657-0.092,7.336c-0.023,0.825-0.041,1.462-0.054,1.911
							C374.594,188.441,374.573,188.663,374.573,188.663s-0.016-0.219-0.017-0.652c0-0.449,0.001-1.086,0.002-1.911
							c-0.001-1.698-0.003-4.167-0.006-7.334c-0.03-3.18-0.057-7.069-0.3-11.564c-0.066-1.123-0.146-2.284-0.277-3.475
							c-0.064-0.595-0.146-1.198-0.259-1.8c-0.128-0.617-0.249-1.171-0.63-1.699c-1.305-2.176-2.725-4.578-3.149-7.45l-0.008-0.057
							l0.034-0.062c0.168-0.307,0.263-0.704,0.197-1.055c-0.061-0.356-0.288-0.668-0.596-0.897
							c-0.612-0.514-1.473-0.432-2.145,0.022c-1.355,0.939-2.032,2.708-2.151,4.439c-0.088,3.571,0.152,7.362,0.386,11.271
							l0.023,0.394l-0.344-0.193c-2.99-1.676-6.115-3.352-9.36-5.004c-3.248-1.64-6.617-3.29-10.18-4.639l-1.35-0.468
							c-0.458-0.12-0.915-0.265-1.376-0.367c-0.904-0.178-1.9-0.195-2.871-0.272c-1.951-0.133-3.919-0.285-5.898-0.285
							c-0.987,0.005-1.983,0.042-2.945,0.219c-0.925,0.188-2.002,0.517-1.975,1.525c-0.067,0.49-0.125,0.989-0.053,1.443
							c0.065,0.456,0.32,0.816,0.712,1.082c0.799,0.517,1.806,0.824,2.766,1.124c2.727,0.772,5.524,1.297,8.205,2.097
							c2.682,0.82,5.257,1.741,7.723,2.876l-0.172,0.438c-1.567-0.44-3.164-0.783-4.751-1.006c-1.582-0.208-3.197-0.337-4.699-0.02
							c-0.739,0.178-1.441,0.48-1.824,1.119c-0.445,0.623-0.812,1.297-1.047,2.007c-0.503,1.398-0.326,3.052,0.693,4.074
							l0.226,0.226l-0.3,0.14c-0.691,0.322-1.326,0.853-1.758,1.48c-0.429,0.637-0.652,1.392-0.628,2.15
							c0.022,0.758,0.161,1.539,0.397,2.242c0.238,0.689,0.631,1.389,1.151,1.75l0.252,0.175l-0.226,0.186
							c-0.752,0.62-1.381,1.467-1.61,2.392c-0.233,0.919,0.03,1.939,0.622,2.649c0.577,0.744,1.565,0.959,2.5,1.172
							c0.948,0.213,1.926,0.454,2.779,0.953c0.863,0.474,1.561,1.19,2.191,1.851c0.657,0.657,1.305,1.306,1.946,1.947
							c1.29,1.272,2.563,2.493,3.818,3.66c1.256,1.166,2.492,2.278,3.724,3.309c1.248,1.002,2.437,2.037,3.831,2.54
							c1.385,0.532,2.796,0.856,4.149,1.122c1.355,0.263,2.668,0.457,3.918,0.597l-0.121,0.054
							c3.395-4.596,6.075-8.224,7.918-10.718c0.916-1.227,1.623-2.175,2.113-2.831c0.236-0.31,0.417-0.549,0.551-0.725
							C374.5,188.743,374.573,188.663,374.573,188.663z"/>
					</g>
				</g>
				<path style="fill:#FFBF9D;" d="M433.867,246.562c-1.828-3.494-5.957-10.766-7.947-15.218l-13.078,4.753
					c0,0-37.047-50.044-38.23-50.044c-1.183,0-17.273,14.918-17.273,14.918c0.71,0.71,34.066,77.158,46.843,85.439
					c12.777,8.281,22.299,13.54,29.16,1.71C440.203,276.29,441.911,261.941,433.867,246.562z"/>
				<g>
					<path style="fill:#FF9A6C;" d="M429.592,258.558c-0.03,0.015-0.247-0.332-0.614-0.97c-0.362-0.641-0.902-1.56-1.585-2.683
						c-1.361-2.25-3.376-5.276-5.821-8.458c-2.446-3.183-4.82-5.939-6.547-7.928c-0.813-0.937-1.498-1.726-2.046-2.356
						c-0.48-0.56-0.733-0.88-0.709-0.903c0.024-0.022,0.324,0.255,0.846,0.777c0.523,0.52,1.262,1.29,2.161,2.257
						c1.794,1.934,4.217,4.665,6.675,7.863c2.457,3.197,4.44,6.273,5.733,8.577c0.649,1.151,1.145,2.098,1.457,2.768
						C429.46,258.168,429.621,258.543,429.592,258.558z"/>
				</g>
			</g>
			<g>
				<path style="fill:#263238;" d="M354.233,147.118c-0.332,0.245-1.711-1.176-3.901-1.941c-2.17-0.821-4.139-0.619-4.236-1.02
					c-0.043-0.182,0.429-0.498,1.304-0.665c0.867-0.17,2.137-0.131,3.424,0.335c1.285,0.469,2.282,1.256,2.838,1.943
					C354.224,146.461,354.382,147.006,354.233,147.118z"/>
			</g>
			<g>
				<path style="fill:#263238;" d="M387.674,347.326c0.008,0.015-0.15,0.106-0.457,0.268c-0.312,0.151-0.756,0.418-1.369,0.664
					c-1.215,0.519-3.052,1.124-5.402,1.454c-2.347,0.327-5.194,0.363-8.298-0.041c-3.106-0.394-6.464-1.176-9.911-2.214
					c-6.887-2.105-12.983-4.413-17.345-6.198c-2.181-0.893-3.929-1.657-5.129-2.202c-0.558-0.26-1.013-0.473-1.375-0.642
					c-0.312-0.152-0.472-0.239-0.466-0.255c0.007-0.015,0.18,0.043,0.504,0.166c0.371,0.147,0.838,0.332,1.41,0.559
					c1.284,0.51,3.039,1.207,5.181,2.058c4.387,1.701,10.493,3.955,17.358,6.053c3.432,1.034,6.759,1.822,9.831,2.236
					c3.07,0.423,5.877,0.422,8.198,0.143c2.324-0.283,4.151-0.829,5.377-1.291C386.995,347.602,387.654,347.286,387.674,347.326z"/>
			</g>
		</g>
		<g>
			<g>
				<path style="fill:#FF725E;" d="M297.188,251.916c-16.701-11.249-36.565-15.267-49.585-15.275
					c-12.194-0.008-30.14,1.903-46.388,11.054c-10.091,5.683-18.145,13.452-23.937,23.089c-6.861,11.416-10.58,25.544-11.053,41.992
					c-0.071,2.468,0.839,4.804,2.562,6.579c1.732,1.784,4.055,2.767,6.541,2.769l31.973,0.021c4.511,0.003,8.391-3.36,9.026-7.824
					c1.424-10.025,7.386-26.903,31.313-27.3c18.235-0.293,25.739,12.9,28.124,18.59c3.88,9.259,2.887,20.236-2.657,29.363
					c-8.517,14.022-24.17,16.159-32.742,16.184c-9.858,0.03-17.883,8.027-17.89,17.827l-0.023,34.405
					c-0.003,5.025,4.082,9.115,9.106,9.118l31.152,0.021c5.024,0.003,9.115-4.082,9.118-9.106l0.005-7.229
					c0-0.173,0.108-0.323,0.276-0.382c7.058-2.471,20.741-8.445,33.069-20.686c15.738-15.627,23.727-35.805,23.743-59.972
					C328.944,280.569,311.677,261.675,297.188,251.916z"/>
				<path style="fill:#FF725E;" d="M248.68,421.181l-2.725-0.002c-13.028-0.009-23.634,10.583-23.643,23.612
					s10.583,23.634,23.612,23.643l2.725,0.002c13.028,0.009,23.634-10.583,23.643-23.612
					C272.3,431.796,261.708,421.19,248.68,421.181z"/>
			</g>
			<g style="opacity:0.3;">
				<path d="M327.72,293.059c-0.418-3.522-1.337-6.894-2.635-10.132c-6.237-15.562-20.873-26.167-37.531-28.061l-80.386-9.142
					c8.741,8.934,20.154,10.713,32.253,13.849c12.099,3.136,25.125,7.838,37.349,10.44c3.923,0.835,7.976,1.877,11.027,4.48
					c2.977,2.539,4.638,6.252,6.206,9.836c2.324,5.313,4.649,10.625,6.973,15.938c2.654,6.066,6.184,12.916,13.329,13.307
					c2.883,0.158,5.712-0.922,7.904-2.801C327.382,306.336,328.475,299.426,327.72,293.059z"/>
			</g>
			<g>
				<path style="fill:#FFBF9D;" d="M326.575,271.526c-0.622-1.094-12.839-16.033-18.913-21.824
					c-3.922-3.74-9.832-6.319-13.537-7.683c0,0-61.168-22.089-65.414-24.245l-27.471,28.108c9.564,2.66,74.497,18.293,90.516,21.809
					c2.802,3.268,5.621,5.948,5.621,5.948l4.656,10.939c0,0,0.537,3.982,0.201,8.253c-0.335,4.27,3.128,2.605,3.128,2.605
					s-0.163,2.654,0.062,6.479c0.002,0.038,0.005,0.076,0.008,0.114c0.227,2.86,4.337,3.214,5.211,0.481l3.156-9.862
					c0,0-0.413,8.975-0.581,13.97c-0.031,0.906,0.128,1.651,0.407,2.264c1.208,2.648,5.15,2.155,5.821-0.678l3.697-15.602
					l-1.196-9.555l3.101,8.731c0,0,0.857,4.667,0.684,11.223c-0.069,2.622,0.815,3.738,1.901,4.133
					c1.818,0.661,3.739-0.787,3.897-2.716l1.182-14.457C332.713,289.96,327.197,272.621,326.575,271.526z"/>
				<g>
					<path style="fill:#FF9A6C;" d="M224.765,216.682c0.026-0.113,1.764,0.165,4.499,0.924c2.737,0.75,6.446,2.027,10.458,3.62
						c4.014,1.595,7.599,3.134,10.197,4.237c2.596,1.109,4.2,1.804,4.155,1.929c-0.042,0.116-1.73-0.363-4.395-1.318
						c-2.667-0.95-6.297-2.395-10.299-3.985c-4.001-1.588-7.644-2.952-10.312-3.857
						C226.406,217.319,224.733,216.818,224.765,216.682z"/>
				</g>
			</g>
		</g>
	</g>
</g>
</svg>
