<?xml version="1.0" encoding="utf-8"?>
<!-- Generator: Adobe Illustrator 27.5.0, SVG Export Plug-In . SVG Version: 6.00 Build 0)  -->
<svg version="1.1" xmlns="http://www.w3.org/2000/svg" xmlns:xlink="http://www.w3.org/1999/xlink" x="0px" y="0px"
	 viewBox="0 0 500 500" style="enable-background:new 0 0 500 500;" xml:space="preserve">
<g id="Background_Complete">
	<g>
		<g>
			<g>
				<path style="fill:#FF725E;" d="M200.31,40.944l15.696,88.603c0.474,2.675-1.41,5.194-4.11,5.495l-66.972,8.473l-15.357-90.185
					l64.365-16.495C196.849,36.088,199.785,37.98,200.31,40.944z"/>
			</g>
			<g>
				<path style="fill:#E0E0E0;" d="M212.233,135.155c-0.105,0.019-0.212,0.034-0.319,0.046l-67.122,8.492l-0.026-0.151
					l-15.382-90.33l64.508-16.532c1.457-0.372,2.95-0.13,4.212,0.683c1.262,0.813,2.101,2.075,2.363,3.553l15.696,88.603
					c0.237,1.338-0.081,2.673-0.894,3.761C214.521,134.282,213.452,134.94,212.233,135.155z"/>
			</g>
		</g>
		<g>
			<g>
				<polygon style="fill:#EBEBEB;" points="191.622,36.978 198.118,38.05 214.225,128.974 214.558,130.852 207.949,132.012 				"/>
			</g>
		</g>
		<g>
			<g>
				<g>
					<path style="fill:#FFFFFF;" d="M129.266,53.188c0,0,22.024-13.306,62.237-16.546l16.428,95.504l-63.639,9.856L129.266,53.188z"
						/>
				</g>
			</g>
			<g>
				<g>
					<g>
						<path style="fill:#E0E0E0;" d="M129.266,53.188c0,0,0.028,0.143,0.077,0.422c0.048,0.28,0.12,0.695,0.215,1.241
							c0.188,1.095,0.465,2.715,0.826,4.823c0.718,4.217,1.769,10.385,3.1,18.198c2.651,15.621,6.419,37.815,10.883,64.119
							l-0.086-0.062c19.197-2.976,40.811-6.326,63.637-9.864l-0.069,0.097c-0.194-1.129-0.404-2.35-0.615-3.574
							c-5.931-34.518-11.412-66.411-15.797-91.933l0.072,0.056c-9.827,0.79-18.717,2.198-26.458,3.892
							c-7.744,1.692-14.339,3.664-19.655,5.538c-5.319,1.874-9.36,3.646-12.061,4.941c-0.671,0.332-1.264,0.624-1.775,0.877
							c-0.505,0.264-0.929,0.486-1.271,0.665C129.628,52.987,129.324,53.155,129.266,53.188c0,0,0.082-0.052,0.252-0.153
							c0.172-0.097,0.426-0.241,0.76-0.43c0.341-0.181,0.764-0.407,1.267-0.674c0.51-0.255,1.102-0.551,1.772-0.886
							c2.696-1.308,6.735-3.092,12.053-4.978c5.315-1.885,11.911-3.869,19.657-5.572c7.743-1.704,16.637-3.122,26.47-3.92
							l0.061-0.005l0.01,0.061c4.394,25.52,9.886,57.412,15.829,91.928c0.211,1.224,0.421,2.445,0.615,3.574l0.014,0.084
							l-0.084,0.013c-22.827,3.532-44.441,6.877-63.64,9.848l-0.073,0.011l-0.012-0.073c-4.439-26.323-8.185-48.535-10.822-64.168
							c-1.313-7.81-2.349-13.977-3.057-18.192c-0.352-2.104-0.622-3.722-0.804-4.815c-0.09-0.544-0.158-0.957-0.204-1.236
							C129.286,53.327,129.266,53.188,129.266,53.188z"/>
					</g>
				</g>
			</g>
		</g>
		<g>
			<g>
				<path style="fill:#E0E0E0;" d="M132.004,52.442c1.426,6.757,5.919,31.399,5.919,31.399l2.608-5.855l4.389,3.765l-6.748-34.2
					l-4.951,2.41C132.294,50.414,131.791,51.434,132.004,52.442z"/>
			</g>
		</g>
		<g>
			<g>
				<g>
					<path style="fill:#E0E0E0;" d="M209.89,131.679c0,0-0.02-0.082-0.051-0.242c-0.031-0.165-0.076-0.403-0.134-0.713
						c-0.115-0.633-0.283-1.556-0.498-2.745c-0.422-2.391-1.03-5.841-1.781-10.103c-1.485-8.534-3.473-20.335-5.64-33.373
						c-2.184-13.037-4.161-24.839-5.592-33.386c-0.729-4.266-1.32-7.719-1.729-10.111c-0.202-1.191-0.36-2.116-0.468-2.75
						c-0.051-0.311-0.09-0.549-0.117-0.716c-0.025-0.161-0.034-0.245-0.034-0.245s0.02,0.081,0.051,0.242
						c0.031,0.166,0.076,0.403,0.134,0.713c0.115,0.632,0.283,1.556,0.498,2.744c0.422,2.39,1.03,5.84,1.781,10.103
						c1.485,8.534,3.473,20.336,5.641,33.379c2.183,13.033,4.16,24.833,5.592,33.38c0.73,4.266,1.32,7.719,1.729,10.112
						c0.202,1.191,0.36,2.116,0.468,2.75c0.051,0.311,0.09,0.55,0.118,0.716C209.881,131.596,209.89,131.679,209.89,131.679z"/>
				</g>
			</g>
		</g>
		<g>
			<g>
				<g>
					<path style="fill:#E0E0E0;" d="M211.628,131.371c-0.045,0.008-3.73-20.974-8.23-46.858
						c-4.501-25.893-8.112-46.884-8.066-46.892s3.73,20.969,8.231,46.863C208.062,110.368,211.673,131.363,211.628,131.371z"/>
				</g>
			</g>
		</g>
		<g>
			<g>
				<g>
					<path style="fill:#E0E0E0;" d="M56.239,63.955l16.248,91.716c0.294,1.662,2.033,2.717,3.806,2.309l68.632-14.464
						c1.642-0.377,0.049-3.219-0.223-4.757l-33.671-82.024c-0.273-1.539-1.796-2.58-3.467-2.369l-48.545,6.114
						C57.214,60.706,55.944,62.293,56.239,63.955z"/>
				</g>
			</g>
			<g>
				<g>
					<polygon style="fill:#EBEBEB;" points="66.021,59.166 83.853,155.334 144.689,142.129 129.567,53.331 					"/>
				</g>
			</g>
			<g>
				<g>
					<g>
						<path style="fill:#FFFFFF;" d="M71.269,56.633c0,0,35.837-13.423,58.218-2.6l15.121,88.798l-56.057,11.359L71.269,56.633z"/>
					</g>
				</g>
				<g>
					<g>
						<g>
							<path style="fill:#E0E0E0;" d="M71.349,55.931c0.125,0.702,7.204,40.478,17.359,97.544l-0.092-0.063
								c16.289-3.302,34.155-6.924,52.817-10.708c1.091-0.221,2.179-0.442,3.238-0.656l-0.066,0.096
								c-5.715-33.602-10.964-64.462-15.104-88.801l0.036,0.048c-1.044-0.448-2.052-0.95-3.107-1.302
								c-0.261-0.096-0.52-0.191-0.779-0.286c-0.258-0.097-0.517-0.192-0.781-0.265c-0.525-0.158-1.047-0.315-1.566-0.472
								c-2.091-0.566-4.162-1.012-6.203-1.281c-2.035-0.311-4.035-0.443-5.974-0.551c-0.971-0.026-1.927-0.058-2.869-0.061
								c-0.471,0.004-0.938,0.008-1.401,0.013c-0.463,0-0.923,0.01-1.378,0.033c-3.644,0.122-7.031,0.464-10.136,0.896
								c-3.105,0.434-5.929,0.96-8.458,1.498c-5.058,1.082-8.94,2.201-11.558,3.008c-1.309,0.405-2.304,0.734-2.971,0.962
								C71.708,55.807,71.411,55.909,71.349,55.931c0,0,0.338-0.133,1.002-0.367c0.665-0.235,1.658-0.569,2.966-0.98
								c2.615-0.82,6.495-1.951,11.554-3.044c2.529-0.544,5.354-1.076,8.461-1.515c3.106-0.438,6.497-0.785,10.145-0.912
								c0.456-0.023,0.916-0.034,1.38-0.034c0.464-0.005,0.932-0.01,1.403-0.014c0.943,0.001,1.901,0.033,2.873,0.058
								c1.942,0.105,3.946,0.236,5.986,0.545c2.045,0.268,4.122,0.712,6.22,1.278c0.521,0.156,1.045,0.313,1.572,0.472
								c0.265,0.073,0.525,0.168,0.784,0.265c0.26,0.095,0.521,0.191,0.782,0.287c1.059,0.352,2.071,0.855,3.119,1.304l0.03,0.013
								l0.006,0.035c4.149,24.338,9.41,55.195,15.138,88.795l0.014,0.08l-0.079,0.016c-1.059,0.215-2.147,0.435-3.238,0.656
								c-18.663,3.78-36.53,7.398-52.819,10.697l-0.078,0.016l-0.014-0.079C78.489,96.419,71.473,56.633,71.349,55.931z"/>
						</g>
					</g>
				</g>
			</g>
			<g>
				<g>
					<polygon style="fill:#EBEBEB;" points="58.799,63.403 66.021,59.166 83.853,155.334 75.012,154.928 					"/>
				</g>
			</g>
			<g>
				<g>
					<g>
						<path style="fill:#E0E0E0;" d="M76.828,152.645c-0.045,0.008-3.66-20.179-8.071-45.084
							c-4.413-24.913-7.953-45.109-7.908-45.117c0.045-0.008,3.659,20.175,8.072,45.088
							C73.333,132.436,76.873,152.636,76.828,152.645z"/>
					</g>
				</g>
			</g>
			<g>
				<g>
					<polygon style="fill:#F5F5F5;" points="65.384,75.826 61.279,92.409 70.012,101.953 					"/>
				</g>
			</g>
			<g>
				<g>
					<g>
						<path style="fill:#E0E0E0;" d="M78.833,151.747c-0.045,0.008-3.493-19.238-7.699-42.982
							c-4.208-23.752-7.581-43.007-7.536-43.016c0.045-0.008,3.492,19.234,7.7,42.986C75.505,132.48,78.879,151.739,78.833,151.747z
							"/>
					</g>
				</g>
			</g>
			<g>
				<g>
					<g>
						<path style="fill:#E0E0E0;" d="M81.463,154.758c-0.045,0.008-3.684-20.318-8.126-45.393
							c-4.444-25.084-8.008-45.419-7.963-45.427c0.045-0.008,3.683,20.313,8.127,45.398
							C77.943,134.411,81.508,154.75,81.463,154.758z"/>
					</g>
				</g>
			</g>
			<g>
				<g>
					<path style="fill:#E0E0E0;" d="M121.79,64.22c-0.007,0.035-0.542-0.02-1.503-0.151c-0.959-0.139-2.354-0.304-4.077-0.466
						c-3.446-0.329-8.24-0.512-13.505-0.084c-5.266,0.44-9.965,1.405-13.311,2.294c-1.674,0.442-3.022,0.833-3.946,1.127
						c-0.927,0.286-1.446,0.429-1.458,0.395c-0.012-0.034,0.484-0.241,1.393-0.587c0.906-0.354,2.243-0.801,3.913-1.29
						c3.337-0.984,8.062-2.015,13.366-2.458c5.304-0.431,10.133-0.188,13.586,0.237c1.728,0.21,3.119,0.431,4.071,0.632
						C121.273,64.061,121.796,64.185,121.79,64.22z"/>
				</g>
			</g>
			<g>
				<g>
					<path style="fill:#E0E0E0;" d="M123.038,71.879c-0.007,0.035-0.542-0.02-1.503-0.151c-0.959-0.139-2.353-0.305-4.077-0.466
						c-3.446-0.329-8.24-0.512-13.505-0.084c-5.266,0.44-9.965,1.405-13.311,2.294c-1.674,0.442-3.022,0.833-3.946,1.127
						c-0.927,0.286-1.446,0.429-1.458,0.395c-0.012-0.034,0.484-0.241,1.393-0.587c0.906-0.354,2.243-0.801,3.913-1.29
						c3.337-0.984,8.062-2.015,13.366-2.458c5.304-0.431,10.133-0.188,13.586,0.237c1.728,0.21,3.119,0.431,4.071,0.632
						C122.521,71.721,123.044,71.844,123.038,71.879z"/>
				</g>
			</g>
			<g>
				<g>
					<path style="fill:#E0E0E0;" d="M124.286,79.538c-0.007,0.035-0.542-0.02-1.503-0.151c-0.959-0.139-2.353-0.304-4.077-0.466
						c-3.446-0.329-8.24-0.512-13.505-0.084c-5.266,0.44-9.965,1.405-13.311,2.293c-1.674,0.442-3.022,0.833-3.945,1.127
						c-0.927,0.286-1.446,0.429-1.458,0.395c-0.012-0.034,0.484-0.241,1.393-0.587c0.906-0.354,2.243-0.801,3.913-1.29
						c3.337-0.984,8.062-2.015,13.366-2.458c5.304-0.431,10.133-0.188,13.586,0.237c1.728,0.21,3.119,0.431,4.071,0.632
						C123.769,79.38,124.292,79.503,124.286,79.538z"/>
				</g>
			</g>
			<g>
				<g>
					<path style="fill:#E0E0E0;" d="M125.533,87.198c-0.007,0.035-0.542-0.02-1.503-0.151c-0.959-0.139-2.353-0.304-4.077-0.466
						c-3.446-0.329-8.239-0.512-13.505-0.084c-5.266,0.44-9.965,1.405-13.311,2.294c-1.674,0.442-3.022,0.833-3.945,1.127
						c-0.927,0.286-1.446,0.429-1.458,0.395c-0.012-0.034,0.484-0.241,1.393-0.587c0.906-0.354,2.243-0.801,3.913-1.29
						c3.337-0.984,8.062-2.015,13.366-2.458c5.303-0.431,10.133-0.188,13.586,0.237c1.728,0.209,3.119,0.431,4.071,0.632
						C125.017,87.039,125.54,87.162,125.533,87.198z"/>
				</g>
			</g>
			<g>
				<g>
					<path style="fill:#E0E0E0;" d="M127.451,94.986c-0.007,0.035-0.542-0.02-1.503-0.151c-0.959-0.139-2.353-0.304-4.077-0.466
						c-3.446-0.329-8.24-0.512-13.505-0.084c-5.266,0.44-9.965,1.405-13.311,2.294c-1.674,0.442-3.022,0.833-3.946,1.127
						c-0.927,0.286-1.446,0.429-1.458,0.395c-0.012-0.034,0.484-0.241,1.393-0.587c0.906-0.354,2.243-0.801,3.913-1.29
						c3.337-0.984,8.062-2.015,13.366-2.458c5.304-0.431,10.133-0.188,13.586,0.237c1.728,0.21,3.119,0.431,4.071,0.632
						C126.934,94.827,127.458,94.951,127.451,94.986z"/>
				</g>
			</g>
			<g>
				<g>
					<path style="fill:#E0E0E0;" d="M130.76,104.797c-0.007,0.035-0.569-0.024-1.578-0.16c-0.504-0.076-1.122-0.153-1.841-0.224
						c-0.719-0.079-1.535-0.179-2.443-0.24c-1.811-0.173-3.976-0.253-6.379-0.293c-2.404-0.003-5.046,0.076-7.811,0.295
						c-2.765,0.237-5.385,0.592-7.756,0.988c-2.364,0.432-4.487,0.866-6.245,1.333c-0.886,0.208-1.675,0.44-2.371,0.636
						c-0.698,0.188-1.295,0.365-1.78,0.522c-0.973,0.3-1.518,0.45-1.531,0.416c-0.012-0.034,0.51-0.248,1.466-0.608
						c0.476-0.187,1.066-0.393,1.759-0.608c0.691-0.223,1.477-0.481,2.361-0.714c1.755-0.515,3.882-0.989,6.256-1.45
						c2.38-0.425,5.016-0.796,7.798-1.035c2.782-0.22,5.442-0.285,7.86-0.256c2.417,0.066,4.593,0.185,6.408,0.406
						c0.91,0.084,1.728,0.21,2.446,0.317c0.719,0.099,1.335,0.205,1.835,0.312C130.217,104.635,130.767,104.762,130.76,104.797z"/>
				</g>
			</g>
			<g>
				<g>
					<path style="fill:#E0E0E0;" d="M132.523,114.04c-0.005,0.036-0.573,0.01-1.595-0.065c-1.02-0.09-2.502-0.164-4.33-0.224
						c-3.657-0.104-8.72,0.049-14.261,0.764c-5.543,0.7-10.511,1.7-14.105,2.423c-1.729,0.347-3.163,0.634-4.259,0.854
						c-1.007,0.195-1.568,0.286-1.576,0.25c-0.008-0.035,0.538-0.193,1.532-0.448c0.994-0.254,2.436-0.609,4.226-1.016
						c3.577-0.816,8.547-1.876,14.117-2.58c5.567-0.719,10.669-0.814,14.34-0.615c1.836,0.108,3.319,0.238,4.336,0.39
						C131.968,113.911,132.528,114.005,132.523,114.04z"/>
				</g>
			</g>
			<g>
				<g>
					<path style="fill:#E0E0E0;" d="M132.961,123.929c-0.002,0.036-0.563,0.052-1.575,0.05c-1.011,0.001-2.475,0.008-4.28,0.088
						c-3.611,0.129-8.591,0.565-14.034,1.453c-5.446,0.882-10.311,2.035-13.806,2.961c-1.747,0.465-3.158,0.856-4.13,1.139
						c-0.973,0.277-1.518,0.415-1.529,0.381c-0.011-0.034,0.511-0.237,1.468-0.574c0.954-0.343,2.352-0.789,4.092-1.301
						c3.479-1.019,8.352-2.234,13.821-3.12c5.466-0.892,10.479-1.272,14.107-1.307c1.814-0.034,3.283,0.016,4.295,0.077
						C132.405,123.841,132.963,123.894,132.961,123.929z"/>
				</g>
			</g>
		</g>
		<g>
			<g>
				<path style="fill:#E0E0E0;" d="M181.652,50.593c0.003,0.036-0.628,0.138-1.773,0.292c-1.145,0.148-2.799,0.382-4.838,0.696
					c-4.077,0.626-9.685,1.668-15.777,3.243c-6.093,1.584-11.5,3.399-15.368,4.834c-1.935,0.716-3.494,1.315-4.566,1.742
					c-1.075,0.422-1.676,0.64-1.691,0.607c-0.007-0.016,0.133-0.095,0.406-0.229c0.331-0.155,0.729-0.341,1.206-0.564
					c1.05-0.485,2.591-1.138,4.514-1.9c3.843-1.527,9.254-3.404,15.368-4.994c6.115-1.582,11.755-2.57,15.856-3.104
					c2.051-0.269,3.715-0.447,4.868-0.533c0.526-0.037,0.964-0.068,1.328-0.093C181.49,50.574,181.65,50.575,181.652,50.593z"/>
			</g>
		</g>
		<g>
			<g>
				<path style="fill:#E0E0E0;" d="M187.378,66.694c0.003,0.018-0.16,0.061-0.471,0.128c-0.372,0.072-0.823,0.16-1.366,0.266
					c-1.268,0.237-2.966,0.555-5.028,0.94c-4.242,0.809-10.084,2.021-16.476,3.611c-6.393,1.596-12.121,3.266-16.247,4.543
					c-2.002,0.627-3.651,1.143-4.881,1.529c-0.53,0.161-0.969,0.296-1.331,0.406c-0.306,0.087-0.47,0.125-0.476,0.108
					c-0.006-0.017,0.146-0.088,0.441-0.207c0.354-0.136,0.783-0.3,1.3-0.499c1.132-0.426,2.783-1.005,4.835-1.688
					c4.102-1.368,9.827-3.098,16.233-4.697c6.406-1.593,12.272-2.751,16.536-3.468c2.132-0.36,3.862-0.623,5.062-0.778
					c0.55-0.068,1.006-0.124,1.382-0.17C187.208,66.685,187.376,66.676,187.378,66.694z"/>
			</g>
		</g>
		<g>
			<g>
				<path style="fill:#E0E0E0;" d="M188.343,75.632c0.003,0.018-0.162,0.063-0.478,0.134c-0.376,0.077-0.834,0.17-1.388,0.283
					c-1.287,0.247-3.014,0.578-5.113,0.981c-4.316,0.828-10.27,2.014-16.816,3.463c-6.548,1.452-12.446,2.892-16.708,3.964
					c-2.072,0.521-3.778,0.95-5.048,1.27c-0.549,0.131-1.004,0.24-1.378,0.329c-0.316,0.07-0.485,0.098-0.49,0.081
					c-0.005-0.017,0.154-0.079,0.462-0.182c0.367-0.115,0.813-0.254,1.352-0.423c1.177-0.359,2.888-0.849,5.009-1.431
					c4.242-1.165,10.134-2.663,16.689-4.116c6.554-1.45,12.527-2.581,16.863-3.316c2.168-0.369,3.926-0.647,5.145-0.818
					c0.56-0.075,1.024-0.136,1.404-0.187C188.17,75.625,188.341,75.614,188.343,75.632z"/>
			</g>
		</g>
		<g>
			<g>
				<path style="fill:#E0E0E0;" d="M190.486,85.582c0.028,0.141-10.634,2.346-23.811,4.924c-13.181,2.579-23.886,4.554-23.914,4.413
					c-0.028-0.141,10.632-2.346,23.814-4.924C179.752,87.417,190.459,85.441,190.486,85.582z"/>
			</g>
		</g>
		<g>
			<g>
				<path style="fill:#E0E0E0;" d="M193.566,95.348c0.026,0.141-10.625,2.252-23.787,4.715c-13.167,2.463-23.859,4.344-23.885,4.203
					c-0.026-0.141,10.623-2.252,23.79-4.715C182.846,97.088,193.54,95.206,193.566,95.348z"/>
			</g>
		</g>
		<g>
			<g>
				<path style="fill:#E0E0E0;" d="M195.512,105.978c0.022,0.142-10.685,1.907-23.91,3.942c-13.23,2.036-23.97,3.57-23.992,3.428
					c-0.022-0.142,10.682-1.907,23.913-3.943C184.748,107.371,195.49,105.836,195.512,105.978z"/>
			</g>
		</g>
		<g>
			<g>
				<path style="fill:#E0E0E0;" d="M194.799,116.443c0.023,0.142-9.424,1.783-21.097,3.665c-11.677,1.882-21.159,3.293-21.182,3.151
					c-0.023-0.142,9.422-1.783,21.099-3.665C185.292,117.712,194.776,116.301,194.799,116.443z"/>
			</g>
		</g>
		<g>
			<g>
				<path style="fill:#E0E0E0;" d="M185.806,58.757c0.002,0.018-0.157,0.057-0.461,0.115c-0.365,0.063-0.805,0.138-1.334,0.229
					c-1.241,0.208-2.897,0.485-4.906,0.821c-4.136,0.719-9.827,1.851-16.031,3.441c-6.204,1.597-11.736,3.349-15.707,4.712
					c-1.922,0.674-3.506,1.229-4.694,1.645c-0.507,0.175-0.929,0.321-1.279,0.442c-0.295,0.096-0.453,0.138-0.459,0.121
					c-0.007-0.017,0.138-0.092,0.421-0.219c0.341-0.146,0.751-0.322,1.245-0.534c1.083-0.458,2.669-1.077,4.643-1.803
					c3.947-1.455,9.478-3.267,15.7-4.869c6.221-1.595,11.941-2.672,16.1-3.3c2.08-0.315,3.768-0.537,4.938-0.658
					c0.535-0.052,0.979-0.096,1.348-0.132C185.641,58.744,185.804,58.74,185.806,58.757z"/>
			</g>
		</g>
	</g>
	<g>
		<g>
			<g>
				<rect x="351.905" y="35.659" style="fill:#E0E0E0;" width="105.32" height="174.335"/>
			</g>
		</g>
		<g>
			<g>
				<rect x="348.402" y="35.659" style="fill:#EBEBEB;" width="105.32" height="174.335"/>
			</g>
		</g>
		<g>
			<g>
				<rect x="352.887" y="39.194" style="fill:#FFFFFF;" width="96.35" height="167.264"/>
			</g>
		</g>
		<g>
			<g>
				<g>
					<rect x="371.23" y="60.929" style="fill:#EBEBEB;" width="59.247" height="123.794"/>
				</g>
			</g>
			<g>
				<g>
					<path style="fill:#E0E0E0;" d="M371.23,140.917c-0.137-11.564,10.261-22.853,21.712-24.468
						c5.461-0.77,11.262,0.314,16.365-1.778c9.107-3.735,12.005-15.835,21.171-19.424l0.418,89.477H371.23V140.917z"/>
				</g>
			</g>
		</g>
	</g>
	<g>
		<g>
			<g>
				<g>
					<path style="fill:#E0E0E0;" d="M53.001,326.135c-5.474-3.438-11.746-5.596-18.176-6.256c-2.97-0.305-6.215-0.218-8.598,1.581
						c-0.506,0.382-0.999,0.947-0.885,1.57c0.083,0.458,0.47,0.791,0.841,1.074C33.578,329.746,44.765,330.458,53.001,326.135"/>
				</g>
			</g>
			<g>
				<g>
					<path style="fill:#E0E0E0;" d="M52.535,325.621c-4.115-3.211-8.254-6.444-11.74-10.329c-3.486-3.885-6.319-8.497-7.36-13.612
						c-0.316-1.551-0.414-3.324,0.582-4.555C43.374,304.433,50.725,313.886,52.535,325.621"/>
				</g>
			</g>
			<g>
				<g>
					<path style="fill:#E0E0E0;" d="M52.904,326.065c-0.705-5.119-0.958-10.381,0.217-15.414c1.176-5.032,3.913-9.848,8.21-12.719
						c1.617,3.78,0.922,8.134-0.217,12.084c-1.761,6.104-4.522,11.919-8.141,17.14"/>
				</g>
			</g>
			<g>
				<g>
					<path style="fill:#E0E0E0;" d="M62.078,342.502c-5.569,0.677-10.419,3.612-14.577,7.378c-4.158,3.765-7.114,8.839-8.338,14.313
						c5.462-0.337,10.096-4.19,13.457-8.509c3.361-4.319,5.69-9.058,9.381-13.098"/>
				</g>
			</g>
			<g>
				<g>
					<path style="fill:#E0E0E0;" d="M64.07,345.131c-4.485-11.049-2.86-24.362,4.151-34.007
						C71.394,322.409,70.229,335.157,64.07,345.131"/>
				</g>
			</g>
			<g>
				<g>
					<path style="fill:#E0E0E0;" d="M76.191,359.564c-5.054-0.314-10.192,0.89-14.58,3.416c-4.388,2.526-8.01,6.365-10.277,10.893
						c-0.308,0.616-0.58,1.398-0.168,1.949c0.358,0.479,1.051,0.524,1.648,0.485c4.899-0.317,9.241-3.265,12.823-6.621
						c3.583-3.356,6.704-7.233,10.663-10.136"/>
				</g>
			</g>
			<g>
				<g>
					<path style="fill:#E0E0E0;" d="M75.805,358.778c-2.607-8.342-2.769-17.432-0.462-25.861c0.911-3.329,2.441-6.833,5.519-8.394
						c0.263-0.133,0.569-0.252,0.844-0.148c0.261,0.099,0.413,0.366,0.534,0.618c1.095,2.288,1.414,4.885,1.301,7.419
						c-0.113,2.534-0.638,5.029-1.163,7.511c-0.969,4.59-1.485,9.524-4.003,13.482c-0.598,0.94-1.124,1.955-1.601,2.961
						c-0.477,1.006-0.48,1.36-0.917,2.161"/>
				</g>
			</g>
			<g>
				<g>
					<path style="fill:#E0E0E0;" d="M107.889,363.559c-2.377-9.042,0.146-20.004,5.844-27.416c0.42-0.546,0.976-1.131,1.661-1.067
						c1.049,0.097,1.321,1.495,1.274,2.548C116.257,346.863,113.174,355.968,107.889,363.559"/>
				</g>
			</g>
			<g>
				<g>
					<path style="fill:#E0E0E0;" d="M110.782,365.536c10.985,2.859,23.588,0.08,32.725-6.656
						c-5.415-2.744-11.798-3.528-17.715-2.174C119.873,358.059,114.466,360.711,110.782,365.536"/>
				</g>
			</g>
			<g>
				<g>
					<path style="fill:#E0E0E0;" d="M113.221,359.515c6.153-10.031,17.948-16.578,29.7-17.174c-1.354,4.78-5.282,8.495-9.714,10.74
						c-4.432,2.245-9.38,3.222-14.257,4.169C117.054,357.62,114.451,358.025,113.221,359.515"/>
				</g>
			</g>
			<g>
				<g>
					<path style="fill:#E0E0E0;" d="M108.501,330.301c1.666-5.708,3.341-11.466,3.798-17.394c0.458-5.928-0.388-12.117-3.464-17.205
						c-5.747,11.121-6.329,24.114-0.507,35.196"/>
				</g>
			</g>
			<g>
				<g>
					<path style="fill:#E0E0E0;" d="M127.849,320.522c6.721-12.215,20.432-21.971,34.307-23.339
						C156.804,310.509,142.208,320.808,127.849,320.522"/>
				</g>
			</g>
			<g>
				<g>
					<path style="fill:#E0E0E0;" d="M123.621,322.916c10.023,1.527,18.563,7.928,27.929,11.809c2.003,0.83,4.164,1.491,6.314,1.209
						c2.15-0.282,4.271-1.724,4.753-3.838c0.4-1.755-0.399-3.619-1.659-4.906c-1.26-1.286-2.924-2.09-4.586-2.782
						c-10.202-4.247-21.142-4.353-31.889-1.778"/>
				</g>
			</g>
			<g>
				<g>
					<path style="fill:#E0E0E0;" d="M117.821,329.946c2.269,0.65,3.044,1.825,4.841,3.355c6.096,5.192,13.408,8.948,21.179,10.88
						c0.809,0.201,1.87,0.281,2.271-0.45c0.35-0.639-0.093-1.412-0.548-1.98c-3.256-4.074-7.9-6.861-12.788-8.681
						c-4.888-1.82-9.122-4.014-14.956-3.543"/>
				</g>
			</g>
			<g>
				<g>
					<path style="fill:#E0E0E0;" d="M111.276,287.487c8.15,7.608,19.631,11.513,30.729,10.455c0.505-0.048,1.056-0.128,1.399-0.502
						c0.773-0.841-0.155-2.14-1.056-2.843C133.314,287.553,122.37,284.633,111.276,287.487"/>
				</g>
			</g>
			<g>
				<g>
					<path style="fill:#E0E0E0;" d="M119.036,284.647c10.774-8.077,25.547-10.515,38.345-6.327
						c-4.829,4.759-11.529,7.32-18.272,8.022C132.365,287.044,125.612,286.296,119.036,284.647"/>
				</g>
			</g>
			<g>
				<g>
					<path style="fill:#E0E0E0;" d="M115.952,265.137c-0.887-9.018-0.311-16.136-0.938-25.196c-0.05-0.724-0.206-1.595-0.883-1.855
						c-0.943-0.363-1.729,0.796-2.038,1.757c-2.685,8.352-1.217,17.93,3.845,25.095"/>
				</g>
			</g>
			<g>
				<g>
					<path style="fill:#E0E0E0;" d="M115.303,266.133c6.112-3.78,10.697-8.716,14.938-14.518c2.95-4.037,5.438-8.873,4.767-13.828
						c-4.143-0.083-8.08,2.202-10.775,5.351c-2.695,3.148-4.297,7.084-5.493,11.051
						C117.544,258.156,116.706,262.234,115.303,266.133"/>
				</g>
			</g>
			<g>
				<g>
					<path style="fill:#E0E0E0;" d="M129.979,262.055c13.414-4.96,25.928-12.34,36.761-21.676c-4.391-1.769-9.419-0.71-13.809,1.062
						c-10.03,4.049-18.225,10.883-23.144,20.516"/>
				</g>
			</g>
			<g>
				<g>
					<path style="fill:#E0E0E0;" d="M119.429,271.066c6.786,0.742,13.679,1.225,20.413,0.1c6.618-1.106,12.872-3.729,19.056-6.332
						c0.512-0.216,1.07-0.474,1.295-0.983c0.244-0.552-0.016-1.225-0.464-1.631c-0.448-0.405-1.044-0.599-1.625-0.762
						c-6.723-1.88-13.979-1-20.594,1.23C130.895,264.92,125.472,267.57,119.429,271.066"/>
				</g>
			</g>
			<g>
				<g>
					<path style="fill:#E0E0E0;" d="M80.68,287.795c-4.63-9.346-4.329-20.252-0.33-29.884c2.815,4.29,3.159,9.753,2.645,14.859
						c-0.515,5.105-2.069,10.36-2.17,15.49"/>
				</g>
			</g>
			<g>
				<g>
					<path style="fill:#E0E0E0;" d="M62.184,278.467c-11.559-0.221-23.123,4.705-30.972,13.194
						c5.77,0.906,11.711-0.582,16.959-3.144c5.248-2.563,9.911-6.158,14.534-9.727"/>
				</g>
			</g>
			<g>
				<g>
					<path style="fill:#E0E0E0;" d="M49.749,274.308c-5.655-0.459-11.096-1.159-16.534,0.507
						c-5.437,1.666-10.386,5.448-12.602,10.685c5.289,0.596,10.653-0.73,15.501-2.927C40.962,280.377,45.37,277.334,49.749,274.308"
						/>
				</g>
			</g>
			<g>
				<g>
					<path style="fill:#E0E0E0;" d="M68.161,274.498c-5.087-3.334-10.311-6.728-16.235-8.108s-12.788-0.361-16.918,4.104
						c4.795,2.814,10.613,3.146,16.172,3.142c5.56-0.004,12.375-0.067,17.616,1.788"/>
				</g>
			</g>
			<g>
				<g>
					<path style="fill:#E0E0E0;" d="M68.191,274.767c-8.697-8.54-11.994-23.882-8.495-35.558
						C66.532,249.596,69.594,262.411,68.191,274.767"/>
				</g>
			</g>
			<g>
				<g>
					<path style="fill:#E0E0E0;" d="M92.106,250.569c1.64-3.813,2.794-7.816,4.265-11.697c1.472-3.881,3.301-7.701,6.081-10.783
						c2.781-3.082,6.626-5.377,10.772-5.583c-2.595,11.751-10.4,22.251-20.905,28.124"/>
				</g>
			</g>
			<g>
				<g>
					<path style="fill:#E0E0E0;" d="M87.778,255.611c-2.714-3.736-5.851-8.808-9.531-11.597c-3.681-2.789-8.474-4.476-12.966-3.405
						C69.849,248.777,78.483,254.533,87.778,255.611"/>
				</g>
			</g>
			<g>
				<g>
					<path style="fill:#E0E0E0;" d="M88.644,250.88c-1.779-4.521-3.571-9.09-4.291-13.895c-0.72-4.805-0.282-9.937,2.175-14.128
						c4.774,9.025,6.312,18.712,2.359,28.125"/>
				</g>
			</g>
			<g>
				<g>
					<path style="fill:#E0E0E0;" d="M92.15,222.857c2.704-8.946,10.896-15.533,19.74-18.556c1.115-0.381,2.296-0.699,3.461-0.519
						c1.165,0.18,2.307,0.977,2.551,2.129c0.323,1.522-0.934,2.886-2.117,3.897C108.898,215.697,100.803,220.166,92.15,222.857"/>
				</g>
			</g>
			<g>
				<g>
					<path style="fill:#E0E0E0;" d="M92.248,215.54c0.344-5.768,0.704-11.62,2.58-17.085c1.876-5.465,5.492-10.592,10.752-12.984
						c0.895,5.826-1.676,11.622-4.775,16.635c-3.1,5.013-6.836,9.745-8.698,15.337"/>
				</g>
			</g>
			<g>
				<g>
					<path style="fill:#E0E0E0;" d="M92.106,219.511c-2.235-6.52-2.466-14.801-6.37-20.482c-2.729-3.971-7.1-6.675-9.451-10.881
						c-1.562,3.928-1.084,8.453,0.55,12.352c1.634,3.899,4.333,7.254,7.223,10.34C86.946,213.926,89.42,216.247,92.106,219.511"/>
				</g>
			</g>
			<g>
				<g>
					<g>
						<path style="fill:#E0E0E0;" d="M92.15,411.518c-0.174,0-0.324-43.494-0.336-97.135c-0.012-53.659,0.119-97.144,0.292-97.144
							c0.174,0,0.324,43.485,0.336,97.144C92.454,368.024,92.323,411.518,92.15,411.518z"/>
					</g>
				</g>
			</g>
			<g>
				<g>
					<g>
						<path style="fill:#E0E0E0;" d="M130.159,281.232c0.012,0.042-0.571,0.258-1.635,0.614c-1.175,0.396-2.687,0.906-4.5,1.518
							c-3.795,1.293-9.008,3.165-14.665,5.483c-5.602,2.403-10.885,4.354-13.894,6.961c-1.503,1.287-2.366,2.679-2.792,3.693
							c-0.432,1.021-0.509,1.646-0.566,1.635c-0.021-0.003-0.015-0.159,0.019-0.456c0.05-0.293,0.125-0.731,0.319-1.268
							c0.367-1.073,1.206-2.561,2.725-3.937c1.512-1.379,3.617-2.618,6.029-3.745c2.411-1.125,5.084-2.3,7.922-3.465
							c5.675-2.326,10.928-4.137,14.766-5.324c1.918-0.598,3.483-1.039,4.568-1.33C129.54,281.328,130.146,281.19,130.159,281.232z"
							/>
					</g>
				</g>
			</g>
			<g>
				<g>
					<g>
						<path style="fill:#E0E0E0;" d="M142.617,250.63c0.014,0.016-0.144,0.184-0.458,0.489c-0.37,0.348-0.832,0.781-1.396,1.311
							c-1.296,1.178-3.06,2.78-5.21,4.733c-4.499,4.006-10.6,9.438-17.342,15.441c-6.77,6.026-12.619,11.783-16.674,16.118
							c-2.03,2.165-3.629,3.958-4.719,5.21c-0.509,0.582-0.926,1.057-1.26,1.439c-0.292,0.326-0.454,0.491-0.471,0.477
							c-0.017-0.013,0.112-0.205,0.372-0.557c0.263-0.35,0.647-0.871,1.171-1.516c1.035-1.303,2.587-3.145,4.58-5.355
							c3.981-4.424,9.799-10.249,16.582-16.286c6.793-6.012,12.974-11.412,17.466-15.305c2.205-1.892,4.013-3.443,5.342-4.584
							c0.596-0.494,1.083-0.898,1.474-1.222C142.417,250.75,142.603,250.614,142.617,250.63z"/>
					</g>
				</g>
			</g>
			<g>
				<g>
					<g>
						<path style="fill:#E0E0E0;" d="M110.903,278.732c-0.177-0.079,1.237-3.344,2.646-7.474c1.422-4.129,2.091-7.614,2.272-7.584
							c0.164,0.017-0.236,3.603-1.676,7.786c-0.708,2.088-1.49,3.924-2.106,5.227C111.423,277.99,110.98,278.766,110.903,278.732z"
							/>
					</g>
				</g>
			</g>
			<g>
				<g>
					<g>
						<path style="fill:#E0E0E0;" d="M92.19,305.057c-0.035,0.025-0.405-0.407-1.043-1.211c-0.708-0.908-1.604-2.056-2.672-3.427
							c-2.245-2.902-5.348-6.907-8.826-11.29c-3.481-4.384-6.677-8.315-8.993-11.16c-1.092-1.352-2.007-2.485-2.731-3.38
							c-0.638-0.804-0.975-1.262-0.942-1.291c0.033-0.028,0.433,0.376,1.128,1.132c0.697,0.755,1.683,1.866,2.885,3.253
							c2.405,2.774,5.66,6.666,9.146,11.055c3.482,4.389,6.534,8.442,8.689,11.414c1.078,1.486,1.937,2.699,2.514,3.548
							C91.921,304.55,92.225,305.032,92.19,305.057z"/>
					</g>
				</g>
			</g>
			<g>
				<g>
					<g>
						<path style="fill:#E0E0E0;" d="M83.856,294.358c-0.103,0.11-2.326-2.528-3.491-6.536c-0.859-2.825-0.898-5.409-0.792-6.59
							l0.278,0.022c-0.124,0.504-0.215,0.769-0.265,0.761c-0.049-0.008-0.052-0.289-0.011-0.806l0.278,0.023
							c0.102,1.172,0.279,3.666,1.115,6.41C82.092,291.527,84.024,294.252,83.856,294.358z"/>
					</g>
				</g>
			</g>
			<g>
				<g>
					<g>
						<path style="fill:#E0E0E0;" d="M73.096,280.824c-0.081,0.087-0.796-0.815-2.438-1.416c-1.628-0.63-4.079-0.768-6.768-0.538
							c-2.691,0.198-5.095,0.677-6.815,1.1c-1.721,0.426-2.772,0.761-2.804,0.673c-0.029-0.074,0.972-0.559,2.685-1.101
							c1.71-0.538,4.147-1.097,6.887-1.299c2.719-0.235,5.299-0.025,6.982,0.753C72.531,279.752,73.153,280.809,73.096,280.824z"/>
					</g>
				</g>
			</g>
			<g>
				<g>
					<g>
						<path style="fill:#E0E0E0;" d="M70.546,277.544c-0.048,0.098-1.42-0.569-3.735-1.36c-2.31-0.795-5.602-1.629-9.318-1.918
							c-3.718-0.277-7.098,0.048-9.502,0.483c-2.408,0.431-3.865,0.882-3.898,0.778c-0.013-0.041,0.339-0.189,0.99-0.422
							c0.648-0.242,1.613-0.518,2.82-0.792c2.412-0.553,5.852-0.957,9.637-0.674c3.783,0.294,7.122,1.215,9.422,2.127
							c1.152,0.453,2.064,0.873,2.668,1.21C70.24,277.306,70.566,277.505,70.546,277.544z"/>
					</g>
				</g>
			</g>
			<g>
				<g>
					<g>
						<path style="fill:#E0E0E0;" d="M92.106,263.674c-0.168,0.043-1.388-4.193-2.723-9.46c-1.336-5.269-2.283-9.573-2.114-9.616
							c0.168-0.043,1.387,4.193,2.724,9.461C91.328,259.326,92.274,263.631,92.106,263.674z"/>
					</g>
				</g>
			</g>
			<g>
				<g>
					<g>
						<path style="fill:#E0E0E0;" d="M92.279,263.674c-0.187,0.061-0.971-2.77-3.019-5.664c-1.993-2.956-4.536-4.439-4.443-4.585
							c0.033-0.066,0.735,0.192,1.715,0.884c0.982,0.683,2.196,1.842,3.243,3.34C91.9,260.661,92.432,263.663,92.279,263.674z"/>
					</g>
				</g>
			</g>
			<g>
				<g>
					<g>
						<path style="fill:#E0E0E0;" d="M92.15,388.332c-0.068,0.01-0.196-1.046-0.686-2.893c-0.484-1.847-1.397-4.466-2.906-7.53
							c-3.005-6.141-8.473-13.927-15.421-21.726c-3.443-3.934-6.783-7.644-9.618-11.197c-2.84-3.548-5.174-6.929-6.878-9.92
							c-1.709-2.988-2.822-5.552-3.472-7.361c-0.319-0.907-0.553-1.615-0.682-2.105c-0.138-0.487-0.2-0.745-0.179-0.751
							c0.056-0.018,0.373,0.995,1.089,2.768c0.716,1.772,1.882,4.288,3.627,7.225c1.74,2.94,4.094,6.27,6.945,9.78
							c2.846,3.516,6.192,7.207,9.64,11.147c6.966,7.819,12.422,15.704,15.348,21.946c1.471,3.115,2.329,5.785,2.743,7.665
							c0.202,0.942,0.337,1.676,0.385,2.182C92.149,388.065,92.171,388.329,92.15,388.332z"/>
					</g>
				</g>
			</g>
			<g>
				<g>
					<g>
						<path style="fill:#E0E0E0;" d="M126.496,349.538c0.021,0.046-0.637,0.379-1.8,1.01c-1.155,0.649-2.793,1.648-4.669,3.086
							c-1.877,1.437-3.976,3.324-6.132,5.593c-2.152,2.274-4.369,4.914-6.632,7.743c-4.524,5.676-8.755,10.699-11.288,14.708
							c-1.286,1.988-2.222,3.665-2.834,4.841c-0.618,1.173-0.945,1.833-0.991,1.812c-0.02-0.009,0.038-0.184,0.167-0.511
							c0.134-0.324,0.316-0.81,0.605-1.41c0.548-1.215,1.43-2.936,2.678-4.97c2.46-4.106,6.658-9.197,11.174-14.864
							c2.267-2.834,4.511-5.48,6.704-7.75c2.197-2.266,4.351-4.141,6.283-5.548c1.932-1.409,3.624-2.361,4.822-2.947
							c0.596-0.299,1.083-0.483,1.405-0.622C126.313,349.578,126.487,349.518,126.496,349.538z"/>
					</g>
				</g>
			</g>
			<g>
				<g>
					<g>
						<path style="fill:#E0E0E0;" d="M127.168,362.124c0.008,0.091-1.453,0.268-3.805,0.553c-2.343,0.303-5.606,0.695-9.023,1.777
							c-3.405,1.109-6.235,2.798-8.079,4.24c-1.862,1.439-2.74,2.63-2.827,2.56c-0.03-0.022,0.152-0.346,0.563-0.876
							c0.407-0.533,1.073-1.245,1.982-2.029c1.814-1.564,4.672-3.355,8.167-4.494c3.501-1.108,6.808-1.43,9.172-1.621
							C125.692,362.062,127.161,362.042,127.168,362.124z"/>
					</g>
				</g>
			</g>
			<g>
				<g>
					<g>
						<path style="fill:#E0E0E0;" d="M104.544,369.871c-0.199-0.113,1.516-2.732,2.846-6.254c1.248-3.555,1.54-6.672,1.764-6.636
							c0.081,0.01,0.078,0.789-0.063,2.041c-0.149,1.248-0.449,2.982-1.11,4.809c-0.665,1.824-1.537,3.349-2.207,4.411
							C105.097,369.302,104.615,369.914,104.544,369.871z"/>
					</g>
				</g>
			</g>
			<g>
				<g>
					<g>
						<path style="fill:#E0E0E0;" d="M137.619,315.751c0.008,0.02-0.202,0.131-0.609,0.324c-0.472,0.215-1.063,0.483-1.788,0.813
							c-0.783,0.336-1.734,0.762-2.805,1.327c-1.075,0.554-2.329,1.126-3.635,1.91c-0.663,0.377-1.356,0.771-2.076,1.18
							c-0.719,0.414-1.432,0.905-2.189,1.38c-1.53,0.928-3.063,2.071-4.699,3.238c-3.201,2.43-6.568,5.306-9.809,8.627
							c-3.21,3.354-5.97,6.817-8.289,10.1c-1.11,1.675-2.201,3.246-3.076,4.807c-0.448,0.773-0.915,1.502-1.304,2.235
							c-0.384,0.734-0.754,1.439-1.108,2.115c-0.739,1.332-1.267,2.605-1.785,3.698c-0.528,1.089-0.921,2.054-1.23,2.848
							c-0.304,0.735-0.553,1.336-0.751,1.815c-0.178,0.413-0.282,0.627-0.303,0.62c-0.021-0.007,0.043-0.235,0.183-0.662
							c0.17-0.491,0.382-1.107,0.642-1.86c0.275-0.81,0.636-1.792,1.136-2.9c0.489-1.112,0.992-2.405,1.71-3.757
							c0.345-0.686,0.705-1.402,1.079-2.147c0.38-0.744,0.839-1.483,1.281-2.268c0.862-1.583,1.943-3.176,3.049-4.873
							c2.31-3.326,5.079-6.828,8.314-10.208c3.266-3.348,6.672-6.234,9.916-8.656c1.658-1.163,3.212-2.298,4.765-3.213
							c0.769-0.468,1.492-0.952,2.222-1.357c0.731-0.4,1.435-0.784,2.108-1.152c1.327-0.764,2.602-1.31,3.697-1.837
							c1.091-0.537,2.06-0.932,2.86-1.234c0.745-0.286,1.352-0.519,1.838-0.706C137.386,315.802,137.612,315.731,137.619,315.751z"
							/>
					</g>
				</g>
			</g>
			<g>
				<g>
					<g>
						<path style="fill:#E0E0E0;" d="M110.437,333.964c-0.055-0.009,0.247-1.065,1.494-2.226c1.217-1.159,3.437-2.233,6.022-2.311
							c2.577-0.068,4.812,0.653,6.338,1.238c1.534,0.603,2.426,1.091,2.396,1.164c-0.036,0.087-0.991-0.257-2.542-0.744
							c-1.545-0.473-3.729-1.096-6.171-1.03c-2.433,0.075-4.534,1.012-5.752,2.019C110.976,333.078,110.537,334.025,110.437,333.964
							z"/>
					</g>
				</g>
			</g>
			<g>
				<g>
					<g>
						<path style="fill:#E0E0E0;" d="M106.374,338.155c-0.173-0.096,1.361-2.344,1.71-5.563c0.402-3.215-0.573-5.754-0.383-5.808
							c0.069-0.029,0.411,0.563,0.706,1.62c0.297,1.053,0.494,2.586,0.301,4.26c-0.198,1.673-0.742,3.12-1.274,4.076
							C106.903,337.702,106.434,338.199,106.374,338.155z"/>
					</g>
				</g>
			</g>
		</g>
		<g>
			<g>
				<path style="fill:#E0E0E0;" d="M62.11,394.564c0.937,16.622,5.946,33.526,13.65,50.617h33.503
					c7.347-16.921,12.01-33.8,12.839-50.617H62.11z"/>
			</g>
		</g>
		<g>
			<g>
				<g>
					<path style="fill:#FAFAFA;" d="M116.672,421.461c0,0.174-11.031,0.314-24.635,0.314c-13.609,0-24.637-0.141-24.637-0.314
						c0-0.174,11.028-0.314,24.637-0.314C105.642,421.147,116.672,421.288,116.672,421.461z"/>
				</g>
			</g>
		</g>
		<g>
			<g>
				<g>
					<path style="fill:#FAFAFA;" d="M115.924,427.483c0,0.174-10.341,0.314-23.095,0.314c-12.758,0-23.097-0.141-23.097-0.314
						c0-0.173,10.339-0.314,23.097-0.314C105.582,427.168,115.924,427.309,115.924,427.483z"/>
				</g>
			</g>
		</g>
		<g>
			<g>
				<g>
					<path style="fill:#FAFAFA;" d="M76.301,405.478c0.174,0,0.314,3.455,0.314,7.717c0,4.263-0.141,7.717-0.314,7.717
						c-0.174,0-0.314-3.454-0.314-7.717C75.987,408.933,76.127,405.478,76.301,405.478z"/>
				</g>
			</g>
		</g>
		<g>
			<g>
				<g>
					<path style="fill:#FAFAFA;" d="M94.251,405.478c0.174,0,0.314,3.578,0.314,7.991c0,4.415-0.141,7.992-0.314,7.992
						c-0.174,0-0.314-3.577-0.314-7.992C93.937,409.056,94.078,405.478,94.251,405.478z"/>
				</g>
			</g>
		</g>
		<g>
			<g>
				<g>
					<path style="fill:#FAFAFA;" d="M111.103,405.342c0.174,0,0.314,3.65,0.314,8.151c0,4.503-0.141,8.151-0.314,8.151
						c-0.174,0-0.314-3.649-0.314-8.151C110.789,408.992,110.929,405.342,111.103,405.342z"/>
				</g>
			</g>
		</g>
		<g>
			<g>
				<g>
					<path style="fill:#FAFAFA;" d="M121.038,405.478c0,0.174-12.938,0.314-28.894,0.314c-15.962,0-28.897-0.141-28.897-0.314
						c0-0.174,12.935-0.314,28.897-0.314C108.101,405.163,121.038,405.304,121.038,405.478z"/>
				</g>
			</g>
		</g>
	</g>
</g>
<g id="Background_Simple" style="display:none;">
	<g style="display:inline;">
		<path style="fill:#F5F5F5;" d="M397.307,89.089l-1.991-3.28c-16.781-27.653-47.12-44.322-79.108-42.3
			c-4.112,0.26-8.206,0.817-12.246,1.681c-29.084,6.226-54.39,28.219-64.88,56.386c-6.169,16.565-7.893,35.639-19.599,48.788
			c-15.236,17.113-41.102,17.65-63.844,16.941c-22.742-0.709-48.625-0.104-63.787,17.076c-9.495,10.76-12.513,26.061-11.748,40.47
			c2.027,38.15,28.61,72.261,62.417,89.216c33.807,16.955,73.611,18.474,110.611,11.015
			c51.832-10.448,101.124-39.142,130.753-83.461C413.514,197.302,421.013,136.923,397.307,89.089z"/>
	</g>
</g>
<g id="Floor">
	<g>
		<g>
			<path style="fill:#263238;" d="M466.131,445.471c0,0.144-96.773,0.26-216.12,0.26c-119.389,0-216.141-0.117-216.141-0.26
				s96.752-0.26,216.141-0.26C369.358,445.211,466.131,445.327,466.131,445.471z"/>
		</g>
	</g>
</g>
<g id="Table">
	<g>
		<g>
			<g>
				<path style="fill:#455A64;" d="M371.599,191.482c-2.048-0.283-3.894,0.673-4.87,2.074c-0.976,1.401-1.204,3.182-1.164,4.945
					c0.035,1.55,0.296,3.203,1.344,4.615c1.246,1.678,3.467,2.756,5.608,3.055c2.141,0.298,4.207-0.097,6.05-0.759
					c0.478-2.009-0.025-4.517-0.476-6.668c-0.325-1.549-0.879-3.131-1.959-4.504C375.053,192.868,373.378,191.728,371.599,191.482z"
					/>
			</g>
			<g>
				<g>
					<path style="fill:#263238;" d="M415.855,186.798c0.017,0.006-0.05,0.245-0.192,0.694c-0.164,0.496-0.379,1.145-0.646,1.954
						c-0.581,1.689-1.381,4.149-2.319,7.201c-0.947,3.05-1.979,6.71-3.029,10.799c-1.025,4.095-2.054,8.621-2.967,13.406
						c-0.895,4.79-1.586,9.381-2.124,13.568c-0.512,4.19-0.885,7.975-1.115,11.161c-0.238,3.184-0.39,5.766-0.465,7.551
						c-0.046,0.851-0.082,1.534-0.11,2.055c-0.031,0.47-0.056,0.716-0.074,0.716c-0.018,0-0.028-0.248-0.031-0.718
						c0.003-0.522,0.007-1.207,0.013-2.059c0.012-1.789,0.108-4.376,0.3-7.569c0.183-3.194,0.519-6.991,1.006-11.194
						c0.513-4.2,1.192-8.805,2.089-13.607c0.915-4.797,1.961-9.331,3.014-13.429c1.078-4.091,2.149-7.749,3.142-10.79
						c0.985-3.043,1.839-5.488,2.48-7.158c0.306-0.796,0.551-1.435,0.739-1.923C415.738,187.018,415.838,186.792,415.855,186.798z"
						/>
				</g>
			</g>
			<g>
				<g>
					<path style="fill:#263238;" d="M375.837,201.04c0.015-0.009,0.148,0.182,0.387,0.556c0.262,0.422,0.601,0.968,1.022,1.647
						c0.887,1.43,2.099,3.545,3.526,6.195c1.435,2.646,3.032,5.858,4.69,9.478c1.632,3.631,3.312,7.676,4.884,11.994
						c1.553,4.327,2.849,8.512,3.915,12.348c1.04,3.844,1.866,7.334,2.454,10.287c0.597,2.95,1.017,5.35,1.25,7.017
						c0.11,0.791,0.199,1.427,0.267,1.919c0.055,0.439,0.076,0.671,0.058,0.674c-0.018,0.003-0.073-0.224-0.162-0.658
						c-0.093-0.487-0.214-1.118-0.363-1.902c-0.293-1.655-0.768-4.04-1.41-6.974c-0.633-2.936-1.494-6.409-2.556-10.235
						c-1.089-3.818-2.394-7.986-3.943-12.299c-1.567-4.305-3.228-8.343-4.832-11.975c-1.629-3.62-3.187-6.841-4.578-9.503
						c-1.383-2.666-2.543-4.804-3.375-6.264c-0.386-0.698-0.697-1.261-0.937-1.695C375.924,201.259,375.822,201.049,375.837,201.04z
						"/>
				</g>
			</g>
			<g>
				<path style="fill:#FF725E;" d="M411.936,252.45h-21.733c-0.603,0-1.092-0.489-1.092-1.092v-0.064
					c0-0.603,0.489-1.091,1.092-1.091h21.733c0.603,0,1.091,0.489,1.091,1.091v0.064C413.027,251.961,412.539,252.45,411.936,252.45
					z"/>
			</g>
			<g>
				<path style="fill:#FF725E;" d="M420.835,275.451c-0.796-8.755-7.694-9.949-9.02-10.878c-0.284-0.199-0.538-0.453-0.761-0.729
					c-0.832-1.028-1.228-2.341-1.228-3.664v-8.855h-8.29h-0.731h-8.29v8.855c0,1.322-0.396,2.636-1.228,3.663
					c-0.223,0.276-0.477,0.53-0.761,0.729c-1.327,0.929-8.224,2.122-9.02,10.878c-0.796,8.755-3.714,28.653,1.459,35.02
					c4.766,5.866,9.422,6.215,17.177,6.234v0.001c0.35,0,0.691,0,1.029,0c0.338,0,0.679,0,1.029,0v-0.001
					c7.755-0.018,12.411-0.368,17.177-6.234C424.549,304.104,421.63,284.206,420.835,275.451z"/>
			</g>
			<g>
				<g>
					<path style="fill:#263238;" d="M412.477,252.516c0,0.144-5.108,0.26-11.407,0.26c-6.302,0-11.408-0.117-11.408-0.26
						s5.107-0.26,11.408-0.26C407.369,252.256,412.477,252.372,412.477,252.516z"/>
				</g>
			</g>
			<g>
				<path style="fill:#455A64;" d="M426.356,180.067c-0.781-1.986-2.859-3.254-4.974-3.537c-2.115-0.283-4.258,0.278-6.238,1.076
					c-1.74,0.701-3.475,1.652-4.512,3.215c-1.234,1.859-1.261,4.346-0.447,6.423c0.814,2.077,2.374,3.787,4.118,5.178
					c2.536-0.432,5.112-1.973,7.309-3.312c1.582-0.965,3.079-2.152,4.055-3.727C426.643,183.808,427.035,181.792,426.356,180.067z"
					/>
			</g>
			<g>
				<path style="fill:#455A64;" d="M370.515,223.538c-0.926-1.398-0.806-3.306-0.035-4.795c0.771-1.489,2.098-2.615,3.503-3.53
					c1.236-0.803,2.629-1.492,4.103-1.455c1.752,0.044,3.365,1.147,4.335,2.607c0.97,1.46,1.368,3.234,1.477,4.984
					c-1.421,1.438-3.573,2.401-5.425,3.211c-1.334,0.584-2.773,1.012-4.226,0.931C372.793,225.409,371.319,224.752,370.515,223.538z
					"/>
			</g>
			<g>
				<path style="fill:#455A64;" d="M394.031,212.691c-0.926-1.398-0.806-3.306-0.035-4.795c0.771-1.489,2.098-2.616,3.503-3.53
					c1.235-0.803,2.629-1.492,4.103-1.455c1.752,0.044,3.365,1.147,4.335,2.607c0.97,1.46,1.368,3.234,1.477,4.984
					c-1.421,1.438-3.573,2.401-5.425,3.211c-1.334,0.584-2.773,1.012-4.226,0.93C396.309,214.562,394.835,213.905,394.031,212.691z"
					/>
			</g>
			<g>
				<path style="fill:#455A64;" d="M425.107,211.002c1.117-1.28,1.252-3.214,0.677-4.813c-0.575-1.599-1.758-2.909-3.048-4.015
					c-1.134-0.973-2.442-1.851-3.927-2.011c-1.766-0.19-3.534,0.702-4.704,2.039c-1.17,1.337-1.807,3.066-2.151,4.809
					c1.235,1.635,3.269,2.89,5.021,3.952c1.262,0.765,2.65,1.388,4.122,1.5C422.568,212.576,424.137,212.114,425.107,211.002z"/>
			</g>
			<g>
				<path style="fill:#455A64;" d="M392.652,198.78c-0.339-1.965-1.581-3.309-2.931-3.704c-1.35-0.395-2.79,0.025-4.143,0.684
					c-1.19,0.579-2.398,1.399-3.204,2.851c-0.959,1.727-1.188,4.13-0.836,6.185c0.352,2.055,1.22,3.797,2.235,5.242
					c1.684-0.273,3.488-1.616,5.029-2.785c1.11-0.842,2.183-1.905,2.951-3.372C392.52,202.413,392.946,200.486,392.652,198.78z"/>
			</g>
			<g>
				<path style="fill:#455A64;" d="M403.11,186.395c-2.048-0.283-3.894,0.673-4.87,2.074c-0.976,1.401-1.204,3.182-1.164,4.945
					c0.035,1.55,0.296,3.203,1.344,4.615c1.246,1.679,3.467,2.756,5.608,3.055c2.141,0.299,4.207-0.096,6.05-0.759
					c0.478-2.009-0.025-4.517-0.476-6.668c-0.325-1.549-0.879-3.131-1.958-4.503C406.564,187.78,404.889,186.64,403.11,186.395z"/>
			</g>
			<g>
				<g>
					<path style="fill:#263238;" d="M384.331,201.809c0.078,0.012-0.027,0.995-0.141,2.582c-0.114,1.587-0.212,3.782-0.097,6.2
						c0.119,2.419,0.448,4.589,0.767,6.145c0.316,1.556,0.581,2.509,0.502,2.534c-0.058,0.02-0.448-0.897-0.861-2.45
						c-0.415-1.551-0.808-3.75-0.929-6.202c-0.117-2.452,0.042-4.673,0.251-6.262C384.033,202.764,384.266,201.799,384.331,201.809z
						"/>
				</g>
			</g>
			<g>
				<g>
					<path style="fill:#263238;" d="M389.05,227.879c-0.139,0.063-1.017-1.87-2.775-3.758c-0.868-0.946-1.759-1.696-2.451-2.168
						c-0.687-0.482-1.179-0.66-1.157-0.74c0.011-0.061,0.575,0.001,1.348,0.424c0.775,0.411,1.745,1.151,2.644,2.131
						C388.486,225.735,389.182,227.846,389.05,227.879z"/>
				</g>
			</g>
			<g>
				<g>
					<path style="fill:#263238;" d="M406.956,209.993c0.127-0.045,0.731,1.521,0.84,3.567c0.12,2.046-0.306,3.669-0.437,3.639
						c-0.151-0.025,0.035-1.634-0.083-3.61C407.173,211.614,406.809,210.035,406.956,209.993z"/>
				</g>
			</g>
			<g>
				<g>
					<path style="fill:#263238;" d="M413.098,205.33c0.118,0.082-0.865,1.697-2.195,3.607c-1.331,1.91-2.504,3.392-2.623,3.309
						c-0.118-0.082,0.865-1.697,2.195-3.607C411.806,206.729,412.98,205.248,413.098,205.33z"/>
				</g>
			</g>
			<g>
				<g>
					<path style="fill:#263238;" d="M409.857,204.962c-0.144-0.007-0.193-1.404-0.109-3.121c0.083-1.717,0.268-3.103,0.411-3.096
						c0.144,0.007,0.192,1.404,0.109,3.121C410.184,203.583,410,204.969,409.857,204.962z"/>
				</g>
			</g>
			<g>
				<g>
					<path style="fill:#263238;" d="M383.309,290.873c-0.068,0.005-0.227-1.249-0.341-3.287c-0.114-2.037-0.165-4.861-0.023-7.973
						c0.081-1.557,0.152-3.035,0.348-4.39c0.197-1.351,0.6-2.561,1.176-3.441c0.566-0.886,1.24-1.443,1.75-1.723
						c0.511-0.285,0.836-0.336,0.844-0.31c0.063,0.077-1.271,0.47-2.279,2.224c-0.503,0.854-0.849,2.002-1.015,3.318
						c-0.165,1.315-0.223,2.8-0.303,4.346c-0.141,3.097-0.148,5.905-0.129,7.938C383.355,289.608,383.384,290.868,383.309,290.873z"
						/>
				</g>
			</g>
		</g>
		<g>
			<g>
				<g>
					<g>
						<path style="fill:#263238;" d="M352.724,445.896c-0.294,0-0.594-0.043-0.893-0.132c-1.309-0.39-2.155-1.523-2.155-2.889
							V407.69h0.786v35.185c0,1.227,0.858,1.917,1.593,2.135c0.736,0.22,1.831,0.109,2.501-0.918l23.892-36.617l0.659,0.43
							l-23.893,36.617C354.638,445.404,353.716,445.896,352.724,445.896z"/>
					</g>
				</g>
				<g>
					<g>
						<path style="fill:#263238;" d="M447.608,445.896c-0.992,0-1.914-0.492-2.49-1.374l-23.893-36.617l0.659-0.43l23.893,36.617
							c0.67,1.027,1.766,1.139,2.501,0.918c0.735-0.218,1.593-0.909,1.593-2.135V407.69h0.786v35.185c0,1.365-0.846,2.5-2.155,2.889
							C448.202,445.853,447.902,445.896,447.608,445.896z"/>
					</g>
				</g>
				<g>
					<g>
						<rect x="343.231" y="316.058" style="fill:#AE7461;" width="122.694" height="95.285"/>
					</g>
				</g>
			</g>
			<g>
				<g>
					<g>
						<path style="fill:#263238;" d="M429.146,359.058c0,0-0.007-0.211-0.01-0.612c-0.003-0.41-0.006-1.001-0.011-1.776
							c-0.006-1.568-0.014-3.869-0.025-6.848c-0.013-5.96-0.032-14.624-0.056-25.49l0.103,0.135
							c-19.056,0.017-47.464,0.042-79.121,0.07h-0.005l0.157-0.205c-0.002,12.07-0.004,23.777-0.005,34.726l-0.152-0.198
							c22.774,0.037,42.534,0.069,56.61,0.092c7.043,0.024,12.662,0.043,16.53,0.056c1.929,0.011,3.42,0.02,4.438,0.025
							c0.501,0.005,0.884,0.01,1.151,0.013C429.009,359.049,429.146,359.058,429.146,359.058s-0.125,0.008-0.378,0.012
							c-0.263,0.003-0.64,0.007-1.133,0.013c-1.01,0.006-2.49,0.014-4.405,0.025c-3.86,0.013-9.467,0.032-16.495,0.056
							c-14.102,0.023-33.899,0.055-56.714,0.092l-0.152,0l0-0.198c-0.002-10.948-0.003-22.656-0.005-34.726v-0.205h0.157h0.005
							c31.656,0.028,60.064,0.053,79.121,0.07l0.104,0l0,0.135c-0.024,10.9-0.043,19.592-0.057,25.571
							c-0.011,2.966-0.02,5.256-0.025,6.817c-0.005,0.764-0.008,1.348-0.011,1.752C429.153,358.864,429.146,359.058,429.146,359.058
							z"/>
					</g>
				</g>
			</g>
			<g>
				<g>
					<g>
						<path style="fill:#263238;" d="M429.146,400.241c0,0-0.007-0.211-0.01-0.612c-0.003-0.41-0.006-1.002-0.011-1.776
							c-0.006-1.568-0.014-3.869-0.025-6.848c-0.013-5.96-0.032-14.624-0.056-25.49l0.103,0.135
							c-19.056,0.017-47.464,0.042-79.121,0.07h-0.005l0.157-0.205c-0.002,12.07-0.004,23.777-0.005,34.726l-0.152-0.198
							c22.774,0.037,42.534,0.069,56.61,0.092c7.043,0.024,12.662,0.043,16.53,0.056c1.929,0.011,3.42,0.02,4.438,0.026
							c0.501,0.005,0.884,0.01,1.151,0.012C429.009,400.232,429.146,400.241,429.146,400.241s-0.125,0.008-0.378,0.013
							c-0.263,0.003-0.64,0.007-1.133,0.012c-1.01,0.006-2.49,0.014-4.405,0.026c-3.86,0.013-9.467,0.032-16.495,0.056
							c-14.102,0.023-33.899,0.055-56.714,0.092l-0.152,0l0-0.198c-0.002-10.949-0.003-22.656-0.005-34.726v-0.205h0.157h0.005
							c31.656,0.028,60.064,0.053,79.121,0.07l0.104,0l0,0.135c-0.024,10.9-0.043,19.592-0.057,25.571
							c-0.011,2.966-0.02,5.256-0.025,6.818c-0.005,0.764-0.008,1.348-0.011,1.753C429.153,400.047,429.146,400.241,429.146,400.241
							z"/>
					</g>
				</g>
			</g>
			<g>
				<g>
					<polygon style="fill:#263238;" points="373.369,324.127 375.939,327.709 405.404,327.709 408.334,324.127 					"/>
				</g>
			</g>
			<g>
				<g>
					<polygon style="fill:#263238;" points="373.478,365.31 376.048,368.892 405.513,368.892 408.443,365.31 					"/>
				</g>
			</g>
		</g>
		<g>
			<rect x="437.659" y="316.058" style="fill:#6F4439;" width="28.266" height="95.285"/>
		</g>
	</g>
</g>
<g id="Speech_Bubble">
	<g>
		<g>
			<g>
				
					<ellipse transform="matrix(0.1616 -0.9869 0.9869 0.1616 13.5726 313.3212)" style="fill:#FFFFFF;" cx="191.193" cy="148.672" rx="28.802" ry="28.802"/>
			</g>
			<g>
				<g>
					<path style="fill:#263238;" d="M219.995,148.672c-0.01,0-0.027-0.158-0.053-0.466c-0.024-0.334-0.056-0.787-0.097-1.366
						c-0.019-0.303-0.041-0.638-0.064-1.006c-0.04-0.368-0.121-0.767-0.187-1.201c-0.14-0.867-0.273-1.873-0.607-2.967
						c-0.512-2.22-1.557-4.843-3.2-7.621c-1.656-2.767-4.043-5.656-7.29-8.107c-3.237-2.428-7.32-4.493-12.032-5.326
						c-4.68-0.803-9.963-0.657-14.993,1.255c-1.28,0.41-2.484,1.044-3.721,1.637c-1.172,0.709-2.407,1.362-3.497,2.249
						c-1.16,0.796-2.173,1.793-3.235,2.752c-0.959,1.062-1.967,2.102-2.794,3.307c-1.697,2.357-3.179,4.977-4.076,7.857
						c-0.93,2.863-1.43,5.903-1.471,8.998c0.041,3.095,0.54,6.137,1.47,9.001c0.896,2.882,2.379,5.502,4.076,7.86
						c0.827,1.206,1.835,2.246,2.795,3.308c1.062,0.959,2.076,1.956,3.236,2.752c1.091,0.887,2.326,1.541,3.498,2.25
						c1.237,0.594,2.441,1.227,3.721,1.637c5.031,1.912,10.315,2.058,14.995,1.255c4.712-0.833,8.796-2.898,12.032-5.326
						c3.247-2.451,5.633-5.341,7.289-8.108c1.643-2.778,2.687-5.401,3.199-7.621c0.334-1.093,0.467-2.099,0.607-2.966
						c0.066-0.434,0.146-0.833,0.187-1.201c0.023-0.368,0.045-0.703,0.064-1.006c0.041-0.579,0.074-1.032,0.097-1.366
						C219.968,148.83,219.985,148.672,219.995,148.672c0.01,0,0.012,0.158,0.006,0.467c-0.01,0.335-0.023,0.79-0.041,1.372
						c-0.011,0.305-0.024,0.642-0.038,1.012c-0.031,0.371-0.103,0.773-0.161,1.211c-0.123,0.875-0.24,1.89-0.56,2.997
						c-0.483,2.245-1.505,4.905-3.14,7.73c-1.648,2.813-4.042,5.758-7.318,8.265c-3.266,2.483-7.402,4.603-12.19,5.471
						c-4.754,0.838-10.13,0.707-15.261-1.226c-1.305-0.415-2.533-1.056-3.795-1.659c-1.196-0.718-2.455-1.383-3.569-2.284
						c-1.183-0.81-2.219-1.822-3.302-2.8c-0.981-1.08-2.009-2.14-2.854-3.368c-1.734-2.402-3.247-5.074-4.164-8.012
						c-0.95-2.92-1.46-6.024-1.501-9.18c0.041-3.155,0.553-6.257,1.503-9.176c0.918-2.937,2.43-5.608,4.164-8.009
						c0.845-1.227,1.873-2.286,2.854-3.367c1.083-0.977,2.119-1.989,3.302-2.799c1.114-0.901,2.373-1.566,3.569-2.284
						c1.261-0.603,2.49-1.243,3.794-1.659c5.13-1.932,10.506-2.064,15.259-1.226c4.787,0.867,8.924,2.987,12.19,5.47
						c3.277,2.506,5.671,5.451,7.319,8.265c1.635,2.825,2.658,5.485,3.141,7.73c0.32,1.106,0.437,2.122,0.56,2.997
						c0.058,0.438,0.129,0.84,0.161,1.211c0.014,0.37,0.026,0.708,0.038,1.012c0.017,0.582,0.031,1.037,0.041,1.372
						C220.007,148.514,220.005,148.672,219.995,148.672z"/>
				</g>
			</g>
		</g>
		<g>
			<g>
				<circle style="fill:#263238;" cx="182.667" cy="147.951" r="3.385"/>
			</g>
			<g>
				<circle style="fill:#263238;" cx="191.705" cy="147.951" r="3.385"/>
			</g>
			<g>
				<path style="fill:#263238;" d="M204.128,147.951c0,1.869-1.515,3.385-3.385,3.385c-1.869,0-3.385-1.515-3.385-3.385
					c0-1.869,1.515-3.385,3.385-3.385C202.613,144.566,204.128,146.081,204.128,147.951z"/>
			</g>
		</g>
		<g>
			<g>
				<path style="fill:#FFFFFF;" d="M233.369,154.929c0,2.223-1.802,4.025-4.025,4.025c-2.223,0-4.025-1.802-4.025-4.025
					c0-2.223,1.802-4.025,4.025-4.025C231.567,150.904,233.369,152.706,233.369,154.929z"/>
			</g>
			<g>
				<g>
					<path style="fill:#263238;" d="M233.369,154.929c-0.052,0.002-0.055-0.358-0.234-0.956c-0.176-0.587-0.591-1.437-1.478-2.083
						c-0.858-0.648-2.253-1.002-3.594-0.494c-1.33,0.466-2.473,1.882-2.458,3.533c-0.015,1.651,1.128,3.067,2.458,3.534
						c1.341,0.507,2.737,0.154,3.595-0.495c0.887-0.646,1.302-1.497,1.478-2.083C233.314,155.287,233.317,154.927,233.369,154.929
						c0.026-0.002,0.101,0.36-0.018,1.01c-0.119,0.635-0.502,1.591-1.449,2.35c-0.914,0.759-2.476,1.217-4.018,0.668
						c-1.528-0.5-2.868-2.122-2.849-4.027c-0.018-1.904,1.322-3.527,2.849-4.026c1.542-0.549,3.104-0.092,4.018,0.667
						c0.947,0.759,1.331,1.714,1.449,2.35C233.47,154.569,233.395,154.932,233.369,154.929z"/>
				</g>
			</g>
		</g>
	</g>
</g>
<g id="Character">
	<g>
		<g>
			<polygon style="fill:#6F4439;" points="308.991,356.742 335.176,445.896 327.816,445.896 291.707,356.118 			"/>
		</g>
		<g>
			<polygon style="fill:#6F4439;" points="244.733,356.742 270.918,445.046 263.557,445.046 227.448,356.118 			"/>
		</g>
		<g>
			<polygon style="fill:#AE7461;" points="164.952,356.742 141.212,445.046 148.573,445.046 182.236,356.118 			"/>
		</g>
		<g>
			<polygon style="fill:#AE7461;" points="241.844,356.742 219.34,445.046 226.7,445.046 259.129,356.118 			"/>
		</g>
	</g>
	<g>
		<g>
			<path style="fill:#FF725E;" d="M150.76,318.075c0,0-2.05-26.879,2.05-34.551c4.099-7.672,43.452-23.249,43.452-23.249
				s27.018-42.632,45.073-51.651s88.563-7.789,98.811,6.149s-1.23,50.421-6.559,72.557l-19.267,54.11l-5.329,15.301H162.238
				L150.76,318.075z"/>
		</g>
		<g>
			<g>
				<path style="fill:#263238;" d="M333.545,214.337c0.008-0.003,0.048,0.091,0.113,0.278c0.065,0.187,0.159,0.467,0.265,0.84
					c0.217,0.743,0.508,1.851,0.798,3.301c0.569,2.893,1.169,7.182,0.913,12.529c-0.127,2.674-0.539,5.579-1.009,8.696
					c-0.476,3.117-1.045,6.447-1.681,9.957c-1.271,7.02-2.787,14.765-4.487,22.956l-0.025,0.122l-0.111,0.056
					c-2.2,1.108-4.524,2.284-6.901,3.434c-16.656,8.134-32.278,14.314-43.718,18.365c-5.72,2.029-10.393,3.546-13.63,4.564
					c-1.6,0.486-2.853,0.866-3.739,1.135c-0.408,0.117-0.73,0.21-0.977,0.281c-0.221,0.06-0.335,0.087-0.338,0.079
					c-0.003-0.009,0.107-0.052,0.322-0.13c0.242-0.083,0.56-0.192,0.961-0.33c0.879-0.291,2.122-0.703,3.708-1.228
					c3.217-1.077,7.868-2.645,13.568-4.717c11.399-4.136,26.979-10.362,43.614-18.487c2.374-1.149,4.696-2.322,6.894-3.427
					l-0.136,0.177c1.706-8.184,3.24-15.923,4.539-22.933c0.65-3.505,1.235-6.829,1.729-9.937c0.488-3.109,0.918-6.002,1.068-8.651
					c0.301-5.308-0.242-9.582-0.752-12.476c-0.261-1.449-0.52-2.561-0.706-3.31c-0.091-0.353-0.163-0.634-0.218-0.851
					C333.561,214.438,333.537,214.34,333.545,214.337z"/>
			</g>
		</g>
		<g>
			<g>
				<path style="fill:#263238;" d="M169.702,340.049c0.142-0.024,0.881,3.694,1.65,8.303c0.769,4.611,1.278,8.366,1.136,8.39
					c-0.142,0.024-0.88-3.693-1.65-8.304C170.069,343.829,169.561,340.073,169.702,340.049z"/>
			</g>
		</g>
	</g>
	<g>
		<g>
			<path style="fill:#263238;" d="M245.674,356.118c-0.142-0.024,1.496-10.295,3.658-22.937c2.162-12.646,4.029-22.875,4.171-22.851
				c0.142,0.024-1.496,10.292-3.658,22.939C247.684,345.912,245.816,356.143,245.674,356.118z"/>
		</g>
	</g>
	<g>
		<g>
			<g>
				<g>
					<g>
						<g>
							<g>
								<g>
									<g>
										<g>
											<g>
												<g>
													<g>
														<g>
															<g>
																<g>
																	<path style="fill:#263238;" d="M68.912,363.473L48.74,389.002c0,0-32.723-11.93-36.91-7.575l48.093,40.89
																		l33.063-38.487L68.912,363.473z"/>
																</g>
															</g>
														</g>
													</g>
												</g>
											</g>
										</g>
									</g>
								</g>
							</g>
						</g>
					</g>
				</g>
				<g>
					<g>
						<g>
							<g>
								<g>
									<g>
										<g>
											<g>
												<g>
													<g>
														<g>
															<g>
																<g>
																	<g>
																		<path style="fill:#E0E0E0;" d="M65.383,399.562c0.715,1.046,0.468,2.639-0.548,3.396
																			c-1.015,0.757-2.638,0.52-3.37-0.514c-0.733-1.033-0.496-2.954,0.599-3.593c1.094-0.638,2.984-0.256,3.447,0.923"
																			/>
																	</g>
																</g>
															</g>
														</g>
													</g>
												</g>
											</g>
										</g>
									</g>
								</g>
							</g>
						</g>
					</g>
				</g>
				<g>
					<g>
						<g>
							<g>
								<g>
									<g>
										<g>
											<g>
												<g>
													<g>
														<g>
															<g>
																<g>
																	<path style="fill:#455A64;" d="M59.923,422.316l3.181-4.01l-47.3-37.705c0,0-2.933-0.889-3.973,0.825
																		L59.923,422.316z"/>
																</g>
															</g>
														</g>
													</g>
												</g>
											</g>
										</g>
									</g>
								</g>
							</g>
						</g>
					</g>
				</g>
				<g>
					<g>
						<g>
							<g>
								<g>
									<g>
										<g>
											<g>
												<g>
													<g>
														<g>
															<g>
																<g>
																	<g>
																		<path style="fill:#FFFFFF;" d="M48.168,388.094c-0.192,0.242,0.892,1.347,1.405,3.084
																			c0.559,1.724,0.29,3.248,0.585,3.339c0.255,0.138,1.099-1.563,0.44-3.656
																			C49.959,388.762,48.301,387.836,48.168,388.094z"/>
																	</g>
																</g>
															</g>
														</g>
													</g>
												</g>
											</g>
										</g>
									</g>
								</g>
							</g>
						</g>
					</g>
				</g>
				<g>
					<g>
						<g>
							<g>
								<g>
									<g>
										<g>
											<g>
												<g>
													<g>
														<g>
															<g>
																<g>
																	<g>
																		<path style="fill:#FFFFFF;" d="M41.35,385.892c-0.247,0.182,0.431,1.446,0.384,3.117
																			c0.002,1.673-0.71,2.918-0.467,3.106c0.189,0.225,1.521-1.012,1.539-3.092
																			C42.844,386.945,41.546,385.672,41.35,385.892z"/>
																	</g>
																</g>
															</g>
														</g>
													</g>
												</g>
											</g>
										</g>
									</g>
								</g>
							</g>
						</g>
					</g>
				</g>
				<g>
					<g>
						<g>
							<g>
								<g>
									<g>
										<g>
											<g>
												<g>
													<g>
														<g>
															<g>
																<g>
																	<g>
																		<path style="fill:#FFFFFF;" d="M33.352,389.493c0.171,0.231,1.495-0.664,1.986-2.463
																			c0.504-1.796-0.172-3.245-0.438-3.133c-0.297,0.08-0.171,1.376-0.596,2.847
																			C33.914,388.224,33.138,389.271,33.352,389.493z"/>
																	</g>
																</g>
															</g>
														</g>
													</g>
												</g>
											</g>
										</g>
									</g>
								</g>
							</g>
						</g>
					</g>
				</g>
				<g>
					<g>
						<g>
							<g>
								<g>
									<g>
										<g>
											<g>
												<g>
													<g>
														<g>
															<g>
																<g>
																	<g>
																		<path style="fill:#FFFFFF;" d="M53.411,382.786c-0.083,0.298,1.269,0.89,2.52,2.109
																			c1.276,1.193,1.93,2.517,2.224,2.42c0.281-0.054,0.011-1.781-1.483-3.196
																			C55.19,382.693,53.453,382.504,53.411,382.786z"/>
																	</g>
																</g>
															</g>
														</g>
													</g>
												</g>
											</g>
										</g>
									</g>
								</g>
							</g>
						</g>
					</g>
				</g>
			</g>
		</g>
		<g>
			<path style="fill:#263238;" d="M112.752,320.094c0,2.312-10.338,108.623-10.338,108.623l34.922,4.049
				c0,0,8.693-53.615,10.041-63.498c1.348-9.883,5.875-27.591,5.875-27.591l74.504-7.369c0,0-36.542-51.122-40.095-51.337
				C184.106,282.757,112.752,320.094,112.752,320.094z"/>
		</g>
		<g>
			<path style="fill:#263238;" d="M52.385,378.835c0,0,62.537-84.771,66.144-89.211s7.77-9.157,20.812-9.157
				s48.319,2.504,48.319,2.504l18.639-8.491l67.662,10.433c0,0,2.497,32.189-1.942,39.682c-4.44,7.492-30.802,9.435-36.352,9.712
				c-5.55,0.277-91.503-11.391-91.503-11.391l0,0c0,0-16.845,23.38-24.932,32.367c-5.766,6.408-36.535,45.893-36.535,45.893
				L52.385,378.835z"/>
			<path style="fill:#455A64;" d="M82.792,401.868l-31.106-22.928l0.297-0.402c0.625-0.848,62.585-84.832,66.159-89.229
				c3.382-4.162,7.59-9.343,21.2-9.343c12.519,0,45.888,2.333,48.227,2.497l18.66-8.5l0.147,0.022l68.053,10.494l0.03,0.395
				c0.103,1.321,2.459,32.435-2.011,39.976c-4.818,8.133-33.502,9.794-36.756,9.956c-5.408,0.317-84.869-10.482-91.298-11.353
				c-1.821,2.517-17.221,23.753-24.79,32.165c-5.688,6.322-36.205,45.473-36.512,45.867L82.792,401.868z M53.084,378.73
				l29.518,21.756c3.199-4.102,30.852-39.527,36.259-45.536c7.976-8.865,24.729-32.092,24.897-32.325l0.176-0.244l0.297,0.041
				c0.859,0.117,85.958,11.661,91.411,11.387c1.276-0.064,31.315-1.652,35.947-9.468c4.047-6.829,2.167-35.293,1.902-38.993
				l-67.121-10.351l-18.619,8.482l-0.127-0.009c-0.353-0.025-35.407-2.504-48.283-2.504c-13.134,0-17.176,4.976-20.424,8.974
				C115.486,294.162,57.769,372.38,53.084,378.73z"/>
		</g>
		<g>
			<g>
				<path style="fill:#455A64;" d="M137.253,311.681c0.121-0.078,1.929,2.505,4.038,5.768c2.11,3.264,3.722,5.973,3.601,6.051
					c-0.121,0.078-1.929-2.504-4.039-5.769C138.745,314.469,137.132,311.759,137.253,311.681z"/>
			</g>
		</g>
		<g>
			<g>
				<g>
					<g>
						<g>
							<g>
								<g>
									<g>
										<g>
											<g>
												<g>
													<g>
														<g>
															<g>
																<g>
																	<path style="fill:#263238;" d="M105.235,407.703l1.78,32.488c0,0-32.424,12.72-32.679,18.756l63.115-1.189
																		l-0.697-50.733L105.235,407.703z"/>
																</g>
															</g>
														</g>
													</g>
												</g>
											</g>
										</g>
									</g>
								</g>
							</g>
						</g>
					</g>
				</g>
				<g>
					<g>
						<g>
							<g>
								<g>
									<g>
										<g>
											<g>
												<g>
													<g>
														<g>
															<g>
																<g>
																	<g>
																		<path style="fill:#E0E0E0;" d="M126.479,437.088c1.228,0.311,2.098,1.668,1.838,2.908
																			c-0.26,1.239-1.633,2.136-2.866,1.846c-1.233-0.289-2.327-1.886-1.93-3.089c0.397-1.202,2.067-2.167,3.194-1.59"
																			/>
																	</g>
																</g>
															</g>
														</g>
													</g>
												</g>
											</g>
										</g>
									</g>
								</g>
							</g>
						</g>
					</g>
				</g>
				<g>
					<g>
						<g>
							<g>
								<g>
									<g>
										<g>
											<g>
												<g>
													<g>
														<g>
															<g>
																<g>
																	<path style="fill:#455A64;" d="M137.45,457.758l-0.271-5.111l-60.413,3.052c0,0-2.787,1.276-2.432,3.249
																		L137.45,457.758z"/>
																</g>
															</g>
														</g>
													</g>
												</g>
											</g>
										</g>
									</g>
								</g>
							</g>
						</g>
					</g>
				</g>
				<g>
					<g>
						<g>
							<g>
								<g>
									<g>
										<g>
											<g>
												<g>
													<g>
														<g>
															<g>
																<g>
																	<g>
																		<path style="fill:#FFFFFF;" d="M105.986,439.889c0.016,0.308,1.56,0.419,3.095,1.381
																			c1.56,0.923,2.367,2.243,2.648,2.115c0.283-0.065-0.212-1.899-2.091-3.032
																			C107.77,439.204,105.914,439.607,105.986,439.889z"/>
																	</g>
																</g>
															</g>
														</g>
													</g>
												</g>
											</g>
										</g>
									</g>
								</g>
							</g>
						</g>
					</g>
				</g>
				<g>
					<g>
						<g>
							<g>
								<g>
									<g>
										<g>
											<g>
												<g>
													<g>
														<g>
															<g>
																<g>
																	<g>
																		<path style="fill:#FFFFFF;" d="M99.417,442.752c-0.065,0.3,1.28,0.799,2.351,2.083
																			c1.109,1.252,1.4,2.657,1.706,2.637c0.29,0.044,0.47-1.766-0.893-3.336
																			C101.234,442.552,99.418,442.457,99.417,442.752z"/>
																	</g>
																</g>
															</g>
														</g>
													</g>
												</g>
											</g>
										</g>
									</g>
								</g>
							</g>
						</g>
					</g>
				</g>
				<g>
					<g>
						<g>
							<g>
								<g>
									<g>
										<g>
											<g>
												<g>
													<g>
														<g>
															<g>
																<g>
																	<g>
																		<path style="fill:#FFFFFF;" d="M95.807,450.745c0.281,0.06,0.681-1.487-0.142-3.16
																			c-0.812-1.679-2.277-2.318-2.403-2.058c-0.17,0.257,0.783,1.144,1.438,2.528
																			C95.388,449.423,95.5,450.721,95.807,450.745z"/>
																	</g>
																</g>
															</g>
														</g>
													</g>
												</g>
											</g>
										</g>
									</g>
								</g>
							</g>
						</g>
					</g>
				</g>
				<g>
					<g>
						<g>
							<g>
								<g>
									<g>
										<g>
											<g>
												<g>
													<g>
														<g>
															<g>
																<g>
																	<g>
																		<path style="fill:#FFFFFF;" d="M106.401,432.44c0.135,0.279,1.54-0.173,3.285-0.088
																			c1.746,0.05,3.113,0.609,3.268,0.341c0.174-0.226-1.171-1.342-3.227-1.414
																			C107.673,431.192,106.246,432.201,106.401,432.44z"/>
																	</g>
																</g>
															</g>
														</g>
													</g>
												</g>
											</g>
										</g>
									</g>
								</g>
							</g>
						</g>
					</g>
				</g>
			</g>
		</g>
	</g>
	<g>
		<g>
			<path style="fill:#455A64;" d="M232.775,201.159l2.193,20.272l-25.446,51.049c0,0-15.051,5.008-20.377,10.491l12.19,0.531
				c17.479,0.761,34.405,6.843,48.372,17.74c6.022,4.698,10.876,9.778,11.776,14.394c2.652,13.605,6.706,11.507,6.706,11.507
				l15.428-19.854l10.808-21.482l21.69-84.139l-20.932-11.494l-4.7-6.839l-30.968,4.313l-6.171,6.094L232.775,201.159z"/>
		</g>
		<g>
			<path style="fill:#455A64;" d="M181.374,255.539l13.001-5.443l20.43-28.657c0,0,9.474-18.945,17.97-20.279
				c8.496-1.334,2.193,20.272,2.193,20.272l-13.099,37.198l-21.126,14.788l-14.571-1.266l-9.432-8.033L181.374,255.539z"/>
		</g>
		<g>
			<g>
				<path style="fill:#263238;" d="M234.807,208.212c0.016,0.007-0.061,0.237-0.223,0.668c-0.186,0.477-0.43,1.1-0.732,1.875
					c-0.666,1.681-1.591,4.017-2.725,6.879c-2.292,5.812-5.354,13.881-8.718,22.803c-3.365,8.925-6.485,16.979-8.865,22.76
					c-1.188,2.891-2.171,5.222-2.88,6.82c-0.34,0.759-0.613,1.369-0.823,1.837c-0.193,0.418-0.303,0.634-0.319,0.627
					c-0.017-0.007,0.061-0.237,0.223-0.668c0.186-0.477,0.43-1.1,0.732-1.874c0.666-1.68,1.591-4.016,2.725-6.879
					c2.291-5.812,5.355-13.882,8.72-22.807c3.364-8.922,6.483-16.975,8.864-22.756c1.188-2.891,2.171-5.222,2.88-6.82
					c0.34-0.76,0.613-1.37,0.823-1.838C234.681,208.421,234.791,208.205,234.807,208.212z"/>
			</g>
		</g>
		<g>
			<g>
				<path style="fill:#263238;" d="M260.319,207.371c-0.034,0.016-0.31-0.475-0.781-1.377c-0.504-0.995-1.159-2.288-1.947-3.843
					l0.342-0.002c-0.681,1.502-1.476,3.284-2.53,5.175c-1.055,1.883-2.398,3.888-4.244,5.595l-0.486,0.45l0.05-0.66
					c0.003-0.033,0.005-0.068,0.008-0.104c0.376-5.162,0.984-9.811,1.533-13.156c0.273-1.673,0.524-3.021,0.716-3.949
					c0.192-0.928,0.319-1.437,0.354-1.431c0.036,0.007-0.024,0.528-0.154,1.465c-0.143,1.033-0.329,2.367-0.551,3.969
					c-0.455,3.352-1.003,7.993-1.378,13.139c-0.003,0.035-0.005,0.071-0.008,0.104l-0.436-0.21c1.787-1.653,3.114-3.603,4.176-5.45
					c1.061-1.855,1.886-3.615,2.606-5.097l0.177-0.363l0.165,0.361c0.727,1.585,1.331,2.903,1.795,3.917
					C260.14,206.833,260.352,207.355,260.319,207.371z"/>
			</g>
		</g>
		<g>
			<g>
				<path style="fill:#263238;" d="M293.169,191.754c0.014,0.012-0.086,0.152-0.288,0.408c-0.245,0.299-0.542,0.663-0.902,1.103
					c-0.8,0.944-1.972,2.299-3.475,3.924c-2.993,3.26-7.309,7.607-12.408,12.043c-2.314,2.017-4.587,3.88-6.706,5.532l-0.386,0.301
					l-0.008-0.487c-0.065-3.828-0.788-7.124-1.555-9.572l0.248,0.093c-1.572,0.903-2.849,1.635-3.804,2.184
					c-0.892,0.5-1.383,0.757-1.399,0.729c-0.017-0.028,0.443-0.338,1.305-0.887c0.935-0.581,2.185-1.359,3.724-2.317l0.179-0.111
					l0.07,0.204c0.838,2.452,1.623,5.782,1.72,9.667l-0.394-0.186c2.1-1.665,4.358-3.531,6.665-5.542
					c5.083-4.423,9.426-8.714,12.481-11.903c1.534-1.59,2.746-2.904,3.591-3.806c0.389-0.414,0.711-0.757,0.975-1.038
					C293.03,191.859,293.156,191.742,293.169,191.754z"/>
			</g>
		</g>
	</g>
	<g>
		<g>
			<g>
				<g>
					<g>
						<g>
							<g>
								<g>
									<g>
										<g>
											<g>
												<g>
													<g>
														<g>
															<g>
																<path style="fill:#FFBF9D;" d="M291.293,185.989l2.106-43.007c1.338-13.465-5.383-25.468-18.881-26.432
																	l-1.252-0.017c-12.605-0.164-23.227,9.375-24.403,21.926c-1.095,11.678-2.155,24.594-2.159,30.867
																	c-0.008,12.985,12.951,15.173,12.951,15.173c0.029,0.002-0.348,7.885-0.562,11.69l0,0l2.717,9.904L291.293,185.989z
																	"/>
															</g>
														</g>
													</g>
												</g>
											</g>
										</g>
									</g>
								</g>
							</g>
						</g>
						<g>
							<g>
								<g>
									<g>
										<g>
											<g>
												<g>
													<g>
														<g>
															<g>
																<g>
																	<path style="fill:#FF9A6C;" d="M259.679,184.533c0,0,8.177,0.587,16.97-4.778c0,0-4.194,9.708-17.134,8.37
																		L259.679,184.533z"/>
																</g>
															</g>
														</g>
													</g>
												</g>
											</g>
										</g>
									</g>
								</g>
							</g>
						</g>
						<g>
							<g>
								<g>
									<g>
										<g>
											<g>
												<g>
													<g>
														<g>
															<g>
																<g>
																	<g>
																		<g>
																			<g>
																				<g>
																					<g>
																						<g>
																							<path style="fill:#263238;" d="M252.732,150.325c-0.048,0.979,0.742,1.826,1.763,1.894
																								c1.019,0.068,1.886-0.668,1.933-1.647c0.048-0.979-0.742-1.827-1.761-1.895
																								C253.646,148.609,252.779,149.346,252.732,150.325z"/>
																						</g>
																					</g>
																				</g>
																			</g>
																		</g>
																	</g>
																</g>
															</g>
														</g>
													</g>
												</g>
											</g>
										</g>
									</g>
								</g>
							</g>
						</g>
						<g>
							<g>
								<g>
									<g>
										<g>
											<g>
												<g>
													<g>
														<g>
															<g>
																<g>
																	<g>
																		<g>
																			<g>
																				<g>
																					<g>
																						<g>
																							<g>
																								<path style="fill:#263238;" d="M251.573,143.784c0.227,0.245,1.645-0.777,3.64-0.745
																									c1.993,0.002,3.444,1.048,3.664,0.806c0.108-0.106-0.121-0.546-0.752-1.019
																									c-0.622-0.47-1.686-0.934-2.929-0.945c-1.243-0.009-2.294,0.434-2.901,0.895
																									C251.674,143.24,251.46,143.675,251.573,143.784z"/>
																							</g>
																						</g>
																					</g>
																				</g>
																			</g>
																		</g>
																	</g>
																</g>
															</g>
														</g>
													</g>
												</g>
											</g>
										</g>
									</g>
								</g>
							</g>
						</g>
						<g>
							<g>
								<g>
									<g>
										<g>
											<g>
												<g>
													<g>
														<g>
															<g>
																<g>
																	<g>
																		<g>
																			<g>
																				<g>
																					<g>
																						<g>
																							<path style="fill:#263238;" d="M270.133,150.709c-0.047,0.979,0.742,1.826,1.763,1.894
																								c1.019,0.068,1.886-0.668,1.933-1.647c0.047-0.979-0.743-1.826-1.762-1.895
																								C271.046,148.992,270.18,149.73,270.133,150.709z"/>
																						</g>
																					</g>
																				</g>
																			</g>
																		</g>
																	</g>
																</g>
															</g>
														</g>
													</g>
												</g>
											</g>
										</g>
									</g>
								</g>
							</g>
						</g>
						<g>
							<g>
								<g>
									<g>
										<g>
											<g>
												<g>
													<g>
														<g>
															<g>
																<g>
																	<g>
																		<g>
																			<g>
																				<g>
																					<g>
																						<g>
																							<g>
																								<path style="fill:#263238;" d="M271.124,144.501c0.227,0.245,1.647-0.776,3.641-0.745
																									c1.993,0.003,3.444,1.048,3.664,0.806c0.107-0.107-0.119-0.546-0.753-1.018
																									c-0.621-0.471-1.686-0.934-2.929-0.945c-1.243-0.009-2.294,0.435-2.902,0.895
																									C271.227,143.957,271.013,144.392,271.124,144.501z"/>
																							</g>
																						</g>
																					</g>
																				</g>
																			</g>
																		</g>
																	</g>
																</g>
															</g>
														</g>
													</g>
												</g>
											</g>
										</g>
									</g>
								</g>
							</g>
						</g>
						<g>
							<g>
								<g>
									<g>
										<g>
											<g>
												<g>
													<g>
														<g>
															<g>
																<g>
																	<g>
																		<g>
																			<g>
																				<g>
																					<g>
																						<g>
																							<path style="fill:#263238;" d="M263.767,159.739c0.011-0.114-1.227-0.344-3.233-0.627
																								c-0.509-0.059-0.99-0.166-1.071-0.515c-0.115-0.369,0.105-0.916,0.36-1.506
																								c0.495-1.227,1.013-2.512,1.557-3.86c2.164-5.496,3.738-10.018,3.516-10.104
																								c-0.223-0.085-2.157,4.301-4.321,9.797c-0.521,1.356-1.02,2.648-1.494,3.884
																								c-0.2,0.577-0.54,1.229-0.29,1.996c0.132,0.383,0.503,0.664,0.828,0.756
																								c0.326,0.104,0.612,0.113,0.864,0.132C262.504,159.827,263.758,159.852,263.767,159.739z"/>
																						</g>
																					</g>
																				</g>
																			</g>
																		</g>
																	</g>
																</g>
															</g>
														</g>
													</g>
												</g>
											</g>
										</g>
									</g>
								</g>
							</g>
						</g>
						<g>
							<g>
								<g>
									<g>
										<g>
											<g>
												<g>
													<g>
														<g>
															<g>
																<g>
																	<g>
																		<g>
																			<path style="fill:#263238;" d="M270.559,138.252c0.264,0.513,2.207,0.003,4.565-0.018
																				c2.358-0.067,4.318,0.37,4.563-0.152c0.107-0.249-0.284-0.713-1.109-1.136c-0.817-0.423-2.078-0.763-3.492-0.738
																				c-1.413,0.028-2.661,0.414-3.462,0.867C270.816,137.529,270.442,138.008,270.559,138.252z"/>
																		</g>
																	</g>
																</g>
															</g>
														</g>
													</g>
												</g>
											</g>
										</g>
									</g>
								</g>
							</g>
						</g>
						<g>
							<g>
								<g>
									<g>
										<g>
											<g>
												<g>
													<g>
														<g>
															<g>
																<g>
																	<g>
																		<g>
																			<path style="fill:#263238;" d="M251.557,137.917c0.402,0.465,2.039,0.04,3.993,0.072
																				c1.954-0.025,3.598,0.405,3.992-0.058c0.173-0.225-0.074-0.687-0.785-1.136c-0.7-0.447-1.882-0.83-3.224-0.833
																				c-1.343-0.002-2.517,0.376-3.209,0.821C251.62,137.23,251.381,137.691,251.557,137.917z"/>
																		</g>
																	</g>
																</g>
															</g>
														</g>
													</g>
												</g>
											</g>
										</g>
									</g>
								</g>
							</g>
						</g>
						<g>
							<g>
								<g>
									<g>
										<g>
											<g>
												<g>
													<g>
														<g>
															<path style="fill:#FFBF9D;" d="M292.238,152.137c0.222-0.093,8.955-2.523,8.556,6.35
																c-0.399,8.872-9.224,6.642-9.228,6.387C291.562,164.618,292.238,152.137,292.238,152.137z"/>
														</g>
													</g>
												</g>
											</g>
										</g>
									</g>
								</g>
							</g>
						</g>
						<g>
							<g>
								<g>
									<g>
										<g>
											<g>
												<g>
													<g>
														<g>
															<g>
																<path style="fill:#FF9A6C;" d="M294.427,161.634c0.04-0.027,0.15,0.115,0.406,0.247
																	c0.249,0.128,0.684,0.228,1.154,0.075c0.953-0.302,1.809-1.754,1.924-3.352c0.059-0.806-0.076-1.583-0.333-2.232
																	c-0.242-0.661-0.641-1.134-1.109-1.239c-0.465-0.13-0.811,0.138-0.931,0.383c-0.13,0.243-0.081,0.422-0.129,0.436
																	c-0.026,0.021-0.184-0.157-0.096-0.521c0.045-0.175,0.158-0.379,0.374-0.54c0.22-0.164,0.538-0.238,0.865-0.188
																	c0.682,0.078,1.27,0.735,1.553,1.448c0.321,0.718,0.491,1.591,0.424,2.497c-0.137,1.785-1.127,3.417-2.427,3.73
																	c-0.632,0.135-1.144-0.077-1.403-0.298C294.434,161.849,294.396,161.649,294.427,161.634z"/>
															</g>
														</g>
													</g>
												</g>
											</g>
										</g>
									</g>
								</g>
							</g>
						</g>
					</g>
					<g>
						<g>
							<g>
								<g>
									<g>
										<g>
											<g>
												<g>
													<path style="fill:#263238;" d="M231.622,125.375c0.163-0.516,0.562-0.93,1.04-1.185
														c1.042-0.557,2.21-0.427,3.342-0.396c2.818,0.076,5.641-0.525,8.206-1.69c-0.856-0.481-1.65-1.055-2.315-1.778
														c-1.373-1.493-2.103-3.719-1.364-5.607c0.139-0.354,0.364-0.722,0.733-0.819c0.584-0.152,1.064,0.435,1.447,0.902
														c1.258,1.533,2.452,2.22,4.431,2.105c1.23-0.071,2.427-0.295,3.416-0.853c0.04-0.038,0.076-0.081,0.117-0.119
														c0.482-0.456,0.952-0.892,1.415-1.313c0.001-0.002,0.002-0.003,0.003-0.004l-0.001,0.002
														c3.48-3.167,6.45-5.338,9.456-6.401c4.407-1.558,11.682-1.953,16.149-0.575c4.466,1.379,8.365,5.218,8.794,9.873
														c2.625-2.033,6.428-1.852,9.46-0.479l0.079-0.031c3.383,1.372,5.179,5.086,6.043,8.634
														c0.047,0.194,0.087,0.39,0.131,0.585c1.082,1.891,2.594,3.537,4.43,4.714c0.324,0.208,0.694,0.461,0.718,0.845
														c0.024,0.38-0.31,0.681-0.629,0.889c-0.849,0.555-1.825,0.901-2.83,1.036c0.278,0.846,0.612,1.671,1.035,2.463
														c0.36,0.673,0.787,1.48,0.419,2.149c-0.285,0.517-0.965,0.706-1.545,0.596c-0.58-0.111-1.083-0.456-1.568-0.793
														c0.344,0.934,0.688,1.868,1.031,2.802c-1.252,0.163-2.535,0.008-3.727-0.41c-0.871,3.245-1.68,9.29-2.619,11.475
														c-2.357-0.06-2.918-0.341-4.123,0.003c-1.558,0.444-1.089,3.189-3.055,2.33c-1.001-0.437-2.398-4.363-2.694-5.414
														c-1.965-6.978-2.398-14.38-1.273-21.541c-1.358-1.578-3.023-2.892-4.873-3.846l0.148,0.145
														c-3.574-1.416-7.624-2.832-11.14-1.276c-2.727,1.207-4.416,3.91-6.507,6.035c-3.964,4.028-8.342,6.081-13.993,6.081
														c-0.677,3.896-1.102,10.295-1.451,13.943l-2.807-7.451l-0.004,0.03c-0.234-0.439-0.423-0.881-0.606-1.322l-0.064-0.134
														l0.001-0.017c-0.29-0.709-0.564-1.418-0.939-2.124c-0.012,0.01-0.024,0.02-0.036,0.03
														c-2.056,1.662-4.859-1.134-3.206-3.197c0.328-0.409,0.715-0.77,1.152-1.062c-0.942,0.811-2.309,1.16-3.48,0.744
														c-1.171-0.416-2.041-1.656-1.884-2.889c0.107-0.842,0.743-1.571,1.52-1.872c-1.605,0.055-3.226-0.364-4.587-1.22
														C232.123,127.409,231.263,126.512,231.622,125.375z"/>
												</g>
											</g>
										</g>
									</g>
								</g>
							</g>
						</g>
						<g>
							<g>
								<g>
									<g>
										<g>
											<g>
												<g>
													<path style="fill:#455A64;" d="M282.339,118.833c-0.027,0.032,0.529,0.367,1.252,1.247
														c0.715,0.876,1.495,2.381,1.808,4.397c0.161,1.002,0.242,2.119,0.19,3.314c-0.046,1.196-0.197,2.473-0.347,3.818
														c-0.145,1.346-0.303,2.768-0.28,4.255c0.012,0.742,0.068,1.499,0.197,2.259c0.132,0.747,0.291,1.558,0.823,2.218
														c0.423,0.538,1.157,0.799,1.806,0.695c0.654-0.087,1.246-0.408,1.689-0.861c0.878-0.939,1.139-2.167,1.393-3.248
														l-0.274,0.021c0.403,0.999,0.819,1.986,1.463,2.788c0.633,0.806,1.533,1.36,2.468,1.484
														c0.465,0.062,0.939,0.008,1.349-0.177c0.418-0.181,0.73-0.508,0.949-0.857c0.21-0.356,0.328-0.752,0.325-1.139
														c-0.005-0.386-0.14-0.758-0.374-1.028l-0.143,0.117c0.953,1.184,1.983,1.842,2.7,2.213
														c0.362,0.186,0.653,0.3,0.85,0.373c0.199,0.068,0.303,0.098,0.307,0.09c0.003-0.009-0.096-0.054-0.287-0.138
														c-0.19-0.088-0.472-0.216-0.822-0.413c-0.694-0.393-1.69-1.066-2.601-2.239l-0.143,0.117
														c0.417,0.482,0.407,1.296,0.004,1.933c-0.203,0.314-0.489,0.605-0.857,0.758c-0.365,0.16-0.797,0.207-1.222,0.146
														c-0.857-0.122-1.697-0.642-2.289-1.408c-0.607-0.766-1.009-1.727-1.407-2.727l-0.169-0.424l-0.105,0.446
														c-0.254,1.08-0.527,2.257-1.327,3.103c-0.396,0.406-0.939,0.695-1.511,0.77c-0.574,0.086-1.166-0.128-1.536-0.589
														c-0.465-0.571-0.631-1.34-0.759-2.075c-0.126-0.741-0.183-1.483-0.197-2.213c-0.026-1.462,0.124-2.875,0.261-4.22
														c0.142-1.345,0.284-2.628,0.32-3.84c0.041-1.211-0.053-2.344-0.23-3.36c-0.345-2.043-1.172-3.568-1.929-4.436
														C282.918,119.132,282.339,118.833,282.339,118.833z"/>
												</g>
											</g>
										</g>
									</g>
								</g>
							</g>
						</g>
						<g>
							<g>
								<g>
									<g>
										<g>
											<g>
												<g>
													<path style="fill:#455A64;" d="M241.623,129.743c-0.003,0.004,0.031,0.035,0.101,0.093
														c0.085,0.068,0.188,0.15,0.314,0.25c0.137,0.112,0.312,0.244,0.535,0.376c0.219,0.138,0.467,0.306,0.772,0.45
														c1.181,0.625,3.091,1.277,5.516,1.239c2.401-0.032,5.313-0.757,7.962-2.557c2.675-1.754,5.07-4.405,7.067-7.472
														c1.012-1.532,1.851-3.111,2.763-4.563c0.907-1.454,1.897-2.791,3.072-3.829c1.161-1.045,2.49-1.797,3.839-2.111
														c0.673-0.169,1.345-0.185,1.983-0.143c0.639,0.061,1.24,0.217,1.792,0.424c1.103,0.424,1.98,1.081,2.638,1.747
														c0.66,0.671,1.092,1.369,1.384,1.964c0.539,1.219,0.539,1.987,0.586,1.976c0.006,0,0.004-0.047-0.004-0.137
														c-0.012-0.109-0.027-0.24-0.044-0.4c-0.049-0.351-0.177-0.861-0.43-1.488c-0.28-0.613-0.706-1.335-1.369-2.033
														c-0.661-0.692-1.549-1.379-2.681-1.828c-0.566-0.221-1.186-0.388-1.848-0.458c-0.66-0.051-1.366-0.039-2.062,0.131
														c-1.402,0.314-2.776,1.083-3.969,2.147c-1.208,1.058-2.221,2.417-3.138,3.88c-0.923,1.462-1.763,3.038-2.766,4.555
														c-1.982,3.044-4.342,5.665-6.967,7.404c-2.601,1.786-5.445,2.515-7.811,2.576c-2.385,0.065-4.274-0.544-5.458-1.13
														C242.205,130.213,241.648,129.708,241.623,129.743z"/>
												</g>
											</g>
										</g>
									</g>
								</g>
							</g>
						</g>
						<g>
							<g>
								<g>
									<g>
										<g>
											<g>
												<g>
													<path style="fill:#455A64;" d="M240.686,123.986c-0.012,0.018,0.149,0.139,0.451,0.344
														c0.299,0.211,0.76,0.475,1.35,0.76c0.587,0.29,1.319,0.569,2.153,0.811c0.837,0.227,1.777,0.41,2.776,0.49
														c1,0.069,1.957,0.029,2.819-0.07c0.86-0.116,1.625-0.281,2.25-0.48c0.625-0.194,1.12-0.386,1.447-0.55
														c0.33-0.158,0.507-0.254,0.498-0.273c-0.023-0.053-0.756,0.286-2.004,0.616c-0.622,0.17-1.378,0.311-2.223,0.409
														c-0.847,0.082-1.784,0.113-2.764,0.045c-0.979-0.079-1.901-0.249-2.726-0.457c-0.821-0.223-1.548-0.476-2.137-0.736
														C241.391,124.382,240.717,123.938,240.686,123.986z"/>
												</g>
											</g>
										</g>
									</g>
								</g>
							</g>
						</g>
					</g>
				</g>
			</g>
		</g>
		<g>
			<g>
				<g>
					<g>
						<g>
							<g>
								<g>
									<g>
										<g>
											<g>
												<g>
													<g>
														<g>
															<g>
																<path style="fill:#263238;" d="M263.624,165.809c0.121-0.315,2.17,0.607,4.416-0.489
																	c2.249-1.091,3.007-3.378,3.3-3.264c0.141,0.03,0.178,0.666-0.213,1.599c-0.378,0.918-1.265,2.107-2.639,2.777
																	c-1.375,0.666-2.772,0.588-3.644,0.278C263.953,166.402,263.549,165.944,263.624,165.809z"/>
															</g>
														</g>
													</g>
												</g>
											</g>
										</g>
									</g>
								</g>
							</g>
						</g>
					</g>
				</g>
			</g>
		</g>
	</g>
	<g>
		<path style="fill:#FF725E;" d="M245.674,356.118c0-0.63,6.954-45.787,9.64-51.546c2.129-4.564,19.19-8.125,37.466-15.5
			c19.676-7.939,42.489-8.491,42.489-8.491l-28.878,66.661L245.674,356.118z"/>
	</g>
	<g>
		<g>
			<polygon style="fill:#FFBF9D;" points="255.899,260.349 239.234,261.586 239.234,277.53 258.067,279.778 			"/>
		</g>
		<g>
			<g>
				<path style="fill:#455A64;" d="M308.749,197.876c8.226,3.387,15.861,10.685,15.363,20.143
					c-0.739,14.022-4.028,44.109-4.791,51.863c-0.995,10.116-4.422,18.643-19.309,19.202c-14.887,0.559-36.803-3.058-36.803-3.058
					s-7.891,3.993-10.066-0.398c-0.577-1.165-4.492-24.739-4.492-24.739c0-0.314,1.931-2.556,4.692-3.939
					c3.128-1.566,6.94-0.368,8.669,2.674l0,0l29.031-0.948l5.751-27.306"/>
			</g>
			<g>
				<g>
					<path style="fill:#263238;" d="M296.794,231.368c0,0-0.018,0.161-0.076,0.473c-0.064,0.328-0.153,0.787-0.269,1.385
						c-0.251,1.237-0.615,3.036-1.087,5.366c-0.972,4.699-2.384,11.526-4.16,20.115l-0.026,0.124l-0.127,0.004
						c-5.954,0.207-12.807,0.444-20.396,0.708c-1.898,0.065-3.842,0.131-5.83,0.199c-0.497,0.017-0.997,0.034-1.499,0.051
						l-0.756,0.026l-0.379,0.013l-0.095,0.003l-0.048,0.002l-0.024,0.001c0.038,0.026-0.375-0.211-0.203-0.116l-0.006-0.01
						l-0.099-0.155c-0.517-0.833-1.218-1.574-2.076-2.095c-1.693-1.067-3.96-1.308-5.867-0.453
						c-0.956,0.422-1.867,1.015-2.713,1.677c-0.424,0.333-0.833,0.691-1.218,1.072c-0.19,0.192-0.379,0.388-0.553,0.593
						c-0.089,0.102-0.17,0.206-0.25,0.311c-0.066,0.078-0.162,0.273-0.152,0.225l-0.003-0.038
						c0.922,5.478,1.901,11.237,2.977,17.202c0.279,1.489,0.559,2.991,0.843,4.506c0.152,0.753,0.298,1.516,0.477,2.262
						c0.091,0.392,0.154,0.695,0.39,1c0.108,0.145,0.177,0.323,0.314,0.442l0.396,0.371c1.175,0.891,2.836,0.912,4.344,0.643
						c1.532-0.261,3.047-0.808,4.47-1.479l0.078-0.037l0.08,0.013c5.9,0.932,12.131,1.721,18.484,2.32
						c4.398,0.404,8.754,0.693,13.051,0.768c4.285,0.051,8.566,0.024,12.523-1.186c1.963-0.622,3.803-1.554,5.371-2.81
						c1.566-1.257,2.838-2.845,3.733-4.607c1.796-3.546,2.406-7.477,2.757-11.268c1.589-15.241,3.032-28.961,4.011-40.505
						c0.247-2.885,0.46-5.635,0.633-8.237c0.09-1.303,0.168-2.567,0.143-3.781c-0.023-0.607-0.113-1.202-0.165-1.789
						c-0.105-0.579-0.235-1.145-0.349-1.704c-0.586-2.209-1.575-4.13-2.7-5.731c-1.126-1.606-2.369-2.911-3.552-4.006
						c-2.418-2.145-4.608-3.42-6.109-4.213c-0.748-0.408-1.343-0.67-1.739-0.854c-0.396-0.185-0.594-0.292-0.594-0.292
						s0.212,0.074,0.615,0.244c0.404,0.168,1.007,0.415,1.765,0.81c1.521,0.766,3.738,2.018,6.196,4.155
						c1.203,1.092,2.469,2.398,3.62,4.015c1.151,1.611,2.168,3.554,2.778,5.798c0.12,0.568,0.255,1.143,0.365,1.733
						c0.056,0.598,0.151,1.203,0.178,1.822c0.033,1.246-0.04,2.512-0.124,3.814c-0.16,2.606-0.361,5.359-0.596,8.247
						c-0.933,11.552-2.339,25.282-3.901,40.522c-0.348,3.802-0.952,7.8-2.793,11.449c-0.918,1.815-2.235,3.466-3.856,4.77
						c-1.624,1.303-3.525,2.266-5.536,2.905c-4.056,1.242-8.391,1.266-12.684,1.217c-4.315-0.074-8.683-0.363-13.09-0.768
						c-6.368-0.6-12.602-1.392-18.52-2.33l0.158-0.024c-1.485,0.698-3.013,1.249-4.617,1.523c-1.563,0.271-3.362,0.29-4.744-0.748
						l-0.46-0.433c-0.156-0.142-0.241-0.34-0.363-0.508c-0.255-0.314-0.376-0.79-0.454-1.153c-0.183-0.766-0.327-1.526-0.479-2.284
						c-0.282-1.518-0.562-3.023-0.839-4.514c-1.069-5.97-2.039-11.731-2.95-17.213l-0.005-0.03l0.002-0.009
						c0.066-0.325,0.16-0.349,0.244-0.502c0.089-0.116,0.178-0.231,0.272-0.338c0.185-0.218,0.382-0.421,0.58-0.62
						c0.4-0.395,0.822-0.762,1.26-1.105c0.879-0.683,1.804-1.285,2.819-1.732c2.05-0.912,4.477-0.648,6.282,0.497
						c0.914,0.561,1.662,1.354,2.211,2.244l0.105,0.166l0.007,0.01c0.177,0.1-0.234-0.124-0.187-0.102l0.024-0.001l0.047-0.001
						l0.095-0.003l0.379-0.012l0.755-0.024c0.502-0.016,1.002-0.031,1.499-0.047c1.988-0.062,3.932-0.122,5.83-0.181
						c7.59-0.232,14.444-0.442,20.399-0.624l-0.153,0.128c1.839-8.576,3.3-15.393,4.306-20.084c0.508-2.323,0.9-4.116,1.17-5.349
						c0.135-0.594,0.238-1.05,0.313-1.376C296.745,231.523,296.794,231.368,296.794,231.368z"/>
				</g>
			</g>
		</g>
		<g>
			<g>
				<path style="fill:#263238;" d="M306.996,200.161c0.063,0.065-1.026,1.096-2.499,3c-0.722,0.962-1.551,2.129-2.361,3.495
					c-0.802,1.37-1.598,2.926-2.31,4.614c-1.406,3.39-2.174,6.642-2.558,9.017c-0.395,2.376-0.475,3.873-0.576,3.867
					c-0.036-0.002-0.041-0.377-0.019-1.055c0.005-0.68,0.089-1.658,0.231-2.865c0.294-2.409,1.015-5.724,2.441-9.164
					c0.723-1.713,1.544-3.286,2.38-4.662c0.845-1.372,1.717-2.534,2.484-3.477c0.787-0.929,1.471-1.637,1.968-2.101
					C306.682,200.373,306.972,200.135,306.996,200.161z"/>
			</g>
		</g>
		<g>
			<g>
				<path style="fill:#263238;" d="M303.553,270.881c-0.093,0.021-0.311-0.998-0.983-2.51c-0.664-1.511-1.879-3.482-3.704-5.223
					c-1.834-1.733-3.866-2.843-5.41-3.427c-1.546-0.592-2.574-0.756-2.558-0.85c0.005-0.035,0.265-0.019,0.734,0.042
					c0.47,0.05,1.141,0.204,1.947,0.462c0.811,0.251,1.74,0.662,2.719,1.213c0.967,0.571,1.977,1.295,2.926,2.184
					c0.936,0.9,1.712,1.871,2.333,2.807c0.601,0.95,1.06,1.856,1.353,2.652c0.3,0.792,0.488,1.454,0.563,1.921
					C303.559,270.615,303.589,270.874,303.553,270.881z"/>
			</g>
		</g>
		<g>
			<g>
				<path style="fill:#263238;" d="M263.438,285.189c-0.083-0.025,0.319-1.431,0.647-3.765c0.345-2.328,0.6-5.583,0.516-9.172
					c-0.045-1.796-0.204-3.498-0.404-5.039c-0.242-1.532-0.503-2.91-0.851-4.029c-0.646-2.259-1.425-3.511-1.335-3.562
					c0.031-0.019,0.232,0.286,0.573,0.861c0.185,0.281,0.346,0.655,0.537,1.089c0.207,0.429,0.397,0.933,0.576,1.502
					c0.399,1.126,0.702,2.517,0.974,4.068c0.228,1.557,0.404,3.281,0.45,5.096c0.085,3.628-0.231,6.911-0.673,9.246
					c-0.213,1.169-0.452,2.103-0.643,2.739C263.601,284.856,263.473,285.2,263.438,285.189z"/>
			</g>
		</g>
		<g>
			<g>
				<path style="fill:#FAFAFA;" d="M150.247,225.067c0,0,1.136-2.706,3.382-3.267c0,0,11.159,2.967,14.416,6.561
					c0,0,0.65-2.542,6.646-7.643c7.5-6.381,15.868-6.381,15.868-6.381l5.934,3.728l-23.776,16.65l-7.07,2.471L150.247,225.067z"/>
			</g>
			<g>
				<g>
					<path style="fill:#263238;" d="M150.247,225.067c0.01-0.003,0.112,0.068,0.302,0.207c0.212,0.159,0.485,0.364,0.828,0.622
						c0.745,0.571,1.791,1.372,3.121,2.391c2.702,2.096,6.551,5.082,11.271,8.743L165.581,237c2.161-0.764,4.543-1.605,7.062-2.495
						l-0.054,0.028c6.8-4.775,14.863-10.437,23.484-16.491l0.271-0.189l0.011,0.434c-2.015-1.267-3.999-2.515-5.932-3.73l0.137,0.04
						c-5.134,0.258-9.926,2.151-13.684,4.757c-1.876,1.319-3.544,2.814-5.048,4.309c-0.753,0.748-1.447,1.52-2.074,2.306
						c-0.612,0.78-1.204,1.619-1.512,2.444l-0.12,0.321l-0.227-0.235c-1.167-1.208-2.619-2.016-3.97-2.718
						c-1.366-0.695-2.697-1.254-3.945-1.736c-2.496-0.966-4.661-1.645-6.378-2.141l0.053,0c-1.5,0.414-2.285,1.481-2.753,2.11
						c-0.235,0.333-0.392,0.601-0.494,0.783C150.305,224.979,150.257,225.067,150.247,225.067c-0.01,0,0.025-0.109,0.111-0.298
						c0.087-0.191,0.229-0.471,0.453-0.819c0.449-0.655,1.207-1.776,2.792-2.253l0.024-0.007l0.029,0.008
						c1.736,0.462,3.915,1.108,6.436,2.048c1.261,0.469,2.606,1.017,3.995,1.707c1.377,0.702,2.853,1.495,4.107,2.771l-0.346,0.086
						c0.358-0.987,0.943-1.784,1.569-2.606c0.635-0.808,1.335-1.595,2.092-2.356c1.515-1.521,3.18-3.031,5.092-4.388
						c3.831-2.669,8.655-4.607,13.957-4.881l0.069-0.004l0.069,0.043c1.934,1.214,3.919,2.46,5.935,3.726l0.332,0.209l-0.322,0.225
						l-0.271,0.19c-8.637,6.032-16.715,11.673-23.527,16.43l-0.026,0.018l-0.029,0.01c-2.525,0.873-4.912,1.698-7.078,2.447
						l-0.104,0.036l-0.084-0.067c-4.702-3.753-8.536-6.814-11.228-8.963c-1.29-1.043-2.306-1.864-3.029-2.449
						c-0.321-0.265-0.577-0.476-0.775-0.64C150.321,225.145,150.238,225.07,150.247,225.067z"/>
				</g>
			</g>
		</g>
		<g>
			<path style="fill:#FF725E;" d="M146.329,224.608l0.674-1.348l16.734,9.322c0,0,5.503-0.337,5.615-4.043
				c0,0,27.403-11.455,28.077-11.118c0.674,0.337,44.586,36.837,44.586,36.837l-39.645,8.452l-18.419-8.115L146.329,224.608z"/>
		</g>
		<g>
			<g>
				<path style="fill:#263238;" d="M197.3,260.475c-0.092,0.111-7.68-6.044-16.947-13.746c-9.27-7.704-16.708-14.037-16.616-14.148
					c0.092-0.111,7.679,6.043,16.949,13.747C189.953,254.03,197.392,260.365,197.3,260.475z"/>
			</g>
		</g>
		<g>
			<g>
				<path style="fill:#263238;" d="M207.956,261.333c-0.093,0.109-8.733-7.1-19.295-16.1c-10.566-9.004-19.052-16.389-18.959-16.498
					c0.093-0.109,8.731,7.098,19.297,16.102C199.561,253.836,208.05,261.223,207.956,261.333z"/>
			</g>
		</g>
		<g>
			<path style="fill:#FFBF9D;" d="M169.582,240.061c-0.116-0.004-3.85-0.358-4.747,1.269c-0.896,1.626-0.996,2.523-0.631,3.485
				c0.365,0.963,2.158,3.02,2.158,3.02l0.598,1.129c0,0-1.195,2.423-0.598,4.415c0.598,1.992,2.423,3.187,2.423,3.187
				s0.299,4.879,3.253,4.912c0,0,0.763,2.755,3.485,2.689c2.722-0.066,4.083,0.631,7.103-0.929c3.021-1.56,6.52-3.12,7.293-4.68
				c0.773-1.56-1.918-1.726-1.918-1.726s1.464-4.016-3.25-3.485c0,0,0.531-4.149-2.49-4.647s-9.161-0.133-9.161-0.133l-2.423-2.921
				c0,0,1.759-0.498,1.859-2.058C172.635,242.027,170.981,240.111,169.582,240.061z"/>
		</g>
		<g>
			<path style="fill:#FFBF9D;" d="M231.192,255.912c-0.302,0.101-3.933,1.714-6.353,1.412c-2.42-0.302-21.177-10.589-23.9-11.395
				c-2.723-0.807-7.362,0-4.034,3.53s13.614,9.278,13.816,9.58c0.202,0.303,0.605,1.952,0.605,1.952l-10.488-3.969
				c0,0-7.664-3.832-8.874-1.513c-1.21,2.319,0.605,3.63,2.521,4.236c1.916,0.605,4.034,1.246,4.034,1.246s2.219,4.099,4.437,5.712
				c2.219,1.614,12.303,8.068,14.018,8.774c1.714,0.706,22.388,2.319,22.791,2.017c0.403-0.303,0-15.429,0-15.429l-7.261-6.555
				L231.192,255.912z"/>
		</g>
	</g>
</g>
</svg>
