<?xml version="1.0" encoding="utf-8"?>
<!-- Generator: Adobe Illustrator 27.5.0, SVG Export Plug-In . SVG Version: 6.00 Build 0)  -->
<svg version="1.1" xmlns="http://www.w3.org/2000/svg" xmlns:xlink="http://www.w3.org/1999/xlink" x="0px" y="0px"
	 viewBox="0 0 500 500" style="enable-background:new 0 0 500 500;" xml:space="preserve">
<g id="Background_Complete">
	<g>
		<g>
			<g>
				<path style="fill:#EBEBEB;" d="M43.284,158.462c2.249-2.629,4.815-4.907,7.612-6.805l-1.08-9.406l14.781-5.18l5.028,8.021
					c3.37-0.263,6.797-0.086,10.195,0.564l5.884-7.411l14.115,6.79l-2.116,9.222c2.63,2.25,4.908,4.817,6.805,7.614l9.405-1.08
					l5.18,14.781l-8.021,5.028c0.263,3.369,0.085,6.796-0.564,10.194l7.411,5.885l-6.788,14.115l-9.223-2.116
					c-2.249,2.629-4.816,4.907-7.613,6.805l1.08,9.406l-14.781,5.18l-5.028-8.022c-3.369,0.263-6.796,0.085-10.194-0.564
					l-5.884,7.411l-14.115-6.789l2.116-9.222c-2.629-2.25-4.908-4.816-6.806-7.613l-9.405,1.08l-5.18-14.781l8.021-5.029
					c-0.263-3.369-0.084-6.796,0.564-10.194l-7.411-5.885l6.788-14.115L43.284,158.462L43.284,158.462z M53.554,174.412
					c-5.058,10.516-0.633,23.141,9.883,28.199c10.516,5.058,23.141,0.633,28.198-9.883c5.057-10.516,0.634-23.141-9.883-28.198
					C71.237,159.472,58.612,163.896,53.554,174.412z"/>
			</g>
		</g>
	</g>
	<g>
		<g>
			<g>
				<path style="fill:#E0E0E0;" d="M401.09,304.523c2.217-2.591,4.746-4.836,7.502-6.707l-1.065-9.27l14.569-5.105l4.955,7.906
					c3.321-0.259,6.699-0.085,10.049,0.556l5.8-7.305l13.912,6.692l-2.086,9.089c2.592,2.217,4.837,4.748,6.707,7.505l9.269-1.065
					l5.106,14.568l-7.906,4.956c0.259,3.32,0.084,6.698-0.556,10.048l7.304,5.801l-6.69,13.911l-9.09-2.086
					c-2.217,2.591-4.747,4.836-7.504,6.707l1.064,9.271l-14.568,5.105l-4.956-7.906c-3.321,0.259-6.699,0.084-10.048-0.556
					l-5.8,7.305l-13.912-6.692l2.086-9.09c-2.591-2.217-4.837-4.746-6.708-7.504l-9.27,1.065l-5.105-14.568l7.906-4.957
					c-0.259-3.32-0.083-6.698,0.556-10.047l-7.304-5.8l6.691-13.912L401.09,304.523L401.09,304.523z M411.213,320.244
					c-4.985,10.365-0.624,22.808,9.741,27.793c10.365,4.985,22.808,0.624,27.792-9.741c4.984-10.364,0.624-22.808-9.741-27.793
					C428.641,305.519,416.198,309.88,411.213,320.244z"/>
			</g>
		</g>
	</g>
	<g>
		<g>
			<g>
				<path style="fill:#EBEBEB;" d="M393.019,164.745c1.714-2.004,3.671-3.741,5.802-5.188l-0.823-7.17l11.268-3.949l3.833,6.115
					c2.569-0.201,5.181-0.065,7.772,0.43l4.486-5.65l10.76,5.176l-1.613,7.03c2.005,1.715,3.741,3.672,5.188,5.804l7.169-0.823
					l3.949,11.267l-6.115,3.833c0.2,2.568,0.065,5.18-0.43,7.771l5.649,4.486l-5.175,10.759l-7.031-1.613
					c-1.715,2.004-3.672,3.741-5.804,5.187l0.823,7.17l-11.267,3.949l-3.833-6.115c-2.568,0.2-5.181,0.065-7.771-0.43l-4.486,5.65
					l-10.76-5.175l1.613-7.03c-2.004-1.715-3.741-3.671-5.188-5.803l-7.169,0.823l-3.949-11.267l6.115-3.834
					c-0.2-2.568-0.064-5.181,0.43-7.771l-5.649-4.486l5.175-10.76L393.019,164.745L393.019,164.745z M400.849,176.903
					c-3.856,8.017-0.483,17.64,7.534,21.496c8.016,3.855,17.64,0.482,21.495-7.534c3.855-8.016,0.483-17.64-7.534-21.495
					C414.328,165.515,404.704,168.887,400.849,176.903z"/>
			</g>
		</g>
	</g>
	<g>
		<g>
			<g>
				<path style="fill:#F5F5F5;" d="M364.592,112.657c1.152-1.347,2.467-2.514,3.899-3.486l-0.553-4.818l7.572-2.654l2.576,4.109
					c1.726-0.135,3.482-0.044,5.223,0.289l3.015-3.797l7.231,3.478l-1.084,4.724c1.347,1.153,2.514,2.468,3.486,3.901l4.818-0.553
					l2.654,7.572l-4.109,2.576c0.135,1.726,0.044,3.481-0.289,5.222l3.796,3.015l-3.478,7.231l-4.725-1.084
					c-1.152,1.347-2.467,2.514-3.9,3.486l0.553,4.818l-7.572,2.654l-2.576-4.109c-1.726,0.135-3.482,0.044-5.223-0.289l-3.015,3.797
					l-7.231-3.478l1.084-4.724c-1.347-1.152-2.514-2.467-3.486-3.9l-4.818,0.553l-2.654-7.572l4.109-2.576
					c-0.135-1.726-0.043-3.482,0.289-5.222l-3.797-3.015l3.478-7.231L364.592,112.657L364.592,112.657z M369.854,120.828
					c-2.591,5.387-0.324,11.855,5.063,14.446c5.387,2.591,11.855,0.324,14.445-5.063c2.591-5.387,0.324-11.855-5.063-14.446
					C378.912,113.174,372.445,115.441,369.854,120.828z"/>
			</g>
		</g>
	</g>
	<g>
		<g>
			<g>
				<path style="fill:#F5F5F5;" d="M101.265,375.069c1.152-1.347,2.467-2.514,3.899-3.486l-0.553-4.818l7.572-2.654l2.576,4.109
					c1.726-0.135,3.482-0.044,5.223,0.289l3.015-3.797l7.231,3.478l-1.084,4.724c1.347,1.152,2.514,2.468,3.486,3.901l4.818-0.553
					l2.654,7.572l-4.109,2.576c0.135,1.726,0.044,3.481-0.289,5.222l3.796,3.015l-3.477,7.231l-4.725-1.084
					c-1.152,1.347-2.467,2.514-3.9,3.486l0.553,4.819l-7.572,2.654l-2.576-4.109c-1.726,0.135-3.482,0.044-5.223-0.289l-3.015,3.797
					l-7.231-3.478l1.084-4.724c-1.347-1.152-2.514-2.467-3.487-3.9l-4.818,0.553l-2.653-7.572l4.109-2.576
					c-0.135-1.726-0.043-3.482,0.289-5.222l-3.797-3.015l3.478-7.231L101.265,375.069L101.265,375.069z M106.526,383.24
					c-2.591,5.388-0.325,11.855,5.063,14.446c5.387,2.591,11.855,0.324,14.446-5.063c2.591-5.387,0.325-11.855-5.063-14.446
					C115.585,375.587,109.117,377.853,106.526,383.24z"/>
			</g>
		</g>
	</g>
	<g>
		<g>
			<g>
				<path style="fill:#EBEBEB;" d="M158.582,401.371c1.735-2.028,3.714-3.785,5.871-5.249l-0.833-7.255l11.401-3.995l3.878,6.187
					c2.599-0.203,5.243-0.066,7.864,0.435l4.539-5.717l10.887,5.237l-1.632,7.113c2.028,1.735,3.786,3.716,5.249,5.873l7.254-0.833
					l3.996,11.401l-6.187,3.879c0.203,2.599,0.066,5.242-0.435,7.863l5.716,4.54l-5.236,10.887l-7.114-1.632
					c-1.735,2.028-3.715,3.785-5.872,5.249l0.833,7.255l-11.401,3.995l-3.879-6.188c-2.599,0.203-5.242,0.066-7.863-0.435
					l-4.539,5.717l-10.887-5.237l1.632-7.113c-2.028-1.735-3.786-3.715-5.25-5.872l-7.254,0.833l-3.995-11.401l6.187-3.879
					c-0.203-2.599-0.065-5.242,0.435-7.863l-5.716-4.539l5.236-10.887L158.582,401.371L158.582,401.371z M166.504,413.674
					c-3.901,8.112-0.489,17.849,7.623,21.751c8.111,3.901,17.849,0.488,21.75-7.623c3.901-8.111,0.489-17.85-7.623-21.75
					C180.143,402.15,170.405,405.563,166.504,413.674z"/>
			</g>
		</g>
	</g>
	<g>
		<path style="fill:#E0E0E0;" d="M87.053,244.932c0.005,0.017-0.238,0.094-0.705,0.224c-0.469,0.119-1.152,0.337-2.054,0.52
			c-1.792,0.418-4.426,0.88-7.714,1.128c-6.539,0.528-15.883-0.168-25.233-4.04c-9.354-3.87-16.457-9.983-20.71-14.978
			c-2.15-2.499-3.687-4.687-4.66-6.249c-0.508-0.767-0.838-1.404-1.085-1.82c-0.238-0.422-0.356-0.647-0.34-0.656
			c0.016-0.009,0.163,0.199,0.43,0.602c0.276,0.397,0.632,1.015,1.165,1.763c1.021,1.523,2.595,3.666,4.767,6.117
			c4.297,4.901,11.369,10.907,20.632,14.74c9.258,3.834,18.505,4.583,25.009,4.153c3.269-0.2,5.898-0.603,7.696-0.959
			c0.905-0.152,1.594-0.337,2.07-0.424C86.797,244.957,87.049,244.915,87.053,244.932z"/>
	</g>
	<g>
		<path style="fill:#E0E0E0;" d="M67.306,252.207c-0.002,0.036-0.384,0.046-1.075,0.032c-0.691-0.007-1.69-0.074-2.92-0.205
			c-2.459-0.258-5.841-0.874-9.437-2.045c-3.595-1.179-6.689-2.68-8.825-3.923c-1.07-0.62-1.915-1.157-2.477-1.559
			c-0.566-0.397-0.868-0.63-0.849-0.66c0.048-0.073,1.334,0.747,3.504,1.897c2.167,1.153,5.251,2.584,8.809,3.751
			c3.56,1.159,6.893,1.825,9.322,2.174C65.788,252.022,67.311,252.12,67.306,252.207z"/>
	</g>
</g>
<g id="Background_Simple" style="display:none;">
	<path style="display:inline;fill:#EBEBEB;" d="M471.144,350.184l-1.011-1.666c-8.524-14.046-23.935-22.514-40.183-21.486
		c-2.089,0.132-4.168,0.415-6.22,0.854c-14.773,3.162-27.627,14.334-32.955,28.641c-3.134,8.415-4.009,18.103-9.956,24.782
		c-7.739,8.692-20.878,8.965-32.43,8.605c-11.552-0.36-24.699-0.053-32.401,8.674c-4.823,5.465-6.356,13.237-5.967,20.557
		c1.03,19.378,14.533,36.705,31.705,45.317c17.172,8.612,37.391,9.384,56.185,5.595c26.328-5.307,51.366-19.882,66.416-42.394
		C479.376,405.15,483.185,374.481,471.144,350.184z"/>
	<path style="display:inline;fill:#EBEBEB;" d="M44.576,198.692l1.595,1.065c13.442,8.98,30.705,10.12,44.766,2.447
		c1.807-0.986,3.544-2.103,5.191-3.348c11.857-8.964,18.673-24.271,17.474-39.244c-0.705-8.806-3.954-17.809-1.429-26.237
		c3.285-10.969,14.887-16.677,25.337-21.16c10.45-4.483,22.046-10.225,25.283-21.209c2.028-6.879,0.162-14.447-3.229-20.812
		c-8.977-16.85-28.223-26.684-47.117-27.222c-18.894-0.538-37.243,7.183-52.425,18.378c-21.269,15.682-37.533,39.091-41.59,65.423
		C14.375,153.104,23.734,182.035,44.576,198.692z"/>
	
		<ellipse transform="matrix(0.9264 -0.3766 0.3766 0.9264 -146.3437 98.1837)" style="display:inline;fill:#EBEBEB;" cx="177.972" cy="423.424" rx="26.566" ry="26.566"/>
</g>
<g id="Gear">
	<g>
		<g>
			<g>
				<g>
					<path style="fill:#EBEBEB;" d="M184.427,144.701c9.737-5.884,20.102-10.346,30.793-13.383l6.343-30.48l51.497-0.903
						l7.411,30.235c10.792,2.659,21.309,6.753,31.247,12.293l26.027-17.06l37.053,35.777l-16.132,26.605
						c5.886,9.74,10.347,20.109,13.382,30.8l30.477,6.342l0.905,51.496l-30.236,7.413c-2.659,10.789-6.754,21.304-12.292,31.243
						l17.057,26.029l-35.772,37.054l-26.608-16.133c-9.738,5.885-20.106,10.345-30.798,13.381l-6.344,30.48l-51.495,0.904
						l-7.412-30.238c-10.791-2.66-21.306-6.755-31.244-12.293l-26.027,17.06l-37.054-35.776l16.132-26.606
						c-5.885-9.739-10.348-20.104-13.384-30.798L97.475,281.8l-0.904-51.496l30.237-7.414c2.659-10.789,6.756-21.305,12.292-31.243
						l-17.058-26.027l35.772-37.054L184.427,144.701L184.427,144.701z M200.016,205.105c-26.653,27.607-25.881,71.591,1.727,98.244
						c27.606,26.652,71.591,25.878,98.242-1.728c26.651-27.606,25.881-71.591-1.727-98.243
						C270.651,176.727,226.668,177.5,200.016,205.105z"/>
					<g>
						<path style="fill:none;" d="M184.427,144.701c9.737-5.884,20.102-10.346,30.793-13.383l6.343-30.48l51.497-0.903l7.411,30.235
							c10.792,2.659,21.309,6.753,31.247,12.293l26.027-17.06l37.053,35.777l-16.132,26.605c5.886,9.74,10.347,20.109,13.382,30.8
							l30.477,6.342l0.905,51.496l-30.236,7.413c-2.659,10.789-6.754,21.304-12.292,31.243l17.057,26.029l-35.772,37.054
							l-26.608-16.133c-9.738,5.885-20.106,10.345-30.798,13.381l-6.344,30.48l-51.495,0.904l-7.412-30.238
							c-10.791-2.66-21.306-6.755-31.244-12.293l-26.027,17.06l-37.054-35.776l16.132-26.606
							c-5.885-9.739-10.348-20.104-13.384-30.798L97.475,281.8l-0.904-51.496l30.237-7.414c2.659-10.789,6.756-21.305,12.292-31.243
							l-17.058-26.027l35.772-37.054L184.427,144.701L184.427,144.701z M200.016,205.105c-26.653,27.607-25.881,71.591,1.727,98.244
							c27.606,26.652,71.591,25.878,98.242-1.728c26.651-27.606,25.881-71.591-1.727-98.243
							C270.651,176.727,226.668,177.5,200.016,205.105z"/>
						<g>
							<path style="fill:#263238;" d="M200.016,205.105c0,0,1.033-1.128,3.154-3.119c2.121-1.988,5.428-4.76,10.098-7.727
								c2.359-1.439,5.029-2.98,8.111-4.34c3.066-1.381,6.49-2.709,10.29-3.723c7.57-2.066,16.624-3.141,26.477-2.009
								c4.92,0.549,10.014,1.694,15.11,3.496c5.093,1.801,10.21,4.238,15.058,7.471c4.857,3.209,9.51,7.113,13.633,11.755
								c2.104,2.283,3.999,4.807,5.822,7.424c1.785,2.647,3.405,5.452,4.868,8.383c5.767,11.745,8.408,25.851,6.458,40.007
								c-0.45,3.538-1.249,7.057-2.263,10.535c-1.012,3.482-2.328,6.906-3.934,10.219c-3.153,6.659-7.5,12.85-12.721,18.318
								c-5.281,5.413-11.316,9.978-17.861,13.365c-3.255,1.723-6.632,3.159-10.077,4.293c-3.442,1.137-6.931,2.06-10.452,2.634
								c-14.082,2.448-28.275,0.304-40.217-5.048c-2.982-1.358-5.842-2.88-8.55-4.571c-2.679-1.73-5.269-3.535-7.624-5.559
								c-4.784-3.958-8.849-8.472-12.227-13.213c-3.402-4.732-6.016-9.761-7.995-14.788c-1.979-5.03-3.302-10.081-4.023-14.979
								c-1.477-9.807-0.719-18.894,1.08-26.531c0.88-3.833,2.086-7.301,3.359-10.413c1.251-3.127,2.697-5.85,4.053-8.257
								c2.801-4.772,5.454-8.173,7.367-10.362C198.925,206.177,200.016,205.105,200.016,205.105s-0.245,0.294-0.742,0.848
								c-0.483,0.568-1.273,1.348-2.183,2.481c-1.883,2.208-4.505,5.622-7.271,10.395c-1.338,2.408-2.766,5.129-3.999,8.25
								c-1.255,3.107-2.443,6.565-3.306,10.386c-1.765,7.611-2.492,16.657-1,26.408c0.729,4.87,2.055,9.89,4.033,14.887
								c1.978,4.993,4.584,9.988,7.973,14.684c3.365,4.706,7.41,9.186,12.169,13.112c2.342,2.007,4.917,3.797,7.58,5.513
								c2.692,1.676,5.534,3.184,8.496,4.53c11.864,5.303,25.957,7.421,39.935,4.984c3.495-0.571,6.958-1.49,10.374-2.619
								c3.419-1.127,6.77-2.553,10.001-4.264c6.496-3.364,12.484-7.895,17.727-13.268c5.182-5.428,9.497-11.571,12.628-18.18
								c1.595-3.288,2.902-6.687,3.908-10.142c1.008-3.452,1.803-6.945,2.251-10.457c1.943-14.052-0.668-28.059-6.383-39.728
								c-1.449-2.913-3.056-5.7-4.825-8.331c-1.808-2.601-3.686-5.111-5.774-7.381c-4.09-4.617-8.709-8.503-13.53-11.7
								c-4.812-3.221-9.895-5.652-14.954-7.453c-5.064-1.801-10.127-2.951-15.019-3.509c-9.798-1.149-18.813-0.106-26.358,1.925
								c-3.788,0.996-7.203,2.305-10.264,3.668c-3.077,1.342-5.746,2.865-8.106,4.286c-4.674,2.932-7.994,5.672-10.135,7.632
								c-1.1,0.95-1.853,1.767-2.403,2.269C200.301,204.85,200.016,205.105,200.016,205.105z"/>
						</g>
						<g>
							<path style="fill:#263238;" d="M184.427,144.7c-0.496-0.299-9.281-5.593-26.655-16.063l0.103-0.013
								c-9.098,9.442-21.145,21.944-35.737,37.088l0.015-0.164c5.169,7.875,10.92,16.637,17.076,26.016l0.051,0.077l-0.045,0.081
								c-5.116,9.203-9.424,19.69-12.259,31.209l-0.025,0.101l-0.101,0.025c-9.42,2.314-19.621,4.821-30.233,7.428l0.141-0.183
								c0.291,16.212,0.599,33.422,0.923,51.495l-0.163-0.197c9.434,1.96,19.826,4.12,30.48,6.333l0.128,0.027l0.036,0.125
								c2.839,10.032,7.286,20.705,13.369,30.74l0.07,0.116l-0.071,0.116c-4.998,8.247-10.511,17.344-16.126,26.61l-0.037-0.287
								c11.64,11.234,24.193,23.35,37.061,35.768l-0.301-0.028c8.105-5.314,17.006-11.151,26.024-17.064l0.125-0.082l0.131,0.073
								c9.171,5.122,19.89,9.496,31.184,12.264l0.148,0.036l0.036,0.148c2.322,9.47,4.856,19.801,7.415,30.237l-0.252-0.194
								c16.303-0.287,33.779-0.595,51.495-0.907l-0.249,0.206c2.003-9.627,4.165-20.016,6.343-30.48l0.032-0.154l0.151-0.043
								c10.247-2.898,20.864-7.377,30.706-13.337l0.028-0.017l0.136-0.081l0.134,0.081c8.926,5.412,17.798,10.792,26.607,16.133
								l-0.322,0.042c12.078-12.509,24.012-24.87,35.773-37.052l-0.03,0.32c-5.741-8.763-11.426-17.439-17.055-26.03l-0.085-0.13
								l0.075-0.135c5.522-9.903,9.623-20.435,12.27-31.179l0.036-0.148l0.148-0.036c10.226-2.506,20.295-4.973,30.236-7.409
								l-0.189,0.245c-0.306-17.581-0.605-34.754-0.896-51.497l0.191,0.23c-10.341-2.154-20.497-4.27-30.475-6.349l-0.138-0.029
								l-0.039-0.136c-3.125-11.019-7.684-21.366-13.35-30.748l-0.071-0.117l0.071-0.117c5.534-9.122,10.9-17.965,16.139-26.6
								l0.035,0.268c-13.033-12.592-25.334-24.478-37.041-35.789l0.248,0.023c-9.157,5.997-17.749,11.624-26.033,17.05l-0.095,0.062
								l-0.099-0.055c-10.463-5.825-20.948-9.749-31.197-12.289l-0.101-0.025l-0.025-0.1c-2.688-10.994-5.109-20.893-7.394-30.239
								l0.152,0.117c-19.975,0.336-36.977,0.621-51.498,0.866l0.112-0.093c-2.553,12.206-4.644,22.196-6.375,30.473l-0.01,0.05
								l-0.049,0.014c-10.917,3.116-18.571,6.747-23.532,9.274c-2.484,1.272-4.286,2.313-5.492,2.992
								C185.017,144.366,184.427,144.7,184.427,144.7c0.121-0.073,0.623-0.378,1.77-1.074c1.198-0.691,2.995-1.745,5.474-3.03
								c4.951-2.554,12.602-6.213,23.525-9.359l-0.059,0.063c1.714-8.281,3.783-18.275,6.311-30.487l0.019-0.091l0.094-0.002
								c14.521-0.265,31.522-0.576,51.496-0.94l0.123-0.002l0.029,0.12c2.296,9.343,4.727,19.239,7.428,30.231l-0.125-0.125
								c10.279,2.536,20.798,6.461,31.297,12.295l-0.193,0.007c8.28-5.432,16.867-11.066,26.02-17.071l0.133-0.087l0.115,0.111
								c11.715,11.304,24.024,23.181,37.065,35.764l0.125,0.12l-0.09,0.148c-5.234,8.638-10.595,17.484-16.124,26.609l0-0.233
								c5.691,9.412,10.271,19.795,13.413,30.853l-0.177-0.165c9.979,2.075,20.136,4.186,30.478,6.336l0.188,0.039l0.003,0.192
								c0.297,16.743,0.602,33.916,0.913,51.496l0.004,0.198l-0.193,0.047c-9.941,2.439-20.009,4.908-30.235,7.417l0.185-0.184
								c-2.655,10.787-6.771,21.362-12.313,31.307l-0.009-0.264c5.63,8.589,11.316,17.265,17.059,26.027l0.113,0.172l-0.143,0.148
								c-11.76,12.183-23.693,24.545-35.77,37.055l-0.144,0.149l-0.178-0.108c-8.81-5.341-17.682-10.72-26.608-16.133l0.27,0
								l-0.028,0.017c-9.883,5.985-20.544,10.482-30.833,13.391l0.183-0.197c-2.179,10.464-4.341,20.853-6.345,30.48l-0.042,0.202
								l-0.207,0.004c-17.716,0.31-35.192,0.615-51.495,0.9l-0.204,0.004l-0.048-0.198c-2.557-10.436-5.089-20.768-7.409-30.238
								l0.184,0.184c-11.338-2.781-22.099-7.176-31.304-12.321l0.256-0.009c-9.02,5.91-17.923,11.744-26.029,17.056l-0.162,0.106
								l-0.139-0.134c-12.862-12.424-25.411-24.545-37.046-35.783l-0.134-0.129l0.096-0.159
								c5.619-9.263,11.137-18.357,16.139-26.602l0,0.232c-6.099-10.074-10.556-20.787-13.398-30.855l0.163,0.152
								c-10.652-2.221-21.043-4.387-30.476-6.353l-0.16-0.033l-0.003-0.164c-0.31-18.074-0.606-35.284-0.884-51.496l-0.003-0.148
								l0.144-0.035c10.615-2.598,20.818-5.094,30.24-7.4l-0.125,0.125c2.855-11.548,7.184-22.057,12.324-31.276l0.006,0.158
								c-6.143-9.387-11.882-18.156-17.041-26.038l-0.058-0.089l0.073-0.076c14.621-15.116,26.691-27.595,35.807-37.02l0.046-0.048
								l0.057,0.035C175.176,139.058,183.932,144.399,184.427,144.7z"/>
						</g>
					</g>
				</g>
			</g>
		</g>
	</g>
</g>
<g id="Character">
	<g>
		<g>
			<path style="fill:#263238;" d="M208.572,96.455c6.007-7.342,15.429-11.262,24.85-12.375c3.964-0.468,6.499,0.217,10.353,1.256
				c3.854,1.04,7.331,3.107,9.629,6.37c2.731,3.875,5.024,8.215,5.54,12.928c0.53,4.841,1.061,9.714,0.696,14.57
				c-0.365,4.856-1.684,9.747-4.544,13.688l-12.356,2.147c-6.824,0.233-13.742,0.456-20.39-1.1
				c-6.648-1.557-13.107-5.133-16.668-10.96C200.736,114.886,202.565,103.797,208.572,96.455z"/>
			<g>
				<g>
					<path style="fill:#FF725E;" d="M250.951,140.08c-0.024,0.029,0.201,0.305,0.738,0.648c0.532,0.343,1.399,0.725,2.546,0.86
						c1.135,0.119,2.571-0.028,3.928-0.796c1.365-0.751,2.485-2.201,2.952-3.919c0.463-1.72,0.227-3.537-0.574-4.874
						c-0.784-1.347-1.952-2.198-2.992-2.667c-1.058-0.461-1.999-0.568-2.632-0.54c-0.636,0.026-0.97,0.151-0.964,0.188
						c-0.009,0.147,1.439-0.159,3.369,0.822c0.935,0.492,1.96,1.315,2.625,2.531c0.678,1.198,0.867,2.804,0.455,4.348
						c-0.423,1.541-1.395,2.833-2.585,3.526c-1.187,0.715-2.488,0.909-3.543,0.863C252.114,140.943,251.018,139.948,250.951,140.08z
						"/>
				</g>
			</g>
			<path style="fill:#263238;" d="M196.822,130.87c0.307-2.788,1.768-5.527,4.183-6.954c2.415-1.426,5.788-1.279,7.8,0.676
				l1.941,2.314c3.043,1.296,4.956,4.756,4.588,8.043c-0.368,3.287-2.896,6.185-6.06,7.15c-3.164,0.965-6.792,0.03-9.211-2.225
				C197.643,137.618,196.46,134.158,196.822,130.87z"/>
			<g>
				<path style="fill:#455A64;" d="M199.27,139.202c0.09-0.042-0.767-0.833-0.665-2.458c0.104-1.581,1.252-3.654,2.828-5.554
					c1.607-1.91,3.501-3.215,4.951-3.97c1.448-0.777,2.443-1.061,2.412-1.162c-0.012-0.06-1.061,0.078-2.601,0.777
					c-1.539,0.675-3.553,1.976-5.225,3.962c-0.837,0.986-1.508,2.031-1.998,3.038c-0.497,1.002-0.804,2.015-0.797,2.895
					c-0.003,0.88,0.281,1.563,0.554,1.959C199.01,139.09,199.248,139.229,199.27,139.202z"/>
			</g>
			<g>
				<path style="fill:#455A64;" d="M205.248,142.851c0.202-0.012-0.639-3.748,0.551-8.16c1.124-4.431,3.687-7.275,3.517-7.385
					c-0.049-0.046-0.754,0.588-1.633,1.834c-0.88,1.24-1.875,3.136-2.471,5.397c-0.588,2.262-0.649,4.402-0.489,5.914
					C204.879,141.969,205.183,142.867,205.248,142.851z"/>
			</g>
			<g>
				<g>
					<g>
						<g>
							<g>
								<g>
									<path style="fill:#A8605D;" d="M242.745,155.089c-0.083-4.336-0.185-7.886-0.184-7.866c0,0,10.075-1.11,12.859-14.023
										c1.384-6.422,1.642-17.062,1.571-25.774c-0.064-7.842-6.742-18.521-16.424-18.555l-4.303-0.5l-16.472,6.548
										c-2.379,0.12-4.271,2.041-4.355,4.423l-0.059,55.993l16.452,41.027l10.458-18.691L242.745,155.089z"/>
								</g>
							</g>
						</g>
					</g>
					<path style="fill:#844949;" d="M236.05,130.178c0.09-0.681,0.468-1.282,0.95-1.696c0.965-0.827,2.375-0.907,3.408-0.194
						c1.033,0.713,1.624,2.174,1.429,3.533l0,0c-0.58,0.797-1.466,1.335-2.448,1.42c-0.153,0.013-0.306,0.018-0.46,0.015
						c-0.745-0.019-1.502-0.271-2.07-0.82C236.292,131.886,235.94,131.017,236.05,130.178z"/>
					<g>
						<g>
							<g>
								<g>
									<g>
										<g>
											<g>
												<g>
													<g>
														<g>
															<g>
																<g>
																	<g>
																		<g>
																			<g>
																				<g>
																					<g>
																						<g>
																							<path style="fill:#263238;" d="M253.191,117.592c-0.017,0.884-0.78,1.599-1.704,1.597
																								c-0.922-0.001-1.656-0.716-1.639-1.601c0.017-0.884,0.78-1.599,1.701-1.598
																								C252.473,115.991,253.208,116.708,253.191,117.592z"/>
																						</g>
																					</g>
																				</g>
																			</g>
																		</g>
																	</g>
																</g>
															</g>
														</g>
													</g>
												</g>
											</g>
										</g>
									</g>
								</g>
								<g>
									<g>
										<g>
											<g>
												<g>
													<g>
														<g>
															<g>
																<g>
																	<g>
																		<g>
																			<g>
																				<g>
																					<g>
																						<g>
																							<g>
																								<path style="fill:#263238;" d="M253.784,112.261c-0.219,0.207-1.433-0.799-3.232-0.894
																									c-1.794-0.12-3.165,0.733-3.348,0.502c-0.091-0.103,0.143-0.484,0.739-0.871
																									c0.588-0.385,1.575-0.737,2.695-0.672c1.119,0.068,2.039,0.532,2.557,0.983
																									C253.726,111.765,253.892,112.169,253.784,112.261z"/>
																							</g>
																						</g>
																					</g>
																				</g>
																			</g>
																		</g>
																	</g>
																</g>
															</g>
														</g>
													</g>
												</g>
											</g>
										</g>
									</g>
								</g>
								<g>
									<g>
										<g>
											<g>
												<g>
													<g>
														<g>
															<g>
																<g>
																	<g>
																		<g>
																			<g>
																				<g>
																					<g>
																						<g>
																							<path style="fill:#263238;" d="M242.487,125.881c-0.003-0.103,1.125-0.234,2.949-0.367
																								c0.461-0.022,0.901-0.09,0.996-0.398c0.126-0.326-0.038-0.831-0.232-1.377
																								c-0.371-1.135-0.759-2.324-1.166-3.57c-1.612-5.08-2.752-9.248-2.547-9.31
																								c0.205-0.063,1.679,4.003,3.291,9.084c0.386,1.252,0.756,2.446,1.107,3.588
																								c0.145,0.531,0.411,1.139,0.139,1.815c-0.143,0.336-0.493,0.567-0.792,0.63
																								c-0.299,0.074-0.557,0.064-0.786,0.065C243.619,126.037,242.488,125.983,242.487,125.881z"/>
																						</g>
																					</g>
																				</g>
																			</g>
																		</g>
																	</g>
																</g>
															</g>
														</g>
													</g>
												</g>
											</g>
										</g>
									</g>
								</g>
								<g>
									<g>
										<g>
											<g>
												<g>
													<g>
														<g>
															<g>
																<g>
																	<g>
																		<g>
																			<g>
																				<g>
																					<g>
																						<path style="fill:#844949;" d="M242.561,147.222c0,0-8.794,0.084-17.19-5.611c0,0,4.152,9.285,17.257,8.781
																							L242.561,147.222z"/>
																					</g>
																				</g>
																			</g>
																		</g>
																	</g>
																</g>
															</g>
														</g>
													</g>
												</g>
											</g>
										</g>
									</g>
								</g>
								<g>
									<g>
										<g>
											<g>
												<g>
													<g>
														<g>
															<g>
																<g>
																	<g>
																		<g>
																			<g>
																				<g>
																					<g>
																						<g>
																							<path style="fill:#263238;" d="M237.128,126.834c0.293-0.001,0.19,1.951,1.784,3.427
																								c1.59,1.481,3.683,1.376,3.683,1.65c0.021,0.124-0.484,0.354-1.363,0.329
																								c-0.863-0.018-2.105-0.364-3.081-1.267c-0.973-0.905-1.348-2.063-1.371-2.867
																								C236.751,127.287,236.995,126.815,237.128,126.834z"/>
																						</g>
																					</g>
																				</g>
																			</g>
																		</g>
																	</g>
																</g>
															</g>
														</g>
													</g>
												</g>
											</g>
										</g>
									</g>
								</g>
								<g>
									<g>
										<g>
											<g>
												<g>
													<g>
														<g>
															<g>
																<g>
																	<g>
																		<g>
																			<g>
																				<g>
																					<g>
																						<g>
																							<g>
																								<g>
																									<path style="fill:#263238;" d="M253.348,105.8c-0.339,0.391-1.554-0.101-3.042-0.202
																										c-1.484-0.154-2.765,0.123-3.032-0.32c-0.116-0.214,0.105-0.612,0.677-0.969
																										c0.564-0.355,1.49-0.62,2.511-0.533c1.021,0.089,1.888,0.507,2.383,0.954
																										C253.349,105.178,253.499,105.608,253.348,105.8z"/>
																								</g>
																							</g>
																						</g>
																					</g>
																				</g>
																			</g>
																		</g>
																	</g>
																</g>
															</g>
														</g>
													</g>
												</g>
											</g>
										</g>
									</g>
								</g>
								<g>
									<g>
										<g>
											<g>
												<g>
													<g>
														<g>
															<g>
																<g>
																	<g>
																		<g>
																			<g>
																				<g>
																					<g>
																						<g>
																							<path style="fill:#263238;" d="M233.432,116.727c-0.047,0.883,0.663,1.65,1.584,1.716
																								c0.919,0.066,1.704-0.595,1.751-1.478c0.047-0.883-0.663-1.651-1.582-1.717
																								C234.263,115.183,233.478,115.845,233.432,116.727z"/>
																						</g>
																					</g>
																				</g>
																			</g>
																		</g>
																	</g>
																</g>
															</g>
														</g>
													</g>
												</g>
											</g>
										</g>
									</g>
								</g>
								<g>
									<g>
										<g>
											<g>
												<g>
													<g>
														<g>
															<g>
																<g>
																	<g>
																		<g>
																			<g>
																				<g>
																					<g>
																						<g>
																							<g>
																								<path style="fill:#263238;" d="M229.149,111.617c0.204,0.222,1.487-0.694,3.288-0.658
																									c1.798,0.01,3.104,0.96,3.303,0.742c0.098-0.096-0.107-0.493-0.674-0.922
																									c-0.559-0.427-1.518-0.849-2.64-0.864c-1.121-0.013-2.072,0.383-2.621,0.796
																									C229.243,111.126,229.048,111.517,229.149,111.617z"/>
																							</g>
																						</g>
																					</g>
																				</g>
																			</g>
																		</g>
																	</g>
																</g>
															</g>
														</g>
													</g>
												</g>
											</g>
										</g>
									</g>
								</g>
								<g>
									<g>
										<g>
											<g>
												<g>
													<g>
														<g>
															<g>
																<g>
																	<g>
																		<g>
																			<g>
																				<g>
																					<g>
																						<g>
																							<g>
																								<g>
																									<path style="fill:#263238;" d="M230.439,108.042c0.309,0.414,1.557,0.012,3.049,0.018
																										c1.492-0.046,2.749,0.323,3.047-0.1c0.131-0.205-0.061-0.618-0.606-1.015
																										c-0.537-0.395-1.441-0.726-2.466-0.713c-1.025,0.015-1.919,0.37-2.445,0.78
																										C230.483,107.422,230.302,107.84,230.439,108.042z"/>
																								</g>
																							</g>
																						</g>
																					</g>
																				</g>
																			</g>
																		</g>
																	</g>
																</g>
															</g>
														</g>
													</g>
												</g>
											</g>
										</g>
									</g>
								</g>
							</g>
						</g>
					</g>
				</g>
			</g>
			<g>
				<path style="fill:#263238;" d="M215.418,117.736l2.256,2.34c9.741-9.324,28.779-32.67,27.716-31.279
					c0,0-6.673-2.745-13.917-1.511c-7.243,1.234-20.982,4.859-20.771,13.402C210.913,109.231,215.418,117.736,215.418,117.736z"/>
			</g>
			<g>
				<path style="fill:#455A64;" d="M208.903,125.121c0.053-0.002,0.037-0.739,0.088-2.062c0.045-1.323,0.232-3.236,0.742-5.542
					c0.977-4.608,3.664-10.755,8.397-16.217c4.738-5.465,10.209-9.22,14.236-11.69c2.024-1.237,3.703-2.173,4.867-2.813
					c1.164-0.641,1.807-0.999,1.787-1.039c-0.009-0.019-0.182,0.046-0.504,0.185c-0.32,0.142-0.795,0.349-1.392,0.644
					c-1.2,0.577-2.916,1.459-4.978,2.655c-4.102,2.387-9.671,6.12-14.476,11.661c-4.804,5.542-7.476,11.828-8.357,16.524
					c-0.463,2.35-0.586,4.292-0.558,5.627c-0.014,0.668,0.055,1.185,0.073,1.535C208.856,124.94,208.882,125.123,208.903,125.121z"
					/>
			</g>
			<g>
				<path style="fill:#455A64;" d="M233.429,85.237c-0.008-0.019-0.187,0.04-0.519,0.17c-0.333,0.128-0.817,0.332-1.435,0.608
					c-1.235,0.553-3.003,1.401-5.118,2.582c-2.115,1.179-4.579,2.689-7.184,4.557c-2.585,1.877-5.423,4.03-7.85,6.876
					c-1.212,1.418-2.22,2.962-2.966,4.566c-0.739,1.608-1.198,3.264-1.455,4.86c-0.507,3.204-0.292,6.129,0.022,8.528
					c0.33,2.405,0.76,4.318,1.073,5.634c0.157,0.658,0.291,1.166,0.388,1.508c0.097,0.343,0.158,0.521,0.178,0.516
					c0.044-0.01-0.091-0.746-0.335-2.073c-0.241-1.327-0.606-3.247-0.878-5.637c-0.258-2.383-0.421-5.268,0.103-8.383
					c0.265-1.552,0.722-3.153,1.443-4.703c0.728-1.545,1.707-3.039,2.89-4.424c2.366-2.777,5.162-4.925,7.715-6.815
					c2.569-1.88,4.993-3.417,7.07-4.638c2.077-1.222,3.808-2.124,5.008-2.741C232.778,85.611,233.448,85.28,233.429,85.237z"/>
			</g>
			<g>
				<path style="fill:#455A64;" d="M215.243,117.957c0.032,0.027,0.444-0.374,1.161-1.123c0.788-0.844,1.793-1.921,2.996-3.21
					c2.509-2.728,5.944-6.522,9.709-10.738c3.766-4.217,7.151-8.058,9.578-10.859c1.145-1.34,2.102-2.46,2.852-3.338
					c0.663-0.797,1.016-1.252,0.985-1.28c-0.031-0.028-0.442,0.372-1.159,1.12c-0.787,0.843-1.792,1.92-2.995,3.208
					c-2.509,2.727-5.946,6.524-9.714,10.744c-3.767,4.218-7.152,8.06-9.58,10.86c-1.145,1.34-2.102,2.46-2.851,3.337
					C215.563,117.476,215.212,117.93,215.243,117.957z"/>
			</g>
			<g>
				<g>
					<g>
						<g>
							<g>
								<g>
									<g>
										<g>
											<g>
												<g>
													<g>
														<g>
															<g>
																<g>
																	<g>
																		<path style="fill:#A8605D;" d="M217.34,121.495c0.051-0.97-0.945-3.319-1.895-3.521
																			c-2.536-0.539-7.159-0.587-7.559,5.908c-0.546,8.878,8.48,7.595,8.512,7.342
																			C216.423,131.026,217.164,124.845,217.34,121.495z"/>
																	</g>
																</g>
															</g>
														</g>
													</g>
												</g>
											</g>
										</g>
									</g>
								</g>
							</g>
						</g>
					</g>
				</g>
				<g>
					<g>
						<g>
							<g>
								<g>
									<g>
										<g>
											<g>
												<g>
													<g>
														<g>
															<g>
																<g>
																	<g>
																		<g>
																			<path style="fill:#844949;" d="M214.483,127.566c-0.037-0.031-0.161,0.099-0.43,0.202
																				c-0.262,0.101-0.706,0.155-1.158-0.047c-0.917-0.402-1.615-1.939-1.559-3.543
																				c0.027-0.81,0.243-1.568,0.569-2.188c0.311-0.633,0.759-1.061,1.237-1.115c0.476-0.08,0.793,0.223,0.887,0.479
																				c0.104,0.256,0.036,0.43,0.083,0.448c0.023,0.024,0.2-0.137,0.151-0.507c-0.026-0.179-0.117-0.395-0.315-0.578
																				c-0.202-0.186-0.51-0.294-0.841-0.279c-0.688,0.006-1.343,0.597-1.7,1.277c-0.395,0.681-0.658,1.533-0.688,2.442
																				c-0.053,1.793,0.76,3.523,2.02,3.973c0.614,0.201,1.147,0.045,1.429-0.148
																				C214.454,127.78,214.513,127.584,214.483,127.566z"/>
																		</g>
																	</g>
																</g>
															</g>
														</g>
													</g>
												</g>
											</g>
										</g>
									</g>
								</g>
							</g>
						</g>
					</g>
				</g>
			</g>
			<g>
				<g>
					<path style="fill:#FF725E;" d="M215.626,140.831c0.024,0.029-0.201,0.305-0.738,0.648c-0.532,0.343-1.399,0.725-2.546,0.86
						c-1.135,0.119-2.572-0.028-3.928-0.796c-1.365-0.75-2.485-2.201-2.952-3.919c-0.463-1.72-0.227-3.537,0.575-4.874
						c0.784-1.347,1.951-2.198,2.992-2.667c1.058-0.461,1.999-0.568,2.632-0.54c0.636,0.026,0.97,0.151,0.964,0.188
						c0.009,0.147-1.439-0.159-3.369,0.822c-0.935,0.492-1.96,1.315-2.625,2.531c-0.678,1.198-0.867,2.804-0.455,4.349
						c0.423,1.541,1.395,2.833,2.585,3.525c1.187,0.715,2.488,0.909,3.543,0.863C214.463,141.694,215.559,140.699,215.626,140.831z"
						/>
				</g>
			</g>
		</g>
		<g>
			<g>
				<g>
					<g>
						<polygon style="fill:#A8605D;" points="265.594,403.115 262.487,376.258 237.591,383.226 243.874,408.989 						"/>
					</g>
				</g>
			</g>
			<g>
				<g>
					<g>
						<g>
							<g>
								<path style="fill:#FF725E;" d="M265.868,403.041l4.211,31.306l10.471,23.801c0.755,1.715-0.101,3.711-1.864,4.347l0,0
									c-0.987,0.356-2.077,0.218-2.938-0.381c-5.483-3.815-25.581-17.949-25.761-20.257c-0.208-2.673-6.634-32.728-6.634-32.728
									L265.868,403.041z"/>
							</g>
						</g>
					</g>
				</g>
				<g style="opacity:0.6;">
					<g>
						<g>
							<g>
								<path style="fill:#FFFFFF;" d="M278.686,462.496l-29.032-22.744l0.209,1.322c0.181,1.143,0.755,2.186,1.634,2.94
									c2.349,2.015,8.956,7.439,24.157,18.116C276.538,462.751,277.68,462.89,278.686,462.496L278.686,462.496z"/>
							</g>
						</g>
					</g>
				</g>
				<g style="opacity:0.6;">
					<g>
						<g>
							<g>
								<g>
									<path style="fill:#FFFFFF;" d="M254.469,428.676c0.867,0.417,1.309,1.559,0.928,2.443
										c-0.382,0.883-1.539,1.343-2.413,0.941c-0.874-0.402-1.447-1.757-0.97-2.592c0.478-0.835,1.866-1.301,2.619-0.701"/>
								</g>
							</g>
						</g>
					</g>
				</g>
				<g>
					<g>
						<g>
							<g>
								<g>
									<path style="fill:#263238;" d="M269.402,449.989c0.19,0.059,0.636-1.687,2.353-2.859c1.682-1.223,3.475-1.055,3.484-1.254
										c0.015-0.081-0.418-0.261-1.165-0.249c-0.74,0.007-1.78,0.276-2.719,0.936c-0.936,0.662-1.539,1.551-1.796,2.245
										C269.297,449.507,269.321,449.976,269.402,449.989z"/>
								</g>
							</g>
						</g>
					</g>
				</g>
				<g>
					<g>
						<g>
							<g>
								<g>
									<path style="fill:#263238;" d="M272.285,453.816c0.17,0.112,1.011-1.061,2.552-1.778c1.525-0.751,2.965-0.671,2.985-0.874
										c0.065-0.173-1.541-0.598-3.285,0.248C272.785,452.24,272.109,453.758,272.285,453.816z"/>
								</g>
							</g>
						</g>
					</g>
				</g>
				<g>
					<g>
						<g>
							<g>
								<g>
									<path style="fill:#263238;" d="M264.42,445.287c0.17,0.125,1.455-1.685,3.753-3.01c2.278-1.361,4.484-1.6,4.458-1.81
										c0.024-0.174-2.362-0.242-4.809,1.211C265.361,443.106,264.256,445.223,264.42,445.287z"/>
								</g>
							</g>
						</g>
					</g>
				</g>
				<g>
					<g>
						<g>
							<g>
								<g>
									<path style="fill:#263238;" d="M262.345,435.877c0.113,0.174,1.723-0.819,3.953-1.253c2.225-0.466,4.093-0.177,4.13-0.381
										c0.062-0.166-1.876-0.794-4.267-0.299C263.764,434.417,262.223,435.748,262.345,435.877z"/>
								</g>
							</g>
						</g>
					</g>
				</g>
				<g>
					<g>
						<g>
							<g>
								<g>
									<path style="fill:#263238;" d="M260.876,426.718c0.125,0.165,1.694-1.149,4.08-1.415c2.38-0.319,4.22,0.577,4.301,0.386
										c0.041-0.073-0.362-0.411-1.147-0.713c-0.779-0.304-1.956-0.517-3.239-0.361c-1.283,0.16-2.373,0.65-3.055,1.133
										C261.128,426.232,260.819,426.657,260.876,426.718z"/>
								</g>
							</g>
						</g>
					</g>
				</g>
				<g>
					<g>
						<g>
							<g>
								<g>
									<path style="fill:#263238;" d="M264.626,423.569c0.04-0.006,0.044-0.436-0.144-1.187c-0.189-0.745-0.583-1.822-1.426-2.943
										c-0.429-0.527-0.897-1.216-1.833-1.49c-0.466-0.139-1.099,0.043-1.403,0.515c-0.304,0.46-0.339,0.99-0.271,1.487
										c0.345,1.975,2.348,3.623,4.62,3.556c2.275-0.108,4.1-1.705,4.716-3.554c0.124-0.474,0.172-1.038-0.153-1.526
										c-0.322-0.494-0.99-0.606-1.424-0.459c-0.905,0.285-1.405,0.911-1.887,1.393c-0.939,1.034-1.461,2.048-1.746,2.76
										c-0.287,0.717-0.348,1.142-0.31,1.154c0.122,0.065,0.547-1.657,2.411-3.576c0.475-0.449,1.017-1.007,1.675-1.174
										c0.32-0.083,0.62,0.002,0.777,0.246c0.159,0.233,0.156,0.635,0.042,1.009c-0.528,1.518-2.199,2.973-4.124,3.035
										c-1.914,0.076-3.673-1.375-3.966-2.962c-0.065-0.383-0.024-0.785,0.145-1.046c0.167-0.256,0.464-0.366,0.77-0.295
										c0.646,0.148,1.156,0.74,1.576,1.233C264.347,421.827,264.492,423.622,264.626,423.569z"/>
								</g>
							</g>
						</g>
					</g>
				</g>
			</g>
		</g>
		<g>
			<g>
				<g>
					<g>
						<path style="fill:#263238;" d="M343.032,251.866c-21.982-4.003-67.266,7.067-67.266,7.067l-9.682-11.092l-51.043,0.022
							l-8.863,20.773l24.164,35.981l5.61,21.214c0,0,23.898-3.782,22.892-3.663c-1.006,0.119,15.322-3.387,16.317-3.523
							c39.864-5.437,61.114-22.234,72.996-34.115C360.335,272.352,351.39,253.388,343.032,251.866z"/>
					</g>
				</g>
				<g>
					<g>
						<g>
							<g>
								<path style="fill:#455A64;" d="M240.143,329.27c-0.117-0.718-0.434-2.65-1.083-6.613c-0.354-2.116-0.791-4.695-1.353-7.662
									c-0.282-1.483-0.598-3.064-0.974-4.728c-0.191-0.831-0.395-1.684-0.639-2.552c-0.124-0.433-0.254-0.872-0.413-1.31
									c-0.166-0.439-0.307-0.881-0.675-1.309l-0.067,0.321c9.479-3.365,21.324-7.809,33.953-13.134
									c7.764-3.302,15.089-6.638,21.535-10.11c3.211-1.746,6.235-3.505,8.833-5.478c2.621-1.935,4.953-3.867,7.14-5.55
									c4.333-3.418,8.261-5.626,11.201-6.565c0.72-0.277,1.387-0.429,1.961-0.579c0.57-0.167,1.064-0.254,1.466-0.317
									c0.379-0.069,0.68-0.124,0.909-0.166c0.205-0.04,0.31-0.065,0.309-0.073c-0.001-0.008-0.107,0-0.314,0.024
									c-0.232,0.03-0.536,0.069-0.919,0.119c-0.406,0.048-0.905,0.121-1.483,0.274c-0.581,0.137-1.257,0.276-1.987,0.541
									c-1.489,0.441-3.231,1.224-5.155,2.294c-1.924,1.076-3.993,2.503-6.193,4.18c-2.206,1.67-4.55,3.587-7.168,5.498
									c-2.594,1.948-5.598,3.678-8.808,5.41c-6.436,3.439-13.756,6.759-21.512,10.058c-12.615,5.319-24.445,9.795-33.894,13.213
									l-0.264,0.095l0.197,0.226c0.248,0.286,0.435,0.741,0.584,1.157c0.156,0.424,0.287,0.856,0.413,1.283
									c0.246,0.857,0.455,1.704,0.651,2.53c0.386,1.655,0.714,3.23,1.01,4.708c0.589,2.958,1.055,5.531,1.441,7.641
									c0.388,2.086,0.692,3.727,0.906,4.877c0.111,0.559,0.2,0.986,0.269,1.271C240.086,329.128,240.143,329.27,240.143,329.27z"
									/>
							</g>
						</g>
					</g>
				</g>
			</g>
			<g>
				<g>
					<g>
						<g>
							<path style="fill:#263238;" d="M208.717,251.954l-0.451,6.77c0,0-5.723,10.833-6.247,20.537
								c-0.304,5.638-0.431,13.948-0.483,19.922c-0.042,4.811,1.29,9.528,3.837,13.61l15.083,14.034l9.347,34.494l12.051,41.709
								l24.955-6.458l-3.647-87.63c-0.091-11.973-5.549-26.003-12.379-40.56l-2.354-19.274L208.717,251.954z"/>
						</g>
					</g>
				</g>
				<g>
					<g>
						<g>
							<g>
								<path style="fill:#455A64;" d="M266.807,384.14c-0.012,0.001-0.031-0.126-0.055-0.373c-0.023-0.289-0.053-0.649-0.089-1.097
									c-0.066-1.02-0.157-2.431-0.272-4.221c-0.208-3.725-0.504-9.017-0.868-15.532c-0.665-13.167-1.581-31.266-2.591-51.258
									c-0.321-5.003-0.201-9.93-1.264-14.494c-0.993-4.584-2.832-8.782-5.07-12.455c-2.283-3.655-5.017-6.762-7.939-9.239
									c-2.936-2.464-6.013-4.341-8.986-5.683c-5.953-2.734-11.308-3.466-14.94-3.66c-1.828-0.084-3.253-0.048-4.216,0.002
									c-0.448,0.023-0.809,0.041-1.098,0.055c-0.248,0.009-0.375,0.007-0.377-0.005c0,0,2.011-0.401,5.701-0.332
									c3.661,0.11,9.083,0.768,15.139,3.476c3.024,1.329,6.161,3.206,9.161,5.689c2.986,2.497,5.782,5.64,8.118,9.345
									c2.29,3.724,4.174,7.989,5.195,12.652c1.094,4.678,0.974,9.63,1.295,14.612c0.929,19.996,1.769,38.098,2.381,51.268
									c0.268,6.52,0.486,11.816,0.639,15.544c0.058,1.793,0.104,3.207,0.138,4.228c0.007,0.449,0.013,0.811,0.018,1.1
									C266.826,384.012,266.82,384.139,266.807,384.14z"/>
							</g>
						</g>
					</g>
				</g>
				<g>
					<g>
						<g>
							<g>
								<path style="fill:#455A64;" d="M249.479,329.389c-0.179-0.086,1.367-3.694,3.454-8.057c2.088-4.365,3.925-7.833,4.104-7.747
									c0.179,0.086-1.367,3.693-3.455,8.058C251.495,326.007,249.658,329.475,249.479,329.389z"/>
							</g>
						</g>
					</g>
				</g>
				<g>
					<g>
						<g>
							<g>
								<path style="fill:#455A64;" d="M232.069,317.457c0.187-0.068,0.975,1.612,1.762,3.752c0.786,2.141,1.273,3.932,1.086,4.001
									c-0.187,0.068-0.975-1.611-1.762-3.753C232.368,319.317,231.882,317.525,232.069,317.457z"/>
							</g>
						</g>
					</g>
				</g>
			</g>
			<g>
				<g>
					<g>
						<path style="fill:#455A64;" d="M219.548,307.109c0.025,0,0.054,0.239,0.089,0.697c0.033,0.54,0.073,1.2,0.122,2
							c0.099,1.846,0.232,4.332,0.394,7.355c0.1,6.232,1.964,14.622,4.086,23.868c2.166,9.237,4.373,17.543,6.151,23.496
							c0.872,2.983,1.672,5.365,2.23,7.01c0.586,1.633,0.923,2.535,0.872,2.558c-0.023,0.01-0.136-0.203-0.33-0.619
							c-0.188-0.418-0.483-1.03-0.804-1.84c-0.641-1.62-1.518-3.988-2.454-6.958c-1.908-5.931-4.196-14.23-6.366-23.483
							c-2.121-9.234-3.923-17.739-3.893-24.007c-0.117-3.112-0.156-5.63-0.166-7.371c0.005-0.802,0.01-1.464,0.013-2.005
							C219.504,307.35,219.523,307.109,219.548,307.109z"/>
					</g>
				</g>
			</g>
			<g>
				<g>
					<g>
						<path style="fill:#455A64;" d="M276.095,263.954c0.056,0.116-1.397,0.731-3.364,2.269c-1.968,1.515-4.365,4.082-6.082,7.476
							c-1.719,3.396-2.457,6.818-2.795,9.291c-0.339,2.484-0.354,4.049-0.471,4.048c-0.047,0-0.1-0.39-0.127-1.099
							c-0.028-0.709-0.016-1.739,0.092-3.006c0.213-2.524,0.886-6.057,2.659-9.56c1.771-3.504,4.32-6.11,6.42-7.558
							c1.048-0.734,1.963-1.224,2.617-1.507C275.697,264.022,276.077,263.913,276.095,263.954z"/>
					</g>
				</g>
			</g>
			<g>
				<g>
					<g>
						<path style="fill:#455A64;" d="M313.476,262.052c0.133,0.17-2.089,1.987-4.295,4.709c-2.227,2.707-3.562,5.246-3.755,5.15
							c-0.17-0.066,0.906-2.817,3.197-5.606C310.896,263.504,313.377,261.899,313.476,262.052z"/>
					</g>
				</g>
			</g>
			<g>
				<g>
					<g>
						<path style="fill:#455A64;" d="M254.321,281.041c-0.122-0.011,0.036-1.778-0.079-4.626c-0.082-2.848-0.524-6.765-1.304-11.052
							c-0.792-4.188-1.508-7.973-2.078-10.988c-0.509-2.819-0.776-4.572-0.678-4.592c0.097-0.02,0.54,1.697,1.177,4.49
							c0.623,2.796,1.506,6.65,2.288,10.964c0.784,4.31,1.152,8.289,1.104,11.171c-0.008,1.44-0.102,2.603-0.193,3.402
							C254.452,280.609,254.37,281.046,254.321,281.041z"/>
					</g>
				</g>
			</g>
			<g>
				<g>
					<g>
						<path style="fill:#455A64;" d="M254.232,251.468c-0.019-0.038,0.122-0.174,0.456-0.264c0.327-0.088,0.864-0.098,1.433,0.191
							c0.554,0.262,1.174,0.945,1.157,1.859c-0.002,0.866-0.534,1.843-1.541,2.202c-0.99,0.365-2.08-0.133-2.537-0.86
							c-0.515-0.717-0.467-1.642-0.14-2.185c0.314-0.564,0.774-0.841,1.093-0.951c0.329-0.105,0.521-0.07,0.527-0.026
							c0.047,0.101-0.747,0.248-1.16,1.198c-0.195,0.454-0.173,1.069,0.22,1.576c0.374,0.511,1.087,0.809,1.767,0.565
							c0.653-0.219,1.085-0.925,1.109-1.536c0.044-0.624-0.331-1.13-0.749-1.402C254.987,251.27,254.252,251.58,254.232,251.468z"/>
					</g>
				</g>
			</g>
		</g>
		<g>
			<path style="fill:#455A64;" d="M257.002,158.152c0,0,16.225,5.71,18.001,15.859c1.776,10.149,10.077,46.617,10.077,46.617
				l49.015,6.35l-5.699,13.253c0,0-55.119,2.791-57.681,0C268.152,237.44,257.002,158.152,257.002,158.152z"/>
			<path style="fill:#455A64;" d="M207.323,252.331c1.589-7.293,2.73-10.312,2.73-10.312l-8.212-62.113l-5.705-20.685l18.36-4.965
				c6.742,10.374,26.533,11.211,29.394,0l13.111,3.895c0,0,19.299,34.929,18.396,47.126c-0.991,13.384,3.269,35.011,3.269,35.011
				s0.473,7.128-4.477,10.466L207.323,252.331z"/>
			<path style="fill:#455A64;" d="M196.137,159.17c0,0-10.33,5.369-12.77,15.507c-1.758,7.303-3.861,52.723,0,60.617
				c3.861,7.894,6.893,12.902,15.209,14.311c8.315,1.41,59.542-0.685,59.542-0.685l2.751-19.779l-54.69-8.145
				c0,0-1.371-40.691-1.965-43.51"/>
			<path style="fill:#455A64;" d="M214.497,154.256c0,0-0.888-4.204,0-4.598c0.888-0.394,29.696,0.788,29.893,1.773
				c0.197,0.985,0,4.236,0,4.236s-3.151,7.782-10.391,8.373C226.758,164.63,214.879,157.07,214.497,154.256z"/>
			<g>
				<g>
					<g>
						<g>
							<g>
								<g>
									<g>
										<g>
											<g>
												<path style="fill:#A8605D;" d="M267.036,231.659l14.241-1.051l6.833,4.63l5.876,7.924c0,0-0.812,1.288-2.454,0.67
													l2.19,2.65c0,0-0.828,1.704-2.736,0.799l1.351,2.09c0,0-2.575,0.917-4.082-1.43c-1.507-2.347-4.574-5.655-4.574-5.655
													l-5.208-1.723l5.083,5.049l2.814,4.478c0,0-0.508,1.407-1.54,0.759c-1.032-0.648-3.867-4.171-3.867-4.171l-5.977-3.818
													c0,0-4.236,1.922-5.555,1.941c-1.319,0.02-5.588-2.709-5.588-2.709l-4.065,2.686l1.091-14.171L267.036,231.659z"/>
											</g>
										</g>
									</g>
								</g>
							</g>
						</g>
					</g>
					<g>
						<g>
							<g>
								<g>
									<g>
										<g>
											<g>
												<g>
													<path style="fill:#844949;" d="M293.722,246.483c-0.059,0.044-0.72-0.733-1.741-2.023
														c-1.021-1.29-2.402-3.094-3.901-5.107c-0.497-0.674-0.978-1.324-1.432-1.938l0.074,0.066
														c-1.646-1.005-3.061-1.893-4.056-2.542c-0.995-0.649-1.571-1.06-1.54-1.113c0.031-0.052,0.665,0.262,1.706,0.835
														c1.041,0.572,2.49,1.402,4.153,2.381l0.042,0.025l0.031,0.042c0.459,0.611,0.944,1.257,1.447,1.927
														c1.499,2.012,2.832,3.852,3.776,5.2C293.226,245.584,293.781,246.439,293.722,246.483z"/>
												</g>
											</g>
										</g>
									</g>
								</g>
							</g>
						</g>
					</g>
					<g>
						<g>
							<g>
								<g>
									<g>
										<g>
											<g>
												<g>
													<path style="fill:#844949;" d="M292.014,248.873c-0.06,0.042-0.638-0.682-1.523-1.884
														c-0.885-1.202-2.077-2.884-3.366-4.76c-0.444-0.652-0.871-1.28-1.276-1.875l0.101,0.086
														c-3.113-1.509-5.346-2.678-5.294-2.788c0.052-0.109,2.372,0.876,5.512,2.327l0.061,0.028l0.04,0.058
														c0.41,0.591,0.843,1.215,1.293,1.863c1.29,1.876,2.433,3.592,3.238,4.848
														C291.606,248.034,292.074,248.832,292.014,248.873z"/>
												</g>
											</g>
										</g>
									</g>
								</g>
							</g>
						</g>
					</g>
				</g>
			</g>
			<g>
				<path style="fill:#263238;" d="M206.986,249.856c0-0.007,0.083-0.015,0.248-0.024c0.186-0.008,0.426-0.018,0.733-0.03
					c0.672-0.019,1.624-0.045,2.85-0.079c2.518-0.052,6.154-0.127,10.739-0.222c9.235-0.156,22.286-0.375,37.665-0.634l-0.235,0.22
					c0.505-6.198,1.054-12.939,1.626-19.966l0.218,0.275c-4.228-0.629-8.656-1.287-13.165-1.958
					c-15.17-2.272-29.404-4.404-41.52-6.218l-0.201-0.03l0.008-0.203c0.519-13.047,0.075-23.953-0.536-31.559
					c-0.301-3.805-0.626-6.788-0.858-8.822c-0.117-0.997-0.209-1.771-0.273-2.322c-0.026-0.248-0.047-0.442-0.063-0.596
					c-0.012-0.134-0.015-0.203-0.009-0.203c0.006-0.001,0.021,0.066,0.045,0.198c0.025,0.153,0.057,0.346,0.098,0.592
					c0.081,0.548,0.195,1.32,0.342,2.314c0.277,2.029,0.644,5.011,0.984,8.817c0.689,7.608,1.199,18.53,0.724,31.598l-0.193-0.233
					c12.118,1.795,26.356,3.904,41.53,6.151c4.509,0.673,8.936,1.333,13.165,1.964l0.239,0.036l-0.02,0.24
					c-0.585,7.026-1.145,13.767-1.661,19.963l-0.018,0.217l-0.217,0.003c-15.381,0.182-28.433,0.336-37.668,0.446
					c-4.586,0.037-8.223,0.066-10.741,0.086c-1.226,0.001-2.179,0.002-2.851,0.003c-0.307-0.004-0.547-0.007-0.734-0.009
					C207.07,249.868,206.986,249.862,206.986,249.856z"/>
			</g>
			<g>
				<path style="fill:#263238;" d="M244.39,151.431c0.035-0.002,0.1,0.506,0.129,1.429c0.013,0.462,0.018,1.027-0.018,1.686
					c-0.064,0.657-0.053,1.413-0.445,2.239c-0.583,0.765-1.462,1.107-2.404,1.412c-0.951,0.275-1.969,0.457-3.048,0.642
					c-2.158,0.361-4.563,0.571-7.089,0.553c-5.063-0.021-9.582-0.983-12.73-1.97c-1.584-0.49-2.807-1.116-3.537-1.701
					c-0.371-0.285-0.619-0.552-0.783-0.733c-0.154-0.191-0.227-0.296-0.214-0.308c0.034-0.032,0.365,0.363,1.115,0.877
					c0.747,0.518,1.95,1.073,3.524,1.512c3.147,0.888,7.625,1.781,12.627,1.801c2.496,0.018,4.873-0.175,7.011-0.506
					c1.066-0.169,2.09-0.338,3.004-0.583c0.456-0.127,0.885-0.28,1.268-0.479c0.192-0.098,0.373-0.206,0.54-0.326
					c0.181-0.121,0.317-0.244,0.398-0.379c0.344-0.66,0.393-1.449,0.473-2.076c0.063-0.645,0.087-1.206,0.105-1.664
					C244.349,151.942,244.353,151.433,244.39,151.431z"/>
			</g>
			<g>
				<path style="fill:#263238;" d="M219.205,157.33c-0.092,0.094-1.265-1.406-1.481-3.663c-0.24-2.255,0.61-3.959,0.719-3.885
					c0.152,0.047-0.43,1.724-0.201,3.833C218.438,155.726,219.344,157.253,219.205,157.33z"/>
			</g>
			<g>
				<path style="fill:#263238;" d="M225.135,149.809c0.153,0.031-0.189,1.981-0.118,4.396c0.054,2.417,0.495,4.346,0.344,4.384
					c-0.125,0.044-0.808-1.879-0.865-4.371C224.424,151.727,225.008,149.771,225.135,149.809z"/>
			</g>
			<g>
				<path style="fill:#263238;" d="M232.611,158.992c-0.144-0.002-0.233-1.954-0.199-4.359c0.034-2.406,0.178-4.355,0.322-4.353
					c0.144,0.002,0.233,1.954,0.199,4.36C232.898,157.045,232.754,158.994,232.611,158.992z"/>
			</g>
			<g>
				<path style="fill:#263238;" d="M240.787,151c0.125-0.024,0.498,1.719,0.192,3.878c-0.309,2.159-1.154,3.728-1.267,3.671
					c-0.149-0.059,0.458-1.674,0.752-3.744C240.759,152.736,240.627,151.015,240.787,151z"/>
			</g>
			<g>
				<path style="fill:#263238;" d="M265.951,213.503c-0.034-0.005,0-0.505,0.112-1.401c0.11-0.897,0.303-2.19,0.541-3.785
					c0.476-3.182,1.128-7.614,0.548-12.493c-0.516-4.876-1.742-9.177-2.601-12.278c-0.422-1.477-0.775-2.71-1.051-3.673
					c-0.244-0.869-0.363-1.355-0.329-1.366c0.034-0.011,0.218,0.454,0.522,1.305c0.301,0.852,0.726,2.087,1.21,3.629
					c0.951,3.08,2.243,7.392,2.767,12.329c0.587,4.945-0.134,9.447-0.703,12.606c-0.283,1.51-0.52,2.772-0.704,3.757
					C266.09,213.019,265.988,213.508,265.951,213.503z"/>
			</g>
		</g>
		<g>
			<g>
				<g>
					<g>
						<g>
							<g>
								<path style="fill:#E0E0E0;" d="M343.488,209.633l-19.836,43.883c-0.821,1.817-3.315,3.293-5.309,3.318l-91.537-0.124l0,0
									c0.229-1.921,1.837-3.381,3.771-3.424l34.732-0.762l17.779-42.669c0.567-1.36,1.892-2.251,3.365-2.262l55.434-0.419
									C343.159,207.164,344.012,208.475,343.488,209.633z"/>
							</g>
							<g>
								<g>
									<path style="fill:#263238;" d="M343.488,209.633c0,0,0.107-0.155,0.165-0.511c0.053-0.342,0.011-0.948-0.492-1.474
										c-0.243-0.259-0.616-0.463-1.057-0.521c-0.443-0.029-0.904-0.009-1.417-0.015c-1.023,0.001-2.202,0.003-3.531,0.004
										c-5.345,0.022-13.097,0.053-22.818,0.093c-4.868,0.027-10.228,0.056-16.022,0.088c-2.898,0.017-5.905,0.035-9.013,0.053
										c-0.777,0.005-1.561,0.01-2.35,0.014c-0.773-0.034-1.687,0.079-2.415,0.519c-0.738,0.424-1.341,1.1-1.67,1.899
										c-0.314,0.751-0.631,1.508-0.949,2.271c-5.096,12.201-10.775,25.797-16.86,40.366l0.245-0.167
										c-6.056,0.131-12.334,0.266-18.775,0.405c-3.221,0.07-6.482,0.141-9.777,0.213c-1.648,0.036-3.303,0.072-4.967,0.109
										l-1.251,0.029c-0.447,0.011-0.892,0.102-1.312,0.257c-0.841,0.309-1.578,0.898-2.066,1.655
										c-0.346,0.545-0.559,1.169-0.631,1.758l-0.038,0.315l0.318,0c20.24,0.019,39.5,0.037,57.007,0.054
										c8.752,0.003,17.066,0.005,24.845,0.008c1.944,0,3.855,0,5.732,0c0.938,0,1.867,0,2.788,0
										c0.465-0.006,0.907,0.012,1.384-0.013c0.478-0.031,0.941-0.128,1.385-0.269c1.74-0.587,3.345-1.778,4.027-3.466
										c0.71-1.578,1.404-3.121,2.082-4.628c5.405-12.05,9.779-21.799,12.809-28.553c1.495-3.362,2.657-5.976,3.454-7.768
										c0.384-0.878,0.678-1.552,0.885-2.025C343.401,209.873,343.488,209.633,343.488,209.633s-0.123,0.225-0.336,0.674
										c-0.219,0.468-0.53,1.134-0.936,2.003c-0.819,1.783-2.013,4.382-3.55,7.725c-3.068,6.736-7.497,16.46-12.971,28.479
										c-0.683,1.504-1.383,3.045-2.099,4.62c-0.628,1.561-2.138,2.674-3.781,3.225c-0.83,0.295-1.705,0.262-2.641,0.253
										c-0.92-0.003-1.85-0.005-2.788-0.008c-1.876-0.005-3.787-0.01-5.732-0.016c-7.779-0.019-16.092-0.039-24.844-0.06
										c-17.507-0.031-36.765-0.065-57.005-0.1l0.28,0.315c0.062-0.51,0.247-1.048,0.545-1.52c0.422-0.654,1.06-1.163,1.786-1.431
										c0.363-0.133,0.747-0.213,1.134-0.222l1.246-0.029c1.663-0.037,3.319-0.073,4.966-0.109
										c3.295-0.073,6.556-0.145,9.777-0.217c6.441-0.144,12.719-0.284,18.774-0.42l0.177-0.004l0.068-0.164
										c6.059-14.579,11.715-28.184,16.79-40.395c0.317-0.763,0.631-1.521,0.944-2.273c0.291-0.71,0.819-1.304,1.47-1.682
										c0.667-0.39,1.392-0.492,2.191-0.465c0.79-0.007,1.573-0.014,2.35-0.021c3.108-0.029,6.115-0.056,9.013-0.083
										c5.794-0.056,11.154-0.108,16.021-0.155c9.72-0.108,17.473-0.193,22.817-0.253c1.329-0.018,2.508-0.035,3.531-0.049
										c0.507-0.002,0.988-0.028,1.402-0.009c0.412,0.047,0.766,0.23,1.003,0.471c0.487,0.487,0.548,1.065,0.511,1.401
										C343.565,209.464,343.471,209.627,343.488,209.633z"/>
								</g>
							</g>
						</g>
					</g>
				</g>
				<g>
					<g>
						<g>
							<g>
								<path style="fill:#455A64;" d="M267.011,257.21c0.018,0.008,0.109-0.158,0.266-0.479c0.179-0.384,0.397-0.851,0.661-1.417
									c0.584-1.321,1.369-3.098,2.324-5.257c1.935-4.451,4.562-10.619,7.389-17.462c2.83-6.845,5.32-13.072,7.051-17.607
									c0.862-2.269,1.55-4.108,1.993-5.392c0.201-0.591,0.367-1.08,0.503-1.48c0.109-0.34,0.157-0.523,0.139-0.529
									c-0.018-0.007-0.103,0.162-0.246,0.49c-0.163,0.39-0.362,0.866-0.602,1.442c-0.543,1.338-1.273,3.137-2.161,5.323
									c-1.874,4.562-4.405,10.725-7.202,17.537c-2.81,6.805-5.352,12.963-7.234,17.523c-0.886,2.188-1.615,3.988-2.157,5.327
									c-0.224,0.583-0.41,1.064-0.562,1.459C267.049,257.022,266.993,257.202,267.011,257.21z"/>
							</g>
						</g>
					</g>
				</g>
				<g>
					<g>
						<g>
							<path style="fill:#FFFFFF;" d="M302.905,230.907c0,1.567,1.27,2.837,2.837,2.837c1.567,0,2.837-1.27,2.837-2.837
								c0-1.567-1.27-2.837-2.837-2.837C304.175,228.07,302.905,229.341,302.905,230.907z"/>
						</g>
					</g>
				</g>
			</g>
			<g>
				<g>
					<g>
						<path style="fill:#A8605D;" d="M331.033,237.564c0,0,3.024-0.613,3.83-1.232c0.807-0.619,1.315-1.749,1.101-2.449
							c-0.214-0.7-0.214-0.7-0.214-0.7s2.35-2.039,2.036-3.69c0,0,2.294-1.913,1.511-3.699c0,0,2.103-1.32,1.402-2.616
							c-0.701-1.296-2.55-2.052-3.662-2.099c-1.112-0.046-4.625-0.795-4.942-0.258c0,0-0.859,1.431-0.138,2.009
							c0.721,0.578,1.073,0.846,1.073,0.846s-3.146-0.76-3.61-0.133c-0.464,0.627-1.001,1.984,0.242,2.616
							c0,0-1.252,0.2-1.266,0.957c-0.013,0.757,0.087,1.747,0.9,2.039c0.813,0.293,1.599,0.646,1.599,0.646
							s-1.298-0.184-1.314,0.499c-0.016,0.683-0.335,1.23,0.483,1.997s2.291,2.413,2.291,2.413L331.033,237.564z"/>
					</g>
				</g>
				<g>
					<g>
						<g>
							<path style="fill:#844949;" d="M330.937,229.877c0.002,0.044,0.365,0.031,0.928,0.132c0.561,0.097,1.327,0.34,2.033,0.842
								c0.707,0.502,1.189,1.145,1.465,1.642c0.281,0.499,0.388,0.845,0.43,0.833c0.031-0.007-0.01-0.377-0.257-0.921
								c-0.242-0.54-0.728-1.245-1.479-1.778c-0.751-0.534-1.576-0.76-2.166-0.81C331.297,229.762,330.933,229.846,330.937,229.877z
								"/>
						</g>
					</g>
				</g>
				<g>
					<g>
						<g>
							<path style="fill:#844949;" d="M337.843,229.325c0.021-0.024-0.329-0.381-0.981-0.856c-0.65-0.475-1.616-1.048-2.767-1.492
								c-1.152-0.441-2.254-0.664-3.054-0.746c-0.802-0.084-1.301-0.054-1.301-0.022c-0.011,0.091,1.993,0.141,4.257,1.025
								C336.268,228.095,337.791,229.4,337.843,229.325z"/>
						</g>
					</g>
				</g>
				<g>
					<g>
						<g>
							<path style="fill:#844949;" d="M339.288,225.716c0.037-0.058-1.254-0.866-3.029-1.449c-1.772-0.592-3.29-0.715-3.295-0.646
								c-0.012,0.082,1.466,0.325,3.208,0.908C337.918,225.102,339.249,225.79,339.288,225.716z"/>
						</g>
					</g>
				</g>
			</g>
		</g>
	</g>
</g>
<g id="Screen">
	<g>
		<g>
			<polygon style="fill:#FAFAFA;" points="372.01,43.818 293.683,43.818 293.683,159.146 301.247,159.146 308.136,172.641 
				316.941,159.146 372.01,159.146 			"/>
			<g>
				<path style="fill:#263238;" d="M372.01,43.818c0,0,0.009,0.174,0.014,0.529c0.003,0.369,0.008,0.898,0.014,1.591
					c0.006,1.422,0.016,3.508,0.028,6.222c0.014,5.469,0.036,13.454,0.063,23.572c0.028,20.304,0.069,49.157,0.117,83.414l0,0.235
					l-0.236,0c-16.891,0.007-35.507,0.014-55.069,0.022l0.215-0.117c-2.789,4.276-5.779,8.86-8.803,13.496l-0.245,0.376
					l-0.204-0.399c-2.157-4.224-4.46-8.736-6.784-13.288l-0.105-0.207l0.232,0.142c-2.55,0-5.085,0-7.563,0h-0.26l0-0.26
					c0.021-43.627,0.04-83.626,0.055-115.328l0-0.206l0.205,0c23.961,0.045,43.56,0.083,57.183,0.108
					c6.78,0.023,12.07,0.04,15.679,0.052c1.784,0.01,3.151,0.018,4.084,0.023C371.549,43.803,372.01,43.818,372.01,43.818
					s-0.49,0.015-1.423,0.022c-0.942,0.005-2.321,0.013-4.122,0.023c-3.62,0.012-8.925,0.03-15.725,0.052
					c-13.593,0.026-33.148,0.063-57.055,0.108l0.206-0.205c0.015,31.702,0.034,71.701,0.055,115.328l-0.26-0.26
					c2.479,0,5.014,0,7.563,0h0.16l0.073,0.142l0.105,0.207c2.323,4.552,4.627,9.064,6.783,13.289l-0.449-0.024
					c3.026-4.636,6.017-9.219,8.807-13.494l0.076-0.117h0.139c19.562,0.008,38.178,0.015,55.069,0.022l-0.235,0.235
					c0.048-34.193,0.089-62.994,0.117-83.261c0.027-10.141,0.048-18.144,0.063-23.625c0.012-2.734,0.022-4.836,0.028-6.268
					c0.006-0.705,0.01-1.243,0.014-1.617C372.001,44.01,372.01,43.818,372.01,43.818z"/>
			</g>
		</g>
		<g>
			<path style="fill:#E0E0E0;" d="M315.595,140.202h-0.247c-1.179,0-2.134-0.956-2.134-2.134v-72.1c0-1.179,0.955-2.134,2.134-2.134
				h0.247c1.179,0,2.134,0.955,2.134,2.134v72.1C317.729,139.246,316.774,140.202,315.595,140.202z"/>
			<g>
				<path style="fill:#263238;" d="M315.595,140.202c-0.03-0.054,0.635,0.089,1.422-0.617c0.933-0.706,0.556-2.415,0.611-4.379
					c-0.02-4.028-0.048-9.809-0.083-16.941c-0.016-7.161-0.035-15.675-0.056-25.126c-0.005-4.729-0.01-9.692-0.015-14.837
					c-0.001-2.573-0.003-5.191-0.004-7.848c0-1.329-0.001-2.667-0.001-4.014c-0.003-0.35,0.018-0.664-0.062-0.941
					c-0.073-0.287-0.215-0.557-0.416-0.778c-0.406-0.457-0.983-0.671-1.64-0.628c-0.602-0.002-1.189,0.301-1.532,0.792
					c-0.177,0.241-0.282,0.528-0.325,0.82c-0.036,0.276-0.014,0.647-0.021,0.975c0,1.347-0.001,2.686-0.001,4.015
					c-0.001,2.658-0.003,5.277-0.004,7.85c-0.005,5.146-0.01,10.11-0.015,14.84c-0.021,9.452-0.04,17.967-0.056,25.128
					c-0.035,7.132-0.063,12.913-0.083,16.94c-0.008,0.995-0.015,1.882-0.022,2.656c0.007,0.754,0.415,1.325,0.818,1.628
					c0.412,0.314,0.816,0.401,1.078,0.428C315.455,140.192,315.596,140.189,315.595,140.202c0,0-0.137,0.026-0.41,0.018
					c-0.269-0.01-0.693-0.081-1.136-0.396c-0.433-0.304-0.885-0.899-0.91-1.71c-0.008-0.775-0.016-1.663-0.026-2.66
					c-0.02-4.028-0.048-9.808-0.083-16.94c-0.016-7.161-0.035-15.675-0.056-25.128c-0.005-4.73-0.01-9.694-0.015-14.84
					c-0.001-2.573-0.003-5.192-0.004-7.85c0-1.329-0.001-2.668-0.001-4.015c0.008-0.345-0.021-0.652,0.026-1.047
					c0.054-0.374,0.191-0.742,0.416-1.049c0.435-0.626,1.19-1.015,1.957-1.012c0.702-0.057,1.54,0.219,2.028,0.801
					c0.256,0.282,0.439,0.627,0.532,0.995c0.103,0.379,0.074,0.75,0.078,1.071c0,1.347-0.001,2.685-0.001,4.014
					c-0.001,2.657-0.003,5.275-0.004,7.848c-0.005,5.145-0.01,10.108-0.015,14.837c-0.021,9.451-0.04,17.965-0.056,25.126
					c-0.035,7.132-0.063,12.913-0.083,16.941c-0.009,0.996-0.017,1.884-0.024,2.658c0.044,0.794-0.314,1.449-0.718,1.797
					C316.237,140.373,315.563,140.18,315.595,140.202z"/>
			</g>
		</g>
		<g>
			<path style="fill:#E0E0E0;" d="M332.97,140.202h-0.247c-1.179,0-2.134-0.956-2.134-2.134v-72.1c0-1.179,0.956-2.134,2.134-2.134
				h0.247c1.179,0,2.134,0.955,2.134,2.134v72.1C335.104,139.246,334.149,140.202,332.97,140.202z"/>
			<g>
				<path style="fill:#263238;" d="M332.97,140.202c-0.03-0.054,0.635,0.089,1.422-0.617c0.933-0.706,0.556-2.415,0.611-4.379
					c-0.02-4.028-0.048-9.809-0.083-16.941c-0.016-7.161-0.035-15.675-0.056-25.126c-0.005-4.729-0.01-9.692-0.015-14.837
					c-0.001-2.573-0.003-5.191-0.004-7.848c0-1.329-0.001-2.667-0.001-4.014c-0.003-0.35,0.018-0.664-0.062-0.941
					c-0.073-0.287-0.215-0.557-0.416-0.778c-0.406-0.457-0.983-0.671-1.64-0.628c-0.602-0.002-1.189,0.301-1.532,0.792
					c-0.177,0.241-0.282,0.528-0.325,0.82c-0.036,0.276-0.014,0.647-0.021,0.975c0,1.347-0.001,2.686-0.001,4.015
					c-0.001,2.658-0.003,5.277-0.004,7.85c-0.005,5.146-0.01,10.11-0.015,14.84c-0.021,9.452-0.04,17.967-0.056,25.128
					c-0.035,7.132-0.063,12.913-0.083,16.94c-0.008,0.995-0.015,1.882-0.022,2.656c0.007,0.754,0.415,1.325,0.818,1.628
					c0.412,0.314,0.816,0.401,1.078,0.428C332.83,140.192,332.971,140.189,332.97,140.202c0,0-0.136,0.026-0.41,0.018
					c-0.269-0.01-0.693-0.081-1.136-0.396c-0.433-0.304-0.886-0.899-0.91-1.71c-0.008-0.775-0.016-1.663-0.026-2.66
					c-0.02-4.028-0.048-9.808-0.083-16.94c-0.016-7.161-0.035-15.675-0.056-25.128c-0.005-4.73-0.01-9.694-0.015-14.84
					c-0.001-2.573-0.003-5.192-0.004-7.85c0-1.329-0.001-2.668-0.001-4.015c0.008-0.345-0.021-0.652,0.026-1.047
					c0.054-0.374,0.191-0.742,0.416-1.049c0.435-0.626,1.19-1.015,1.957-1.012c0.702-0.057,1.54,0.219,2.028,0.801
					c0.256,0.282,0.438,0.627,0.532,0.995c0.103,0.379,0.074,0.75,0.078,1.071c0,1.347-0.001,2.685-0.001,4.014
					c-0.001,2.657-0.003,5.275-0.004,7.848c-0.005,5.145-0.01,10.108-0.015,14.837c-0.021,9.451-0.04,17.965-0.056,25.126
					c-0.035,7.132-0.063,12.913-0.083,16.941c-0.009,0.996-0.017,1.884-0.024,2.658c0.044,0.794-0.314,1.449-0.718,1.797
					C333.612,140.373,332.938,140.18,332.97,140.202z"/>
			</g>
		</g>
		<g>
			<path style="fill:#E0E0E0;" d="M350.345,140.202h-0.247c-1.179,0-2.134-0.956-2.134-2.134v-72.1c0-1.179,0.956-2.134,2.134-2.134
				h0.247c1.179,0,2.134,0.955,2.134,2.134v72.1C352.479,139.246,351.524,140.202,350.345,140.202z"/>
			<g>
				<path style="fill:#263238;" d="M350.345,140.202c-0.03-0.054,0.635,0.089,1.422-0.617c0.932-0.706,0.555-2.415,0.611-4.379
					c-0.02-4.028-0.048-9.809-0.083-16.941c-0.016-7.161-0.035-15.675-0.056-25.126c-0.005-4.729-0.01-9.692-0.015-14.837
					c-0.001-2.573-0.003-5.191-0.004-7.848c0-1.329-0.001-2.667-0.001-4.014c-0.003-0.35,0.018-0.664-0.062-0.941
					c-0.073-0.287-0.215-0.557-0.416-0.778c-0.406-0.457-0.983-0.671-1.64-0.628c-0.602-0.002-1.189,0.301-1.532,0.792
					c-0.177,0.241-0.282,0.528-0.325,0.82c-0.036,0.276-0.014,0.647-0.021,0.975c0,1.347-0.001,2.686-0.001,4.015
					c-0.001,2.658-0.003,5.277-0.004,7.85c-0.005,5.146-0.01,10.11-0.015,14.84c-0.021,9.452-0.04,17.967-0.056,25.128
					c-0.035,7.132-0.063,12.913-0.083,16.94c-0.008,0.995-0.015,1.882-0.022,2.656c0.007,0.754,0.415,1.325,0.818,1.628
					c0.412,0.314,0.816,0.401,1.078,0.428C350.205,140.192,350.346,140.189,350.345,140.202c0,0-0.136,0.026-0.41,0.018
					c-0.269-0.01-0.693-0.081-1.136-0.396c-0.433-0.304-0.885-0.899-0.91-1.71c-0.008-0.775-0.016-1.663-0.026-2.66
					c-0.02-4.028-0.048-9.808-0.083-16.94c-0.016-7.161-0.035-15.675-0.056-25.128c-0.005-4.73-0.01-9.694-0.015-14.84
					c-0.001-2.573-0.003-5.192-0.004-7.85c0-1.329-0.001-2.668-0.001-4.015c0.008-0.345-0.021-0.652,0.025-1.047
					c0.054-0.374,0.191-0.742,0.416-1.049c0.435-0.626,1.19-1.015,1.956-1.012c0.702-0.057,1.54,0.219,2.028,0.801
					c0.256,0.282,0.438,0.627,0.532,0.995c0.103,0.379,0.074,0.75,0.078,1.071c0,1.347-0.001,2.685-0.001,4.014
					c-0.001,2.657-0.003,5.275-0.004,7.848c-0.005,5.145-0.01,10.108-0.015,14.837c-0.021,9.451-0.04,17.965-0.056,25.126
					c-0.035,7.132-0.063,12.913-0.083,16.941c-0.009,0.996-0.017,1.884-0.024,2.658c0.044,0.794-0.315,1.449-0.718,1.797
					C350.987,140.373,350.313,140.18,350.345,140.202z"/>
			</g>
		</g>
		<path style="fill:#FF725E;" d="M315.423,99.626h-1.309c-2.293,0-4.151-1.859-4.151-4.151v-0.481c0-2.293,1.858-4.151,4.151-4.151
			h1.309c2.293,0,4.151,1.859,4.151,4.151v0.481C319.575,97.767,317.716,99.626,315.423,99.626z"/>
		<path style="fill:#FF725E;" d="M333.933,116.184h-1.309c-2.293,0-4.151-1.858-4.151-4.151v-0.481c0-2.293,1.859-4.151,4.151-4.151
			h1.309c2.293,0,4.151,1.859,4.151,4.151v0.481C338.084,114.325,336.226,116.184,333.933,116.184z"/>
		<path style="fill:#FF725E;" d="M350.678,84.976h-1.309c-2.293,0-4.151-1.859-4.151-4.151v-0.481c0-2.293,1.859-4.151,4.151-4.151
			h1.309c2.293,0,4.151,1.859,4.151,4.151v0.481C354.829,83.117,352.97,84.976,350.678,84.976z"/>
	</g>
</g>
<g id="Speech_Bubble">
	<g>
		<g>
			<g>
				<path style="fill:#FAFAFA;" d="M194.803,77.407c-0.746-20.21-17.734-35.989-37.944-35.243
					c-20.21,0.746-35.989,17.734-35.243,37.944c0.746,20.21,17.734,35.989,37.944,35.243c7.475-0.276,14.34-2.778,19.99-6.839
					l0.003,0.011l13.279,4.901l-4.578-13.734C192.648,93.394,195.108,85.671,194.803,77.407z"/>
				<g>
					<path style="fill:#263238;" d="M194.803,77.407c0,0,0.016,0.135,0.028,0.403c0.009,0.285,0.022,0.679,0.038,1.191
						c-0.01,1.05-0.026,2.611-0.28,4.622c-0.509,3.98-1.93,9.946-6.209,16.154l0.02-0.136c1.361,4.052,2.913,8.669,4.611,13.722
						l0.125,0.371l-0.368-0.135c-4.066-1.493-8.545-3.136-13.287-4.877l-0.106-0.039l-0.027-0.111l-0.003-0.01l0.331,0.123
						c-4.057,2.928-8.982,5.193-14.432,6.249c-1.362,0.257-2.751,0.454-4.163,0.566c-1.412,0.131-2.845,0.066-4.29,0.055
						c-0.361-0.009-0.724,0-1.086-0.023l-1.085-0.124c-0.725-0.083-1.453-0.166-2.185-0.25c-0.73-0.094-1.446-0.296-2.174-0.44
						c-0.721-0.179-1.468-0.27-2.176-0.523c-1.418-0.485-2.893-0.856-4.266-1.528c-0.696-0.31-1.406-0.599-2.098-0.931
						c-0.671-0.374-1.345-0.749-2.021-1.126l-1.013-0.572l-0.961-0.664c-0.641-0.444-1.284-0.89-1.929-1.337
						c-0.601-0.506-1.203-1.014-1.808-1.523l-0.905-0.769l-0.834-0.851c-0.554-0.571-1.122-1.133-1.669-1.718
						c-0.503-0.623-1.008-1.248-1.514-1.875c-0.247-0.318-0.52-0.618-0.747-0.952l-0.669-1.013c-0.437-0.682-0.916-1.342-1.32-2.049
						c-0.743-1.45-1.596-2.859-2.154-4.414c-0.292-0.77-0.668-1.512-0.893-2.309c-0.236-0.794-0.472-1.589-0.709-2.387
						c-2.131-8.284-1.406-17.086,1.99-24.422c1.658-3.673,3.845-7.037,6.473-9.897c2.65-2.84,5.666-5.203,8.865-7.074
						c3.207-1.876,6.653-3.076,10.053-3.921c0.862-0.163,1.718-0.326,2.568-0.486c0.845-0.19,1.712-0.181,2.556-0.28
						c1.693-0.219,3.372-0.118,5.018-0.104c6.595,0.332,12.538,2.493,17.313,5.377c4.78,2.937,8.347,6.68,10.89,10.304
						c0.595,0.937,1.226,1.808,1.73,2.708c0.478,0.914,0.938,1.793,1.379,2.636c0.396,0.863,0.708,1.72,1.041,2.52
						c0.155,0.405,0.337,0.788,0.458,1.182c0.115,0.395,0.228,0.781,0.337,1.156c0.218,0.749,0.424,1.457,0.617,2.122
						c0.127,0.679,0.245,1.315,0.356,1.907c0.108,0.59,0.208,1.135,0.299,1.635c0.066,0.502,0.083,0.963,0.12,1.371
						c0.059,0.805,0.105,1.424,0.137,1.862C194.802,77.192,194.803,77.407,194.803,77.407s-0.037-0.214-0.082-0.632
						c-0.044-0.436-0.107-1.052-0.188-1.854c-0.046-0.407-0.071-0.865-0.145-1.364c-0.098-0.497-0.206-1.038-0.322-1.624
						c-0.117-0.587-0.243-1.219-0.378-1.893c-0.2-0.66-0.412-1.362-0.637-2.104c-0.112-0.372-0.228-0.754-0.346-1.146
						c-0.124-0.39-0.308-0.77-0.466-1.171c-0.338-0.792-0.655-1.641-1.055-2.495c-0.444-0.834-0.907-1.703-1.389-2.607
						c-0.506-0.889-1.139-1.749-1.734-2.675c-2.546-3.58-6.1-7.271-10.844-10.157c-4.74-2.836-10.623-4.951-17.142-5.26
						c-1.628-0.008-3.286-0.105-4.959,0.117c-0.834,0.1-1.69,0.092-2.525,0.282c-0.839,0.161-1.684,0.323-2.535,0.486
						c-3.355,0.842-6.754,2.033-9.916,3.89c-3.153,1.853-6.125,4.189-8.737,6.994c-2.59,2.825-4.742,6.145-6.374,9.769
						c-3.343,7.236-4.051,15.914-1.952,24.081c0.233,0.786,0.466,1.57,0.698,2.353c0.221,0.786,0.592,1.518,0.88,2.276
						c0.549,1.534,1.392,2.922,2.122,4.353c0.399,0.697,0.871,1.347,1.301,2.021l0.658,1c0.224,0.329,0.493,0.625,0.736,0.938
						c0.499,0.618,0.996,1.235,1.492,1.85c0.55,0.566,1.098,1.131,1.645,1.694l0.822,0.84l0.893,0.759
						c0.596,0.503,1.189,1.005,1.781,1.504c0.636,0.442,1.27,0.882,1.902,1.32l0.947,0.656l0.999,0.564
						c0.667,0.372,1.33,0.744,1.992,1.113c0.682,0.328,1.383,0.613,2.069,0.92c1.353,0.666,2.808,1.032,4.206,1.513
						c0.697,0.251,1.435,0.341,2.145,0.519c0.719,0.143,1.424,0.344,2.144,0.438c0.722,0.084,1.441,0.167,2.156,0.25l1.07,0.124
						c0.357,0.024,0.715,0.015,1.072,0.025c1.426,0.013,2.84,0.081,4.235-0.046c1.394-0.108,2.766-0.3,4.111-0.551
						c5.383-1.031,10.253-3.255,14.273-6.137l0.257-0.184l0.074,0.307l0.003,0.01l-0.133-0.149c4.736,1.757,9.209,3.417,13.27,4.924
						l-0.243,0.236c-1.674-5.062-3.202-9.686-4.544-13.744l-0.024-0.073l0.044-0.063c4.279-6.132,5.741-12.044,6.298-16.001
						c0.278-1.999,0.321-3.554,0.358-4.601c0.002-0.512,0.003-0.905,0.004-1.189C194.791,77.544,194.803,77.407,194.803,77.407z"/>
				</g>
			</g>
		</g>
		<g>
			<g>
				<g>
					<g>
						<polygon style="fill:#E0E0E0;" points="143.68,57.97 147.843,61.397 148.59,64.082 161.142,77.616 159.758,78.949 
							147.538,65.429 144.87,64.254 141.675,59.874 						"/>
						<g>
							<path style="fill:#263238;" d="M143.68,57.97c0.001,0.02-0.176,0.207-0.504,0.546c-0.366,0.37-0.838,0.845-1.425,1.438
								l0.013-0.145c0.835,1.114,1.936,2.583,3.251,4.339l-0.073-0.059c0.825,0.355,1.726,0.743,2.678,1.153l0.039,0.017l0.03,0.033
								c3.286,3.613,7.463,8.205,12.003,13.197l0.258,0.285l-0.374-0.013c0.467-0.45,0.93-0.895,1.384-1.333l-0.01,0.363
								c-4.888-5.316-9.264-10.075-12.493-13.587l-0.031-0.033l-0.011-0.041c-0.264-0.988-0.501-1.879-0.718-2.692l0.049,0.076
								c-1.242-1.066-2.243-1.926-2.986-2.564c-0.32-0.282-0.583-0.515-0.802-0.708C143.776,58.076,143.68,57.984,143.68,57.97
								c-0.001-0.028,0.38,0.259,1.106,0.821c0.785,0.62,1.842,1.454,3.154,2.49l0.036,0.028l0.014,0.048
								c0.234,0.809,0.491,1.694,0.776,2.676l-0.042-0.074c3.259,3.485,7.675,8.206,12.609,13.48l0.174,0.186l-0.184,0.178
								c-0.454,0.438-0.916,0.883-1.383,1.334l-0.194,0.187l-0.18-0.2l-0.258-0.285c-4.509-5.021-8.657-9.638-11.92-13.272
								l0.069,0.05c-0.945-0.425-1.84-0.828-2.659-1.197l-0.046-0.021l-0.027-0.038c-1.27-1.789-2.332-3.286-3.138-4.422
								l-0.058-0.082l0.071-0.064c0.639-0.572,1.153-1.033,1.552-1.39C143.501,58.098,143.679,57.95,143.68,57.97z"/>
						</g>
					</g>
				</g>
				<g>
					<path style="fill:#FF725E;" d="M161.716,73.931l1.301,1.369c0,0-0.328,0.736,0.175,1.229c0.503,0.493,1.295,0.343,1.295,0.343
						l12.61,13.892c1.265,1.393,1.146,3.551-0.264,4.797l-0.751,0.664c-1.378,1.218-3.478,1.109-4.722-0.246l-12.663-13.795
						c0,0,0.252-0.84-0.431-1.294c-0.683-0.454-1.16-0.254-1.16-0.254l-1.186-1.353c-0.449-0.512-0.409-1.287,0.09-1.75l3.938-3.657
						C160.453,73.407,161.241,73.431,161.716,73.931z"/>
				</g>
				<g style="opacity:0.3;">
					<path d="M175.757,92.411L163.97,79.57c-0.237-0.259-0.22-0.661,0.038-0.898l0,0c0.259-0.238,0.661-0.22,0.898,0.038
						l11.788,12.841c0.237,0.259,0.22,0.661-0.038,0.898l0,0C176.397,92.687,175.995,92.67,175.757,92.411z"/>
				</g>
				<g style="opacity:0.3;">
					<path d="M174.063,93.966l-11.788-12.841c-0.238-0.259-0.22-0.661,0.038-0.898l0,0c0.259-0.237,0.661-0.22,0.898,0.038
						L175,93.106c0.238,0.259,0.22,0.661-0.038,0.898l0,0C174.703,94.242,174.301,94.225,174.063,93.966z"/>
				</g>
				<g style="opacity:0.3;">
					<path d="M172.247,95.633l-11.788-12.841c-0.238-0.259-0.22-0.661,0.038-0.898l0,0c0.259-0.237,0.661-0.22,0.898,0.038
						l11.788,12.841c0.237,0.259,0.22,0.661-0.038,0.898l0,0C172.887,95.909,172.484,95.892,172.247,95.633z"/>
				</g>
				<g>
					<g>
						<path style="fill:#263238;" d="M163.016,75.3c0.016,0.018-1.294,1.224-2.927,2.694c-1.633,1.47-2.97,2.647-2.986,2.628
							c-0.016-0.018,1.294-1.224,2.927-2.694C161.663,76.459,163,75.282,163.016,75.3z"/>
					</g>
				</g>
				<g>
					<g>
						<path style="fill:#263238;" d="M164.496,76.885c0.016,0.018-1.271,1.217-2.875,2.678c-1.604,1.461-2.918,2.631-2.934,2.613
							c-0.016-0.018,1.271-1.217,2.875-2.678C163.166,78.037,164.479,76.867,164.496,76.885z"/>
					</g>
				</g>
				<g>
					<g>
						<path style="fill:#263238;" d="M159.345,81.415c-0.014,0.005-0.056-0.109-0.15-0.276c-0.094-0.167-0.251-0.384-0.47-0.577
							c-0.221-0.192-0.457-0.318-0.635-0.388c-0.178-0.071-0.297-0.097-0.294-0.112c0.001-0.01,0.125-0.006,0.315,0.053
							c0.189,0.058,0.442,0.18,0.672,0.381c0.229,0.201,0.385,0.434,0.468,0.614C159.333,81.29,159.354,81.412,159.345,81.415z"/>
					</g>
				</g>
				<g>
					<g>
						<path style="fill:#263238;" d="M159.854,80.819c-0.022,0.015-0.267-0.327-0.624-0.699c-0.355-0.374-0.685-0.636-0.669-0.657
							c0.012-0.019,0.371,0.215,0.733,0.596C159.657,80.439,159.873,80.808,159.854,80.819z"/>
					</g>
				</g>
				<g>
					<g>
						<path style="fill:#263238;" d="M160.404,80.402c-0.018,0.016-0.321-0.296-0.676-0.697c-0.355-0.401-0.628-0.739-0.61-0.755
							c0.018-0.016,0.321,0.296,0.676,0.697C160.149,80.048,160.423,80.386,160.404,80.402z"/>
					</g>
				</g>
				<g>
					<g>
						<path style="fill:#263238;" d="M161.063,79.749c-0.016,0.017-0.339-0.262-0.698-0.645c-0.36-0.382-0.618-0.722-0.6-0.737
							c0.019-0.016,0.306,0.296,0.665,0.676C160.787,79.425,161.08,79.731,161.063,79.749z"/>
					</g>
				</g>
				<g>
					<g>
						<path style="fill:#263238;" d="M161.587,79.161c-0.008,0.02-0.38-0.162-0.708-0.542c-0.331-0.378-0.459-0.771-0.438-0.776
							c0.025-0.011,0.185,0.354,0.504,0.719C161.262,78.928,161.602,79.138,161.587,79.161z"/>
					</g>
				</g>
				<g>
					<g>
						<path style="fill:#263238;" d="M162.466,78.593c-0.006,0.02-0.433-0.162-0.812-0.575c-0.383-0.41-0.532-0.85-0.511-0.854
							c0.025-0.012,0.205,0.398,0.576,0.794C162.085,78.358,162.481,78.569,162.466,78.593z"/>
					</g>
				</g>
				<g>
					<g>
						<path style="fill:#263238;" d="M162.763,77.785c-0.005,0.021-0.358-0.117-0.638-0.474c-0.284-0.354-0.337-0.73-0.315-0.729
							c0.026-0.008,0.115,0.34,0.384,0.675C162.459,77.595,162.777,77.761,162.763,77.785z"/>
					</g>
				</g>
				<g>
					<g>
						<path style="fill:#263238;" d="M163.927,77.444c0,0.01-0.126,0.025-0.326-0.014c-0.198-0.037-0.47-0.139-0.711-0.341
							c-0.241-0.201-0.39-0.451-0.461-0.639c-0.073-0.19-0.081-0.317-0.072-0.318c0.014-0.003,0.044,0.117,0.129,0.293
							c0.084,0.176,0.233,0.406,0.461,0.597c0.228,0.19,0.481,0.296,0.669,0.348C163.804,77.422,163.928,77.43,163.927,77.444z"/>
					</g>
				</g>
			</g>
			<path style="fill:#263238;" d="M180.273,61.619l-0.369-0.409l-4.749,4.926l-4.334-4.334l4.57-4.739l-0.369-0.409
				c-1.273-0.238-4.814-0.211-7.602,2.944c-2.751,3.113-1.331,7.209-1.331,7.209l-5.076,5.126l4.398,4.122l5.098-5.038
				c0,0,4.757,1.462,7.813-1.899C181.1,66.064,180.273,61.619,180.273,61.619z"/>
			<path style="fill:#263238;" d="M157.526,83.383l-4.391-4.11l-5.69,5.634c0,0-5.228-1.039-7.813,1.899
				c-2.275,2.586-2.529,5.815-2.383,7.048c0.04,0.337,0.432,0.451,0.432,0.451l5.118-4.517l4.334,4.334l-4.993,4.33l0.423,0.409
				c0,0,4.466,1.431,7.971-2.535c2.751-3.113,1.331-7.209,1.331-7.209L157.526,83.383z"/>
			<path style="fill:#455A64;" d="M179.904,61.21l-5.118,4.517l-4.334-4.334l4.57-4.739c0,0-4.466-1.431-7.971,2.535
				c-2.751,3.113-1.331,7.209-1.331,7.209l-5.076,5.126l4.399,4.122l5.098-5.038c0,0,4.757,1.462,7.813-1.899
				C180.731,65.655,179.904,61.21,179.904,61.21z"/>
			<path style="fill:#455A64;" d="M157.103,82.974l-4.391-4.11l-5.69,5.634c0,0-5.228-1.039-7.813,1.899
				c-2.897,3.293-1.951,7.499-1.951,7.499l5.118-4.517l4.334,4.334l-4.57,4.739c0,0,4.466,1.431,7.971-2.535
				c2.751-3.113,1.331-7.209,1.331-7.209L157.103,82.974z"/>
		</g>
	</g>
</g>
</svg>
