<?xml version="1.0" encoding="utf-8"?>
<!-- Generator: Adobe Illustrator 27.5.0, SVG Export Plug-In . SVG Version: 6.00 Build 0)  -->
<svg version="1.1" xmlns="http://www.w3.org/2000/svg" xmlns:xlink="http://www.w3.org/1999/xlink" x="0px" y="0px"
	 viewBox="0 0 500 500" style="enable-background:new 0 0 500 500;" xml:space="preserve">
<g id="Background_Complete">
	<g>
		<g>
			<g>
				<g>
					<g>
						<rect x="39.998" y="43.775" style="fill:#FAFAFA;" width="207.475" height="185.619"/>
					</g>
				</g>
			</g>
			<g>
				<g>
					<g>
						<g>
							<path style="fill:#E0E0E0;" d="M247.473,229.394c0,0-0.035-1.19-0.053-3.445c-0.012-2.278-0.03-5.608-0.054-9.945
								c-0.028-8.715-0.069-21.454-0.122-37.679c-0.058-32.432-0.142-78.775-0.242-134.549l0.47,0.47
								c-59.751,0.024-131.059,0.053-207.456,0.084h-0.019l0.554-0.554c-0.024,67.531-0.047,131.076-0.066,185.619l-0.488-0.488
								c61.894,0.102,113.698,0.187,150.061,0.247c18.193,0.055,32.517,0.099,42.324,0.129c4.886,0.025,8.64,0.044,11.204,0.057
								c1.256,0.012,2.215,0.021,2.889,0.028C247.127,229.376,247.473,229.394,247.473,229.394s-0.308,0.019-0.941,0.028
								c-0.662,0.007-1.604,0.016-2.836,0.028c-2.543,0.013-6.265,0.032-11.109,0.057c-9.782,0.03-24.068,0.074-42.214,0.129
								c-36.439,0.06-88.351,0.145-150.375,0.247l-0.488,0.001v-0.489c-0.02-54.542-0.042-118.088-0.067-185.619v-0.555h0.555h0.019
								c76.397,0.031,147.705,0.06,207.456,0.084h0.472l-0.001,0.471c-0.1,55.898-0.184,102.344-0.242,134.847
								c-0.053,16.18-0.094,28.883-0.122,37.573c-0.024,4.299-0.042,7.599-0.054,9.855
								C247.507,228.274,247.473,229.394,247.473,229.394z"/>
						</g>
					</g>
				</g>
			</g>
		</g>
		<g>
			<g>
				<g>
					<g>
						<path style="fill:#E0E0E0;" d="M119.551,76.756c0,0.306-10.92,0.555-24.388,0.555c-13.473,0-24.391-0.249-24.391-0.555
							c0-0.306,10.918-0.554,24.391-0.554C108.63,76.201,119.551,76.45,119.551,76.756z"/>
					</g>
				</g>
			</g>
		</g>
		<g>
			<g>
				<g>
					<g>
						<path style="fill:#E0E0E0;" d="M207.461,90.693c0,0.307-30.001,0.554-67.001,0.554c-37.013,0-67.008-0.248-67.008-0.554
							c0-0.306,29.995-0.554,67.008-0.554C177.46,90.139,207.461,90.387,207.461,90.693z"/>
					</g>
				</g>
			</g>
		</g>
		<g>
			<g>
				<g>
					<rect x="71.128" y="114.301" style="fill:#E0E0E0;" width="8.741" height="8.741"/>
				</g>
			</g>
		</g>
		<g>
			<g>
				<g>
					<rect x="92.645" y="114.301" style="fill:#E0E0E0;" width="8.741" height="8.741"/>
				</g>
			</g>
		</g>
		<g>
			<g>
				<g>
					<rect x="114.558" y="113.904" style="fill:#E0E0E0;" width="8.741" height="8.741"/>
				</g>
			</g>
		</g>
		<g>
			<g>
				<g>
					<rect x="135.677" y="114.301" style="fill:#E0E0E0;" width="8.741" height="8.741"/>
				</g>
			</g>
		</g>
		<g>
			<g>
				<g>
					<rect x="157.193" y="114.301" style="fill:#E0E0E0;" width="8.741" height="8.741"/>
				</g>
			</g>
		</g>
		<g>
			<g>
				<g>
					<rect x="178.709" y="114.301" style="fill:#E0E0E0;" width="8.741" height="8.741"/>
				</g>
			</g>
		</g>
		<g>
			<g>
				<g>
					<rect x="200.225" y="114.301" style="fill:#EBEBEB;" width="8.741" height="8.741"/>
				</g>
			</g>
		</g>
		<g>
			<g>
				<g>
					<rect x="71.128" y="132.884" style="fill:#EBEBEB;" width="8.741" height="8.741"/>
				</g>
			</g>
		</g>
		<g>
			<g>
				<g>
					<rect x="92.645" y="132.884" style="fill:#E0E0E0;" width="8.741" height="8.741"/>
				</g>
			</g>
		</g>
		<g>
			<g>
				<g>
					<rect x="114.161" y="132.884" style="fill:#EBEBEB;" width="8.741" height="8.741"/>
				</g>
			</g>
		</g>
		<g>
			<g>
				<g>
					<rect x="135.677" y="132.884" style="fill:#E0E0E0;" width="8.741" height="8.741"/>
				</g>
			</g>
		</g>
		<g>
			<g>
				<g>
					<rect x="157.193" y="132.884" style="fill:#E0E0E0;" width="8.741" height="8.741"/>
				</g>
			</g>
		</g>
		<g>
			<g>
				<g>
					<rect x="179.106" y="132.487" style="fill:#E0E0E0;" width="8.741" height="8.741"/>
				</g>
			</g>
		</g>
		<g>
			<g>
				<g>
					<rect x="200.225" y="132.884" style="fill:#E0E0E0;" width="8.741" height="8.741"/>
				</g>
			</g>
		</g>
		<g>
			<g>
				<g>
					<rect x="71.128" y="151.466" style="fill:#E0E0E0;" width="8.741" height="8.741"/>
				</g>
			</g>
		</g>
		<g>
			<g>
				<g>
					<rect x="93.041" y="151.069" style="fill:#E0E0E0;" width="8.741" height="8.741"/>
				</g>
			</g>
		</g>
		<g>
			<g>
				<g>
					<rect x="114.161" y="151.466" style="fill:#E0E0E0;" width="8.741" height="8.741"/>
				</g>
			</g>
		</g>
		<g>
			<g>
				<g>
					<rect x="135.677" y="151.466" style="fill:#EBEBEB;" width="8.741" height="8.741"/>
				</g>
			</g>
		</g>
		<g>
			<g>
				<g>
					<rect x="157.193" y="151.466" style="fill:#E0E0E0;" width="8.741" height="8.741"/>
				</g>
			</g>
		</g>
		<g>
			<g>
				<g>
					<rect x="178.709" y="151.466" style="fill:#E0E0E0;" width="8.741" height="8.741"/>
				</g>
			</g>
		</g>
		<g>
			<g>
				<g>
					<rect x="200.225" y="151.466" style="fill:#E0E0E0;" width="8.741" height="8.741"/>
				</g>
			</g>
		</g>
		<g>
			<g>
				<g>
					<rect x="71.128" y="170.049" style="fill:#E0E0E0;" width="8.741" height="8.741"/>
				</g>
			</g>
		</g>
		<g>
			<g>
				<g>
					<rect x="92.645" y="170.049" style="fill:#E0E0E0;" width="8.741" height="8.741"/>
				</g>
			</g>
		</g>
		<g>
			<g>
				<g>
					<rect x="114.161" y="170.049" style="fill:#E0E0E0;" width="8.741" height="8.741"/>
				</g>
			</g>
		</g>
		<g>
			<g>
				<g>
					<rect x="136.074" y="169.652" style="fill:#E0E0E0;" width="8.741" height="8.741"/>
				</g>
			</g>
		</g>
		<g>
			<g>
				<g>
					<rect x="157.193" y="170.049" style="fill:#E0E0E0;" width="8.741" height="8.741"/>
				</g>
			</g>
		</g>
		<g>
			<g>
				<g>
					<rect x="178.709" y="170.049" style="fill:#EBEBEB;" width="8.741" height="8.741"/>
				</g>
			</g>
		</g>
		<g>
			<g>
				<g>
					<rect x="200.225" y="170.049" style="fill:#E0E0E0;" width="8.741" height="8.741"/>
				</g>
			</g>
		</g>
		<g>
			<g>
				<g>
					<rect x="71.128" y="188.631" style="fill:#E0E0E0;" width="8.741" height="8.741"/>
				</g>
			</g>
		</g>
		<g>
			<g>
				<g>
					<rect x="92.645" y="188.631" style="fill:#EBEBEB;" width="8.741" height="8.741"/>
				</g>
			</g>
		</g>
		<g>
			<g>
				<g>
					<rect x="114.161" y="188.631" style="fill:#E0E0E0;" width="8.741" height="8.741"/>
				</g>
			</g>
		</g>
		<g>
			<g>
				<g>
					<rect x="135.677" y="188.631" style="fill:#E0E0E0;" width="8.741" height="8.741"/>
				</g>
			</g>
		</g>
		<g>
			<g>
				<g>
					<rect x="157.193" y="188.631" style="fill:#E0E0E0;" width="8.741" height="8.741"/>
				</g>
			</g>
		</g>
		<g>
			<g>
				<g>
					<rect x="179.106" y="188.235" style="fill:#E0E0E0;" width="8.741" height="8.741"/>
				</g>
			</g>
		</g>
		<g>
			<g>
				<g>
					<rect x="200.225" y="188.631" style="fill:#E0E0E0;" width="8.741" height="8.741"/>
				</g>
			</g>
		</g>
	</g>
	<g>
		<g>
			<g>
				<g>
					<g>
						<path style="fill:#EBEBEB;" d="M430.182,293.28c9.245-4.77,20.131-5.39,30.394-3.694c5.514,0.911,11.262,2.561,15.015,6.703
							c3.752,4.142,4.463,11.431,0.155,14.99c-2.565,2.118-6.141,2.44-9.467,2.402c-8.034-0.094-16.949-1.508-23.368,3.326
							c-3.662,2.758-6.1,7.343-10.479,8.699c-4.283,1.327-9.118-1.201-11.389-5.067c-2.271-3.866-2.347-8.699-1.288-13.056
							C419.754,307.583,420.869,298.085,430.182,293.28z"/>
					</g>
				</g>
			</g>
			<g>
				<g>
					<g>
						<path style="fill:#EBEBEB;" d="M409.001,252.393c5.653,8.074,16.64,5.401,21.735,0.473c5.094-4.928,7.247-12.071,9.207-18.882
							c4.478-15.563,8.993-31.889,5.664-47.737c-0.996-4.738-2.767-9.463-6.097-12.978c-3.329-3.515-8.449-5.606-13.13-4.37
							c-5.54,1.464-8.983,6.889-11.471,12.051c-7.315,15.172-11.188,31.991-11.245,48.834
							C403.637,237.649,404.564,245.899,409.001,252.393"/>
					</g>
				</g>
			</g>
			<g>
				<g>
					<g>
						<path style="fill:#EBEBEB;" d="M393.477,263.978c6.138-7.285,7.303-17.909,4.572-27.035
							c-2.732-9.126-8.902-16.889-16.013-23.227c-8.337-7.431-18.138-13.214-28.674-16.918c-4.146-1.458-8.52-2.608-12.895-2.191
							s-8.781,2.655-10.822,6.547c-3.017,5.755-0.124,12.736,3.005,18.431c5.513,10.034,11.817,19.633,18.833,28.679
							c5.645,7.278,12.111,14.456,20.714,17.745c8.603,3.289,17.539,2.902,22.099-3.064"/>
					</g>
				</g>
			</g>
			<g>
				<g>
					<g>
						<g>
							<path style="fill:#E0E0E0;" d="M408.618,374.186c0.106,0.006,0.277-1.302,0.512-3.669c0.26-2.671,0.586-6.023,0.974-10.012
								c0.466-4.213,1.082-9.227,2.252-14.686c1.167-5.446,2.992-11.348,5.338-17.333c2.429-5.95,5.39-11.358,8.851-15.684
								c3.436-4.345,7.433-7.489,11.19-9.303c3.744-1.85,7.103-2.601,9.424-2.935c2.341-0.24,3.652-0.425,3.653-0.529
								c0.001-0.105-1.313-0.121-3.717-0.057c-2.382,0.159-5.88,0.762-9.826,2.557c-3.959,1.756-8.199,4.949-11.804,9.384
								c-3.634,4.416-6.704,9.943-9.175,15.999c-2.386,6.091-4.185,12.053-5.3,17.617c-1.111,5.555-1.62,10.623-1.952,14.872
								c-0.318,4.252-0.438,7.694-0.496,10.074C408.488,372.861,408.515,374.18,408.618,374.186z"/>
						</g>
					</g>
				</g>
			</g>
			<g>
				<g>
					<g>
						<g>
							<path style="fill:#E0E0E0;" d="M409.309,366.482c0.052-0.003,0.085-0.589,0.098-1.703c-0.003-1.279-0.008-2.89-0.013-4.868
								c-0.012-4.224-0.01-10.339,0.217-17.888c0.374-15.099,1.674-31.349,4.185-54.259c2.378-21.542,5.57-46.613,8.938-62.913
								c0.722-3.707,1.45-7.043,2.135-9.964c0.653-2.928,1.211-5.452,1.749-7.494c0.462-1.923,0.838-3.489,1.138-4.732
								c0.244-1.087,0.348-1.665,0.298-1.68c-0.05-0.014-0.253,0.535-0.592,1.596c-0.371,1.225-0.839,2.769-1.413,4.665
								c-0.627,2.024-1.269,4.532-2.003,7.447c-0.764,2.909-1.567,6.237-2.358,9.939c-3.333,14.77-6.861,35.412-9.396,58.377
								c-2.516,22.957-3.649,43.861-3.75,58.998c-0.09,7.568,0.071,13.695,0.264,17.923c0.121,1.977,0.219,3.587,0.297,4.865
								C409.187,365.903,409.256,366.484,409.309,366.482z"/>
						</g>
					</g>
				</g>
			</g>
			<g>
				<g>
					<g>
						<g>
							<path style="fill:#E0E0E0;" d="M409.409,326.165c0.105-0.004,0.087-1.81-0.036-5.085c-0.187-3.268-0.636-7.991-1.557-13.777
								c-0.976-5.772-2.339-12.626-4.481-20.073c-0.928-3.405-3.11-11.562-8.394-23.752c-6.962-16.517-16.422-30.02-24.651-38.384
								c-1.93-2.22-4.08-3.821-5.799-5.39c-0.89-0.752-1.676-1.502-2.477-2.097c-0.806-0.555-1.555-1.072-2.25-1.551
								c-2.708-1.852-4.225-2.829-4.281-2.741c-0.243,0.33,6.066,4.043,14.033,12.519c7.934,8.457,17.129,21.868,24.035,38.245
								c3.851,8.883,6.537,16.807,8.442,23.534c2.201,7.375,3.663,14.159,4.768,19.874c1.05,5.727,1.658,10.404,2.025,13.642
								C409.088,324.371,409.306,326.169,409.409,326.165z"/>
						</g>
					</g>
				</g>
			</g>
		</g>
		<g>
			<g>
				<g>
					<polygon style="fill:#E0E0E0;" points="370.441,397.284 374.481,452.631 445.583,452.631 449.623,397.284 					"/>
				</g>
			</g>
		</g>
		<g>
			<g>
				<g>
					<rect x="363.573" y="375.469" style="fill:#E0E0E0;" width="94.534" height="21.815"/>
				</g>
			</g>
		</g>
		<g>
			<g>
				<g>
					<polygon style="fill:#EBEBEB;" points="363.573,450.513 363.573,456.56 368.015,456.56 456.545,456.56 456.545,450.513 					
						"/>
				</g>
			</g>
		</g>
		<g>
			<g>
				<g>
					<polygon style="fill:#E0E0E0;" points="372.369,467.203 368.015,456.56 453.158,456.56 448.079,467.203 					"/>
				</g>
			</g>
		</g>
		<g>
			<g>
				<g>
					<g>
						<path style="fill:#F5F5F5;" d="M448.303,415.373c0.016,0.013-0.097,0.186-0.332,0.508c-0.282,0.374-0.632,0.838-1.062,1.409
							c-1.01,1.292-2.397,3.068-4.142,5.301l-0.184,0.236l-0.178-0.246c-2.603-3.601-6.081-8.411-10.176-14.074h0.585
							c-3.027,4.286-6.398,9.06-10.019,14.186l-0.314,0.445l-0.351-0.418c-3.698-4.399-7.713-9.177-11.882-14.137l0.685-0.009
							c-0.206,0.259-0.429,0.54-0.654,0.822c-3.685,4.62-7.251,9.091-10.624,13.319l-0.354,0.444l-0.327-0.462
							c-3.607-5.104-6.977-9.872-10.024-14.183l0.583,0.028c-4.94,5.628-9.129,10.402-12.345,14.065l-0.219,0.25l-0.167-0.281
							c-1.627-2.734-2.925-4.914-3.865-6.494c-0.404-0.705-0.731-1.275-0.992-1.729c-0.218-0.395-0.322-0.605-0.303-0.617
							c0.019-0.012,0.16,0.175,0.414,0.548c0.289,0.437,0.65,0.986,1.097,1.664c0.987,1.551,2.349,3.692,4.058,6.376l-0.386-0.031
							c3.164-3.708,7.286-8.539,12.147-14.236l0.307-0.359l0.277,0.387c3.074,4.292,6.474,9.038,10.113,14.118l-0.681-0.018
							c3.365-4.235,6.923-8.713,10.599-13.339c0.224-0.282,0.447-0.562,0.654-0.822l0.338-0.424l0.347,0.416
							c4.158,4.97,8.162,9.757,11.849,14.164l-0.665,0.026c3.656-5.1,7.061-9.85,10.119-14.115l0.297-0.414l0.289,0.414
							c4.008,5.725,7.412,10.587,9.961,14.227l-0.362-0.011c1.815-2.176,3.258-3.906,4.309-5.166
							c0.468-0.541,0.848-0.981,1.154-1.335C448.142,415.507,448.287,415.36,448.303,415.373z"/>
					</g>
				</g>
			</g>
		</g>
		<g>
			<g>
				<g>
					<g>
						<path style="fill:#F5F5F5;" d="M450.612,396.919c0,0.244-17.816,0.443-39.788,0.443c-21.98,0-39.792-0.198-39.792-0.443
							c0-0.244,17.812-0.443,39.792-0.443C432.797,396.476,450.612,396.675,450.612,396.919z"/>
					</g>
				</g>
			</g>
		</g>
		<g>
			<g>
				<g>
					<g>
						<path style="fill:#F5F5F5;" d="M454.205,457.156c0,0.245-19.362,0.443-43.242,0.443c-23.888,0-43.246-0.198-43.246-0.443
							c0-0.244,19.358-0.442,43.246-0.442C434.842,456.714,454.205,456.912,454.205,457.156z"/>
					</g>
				</g>
			</g>
		</g>
	</g>
</g>
<g id="Background_Simple" style="display:none;">
	<path style="display:inline;fill:#EBEBEB;" d="M77.514,143.461l1.955-3.543c16.481-29.864,47.917-48.873,82.023-48.341
		c4.384,0.068,8.764,0.449,13.101,1.156c31.225,5.089,59.209,26.918,71.744,55.966c7.372,17.083,10.141,37.02,23.233,50.242
		c17.038,17.207,44.563,16.484,68.706,14.609c24.142-1.876,51.689-2.528,68.651,14.753c10.623,10.823,14.583,26.736,14.477,41.9
		c-0.281,40.15-26.867,77.281-61.974,96.762c-35.108,19.481-77.349,23.055-117.051,17.065
		c-55.617-8.39-109.429-36.061-143.104-81.112C65.599,257.868,54.661,194.855,77.514,143.461z"/>
</g>
<g id="Character">
	<g>
		<g>
			<path style="fill:#E8505B;" d="M197.763,247.138l-7.997,4.292l-17.704,13.63c0,0-54.23,7.201-56.312,8.763
				c-2.083,1.562-29.053,14.369-32.698,31.552c-3.645,17.184-11.145,129.302-11.145,129.302l9.841,33.127l197.508,0.307l46.32-0.658
				c0,0,17.799-41.569,17.799-53.025c0-11.456-5.207-97.373-5.207-97.373l-55.545-39.166L197.763,247.138z"/>
		</g>
		<g>
			<g>
				<path style="fill:#263238;" d="M171.551,264.25c0.014,0.011-0.081,0.17-0.275,0.464c-0.232,0.338-0.519,0.757-0.869,1.267
					c-0.78,1.08-1.833,2.697-3.069,4.729c-0.595,1.03-1.28,2.14-1.907,3.391c-0.674,1.226-1.311,2.578-1.972,4.004
					c-1.285,2.869-2.527,6.099-3.59,9.57c-2.094,6.959-3.17,13.474-3.893,18.181c-0.331,2.304-0.602,4.196-0.803,5.591
					c-0.091,0.612-0.166,1.114-0.227,1.52c-0.058,0.347-0.096,0.528-0.114,0.526c-0.018-0.002-0.014-0.187,0.01-0.538
					c0.035-0.409,0.077-0.915,0.13-1.532c0.12-1.33,0.333-3.25,0.639-5.618c0.631-4.729,1.652-11.279,3.759-18.281
					c1.069-3.493,2.334-6.742,3.652-9.619c0.678-1.43,1.333-2.784,2.028-4.009c0.647-1.25,1.355-2.355,1.973-3.379
					c1.282-2.018,2.387-3.61,3.219-4.656c0.382-0.488,0.696-0.888,0.949-1.211C171.413,264.377,171.536,264.239,171.551,264.25z"/>
			</g>
		</g>
		<g style="opacity:0.3;">
			<g>
				<path d="M172.783,297.208c-0.329-1.055-0.755-2.247-1.78-2.66c-0.806-0.324-0.482,0.196-1.286,0.527
					c-7.501,3.093-11.122,10.029-14.298,17.842l0.181-0.186c-0.471,1.196,0.023,2.923,1.228,3.625
					c1.691,0.985,3.865,0.453,5.603-0.446c1.738-0.9,3.329-2.149,5.225-2.634c4.108-1.052,8.191,1.76,11.09,4.855
					c2.899,3.095,5.508,6.781,9.462,8.314C181.342,317.747,176.086,307.784,172.783,297.208z"/>
			</g>
		</g>
		<g>
			<g>
				<path style="fill:#263238;" d="M154.832,313.493c0,0,0.892-2.386,3.174-6.36c1.154-1.976,2.666-4.349,4.763-6.845
					c1.07-1.227,2.277-2.496,3.736-3.646c1.468-1.118,3.213-2.154,5.28-2.534l0.155-0.029l0.058,0.15
					c1.257,3.273,2.576,6.845,4.098,10.604c1.527,3.755,3.283,7.703,5.59,11.579c2.294,3.879,5.151,7.672,8.6,11.116
					c3.441,3.454,7.443,6.555,11.778,9.339c1.445,0.857,2.848,1.762,4.295,2.562c1.459,0.777,2.905,1.548,4.334,2.309l-0.259,0.016
					c2.452-1.693,4.861-3.355,7.219-4.983c1.179-0.813,2.345-1.618,3.498-2.413c1.16-0.788,2.29-1.579,3.359-2.42
					c4.291-3.348,8.003-6.978,11.204-10.531l0.017-0.018l0.017-0.013c4.45-3.419,7.9-7.334,10.273-11.211
					c2.424-3.856,3.813-7.618,4.631-10.768c0.812-3.16,1.069-5.723,1.178-7.463c0.061-0.871,0.044-1.541,0.069-1.992
					c0.014-0.451,0.039-0.685,0.039-0.685s0.021,0.232,0.03,0.684c-0.002,0.451,0.037,1.124-0.003,1.999
					c-0.067,1.749-0.284,4.328-1.064,7.52c-0.786,3.18-2.154,6.986-4.573,10.894c-2.368,3.928-5.831,7.901-10.311,11.373
					l0.033-0.031c-3.212,3.596-6.919,7.244-11.237,10.63c-1.077,0.852-2.213,1.651-3.369,2.439
					c-1.152,0.798-2.318,1.605-3.497,2.422c-2.359,1.632-4.769,3.3-7.222,4.997l-0.126,0.088l-0.133-0.071
					c-1.437-0.764-2.89-1.537-4.357-2.318c-1.454-0.803-2.867-1.713-4.32-2.576c-4.363-2.802-8.395-5.929-11.862-9.418
					c-3.476-3.479-6.354-7.314-8.655-11.23c-2.316-3.913-4.067-7.889-5.583-11.66c-1.511-3.777-2.812-7.355-4.048-10.633
					l0.212,0.121c-1.974,0.35-3.683,1.341-5.131,2.429c-1.441,1.12-2.644,2.364-3.715,3.571c-2.101,2.456-3.634,4.802-4.811,6.754
					c-1.171,1.959-1.988,3.536-2.53,4.611c-0.258,0.522-0.459,0.929-0.607,1.228C154.916,313.358,154.841,313.497,154.832,313.493z"
					/>
			</g>
		</g>
		<g>
			<g>
				<path style="fill:#263238;" d="M266.605,288.872c0,0,0.333,5.835-0.722,15.251c-0.527,4.703-1.477,10.281-3.05,16.367
					c-1.562,6.088-3.788,12.663-6.62,19.378l-0.381,0.904l-0.118-0.98c-0.07-0.585-0.126-1.218-0.221-1.849
					c-0.497-3.694-1.368-7.245-2.52-10.564c-0.576-1.66-1.222-3.263-1.925-4.8c-0.349-0.77-0.719-1.52-1.096-2.256
					c-0.386-0.736-0.743-1.464-1.224-2.086c-0.469-0.623-1.042-1.18-1.717-1.433c-0.674-0.259-1.415-0.09-1.968,0.371
					c-0.561,0.451-1.027,1.069-1.526,1.62c-0.491,0.561-0.974,1.113-1.449,1.656c-1.9,2.168-3.671,4.188-5.291,6.036
					c-3.227,3.658-5.847,6.628-7.689,8.716c-0.896,0.999-1.602,1.786-2.11,2.352c-0.229,0.247-0.413,0.445-0.559,0.603
					c-0.128,0.134-0.197,0.2-0.204,0.194c-0.007-0.006,0.049-0.083,0.164-0.229c0.136-0.167,0.307-0.376,0.52-0.637
					c0.491-0.582,1.172-1.39,2.036-2.417c1.812-2.114,4.389-5.121,7.564-8.825c1.605-1.861,3.36-3.895,5.243-6.078
					c0.472-0.546,0.952-1.101,1.439-1.665c0.499-0.553,0.943-1.165,1.578-1.687c0.615-0.535,1.592-0.778,2.412-0.453
					c0.818,0.306,1.435,0.926,1.939,1.584c0.516,0.664,0.888,1.419,1.276,2.151c0.383,0.741,0.758,1.498,1.113,2.274
					c0.714,1.549,1.37,3.165,1.955,4.84c1.17,3.348,2.053,6.933,2.555,10.663c0.095,0.637,0.152,1.276,0.222,1.867l-0.498-0.076
					c2.825-6.693,5.057-13.237,6.639-19.295c1.593-6.057,2.577-11.608,3.15-16.291c0.579-4.684,0.812-8.493,0.916-11.123
					c0.068-1.315,0.069-2.337,0.102-3.029c0.014-0.322,0.025-0.581,0.035-0.787C266.586,288.963,266.596,288.872,266.605,288.872z"
					/>
			</g>
		</g>
		<g>
			<g>
				<path style="fill:#263238;" d="M192.021,261.245c0.006,0.007-0.045,0.073-0.151,0.198c-0.128,0.145-0.285,0.323-0.479,0.541
					c-0.445,0.452-1.018,1.191-1.757,2.14c-1.427,1.933-3.23,4.943-4.793,8.952c-1.597,3.989-2.93,8.977-3.59,14.622
					c-0.622,5.641-0.554,11.964,0.8,18.383c0.638,3.216,1.621,6.276,2.796,9.13c1.135,2.876,2.604,5.484,4.109,7.886
					c3.102,4.763,6.702,8.477,10.003,11.22c1.614,1.426,3.254,2.484,4.624,3.506c1.455,0.896,2.682,1.716,3.728,2.312
					c1.027,0.565,1.839,1.011,2.432,1.338c0.253,0.145,0.459,0.264,0.627,0.36c0.14,0.084,0.21,0.131,0.206,0.139
					c-0.004,0.008-0.082-0.023-0.23-0.091c-0.174-0.084-0.388-0.187-0.651-0.314c-0.606-0.306-1.435-0.725-2.484-1.255
					c-1.065-0.57-2.313-1.368-3.79-2.245c-1.393-1.003-3.057-2.048-4.698-3.465c-3.354-2.725-7.016-6.446-10.171-11.243
					c-1.532-2.419-3.025-5.05-4.178-7.953c-1.193-2.881-2.19-5.972-2.834-9.218c-1.367-6.482-1.42-12.861-0.767-18.544
					c0.692-5.688,2.072-10.703,3.725-14.704c1.619-4.021,3.486-7.027,4.973-8.937c0.769-0.937,1.37-1.659,1.842-2.09
					c0.209-0.204,0.379-0.371,0.517-0.507C191.951,261.292,192.015,261.238,192.021,261.245z"/>
			</g>
		</g>
		<g>
			<g>
				<path style="fill:#263238;" d="M106.938,357.325c0.012-0.007,0.077,0.087,0.198,0.287c0.142,0.246,0.316,0.547,0.535,0.926
					l-0.147,0.051c-0.714-3.357-2.656-13.663-4.86-25.847c-1.328-7.506-2.529-14.297-3.414-19.301
					c-0.403-2.42-0.733-4.404-0.976-5.859c-0.097-0.647-0.176-1.175-0.239-1.598c-0.049-0.366-0.066-0.56-0.049-0.563
					s0.069,0.184,0.152,0.545c0.089,0.418,0.2,0.941,0.336,1.58c0.283,1.448,0.668,3.422,1.139,5.83
					c0.924,4.997,2.178,11.778,3.564,19.274c2.204,12.184,3.996,22.518,4.503,25.912l0.076,0.511l-0.224-0.46
					c-0.191-0.394-0.343-0.706-0.468-0.962C106.967,357.438,106.926,357.332,106.938,357.325z"/>
			</g>
		</g>
		<g>
			<g>
				<path style="fill:#263238;" d="M104.529,355.273c-0.13,0.061-2.649-5.006-5.624-11.317c-2.977-6.313-5.284-11.479-5.154-11.54
					c0.13-0.061,2.648,5.005,5.625,11.318C102.352,350.045,104.659,355.211,104.529,355.273z"/>
			</g>
		</g>
		<g>
			<path style="fill:none;stroke:#263238;stroke-width:0.05;stroke-miterlimit:10;" d="M100.677,362.455"/>
		</g>
		<g style="opacity:0.3;">
			<g>
				<path d="M103.505,465.217c6.27,3.151,20.8-2.411,26.084-9.342c5.284-6.931,6.813-15.941,7.96-24.581
					c1.729-13.02,2.962-26.106,3.696-39.22c10.756,7.874,24.239,11.945,37.555,11.342c8.483-0.385,18.151-3.755,20.775-11.831
					c2.595-7.989-2.993-16.202-8.798-22.273c-5.527-5.78-11.562-11.073-18.013-15.798c-4.236-3.103-8.872-6.043-14.092-6.613
					c-5.63-0.615-11.325,1.692-15.605,5.401c-4.28,3.709-7.271,8.708-9.462,13.93c-6.689,15.944-6.328,33.798-7.694,51.034
					c-1.365,17.236-3.194,35.091-18.465,46.311"/>
			</g>
		</g>
		<g>
			<g>
				<path style="fill:#263238;" d="M103.91,465.284c-0.004-0.012,0.143-0.083,0.429-0.209c0.319-0.138,0.737-0.318,1.262-0.544
					c1.047-0.588,2.597-1.45,4.28-2.942c3.41-2.901,7.615-7.845,11.554-14.403l-0.028,0.084c0.915-6.853,1.982-14.846,3.117-23.349
					c1.833-13.479,3.459-25.685,4.765-34.5c0.809-4.35,1.466-7.885,1.929-10.379c0.233-1.191,0.417-2.132,0.55-2.817
					c0.063-0.296,0.115-0.536,0.156-0.73c0.038-0.164,0.062-0.247,0.071-0.246c0.009,0.002,0.003,0.088-0.018,0.255
					c-0.028,0.197-0.063,0.44-0.105,0.739c-0.11,0.689-0.262,1.635-0.454,2.833c-0.424,2.499-1.025,6.042-1.765,10.402
					c-1.185,8.87-2.814,21.054-4.613,34.517c-1.158,8.499-2.246,16.487-3.179,23.336l-0.006,0.047l-0.022,0.036
					c-4.008,6.588-8.281,11.509-11.777,14.381c-1.722,1.474-3.315,2.313-4.391,2.864c-0.564,0.226-1.005,0.377-1.299,0.484
					C104.068,465.248,103.914,465.296,103.91,465.284z"/>
			</g>
		</g>
		<g>
			<g>
				<path style="fill:#263238;" d="M200.165,467.454c-0.009,0.002-0.04-0.105-0.094-0.315c-0.057-0.238-0.131-0.547-0.224-0.937
					c-0.173-0.829-0.506-2.037-0.771-3.625c-0.591-3.164-1.201-7.799-1.376-13.558c-0.164-5.756,0.111-12.63,1.078-20.182
					c0.92-7.559,2.451-15.791,4.229-24.384c1.706-8.616,3.855-16.712,5.595-24.105c1.766-7.387,2.903-14.149,3.207-19.881
					c0.298-5.731-0.061-10.383-0.497-13.561c-0.171-1.597-0.446-2.817-0.557-3.656c-0.06-0.396-0.108-0.71-0.145-0.952
					c-0.03-0.215-0.041-0.326-0.032-0.328c0.009-0.002,0.037,0.106,0.084,0.318c0.05,0.24,0.114,0.551,0.196,0.943
					c0.145,0.834,0.452,2.05,0.655,3.648c0.499,3.178,0.917,7.847,0.664,13.609c-0.258,5.761-1.365,12.565-3.107,19.97
					c-1.718,7.415-3.847,15.494-5.552,24.102c-1.776,8.588-3.319,16.802-4.262,24.338c-0.991,7.529-1.303,14.376-1.186,20.114
					c0.128,5.74,0.68,10.365,1.208,13.532c0.234,1.589,0.534,2.802,0.674,3.637c0.072,0.394,0.129,0.707,0.173,0.948
					C200.16,467.341,200.174,467.452,200.165,467.454z"/>
			</g>
		</g>
		<g>
			<g>
				<path style="fill:#263238;" d="M216.993,354.695c-0.126-0.084,1.6-2.836,3.516-6.345c1.926-3.506,3.314-6.441,3.453-6.38
					c0.064,0.028-0.202,0.8-0.724,2.011c-0.521,1.21-1.307,2.855-2.273,4.62c-0.967,1.764-1.929,3.311-2.668,4.402
					C217.558,354.093,217.051,354.733,216.993,354.695z"/>
			</g>
		</g>
		<g style="opacity:0.3;">
			<g>
				<path d="M220.216,350.542c5.213-6.099,10.865-11.824,16.896-17.116c1.65-1.448,3.443-2.918,5.608-3.277
					c2.644-0.439,5.329,0.923,7.161,2.879c1.833,1.955,2.97,4.444,4.077,6.885c2.62-6.446-0.1-13.702-2.799-20.116
					c-0.878-2.086-2.402-4.564-4.641-4.228c-1.195,0.179-2.092,1.149-2.881,2.064c-8.662,10.055-16.679,20.665-23.985,31.744"/>
			</g>
		</g>
		<g style="opacity:0.3;">
			<g>
				<path d="M308.139,302.909l0.374-3.169c-3.808,0.365-8.492,0.812-11.534,3.131c-3.549,2.706-4.947,7.316-6.142,11.616
					c-2.719,9.786,4.994,60.136,4.601,70.285c3.377-1.434,5.749-23.042,6.355-26.66c1.478-8.813-1.513-14.314-0.608-16.768
					c0.905-2.454,0.882-5.135,0.956-7.749C302.472,321.914,303.632,313.691,308.139,302.909"/>
			</g>
		</g>
	</g>
	<g>
		<g>
			<g>
				<path style="fill:#263238;" d="M258.434,141.307c-4.841-6.003-3.256-15.587,2.285-20.95c5.541-5.363,13.968-6.906,21.572-5.628
					c11.007,1.85,20.914,9.327,25.713,19.404c2.592,5.446,4.006,11.883,8.766,15.589c4.184,3.257,9.936,3.543,14.698,5.875
					c6.383,3.126,10.498,9.809,11.959,16.765c1.461,6.956,0.583,14.193-0.889,21.147c-1.352,6.382-3.153,13.278-0.412,19.197
					c2.672,5.772,8.917,8.918,13.027,13.772c7.734,9.134,5.98,24.677-3.595,31.857c-3.053,2.289-6.911,4.03-8.37,7.556
					c-1.332,3.22-0.196,6.872-0.265,10.355c-0.177,8.968-10.064,16.345-18.711,13.96c-4.365-1.204-8.388-4.427-12.874-3.811
					c-4.457,0.611-7.433,4.728-11.054,7.396c-7.124,5.248-18.036,4.442-24.311-1.796c-2.627-2.611-4.737-6.168-8.318-7.117
					c-3.573-0.947-7.332,1.104-10.994,0.605c-4.794-0.653-7.944-5.414-9.36-10.04c-1.415-4.626-1.796-9.641-4.189-13.846
					c-3.133-5.506-9.098-8.624-14.11-12.499c-11.062-8.552-18.162-22.033-18.954-35.993c-0.792-13.96,4.735-28.158,14.758-37.908"/>
			</g>
		</g>
	</g>
	<g>
		<g>
			<path style="fill:#EF9D78;" d="M191.361,261.267c-9.566,10.972-13.339,26.729-9.777,40.844
				c3.562,14.114,15.368,34.74,28.994,39.859c8.838-6.478,20.197-15.526,28.438-22.748c5.333-4.674,8.162-11.505,10.804-18.086
				c1.524-3.796,3.072-7.9,2.115-11.877c-0.705-2.929-2.688-5.371-4.776-7.543c-13.408-13.944-33.842-20.76-52.937-17.657"/>
		</g>
		<g>
			<g>
				<g>
					<g>
						<g>
							<g>
								<g>
									<g>
										<g>
											<g>
												<g>
													<g>
														<g>
															<g>
																<g>
																	<path style="fill:#EF9D78;" d="M231.833,159.676L231.833,159.676c5.068-10.278,16.639-15.606,27.743-12.776
																		l34.119,8.697c17.05,5.495,30.399,31.879,20.347,54.992c-7.937,18.251-16.069,41.184-24.225,53.779
																		c-16.401,25.327-38.82,19.54-38.82,19.54l-12.101,26.994l-49.47-46.391L231.833,159.676z"/>
																</g>
															</g>
														</g>
														<g>
															<g>
																<g>
																	<g>
																		<g>
																			<g>
																				<g>
																					<g>
																						<g>
																							<g>
																								<g>
																									<g>
																										<path style="fill:#263238;" d="M289.43,217.727c0.643-0.242,2.316,2.948,6.022,4.731
																											c3.676,1.833,7.315,1.245,7.497,1.893c0.1,0.296-0.726,0.895-2.326,1.184
																											c-1.58,0.294-3.969,0.166-6.271-0.96c-2.299-1.129-3.828-2.917-4.521-4.326
																											C289.115,218.825,289.122,217.827,289.43,217.727z"/>
																									</g>
																								</g>
																							</g>
																						</g>
																					</g>
																				</g>
																			</g>
																		</g>
																	</g>
																</g>
															</g>
														</g>
														<g>
															<g>
																<g>
																	<g>
																		<g>
																			<g>
																				<g>
																					<g>
																						<g>
																							<g>
																								<g>
																									<g>
																										<path style="fill:#263238;" d="M250.797,200.138c0.727-0.134,2.38,3.415,6.362,5.878
																											c3.949,2.511,8.008,2.543,8.17,3.236c0.091,0.319-0.855,0.79-2.646,0.804
																											c-1.764,0.026-4.398-0.52-6.87-2.07c-2.472-1.553-4.049-3.644-4.73-5.203
																											C250.385,201.206,250.453,200.186,250.797,200.138z"/>
																									</g>
																								</g>
																							</g>
																						</g>
																					</g>
																				</g>
																			</g>
																		</g>
																	</g>
																</g>
															</g>
														</g>
														<g>
															<g>
																<g>
																	<g>
																		<g>
																			<g>
																				<g>
																					<g>
																						<g>
																							<g>
																								<g>
																									<path style="fill:#263238;" d="M267.17,237.863c0.077-0.222,2.593,0.411,6.595,1.605
																										c1.004,0.326,1.997,0.538,2.449-0.045c0.534-0.593,0.591-1.807,0.62-3.13
																										c0.128-2.724,0.262-5.577,0.401-8.569c0.671-12.157,1.61-21.981,2.099-21.949
																										c0.49,0.031,0.344,9.91-0.327,22.067c-0.189,2.987-0.365,5.836-0.54,8.56
																										c-0.12,1.252-0.044,2.766-1.172,3.989c-0.577,0.603-1.512,0.811-2.201,0.704
																										c-0.698-0.085-1.243-0.314-1.731-0.496C269.461,239.113,267.089,238.083,267.17,237.863z"/>
																								</g>
																							</g>
																						</g>
																					</g>
																				</g>
																			</g>
																		</g>
																	</g>
																</g>
															</g>
														</g>
														<g>
															<g>
																<g>
																	<g>
																		<g>
																			<g>
																				<g>
																					<g>
																						<g>
																							<g>
																								<path style="fill:#D37A57;" d="M250.954,283.975c0,0-19.758-7.409-33.079-26.372
																									c0,0,0.748,23.155,30.051,33.157L250.954,283.975z"/>
																							</g>
																						</g>
																					</g>
																				</g>
																			</g>
																		</g>
																	</g>
																</g>
															</g>
														</g>
													</g>
												</g>
											</g>
											<g>
												<g>
													<g>
														<g>
															<g>
																<g>
																	<g>
																		<g>
																			<g>
																				<g>
																					<path style="fill:#263238;" d="M253.896,187.317c0.628-1.01,4.536,0.359,9.376,0.788
																						c4.833,0.526,8.931-0.05,9.35,1.064c0.18,0.529-0.701,1.417-2.464,2.151c-1.749,0.735-4.396,1.225-7.297,0.941
																						c-2.899-0.29-5.399-1.289-6.97-2.352C254.306,188.845,253.615,187.801,253.896,187.317z"/>
																				</g>
																			</g>
																		</g>
																	</g>
																</g>
															</g>
														</g>
													</g>
												</g>
											</g>
											<g>
												<g>
													<g>
														<g>
															<g>
																<g>
																	<g>
																		<g>
																			<g>
																				<g>
																					<path style="fill:#263238;" d="M297.49,198.324c1.265-0.008,2.821,3.102,5.515,6.08
																						c2.605,3.058,5.497,5.017,5.312,6.255c-0.116,0.573-1.166,0.817-2.824,0.326
																						c-1.641-0.475-3.833-1.784-5.655-3.858c-1.819-2.075-2.822-4.406-3.068-6.08
																						C296.51,199.354,296.9,198.358,297.49,198.324z"/>
																				</g>
																			</g>
																		</g>
																	</g>
																</g>
															</g>
														</g>
													</g>
												</g>
											</g>
										</g>
									</g>
								</g>
							</g>
						</g>
					</g>
				</g>
			</g>
			<g>
				<path style="fill:#D37A57;" d="M258.499,248.313c0,0,2.322-1.213,1.245-5.668c-1.077-4.455-6.745-8.494-10.332-4.829
					c0,0-3.624,0.279-2.199,4.457c1.426,4.178,9.682,10.076,11.221,6.718"/>
			</g>
			<g>
				<g>
					<g>
						<g>
							<g>
								<g>
									<g>
										<g>
											<g>
												<g>
													<g>
														<path style="fill:#263238;" d="M257.149,251.716c-0.66-0.114,0.345-4.463-2.657-8.416
															c-2.993-3.962-7.741-4.554-7.633-5.17c0.003-0.286,1.229-0.604,3.197-0.2c1.934,0.381,4.592,1.651,6.429,4.069
															c1.829,2.422,2.216,5.174,1.949,6.993C258.176,250.847,257.44,251.81,257.149,251.716z"/>
													</g>
												</g>
											</g>
										</g>
									</g>
								</g>
							</g>
						</g>
					</g>
				</g>
			</g>
			<g>
				<g>
					<g>
						<g>
							<path style="fill:#263238;" d="M202.658,145.467c-5.305,4.068-8.459,10.794-8.195,17.474
								c0.148,3.739,1.061,8.153-1.694,10.685c-2.804,2.577-7.218,1.194-11.026,1.214c-6.627,0.035-12.782,5.552-13.539,12.135
								c-0.271,2.362,0.036,4.918-1.169,6.967c-1.254,2.133-3.769,3.089-5.885,4.372c-5.257,3.187-8.614,9.285-8.496,15.431
								c0.119,6.147,3.709,12.11,9.086,15.091c2.446,1.357,5.31,2.204,7.097,4.357c2.049,2.469,2.127,5.965,3.13,9.013
								c1.924,5.842,7.815,10.137,13.966,10.181c6.151,0.045,12.103-4.164,14.113-9.977"/>
						</g>
					</g>
				</g>
				<g>
					<g>
						<g>
							<g>
								<g>
									<path style="fill:#263238;" d="M257.958,135.898c-2.003,5.844-1.271,12.563,1.944,17.837
										c3.215,5.275,8.852,9.004,14.964,9.9c4.742,0.696,10.401,0.096,13.461,3.784c3.219,3.879,1.311,10.065,3.857,14.416
										c3.639,6.218,9.841,11.179,15.726,15.335c4.545,3.209-0.655,12.144,1.326,17.342c1.981,5.199,10.134,17.063,15.693,17.275
										c1.216-4.651,8.138-25.073,8.258-29.879c0.12-4.805-0.962-9.797-3.936-13.574c-1.63-2.07-3.777-3.722-5.188-5.947
										c-3.048-4.805-2.024-11.026-3.012-16.63c-1.275-7.223-6.275-13.684-12.947-16.731c-5.551-2.535-12.061-2.816-17.188-6.127
										c-3.79-2.447-6.498-6.363-10.426-8.581c-7.649-4.322-17.235-1.029-25.139,2.806"/>
								</g>
							</g>
						</g>
					</g>
				</g>
				<g>
					<g>
						<g>
							<path style="fill:#263238;" d="M221.127,194.027c-0.791-0.527-6.034,3.443-0.857,6.61
								c9.068,5.547,16.859-13.194,16.525-19.422c4.62-1.951,9.296-3.934,13.364-7.025c4.068-3.09,10.155-13.209,11.243-18.325
								c3.47,1.406,20.235,1.533,18.781,0.527c-3.309-2.29-10.005-7.202-10.894-11.046c-1.931-8.35-7.862-15.612-15.694-17.795
								c-7.833-2.183-17.27,1.39-21.594,8.977c-9.328-3.081-20.386-0.31-27.829,6.972c-7.443,7.282-10.97,18.783-8.877,28.941
								c0.548,2.661,1.446,5.438,0.594,8.075c-1.057,3.269-4.335,5.031-6.944,7.146c-7.116,5.768-10.18,15.961-9.304,25.163
								c0.875,9.202,2.446,12.863,7.001,16.189c8.912,6.507-9.608,23.128,6.982,28.745"/>
						</g>
					</g>
				</g>
				<g>
					<g>
						<g>
							<g>
								<path style="fill:#455A64;" d="M344.963,257.554c-0.045-0.067,0.585-0.412,1.561-1.325c0.957-0.91,2.343-2.379,3.341-4.703
									c1.021-2.271,1.719-5.445,0.936-8.919c-0.78-3.484-3.409-6.806-6.932-9.636c-3.42-2.941-7.913-5.563-11.092-10.187
									c-3.218-4.647-3.745-10.974-2.731-16.972c1.002-6.091,3.539-12.007,5.166-18.315c0.819-3.151,1.332-6.426,1.224-9.752
									c-0.108-3.304-0.844-6.678-2.614-9.537c-1.759-2.865-4.471-5.001-7.441-6.445c-2.981-1.458-6.202-2.313-9.401-2.863
									c-3.208-0.536-6.489-0.838-9.603-1.842c-3.099-0.925-6.06-2.966-7.467-5.883c-1.454-2.859-1.769-5.894-2.405-8.641
									c-0.563-2.775-1.61-5.281-3.233-7.347c-3.18-4.189-7.891-6.51-12.249-7.33c-4.425-0.804-8.573,0.059-11.86,1.428
									c-3.305,1.405-5.823,3.291-7.688,4.999c-3.7,3.503-4.93,6.153-5.076,6.044c-0.019-0.011,0.054-0.173,0.216-0.48
									c0.172-0.3,0.392-0.771,0.774-1.331c0.714-1.149,1.897-2.782,3.733-4.603c1.846-1.797,4.374-3.79,7.751-5.304
									c3.356-1.475,7.658-2.45,12.309-1.668c4.569,0.8,9.527,3.161,12.951,7.58c1.74,2.157,2.908,4.919,3.496,7.756
									c0.661,2.812,1.016,5.771,2.353,8.338c1.282,2.595,3.842,4.366,6.779,5.248c2.939,0.939,6.151,1.232,9.433,1.767
									c3.284,0.556,6.618,1.427,9.761,2.958c3.127,1.515,6.068,3.808,7.983,6.929c1.923,3.111,2.693,6.721,2.802,10.185
									c0.11,3.483-0.439,6.899-1.283,10.113c-1.686,6.437-4.223,12.303-5.219,18.195c-1.015,5.824-0.523,11.815,2.444,16.171
									c2.931,4.376,7.338,7.058,10.784,10.081c3.544,2.92,6.295,6.462,7.05,10.186c0.756,3.692-0.063,6.973-1.188,9.291
									c-1.108,2.372-2.599,3.827-3.632,4.69C345.644,257.295,344.963,257.554,344.963,257.554z"/>
							</g>
						</g>
					</g>
				</g>
				<g>
					<g>
						<g>
							<g>
								<path style="fill:#455A64;" d="M314.289,197.171c0.116,0.047-0.489,1.431-1.098,4.051
									c-0.585,2.606-1.126,6.534-0.354,11.264c0.377,2.355,1.078,4.896,2.265,7.43c1.144,2.573,2.896,4.956,4.899,7.501
									c0.968,1.293,1.954,2.676,2.669,4.29c0.735,1.597,1.099,3.468,0.943,5.306c-0.293,3.717-2.12,7.018-3.483,10.383
									c-1.427,3.331-2.227,6.898-0.922,9.992c1.22,3.087,3.694,5.44,5.942,7.687c2.28,2.24,4.484,4.497,5.875,7.134
									c0.659,1.324,1.116,2.727,1.26,4.111c0.09,1.379,0.038,2.721-0.296,3.938c-1.237,4.959-4.7,7.788-7.154,8.918
									c-1.278,0.545-2.336,0.78-3.056,0.843c-0.725,0.045-1.1,0.046-1.102,0.001c-0.027-0.157,1.548-0.105,3.933-1.301
									c2.278-1.211,5.443-4.025,6.475-8.666c0.525-2.283,0.303-4.923-1.021-7.334c-1.324-2.418-3.453-4.564-5.76-6.78
									c-2.259-2.229-4.89-4.626-6.293-8.086c-0.686-1.711-0.924-3.663-0.667-5.541c0.24-1.884,0.866-3.68,1.574-5.412
									c1.412-3.446,3.153-6.657,3.416-9.982c0.353-3.343-1.414-6.268-3.3-8.779c-1.935-2.506-3.787-5.093-4.92-7.774
									c-1.191-2.655-1.862-5.302-2.191-7.741c-0.676-4.901,0.029-8.913,0.777-11.528c0.381-1.314,0.759-2.31,1.071-2.957
									C314.07,197.484,314.248,197.153,314.289,197.171z"/>
							</g>
						</g>
					</g>
				</g>
				<g>
					<g>
						<g>
							<g>
								<path style="fill:#455A64;" d="M164.246,228.564c-0.019,0.022-0.212-0.121-0.571-0.421
									c-0.367-0.291-0.862-0.782-1.451-1.474c-1.154-1.382-2.662-3.716-3.322-7.104c-0.67-3.302-0.413-7.881,2.452-11.875
									c2.752-3.921,7.96-7.179,14.068-6.885l-0.553,0.732c-1.119-3.14-1.965-6.663-1.685-10.403
									c0.217-3.705,1.986-7.662,5.35-10.043c1.635-1.215,3.698-1.988,5.851-2.001c2.179,0.01,4.185,0.85,6.042,1.709
									c1.861,0.859,3.681,1.828,5.598,2.156c1.904,0.341,3.867-0.197,5.288-1.567c2.128-1.993,3.09-4.957,3.277-7.864
									c0.235-2.942-0.052-5.937,0.255-8.928c0.61-5.999,3.486-11.365,7.367-15.156c3.884-3.857,8.871-5.937,13.537-6.574
									c4.699-0.633,9.134,0.098,12.715,1.599l-0.566,0.223c1.578-3.262,4.34-5.275,6.883-6.316
									c2.575-1.069,5.021-1.22,6.928-1.033c1.926,0.201,3.322,0.786,4.215,1.224c0.868,0.501,1.286,0.809,1.266,0.838
									c-0.062,0.172-1.768-1.285-5.521-1.584c-1.845-0.107-4.187,0.111-6.616,1.192c-2.402,1.051-4.952,3.015-6.355,6.048
									l-0.175,0.379l-0.391-0.156c-3.467-1.383-7.737-2.022-12.232-1.365c-4.47,0.666-9.182,2.686-12.848,6.378
									c-3.669,3.632-6.375,8.762-6.93,14.429c-0.288,2.829,0.005,5.809-0.23,8.906c-0.198,3.068-1.211,6.412-3.688,8.726
									c-1.654,1.625-4.178,2.318-6.391,1.893c-2.224-0.393-4.1-1.43-5.934-2.271c-1.822-0.854-3.656-1.596-5.498-1.605
									c-1.836,0.007-3.642,0.656-5.113,1.74c-3.035,2.14-4.664,5.658-4.898,9.121c-0.289,3.485,0.478,6.878,1.536,9.937
									l0.271,0.783l-0.825-0.049c-5.642-0.337-10.624,2.653-13.273,6.311c-2.756,3.706-3.106,8.036-2.551,11.239
									c0.543,3.277,1.913,5.593,2.96,7.01C163.559,227.883,164.305,228.5,164.246,228.564z"/>
							</g>
						</g>
					</g>
				</g>
				<g>
					<g>
						<g>
							<g>
								<path style="fill:#455A64;" d="M257.548,143.428c0.066,0.231-1.946-0.097-4.509,1.752
									c-2.556,1.808-4.768,6.185-5.418,11.738l-0.056,0.477l-0.47-0.039c-4.723-0.389-10.692,1.449-14.728,6.153
									c-0.972,1.169-1.827,2.538-2.366,3.987c-0.513,1.489-0.772,3.141-1.025,4.839c-0.257,1.698-0.491,3.462-1.025,5.237
									c-0.463,1.762-1.601,3.603-3.155,4.723c-3.319,2.591-7.394,3.039-10.957,3.606c-3.634,0.491-7.045,1.094-9.989,2.586
									c-5.945,2.881-9.857,7.882-11.572,12.528c-1.779,4.693-1.713,8.902-1.364,11.667c0.356,2.799,0.95,4.279,0.825,4.318
									c-0.042,0.015-0.207-0.344-0.484-1.047c-0.247-0.711-0.599-1.775-0.846-3.194c-0.511-2.802-0.737-7.138,0.998-12.066
									c1.675-4.885,5.687-10.201,11.91-13.292c3.083-1.605,6.733-2.272,10.333-2.773c3.563-0.567,7.43-1.068,10.332-3.363
									c2.855-2.012,3.165-5.798,3.72-9.126c0.263-1.702,0.532-3.416,1.113-5.07c0.634-1.66,1.552-3.082,2.62-4.35
									c4.402-5.023,10.739-6.844,15.745-6.332l-0.525,0.437c0.796-5.782,3.233-10.263,6.072-12.086
									c1.384-0.916,2.669-1.23,3.516-1.313C257.104,143.379,257.548,143.38,257.548,143.428z"/>
							</g>
						</g>
					</g>
				</g>
			</g>
			<g>
				<g>
					<g>
						<g>
							<g>
								<g>
									<g>
										<g>
											<g>
												<g>
													<g>
														<g>
															<g>
																<path style="fill:#EF9D78;" d="M223.058,196.874c2.852-5.587-0.98-12.614-7.253-12.6
																	c-3.444,0.008-7.148,1.874-10.227,7.778c-8.209,15.742,9.288,20.736,9.551,20.299
																	C215.293,212.079,219.719,203.416,223.058,196.874z"/>
															</g>
														</g>
													</g>
												</g>
											</g>
										</g>
									</g>
								</g>
							</g>
						</g>
					</g>
				</g>
				<g>
					<g>
						<g>
							<g>
								<g>
									<g>
										<g>
											<g>
												<g>
													<g>
														<g>
															<g>
																<g>
																	<path style="fill:#D37A57;" d="M213.432,203.878c-0.043-0.086-0.375,0.049-0.949,0.02
																		c-0.56-0.029-1.411-0.291-2.072-1.026c-1.344-1.478-1.368-4.848,0.035-7.725c0.707-1.453,1.718-2.661,2.815-3.526
																		c1.081-0.901,2.245-1.318,3.16-1.029c0.933,0.242,1.265,1.052,1.227,1.596c-0.019,0.55-0.283,0.812-0.213,0.883
																		c0.024,0.062,0.475-0.088,0.688-0.804c0.098-0.346,0.107-0.814-0.105-1.309c-0.217-0.504-0.691-0.95-1.307-1.191
																		c-1.258-0.549-2.933-0.002-4.138,0.946c-1.274,0.92-2.445,2.259-3.239,3.892c-1.553,3.225-1.478,7.04,0.455,8.884
																		c0.956,0.866,2.054,1.014,2.725,0.891C213.205,204.244,213.471,203.935,213.432,203.878z"/>
																</g>
															</g>
														</g>
													</g>
												</g>
											</g>
										</g>
									</g>
								</g>
							</g>
						</g>
					</g>
				</g>
			</g>
		</g>
	</g>
	<g>
		<g>
			<g>
				<path style="fill:#263238;" d="M207.375,415.489c-1.391-2.583-4.967-4.172-4.967-4.172l-2.98-7.351c0,0,1.192-2.583,0-5.762
					c-1.192-3.179-9.934-21.656-9.736-22.253l-2.262-0.133c0,0,8.058,19.554,8.852,20.548c0.795,0.993,1.954,6.812-0.033,7.606
					c-1.987,0.795-6.209-1.357-7.997-3.145c-1.788-1.788-7.483-15.241-8.476-18.023c-0.993-2.782,0.777-6.654,0.777-6.654
					l1.589-3.775h-2.185c0,0-1.391,3.974-2.186,7.749c-0.795,3.775,8.146,20.266,9.537,22.054c1.391,1.788,6.159,3.179,8.742,4.967
					c2.583,1.788,2.185,7.351,2.185,7.351s-2.185,2.98-2.384,6.557s7.749,20.464,13.113,24.041
					c5.364,3.576,11.722,0.993,12.318,1.192c0.596,0.199,1.987-2.782,1.987-2.782S208.766,418.072,207.375,415.489z
					 M214.699,445.021c-2.863-0.229-5.808-2.191-7.38-4.266c-0.652-0.861-7.607-12.966-8.505-15.22
					c-1.566-3.933-0.483-6.113,0.087-8.417c0.827-3.344,5.996-1.384,5.996-1.384s15.218,26.295,14.874,27.097
					C219.429,443.632,217.562,445.25,214.699,445.021z"/>
			</g>
			<g>
				<path style="fill:#263238;" d="M223.27,443.504c0,0,44.313-16.865,46.382-18.775c2.069-1.91,9.549-12.892,9.549-12.892
					s3.661,0.637,3.183,1.592c-0.478,0.955-7.48,11.937-14.961,15.12c-7.48,3.183-46.14,17.736-46.14,17.736L223.27,443.504z"/>
			</g>
		</g>
		<g>
			<g>
				<path style="fill:#E8505B;" d="M83.051,304.554L64.797,409.807c0,0-6.72,20.479-5.76,24.959
					c0.96,4.48,4.354,23.806,14.594,29.885c10.24,6.08,30.524,2.113,34.684-2.047c4.16-4.16,12.358-11.784,13.318-15.304
					c0.96-3.52,7.693-57.039,7.693-57.039l2.669-15.013c0,0-9.919,3.2-15.999-0.96c-6.08-4.16-14.079-22.079-14.079-22.079
					l-8.96,13.759L83.051,304.554z"/>
			</g>
			<g>
				<g>
					<path style="fill:#263238;" d="M101.915,352.21c0.015,0.01-0.106,0.215-0.349,0.594c-0.277,0.42-0.636,0.966-1.083,1.644
						c-0.942,1.426-2.299,3.493-3.931,6.076c-3.283,5.154-7.666,12.371-12.456,20.373c-4.79,8.007-9.111,15.265-12.323,20.469
						c-1.602,2.604-2.925,4.696-3.857,6.13c-0.45,0.677-0.812,1.221-1.09,1.64c-0.254,0.372-0.395,0.562-0.41,0.553
						c-0.015-0.01,0.096-0.219,0.321-0.609c0.257-0.432,0.591-0.994,1.007-1.692c0.909-1.52,2.17-3.629,3.714-6.213
						c3.147-5.304,7.444-12.545,12.192-20.546c4.791-8.005,9.227-15.197,12.593-20.306c1.674-2.56,3.079-4.599,4.074-5.991
						c0.48-0.656,0.867-1.183,1.164-1.59C101.751,352.383,101.9,352.199,101.915,352.21z"/>
				</g>
			</g>
			<g>
				<g>
					<path style="fill:#263238;" d="M129.699,388.157c0.013,0.013-0.117,0.163-0.377,0.437c-0.268,0.266-0.632,0.694-1.175,1.166
						c-1.055,0.971-2.704,2.295-5.046,3.411c-1.178,0.529-2.523,1.03-4.033,1.272c-1.5,0.274-3.153,0.353-4.856,0.118
						c-1.701-0.221-3.46-0.676-5.179-1.399c-1.714-0.733-3.407-1.661-5.032-2.794c-1.595-1.173-3.003-2.504-4.233-3.902
						c-1.198-1.427-2.219-2.911-3.052-4.405c-1.658-2.995-2.564-5.977-3.029-8.508c-0.456-2.541-0.485-4.639-0.409-6.074
						c0.026-0.719,0.121-1.272,0.158-1.648c0.047-0.375,0.08-0.571,0.098-0.569c0.046,0.005-0.017,0.797-0.053,2.223
						c-0.013,1.426,0.072,3.5,0.568,5.999c0.506,2.489,1.435,5.413,3.087,8.343c0.83,1.461,1.841,2.911,3.019,4.306
						c1.211,1.366,2.592,2.665,4.151,3.813c1.585,1.104,3.251,2.023,4.924,2.746c1.679,0.714,3.39,1.166,5.043,1.394
						c1.655,0.242,3.26,0.18,4.722-0.068c1.473-0.217,2.791-0.685,3.954-1.182c2.313-1.05,3.977-2.31,5.064-3.228
						C129.096,388.679,129.665,388.124,129.699,388.157z"/>
				</g>
			</g>
			<g>
				<path style="fill:#EF9D78;" d="M101.915,352.21l13.654-8.781c0,0,36.405-14.79,40.103-15.643c3.697-0.853,7.964-2.56,9.955,0
					c1.991,2.56,22.753,17.634,22.753,17.634s12.23,23.038,12.23,26.166s3.413,7.133,0,8.259c-3.413,1.126-3.413,1.126-3.413,1.126
					s-1.138,5.578-5.404,6.202c-4.266,0.624-5.688,0-5.688,0s-0.284,5.579-3.697,5.235c-3.413-0.345-9.101-5.235-9.101-5.235
					s-2.56,2.899-4.551,2.899c-1.991,0-8.248-4.266-8.248-4.266l-12.098-10.523l-10.655-3.697l-5.76,3.663
					c0,0-12.305,1.047-14.152,0.043C115.994,374.289,101.915,352.21,101.915,352.21z"/>
			</g>
			<g>
				<g>
					<path style="fill:#D37A57;" d="M171.817,388.157c-0.035,0.01-0.257-0.566-0.627-1.613c-0.178-0.526-0.406-1.166-0.717-1.891
						c-0.304-0.727-0.609-1.572-1.05-2.462c-0.412-0.902-0.869-1.887-1.436-2.906c-0.521-1.043-1.182-2.099-1.852-3.224
						c-1.407-2.209-3.094-4.548-5.076-6.83c-2.005-2.264-4.106-4.242-6.112-5.924c-1.028-0.811-1.989-1.604-2.955-2.257
						c-0.937-0.695-1.853-1.276-2.694-1.802c-0.825-0.553-1.623-0.965-2.304-1.361c-0.679-0.403-1.283-0.712-1.782-0.957
						c-0.99-0.504-1.532-0.799-1.518-0.832c0.014-0.033,0.584,0.2,1.606,0.65c0.514,0.218,1.135,0.502,1.831,0.883
						c0.699,0.374,1.515,0.767,2.358,1.303c0.859,0.51,1.795,1.078,2.75,1.764c0.985,0.643,1.965,1.43,3.011,2.239
						c2.043,1.678,4.175,3.666,6.2,5.952c2.002,2.305,3.695,4.678,5.093,6.921c0.665,1.142,1.318,2.216,1.827,3.277
						c0.555,1.037,0.996,2.038,1.39,2.957c0.422,0.906,0.705,1.766,0.985,2.508c0.287,0.74,0.487,1.392,0.637,1.931
						C171.695,387.552,171.852,388.147,171.817,388.157z"/>
				</g>
			</g>
			<g>
				<g>
					<path style="fill:#D37A57;" d="M186.079,387.807c-0.015,0.009-0.12-0.141-0.307-0.438c-0.179-0.3-0.47-0.73-0.779-1.319
						c-0.632-1.172-1.434-2.93-2.221-5.176c-0.795-2.243-1.558-4.969-2.461-7.966c-0.926-2.981-2.004-6.27-3.844-9.352
						c-1.804-3.106-4.334-5.502-6.841-7.334c-2.521-1.837-4.945-3.316-6.794-4.83c-1.865-1.489-3.159-2.968-3.863-4.105
						c-0.344-0.574-0.595-1.027-0.723-1.356c-0.142-0.321-0.208-0.492-0.191-0.5c0.055-0.026,0.336,0.658,1.083,1.742
						c0.745,1.085,2.051,2.494,3.922,3.929c1.855,1.459,4.285,2.897,6.849,4.731c2.555,1.832,5.159,4.276,7.005,7.454
						c1.879,3.15,2.952,6.482,3.857,9.482c0.881,3.015,1.604,5.741,2.35,7.985c0.737,2.247,1.48,4.011,2.053,5.203
						C185.763,387.14,186.117,387.784,186.079,387.807z"/>
				</g>
			</g>
			<g>
				<g>
					<path style="fill:#D37A57;" d="M196.339,381.213c-0.018,0.003-0.07-0.168-0.154-0.496c-0.092-0.387-0.204-0.861-0.341-1.437
						c-0.134-0.627-0.31-1.39-0.568-2.263c-0.251-0.874-0.488-1.883-0.872-2.962c-0.351-1.089-0.742-2.279-1.253-3.524
						c-0.456-1.266-1.068-2.567-1.682-3.947c-1.307-2.724-2.915-5.639-4.863-8.533c-1.976-2.876-4.097-5.443-6.15-7.66
						c-1.059-1.078-2.044-2.125-3.054-3.015c-0.97-0.932-1.933-1.733-2.817-2.46c-0.862-0.754-1.713-1.345-2.434-1.9
						c-0.717-0.561-1.362-1.005-1.896-1.36c-0.486-0.339-0.886-0.618-1.211-0.845c-0.274-0.198-0.414-0.31-0.404-0.325
						c0.009-0.015,0.167,0.066,0.46,0.236c0.341,0.206,0.759,0.458,1.267,0.765c0.553,0.33,1.217,0.751,1.954,1.293
						c0.741,0.535,1.612,1.109,2.495,1.849c0.904,0.713,1.888,1.503,2.878,2.428c1.03,0.882,2.034,1.926,3.11,3.004
						c2.089,2.217,4.24,4.796,6.233,7.697c1.965,2.919,3.574,5.866,4.867,8.624c0.607,1.397,1.208,2.715,1.65,3.996
						c0.497,1.261,0.87,2.466,1.201,3.569c0.364,1.093,0.578,2.114,0.803,3c0.233,0.884,0.38,1.657,0.484,2.293
						c0.098,0.585,0.18,1.068,0.246,1.46C196.338,381.033,196.356,381.21,196.339,381.213z"/>
				</g>
			</g>
			<g>
				<g>
					<path style="fill:#D37A57;" d="M142.759,342.388c0.014,0.085-0.706,0.195-1.757,0.648c-1.044,0.444-2.416,1.306-3.462,2.686
						c-1.045,1.382-1.503,2.936-1.647,4.062c-0.152,1.134-0.062,1.857-0.148,1.867c-0.055,0.013-0.281-0.704-0.219-1.902
						c0.054-1.184,0.48-2.862,1.598-4.341c1.119-1.477,2.62-2.342,3.744-2.715C142.005,342.309,142.756,342.331,142.759,342.388z"/>
				</g>
			</g>
			<g>
				<g>
					<path style="fill:#D37A57;" d="M152.901,332.752c0.083,0.134-1.683,1.252-3.423,3.107c-1.757,1.84-2.776,3.664-2.915,3.589
						c-0.121-0.047,0.719-2.04,2.537-3.947C150.903,333.583,152.847,332.634,152.901,332.752z"/>
				</g>
			</g>
		</g>
	</g>
	<g>
		<g>
			<g>
				<g>
					<g>
						<path style="fill:#EF9D78;" d="M295.611,214.005c-1.729,0.715-2.079,2.781-2.052,4.652c0.034,2.342,0.624,2.723,2.536,6.646
							c3.124,6.412,6.863,18.566,6.863,18.566s-3.065,30.701-1.047,37.908c1.822,6.506,7.969,8.171,7.969,8.171l-2.798,23.713
							h33.489c0,0-1.191-22.951-1.91-29.946c-0.76-7.399-0.253-52.152-0.253-52.152l-3.291-23.896l-7.756-13.412
							c0,0-4.035,2.427-2.286,7.343c1.749,4.916,2.903,14.344,2.903,14.344l-19.39-29.185c0,0-3.811,0.911-4.04,7.965
							c0,0-5.64,3.67-2.012,9.626c4.052,6.651,8.264,26.635,6.784,26.635l-12.031-17.67L295.611,214.005z"/>
					</g>
				</g>
				<g>
					<g>
						<g>
							<path style="fill:#D37A57;" d="M307.08,313.66c0,0,0.04-0.535,0.151-1.572c0.116-1.05,0.286-2.586,0.509-4.592
								c0.463-4.043,1.141-9.969,2.011-17.565l0.094,0.14c-1.499-0.474-2.953-1.268-4.265-2.366
								c-1.316-1.089-2.452-2.522-3.202-4.221c-0.802-1.688-1.007-3.639-1.175-5.592c-0.116-1.968-0.164-4.003-0.142-6.1
								c0.092-8.388,0.741-17.763,1.687-27.945l0.008,0.082c-1.568-4.938-3.304-10.149-5.482-15.428
								c-0.55-1.318-1.137-2.63-1.796-3.928c-0.623-1.318-1.435-2.543-1.913-4.026c-0.215-0.752-0.246-1.528-0.24-2.287
								c0.017-0.763,0.087-1.541,0.332-2.296c0.234-0.747,0.684-1.496,1.401-1.935c0.362-0.226,0.727-0.348,1.074-0.498l1.062-0.44
								l0.179-0.074l0.109,0.161c3.99,5.854,8.212,12.047,12.554,18.417l-0.452,0.092c0.194-1.481,0.107-3.075-0.061-4.626
								c-0.187-1.559-0.435-3.127-0.801-4.682c-0.694-3.117-1.67-6.214-2.802-9.287c-1.103-3.095-2.491-6.087-3.843-9.178
								c-0.641-1.573-0.978-3.374-0.542-5.093c0.396-1.72,1.429-3.246,2.863-4.316l-0.114,0.185c0.191-1.48,0.477-3.021,1.069-4.509
								c0.294-0.743,0.676-1.468,1.173-2.127c0.513-0.648,1.098-1.262,2.002-1.552l0.163-0.052l0.108,0.163
								c0.071,0.106,0.148,0.222,0.224,0.338c6.56,9.876,12.971,19.528,19.162,28.849l-0.466,0.173
								c-0.513-3.889-1.132-7.732-2.046-11.434c-0.232-0.924-0.491-1.837-0.796-2.727c-0.305-0.916-0.531-1.893-0.482-2.879
								c0.075-1.992,1.216-3.808,2.835-4.89l0.209-0.14l0.132,0.228c2.648,4.585,5.23,9.056,7.748,13.416l0.023,0.041l0.006,0.046
								c1.145,8.359,2.237,16.335,3.272,23.898l0.002,0.016l0,0.016c-0.139,12.378-0.212,23.703-0.196,33.726
								c0.012,5.011,0.038,9.698,0.154,14.025c0.061,2.166,0.183,4.223,0.383,6.204c0.165,1.978,0.289,3.866,0.41,5.656
								c0.462,7.163,0.748,12.784,0.943,16.614c0.089,1.906,0.158,3.369,0.205,4.371c0.042,0.989,0.045,1.499,0.045,1.499
								s-0.049-0.508-0.113-1.496c-0.062-1.001-0.152-2.463-0.27-4.367c-0.237-3.827-0.563-9.447-1.063-16.604
								c-0.131-1.789-0.263-3.675-0.437-5.649c-0.208-1.966-0.341-4.056-0.41-6.219c-0.134-4.332-0.176-9.02-0.203-14.033
								c-0.047-10.026-0.001-21.352,0.115-33.732l0.002,0.032c-1.048-7.562-2.152-15.536-3.31-23.893l0.03,0.086
								c-2.523-4.357-5.111-8.825-7.764-13.407l0.341,0.088c-1.459,0.98-2.536,2.676-2.591,4.489
								c-0.043,0.91,0.163,1.806,0.457,2.691c0.313,0.91,0.576,1.835,0.811,2.768c0.925,3.739,1.547,7.583,2.065,11.495l0.145,1.092
								l-0.611-0.92c-6.194-9.319-12.607-18.97-19.17-28.844c-0.077-0.116-0.154-0.231-0.225-0.338l0.271,0.11
								c-0.636,0.201-1.251,0.767-1.698,1.36c-0.459,0.608-0.821,1.293-1.103,2.003c-0.567,1.424-0.848,2.928-1.036,4.378
								l-0.014,0.111l-0.1,0.074c-1.293,0.964-2.293,2.419-2.647,4.002c-0.405,1.589-0.096,3.274,0.516,4.779
								c1.333,3.051,2.742,6.094,3.845,9.195c1.137,3.091,2.117,6.208,2.816,9.355c0.368,1.569,0.618,3.155,0.806,4.737
								c0.166,1.59,0.264,3.162,0.051,4.778l-0.084,0.635l-0.369-0.542c-4.335-6.374-8.55-12.572-12.534-18.43l0.288,0.086
								c-0.685,0.303-1.473,0.562-2.065,0.898c-0.599,0.364-0.99,0.996-1.206,1.68c-0.225,0.686-0.296,1.425-0.312,2.158
								c-0.007,0.737,0.024,1.47,0.219,2.153c0.43,1.357,1.252,2.632,1.875,3.948c0.661,1.306,1.253,2.637,1.803,3.96
								c2.18,5.309,3.905,10.523,5.467,15.478l0.012,0.039l-0.004,0.043c-0.966,10.167-1.639,19.539-1.758,27.906
								c-0.029,2.092,0.013,4.119,0.121,6.075c0.161,1.945,0.352,3.843,1.127,5.49c1.45,3.341,4.4,5.518,7.256,6.462l0.107,0.035
								l-0.013,0.104c-0.922,7.589-1.642,13.511-2.133,17.55c-0.251,2.003-0.443,3.537-0.575,4.585
								C307.166,313.131,307.08,313.66,307.08,313.66z"/>
						</g>
					</g>
				</g>
			</g>
			<g>
				<g>
					<path style="fill:#D37A57;" d="M321.88,233.552c-0.036,0.005-0.163-0.585-0.363-1.655c-0.183-1.072-0.51-2.612-0.941-4.505
						c-0.896-3.776-2.434-8.94-4.95-14.306c-2.495-5.377-5.372-9.93-7.542-13.152c-1.084-1.614-1.985-2.906-2.612-3.795
						c-0.624-0.892-0.956-1.395-0.928-1.417c0.029-0.022,0.415,0.441,1.091,1.296c0.678,0.853,1.626,2.115,2.753,3.707
						c2.253,3.178,5.199,7.726,7.712,13.142c2.534,5.405,4.03,10.631,4.837,14.445c0.387,1.913,0.66,3.469,0.782,4.554
						C321.856,232.947,321.916,233.547,321.88,233.552z"/>
				</g>
			</g>
			<g>
				<g>
					<path style="fill:#D37A57;" d="M332.281,226.1c-0.133,0.055-1.229-2.271-2.448-5.196c-1.22-2.926-2.1-5.342-1.968-5.397
						c0.133-0.055,1.229,2.271,2.448,5.197C331.533,223.628,332.414,226.044,332.281,226.1z"/>
				</g>
			</g>
		</g>
		<g>
			<path style="fill:#E8505B;" d="M304.405,303.843L304.405,303.843c-5.874,51.873-13.529,107.093-22.327,164.461h68.171h0
				c12.816-28.379,4.979-53.141,1.56-88.434l-11.242-80.13L304.405,303.843z"/>
		</g>
	</g>
	<g>
		<g>
			<path style="fill:#263238;" d="M282.079,468.304c-0.009-0.001-0.001-0.116,0.024-0.338c0.031-0.249,0.071-0.574,0.122-0.984
				c0.123-0.896,0.297-2.162,0.519-3.777c0.48-3.309,1.167-8.041,2.013-13.874c1.725-11.739,4.101-27.903,6.725-45.757
				c2.571-17.882,4.745-34.089,6.178-45.838c0.728-5.873,1.28-10.63,1.653-13.918c0.19-1.618,0.338-2.887,0.443-3.785
				c0.054-0.41,0.096-0.734,0.128-0.983c0.032-0.221,0.052-0.334,0.061-0.333c0.009,0.001,0.006,0.116-0.008,0.339
				c-0.02,0.25-0.045,0.577-0.077,0.988c-0.082,0.901-0.198,2.173-0.346,3.796c-0.312,3.296-0.808,8.06-1.489,13.941
				c-1.339,11.764-3.457,27.984-6.028,45.868c-2.574,17.878-5.06,34.041-6.876,45.738c-0.915,5.823-1.657,10.546-2.177,13.849
				c-0.263,1.608-0.469,2.869-0.615,3.762c-0.072,0.407-0.129,0.729-0.173,0.977C282.113,468.193,282.088,468.305,282.079,468.304z"
				/>
		</g>
	</g>
</g>
<g id="Device">
	<g>
		<g>
			<g>
				<g>
					<path style="fill:#455A64;" d="M429.782,467.85H235.387l25.083-136.431c0.89-4.839,5.108-8.353,10.029-8.353h174.671
						c6.401,0,11.219,5.828,10.015,12.115L429.782,467.85z"/>
				</g>
			</g>
			<g>
				<g>
					<path style="fill:#455A64;" d="M235.387,467.85h-73.733l0.296-0.222c6.577-4.933,14.518-7.712,22.736-7.956l52.728-1.551
						L235.387,467.85z"/>
				</g>
			</g>
		</g>
		<g>
			<g>
				<g>
					<path style="fill:#263238;" d="M282.079,323.252c-0.008,0.049-0.541-0.1-1.572-0.108c-1.022-0.007-2.568,0.202-4.318,1.071
						c-1.738,0.857-3.677,2.392-5.181,4.714c-1.503,2.332-2.521,5.376-3.175,8.819c-0.635,3.45-1.193,7.283-1.881,11.37
						c-0.703,4.087-1.453,8.454-2.312,13.036c-1.693,9.17-3.701,19.223-5.883,29.757c-4.39,21.071-8.453,40.12-11.11,53.966
						c-1.337,6.921-2.369,12.531-3.067,16.41c-0.346,1.899-0.617,3.393-0.813,4.466c-0.094,0.476-0.17,0.857-0.23,1.159
						c-0.056,0.26-0.09,0.393-0.103,0.391c-0.012-0.002-0.002-0.138,0.029-0.403c0.041-0.304,0.093-0.69,0.158-1.17
						c0.163-1.079,0.39-2.581,0.679-4.49c0.613-3.896,1.568-9.522,2.841-16.459c2.529-13.877,6.514-32.952,10.903-54.018
						c2.181-10.532,4.208-20.576,5.936-29.733c0.877-4.576,1.648-8.936,2.377-13.015c0.714-4.084,1.298-7.891,1.971-11.369
						c0.691-3.467,1.763-6.568,3.337-8.939c1.583-2.371,3.597-3.907,5.399-4.748c1.813-0.851,3.405-1.018,4.444-0.963
						C281.558,323.054,282.079,323.252,282.079,323.252z"/>
				</g>
			</g>
		</g>
		<g>
			<g>
				<path style="fill:#F5F5F5;" d="M364.176,392.388c0,5.191-4.208,9.399-9.399,9.399c-5.191,0-9.399-4.208-9.399-9.399
					s4.208-9.399,9.399-9.399C359.968,382.99,364.176,387.197,364.176,392.388z"/>
			</g>
		</g>
	</g>
</g>
<g id="Desk">
	<g>
		<g>
			<path style="fill:#263238;" d="M477.619,468.008c0,0.144-102.365,0.26-228.608,0.26c-126.288,0-228.63-0.117-228.63-0.26
				s102.343-0.26,228.63-0.26C375.255,467.747,477.619,467.864,477.619,468.008z"/>
		</g>
	</g>
</g>
<g id="Lighting_bolts">
	<g>
		<g>
			<polygon style="fill:#E8505B;" points="206.576,109.808 203.906,84.697 191.097,87.588 180.062,68.091 186.938,94.453 
				199.93,91.474 			"/>
		</g>
		<g>
			<polygon style="fill:#E8505B;" points="201.362,114.554 189.46,102.303 183.849,109.189 169.838,103.419 184.501,114.579 
				190.173,107.57 			"/>
		</g>
	</g>
	<g>
		<g>
			<polygon style="fill:#E8505B;" points="330.004,125.383 340.82,105.702 350.334,112.474 366.083,100.272 351.387,119.534 
				341.753,112.627 			"/>
		</g>
		<g>
			<polygon style="fill:#E8505B;" points="349.854,136.611 361.039,131.84 362.829,137.904 373.617,137.968 360.919,141.264 
				359.122,135.102 			"/>
		</g>
	</g>
</g>
<g id="Line">
	<g>
		<g>
			<path style="fill:#263238;" d="M272.232,60.15c0,0,0.449-0.286,1.345-0.83c0.909-0.52,2.274-1.287,4.169-2.091
				c3.749-1.598,9.728-3.562,17.692-3.262c0.989,0.048,2.009,0.108,3.048,0.25c1.04,0.113,2.112,0.281,3.179,0.58
				c1.066,0.297,2.143,0.693,3.154,1.284c0.998,0.597,1.961,1.387,2.572,2.472c0.641,1.062,0.841,2.394,0.619,3.663
				c-0.246,1.277-0.964,2.437-1.851,3.425c-1.828,1.958-4.328,3.333-7.025,4.254c-5.357,1.973-11.542,3.032-18.073,2.586
				c-6.511-0.425-13.394-2.288-19.696-6.044l-0.142-0.085l0.087-0.142c2.406-3.933,6.069-7.218,10.383-9.536
				c4.318-2.325,9.28-3.756,14.463-4.142c5.186-0.39,10.555,0.128,15.898,1.286c2.675,0.574,5.354,1.285,8.031,2.112
				c2.671,0.826,5.394,1.694,7.954,3.045c2.547,1.332,4.929,3.255,6.409,5.864c0.728,1.296,1.259,2.736,1.393,4.25
				c0.157,1.51-0.135,3.058-0.735,4.459c-1.252,2.837-3.807,4.85-6.499,6.281c-2.723,1.453-5.728,2.361-8.759,3.071
				c-12.125,2.974-25.374,3.459-38.539,0.981c-0.826-0.136-1.642-0.335-2.464-0.505c-0.824-0.167-1.643-0.361-2.459-0.574
				c-1.636-0.391-3.289-0.835-4.872-1.493c-1.584-0.643-3.123-1.474-4.451-2.609c-1.317-1.126-2.4-2.669-2.69-4.447
				c-0.33-1.762,0.142-3.628,1.118-5.108c0.962-1.503,2.302-2.704,3.733-3.731c1.44-1.027,3.018-1.839,4.613-2.583
				c0.787-0.399,1.6-0.744,2.417-1.087c0.81-0.357,1.631-0.691,2.469-0.985c6.648-2.492,13.816-3.883,21.098-3.994
				c3.64-0.061,7.307,0.187,10.945,0.762c0.911,0.135,1.82,0.289,2.722,0.493c0.905,0.186,1.812,0.366,2.704,0.617
				c1.796,0.438,3.595,0.96,5.312,1.716c1.716,0.742,3.376,1.686,4.802,2.948c1.421,1.25,2.584,2.898,3.027,4.793l0.147,0.711
				l0.059,0.723c0.066,0.482-0.012,0.967-0.031,1.451c-0.148,0.954-0.388,1.909-0.839,2.767c-0.83,1.756-2.169,3.197-3.618,4.439
				c-1.461,1.245-3.095,2.266-4.798,3.146c-0.849,0.448-1.73,0.832-2.608,1.205c-0.875,0.387-1.763,0.743-2.658,1.087
				c-3.572,1.393-7.261,2.53-11.032,3.39c-7.535,1.746-15.389,2.41-23.237,1.917c-3.922-0.248-7.907-1.067-11.428-3.006
				c-1.736-0.98-3.364-2.278-4.466-4.001c-1.088-1.723-1.598-3.8-1.441-5.839c0.136-1.675,0.749-3.279,1.625-4.68
				c0.876-1.408,1.987-2.646,3.214-3.73c2.457-2.174,5.35-3.782,8.333-5.014c5.952-2.534,12.291-4.031,18.654-4.497
				c3.182-0.234,6.372-0.212,9.528,0.066c1.578,0.139,3.148,0.337,4.703,0.61c1.553,0.254,3.116,0.578,4.609,1.111
				c1.491,0.527,2.952,1.183,4.244,2.12c1.288,0.921,2.447,2.121,3.058,3.63c0.649,1.483,0.67,3.208,0.153,4.722
				c-0.51,1.523-1.478,2.844-2.651,3.894c-2.396,2.119-5.5,3.006-8.447,3.725c-2.975,0.706-5.932,1.408-8.891,2.06
				c-5.913,1.306-11.836,2.407-17.775,2.877c-5.93,0.497-11.884,0.28-17.616-0.85c-5.72-1.14-11.22-3.268-15.944-6.501l-0.257-0.176
				l0.234-0.206c8.223-7.238,18.471-11.571,28.766-13.054c10.315-1.494,20.768-0.148,29.833,3.852
				c1.111,0.558,2.185,1.205,3.121,2.033c0.941,0.811,1.745,1.83,2.163,3.03c0.399,1.206,0.334,2.545-0.175,3.697
				c-0.522,1.148-1.394,2.073-2.361,2.806c-1.953,1.485-4.253,2.273-6.478,3.024c-2.25,0.72-4.538,1.26-6.833,1.623
				c-4.596,0.703-9.216,0.712-13.663,0.005c-1.105-0.206-2.249-0.521-3.157-1.277c-0.923-0.737-1.375-1.999-1.153-3.152
				c0.249-1.149,0.955-2.09,1.751-2.855c0.798-0.776,1.727-1.386,2.699-1.89c7.922-3.565,16.453-4.685,24.367-3.82
				c1.978,0.221,3.942,0.588,5.766,1.327c1.815,0.724,3.503,1.859,4.64,3.433c1.143,1.545,1.81,3.476,1.592,5.381
				c-0.21,1.924-1.42,3.534-2.799,4.695c-1.389,1.194-2.965,2.054-4.49,2.93c-1.555,0.826-3.118,1.591-4.716,2.209
				c-3.181,1.27-6.414,2.14-9.599,2.654c-6.379,1.029-12.544,0.607-17.992-0.783l-0.185-0.047l0.112-0.154
				c2.647-3.639,6.301-6.107,10.007-7.47c3.721-1.361,7.539-1.679,10.922-1.075c1.693,0.27,3.301,0.821,4.616,1.731
				c0.651,0.46,1.218,1.021,1.634,1.667c0.398,0.653,0.67,1.376,0.736,2.107c0.163,1.474-0.376,2.853-1.099,3.937
				c-0.72,1.105-1.649,1.962-2.579,2.67c-1.886,1.423-3.905,2.024-5.531,2.687c-1.653,0.627-3.017,1.214-4.052,1.803
				c-1.031,0.593-1.741,1.156-2.174,1.573c-0.228,0.197-0.37,0.375-0.48,0.479c-0.106,0.109-0.162,0.16-0.162,0.16
				s0.189-0.24,0.618-0.665c0.427-0.427,1.133-1.002,2.164-1.608c1.034-0.602,2.4-1.201,4.049-1.839
				c1.625-0.674,3.631-1.285,5.487-2.7c0.916-0.704,1.831-1.556,2.533-2.645c0.706-1.069,1.222-2.414,1.059-3.834
				c-0.066-0.706-0.332-1.402-0.717-2.031c-0.404-0.623-0.955-1.164-1.591-1.611c-1.285-0.884-2.869-1.424-4.543-1.685
				c-3.35-0.588-7.13-0.263-10.81,1.094c-3.665,1.358-7.272,3.808-9.876,7.405l-0.073-0.201c5.417,1.369,11.545,1.776,17.881,0.742
				c3.164-0.517,6.372-1.386,9.529-2.653c1.585-0.616,3.136-1.379,4.678-2.201c1.512-0.87,3.079-1.732,4.429-2.898
				c1.345-1.137,2.484-2.674,2.677-4.483c0.204-1.797-0.432-3.648-1.535-5.135c-1.095-1.511-2.718-2.602-4.493-3.309
				c-1.78-0.719-3.714-1.079-5.673-1.295c-7.844-0.852-16.333,0.282-24.15,3.81c-0.938,0.487-1.839,1.081-2.6,1.824
				c-0.763,0.732-1.415,1.625-1.633,2.645c-0.19,1.01,0.197,2.108,1.02,2.767c0.81,0.677,1.893,0.988,2.968,1.184
				c4.387,0.692,8.977,0.682,13.525-0.02c2.274-0.362,4.539-0.899,6.767-1.614c2.209-0.746,4.475-1.532,6.346-2.962
				c0.929-0.706,1.745-1.583,2.224-2.638c0.465-1.057,0.522-2.277,0.158-3.38c-0.384-1.099-1.134-2.059-2.038-2.837
				c-0.897-0.792-1.941-1.423-3.026-1.966c-8.95-3.941-19.345-5.281-29.568-3.789c-10.212,1.477-20.371,5.782-28.512,12.954
				l-0.023-0.382c4.663,3.188,10.099,5.291,15.766,6.417c5.68,1.116,11.583,1.331,17.479,0.834
				c5.904-0.469,11.804-1.567,17.706-2.872c2.952-0.651,5.912-1.355,8.88-2.06c2.932-0.713,5.954-1.595,8.226-3.611
				c1.117-0.999,2.032-2.256,2.506-3.675c0.479-1.409,0.458-2.991-0.142-4.363c-0.562-1.392-1.647-2.525-2.883-3.408
				c-1.237-0.898-2.659-1.538-4.114-2.051c-1.46-0.521-2.98-0.836-4.527-1.089c-1.541-0.269-3.097-0.466-4.661-0.603
				c-3.128-0.275-6.29-0.297-9.445-0.064c-6.308,0.463-12.591,1.947-18.489,4.459c-2.959,1.222-5.786,2.798-8.191,4.924
				c-2.363,2.096-4.401,4.865-4.666,8.066c-0.146,1.924,0.335,3.886,1.361,5.513c1.041,1.629,2.598,2.877,4.283,3.827
				c3.416,1.883,7.34,2.698,11.207,2.941c7.796,0.49,15.6-0.169,23.088-1.903c3.747-0.854,7.413-1.983,10.962-3.366
				c0.889-0.342,1.772-0.696,2.641-1.08c0.876-0.372,1.742-0.749,2.576-1.189c1.674-0.864,3.279-1.868,4.702-3.08
				c1.412-1.209,2.703-2.605,3.489-4.27c0.429-0.815,0.651-1.711,0.792-2.605c0.016-0.453,0.093-0.907,0.029-1.359l-0.054-0.679
				l-0.138-0.666c-0.414-1.774-1.503-3.329-2.869-4.532c-1.369-1.212-2.984-2.136-4.666-2.863c-1.682-0.742-3.447-1.256-5.234-1.692
				c-0.885-0.249-1.785-0.427-2.682-0.612c-0.894-0.203-1.795-0.355-2.699-0.49c-3.608-0.571-7.246-0.819-10.857-0.76
				c-7.225,0.107-14.338,1.484-20.935,3.954c-0.832,0.292-1.646,0.622-2.45,0.976c-0.81,0.339-1.617,0.681-2.398,1.077
				c-1.589,0.74-3.135,1.536-4.543,2.538c-1.398,1.001-2.694,2.168-3.606,3.594c-0.926,1.407-1.355,3.127-1.052,4.765
				c0.268,1.647,1.268,3.087,2.529,4.168c1.27,1.087,2.767,1.901,4.318,2.531c1.552,0.647,3.171,1.084,4.806,1.475
				c0.812,0.212,1.627,0.406,2.446,0.573c0.818,0.17,1.629,0.369,2.451,0.504c13.095,2.474,26.28,2.001,38.347-0.949
				c3.026-0.705,5.98-1.599,8.66-3.025c2.648-1.402,5.121-3.366,6.313-6.069c0.573-1.337,0.854-2.81,0.705-4.249
				c-0.126-1.444-0.634-2.83-1.336-4.082c-1.429-2.524-3.734-4.396-6.238-5.71c-2.513-1.331-5.216-2.197-7.88-3.024
				c-2.667-0.828-5.334-1.538-7.995-2.112c-5.315-1.158-10.645-1.678-15.788-1.298c-5.136,0.377-10.05,1.787-14.325,4.081
				c-4.271,2.287-7.891,5.526-10.27,9.4l-0.055-0.227c6.246,3.736,13.079,5.598,19.546,6.033c6.488,0.454,12.637-0.586,17.965-2.534
				c2.686-0.909,5.142-2.26,6.939-4.173c0.869-0.964,1.565-2.086,1.803-3.308c0.215-1.213,0.029-2.491-0.584-3.511
				c-0.582-1.043-1.513-1.814-2.488-2.401c-0.988-0.582-2.049-0.975-3.101-1.272c-1.055-0.299-2.112-0.468-3.15-0.584
				c-1.033-0.144-2.048-0.208-3.033-0.259c-7.928-0.327-13.897,1.601-17.649,3.168c-1.897,0.789-3.267,1.541-4.182,2.047
				C272.698,59.889,272.232,60.15,272.232,60.15z"/>
		</g>
	</g>
</g>
</svg>
