<?xml version="1.0" encoding="utf-8"?>
<!-- Generator: Adobe Illustrator 27.5.0, SVG Export Plug-In . SVG Version: 6.00 Build 0)  -->
<svg version="1.1" xmlns="http://www.w3.org/2000/svg" xmlns:xlink="http://www.w3.org/1999/xlink" x="0px" y="0px"
	 viewBox="0 0 750 500" style="enable-background:new 0 0 750 500;" xml:space="preserve">
<g id="Background_Complete">
	<g>
		<g>
			
				<ellipse transform="matrix(0.9737 -0.228 0.228 0.9737 -83.5782 93.6373)" style="fill:#E0E0E0;" cx="363.408" cy="408.487" rx="17.478" ry="17.478"/>
		</g>
		<g>
			
				<ellipse transform="matrix(0.7071 -0.7071 0.7071 0.7071 -172.2115 400.6394)" style="fill:#EBEBEB;" cx="397.509" cy="408.197" rx="17.478" ry="17.478"/>
		</g>
		<g>
			
				<ellipse transform="matrix(0.7071 -0.7071 0.7071 0.7071 -192.1875 352.413)" style="fill:#EBEBEB;" cx="329.306" cy="408.197" rx="17.478" ry="17.478"/>
		</g>
		<g>
			<path style="fill:#E0E0E0;" d="M306.076,411.958h114.16c0,0-1.174,47.077-31.823,52.836l-0.478,9.997h-51.411v-10.177
				C336.524,464.614,306.075,456.82,306.076,411.958z"/>
		</g>
		<g>
			<g>
				<path style="fill:#FFFFFF;" d="M388.413,464.794c0,0.164-11.653,0.297-26.024,0.297c-14.376,0-26.027-0.133-26.027-0.297
					c0-0.164,11.65-0.297,26.027-0.297C376.76,464.497,388.413,464.63,388.413,464.794z"/>
			</g>
		</g>
		<g>
			<g>
				<path style="fill:#FFFFFF;" d="M415.816,436.218c0,0-0.247,0.04-0.731,0.089c-0.506,0.043-1.221,0.105-2.152,0.184
					c-1.883,0.106-4.729,0.353-8.288-0.403c-1.765-0.378-3.717-1.025-5.582-2.232c-1.844-1.201-3.654-2.943-4.735-5.328
					c-0.527-1.191-0.82-2.536-0.797-3.938c0.058-1.397,0.511-2.842,1.444-4.023c0.467-0.585,1.066-1.096,1.781-1.421
					c0.716-0.315,1.535-0.428,2.33-0.308c1.593,0.269,3.007,1.356,3.823,2.807c0.826,1.474,0.963,3.265,0.656,4.952
					c-0.304,1.702-1.032,3.324-1.966,4.84c-1.915,3.003-4.883,5.535-8.501,6.867c-3.6,1.37-7.841,1.355-11.666-0.125
					c-1.913-0.737-3.725-1.819-5.299-3.228c-1.527-1.428-2.987-3.114-3.597-5.271c-0.303-1.063-0.321-2.241,0.017-3.325
					c0.328-1.08,1.044-2.104,2.094-2.655c2.136-1.092,4.812-0.282,6.349,1.443c1.586,1.731,2.292,4.031,2.664,6.29
					c0.367,2.285,0.271,4.655-0.209,6.954c-0.969,4.586-3.503,8.99-7.385,11.955c-1.926,1.487-4.173,2.583-6.557,3.212
					c-2.391,0.607-4.903,0.767-7.38,0.495c-4.958-0.516-9.671-2.911-12.822-6.639c-1.564-1.861-2.731-4.085-3.145-6.479
					c-0.431-2.385,0.091-4.938,1.459-6.906c1.318-1.976,3.583-3.446,6.023-3.32c2.373,0.14,4.638,1.567,5.613,3.728
					c0.511,1.071,0.543,2.329,0.232,3.442c-0.328,1.118-0.989,2.106-1.804,2.879c-1.632,1.566-3.711,2.494-5.786,3.044
					c-8.364,2.282-17.262-0.256-22.707-5.673c-1.346-1.367-2.449-2.966-3.079-4.731c-0.651-1.756-0.742-3.679-0.309-5.427
					c0.425-1.747,1.388-3.363,2.806-4.398c1.407-1.058,3.209-1.404,4.844-1.18c1.646,0.22,3.172,1.055,4.166,2.292
					c0.995,1.23,1.53,2.758,1.543,4.251c0.027,1.5-0.51,2.933-1.336,4.055c-0.824,1.134-1.901,1.992-3.006,2.658
					c-2.226,1.346-4.573,1.985-6.696,2.519c-2.14,0.514-4.132,0.814-5.93,0.986c-3.602,0.337-6.418,0.148-8.304-0.049
					c-1.889-0.21-2.863-0.435-2.863-0.435s0.25,0.018,0.731,0.081c0.481,0.067,1.2,0.152,2.143,0.235
					c1.885,0.159,4.691,0.308,8.27-0.062c1.787-0.189,3.764-0.504,5.886-1.031c2.108-0.547,4.425-1.198,6.591-2.528
					c1.076-0.657,2.111-1.496,2.891-2.582c0.783-1.076,1.278-2.429,1.246-3.84c-0.019-1.408-0.535-2.854-1.474-4.003
					c-0.938-1.155-2.362-1.927-3.914-2.13c-1.541-0.203-3.224,0.129-4.526,1.118c-1.316,0.967-2.223,2.491-2.621,4.152
					c-0.405,1.667-0.316,3.482,0.311,5.157c0.607,1.685,1.671,3.223,2.983,4.547c5.311,5.262,14.053,7.739,22.209,5.49
					c2.022-0.536,4.014-1.443,5.542-2.916c0.763-0.726,1.358-1.631,1.652-2.633c0.275-1.007,0.248-2.1-0.209-3.057
					c-0.861-1.933-2.972-3.268-5.122-3.384c-1.081-0.074-2.16,0.266-3.119,0.796c-0.941,0.568-1.776,1.342-2.395,2.277
					c-1.28,1.854-1.769,4.22-1.361,6.481c0.392,2.266,1.507,4.402,3.019,6.198c3.043,3.597,7.615,5.927,12.435,6.428
					c2.407,0.264,4.848,0.108,7.165-0.479c2.311-0.61,4.481-1.668,6.346-3.106c3.759-2.866,6.231-7.15,7.175-11.606
					c0.468-2.233,0.564-4.532,0.21-6.745c-0.354-2.194-1.05-4.403-2.511-5.993c-1.392-1.585-3.843-2.282-5.671-1.336
					c-0.899,0.469-1.53,1.354-1.828,2.326c-0.304,0.979-0.295,2.032-0.017,3.016c0.553,1.989,1.951,3.636,3.428,5.017
					c1.52,1.366,3.274,2.419,5.128,3.138c3.712,1.444,7.813,1.469,11.308,0.151c3.516-1.281,6.414-3.738,8.284-6.65
					c0.913-1.47,1.625-3.045,1.92-4.673c0.301-1.612,0.167-3.308-0.59-4.667c-0.751-1.354-2.076-2.37-3.52-2.618
					c-0.721-0.111-1.457-0.013-2.11,0.269c-0.649,0.292-1.204,0.757-1.643,1.302c-0.878,1.098-1.323,2.477-1.384,3.802
					c-0.029,1.334,0.244,2.636,0.746,3.789c1.029,2.313,2.785,4.033,4.585,5.225c1.819,1.197,3.731,1.851,5.477,2.243
					c3.511,0.783,6.348,0.577,8.23,0.509c0.932-0.054,1.648-0.096,2.155-0.125C415.566,436.217,415.816,436.218,415.816,436.218z"/>
			</g>
		</g>
	</g>
	<g>
		<g>
			<g>
				<rect x="223.408" y="44.455" style="fill:#E0E0E0;" width="10.541" height="226.633"/>
			</g>
		</g>
		<g>
			<g>
				<path style="fill:#F5F5F5;" d="M70.503,46.36v224.892c0,0.084,0.068,0.152,0.152,0.152h150.999c0.084,0,0.152-0.068,0.152-0.152
					V46.36c0-0.084-0.068-0.152-0.152-0.152H70.655C70.571,46.208,70.503,46.276,70.503,46.36z"/>
			</g>
		</g>
		<g>
			<g>
				<g>
					<path style="fill:#EBEBEB;" d="M223.408,273.157H68.903c-0.084,0-0.152-0.068-0.152-0.152V44.607
						c0-0.084,0.068-0.152,0.152-0.152h154.505c0.084,0,0.152,0.068,0.152,0.152v228.398
						C223.56,273.089,223.492,273.157,223.408,273.157z M72.408,269.651h147.493c0.084,0,0.152-0.068,0.152-0.152V48.113
						c0-0.084-0.068-0.152-0.152-0.152H72.408c-0.084,0-0.152,0.068-0.152,0.152v221.386
						C72.256,269.583,72.324,269.651,72.408,269.651z"/>
				</g>
			</g>
		</g>
		<g>
			<g>
				<path style="fill:#FFFFFF;" d="M85.738,60.252V257.21c0,0.084,0.068,0.152,0.152,0.152h120.797c0.084,0,0.152-0.068,0.152-0.152
					V60.252c0-0.084-0.068-0.152-0.152-0.152H85.89C85.806,60.1,85.738,60.168,85.738,60.252z"/>
			</g>
		</g>
		<g>
			<g>
				<path style="fill:#EBEBEB;" d="M180.089,195.722h-67.868c-0.035,0-0.064-0.029-0.064-0.064v-79.569
					c0-0.036,0.029-0.064,0.064-0.064h67.868c0.036,0,0.064,0.029,0.064,0.064v79.569
					C180.154,195.693,180.125,195.722,180.089,195.722z"/>
			</g>
		</g>
		<g>
			<g>
				<g>
					<path style="fill:#E0E0E0;" d="M174.771,185.968c0.087,0.256-3.268,1.726-9.654,0.977c-3.144-0.427-7.058-1.557-10.852-4.337
						c-3.713-2.781-7.239-7.267-8.432-13.262c-1.24-5.948,0.749-13.363,6.449-18.13c1.416-1.182,3.063-2.18,4.889-2.865
						c1.941-0.721,4.036-0.958,6.117-0.705c2.069,0.253,4.261,0.973,6.116,2.671c1.873,1.7,2.899,4.57,2.412,7.125
						c-0.442,2.579-1.848,4.555-3.358,6.116c-1.558,1.591-3.323,2.766-5.122,3.773c-3.657,2.02-7.839,3.286-12.22,3.49
						c-4.362,0.209-8.974-0.687-13.023-2.964c-4.01-2.253-7.439-5.666-9.584-9.934c-2.174-4.218-2.866-9.336-1.719-13.913
						c1.103-4.56,3.694-8.638,7.334-11.463c1.827-1.416,3.892-2.46,6.147-3.104c2.272-0.582,4.612-0.692,6.921-0.216
						c2.285,0.48,4.619,1.604,6.282,3.544c1.687,1.923,2.44,4.434,2.462,6.713c0.035,2.291-0.589,4.525-1.639,6.395
						c-1.03,1.875-2.417,3.396-3.877,4.661c-2.942,2.49-6.243,4.129-9.633,5.118c-3.387,0.974-6.861,1.231-10.134,0.782
						c-3.263-0.461-6.336-1.661-8.82-3.378c-5.012-3.401-7.907-8.569-8.424-13.343c-0.568-4.861,1.211-8.848,3.121-11.439
						c1.964-2.642,4.221-3.993,5.773-4.612c1.588-0.601,2.493-0.581,2.533-0.43c0.067,0.217-0.719,0.567-2.007,1.426
						c-1.261,0.876-3.045,2.353-4.489,4.825c-1.411,2.424-2.577,5.942-1.838,9.771c0.672,3.816,3.282,7.917,7.49,10.489
						c4.12,2.617,9.899,3.291,15.45,1.471c2.75-0.887,5.491-2.37,7.731-4.374c2.223-1.994,3.737-4.56,3.611-7.245
						c-0.071-2.692-1.768-4.589-4.654-5.142c-1.407-0.275-2.985-0.186-4.445,0.209c-1.45,0.443-2.925,1.183-4.195,2.197
						c-2.566,2.018-4.507,5.082-5.289,8.429c-0.804,3.344-0.325,6.889,1.298,10.104c1.598,3.207,4.261,5.877,7.316,7.605
						c3.042,1.733,6.583,2.472,10.066,2.342c3.488-0.125,6.912-1.11,9.899-2.706c1.51-0.816,2.901-1.735,3.95-2.784
						c1.075-1.051,1.824-2.253,2.004-3.267c0.196-1.027-0.117-1.919-0.81-2.628c-0.729-0.723-1.967-1.268-3.274-1.442
						c-1.313-0.2-2.672-0.076-3.855,0.328c-1.301,0.445-2.514,1.125-3.592,1.968c-2.157,1.691-3.777,4.007-4.684,6.453
						c-0.923,2.453-1.139,4.991-0.789,7.411c0.719,4.862,3.457,8.886,6.478,11.478c3.081,2.605,6.483,3.947,9.314,4.648
						C171.274,186.144,174.726,185.482,174.771,185.968z"/>
				</g>
			</g>
		</g>
	</g>
	<g>
		<g>
			<g>
				<rect x="659.921" y="43.271" style="fill:#E0E0E0;" width="10.541" height="226.633"/>
			</g>
		</g>
		<g>
			<g>
				<path style="fill:#F5F5F5;" d="M507.016,45.176v224.892c0,0.084,0.068,0.152,0.152,0.152h150.999
					c0.084,0,0.152-0.068,0.152-0.152V45.176c0-0.084-0.068-0.152-0.152-0.152H507.168
					C507.084,45.024,507.016,45.092,507.016,45.176z"/>
			</g>
		</g>
		<g>
			<g>
				<g>
					<path style="fill:#EBEBEB;" d="M659.921,271.973H505.415c-0.084,0-0.152-0.068-0.152-0.152V43.423
						c0-0.084,0.068-0.152,0.152-0.152h154.505c0.084,0,0.152,0.068,0.152,0.152v228.398
						C660.073,271.905,660.005,271.973,659.921,271.973z M508.921,268.467h147.493c0.084,0,0.152-0.068,0.152-0.152V46.929
						c0-0.084-0.068-0.152-0.152-0.152H508.921c-0.084,0-0.152,0.068-0.152,0.152v221.386
						C508.769,268.399,508.837,268.467,508.921,268.467z"/>
				</g>
			</g>
		</g>
		<g>
			<g>
				<path style="fill:#FFFFFF;" d="M522.25,59.068v196.958c0,0.084,0.068,0.152,0.152,0.152h120.797
					c0.084,0,0.152-0.068,0.152-0.152V59.068c0-0.084-0.068-0.152-0.152-0.152H522.402C522.318,58.916,522.25,58.985,522.25,59.068z
					"/>
			</g>
		</g>
		<g>
			<g>
				<path style="fill:#EBEBEB;" d="M616.602,194.538h-67.868c-0.036,0-0.064-0.029-0.064-0.064v-79.569
					c0-0.035,0.029-0.064,0.064-0.064h67.868c0.036,0,0.064,0.029,0.064,0.064v79.57
					C616.667,194.509,616.638,194.538,616.602,194.538z"/>
			</g>
		</g>
		<g>
			<g>
				<g>
					<path style="fill:#E0E0E0;" d="M611.284,184.784c0.087,0.256-3.268,1.726-9.654,0.977c-3.144-0.427-7.058-1.557-10.852-4.337
						c-3.713-2.781-7.239-7.267-8.432-13.262c-1.24-5.949,0.749-13.364,6.449-18.13c1.416-1.182,3.063-2.18,4.889-2.865
						c1.941-0.721,4.036-0.958,6.117-0.705c2.069,0.253,4.261,0.973,6.116,2.671c1.873,1.7,2.899,4.57,2.412,7.125
						c-0.442,2.579-1.848,4.554-3.358,6.116c-1.558,1.591-3.323,2.766-5.122,3.773c-3.657,2.02-7.839,3.286-12.22,3.49
						c-4.362,0.209-8.974-0.687-13.023-2.964c-4.01-2.253-7.439-5.666-9.584-9.934c-2.174-4.218-2.866-9.336-1.719-13.913
						c1.103-4.56,3.694-8.638,7.334-11.463c1.827-1.416,3.892-2.46,6.147-3.104c2.272-0.582,4.612-0.692,6.921-0.216
						c2.285,0.48,4.619,1.604,6.282,3.544c1.687,1.923,2.44,4.434,2.462,6.713c0.035,2.291-0.589,4.525-1.638,6.395
						c-1.03,1.875-2.417,3.396-3.877,4.661c-2.942,2.49-6.243,4.129-9.633,5.118c-3.387,0.974-6.861,1.231-10.134,0.782
						c-3.263-0.461-6.336-1.661-8.82-3.378c-5.012-3.401-7.907-8.569-8.424-13.343c-0.568-4.861,1.211-8.848,3.121-11.439
						c1.964-2.642,4.221-3.993,5.773-4.612c1.588-0.602,2.493-0.581,2.533-0.43c0.067,0.217-0.719,0.567-2.007,1.426
						c-1.261,0.876-3.044,2.353-4.489,4.825c-1.411,2.424-2.577,5.942-1.838,9.771c0.672,3.816,3.282,7.917,7.49,10.489
						c4.12,2.617,9.899,3.291,15.45,1.471c2.75-0.887,5.491-2.37,7.731-4.374c2.223-1.994,3.737-4.56,3.611-7.245
						c-0.071-2.692-1.768-4.589-4.654-5.142c-1.406-0.275-2.984-0.186-4.445,0.209c-1.45,0.443-2.925,1.184-4.195,2.198
						c-2.566,2.018-4.507,5.082-5.289,8.429c-0.804,3.344-0.325,6.889,1.298,10.104c1.598,3.207,4.261,5.877,7.316,7.605
						c3.042,1.733,6.583,2.472,10.066,2.342c3.488-0.125,6.912-1.11,9.899-2.706c1.51-0.816,2.901-1.735,3.95-2.784
						c1.075-1.051,1.823-2.253,2.004-3.267c0.196-1.027-0.117-1.919-0.81-2.628c-0.729-0.723-1.967-1.268-3.274-1.442
						c-1.313-0.2-2.672-0.076-3.855,0.328c-1.301,0.445-2.514,1.125-3.592,1.968c-2.157,1.691-3.777,4.007-4.685,6.453
						c-0.923,2.453-1.139,4.991-0.789,7.411c0.719,4.862,3.457,8.886,6.478,11.478c3.081,2.605,6.483,3.947,9.314,4.648
						C607.787,184.96,611.239,184.298,611.284,184.784z"/>
				</g>
			</g>
		</g>
	</g>
	<g>
		<g>
			<g>
				<g>
					<polygon style="fill:#E0E0E0;" points="466.11,73.754 466.11,195.654 291.028,195.654 284.721,74.606 					"/>
				</g>
			</g>
		</g>
		<g>
			<g>
				<g>
					
						<rect x="311.866" y="47.461" transform="matrix(6.123234e-17 -1 1 6.123234e-17 237.2598 507.2627)" style="fill:#F5F5F5;" width="120.791" height="175.081"/>
				</g>
			</g>
			<g>
				<g>
					<path style="fill:#E0E0E0;" d="M460.633,196.227H283.89V73.776h176.743V196.227z M285.551,194.566h173.42V75.437h-173.42
						V194.566z"/>
				</g>
			</g>
		</g>
		<g>
			<g>
				<g>
					<g>
						<rect x="303.683" y="89.613" style="fill:#FFFFFF;" width="137.156" height="90.776"/>
					</g>
				</g>
			</g>
			<g>
				<g>
					<g>
						<g>
							<path style="fill:#E0E0E0;" d="M440.839,89.613c0,0-0.236,0.016-0.676,0.023c-0.465,0.006-1.11,0.013-1.95,0.023
								c-1.738,0.011-4.261,0.027-7.533,0.048c-6.588,0.025-16.167,0.061-28.264,0.107c-24.188,0.048-58.423,0.115-98.733,0.195
								l0.397-0.397c0.011,27.735,0.023,58.466,0.036,90.765v0.011l-0.432-0.432c51.739,0.033,99.441,0.064,137.156,0.088
								l-0.345,0.344c0.076-27.625,0.138-50.275,0.181-66.047c0.038-7.883,0.067-14.042,0.088-18.264
								c0.017-2.086,0.03-3.687,0.039-4.799C440.815,90.191,440.839,89.613,440.839,89.613s0.025,0.528,0.037,1.593
								c0.009,1.097,0.022,2.677,0.039,4.735c0.02,4.204,0.05,10.337,0.088,18.187c0.043,15.824,0.105,38.547,0.181,66.262
								l0.001,0.345l-0.346,0c-37.715,0.024-85.417,0.055-137.156,0.088l-0.433,0v-0.433v-0.011
								c0.013-32.3,0.025-63.03,0.036-90.765v-0.398l0.397,0.001c40.416,0.08,74.742,0.147,98.993,0.195
								c12.059,0.046,21.607,0.082,28.174,0.107c3.237,0.021,5.734,0.037,7.453,0.048c0.821,0.01,1.452,0.018,1.906,0.023
								C440.635,89.598,440.839,89.613,440.839,89.613z"/>
						</g>
					</g>
				</g>
			</g>
		</g>
		<g>
			<g>
				<g>
					<g>
						<path style="fill:#E0E0E0;" d="M284.721,74.267c0.073-0.094,1.218,0.657,3.01,1.95c1.79,1.294,4.23,3.128,6.863,5.235
							c2.634,2.109,4.95,4.102,6.581,5.596c1.631,1.494,2.585,2.478,2.508,2.566c-0.163,0.184-4.372-3.288-9.63-7.487
							C288.793,77.934,284.566,74.464,284.721,74.267z"/>
					</g>
				</g>
			</g>
		</g>
		<g>
			<g>
				<g>
					<g>
						<path style="fill:#E0E0E0;" d="M459.802,74.606c0.148,0.187-3.977,3.699-9.212,7.842c-5.238,4.145-9.602,7.352-9.75,7.165
							c-0.148-0.187,3.976-3.698,9.213-7.843C455.288,77.627,459.654,74.419,459.802,74.606z"/>
					</g>
				</g>
			</g>
		</g>
		<g>
			<g>
				<g>
					<g>
						<path style="fill:#FFFFFF;" d="M459.663,195.414c-6.507-5.274-13.014-10.548-19.521-15.822"/>
					</g>
				</g>
			</g>
			<g>
				<g>
					<g>
						<g>
							<path style="fill:#E0E0E0;" d="M440.142,179.593c0.15-0.186,4.643,3.206,10.032,7.574c5.392,4.37,9.639,8.062,9.488,8.247
								c-0.15,0.185-4.642-3.206-10.033-7.575C444.24,183.471,439.992,179.778,440.142,179.593z"/>
						</g>
					</g>
				</g>
			</g>
		</g>
		<g>
			<g>
				<g>
					<g>
						<path style="fill:#E0E0E0;" d="M284.721,195.397c-0.148-0.187,3.934-3.662,9.115-7.761c5.184-4.1,9.505-7.271,9.653-7.083
							c0.148,0.187-3.933,3.662-9.117,7.762C289.191,192.413,284.869,195.584,284.721,195.397z"/>
					</g>
				</g>
			</g>
		</g>
		<g>
			<g>
				<g>
					
						<rect x="359.484" y="89.943" transform="matrix(6.123234e-17 -1 1 6.123234e-17 241.5888 507.775)" style="fill:#E0E0E0;" width="30.395" height="86.301"/>
				</g>
			</g>
		</g>
	</g>
</g>
<g id="Background_Simple" style="display:none;">
	<g style="display:inline;">
		<path style="fill:#F5F5F5;" d="M86.779,121.107l1.542-3.56c12.996-30.009,41.087-50.887,73.404-53.269
			c4.154-0.306,8.332-0.313,12.497-0.004c29.988,2.227,58.365,20.768,72.753,47.534c8.462,15.742,12.817,34.607,26.354,46.164
			c17.618,15.04,43.6,12.013,66.28,8.169s48.688-6.806,66.241,8.312c10.993,9.468,16.125,24.377,17.344,38.915
			c3.227,38.489-18.697,76.318-50.221,97.959c-31.524,21.641-71.182,28.648-109.268,26.277
			c-53.354-3.322-106.679-25.268-142.462-65.573C85.46,231.725,69.628,172.283,86.779,121.107z"/>
	</g>
	<g style="display:inline;">
		<g>
			<path style="fill:#F5F5F5;" d="M409.108,288.302c1.282,0.626,1.532,3.136,0.666,6.686c-0.859,3.542-2.884,8.1-5.987,12.574
				c-3.109,4.472-6.672,7.962-9.69,10.005c-3.024,2.052-5.462,2.694-6.497,1.711c-1.051-0.997-0.538-3.397,0.922-6.524
				c1.467-3.132,3.849-7.02,6.71-11.133c2.854-4.116,5.664-7.706,8.086-10.175C405.736,288.986,407.806,287.665,409.108,288.302z"/>
		</g>
	</g>
	<g style="display:inline;">
		<circle style="fill:#F5F5F5;" cx="585.927" cy="127.781" r="84.755"/>
	</g>
</g>
<g id="Table">
	<g>
		<g>
			<path style="fill:#263238;" d="M712.464,474.516c0,0.144-151.1,0.26-337.447,0.26c-186.412,0-337.48-0.117-337.48-0.26
				s151.067-0.26,337.48-0.26C561.364,474.255,712.464,474.372,712.464,474.516z"/>
		</g>
	</g>
</g>
<g id="Speech_Bubble_2">
	<g>
		<g>
			<g>
				<g>
					<g>
						<g>
							<g>
								<g>
									<g>
										<g>
											<g>
												<g>
													<path style="fill:#FFFFFF;" d="M247.422,184.602l14.248-0.08c5.029,6.385,11.829,11.504,20.019,14.508
														c23.555,8.639,49.652-3.453,58.291-27.007c8.639-23.554-3.452-49.652-27.007-58.291
														c-23.554-8.639-49.652,3.452-58.291,27.007c-3.607,9.835-3.588,20.11-0.641,29.376l-0.014-0.022L247.422,184.602z"/>
												</g>
											</g>
										</g>
									</g>
								</g>
							</g>
							<g>
								<g>
									<g>
										<g>
											<g>
												<g>
													<g>
														<path style="fill:#263238;" d="M247.422,184.602c0,0,0.165-0.329,0.459-0.957c0.301-0.643,0.733-1.567,1.298-2.777
															c1.137-2.447,2.806-6.042,4.977-10.717l-0.248,0.017l0.013,0.021c0.042,0.067,0.129,0.086,0.196,0.045
															c0.055-0.035,0.078-0.104,0.059-0.164c-1.758-5.656-2.985-13.462-1.218-22.347c0.437-2.209,1.048-4.475,1.885-6.746
															c0.944-2.227,1.841-4.571,3.182-6.781c2.533-4.48,5.998-8.812,10.411-12.473c4.401-3.661,9.741-6.643,15.705-8.459
															c5.953-1.822,12.529-2.463,19.136-1.59c13.211,1.619,26.41,9.963,33.46,22.832c3.562,6.54,5.618,13.806,5.663,20.98
															c0.128,7.165-1.462,14.159-4.354,20.302c-2.873,6.167-7.166,11.378-12.048,15.403
															c-4.899,4.029-10.439,6.849-16.01,8.486c-5.578,1.647-11.177,2.111-16.361,1.697
															c-0.648-0.064-1.291-0.127-1.929-0.189c-0.64-0.051-1.272-0.122-1.886-0.27c-1.237-0.249-2.453-0.493-3.648-0.734
															c-2.323-0.738-4.608-1.331-6.676-2.261c-8.367-3.564-14.106-8.94-17.712-13.483c-0.026-0.034-0.067-0.051-0.107-0.051
															c-4.597,0.063-8.138,0.11-10.553,0.143c-1.193,0.02-2.105,0.035-2.744,0.045
															C247.753,184.587,247.422,184.602,247.422,184.602s0.291,0.011,0.893,0.016c0.63,0.003,1.529,0.008,2.705,0.014
															c2.438,0.006,6.011,0.014,10.65,0.024l-0.106-0.051c3.583,4.602,9.332,10.063,17.758,13.702
															c2.082,0.948,4.386,1.559,6.729,2.313c1.206,0.249,2.434,0.501,3.682,0.757c0.621,0.151,1.258,0.226,1.904,0.28
															c0.644,0.066,1.294,0.132,1.949,0.199c5.238,0.439,10.904-0.012,16.552-1.663c5.642-1.641,11.257-4.482,16.228-8.553
															c4.953-4.066,9.313-9.341,12.233-15.588c2.939-6.221,4.559-13.311,4.433-20.578
															c-0.042-7.276-2.122-14.646-5.736-21.278c-0.398-0.839-0.92-1.601-1.424-2.372l-1.511-2.307l-1.712-2.146
															c-0.562-0.72-1.128-1.433-1.786-2.063c-0.633-0.652-1.265-1.302-1.894-1.95c-0.612-0.667-1.356-1.19-2.026-1.789
															c-0.696-0.569-1.351-1.186-2.075-1.711c-0.737-0.507-1.471-1.013-2.204-1.517c-5.913-3.954-12.607-6.432-19.306-7.273
															c-6.699-0.876-13.362-0.215-19.388,1.642c-6.036,1.851-11.436,4.883-15.88,8.601
															c-4.456,3.716-7.948,8.11-10.492,12.648c-1.346,2.239-2.246,4.61-3.188,6.864c-0.836,2.298-1.443,4.588-1.874,6.821
															c-1.74,8.978-0.451,16.84,1.369,22.515l0.255-0.119l-0.014-0.021c-0.041-0.066-0.129-0.086-0.195-0.045
															c-0.024,0.015-0.043,0.038-0.054,0.062c-2.119,4.748-3.749,8.398-4.858,10.883c-0.534,1.205-0.941,2.124-1.225,2.765
															C247.544,184.3,247.422,184.602,247.422,184.602z"/>
													</g>
												</g>
											</g>
										</g>
									</g>
								</g>
							</g>
						</g>
					</g>
				</g>
			</g>
		</g>
		<g>
			<g>
				<g>
					<g>
						<g>
							<g>
								<g>
									<g>
										<polygon style="fill:#FF725E;" points="274.201,158.357 280.545,151.339 294.006,162.144 313.998,139.183 
											320.538,145.552 293.701,175.075 										"/>
									</g>
								</g>
							</g>
						</g>
					</g>
				</g>
			</g>
		</g>
	</g>
</g>
<g id="Speech_Bubble_1">
	<g>
		<g>
			<g>
				<g>
					<g>
						<g>
							<g>
								<g>
									<g>
										<g>
											<g>
												<g>
													<g>
														<path style="fill:#FFFFFF;" d="M485.624,151.711l-14.231,0.718c-4.663,6.657-11.165,12.148-19.174,15.607
															c-23.034,9.946-49.768-0.664-59.713-23.697c-9.946-23.033,0.664-49.767,23.697-59.713
															c23.033-9.945,49.767,0.664,59.713,23.697c4.152,9.618,4.71,19.877,2.287,29.294l0.013-0.022L485.624,151.711z"/>
													</g>
												</g>
											</g>
										</g>
									</g>
								</g>
								<g>
									<g>
										<g>
											<g>
												<g>
													<g>
														<g>
															<path style="fill:#263238;" d="M485.624,151.711c0,0-0.183-0.32-0.512-0.929c-0.337-0.625-0.82-1.523-1.452-2.7
																c-1.272-2.38-3.14-5.875-5.569-10.421l0.249,0.003l-0.012,0.022c-0.038,0.069-0.124,0.094-0.193,0.056
																c-0.057-0.032-0.083-0.099-0.068-0.16c1.438-5.746,2.226-13.608-0.036-22.38c-0.56-2.181-1.297-4.409-2.261-6.63
																c-1.067-2.171-2.095-4.46-3.557-6.592c-2.78-4.331-6.482-8.462-11.094-11.87c-4.6-3.409-10.098-6.086-16.154-7.565
																c-6.046-1.485-12.647-1.757-19.195-0.516c-13.099,2.357-25.81,11.428-32.128,24.671
																c-3.19,6.729-4.836,14.099-4.478,21.265c0.273,7.161,2.253,14.055,5.485,20.026
																c3.214,5.996,7.792,10.958,12.892,14.703c5.118,3.748,10.807,6.253,16.461,7.575
																c5.661,1.332,11.278,1.482,16.431,0.777c0.643-0.1,1.282-0.199,1.915-0.297c0.636-0.087,1.263-0.193,1.868-0.375
																c1.221-0.317,2.421-0.63,3.601-0.937c2.278-0.867,4.526-1.588,6.539-2.632c8.154-4.027,13.583-9.717,16.928-14.454
																c0.024-0.035,0.064-0.055,0.104-0.057c4.593-0.195,8.131-0.346,10.544-0.448c1.193-0.047,2.104-0.083,2.742-0.109
																C485.293,151.714,485.624,151.711,485.624,151.711s-0.29,0.027-0.891,0.066c-0.629,0.038-1.526,0.094-2.7,0.166
																c-2.434,0.143-6,0.351-10.632,0.621l0.103-0.057c-3.32,4.796-8.753,10.57-16.962,14.676
																c-2.026,1.063-4.292,1.803-6.589,2.686c-1.191,0.316-2.402,0.636-3.634,0.962c-0.611,0.186-1.244,0.296-1.886,0.387
																c-0.64,0.102-1.285,0.204-1.934,0.308c-5.205,0.732-10.887,0.599-16.619-0.732
																c-5.725-1.322-11.491-3.844-16.682-7.63c-5.173-3.782-9.822-8.805-13.087-14.878
																c-3.283-6.047-5.298-13.035-5.58-20.297c-0.366-7.267,1.298-14.742,4.534-21.566c0.35-0.859,0.829-1.65,1.289-2.448
																l1.379-2.388l1.589-2.239c0.52-0.75,1.046-1.494,1.668-2.16c0.596-0.686,1.19-1.371,1.782-2.053
																c0.574-0.701,1.288-1.264,1.922-1.9c0.663-0.607,1.283-1.26,1.976-1.825c0.707-0.547,1.412-1.094,2.115-1.638
																c5.682-4.279,12.227-7.129,18.868-8.344c6.64-1.25,13.329-0.964,19.45,0.552c6.131,1.51,11.692,4.235,16.337,7.697
																c4.658,3.46,8.39,7.652,11.184,12.04c1.47,2.16,2.501,4.477,3.567,6.674c0.963,2.247,1.698,4.5,2.253,6.705
																c2.241,8.866,1.394,16.788-0.105,22.556l-0.261-0.105l0.012-0.022c0.037-0.068,0.124-0.093,0.192-0.056
																c0.025,0.014,0.045,0.036,0.058,0.059c2.382,4.622,4.213,8.174,5.46,10.594c0.601,1.173,1.058,2.068,1.378,2.692
																C485.485,151.416,485.624,151.711,485.624,151.711z"/>
														</g>
													</g>
												</g>
											</g>
										</g>
									</g>
								</g>
							</g>
						</g>
					</g>
				</g>
			</g>
		</g>
		<g>
			<g>
				<g>
					<path style="fill:#FF725E;" d="M455.722,121.178c-0.324-2.635-1.622-5.095-3.407-7.06c-1.749-1.925-4.023-3.437-6.569-3.969
						c-2.705-0.566-5.632,0.034-7.897,1.616c-1.347,0.942-2.448,2.223-3.203,3.682c-0.763-1.282-1.802-2.401-3.039-3.236
						c-2.29-1.546-5.228-2.097-7.922-1.487c-2.537,0.574-4.786,2.122-6.503,4.076c-1.753,1.994-3.011,4.475-3.291,7.115
						c-0.351,3.307,0.317,6.918,2.054,9.754c1.835,2.995,4.778,5.402,7.8,7.189c5.083,3.006,11.773,6.766,11.773,6.766
						s5.594-4.256,10.627-7.344c2.993-1.837,5.897-4.291,7.682-7.315C455.517,128.1,456.126,124.478,455.722,121.178z"/>
				</g>
			</g>
		</g>
	</g>
</g>
<g id="Character_2">
	<g>
		<g>
			<path style="fill:#FFBF9D;" d="M656.878,474.516c0,0-6.362-14.322-9.264-35.054c-2.903-20.732-2.903-38.148-3.317-40.221
				c-0.415-2.073-5.39-26.123-5.39-26.123l39.798-8.358c0,0,1.252,27.017,4.155,44.432c2.903,17.415,4.622,39.615,4.208,65.324
				H656.878z"/>
		</g>
		<g>
			<g>
				<g>
					<g>
						<g>
							<g>
								<g>
									<g>
										<g>
											<g>
												<g>
													<g>
														<path style="fill:#FFBF9D;" d="M589.854,274.646l20.743-107.392c5.358-24.88-4.654-48.736-29.673-53.404l-2.337-0.297
															c-23.521-2.982-45.396,12.589-50.259,35.795c-4.525,21.591-9.247,45.504-10.586,57.225
															c-2.772,24.264,20.981,31.104,20.981,31.104c0.054,0.01-4.672,29.107-5.879,36.172l12.981,9.801l1.538-10.169
															L589.854,274.646z"/>
													</g>
												</g>
											</g>
										</g>
									</g>
								</g>
							</g>
						</g>
					</g>
				</g>
				<g>
					<g>
						<g>
							<g>
								<g>
									<g>
										<g>
											<g>
												<g>
													<g>
														<g>
															<path style="fill:#FF9A6C;" d="M538.722,237.677c0,0,15.157,2.832,32.726-5.326c0,0-9.898,17.252-33.796,12.005
																L538.722,237.677z"/>
														</g>
													</g>
												</g>
											</g>
										</g>
									</g>
								</g>
							</g>
						</g>
					</g>
				</g>
				<g>
					<g>
						<g>
							<g>
								<g>
									<g>
										<g>
											<g>
												<g>
													<g>
														<g>
															<g>
																<g>
																	<g>
																		<g>
																			<g>
																				<g>
																					<path style="fill:#263238;" d="M532.559,173.058c-0.297,1.819,0.999,3.569,2.893,3.914
																						c1.89,0.343,3.665-0.848,3.961-2.667c0.297-1.819-0.998-3.572-2.889-3.916
																						C534.631,170.045,532.855,171.24,532.559,173.058z"/>
																				</g>
																			</g>
																		</g>
																	</g>
																</g>
															</g>
														</g>
													</g>
												</g>
											</g>
										</g>
									</g>
								</g>
							</g>
						</g>
					</g>
				</g>
				<g>
					<g>
						<g>
							<g>
								<g>
									<g>
										<g>
											<g>
												<g>
													<g>
														<g>
															<g>
																<g>
																	<g>
																		<g>
																			<g>
																				<g>
																					<g>
																						<path style="fill:#263238;" d="M532.122,160.7c0.372,0.505,3.238-1.102,6.961-0.62
																							c3.724,0.427,6.214,2.689,6.675,2.285c0.224-0.176-0.109-1.047-1.189-2.064
																							c-1.062-1.01-2.953-2.103-5.274-2.387c-2.321-0.281-4.38,0.325-5.612,1.057
																							C532.427,159.705,531.936,160.471,532.122,160.7z"/>
																					</g>
																				</g>
																			</g>
																		</g>
																	</g>
																</g>
															</g>
														</g>
													</g>
												</g>
											</g>
										</g>
									</g>
								</g>
							</g>
						</g>
					</g>
				</g>
				<g>
					<g>
						<g>
							<g>
								<g>
									<g>
										<g>
											<g>
												<g>
													<g>
														<g>
															<g>
																<g>
																	<g>
																		<g>
																			<g>
																				<g>
																					<path style="fill:#263238;" d="M565.042,177.111c-0.296,1.819,1,3.569,2.894,3.913
																						c1.89,0.344,3.666-0.847,3.962-2.667c0.296-1.819-1-3.571-2.89-3.915
																						C567.113,174.097,565.338,175.292,565.042,177.111z"/>
																				</g>
																			</g>
																		</g>
																	</g>
																</g>
															</g>
														</g>
													</g>
												</g>
											</g>
										</g>
									</g>
								</g>
							</g>
						</g>
					</g>
				</g>
				<g>
					<g>
						<g>
							<g>
								<g>
									<g>
										<g>
											<g>
												<g>
													<g>
														<g>
															<g>
																<g>
																	<g>
																		<g>
																			<g>
																				<g>
																					<g>
																						<path style="fill:#263238;" d="M568.507,166.19c0.372,0.506,3.243-1.1,6.962-0.619
																							c3.723,0.428,6.214,2.69,6.676,2.285c0.223-0.177-0.106-1.045-1.191-2.063
																							c-1.061-1.011-2.952-2.103-5.273-2.388c-2.321-0.281-4.38,0.326-5.612,1.056
																							C568.816,165.195,568.322,165.962,568.507,166.19z"/>
																					</g>
																				</g>
																			</g>
																		</g>
																	</g>
																</g>
															</g>
														</g>
													</g>
												</g>
											</g>
										</g>
									</g>
								</g>
							</g>
						</g>
					</g>
				</g>
				<g>
					<g>
						<g>
							<g>
								<g>
									<g>
										<g>
											<g>
												<g>
													<g>
														<g>
															<g>
																<g>
																	<g>
																		<g>
																			<g>
																				<g>
																					<path style="fill:#263238;" d="M551.525,193.104c0.044-0.209-2.219-0.903-5.908-1.858
																						c-0.939-0.218-1.815-0.521-1.892-1.191c-0.137-0.715,0.391-1.689,0.992-2.737
																						c1.185-2.188,2.427-4.48,3.729-6.883c5.211-9.812,9.112-17.928,8.715-18.135
																						c-0.398-0.206-4.943,7.579-10.154,17.391c-1.262,2.423-2.468,4.731-3.616,6.941
																						c-0.496,1.035-1.271,2.182-0.966,3.669c0.166,0.743,0.799,1.347,1.387,1.588
																						c0.586,0.263,1.12,0.342,1.587,0.43C549.145,193,551.483,193.314,551.525,193.104z"/>
																				</g>
																			</g>
																		</g>
																	</g>
																</g>
															</g>
														</g>
													</g>
												</g>
											</g>
										</g>
									</g>
								</g>
							</g>
						</g>
					</g>
				</g>
				<g>
					<g>
						<g>
							<g>
								<g>
									<g>
										<g>
											<g>
												<g>
													<g>
														<g>
															<g>
																<g>
																	<path style="fill:#263238;" d="M568.778,154.392c0.385,1.014,4.125,0.473,8.534,0.936
																		c4.421,0.374,7.99,1.609,8.56,0.685c0.254-0.442-0.38-1.392-1.83-2.358c-1.437-0.964-3.722-1.867-6.37-2.121
																		c-2.647-0.248-5.06,0.209-6.654,0.885C569.412,153.096,568.611,153.91,568.778,154.392z"/>
																</g>
															</g>
														</g>
													</g>
												</g>
											</g>
										</g>
									</g>
								</g>
							</g>
						</g>
					</g>
				</g>
				<g>
					<g>
						<g>
							<g>
								<g>
									<g>
										<g>
											<g>
												<g>
													<g>
														<g>
															<g>
																<g>
																	<path style="fill:#263238;" d="M533.339,149.732c0.653,0.953,3.802,0.507,7.446,0.982
																		c3.656,0.367,6.637,1.521,7.472,0.738c0.371-0.384,0.007-1.298-1.226-2.288c-1.213-0.984-3.34-1.95-5.848-2.241
																		c-2.509-0.288-4.784,0.17-6.172,0.854C533.602,148.463,533.057,149.272,533.339,149.732z"/>
																</g>
															</g>
														</g>
													</g>
												</g>
											</g>
										</g>
									</g>
								</g>
							</g>
						</g>
					</g>
				</g>
				<g>
					<g>
						<g>
							<g>
								<g>
									<g>
										<g>
											<g>
												<g>
													<path style="fill:#FFBF9D;" d="M606.344,184.942c0.435-0.126,17.27-2.813,14.641,13.683
														c-2.629,16.496-18.648,10.454-18.601,9.976C602.431,208.123,606.344,184.942,606.344,184.942z"/>
												</g>
											</g>
										</g>
									</g>
								</g>
							</g>
						</g>
					</g>
				</g>
				<g>
					<g>
						<g>
							<g>
								<g>
									<g>
										<g>
											<g>
												<g>
													<g>
														<path style="fill:#FF9A6C;" d="M608.419,203.154c0.08-0.041,0.255,0.247,0.706,0.547
															c0.439,0.292,1.23,0.571,2.141,0.386c1.844-0.362,3.753-2.895,4.307-5.855c0.281-1.494,0.194-2.975-0.149-4.242
															c-0.312-1.287-0.958-2.255-1.81-2.55c-0.841-0.341-1.546,0.085-1.822,0.518c-0.294,0.426-0.242,0.772-0.334,0.786
															c-0.052,0.034-0.31-0.333-0.068-0.993c0.121-0.317,0.376-0.676,0.814-0.93c0.447-0.259,1.055-0.331,1.655-0.167
															c1.258,0.291,2.217,1.644,2.595,3.036c0.446,1.409,0.579,3.078,0.263,4.756c-0.636,3.307-2.832,6.147-5.327,6.456
															c-1.209,0.118-2.121-0.386-2.559-0.855C608.385,203.557,608.357,203.176,608.419,203.154z"/>
													</g>
												</g>
											</g>
										</g>
									</g>
								</g>
							</g>
						</g>
					</g>
				</g>
			</g>
			<g>
				<g>
					<g>
						<g>
							<g>
								<g>
									<g>
										<g>
											<path style="fill:#263238;" d="M498.746,122.063c0.415-0.931,1.248-1.619,2.196-1.994c2.066-0.819,4.22-0.328,6.33-0.031
												c5.249,0.74,10.654,0.217,15.695-1.417c-1.497-1.081-2.861-2.322-3.949-3.814c-2.249-3.08-3.141-7.395-1.359-10.767
												c0.334-0.633,0.834-1.272,1.543-1.374c1.124-0.16,1.896,1.04,2.512,1.992c2.025,3.133,4.11,4.668,7.834,4.875
												c2.313,0.128,4.599-0.035,6.565-0.869c0.083-0.063,0.16-0.135,0.243-0.198c0.997-0.75,1.968-1.465,2.922-2.153
												c0.002-0.003,0.004-0.005,0.007-0.007l-0.003,0.005c7.176-5.181,13.186-8.607,19.031-9.955
												c8.567-1.976,22.247-1.171,30.3,2.354c8.054,3.526,14.525,11.527,14.339,20.317c5.337-3.242,12.404-2.095,17.779,1.113
												l0.154-0.04c6.031,3.283,8.599,10.604,9.46,17.417c0.047,0.372,0.08,0.748,0.12,1.122
												c1.622,3.765,4.097,7.161,7.278,9.751c0.561,0.456,1.199,1.008,1.163,1.731c-0.036,0.716-0.723,1.207-1.364,1.528
												c-1.705,0.856-3.602,1.297-5.509,1.336c0.341,1.641,0.789,3.253,1.412,4.823c0.529,1.335,1.156,2.933,0.326,4.105
												c-0.642,0.906-1.954,1.114-3.014,0.785c-1.06-0.33-1.928-1.082-2.763-1.814c0.445,1.818,0.888,3.637,1.333,5.455
												c-2.375,0.039-4.739-0.523-6.877-1.557c-2.316,5.88-5.111,17.005-7.33,20.888c-4.392-0.612-5.381-1.256-7.706-0.87
												c-3.006,0.498-2.711,5.728-6.204,3.706c-1.778-1.03-3.555-8.661-3.886-10.689c-2.19-13.456-1.43-27.382,2.194-40.525
												c-2.203-3.237-5.035-6.046-8.29-8.221l0.245,0.303c-6.378-3.404-13.648-6.91-20.547-4.75
												c-5.352,1.676-9.082,6.369-13.441,9.897c-8.262,6.686-16.881,9.592-27.441,8.393c-2.092,7.136-4.246,19.006-5.672,25.748
												l-3.664-14.52l-0.013,0.055c-0.344-0.871-0.605-1.736-0.852-2.6l-0.09-0.265l0.005-0.03
												c-0.391-1.386-0.753-2.771-1.304-4.168c-0.025,0.016-0.049,0.032-0.074,0.048c-4.194,2.67-8.84-3.152-5.312-6.656
												c0.699-0.695,1.499-1.287,2.378-1.741c-1.932,1.316-4.561,1.678-6.662,0.652c-2.101-1.026-3.462-3.528-2.908-5.8
												c0.378-1.55,1.721-2.778,3.238-3.175c-3.011-0.239-5.952-1.365-8.313-3.253
												C499.25,125.969,497.833,124.11,498.746,122.063z"/>
										</g>
									</g>
								</g>
							</g>
						</g>
					</g>
				</g>
				<g>
					<g>
						<g>
							<g>
								<g>
									<g>
										<g>
											<path style="fill:#455A64;" d="M594.915,120.603c-0.058,0.054,0.911,0.798,2.074,2.596
												c1.15,1.79,2.288,4.768,2.445,8.602c0.089,1.907,0.003,4.011-0.348,6.235c-0.34,2.225-0.893,4.579-1.459,7.062
												c-0.557,2.484-1.153,5.107-1.427,7.891c-0.136,1.39-0.191,2.817-0.112,4.264c0.087,1.423,0.214,2.974,1.066,4.32
												c0.676,1.094,1.992,1.74,3.228,1.682c1.241-0.024,2.415-0.497,3.339-1.25c1.839-1.569,2.589-3.808,3.293-5.774
												l-0.516-0.018c0.541,1.952,1.109,3.886,2.142,5.521c1.011,1.641,2.577,2.867,4.296,3.297
												c0.856,0.215,1.753,0.214,2.558-0.045c0.819-0.251,1.471-0.795,1.954-1.4c0.468-0.621,0.774-1.336,0.849-2.06
												c0.072-0.723-0.101-1.447-0.48-2l-0.292,0.188c1.529,2.414,3.315,3.863,4.576,4.708c0.636,0.424,1.156,0.699,1.509,0.878
												c0.357,0.169,0.546,0.247,0.554,0.233c0.008-0.016-0.168-0.121-0.508-0.318c-0.336-0.204-0.836-0.504-1.448-0.947
												c-1.213-0.882-2.933-2.351-4.386-4.737l-0.292,0.188c0.677,0.989,0.486,2.508-0.404,3.614
												c-0.447,0.544-1.042,1.026-1.761,1.234c-0.717,0.221-1.534,0.218-2.315,0.013c-1.576-0.411-3.035-1.56-3.978-3.117
												c-0.972-1.56-1.52-3.443-2.051-5.396l-0.225-0.828l-0.292,0.811c-0.704,1.964-1.464,4.107-3.139,5.518
												c-0.827,0.674-1.903,1.1-2.988,1.118c-1.091,0.038-2.153-0.486-2.745-1.426c-0.747-1.166-0.895-2.639-0.977-4.039
												c-0.078-1.412-0.027-2.81,0.103-4.177c0.261-2.738,0.841-5.346,1.384-7.83c0.55-2.484,1.089-4.851,1.414-7.108
												c0.334-2.255,0.399-4.391,0.282-6.327c-0.21-3.891-1.433-6.918-2.662-8.699
												C595.933,121.285,594.915,120.603,594.915,120.603z"/>
										</g>
									</g>
								</g>
							</g>
						</g>
					</g>
				</g>
				<g>
					<g>
						<g>
							<g>
								<g>
									<g>
										<g>
											<path style="fill:#455A64;" d="M516.509,132.349c-0.006,0.006,0.05,0.073,0.168,0.195c0.144,0.145,0.32,0.32,0.534,0.535
												c0.233,0.239,0.531,0.522,0.92,0.817c0.38,0.305,0.809,0.67,1.348,1.005c2.075,1.419,5.506,3.043,10.045,3.486
												c4.493,0.45,10.089-0.287,15.422-3.089c5.371-2.711,10.409-7.155,14.792-12.463c2.217-2.647,4.119-5.421,6.133-7.941
												c2.004-2.524,4.138-4.813,6.553-6.503c2.392-1.706,5.035-2.83,7.623-3.129c1.294-0.174,2.553-0.06,3.736,0.155
												c1.182,0.25,2.272,0.669,3.258,1.174c1.972,1.026,3.47,2.44,4.559,3.824c1.091,1.395,1.75,2.79,2.17,3.964
												c0.749,2.393,0.585,3.827,0.676,3.817c0.01,0,0.017-0.086,0.021-0.256c0-0.205,0.001-0.454,0.002-0.758
												c-0.017-0.665-0.148-1.646-0.488-2.871c-0.393-1.206-1.036-2.645-2.128-4.091c-1.089-1.433-2.603-2.905-4.623-3.986
												c-1.01-0.532-2.133-0.976-3.356-1.248c-1.223-0.236-2.543-0.363-3.881-0.194c-2.686,0.289-5.417,1.435-7.872,3.169
												c-2.482,1.72-4.663,4.046-6.688,6.585c-2.036,2.537-3.939,5.302-6.136,7.925c-4.35,5.268-9.317,9.665-14.591,12.359
												c-5.24,2.785-10.709,3.545-15.144,3.156c-4.472-0.384-7.871-1.924-9.96-3.27
												C517.497,133.351,516.563,132.287,516.509,132.349z"/>
										</g>
									</g>
								</g>
							</g>
						</g>
					</g>
				</g>
				<g>
					<g>
						<g>
							<g>
								<g>
									<g>
										<g>
											<path style="fill:#455A64;" d="M515.98,121.391c-0.025,0.031,0.249,0.292,0.771,0.74c0.514,0.457,1.32,1.049,2.36,1.706
												c1.036,0.667,2.345,1.343,3.851,1.972c1.515,0.603,3.233,1.143,5.084,1.506c1.855,0.342,3.651,0.471,5.283,0.468
												c1.631-0.033,3.097-0.181,4.306-0.42c1.209-0.23,2.176-0.484,2.821-0.721c0.65-0.225,1.001-0.367,0.989-0.404
												c-0.032-0.103-1.474,0.373-3.875,0.725c-1.199,0.185-2.642,0.289-4.242,0.292c-1.6-0.026-3.358-0.167-5.175-0.502
												c-1.812-0.355-3.499-0.869-4.996-1.433c-1.487-0.592-2.791-1.217-3.838-1.829
												C517.214,122.28,516.047,121.307,515.98,121.391z"/>
										</g>
									</g>
								</g>
							</g>
						</g>
					</g>
				</g>
			</g>
		</g>
		<g>
			<g>
				<path style="fill:#FF725E;" d="M480.816,254.68c0,0-9.309,93.675-12.204,127.624c-2.081,24.405-8.209,78.114-11.092,92.212
					h168.572c0,0,1.507-28.812,3.457-53.035c1.616-20.076,5.572-64.639,5.572-64.639c1.615,0.379,16.159-83.797,16.159-83.797
					s-58.052-21.945-56.812-21.467c0.669,0.258-8.51,17.265-33.744,16.664c-24.715-0.589-24.014-18.326-24.014-18.326
					L480.816,254.68z"/>
			</g>
			<g>
				<path style="fill:#FF725E;" d="M694.274,389.66c0,0-21.935-81.82-25.708-93.001c-6.528-19.344-17.287-23.614-17.287-23.614
					s-26.666,97.007-25.422,97.007c1.244,0,11.415,30.172,11.415,30.172L694.274,389.66z"/>
			</g>
			<g>
				<g>
					<path style="fill:#263238;" d="M643.379,301.75c0.009,0.002,0.001,0.094-0.023,0.272c-0.031,0.207-0.07,0.467-0.118,0.789
						c-0.122,0.73-0.29,1.741-0.504,3.023c-0.444,2.666-1.076,6.453-1.853,11.117c-1.526,9.393-3.456,22.397-5.148,36.816
						c-1.683,14.425-2.808,27.526-3.491,37.017c-0.32,4.717-0.58,8.548-0.763,11.244c-0.088,1.297-0.158,2.319-0.208,3.057
						c-0.027,0.324-0.05,0.586-0.067,0.795c-0.018,0.179-0.032,0.27-0.041,0.27c-0.009,0-0.013-0.093-0.012-0.273
						c0.004-0.21,0.009-0.472,0.015-0.797c0.027-0.74,0.064-1.764,0.11-3.063c0.101-2.66,0.301-6.507,0.598-11.258
						c0.589-9.502,1.656-22.617,3.341-37.052c1.692-14.429,3.682-27.435,5.302-36.816c0.808-4.691,1.501-8.481,2.017-11.093
						c0.254-1.275,0.455-2.28,0.6-3.006c0.069-0.318,0.124-0.574,0.169-0.779C643.345,301.837,643.37,301.748,643.379,301.75z"/>
				</g>
			</g>
		</g>
		<g>
			<path style="fill:#FF9A6C;" d="M558.617,200.098c-0.076-0.255-0.172-0.518-0.37-0.695c-0.358-0.321-0.905-0.255-1.378-0.17
				c-2.768,0.499-8.982,1.277-11.75,1.776c-0.517,2.86,0.953,7.82,3.631,8.95c2.678,1.13,5.998,0.343,8.013-1.752
				C558.777,206.112,559.452,202.881,558.617,200.098z"/>
		</g>
		<g>
			<g>
				<path style="fill:#263238;" d="M547.729,209.566c0.036-0.076,0.459,0.089,1.236,0.251c0.772,0.157,1.929,0.29,3.296,0.01
					c1.354-0.265,2.928-0.976,4.093-2.357c1.155-1.367,1.895-3.372,1.704-5.438c-0.037-0.51-0.159-1.026-0.301-1.477
					c-0.074-0.212-0.172-0.37-0.261-0.439c-0.08-0.067-0.207-0.104-0.417-0.1c-0.932,0.088-2.011,0.244-2.943,0.35
					c-1.91,0.23-3.632,0.423-5.08,0.57c-2.896,0.294-4.697,0.404-4.716,0.262c-0.019-0.142,1.747-0.511,4.618-0.992
					c1.436-0.24,3.148-0.509,5.051-0.791c0.977-0.135,1.895-0.299,3.044-0.419c0.308-0.014,0.737,0.038,1.078,0.31
					c0.333,0.264,0.491,0.604,0.6,0.896c0.188,0.576,0.316,1.137,0.364,1.735c0.217,2.379-0.657,4.638-2.018,6.164
					c-1.384,1.549-3.2,2.26-4.695,2.453c-1.516,0.209-2.748-0.058-3.529-0.346C548.067,209.911,547.701,209.618,547.729,209.566z"/>
			</g>
		</g>
		<g>
			<g>
				<path style="fill:#FFBF9D;" d="M423.261,219.553c0,0,13.826-25.767,16.55-27.234c2.723-1.466,9.427-6.285,14.036-4.609
					c0,0,4.818-7.751,10.894-6.494l2.514,1.676c0,0,6.075-3.352,8.38-0.628c2.304,2.723,2.304,2.723,2.304,2.723
					s4.19-5.722,6.704-3.909c2.514,1.814,2.723,2.861,2.514,5.375s-14.664,19.902-14.664,26.605s5.237,5.237,5.237,5.237
					s8.589-2.095,11.313-2.723c2.723-0.629,5.237,1.466,4.609,3.98c-0.629,2.514-4.399,1.466-6.913,4.818
					c-2.514,3.352-9.008,2.095-12.779,3.142c-3.771,1.048-23.463,7.961-25.767,9.427
					C445.886,238.407,423.261,219.553,423.261,219.553z"/>
			</g>
			<g>
				<g>
					<path style="fill:#FFBF9D;" d="M436.077,226.94c8.084-2.064,14.735-8.737,16.763-16.832c0.317-1.267-0.409-2.771-1.746-3.075
						c-1.296-0.295-2.735,0.389-3.075,1.746c-0.223,0.891-0.524,1.741-0.836,2.603c-0.068,0.166-0.053,0.136,0.042-0.092
						c-0.043,0.1-0.088,0.2-0.133,0.3c-0.09,0.199-0.183,0.397-0.28,0.593c-0.193,0.393-0.399,0.779-0.616,1.158
						c-0.454,0.791-0.958,1.555-1.512,2.278c0.264-0.345-0.061,0.068-0.154,0.18c-0.14,0.169-0.282,0.335-0.427,0.5
						c-0.29,0.329-0.589,0.649-0.899,0.96c-0.619,0.621-1.275,1.204-1.964,1.746c0.419-0.329-0.154,0.107-0.194,0.136
						c-0.178,0.128-0.357,0.253-0.539,0.376c-0.363,0.245-0.733,0.478-1.111,0.7c-0.377,0.221-0.762,0.431-1.152,0.628
						c-0.195,0.099-0.392,0.194-0.59,0.286c-0.144,0.067-0.612,0.268-0.204,0.099c-0.877,0.363-1.781,0.655-2.701,0.89
						c-1.267,0.324-2.156,1.807-1.746,3.075C433.426,226.503,434.719,227.287,436.077,226.94L436.077,226.94z"/>
				</g>
			</g>
			<g>
				<path style="fill:#E0E0E0;" d="M511.485,177.034c-0.645-0.311-56.023,23.335-56.023,23.335l9.535,27.333l56.988-15.372
					C521.985,212.33,528.987,185.479,511.485,177.034z"/>
			</g>
			<g>
				<path style="fill:#FFBF9D;" d="M423.261,219.553c0,0-56.3,60.271-63.223,71.699c-6.922,11.427-11.337,25.159-7.65,35.695
					c2.599,7.426,10.727,15.712,28.245,15.712c11.31,0,78.985-8.363,78.985-8.363l-12.76-59.65l-37.835,13.183
					c0,0,9.17-12.122,16.454-20.394c8.236-9.353,22.713-30.494,22.713-30.494L423.261,219.553z"/>
			</g>
			<g>
				<polygon style="fill:#FF725E;" points="480.816,254.68 412.435,286.64 421.103,353.145 474.953,335.941 481.731,309.548 				"/>
			</g>
			<g>
				<g>
					<path style="fill:#263238;" d="M475.694,282.438c0.009,0.001,0.01,0.096,0.004,0.282c-0.011,0.215-0.025,0.486-0.041,0.822
						c-0.051,0.76-0.121,1.816-0.21,3.157c-0.189,2.781-0.459,6.736-0.791,11.607c-0.596,9.84-1.416,23.37-2.322,38.315
						c-0.904,14.969-1.91,28.51-2.846,38.293c-0.465,4.891-0.877,8.846-1.208,11.574c-0.163,1.334-0.292,2.384-0.384,3.14
						c-0.046,0.334-0.083,0.602-0.113,0.815c-0.028,0.183-0.047,0.277-0.056,0.276c-0.009-0.001-0.008-0.096,0.003-0.282
						c0.016-0.215,0.036-0.485,0.062-0.821c0.069-0.759,0.165-1.812,0.287-3.15c0.269-2.734,0.625-6.692,1.043-11.586
						c0.841-9.787,1.788-23.325,2.693-38.292c0.904-14.962,1.727-28.511,2.474-38.309c0.37-4.899,0.695-8.862,0.956-11.598
						c0.13-1.337,0.233-2.391,0.307-3.149c0.038-0.335,0.069-0.604,0.093-0.818C475.669,282.531,475.685,282.437,475.694,282.438z"
						/>
				</g>
			</g>
			<g>
				<path style="fill:#E0E0E0;" d="M469.748,211.094c2.319,7.68,0.192,15.115-4.751,16.608c-4.943,1.493-10.831-3.522-13.15-11.202
					c-2.319-7.679-0.192-15.115,4.751-16.608C461.542,198.399,467.429,203.414,469.748,211.094z"/>
			</g>
			<g>
				<g>
					<path style="fill:#FFBF9D;" d="M477.938,184.987c0,0,1.931,5.315-0.565,7.243c-2.496,1.928-6.693,0.794-7.033,0
						c-0.34-0.794-1.248-5.445-1.248-5.445"/>
				</g>
				<g>
					<g>
						<path style="fill:#FF9A6C;" d="M469.092,186.785c0.072-0.014,0.353,1.117,0.797,2.942c0.119,0.469,0.245,0.964,0.377,1.485
							c0.07,0.264,0.148,0.541,0.239,0.801c0.064,0.153,0.065,0.175,0.182,0.261c0.084,0.08,0.223,0.142,0.342,0.21
							c1.069,0.471,2.455,0.655,3.817,0.474c1.353-0.183,2.641-0.827,3.133-1.876c0.523-1.049,0.482-2.205,0.434-3.111
							c-0.166-1.849-0.558-2.961-0.476-2.985c0.033-0.012,0.167,0.251,0.338,0.754c0.167,0.503,0.383,1.244,0.504,2.194
							c0.092,0.937,0.197,2.139-0.37,3.361c-0.576,1.264-2.041,1.986-3.49,2.179c-1.479,0.189-2.907-0.007-4.103-0.56
							c-0.148-0.088-0.295-0.154-0.433-0.282c-0.139-0.082-0.284-0.344-0.31-0.466c-0.095-0.298-0.162-0.576-0.226-0.848
							c-0.126-0.543-0.229-1.049-0.318-1.512C469.176,187.954,469.024,186.798,469.092,186.785z"/>
					</g>
				</g>
			</g>
			<g>
				<path style="fill:#E0E0E0;" d="M522.977,192.736c2.931,9.704,2.537,18.407-0.88,19.439c-3.416,1.032-8.562-5.998-11.492-15.702
					c-2.931-9.704-2.537-18.407,0.88-19.439C514.901,176.002,520.046,183.032,522.977,192.736z"/>
			</g>
			<g>
				<g>
					<path style="fill:#263238;" d="M521.978,211.966c-0.024,0.027-0.432-0.31-1.153-0.946c-0.366-0.312-0.801-0.708-1.263-1.212
						c-0.467-0.498-1.031-1.038-1.56-1.719c-0.554-0.659-1.152-1.389-1.718-2.23c-0.611-0.81-1.155-1.747-1.749-2.719
						c-1.117-1.985-2.179-4.266-3.009-6.764c-0.801-2.509-1.285-4.978-1.551-7.241c-0.092-1.136-0.204-2.214-0.187-3.228
						c-0.038-1.013,0.016-1.955,0.076-2.814c0.027-0.861,0.165-1.63,0.249-2.308c0.077-0.679,0.195-1.255,0.307-1.723
						c0.209-0.938,0.34-1.451,0.375-1.443c0.113,0.021-0.401,2.09-0.564,5.495c-0.035,0.851-0.068,1.783-0.012,2.783
						c0.001,1.002,0.129,2.064,0.232,3.184c0.289,2.23,0.78,4.66,1.569,7.134c0.818,2.464,1.852,4.717,2.931,6.689
						c0.575,0.966,1.098,1.9,1.686,2.71c0.544,0.842,1.118,1.576,1.648,2.243C520.423,210.513,522.057,211.883,521.978,211.966z"/>
				</g>
			</g>
			<g style="opacity:0.7;">
				<g>
					<path style="fill:#FFFFFF;" d="M465.507,201.725c8.2,2.131,16.422,4.267,24.813,5.434c8.391,1.167,16.998,1.348,25.283-0.419
						c1.314-0.28,2.675-0.61,3.984-0.307c1.309,0.303,2.533,1.475,2.377,2.81c-0.2,1.714-2.266,2.417-3.961,2.742
						c-4.013,0.771-8.026,1.543-12.038,2.314c-10.464,2.011-21.034,4.056-30.767,8.39c-3.909,1.741-8.071,3.898-12.242,2.945
						c-3.814-0.872-6.592-4.175-8.454-7.614c-1.488-2.748-2.604-5.861-2.17-8.956c0.434-3.095,2.801-6.078,5.913-6.362"/>
				</g>
			</g>
			<g>
				<g>
					<path style="fill:#263238;" d="M469.749,211.094c-0.059,0.019-0.343-1.009-1.141-2.747c-0.431-0.852-0.954-1.901-1.744-3.002
						c-0.775-1.104-1.766-2.303-3.092-3.359c-1.317-1.029-2.999-2.003-4.969-2.112c-0.97-0.048-1.993,0.097-2.931,0.547
						c-0.933,0.452-1.765,1.16-2.435,2.032c-0.682,0.867-1.185,1.907-1.537,3.015c-0.364,1.105-0.593,2.286-0.67,3.5
						c-0.207,2.428,0.153,4.973,0.868,7.455c0.778,2.464,1.887,4.784,3.404,6.692c0.737,0.968,1.581,1.826,2.496,2.545
						c0.907,0.728,1.902,1.315,2.949,1.66c1.041,0.356,2.126,0.485,3.153,0.345c1.03-0.144,1.964-0.59,2.744-1.167
						c1.581-1.182,2.442-2.925,2.969-4.51c0.52-1.613,0.682-3.16,0.716-4.509c0.048-1.354-0.097-2.518-0.21-3.465
						C470.021,212.124,469.689,211.11,469.749,211.094c0.017-0.005,0.102,0.246,0.249,0.731c0.163,0.481,0.329,1.21,0.521,2.155
						c0.145,0.952,0.322,2.126,0.301,3.501c-0.007,1.37-0.144,2.95-0.656,4.616c-0.521,1.637-1.385,3.463-3.059,4.743
						c-0.827,0.624-1.829,1.113-2.938,1.276c-1.106,0.16-2.271,0.028-3.375-0.343c-1.113-0.36-2.156-0.971-3.102-1.723
						c-0.955-0.744-1.829-1.627-2.591-2.622c-1.567-1.961-2.704-4.334-3.5-6.856c-0.732-2.54-1.098-5.145-0.878-7.645
						c0.084-1.249,0.323-2.469,0.707-3.617c0.372-1.15,0.902-2.236,1.63-3.152c0.715-0.92,1.611-1.675,2.621-2.154
						c1.014-0.477,2.119-0.626,3.153-0.563c2.102,0.14,3.833,1.181,5.173,2.257c1.349,1.104,2.338,2.344,3.102,3.481
						c0.779,1.134,1.282,2.21,1.688,3.083c0.364,0.894,0.629,1.593,0.759,2.084C469.697,210.832,469.766,211.089,469.749,211.094z"
						/>
				</g>
			</g>
			<g>
				<g>
					<path style="fill:#FFBF9D;" d="M446.859,195.973c0.227,0.34,2.496,0.908,2.496,0.908s-0.908,7.941,2.382,8.735
						c3.29,0.794,2.722-0.681,3.857-2.949c1.134-2.269,1.021-8.621,1.134-11.003c0.113-2.382-2.881-3.953-2.881-3.953"/>
				</g>
				<g>
					<g>
						<path style="fill:#FF9A6C;" d="M453.847,187.71c0.013-0.028,0.472,0.152,1.177,0.683c0.349,0.268,0.761,0.627,1.146,1.135
							c0.385,0.499,0.729,1.198,0.739,2.035c-0.029,1.559-0.016,3.406-0.116,5.47c-0.053,1.031-0.129,2.114-0.294,3.235
							c-0.089,0.56-0.188,1.13-0.367,1.703c-0.075,0.286-0.205,0.576-0.325,0.853c-0.124,0.255-0.238,0.518-0.343,0.789
							c-0.132,0.36-0.263,0.717-0.393,1.071c-0.142,0.355-0.311,0.753-0.667,1.042c-0.358,0.29-0.807,0.355-1.193,0.361
							c-0.388-0.012-0.759-0.061-1.113-0.137c-0.346-0.052-0.716-0.197-1.066-0.359l-0.445-0.35
							c-0.145-0.118-0.235-0.278-0.353-0.414c-0.419-0.58-0.657-1.223-0.808-1.84c-0.57-2.491-0.366-4.622-0.211-6.122l0.104,0.15
							c-1.652-0.445-2.549-0.93-2.462-1.042c0.017-0.007,0.193,0.133,0.632,0.264c0.427,0.14,1.071,0.317,1.897,0.509l0.111,0.026
							l-0.007,0.125c-0.083,1.472-0.213,3.611,0.374,5.973c0.152,0.584,0.387,1.173,0.756,1.668
							c0.173,0.263,0.417,0.444,0.663,0.629c0.279,0.114,0.556,0.238,0.913,0.29c0.656,0.125,1.425,0.235,1.882-0.131
							c0.45-0.38,0.608-1.195,0.899-1.9c1.116-2.11,1.161-4.38,1.335-6.419c0.126-2.042,0.151-3.899,0.227-5.447
							c0.014-0.729-0.265-1.375-0.607-1.862c-0.34-0.494-0.718-0.863-1.037-1.148C454.248,187.984,453.826,187.745,453.847,187.71z"
							/>
					</g>
				</g>
			</g>
			<g>
				<g>
					<path style="fill:#FFBF9D;" d="M466.684,182.512c0,0,1.886,1.873,1.047,6.202c-0.529,2.73-1.134,10.777-2.496,12.705
						c-1.361,1.928-4.41,1.572-5.445,0.681c-0.968-0.834-0.568-9.479,0-11.23l-1.286,1.823"/>
				</g>
				<g>
					<g>
						<path style="fill:#FF9A6C;" d="M458.505,192.691c-0.018-0.012,0.078-0.183,0.278-0.502c0.247-0.377,0.546-0.833,0.911-1.389
							l0.353-0.539l-0.143,0.644c-0.335,1.51-0.478,3.969-0.476,6.935c0.012,0.742,0.033,1.52,0.107,2.316
							c0.042,0.397,0.094,0.798,0.183,1.188c0.106,0.41,0.211,0.624,0.614,0.811c1.413,0.678,3.584,0.585,4.653-0.841
							c0.662-1.044,0.895-2.409,1.159-3.624c0.243-1.242,0.426-2.454,0.593-3.61c0.329-2.306,0.589-4.423,0.934-6.146
							c0.253-1.729,0.031-3.157-0.306-4.068c-0.332-0.92-0.711-1.332-0.68-1.356c0.02-0.028,0.465,0.352,0.869,1.281
							c0.408,0.918,0.697,2.399,0.483,4.19c-0.303,1.758-0.518,3.833-0.824,6.164c-0.155,1.162-0.329,2.382-0.568,3.641
							c-0.116,0.63-0.26,1.269-0.434,1.914c-0.197,0.639-0.372,1.305-0.806,1.921c-0.614,0.844-1.607,1.293-2.553,1.411
							c-0.956,0.106-1.91-0.015-2.749-0.436c-0.205-0.13-0.415-0.203-0.581-0.46c-0.097-0.123-0.15-0.241-0.175-0.348
							c-0.034-0.11-0.08-0.223-0.102-0.331c-0.094-0.431-0.143-0.85-0.181-1.26c-0.066-0.82-0.076-1.607-0.076-2.358
							c0.051-3.003,0.257-5.439,0.692-7.009l0.21,0.105c-0.402,0.53-0.731,0.965-1.003,1.324
							C458.651,192.557,458.522,192.704,458.505,192.691z"/>
					</g>
				</g>
			</g>
			<g>
				<g>
					<path style="fill:#FF9A6C;" d="M409.515,287.284c0.035,0.009-0.095,0.607-0.36,1.685c-0.127,0.54-0.297,1.198-0.542,1.947
						c-0.239,0.751-0.48,1.617-0.842,2.542c-0.657,1.874-1.59,4.052-2.766,6.401c-1.207,2.333-2.674,4.828-4.423,7.308
						c-1.77,2.466-3.647,4.67-5.456,6.575c-1.835,1.881-3.586,3.477-5.142,4.711c-0.755,0.645-1.495,1.157-2.126,1.629
						c-0.628,0.477-1.193,0.853-1.662,1.15c-0.931,0.604-1.454,0.922-1.473,0.892c-0.02-0.03,0.465-0.406,1.357-1.058
						c0.45-0.321,0.995-0.72,1.603-1.216c0.611-0.491,1.331-1.021,2.066-1.679c1.516-1.263,3.228-2.875,5.029-4.759
						c1.776-1.908,3.625-4.102,5.38-6.546c1.734-2.458,3.2-4.923,4.421-7.226c1.19-2.318,2.151-4.464,2.848-6.31
						c0.382-0.911,0.646-1.764,0.91-2.503c0.27-0.737,0.468-1.383,0.624-1.913C409.284,287.857,409.48,287.276,409.515,287.284z"/>
				</g>
			</g>
		</g>
	</g>
</g>
<g id="Character_1">
	<g>
		<g>
			<g>
				<path style="fill:#AE7461;" d="M234.289,286.393c0,0,18.016,3.767,31.919,18.724c4.035,4.341,8.618,8.012,13.481,11.169
					c4.436,2.88,9.739,6.045,14.496,8.141c10.383,4.574,7.589,3.248,7.589,3.248l-22.476-45.842L304,270.204
					c0,0,33.595,57.683,38.202,68.845c4.607,11.162,1.744,34.894-10.574,37.14c-11.746,2.141-37.234-4.127-46.658-8.354
					c-10.953-4.914-32.702-13.098-32.702-13.098L234.289,286.393z"/>
			</g>
			<g>
				<path style="fill:#AE7461;" d="M260.988,261.215c0,0-7.069-2.538-8.881,0c-1.813,2.538-1.033,4.35,1.024,5.619
					c2.057,1.269,2.057-1.087,6.045,1.088c3.987,2.175,18.623,16.594,21.886,15.688c3.263-0.906-4.124-13.513-4.124-13.513
					L260.988,261.215z"/>
			</g>
			<g>
				<path style="fill:#AE7461;" d="M267.331,266.652c0.181,0.725,6.706,10.875,10.694,15.225
					c3.987,4.35,11.781,12.687,11.781,12.687l20.895-11.429l-6.757-11.728c0,0-1.445-21.515-2.17-24.415
					c-0.725-2.9-5.261-3.359-5.261-3.359s-1.45-6.344-5.438-7.612c-3.987-1.269-5.075,0-5.075,0s-4.169-7.431-6.706-7.794
					c-2.538-0.363-7.069,1.994-7.069,1.994s0-2.9-3.263-3.625c-3.262-0.725-7.069,1.631-7.069,1.631l-2.175,6.887L267.331,266.652z"
					/>
			</g>
			<g>
				<g>
					<path style="fill:#6F4439;" d="M301.773,279.311c0.019,0.059-1.003,0.471-2.725,0.922c-1.72,0.452-4.151,0.9-6.867,1.046
						c-2.718,0.141-5.183-0.049-6.94-0.317c-1.76-0.267-2.82-0.569-2.807-0.629c0.016-0.08,1.098,0.093,2.852,0.264
						c1.753,0.173,4.186,0.302,6.868,0.163c2.681-0.144,5.086-0.529,6.812-0.885C300.691,279.519,301.749,279.233,301.773,279.311z"
						/>
				</g>
			</g>
			<g>
				<g>
					<path style="fill:#E0E0E0;" d="M238.913,234.895c4.529-8.781,6.539-16.756,4.489-17.814c-2.05-1.057-7.384,5.204-11.913,13.984
						c-4.529,8.781-6.539,16.756-4.489,17.814C229.05,249.937,234.384,243.676,238.913,234.895z"/>
				</g>
				<g>
					<path style="fill:#E0E0E0;" d="M227.242,249.004l55.082,25.642c9.694-5.893,14.405-15.426,13.259-25.705l-51.89-31.79
						L227.242,249.004z"/>
				</g>
				<g>
					<g>
						<path style="fill:#263238;" d="M238.913,234.895c0.016,0.008-0.092,0.252-0.313,0.71c-0.223,0.457-0.562,1.125-1.024,1.973
							c-0.932,1.689-2.322,4.124-4.413,6.887c-1.066,1.359-2.254,2.866-3.949,4.086c-0.433,0.289-0.913,0.562-1.499,0.652
							c-0.293,0.035-0.628-0.004-0.906-0.18c-0.277-0.173-0.471-0.446-0.581-0.721c-0.412-1.125-0.261-2.281-0.112-3.419
							c0.362-2.283,1.1-4.584,1.979-6.913c0.89-2.326,1.954-4.677,3.162-7.023c1.211-2.345,2.51-4.575,3.89-6.65
							c1.388-2.067,2.836-4.002,4.486-5.621c0.841-0.781,1.695-1.574,2.851-1.891c0.288-0.07,0.623-0.07,0.925,0.055
							c0.304,0.124,0.531,0.375,0.672,0.634c0.266,0.531,0.322,1.08,0.337,1.6c-0.012,2.089-0.552,3.93-1.04,5.587
							c-1.039,3.305-2.218,5.85-3.053,7.588c-0.423,0.868-0.771,1.532-1.014,1.978C239.066,234.674,238.929,234.904,238.913,234.895
							c-0.016-0.008,0.089-0.254,0.304-0.714c0.232-0.506,0.539-1.177,0.924-2.016c0.777-1.758,1.9-4.319,2.885-7.608
							c0.463-1.64,0.971-3.489,0.961-5.469c-0.015-0.487-0.086-0.99-0.297-1.399c-0.214-0.409-0.63-0.58-1.106-0.456
							c-0.951,0.259-1.817,1.023-2.615,1.788c-1.598,1.585-3.028,3.508-4.396,5.559c-1.362,2.06-2.649,4.277-3.852,6.606
							c-1.2,2.33-2.26,4.663-3.148,6.966c-0.878,2.304-1.616,4.583-1.981,6.804c-0.16,1.094-0.281,2.242,0.059,3.167
							c0.174,0.461,0.555,0.701,1.012,0.638c0.455-0.065,0.906-0.299,1.312-0.569c1.618-1.14,2.83-2.625,3.899-3.953
							c2.11-2.71,3.545-5.109,4.528-6.761c0.461-0.8,0.83-1.44,1.108-1.922C238.758,235.115,238.897,234.887,238.913,234.895z"/>
					</g>
				</g>
				<g>
					<g>
						<path style="fill:#263238;" d="M295.479,250.287c0.057,0.077-1.225,1.001-3.058,2.752c-0.921,0.87-1.949,1.976-3.016,3.264
							c-1.048,1.304-2.123,2.798-3.114,4.454c-0.976,1.666-1.77,3.328-2.41,4.873c-0.617,1.555-1.093,2.988-1.413,4.214
							c-0.655,2.449-0.849,4.017-0.944,4.004c-0.036-0.004-0.011-0.398,0.063-1.11c0.065-0.713,0.238-1.736,0.523-2.984
							c0.278-1.251,0.723-2.715,1.324-4.301c0.624-1.577,1.417-3.271,2.408-4.962c1.006-1.681,2.11-3.19,3.193-4.495
							c1.102-1.289,2.171-2.383,3.135-3.228c0.957-0.85,1.771-1.494,2.365-1.893C295.124,250.469,295.458,250.258,295.479,250.287z"
							/>
					</g>
				</g>
				<g>
					<path style="fill:#FFFFFF;" d="M234.144,249.004c0,0,46.968,23.048,47.362,22.783c0.394-0.265,8.703-5.421,10.485-11.721
						c1.782-6.3,0.903-9.78,0.903-9.78s-14.53-8.585-17.314-9.468c-2.784-0.883-17.115,2.895-21.218,2.692
						c-4.102-0.203-9.749-1.822-15.091-0.11C235.201,244.705,234.144,249.004,234.144,249.004z"/>
				</g>
			</g>
			<g>
				<g>
					<path style="fill:#6F4439;" d="M313.396,337.513c-0.056,0.051-0.72-0.588-1.798-1.609c-1.078-1.021-2.583-2.412-4.313-3.87
						c-1.732-1.456-3.359-2.703-4.549-3.591c-1.19-0.888-1.933-1.433-1.892-1.497c0.036-0.057,0.852,0.379,2.103,1.196
						c1.251,0.815,2.927,2.025,4.674,3.494c1.744,1.47,3.222,2.915,4.239,4.009C312.877,336.738,313.446,337.467,313.396,337.513z"
						/>
				</g>
			</g>
			<g>
				<path style="fill:#AE7461;" d="M272.734,230.21c-1.413,0.82-6.632,3.941-8.045,4.761c-0.479,0.278-0.99,0.591-1.201,1.104
					c-0.239,0.581-0.02,1.25,0.293,1.796c1.514,2.643,4.922,2.601,7.878,1.864c2.955-0.737,8.209-2.233,10.192-4.546"/>
			</g>
			<g>
				<path style="fill:#AE7461;" d="M286.508,235.707c-2.465,0.662-5.973,2.664-7.253,4.873c-0.186,0.32-0.896,1.514-0.804,1.872
					c0.066,0.255,0.255,0.456,0.438,0.646c0.453,0.471,0.939,0.962,1.571,1.13c0.455,0.121,0.937,0.059,1.402-0.016
					c3.476-0.565,6.827-1.884,9.756-3.838L286.508,235.707z"/>
			</g>
			<g>
				<path style="fill:#AE7461;" d="M263.561,227.555c-1.013,0.005-1.939,0.739-2.331,1.673c-0.392,0.934-0.304,2.022,0.073,2.962
					c0.279,0.696,0.733,1.352,1.395,1.704c0.747,0.398,1.648,0.359,2.484,0.223c2.3-0.374,4.487-1.42,6.223-2.976L263.561,227.555z"
					/>
			</g>
			<g>
				<g>
					<path style="fill:#6F4439;" d="M275.124,228.931c0.056,0.148-2.798,1.246-6.02,3.161c-3.233,1.898-5.571,3.868-5.674,3.747
						c-0.044-0.05,0.486-0.609,1.438-1.408c0.951-0.799,2.337-1.821,3.972-2.788c1.635-0.964,3.199-1.686,4.358-2.133
						C274.356,229.063,275.101,228.868,275.124,228.931z"/>
				</g>
			</g>
			<g>
				<g>
					<path style="fill:#6F4439;" d="M286.214,235.881c0.049,0.154-2.079,0.734-4.202,2.332c-2.143,1.572-3.312,3.442-3.446,3.35
						c-0.121-0.042,0.894-2.12,3.136-3.768C283.926,236.125,286.209,235.753,286.214,235.881z"/>
				</g>
			</g>
			<g>
				<g>
					<path style="fill:none;stroke:#FFE1D3;stroke-width:0.05;stroke-miterlimit:10;" d="M295.23,244.113"/>
				</g>
			</g>
			<g>
				<path style="fill:#AE7461;" d="M302.192,249.548c0.031-1.634-0.306-3.403-1.508-4.51c-0.883-0.814-2.095-1.146-3.256-1.452
					c-2.609-0.687-5.219-1.373-7.828-2.06c-0.478-0.126-0.975-0.252-1.461-0.162c-1.213,0.226-1.798,1.762-1.444,2.944
					c0.354,1.182,1.342,2.05,2.323,2.799c4.184,3.195,7.432,6.226,12.578,7.335h0.397
					C301.833,252.814,302.162,251.182,302.192,249.548z"/>
			</g>
			<g>
				<g>
					<path style="fill:#6F4439;" d="M298.646,253.326c-0.016,0.031-0.382-0.116-1.023-0.424c-0.641-0.308-1.557-0.776-2.674-1.381
						c-1.116-0.607-2.436-1.347-3.877-2.216c-0.72-0.437-1.47-0.901-2.228-1.436c-0.75-0.541-1.509-1.19-2.047-2.067
						c-0.552-0.862-0.734-1.965-0.46-2.914c0.229-0.968,1.076-1.759,1.991-1.895c0.904-0.162,1.728,0.036,2.453,0.209
						c0.729,0.179,1.402,0.374,2.009,0.569c1.216,0.39,2.171,0.785,2.818,1.081c0.648,0.298,0.99,0.493,0.976,0.525
						c-0.034,0.079-1.472-0.562-3.901-1.253c-0.607-0.171-1.277-0.342-2.001-0.501c-0.717-0.156-1.5-0.312-2.26-0.159
						c-0.76,0.137-1.392,0.738-1.595,1.561c-0.221,0.817-0.079,1.733,0.413,2.507c0.995,1.564,2.706,2.45,4.082,3.365
						c1.419,0.887,2.717,1.658,3.807,2.304c1.016,0.598,1.88,1.106,2.588,1.523C298.328,253.085,298.663,253.293,298.646,253.326z"
						/>
				</g>
			</g>
		</g>
		<g>
			<path style="fill:#FF725E;" d="M118.519,356.249l35.061,95.503l-5.071,16.632l-4.772,5.686h125.263c0,0-9.28-47.486-9.28-62.374
				c0-4.683,4.335-30.295,4.335-50.156c0-15.812-8.319-36.564-12.963-47.245c-1.52-3.495-16.802-27.902-16.802-27.902l-28.59-3.809
				l-47.619,3.557l-39.561,19.59V356.249z"/>
		</g>
		<g>
			<g>
				<path style="fill:#263238;" d="M132.464,185.892l6.425-28.231c-3.661-11.59-19.484-9.286-28.575-3.675
					c-9.091,5.611-15.419,15.01-18.864,25.122c-3.446,10.112-4.224,20.948-4.058,31.63c0.199,12.799,1.569,26.312-4.169,37.754
					c-2.955,5.892-7.74,11.077-8.768,17.588c-1.232,7.806,4.121,16.105,11.74,18.201s16.465-2.298,19.397-9.636
					c0.421,6.331,6.095,11.604,12.375,12.513c6.28,0.909,12.732-2.036,17.005-6.727c4.273-4.69,6.562-10.918,7.499-17.194
					C146.339,237.333,128.807,211.826,132.464,185.892z"/>
			</g>
			<g>
				<g>
					<g>
						<g>
							<path style="fill:#455A64;" d="M125.307,165.704c1.222-3.267,2.484-6.588,4.644-9.329c2.159-2.74,5.394-4.857,8.881-4.807
								c1.642,0.023,3.417,0.643,4.218,2.075c0.802,1.433,0.018,3.672-1.617,3.822l-0.292,0.354
								c-3.032,3.804-6.139,7.548-9.319,11.23c-0.8,0.927-1.634,1.872-2.725,2.428c-1.092,0.556-2.516,0.637-3.475-0.125
								C124.038,170.094,124.598,167.601,125.307,165.704z"/>
						</g>
					</g>
				</g>
				<g>
					<g>
						<g>
							<path style="fill:#263238;" d="M120.6,178.659c9.382-16.695,23.948-27.915,42.753-31.536
								c10.609-2.043,15.401-0.605,23.427,0.118c8.025,0.722,15.661,3.62,21.37,9.306c6.782,6.753,12.857,14.583,15.529,23.773
								c2.743,9.441,5.5,18.946,6.468,28.73c0.968,9.784,0.053,19.969-4.258,28.805l-23.82,8.58
								c-13.488,2.844-27.167,5.703-40.929,4.927c-13.763-0.775-27.855-5.634-36.968-15.976
								C111.511,221.015,111.217,195.354,120.6,178.659z"/>
						</g>
					</g>
				</g>
				<g>
					<g>
						<g>
							<path style="fill:#AE7461;" d="M142.433,174.661l30.47-18.768l8.731-0.507c19.265-3.311,36.27,15.593,39.133,31.165
								c3.18,17.3,6.381,38.547,5.869,51.799c-1.029,26.648-22.568,32.631-22.568,32.631s0.907,4.077,2.584,12.67v0
								c-3.629,14.197-25.693,17.771-47.146,6.013l-0.841-0.92l-23.348-103.77C134.653,180.21,137.744,175.73,142.433,174.661z"/>
						</g>
					</g>
				</g>
				<g>
					<g>
						<g>
							<path style="fill:#263238;" d="M216.203,209.528c0.274,1.765-0.994,3.451-2.831,3.77c-1.833,0.32-3.544-0.847-3.818-2.611
								c-0.274-1.763,0.994-3.452,2.826-3.771C214.217,206.595,215.929,207.765,216.203,209.528z"/>
						</g>
					</g>
				</g>
				<g>
					<g>
						<g>
							<path style="fill:#263238;" d="M216.419,196.241c-0.364,0.487-3.129-1.089-6.738-0.649c-3.61,0.389-6.037,2.562-6.482,2.166
								c-0.216-0.172,0.115-1.012,1.167-1.99c1.035-0.972,2.875-2.016,5.124-2.275c2.25-0.256,4.24,0.346,5.428,1.063
								C216.129,195.275,216.6,196.021,216.419,196.241z"/>
						</g>
					</g>
				</g>
				<g>
					<g>
						<g>
							<path style="fill:#263238;" d="M198.366,228.309c-0.042-0.203,2.156-0.859,5.736-1.758c0.91-0.205,1.76-0.493,1.841-1.14
								c0.137-0.692-0.367-1.639-0.941-2.658c-1.133-2.127-2.32-4.356-3.564-6.693c-4.977-9.539-8.7-17.428-8.314-17.624
								c0.386-0.197,4.735,7.375,9.713,16.914c1.205,2.355,2.357,4.6,3.454,6.747c0.474,1.006,1.215,2.122,0.91,3.56
								c-0.166,0.719-0.783,1.299-1.355,1.529c-0.569,0.251-1.086,0.322-1.539,0.404
								C200.672,228.224,198.404,228.512,198.366,228.309z"/>
						</g>
					</g>
				</g>
				<g>
					<g>
						<g>
							<path style="fill:#6F4439;" d="M204.105,270.944c0,0-17.458,3.236-36.14-5.159c0,0,11.496,17.013,37.378,11.439
								L204.105,270.944z"/>
						</g>
					</g>
				</g>
				<g>
					<g>
						<g>
							<path style="fill:#263238;" d="M213.004,183.935c-0.501,0.954-3.335,0.695-6.532,1.349c-3.218,0.551-5.771,1.824-6.575,1.115
								c-0.362-0.35-0.112-1.251,0.901-2.271c0.997-1.014,2.806-2.059,5.011-2.475c2.205-0.412,4.262-0.095,5.551,0.49
								C212.666,182.727,213.216,183.477,213.004,183.935z"/>
						</g>
					</g>
				</g>
				<g>
					<g>
						<g>
							<path style="fill:#263238;" d="M177.883,215.25c0.215,1.772,1.893,3.051,3.748,2.859c1.851-0.19,3.181-1.778,2.966-3.55
								c-0.216-1.772-1.895-3.052-3.745-2.862C178.997,211.889,177.667,213.479,177.883,215.25z"/>
						</g>
					</g>
				</g>
				<g>
					<g>
						<g>
							<path style="fill:#263238;" d="M167.798,203.348c0.482,0.37,2.715-1.899,6.307-2.456c3.58-0.607,6.507,0.825,6.826,0.324
								c0.161-0.225-0.385-0.943-1.663-1.598c-1.26-0.654-3.315-1.159-5.55-0.798c-2.235,0.365-3.987,1.486-4.935,2.498
								C167.814,202.339,167.563,203.184,167.798,203.348z"/>
						</g>
					</g>
				</g>
				<g>
					<g>
						<g>
							<path style="fill:#263238;" d="M167.937,191.517c0.835,0.704,3.473-0.578,6.797-1.144c3.306-0.669,6.238-0.422,6.753-1.377
								c0.22-0.459-0.354-1.206-1.708-1.784c-1.336-0.577-3.466-0.886-5.745-0.464c-2.278,0.426-4.146,1.477-5.172,2.495
								C167.816,190.267,167.563,191.168,167.937,191.517z"/>
						</g>
					</g>
				</g>
				<g>
					<g>
						<g>
							<path style="fill:#AE7461;" d="M147.406,227.722c-0.237-1.947-3.037-6.27-4.996-6.34c-5.231-0.187-14.44,1.331-12.969,14.385
								c2.012,17.845,19.514,12.144,19.488,11.629C148.908,246.992,148.225,234.445,147.406,227.722z"/>
						</g>
					</g>
				</g>
				<g>
					<g>
						<g>
							<path style="fill:#6F4439;" d="M143.271,241.431c-0.085-0.048-0.286,0.253-0.784,0.553c-0.487,0.292-1.35,0.554-2.32,0.31
								c-1.963-0.479-3.887-3.293-4.336-6.5c-0.229-1.619-0.064-3.204,0.367-4.55c0.398-1.367,1.139-2.374,2.07-2.649
								c0.919-0.325,1.655,0.167,1.931,0.644c0.296,0.473,0.222,0.842,0.32,0.861c0.055,0.04,0.35-0.341,0.123-1.062
								c-0.114-0.347-0.37-0.744-0.829-1.04c-0.467-0.3-1.116-0.406-1.77-0.26c-1.366,0.251-2.461,1.656-2.935,3.133
								c-0.548,1.492-0.773,3.277-0.516,5.096c0.52,3.583,2.739,6.74,5.404,7.195c1.291,0.185,2.297-0.311,2.79-0.793
								C143.288,241.867,143.336,241.457,143.271,241.431z"/>
						</g>
					</g>
				</g>
				<g>
					<g>
						<g>
							<path style="fill:#263238;" d="M141.698,221.559l5.302,3.865c16.116-21.94,45.825-75.006,44.197-71.869
								c0,0-14.227-3.129-28.2,1.853c-13.972,4.981-40.026,16.984-36.626,33.898C129.772,206.219,141.698,221.559,141.698,221.559z"
								/>
						</g>
					</g>
				</g>
				<g>
					<g>
						<g>
							<path style="fill:#455A64;" d="M115.362,222.162c-0.031-0.004,0-0.37,0.091-1.069c0.096-0.696,0.306-1.717,0.716-2.994
								c0.82-2.54,2.616-6.098,5.921-9.597c3.235-3.566,8.013-6.851,13.601-9.753c5.568-2.96,11.963-5.622,18.005-9.574
								c6.104-3.855,11.356-8.367,15.728-12.831c4.349-4.499,7.805-8.979,10.422-12.923c2.618-3.948,4.429-7.337,5.636-9.698
								c0.549-1.119,0.993-2.028,1.344-2.745c0.312-0.626,0.491-0.95,0.52-0.937c0.03,0.012-0.092,0.36-0.35,1.012
								c-0.267,0.647-0.634,1.616-1.192,2.825c-1.113,2.418-2.847,5.875-5.415,9.898c-2.567,4.019-5.999,8.581-10.357,13.156
								c-4.38,4.539-9.673,9.119-15.843,13.017c-6.122,4.001-12.567,6.654-18.107,9.55c-5.573,2.844-10.287,6.008-13.522,9.45
								c-3.302,3.377-5.144,6.805-6.055,9.267C115.606,220.699,115.459,222.18,115.362,222.162z"/>
						</g>
					</g>
				</g>
				<g>
					<g>
						<g>
							<path style="fill:#455A64;" d="M120.988,224.04c0,0-0.432-1.414,0.008-3.978c0.403-2.539,1.922-6.158,5.175-9.477
								c3.203-3.4,8.167-6.025,13.719-8.36c5.583-2.301,11.597-5.046,17.287-9.022c5.684-3.952,10.627-8.397,14.553-12.939
								c3.956-4.518,6.997-9.022,9.259-12.961c2.301-3.926,3.706-7.341,4.733-9.67c0.431-1.111,0.783-2.016,1.063-2.735
								c0.253-0.623,0.4-0.946,0.43-0.936c0.03,0.009-0.058,0.352-0.254,0.995c-0.238,0.737-0.537,1.665-0.904,2.804
								c-0.93,2.379-2.253,5.858-4.501,9.859c-2.208,4.013-5.223,8.601-9.187,13.199c-3.933,4.621-8.917,9.141-14.67,13.14
								c-5.746,4.02-11.9,6.797-17.477,9.044c-5.551,2.285-10.422,4.797-13.588,8.038c-3.224,3.173-4.786,6.635-5.286,9.089
								C120.809,222.605,121.111,224.039,120.988,224.04z"/>
						</g>
					</g>
				</g>
				<g>
					<g>
						<g>
							<path style="fill:#455A64;" d="M147.526,251.346c-0.004-0.122-1.551-0.052-4.285-0.277
								c-2.724-0.269-6.683-1.212-10.849-3.789c-4.199-2.521-8.305-6.872-11.642-12.432c-3.326-5.567-5.929-12.34-7.402-19.696
								c-0.723-3.678-1.07-7.325-1.026-10.856c0.091-3.53,0.547-6.914,1.249-10.081c1.492-6.326,4.007-11.698,6.646-15.848
								c5.31-8.34,10.277-12.197,10.037-12.41c-0.027-0.031-0.332,0.204-0.889,0.68c-0.543,0.489-1.396,1.162-2.37,2.158
								c-1.998,1.937-4.725,4.948-7.483,9.121c-2.769,4.155-5.419,9.594-7.003,16.049c-0.747,3.231-1.238,6.694-1.346,10.308
								c-0.062,3.614,0.286,7.359,1.024,11.111c1.5,7.487,4.178,14.368,7.631,20.029c3.461,5.652,7.751,10.073,12.138,12.581
								c4.354,2.566,8.463,3.402,11.245,3.533c1.392,0.135,2.484-0.046,3.214-0.051C147.149,251.431,147.53,251.387,147.526,251.346
								z"/>
						</g>
					</g>
				</g>
				<g>
					<g>
						<g>
							<path style="fill:#6F4439;" d="M187.325,234.147c-0.522-0.207-1.083-0.418-1.63-0.292c-0.504,0.116-0.903,0.499-1.222,0.907
								c-1.503,1.924-1.696,4.776-0.464,6.885c1.232,2.109,3.81,3.343,6.225,2.979c2.415-0.364,5.08-2.169,5.882-6.758
								C193.365,236.777,190.076,235.238,187.325,234.147z"/>
						</g>
					</g>
				</g>
				<g>
					<g>
						<g>
							<path style="fill:#263238;" d="M190.259,244.795c0.015-0.173-1.633,0.202-3.723-1.003c-1.012-0.59-2.069-1.621-2.56-3.075
								c-0.504-1.434-0.438-3.266,0.407-4.809c0.432-0.746,1.012-1.5,1.642-1.488c0.662-0.014,1.516,0.458,2.263,0.734
								c1.441,0.573,2.792,1.111,4.044,1.609c2.312,0.892,3.764,1.386,3.809,1.273c0.045-0.114-1.326-0.814-3.579-1.855
								c-1.23-0.552-2.558-1.149-3.974-1.785c-0.773-0.284-1.445-0.794-2.593-0.843c-0.586,0.003-1.133,0.333-1.489,0.701
								c-0.37,0.374-0.641,0.785-0.9,1.227c-0.98,1.794-1.02,3.88-0.4,5.511c0.615,1.664,1.878,2.776,3.027,3.348
								C188.63,245.508,190.33,244.849,190.259,244.795z"/>
						</g>
					</g>
				</g>
			</g>
		</g>
		<g>
			<path style="fill:#AE7461;" d="M122.609,303.749h-2.067c0,0-20.257,8.12-25.631,22.25
				c-5.374,14.13-13.354,148.516-13.354,148.516h37.152l9.435-96.353C128.144,378.163,148.653,314.498,122.609,303.749z"/>
		</g>
		<g>
			<g>
				<path style="fill:#263238;" d="M208.118,422.099c11.654-11.439,24.073-22.099,37.145-31.887"/>
			</g>
			<g>
				<g>
					<path style="fill:#263238;" d="M245.263,390.212c0.011,0.014-0.115,0.132-0.366,0.342c-0.3,0.243-0.667,0.54-1.109,0.899
						c-1.034,0.82-2.423,1.923-4.111,3.262c-3.467,2.758-8.218,6.617-13.348,11.017c-5.129,4.405-9.662,8.517-12.914,11.527
						c-1.58,1.466-2.88,2.672-3.847,3.569c-0.422,0.383-0.77,0.7-1.057,0.96c-0.246,0.215-0.381,0.322-0.393,0.31
						c-0.013-0.013,0.098-0.145,0.32-0.384c0.268-0.279,0.594-0.619,0.989-1.031c0.865-0.889,2.14-2.151,3.736-3.691
						c3.19-3.081,7.692-7.243,12.828-11.654c5.137-4.407,9.932-8.226,13.46-10.913c1.764-1.344,3.205-2.413,4.215-3.134
						c0.467-0.328,0.852-0.599,1.169-0.821C245.105,390.287,245.252,390.198,245.263,390.212z"/>
				</g>
			</g>
		</g>
		<g>
			<polygon style="fill:#AE7461;" points="153.58,451.753 262.668,438.056 268.999,474.071 143.737,474.071 148.508,468.385 			"/>
		</g>
	</g>
</g>
</svg>
